<?xml version="1.0" encoding="utf-8"?>
<svg xmlns="http://www.w3.org/2000/svg" xmlns:xlink="http://www.w3.org/1999/xlink" width="600" height="400" viewBox="0 0 2400 1600">
<defs>
  <clipPath id="clip520">
    <rect x="0" y="0" width="2400" height="1600"/>
  </clipPath>
</defs>
<path clip-path="url(#clip520)" d="M0 1600 L2400 1600 L2400 0 L0 0  Z" fill="#ffffff" fill-rule="evenodd" fill-opacity="1"/>
<defs>
  <clipPath id="clip521">
    <rect x="480" y="0" width="1681" height="1600"/>
  </clipPath>
</defs>
<path clip-path="url(#clip520)" d="M323.213 1284.79 L2132.28 1284.79 L2132.28 283.465 L323.213 283.465  Z" fill="#ffffff" fill-rule="evenodd" fill-opacity="1"/>
<defs>
  <clipPath id="clip522">
    <rect x="323" y="283" width="1810" height="1002"/>
  </clipPath>
</defs>
<polyline clip-path="url(#clip522)" style="stroke:#000000; stroke-linecap:round; stroke-linejoin:round; stroke-width:2; stroke-opacity:0.1; fill:none" points="652.135,1284.79 652.135,283.465 "/>
<polyline clip-path="url(#clip522)" style="stroke:#000000; stroke-linecap:round; stroke-linejoin:round; stroke-width:2; stroke-opacity:0.1; fill:none" points="1063.29,1284.79 1063.29,283.465 "/>
<polyline clip-path="url(#clip522)" style="stroke:#000000; stroke-linecap:round; stroke-linejoin:round; stroke-width:2; stroke-opacity:0.1; fill:none" points="1474.44,1284.79 1474.44,283.465 "/>
<polyline clip-path="url(#clip522)" style="stroke:#000000; stroke-linecap:round; stroke-linejoin:round; stroke-width:2; stroke-opacity:0.1; fill:none" points="1885.59,1284.79 1885.59,283.465 "/>
<polyline clip-path="url(#clip520)" style="stroke:#000000; stroke-linecap:round; stroke-linejoin:round; stroke-width:4; stroke-opacity:1; fill:none" points="323.213,1284.79 2132.28,1284.79 "/>
<polyline clip-path="url(#clip520)" style="stroke:#000000; stroke-linecap:round; stroke-linejoin:round; stroke-width:4; stroke-opacity:1; fill:none" points="652.135,1284.79 652.135,1265.89 "/>
<polyline clip-path="url(#clip520)" style="stroke:#000000; stroke-linecap:round; stroke-linejoin:round; stroke-width:4; stroke-opacity:1; fill:none" points="1063.29,1284.79 1063.29,1265.89 "/>
<polyline clip-path="url(#clip520)" style="stroke:#000000; stroke-linecap:round; stroke-linejoin:round; stroke-width:4; stroke-opacity:1; fill:none" points="1474.44,1284.79 1474.44,1265.89 "/>
<polyline clip-path="url(#clip520)" style="stroke:#000000; stroke-linecap:round; stroke-linejoin:round; stroke-width:4; stroke-opacity:1; fill:none" points="1885.59,1284.79 1885.59,1265.89 "/>
<path clip-path="url(#clip520)" d="M642.412 1312.63 L660.769 1312.63 L660.769 1316.56 L646.695 1316.56 L646.695 1325.03 Q647.713 1324.69 648.732 1324.53 Q649.75 1324.34 650.769 1324.34 Q656.556 1324.34 659.935 1327.51 Q663.315 1330.68 663.315 1336.1 Q663.315 1341.68 659.843 1344.78 Q656.371 1347.86 650.051 1347.86 Q647.875 1347.86 645.607 1347.49 Q643.361 1347.12 640.954 1346.38 L640.954 1341.68 Q643.037 1342.81 645.26 1343.37 Q647.482 1343.92 649.959 1343.92 Q653.963 1343.92 656.301 1341.82 Q658.639 1339.71 658.639 1336.1 Q658.639 1332.49 656.301 1330.38 Q653.963 1328.28 649.959 1328.28 Q648.084 1328.28 646.209 1328.69 Q644.357 1329.11 642.412 1329.99 L642.412 1312.63 Z" fill="#000000" fill-rule="nonzero" fill-opacity="1" /><path clip-path="url(#clip520)" d="M1037.97 1343.25 L1045.61 1343.25 L1045.61 1316.89 L1037.3 1318.55 L1037.3 1314.29 L1045.57 1312.63 L1050.24 1312.63 L1050.24 1343.25 L1057.88 1343.25 L1057.88 1347.19 L1037.97 1347.19 L1037.97 1343.25 Z" fill="#000000" fill-rule="nonzero" fill-opacity="1" /><path clip-path="url(#clip520)" d="M1077.33 1315.71 Q1073.72 1315.71 1071.89 1319.27 Q1070.08 1322.81 1070.08 1329.94 Q1070.08 1337.05 1071.89 1340.61 Q1073.72 1344.16 1077.33 1344.16 Q1080.96 1344.16 1082.77 1340.61 Q1084.59 1337.05 1084.59 1329.94 Q1084.59 1322.81 1082.77 1319.27 Q1080.96 1315.71 1077.33 1315.71 M1077.33 1312 Q1083.14 1312 1086.19 1316.61 Q1089.27 1321.19 1089.27 1329.94 Q1089.27 1338.67 1086.19 1343.28 Q1083.14 1347.86 1077.33 1347.86 Q1071.52 1347.86 1068.44 1343.28 Q1065.38 1338.67 1065.38 1329.94 Q1065.38 1321.19 1068.44 1316.61 Q1071.52 1312 1077.33 1312 Z" fill="#000000" fill-rule="nonzero" fill-opacity="1" /><path clip-path="url(#clip520)" d="M1449.62 1343.25 L1457.26 1343.25 L1457.26 1316.89 L1448.95 1318.55 L1448.95 1314.29 L1457.22 1312.63 L1461.89 1312.63 L1461.89 1343.25 L1469.53 1343.25 L1469.53 1347.19 L1449.62 1347.19 L1449.62 1343.25 Z" fill="#000000" fill-rule="nonzero" fill-opacity="1" /><path clip-path="url(#clip520)" d="M1479.02 1312.63 L1497.38 1312.63 L1497.38 1316.56 L1483.31 1316.56 L1483.31 1325.03 Q1484.32 1324.69 1485.34 1324.53 Q1486.36 1324.34 1487.38 1324.34 Q1493.17 1324.34 1496.55 1327.51 Q1499.93 1330.68 1499.93 1336.1 Q1499.93 1341.68 1496.45 1344.78 Q1492.98 1347.86 1486.66 1347.86 Q1484.49 1347.86 1482.22 1347.49 Q1479.97 1347.12 1477.56 1346.38 L1477.56 1341.68 Q1479.65 1342.81 1481.87 1343.37 Q1484.09 1343.92 1486.57 1343.92 Q1490.57 1343.92 1492.91 1341.82 Q1495.25 1339.71 1495.25 1336.1 Q1495.25 1332.49 1492.91 1330.38 Q1490.57 1328.28 1486.57 1328.28 Q1484.69 1328.28 1482.82 1328.69 Q1480.97 1329.11 1479.02 1329.99 L1479.02 1312.63 Z" fill="#000000" fill-rule="nonzero" fill-opacity="1" /><path clip-path="url(#clip520)" d="M1864.37 1343.25 L1880.68 1343.25 L1880.68 1347.19 L1858.74 1347.19 L1858.74 1343.25 Q1861.4 1340.5 1865.99 1335.87 Q1870.59 1331.22 1871.77 1329.87 Q1874.02 1327.35 1874.9 1325.61 Q1875.8 1323.85 1875.8 1322.16 Q1875.8 1319.41 1873.86 1317.67 Q1871.93 1315.94 1868.83 1315.94 Q1866.63 1315.94 1864.18 1316.7 Q1861.75 1317.47 1858.97 1319.02 L1858.97 1314.29 Q1861.8 1313.16 1864.25 1312.58 Q1866.7 1312 1868.74 1312 Q1874.11 1312 1877.3 1314.69 Q1880.5 1317.37 1880.5 1321.86 Q1880.5 1323.99 1879.69 1325.91 Q1878.9 1327.81 1876.8 1330.41 Q1876.22 1331.08 1873.12 1334.29 Q1870.01 1337.49 1864.37 1343.25 Z" fill="#000000" fill-rule="nonzero" fill-opacity="1" /><path clip-path="url(#clip520)" d="M1900.5 1315.71 Q1896.89 1315.71 1895.06 1319.27 Q1893.25 1322.81 1893.25 1329.94 Q1893.25 1337.05 1895.06 1340.61 Q1896.89 1344.16 1900.5 1344.16 Q1904.13 1344.16 1905.94 1340.61 Q1907.77 1337.05 1907.77 1329.94 Q1907.77 1322.81 1905.94 1319.27 Q1904.13 1315.71 1900.5 1315.71 M1900.5 1312 Q1906.31 1312 1909.37 1316.61 Q1912.44 1321.19 1912.44 1329.94 Q1912.44 1338.67 1909.37 1343.28 Q1906.31 1347.86 1900.5 1347.86 Q1894.69 1347.86 1891.61 1343.28 Q1888.55 1338.67 1888.55 1329.94 Q1888.55 1321.19 1891.61 1316.61 Q1894.69 1312 1900.5 1312 Z" fill="#000000" fill-rule="nonzero" fill-opacity="1" /><path clip-path="url(#clip520)" d="M950.14 1408.14 L950.14 1429.65 L944.283 1429.65 L944.283 1408.33 Q944.283 1403.27 942.31 1400.75 Q940.336 1398.24 936.39 1398.24 Q931.647 1398.24 928.91 1401.26 Q926.173 1404.28 926.173 1409.5 L926.173 1429.65 L920.284 1429.65 L920.284 1394 L926.173 1394 L926.173 1399.54 Q928.273 1396.33 931.106 1394.74 Q933.971 1393.14 937.695 1393.14 Q943.838 1393.14 946.989 1396.96 Q950.14 1400.75 950.14 1408.14 Z" fill="#000000" fill-rule="nonzero" fill-opacity="1" /><path clip-path="url(#clip520)" d="M961.216 1415.58 L961.216 1394 L967.072 1394 L967.072 1415.36 Q967.072 1420.42 969.046 1422.97 Q971.019 1425.48 974.966 1425.48 Q979.708 1425.48 982.446 1422.46 Q985.215 1419.43 985.215 1414.21 L985.215 1394 L991.071 1394 L991.071 1429.65 L985.215 1429.65 L985.215 1424.18 Q983.082 1427.42 980.249 1429.01 Q977.448 1430.57 973.725 1430.57 Q967.582 1430.57 964.399 1426.76 Q961.216 1422.94 961.216 1415.58 M975.953 1393.14 L975.953 1393.14 Z" fill="#000000" fill-rule="nonzero" fill-opacity="1" /><path clip-path="url(#clip520)" d="M1030.89 1400.85 Q1033.08 1396.9 1036.14 1395.02 Q1039.2 1393.14 1043.33 1393.14 Q1048.9 1393.14 1051.93 1397.06 Q1054.95 1400.94 1054.95 1408.14 L1054.95 1429.65 L1049.06 1429.65 L1049.06 1408.33 Q1049.06 1403.2 1047.25 1400.72 Q1045.43 1398.24 1041.71 1398.24 Q1037.16 1398.24 1034.52 1401.26 Q1031.88 1404.28 1031.88 1409.5 L1031.88 1429.65 L1025.99 1429.65 L1025.99 1408.33 Q1025.99 1403.17 1024.17 1400.72 Q1022.36 1398.24 1018.57 1398.24 Q1014.08 1398.24 1011.44 1401.29 Q1008.8 1404.32 1008.8 1409.5 L1008.8 1429.65 L1002.91 1429.65 L1002.91 1394 L1008.8 1394 L1008.8 1399.54 Q1010.8 1396.26 1013.61 1394.7 Q1016.41 1393.14 1020.26 1393.14 Q1024.14 1393.14 1026.85 1395.12 Q1029.58 1397.09 1030.89 1400.85 Z" fill="#000000" fill-rule="nonzero" fill-opacity="1" /><path clip-path="url(#clip520)" d="M1092.22 1411.86 Q1092.22 1405.4 1089.55 1401.74 Q1086.91 1398.05 1082.26 1398.05 Q1077.61 1398.05 1074.94 1401.74 Q1072.3 1405.4 1072.3 1411.86 Q1072.3 1418.32 1074.94 1422.01 Q1077.61 1425.67 1082.26 1425.67 Q1086.91 1425.67 1089.55 1422.01 Q1092.22 1418.32 1092.22 1411.86 M1072.3 1399.41 Q1074.14 1396.23 1076.94 1394.7 Q1079.78 1393.14 1083.69 1393.14 Q1090.19 1393.14 1094.23 1398.3 Q1098.3 1403.46 1098.3 1411.86 Q1098.3 1420.26 1094.23 1425.42 Q1090.19 1430.57 1083.69 1430.57 Q1079.78 1430.57 1076.94 1429.05 Q1074.14 1427.49 1072.3 1424.3 L1072.3 1429.65 L1066.41 1429.65 L1066.41 1380.13 L1072.3 1380.13 L1072.3 1399.41 Z" fill="#000000" fill-rule="nonzero" fill-opacity="1" /><path clip-path="url(#clip520)" d="M1138.5 1410.36 L1138.5 1413.23 L1111.57 1413.23 Q1111.96 1419.28 1115.2 1422.46 Q1118.48 1425.61 1124.31 1425.61 Q1127.68 1425.61 1130.83 1424.78 Q1134.01 1423.95 1137.13 1422.3 L1137.13 1427.84 Q1133.98 1429.17 1130.67 1429.87 Q1127.36 1430.57 1123.96 1430.57 Q1115.43 1430.57 1110.43 1425.61 Q1105.46 1420.64 1105.46 1412.18 Q1105.46 1403.42 1110.17 1398.3 Q1114.92 1393.14 1122.94 1393.14 Q1130.13 1393.14 1134.3 1397.79 Q1138.5 1402.41 1138.5 1410.36 M1132.64 1408.64 Q1132.58 1403.84 1129.94 1400.97 Q1127.33 1398.11 1123 1398.11 Q1118.1 1398.11 1115.14 1400.88 Q1112.21 1403.65 1111.76 1408.68 L1132.64 1408.64 Z" fill="#000000" fill-rule="nonzero" fill-opacity="1" /><path clip-path="url(#clip520)" d="M1168.77 1399.48 Q1167.78 1398.91 1166.61 1398.65 Q1165.46 1398.36 1164.06 1398.36 Q1159.09 1398.36 1156.42 1401.61 Q1153.78 1404.83 1153.78 1410.87 L1153.78 1429.65 L1147.89 1429.65 L1147.89 1394 L1153.78 1394 L1153.78 1399.54 Q1155.62 1396.3 1158.58 1394.74 Q1161.54 1393.14 1165.78 1393.14 Q1166.38 1393.14 1167.11 1393.24 Q1167.85 1393.3 1168.74 1393.46 L1168.77 1399.48 Z" fill="#000000" fill-rule="nonzero" fill-opacity="1" /><path clip-path="url(#clip520)" d="M1209.45 1398.11 Q1204.74 1398.11 1202 1401.8 Q1199.26 1405.46 1199.26 1411.86 Q1199.26 1418.26 1201.97 1421.95 Q1204.7 1425.61 1209.45 1425.61 Q1214.13 1425.61 1216.86 1421.92 Q1219.6 1418.22 1219.6 1411.86 Q1219.6 1405.53 1216.86 1401.83 Q1214.13 1398.11 1209.45 1398.11 M1209.45 1393.14 Q1217.09 1393.14 1221.45 1398.11 Q1225.81 1403.07 1225.81 1411.86 Q1225.81 1420.61 1221.45 1425.61 Q1217.09 1430.57 1209.45 1430.57 Q1201.78 1430.57 1197.42 1425.61 Q1193.09 1420.61 1193.09 1411.86 Q1193.09 1403.07 1197.42 1398.11 Q1201.78 1393.14 1209.45 1393.14 Z" fill="#000000" fill-rule="nonzero" fill-opacity="1" /><path clip-path="url(#clip520)" d="M1253.56 1380.13 L1253.56 1385 L1247.96 1385 Q1244.81 1385 1243.57 1386.27 Q1242.36 1387.54 1242.36 1390.85 L1242.36 1394 L1252 1394 L1252 1398.55 L1242.36 1398.55 L1242.36 1429.65 L1236.47 1429.65 L1236.47 1398.55 L1230.87 1398.55 L1230.87 1394 L1236.47 1394 L1236.47 1391.52 Q1236.47 1385.57 1239.24 1382.86 Q1242.01 1380.13 1248.02 1380.13 L1253.56 1380.13 Z" fill="#000000" fill-rule="nonzero" fill-opacity="1" /><path clip-path="url(#clip520)" d="M1301.91 1395.05 L1301.91 1400.59 Q1299.43 1399.32 1296.75 1398.68 Q1294.08 1398.05 1291.21 1398.05 Q1286.85 1398.05 1284.66 1399.38 Q1282.49 1400.72 1282.49 1403.39 Q1282.49 1405.43 1284.05 1406.61 Q1285.61 1407.75 1290.32 1408.8 L1292.33 1409.25 Q1298.57 1410.59 1301.18 1413.04 Q1303.82 1415.46 1303.82 1419.82 Q1303.82 1424.78 1299.87 1427.68 Q1295.96 1430.57 1289.08 1430.57 Q1286.22 1430.57 1283.1 1430 Q1280.01 1429.46 1276.57 1428.35 L1276.57 1422.3 Q1279.82 1423.99 1282.97 1424.85 Q1286.12 1425.67 1289.21 1425.67 Q1293.35 1425.67 1295.57 1424.27 Q1297.8 1422.84 1297.8 1420.26 Q1297.8 1417.87 1296.18 1416.6 Q1294.59 1415.33 1289.15 1414.15 L1287.11 1413.67 Q1281.67 1412.53 1279.25 1410.17 Q1276.83 1407.79 1276.83 1403.65 Q1276.83 1398.62 1280.39 1395.88 Q1283.96 1393.14 1290.51 1393.14 Q1293.76 1393.14 1296.62 1393.62 Q1299.49 1394.1 1301.91 1395.05 Z" fill="#000000" fill-rule="nonzero" fill-opacity="1" /><path clip-path="url(#clip520)" d="M1318.94 1383.88 L1318.94 1394 L1331 1394 L1331 1398.55 L1318.94 1398.55 L1318.94 1417.91 Q1318.94 1422.27 1320.11 1423.51 Q1321.32 1424.75 1324.98 1424.75 L1331 1424.75 L1331 1429.65 L1324.98 1429.65 Q1318.2 1429.65 1315.63 1427.14 Q1313.05 1424.59 1313.05 1417.91 L1313.05 1398.55 L1308.75 1398.55 L1308.75 1394 L1313.05 1394 L1313.05 1383.88 L1318.94 1383.88 Z" fill="#000000" fill-rule="nonzero" fill-opacity="1" /><path clip-path="url(#clip520)" d="M1354.9 1411.73 Q1347.81 1411.73 1345.07 1413.36 Q1342.33 1414.98 1342.33 1418.89 Q1342.33 1422.01 1344.37 1423.86 Q1346.44 1425.67 1349.97 1425.67 Q1354.84 1425.67 1357.77 1422.24 Q1360.73 1418.77 1360.73 1413.04 L1360.73 1411.73 L1354.9 1411.73 M1366.58 1409.31 L1366.58 1429.65 L1360.73 1429.65 L1360.73 1424.24 Q1358.72 1427.49 1355.73 1429.05 Q1352.74 1430.57 1348.41 1430.57 Q1342.94 1430.57 1339.69 1427.52 Q1336.47 1424.43 1336.47 1419.28 Q1336.47 1413.26 1340.48 1410.2 Q1344.53 1407.15 1352.52 1407.15 L1360.73 1407.15 L1360.73 1406.58 Q1360.73 1402.53 1358.05 1400.34 Q1355.41 1398.11 1350.61 1398.11 Q1347.55 1398.11 1344.65 1398.84 Q1341.76 1399.57 1339.08 1401.04 L1339.08 1395.63 Q1342.3 1394.39 1345.32 1393.78 Q1348.35 1393.14 1351.21 1393.14 Q1358.95 1393.14 1362.76 1397.15 Q1366.58 1401.16 1366.58 1409.31 Z" fill="#000000" fill-rule="nonzero" fill-opacity="1" /><path clip-path="url(#clip520)" d="M1384.44 1383.88 L1384.44 1394 L1396.5 1394 L1396.5 1398.55 L1384.44 1398.55 L1384.44 1417.91 Q1384.44 1422.27 1385.62 1423.51 Q1386.83 1424.75 1390.49 1424.75 L1396.5 1424.75 L1396.5 1429.65 L1390.49 1429.65 Q1383.71 1429.65 1381.13 1427.14 Q1378.55 1424.59 1378.55 1417.91 L1378.55 1398.55 L1374.25 1398.55 L1374.25 1394 L1378.55 1394 L1378.55 1383.88 L1384.44 1383.88 Z" fill="#000000" fill-rule="nonzero" fill-opacity="1" /><path clip-path="url(#clip520)" d="M1434.7 1410.36 L1434.7 1413.23 L1407.77 1413.23 Q1408.15 1419.28 1411.4 1422.46 Q1414.68 1425.61 1420.5 1425.61 Q1423.88 1425.61 1427.03 1424.78 Q1430.21 1423.95 1433.33 1422.3 L1433.33 1427.84 Q1430.18 1429.17 1426.87 1429.87 Q1423.56 1430.57 1420.15 1430.57 Q1411.62 1430.57 1406.62 1425.61 Q1401.66 1420.64 1401.66 1412.18 Q1401.66 1403.42 1406.37 1398.3 Q1411.11 1393.14 1419.13 1393.14 Q1426.33 1393.14 1430.5 1397.79 Q1434.7 1402.41 1434.7 1410.36 M1428.84 1408.64 Q1428.78 1403.84 1426.14 1400.97 Q1423.53 1398.11 1419.2 1398.11 Q1414.3 1398.11 1411.34 1400.88 Q1408.41 1403.65 1407.96 1408.68 L1428.84 1408.64 Z" fill="#000000" fill-rule="nonzero" fill-opacity="1" /><path clip-path="url(#clip520)" d="M1467.03 1395.05 L1467.03 1400.59 Q1464.55 1399.32 1461.88 1398.68 Q1459.21 1398.05 1456.34 1398.05 Q1451.98 1398.05 1449.78 1399.38 Q1447.62 1400.72 1447.62 1403.39 Q1447.62 1405.43 1449.18 1406.61 Q1450.74 1407.75 1455.45 1408.8 L1457.45 1409.25 Q1463.69 1410.59 1466.3 1413.04 Q1468.94 1415.46 1468.94 1419.82 Q1468.94 1424.78 1465 1427.68 Q1461.08 1430.57 1454.21 1430.57 Q1451.34 1430.57 1448.22 1430 Q1445.14 1429.46 1441.7 1428.35 L1441.7 1422.3 Q1444.95 1423.99 1448.1 1424.85 Q1451.25 1425.67 1454.34 1425.67 Q1458.47 1425.67 1460.7 1424.27 Q1462.93 1422.84 1462.93 1420.26 Q1462.93 1417.87 1461.31 1416.6 Q1459.71 1415.33 1454.27 1414.15 L1452.23 1413.67 Q1446.79 1412.53 1444.37 1410.17 Q1441.95 1407.79 1441.95 1403.65 Q1441.95 1398.62 1445.52 1395.88 Q1449.08 1393.14 1455.64 1393.14 Q1458.89 1393.14 1461.75 1393.62 Q1464.62 1394.1 1467.03 1395.05 Z" fill="#000000" fill-rule="nonzero" fill-opacity="1" /><path clip-path="url(#clip520)" d="M1499.25 1382.13 L1507.9 1382.13 L1528.97 1421.89 L1528.97 1382.13 L1535.21 1382.13 L1535.21 1429.65 L1526.55 1429.65 L1505.48 1389.9 L1505.48 1429.65 L1499.25 1429.65 L1499.25 1382.13 Z" fill="#000000" fill-rule="nonzero" fill-opacity="1" /><polyline clip-path="url(#clip522)" style="stroke:#000000; stroke-linecap:round; stroke-linejoin:round; stroke-width:2; stroke-opacity:0.1; fill:none" points="323.213,1284.79 2132.28,1284.79 "/>
<polyline clip-path="url(#clip522)" style="stroke:#000000; stroke-linecap:round; stroke-linejoin:round; stroke-width:2; stroke-opacity:0.1; fill:none" points="323.213,1069.37 2132.28,1069.37 "/>
<polyline clip-path="url(#clip522)" style="stroke:#000000; stroke-linecap:round; stroke-linejoin:round; stroke-width:2; stroke-opacity:0.1; fill:none" points="323.213,853.945 2132.28,853.945 "/>
<polyline clip-path="url(#clip522)" style="stroke:#000000; stroke-linecap:round; stroke-linejoin:round; stroke-width:2; stroke-opacity:0.1; fill:none" points="323.213,638.524 2132.28,638.524 "/>
<polyline clip-path="url(#clip522)" style="stroke:#000000; stroke-linecap:round; stroke-linejoin:round; stroke-width:2; stroke-opacity:0.1; fill:none" points="323.213,423.103 2132.28,423.103 "/>
<polyline clip-path="url(#clip520)" style="stroke:#000000; stroke-linecap:round; stroke-linejoin:round; stroke-width:4; stroke-opacity:1; fill:none" points="323.213,1284.79 323.213,283.465 "/>
<polyline clip-path="url(#clip520)" style="stroke:#000000; stroke-linecap:round; stroke-linejoin:round; stroke-width:4; stroke-opacity:1; fill:none" points="323.213,1284.79 342.11,1284.79 "/>
<polyline clip-path="url(#clip520)" style="stroke:#000000; stroke-linecap:round; stroke-linejoin:round; stroke-width:4; stroke-opacity:1; fill:none" points="323.213,1069.37 342.11,1069.37 "/>
<polyline clip-path="url(#clip520)" style="stroke:#000000; stroke-linecap:round; stroke-linejoin:round; stroke-width:4; stroke-opacity:1; fill:none" points="323.213,853.945 342.11,853.945 "/>
<polyline clip-path="url(#clip520)" style="stroke:#000000; stroke-linecap:round; stroke-linejoin:round; stroke-width:4; stroke-opacity:1; fill:none" points="323.213,638.524 342.11,638.524 "/>
<polyline clip-path="url(#clip520)" style="stroke:#000000; stroke-linecap:round; stroke-linejoin:round; stroke-width:4; stroke-opacity:1; fill:none" points="323.213,423.103 342.11,423.103 "/>
<path clip-path="url(#clip520)" d="M275.268 1270.59 Q271.657 1270.59 269.828 1274.15 Q268.023 1277.69 268.023 1284.82 Q268.023 1291.93 269.828 1295.49 Q271.657 1299.04 275.268 1299.04 Q278.902 1299.04 280.708 1295.49 Q282.537 1291.93 282.537 1284.82 Q282.537 1277.69 280.708 1274.15 Q278.902 1270.59 275.268 1270.59 M275.268 1266.88 Q281.078 1266.88 284.134 1271.49 Q287.213 1276.07 287.213 1284.82 Q287.213 1293.55 284.134 1298.16 Q281.078 1302.74 275.268 1302.74 Q269.458 1302.74 266.379 1298.16 Q263.324 1293.55 263.324 1284.82 Q263.324 1276.07 266.379 1271.49 Q269.458 1266.88 275.268 1266.88 Z" fill="#000000" fill-rule="nonzero" fill-opacity="1" /><path clip-path="url(#clip520)" d="M205.755 1082.71 L213.394 1082.71 L213.394 1056.35 L205.083 1058.01 L205.083 1053.75 L213.347 1052.09 L218.023 1052.09 L218.023 1082.71 L225.662 1082.71 L225.662 1086.65 L205.755 1086.65 L205.755 1082.71 Z" fill="#000000" fill-rule="nonzero" fill-opacity="1" /><path clip-path="url(#clip520)" d="M245.106 1055.16 Q241.495 1055.16 239.667 1058.73 Q237.861 1062.27 237.861 1069.4 Q237.861 1076.51 239.667 1080.07 Q241.495 1083.61 245.106 1083.61 Q248.741 1083.61 250.546 1080.07 Q252.375 1076.51 252.375 1069.4 Q252.375 1062.27 250.546 1058.73 Q248.741 1055.16 245.106 1055.16 M245.106 1051.46 Q250.916 1051.46 253.972 1056.07 Q257.051 1060.65 257.051 1069.4 Q257.051 1078.13 253.972 1082.73 Q250.916 1087.32 245.106 1087.32 Q239.296 1087.32 236.218 1082.73 Q233.162 1078.13 233.162 1069.4 Q233.162 1060.65 236.218 1056.07 Q239.296 1051.46 245.106 1051.46 Z" fill="#000000" fill-rule="nonzero" fill-opacity="1" /><path clip-path="url(#clip520)" d="M275.268 1055.16 Q271.657 1055.16 269.828 1058.73 Q268.023 1062.27 268.023 1069.4 Q268.023 1076.51 269.828 1080.07 Q271.657 1083.61 275.268 1083.61 Q278.902 1083.61 280.708 1080.07 Q282.537 1076.51 282.537 1069.4 Q282.537 1062.27 280.708 1058.73 Q278.902 1055.16 275.268 1055.16 M275.268 1051.46 Q281.078 1051.46 284.134 1056.07 Q287.213 1060.65 287.213 1069.4 Q287.213 1078.13 284.134 1082.73 Q281.078 1087.32 275.268 1087.32 Q269.458 1087.32 266.379 1082.73 Q263.324 1078.13 263.324 1069.4 Q263.324 1060.65 266.379 1056.07 Q269.458 1051.46 275.268 1051.46 Z" fill="#000000" fill-rule="nonzero" fill-opacity="1" /><path clip-path="url(#clip520)" d="M208.972 867.29 L225.292 867.29 L225.292 871.225 L203.347 871.225 L203.347 867.29 Q206.009 864.535 210.593 859.906 Q215.199 855.253 216.38 853.91 Q218.625 851.387 219.505 849.651 Q220.407 847.892 220.407 846.202 Q220.407 843.447 218.463 841.711 Q216.542 839.975 213.44 839.975 Q211.241 839.975 208.787 840.739 Q206.357 841.503 203.579 843.054 L203.579 838.332 Q206.403 837.197 208.857 836.619 Q211.31 836.04 213.347 836.04 Q218.718 836.04 221.912 838.725 Q225.106 841.41 225.106 845.901 Q225.106 848.031 224.296 849.952 Q223.509 851.85 221.403 854.443 Q220.824 855.114 217.722 858.332 Q214.62 861.526 208.972 867.29 Z" fill="#000000" fill-rule="nonzero" fill-opacity="1" /><path clip-path="url(#clip520)" d="M245.106 839.744 Q241.495 839.744 239.667 843.308 Q237.861 846.85 237.861 853.98 Q237.861 861.086 239.667 864.651 Q241.495 868.193 245.106 868.193 Q248.741 868.193 250.546 864.651 Q252.375 861.086 252.375 853.98 Q252.375 846.85 250.546 843.308 Q248.741 839.744 245.106 839.744 M245.106 836.04 Q250.916 836.04 253.972 840.646 Q257.051 845.23 257.051 853.98 Q257.051 862.707 253.972 867.313 Q250.916 871.896 245.106 871.896 Q239.296 871.896 236.218 867.313 Q233.162 862.707 233.162 853.98 Q233.162 845.23 236.218 840.646 Q239.296 836.04 245.106 836.04 Z" fill="#000000" fill-rule="nonzero" fill-opacity="1" /><path clip-path="url(#clip520)" d="M275.268 839.744 Q271.657 839.744 269.828 843.308 Q268.023 846.85 268.023 853.98 Q268.023 861.086 269.828 864.651 Q271.657 868.193 275.268 868.193 Q278.902 868.193 280.708 864.651 Q282.537 861.086 282.537 853.98 Q282.537 846.85 280.708 843.308 Q278.902 839.744 275.268 839.744 M275.268 836.04 Q281.078 836.04 284.134 840.646 Q287.213 845.23 287.213 853.98 Q287.213 862.707 284.134 867.313 Q281.078 871.896 275.268 871.896 Q269.458 871.896 266.379 867.313 Q263.324 862.707 263.324 853.98 Q263.324 845.23 266.379 840.646 Q269.458 836.04 275.268 836.04 Z" fill="#000000" fill-rule="nonzero" fill-opacity="1" /><path clip-path="url(#clip520)" d="M219.111 637.17 Q222.468 637.887 224.343 640.156 Q226.241 642.424 226.241 645.758 Q226.241 650.873 222.722 653.674 Q219.204 656.475 212.722 656.475 Q210.546 656.475 208.232 656.035 Q205.94 655.619 203.486 654.762 L203.486 650.248 Q205.431 651.383 207.745 651.961 Q210.06 652.54 212.583 652.54 Q216.981 652.54 219.273 650.804 Q221.588 649.068 221.588 645.758 Q221.588 642.702 219.435 640.989 Q217.306 639.253 213.486 639.253 L209.458 639.253 L209.458 635.41 L213.671 635.41 Q217.12 635.41 218.949 634.045 Q220.778 632.656 220.778 630.063 Q220.778 627.401 218.88 625.989 Q217.005 624.554 213.486 624.554 Q211.565 624.554 209.366 624.971 Q207.167 625.387 204.528 626.267 L204.528 622.1 Q207.19 621.36 209.505 620.989 Q211.843 620.619 213.903 620.619 Q219.227 620.619 222.329 623.049 Q225.431 625.457 225.431 629.577 Q225.431 632.447 223.787 634.438 Q222.144 636.406 219.111 637.17 Z" fill="#000000" fill-rule="nonzero" fill-opacity="1" /><path clip-path="url(#clip520)" d="M245.106 624.322 Q241.495 624.322 239.667 627.887 Q237.861 631.429 237.861 638.559 Q237.861 645.665 239.667 649.23 Q241.495 652.771 245.106 652.771 Q248.741 652.771 250.546 649.23 Q252.375 645.665 252.375 638.559 Q252.375 631.429 250.546 627.887 Q248.741 624.322 245.106 624.322 M245.106 620.619 Q250.916 620.619 253.972 625.225 Q257.051 629.809 257.051 638.559 Q257.051 647.285 253.972 651.892 Q250.916 656.475 245.106 656.475 Q239.296 656.475 236.218 651.892 Q233.162 647.285 233.162 638.559 Q233.162 629.809 236.218 625.225 Q239.296 620.619 245.106 620.619 Z" fill="#000000" fill-rule="nonzero" fill-opacity="1" /><path clip-path="url(#clip520)" d="M275.268 624.322 Q271.657 624.322 269.828 627.887 Q268.023 631.429 268.023 638.559 Q268.023 645.665 269.828 649.23 Q271.657 652.771 275.268 652.771 Q278.902 652.771 280.708 649.23 Q282.537 645.665 282.537 638.559 Q282.537 631.429 280.708 627.887 Q278.902 624.322 275.268 624.322 M275.268 620.619 Q281.078 620.619 284.134 625.225 Q287.213 629.809 287.213 638.559 Q287.213 647.285 284.134 651.892 Q281.078 656.475 275.268 656.475 Q269.458 656.475 266.379 651.892 Q263.324 647.285 263.324 638.559 Q263.324 629.809 266.379 625.225 Q269.458 620.619 275.268 620.619 Z" fill="#000000" fill-rule="nonzero" fill-opacity="1" /><path clip-path="url(#clip520)" d="M217.792 409.897 L205.986 428.346 L217.792 428.346 L217.792 409.897 M216.565 405.823 L222.444 405.823 L222.444 428.346 L227.375 428.346 L227.375 432.234 L222.444 432.234 L222.444 440.383 L217.792 440.383 L217.792 432.234 L202.19 432.234 L202.19 427.721 L216.565 405.823 Z" fill="#000000" fill-rule="nonzero" fill-opacity="1" /><path clip-path="url(#clip520)" d="M245.106 408.901 Q241.495 408.901 239.667 412.466 Q237.861 416.008 237.861 423.137 Q237.861 430.244 239.667 433.809 Q241.495 437.35 245.106 437.35 Q248.741 437.35 250.546 433.809 Q252.375 430.244 252.375 423.137 Q252.375 416.008 250.546 412.466 Q248.741 408.901 245.106 408.901 M245.106 405.198 Q250.916 405.198 253.972 409.804 Q257.051 414.387 257.051 423.137 Q257.051 431.864 253.972 436.471 Q250.916 441.054 245.106 441.054 Q239.296 441.054 236.218 436.471 Q233.162 431.864 233.162 423.137 Q233.162 414.387 236.218 409.804 Q239.296 405.198 245.106 405.198 Z" fill="#000000" fill-rule="nonzero" fill-opacity="1" /><path clip-path="url(#clip520)" d="M275.268 408.901 Q271.657 408.901 269.828 412.466 Q268.023 416.008 268.023 423.137 Q268.023 430.244 269.828 433.809 Q271.657 437.35 275.268 437.35 Q278.902 437.35 280.708 433.809 Q282.537 430.244 282.537 423.137 Q282.537 416.008 280.708 412.466 Q278.902 408.901 275.268 408.901 M275.268 405.198 Q281.078 405.198 284.134 409.804 Q287.213 414.387 287.213 423.137 Q287.213 431.864 284.134 436.471 Q281.078 441.054 275.268 441.054 Q269.458 441.054 266.379 436.471 Q263.324 431.864 263.324 423.137 Q263.324 414.387 266.379 409.804 Q269.458 405.198 275.268 405.198 Z" fill="#000000" fill-rule="nonzero" fill-opacity="1" /><path clip-path="url(#clip520)" d="M108.074 975.957 L114.854 975.957 Q111.83 979.203 110.334 982.895 Q108.838 986.555 108.838 990.693 Q108.838 998.841 113.835 1003.17 Q118.8 1007.5 128.222 1007.5 Q137.611 1007.5 142.608 1003.17 Q147.573 998.841 147.573 990.693 Q147.573 986.555 146.077 982.895 Q144.582 979.203 141.558 975.957 L148.274 975.957 Q150.565 979.33 151.711 983.118 Q152.857 986.874 152.857 991.075 Q152.857 1001.86 146.268 1008.07 Q139.648 1014.28 128.222 1014.28 Q116.763 1014.28 110.175 1008.07 Q103.555 1001.86 103.555 991.075 Q103.555 986.81 104.7 983.054 Q105.814 979.267 108.074 975.957 Z" fill="#000000" fill-rule="nonzero" fill-opacity="1" /><path clip-path="url(#clip520)" d="M109.697 959.597 L127.553 959.597 L127.553 951.512 Q127.553 947.024 125.23 944.574 Q122.906 942.123 118.609 942.123 Q114.344 942.123 112.021 944.574 Q109.697 947.024 109.697 951.512 L109.697 959.597 M104.414 966.026 L104.414 951.512 Q104.414 943.523 108.042 939.449 Q111.639 935.343 118.609 935.343 Q125.644 935.343 129.24 939.449 Q132.837 943.523 132.837 951.512 L132.837 959.597 L151.934 959.597 L151.934 966.026 L104.414 966.026 Z" fill="#000000" fill-rule="nonzero" fill-opacity="1" /><path clip-path="url(#clip520)" d="M104.414 927.45 L104.414 920.989 L133.282 920.989 Q140.921 920.989 144.295 918.22 Q147.637 915.451 147.637 909.244 Q147.637 903.069 144.295 900.3 Q140.921 897.531 133.282 897.531 L104.414 897.531 L104.414 891.07 L134.078 891.07 Q143.372 891.07 148.114 895.685 Q152.857 900.268 152.857 909.244 Q152.857 918.251 148.114 922.867 Q143.372 927.45 134.078 927.45 L104.414 927.45 Z" fill="#000000" fill-rule="nonzero" fill-opacity="1" /><path clip-path="url(#clip520)" d="M106.164 852.748 L116.286 852.748 L116.286 840.685 L120.837 840.685 L120.837 852.748 L140.189 852.748 Q144.55 852.748 145.791 851.571 Q147.032 850.361 147.032 846.701 L147.032 840.685 L151.934 840.685 L151.934 846.701 Q151.934 853.48 149.419 856.058 Q146.873 858.637 140.189 858.637 L120.837 858.637 L120.837 862.933 L116.286 862.933 L116.286 858.637 L106.164 858.637 L106.164 852.748 Z" fill="#000000" fill-rule="nonzero" fill-opacity="1" /><path clip-path="url(#clip520)" d="M116.286 832.983 L116.286 827.126 L151.934 827.126 L151.934 832.983 L116.286 832.983 M102.409 832.983 L102.409 827.126 L109.825 827.126 L109.825 832.983 L102.409 832.983 Z" fill="#000000" fill-rule="nonzero" fill-opacity="1" /><path clip-path="url(#clip520)" d="M123.129 787.118 Q119.182 784.922 117.304 781.866 Q115.427 778.811 115.427 774.673 Q115.427 769.103 119.341 766.079 Q123.225 763.055 130.418 763.055 L151.934 763.055 L151.934 768.944 L130.609 768.944 Q125.484 768.944 123.002 770.758 Q120.519 772.572 120.519 776.296 Q120.519 780.848 123.543 783.489 Q126.567 786.131 131.786 786.131 L151.934 786.131 L151.934 792.019 L130.609 792.019 Q125.453 792.019 123.002 793.834 Q120.519 795.648 120.519 799.436 Q120.519 803.923 123.575 806.565 Q126.598 809.207 131.786 809.207 L151.934 809.207 L151.934 815.095 L116.286 815.095 L116.286 809.207 L121.824 809.207 Q118.546 807.202 116.986 804.401 Q115.427 801.6 115.427 797.749 Q115.427 793.866 117.4 791.16 Q119.373 788.423 123.129 787.118 Z" fill="#000000" fill-rule="nonzero" fill-opacity="1" /><path clip-path="url(#clip520)" d="M132.646 720.883 L135.51 720.883 L135.51 747.81 Q141.558 747.428 144.741 744.181 Q147.892 740.903 147.892 735.078 Q147.892 731.704 147.064 728.553 Q146.237 725.371 144.582 722.251 L150.12 722.251 Q151.456 725.402 152.157 728.713 Q152.857 732.023 152.857 735.428 Q152.857 743.958 147.892 748.955 Q142.926 753.921 134.46 753.921 Q125.707 753.921 120.583 749.21 Q115.427 744.468 115.427 736.447 Q115.427 729.254 120.074 725.084 Q124.689 720.883 132.646 720.883 M130.927 726.739 Q126.121 726.803 123.256 729.445 Q120.392 732.055 120.392 736.383 Q120.392 741.285 123.161 744.245 Q125.93 747.173 130.959 747.619 L130.927 726.739 Z" fill="#000000" fill-rule="nonzero" fill-opacity="1" /><path clip-path="url(#clip520)" d="M102.472 676.482 Q109.793 680.747 116.954 682.816 Q124.116 684.885 131.468 684.885 Q138.821 684.885 146.046 682.816 Q153.239 680.715 160.528 676.482 L160.528 681.574 Q153.048 686.349 145.823 688.736 Q138.598 691.091 131.468 691.091 Q124.37 691.091 117.177 688.736 Q109.984 686.381 102.472 681.574 L102.472 676.482 Z" fill="#000000" fill-rule="nonzero" fill-opacity="1" /><path clip-path="url(#clip520)" d="M123.129 637.365 Q119.182 635.168 117.304 632.113 Q115.427 629.057 115.427 624.92 Q115.427 619.35 119.341 616.326 Q123.225 613.302 130.418 613.302 L151.934 613.302 L151.934 619.191 L130.609 619.191 Q125.484 619.191 123.002 621.005 Q120.519 622.819 120.519 626.543 Q120.519 631.094 123.543 633.736 Q126.567 636.378 131.786 636.378 L151.934 636.378 L151.934 642.266 L130.609 642.266 Q125.453 642.266 123.002 644.08 Q120.519 645.895 120.519 649.682 Q120.519 654.17 123.575 656.812 Q126.598 659.454 131.786 659.454 L151.934 659.454 L151.934 665.342 L116.286 665.342 L116.286 659.454 L121.824 659.454 Q118.546 657.448 116.986 654.648 Q115.427 651.847 115.427 647.995 Q115.427 644.112 117.4 641.407 Q119.373 638.67 123.129 637.365 Z" fill="#000000" fill-rule="nonzero" fill-opacity="1" /><path clip-path="url(#clip520)" d="M117.336 578.896 L122.874 578.896 Q121.601 581.378 120.965 584.052 Q120.328 586.725 120.328 589.59 Q120.328 593.95 121.665 596.147 Q123.002 598.311 125.675 598.311 Q127.712 598.311 128.89 596.751 Q130.036 595.192 131.086 590.481 L131.532 588.476 Q132.869 582.238 135.319 579.628 Q137.738 576.986 142.099 576.986 Q147.064 576.986 149.961 580.933 Q152.857 584.848 152.857 591.723 Q152.857 594.587 152.284 597.706 Q151.743 600.794 150.629 604.231 L144.582 604.231 Q146.268 600.985 147.128 597.834 Q147.955 594.683 147.955 591.595 Q147.955 587.457 146.555 585.229 Q145.123 583.001 142.544 583.001 Q140.157 583.001 138.884 584.625 Q137.611 586.216 136.433 591.659 L135.956 593.696 Q134.81 599.139 132.455 601.558 Q130.068 603.976 125.93 603.976 Q120.901 603.976 118.164 600.412 Q115.427 596.847 115.427 590.29 Q115.427 587.044 115.904 584.179 Q116.381 581.315 117.336 578.896 Z" fill="#000000" fill-rule="nonzero" fill-opacity="1" /><path clip-path="url(#clip520)" d="M102.472 568.583 L102.472 563.491 Q109.984 558.716 117.177 556.361 Q124.37 553.974 131.468 553.974 Q138.598 553.974 145.823 556.361 Q153.048 558.716 160.528 563.491 L160.528 568.583 Q153.239 564.35 146.046 562.281 Q138.821 560.18 131.468 560.18 Q124.116 560.18 116.954 562.281 Q109.793 564.35 102.472 568.583 Z" fill="#000000" fill-rule="nonzero" fill-opacity="1" /><path clip-path="url(#clip520)" d="M984.937 64.8611 L984.937 87.0195 L998.062 87.0195 Q1004.66 87.0195 1007.82 84.3054 Q1011.02 81.5508 1011.02 75.92 Q1011.02 70.2488 1007.82 67.5752 Q1004.66 64.8611 998.062 64.8611 L984.937 64.8611 M984.937 39.9885 L984.937 58.2176 L997.049 58.2176 Q1003.04 58.2176 1005.96 55.9896 Q1008.92 53.7211 1008.92 49.103 Q1008.92 44.5255 1005.96 42.257 Q1003.04 39.9885 997.049 39.9885 L984.937 39.9885 M976.754 33.264 L997.657 33.264 Q1007.01 33.264 1012.08 37.1529 Q1017.14 41.0417 1017.14 48.2118 Q1017.14 53.7616 1014.55 57.0428 Q1011.96 60.324 1006.93 61.1342 Q1012.97 62.4305 1016.29 66.5624 Q1019.65 70.6538 1019.65 76.8112 Q1019.65 84.913 1014.14 89.3285 Q1008.63 93.744 998.467 93.744 L976.754 93.744 L976.754 33.264 Z" fill="#000000" fill-rule="nonzero" fill-opacity="1" /><path clip-path="url(#clip520)" d="M1053.96 70.9374 Q1044.93 70.9374 1041.45 73.0034 Q1037.96 75.0693 1037.96 80.0519 Q1037.96 84.0218 1040.56 86.3714 Q1043.19 88.6804 1047.69 88.6804 Q1053.88 88.6804 1057.61 84.3054 Q1061.38 79.8899 1061.38 72.5983 L1061.38 70.9374 L1053.96 70.9374 M1068.83 67.8587 L1068.83 93.744 L1061.38 93.744 L1061.38 86.8575 Q1058.83 90.9894 1055.02 92.9743 Q1051.21 94.9188 1045.7 94.9188 Q1038.73 94.9188 1034.6 91.0299 Q1030.51 87.1005 1030.51 80.5381 Q1030.51 72.8818 1035.61 68.993 Q1040.76 65.1041 1050.93 65.1041 L1061.38 65.1041 L1061.38 64.3749 Q1061.38 59.2303 1057.97 56.4352 Q1054.61 53.5995 1048.5 53.5995 Q1044.61 53.5995 1040.92 54.5312 Q1037.23 55.463 1033.83 57.3264 L1033.83 50.4398 Q1037.92 48.86 1041.77 48.0903 Q1045.62 47.2801 1049.27 47.2801 Q1059.11 47.2801 1063.97 52.3843 Q1068.83 57.4884 1068.83 67.8587 Z" fill="#000000" fill-rule="nonzero" fill-opacity="1" /><path clip-path="url(#clip520)" d="M1083.41 75.839 L1083.41 48.3739 L1090.87 48.3739 L1090.87 75.5554 Q1090.87 81.9964 1093.38 85.2371 Q1095.89 88.4373 1100.91 88.4373 Q1106.95 88.4373 1110.43 84.589 Q1113.96 80.7406 1113.96 74.0971 L1113.96 48.3739 L1121.41 48.3739 L1121.41 93.744 L1113.96 93.744 L1113.96 86.7764 Q1111.24 90.9084 1107.64 92.9338 Q1104.07 94.9188 1099.33 94.9188 Q1091.52 94.9188 1087.47 90.0577 Q1083.41 85.1966 1083.41 75.839 M1102.17 47.2801 L1102.17 47.2801 Z" fill="#000000" fill-rule="nonzero" fill-opacity="1" /><path clip-path="url(#clip520)" d="M1172.09 57.0833 Q1174.88 52.0602 1178.77 49.6702 Q1182.66 47.2801 1187.93 47.2801 Q1195.02 47.2801 1198.87 52.2627 Q1202.71 57.2048 1202.71 66.3599 L1202.71 93.744 L1195.22 93.744 L1195.22 66.6029 Q1195.22 60.081 1192.91 56.9213 Q1190.6 53.7616 1185.86 53.7616 Q1180.07 53.7616 1176.71 57.6099 Q1173.34 61.4583 1173.34 68.1018 L1173.34 93.744 L1165.85 93.744 L1165.85 66.6029 Q1165.85 60.0405 1163.54 56.9213 Q1161.23 53.7616 1156.41 53.7616 Q1150.7 53.7616 1147.34 57.6504 Q1143.98 61.4988 1143.98 68.1018 L1143.98 93.744 L1136.48 93.744 L1136.48 48.3739 L1143.98 48.3739 L1143.98 55.4224 Q1146.53 51.25 1150.09 49.2651 Q1153.66 47.2801 1158.56 47.2801 Q1163.5 47.2801 1166.94 49.7917 Q1170.43 52.3032 1172.09 57.0833 Z" fill="#000000" fill-rule="nonzero" fill-opacity="1" /><path clip-path="url(#clip520)" d="M1213.81 67.6967 L1235.65 67.6967 L1235.65 74.3402 L1213.81 74.3402 L1213.81 67.6967 Z" fill="#000000" fill-rule="nonzero" fill-opacity="1" /><path clip-path="url(#clip520)" d="M1239.09 33.264 L1247.35 33.264 L1260.07 84.3864 L1272.75 33.264 L1281.95 33.264 L1294.67 84.3864 L1307.35 33.264 L1315.65 33.264 L1300.46 93.744 L1290.17 93.744 L1277.41 41.2443 L1264.53 93.744 L1254.24 93.744 L1239.09 33.264 Z" fill="#000000" fill-rule="nonzero" fill-opacity="1" /><path clip-path="url(#clip520)" d="M1360.13 69.1955 L1360.13 72.8413 L1325.86 72.8413 Q1326.35 80.5381 1330.48 84.589 Q1334.65 88.5994 1342.06 88.5994 Q1346.36 88.5994 1350.37 87.5461 Q1354.42 86.4929 1358.39 84.3864 L1358.39 91.435 Q1354.38 93.1364 1350.17 94.0276 Q1345.95 94.9188 1341.62 94.9188 Q1330.76 94.9188 1324.4 88.5994 Q1318.08 82.2799 1318.08 71.5045 Q1318.08 60.3645 1324.08 53.8426 Q1330.11 47.2801 1340.32 47.2801 Q1349.48 47.2801 1354.78 53.1944 Q1360.13 59.0683 1360.13 69.1955 M1352.68 67.008 Q1352.6 60.8912 1349.23 57.2454 Q1345.91 53.5995 1340.4 53.5995 Q1334.17 53.5995 1330.4 57.1238 Q1326.67 60.6481 1326.1 67.0485 L1352.68 67.008 Z" fill="#000000" fill-rule="nonzero" fill-opacity="1" /><path clip-path="url(#clip520)" d="M1372.37 30.7119 L1379.82 30.7119 L1379.82 93.744 L1372.37 93.744 L1372.37 30.7119 Z" fill="#000000" fill-rule="nonzero" fill-opacity="1" /><path clip-path="url(#clip520)" d="M1428.07 50.1158 L1428.07 57.0833 Q1424.91 55.3414 1421.71 54.4907 Q1418.55 53.5995 1415.3 53.5995 Q1408.05 53.5995 1404.04 58.2176 Q1400.03 62.7951 1400.03 71.0994 Q1400.03 79.4038 1404.04 84.0218 Q1408.05 88.5994 1415.3 88.5994 Q1418.55 88.5994 1421.71 87.7487 Q1424.91 86.8575 1428.07 85.1156 L1428.07 92.0021 Q1424.95 93.4604 1421.58 94.1896 Q1418.26 94.9188 1414.49 94.9188 Q1404.25 94.9188 1398.21 88.4778 Q1392.17 82.0369 1392.17 71.0994 Q1392.17 60 1398.25 53.64 Q1404.37 47.2801 1414.98 47.2801 Q1418.42 47.2801 1421.71 48.0093 Q1424.99 48.6979 1428.07 50.1158 Z" fill="#000000" fill-rule="nonzero" fill-opacity="1" /><path clip-path="url(#clip520)" d="M1478.74 66.3599 L1478.74 93.744 L1471.29 93.744 L1471.29 66.6029 Q1471.29 60.162 1468.78 56.9618 Q1466.27 53.7616 1461.24 53.7616 Q1455.21 53.7616 1451.72 57.6099 Q1448.24 61.4583 1448.24 68.1018 L1448.24 93.744 L1440.74 93.744 L1440.74 30.7119 L1448.24 30.7119 L1448.24 55.4224 Q1450.91 51.331 1454.52 49.3056 Q1458.16 47.2801 1462.9 47.2801 Q1470.72 47.2801 1474.73 52.1412 Q1478.74 56.9618 1478.74 66.3599 Z" fill="#000000" fill-rule="nonzero" fill-opacity="1" /><path clip-path="url(#clip520)" d="M642.332 121.513 Q636.903 130.83 634.27 139.945 Q631.637 149.059 631.637 158.417 Q631.637 167.774 634.27 176.97 Q636.944 186.125 642.332 195.401 L635.85 195.401 Q629.774 185.882 626.736 176.686 Q623.738 167.491 623.738 158.417 Q623.738 149.383 626.736 140.228 Q629.733 131.073 635.85 121.513 L642.332 121.513 Z" fill="#000000" fill-rule="nonzero" fill-opacity="1" /><path clip-path="url(#clip520)" d="M648.732 123.984 L699.895 123.984 L699.895 130.871 L678.425 130.871 L678.425 184.464 L670.202 184.464 L670.202 130.871 L648.732 130.871 L648.732 123.984 Z" fill="#000000" fill-rule="nonzero" fill-opacity="1" /><path clip-path="url(#clip520)" d="M708.442 146.791 L760.375 146.791 L760.375 153.596 L708.442 153.596 L708.442 146.791 M708.442 163.318 L760.375 163.318 L760.375 170.205 L708.442 170.205 L708.442 163.318 Z" fill="#000000" fill-rule="nonzero" fill-opacity="1" /><path clip-path="url(#clip520)" d="M779.455 177.577 L792.823 177.577 L792.823 131.438 L778.28 134.354 L778.28 126.901 L792.742 123.984 L800.925 123.984 L800.925 177.577 L814.292 177.577 L814.292 184.464 L779.455 184.464 L779.455 177.577 Z" fill="#000000" fill-rule="nonzero" fill-opacity="1" /><path clip-path="url(#clip520)" d="M848.32 129.372 Q842.001 129.372 838.8 135.61 Q835.641 141.808 835.641 154.285 Q835.641 166.721 838.8 172.959 Q842.001 179.157 848.32 179.157 Q854.68 179.157 857.84 172.959 Q861.04 166.721 861.04 154.285 Q861.04 141.808 857.84 135.61 Q854.68 129.372 848.32 129.372 M848.32 122.89 Q858.488 122.89 863.835 130.952 Q869.223 138.972 869.223 154.285 Q869.223 169.557 863.835 177.618 Q858.488 185.639 848.32 185.639 Q838.152 185.639 832.765 177.618 Q827.417 169.557 827.417 154.285 Q827.417 138.972 832.765 130.952 Q838.152 122.89 848.32 122.89 Z" fill="#000000" fill-rule="nonzero" fill-opacity="1" /><path clip-path="url(#clip520)" d="M901.103 129.372 Q894.784 129.372 891.584 135.61 Q888.424 141.808 888.424 154.285 Q888.424 166.721 891.584 172.959 Q894.784 179.157 901.103 179.157 Q907.463 179.157 910.623 172.959 Q913.823 166.721 913.823 154.285 Q913.823 141.808 910.623 135.61 Q907.463 129.372 901.103 129.372 M901.103 122.89 Q911.271 122.89 916.618 130.952 Q922.006 138.972 922.006 154.285 Q922.006 169.557 916.618 177.618 Q911.271 185.639 901.103 185.639 Q890.936 185.639 885.548 177.618 Q880.201 169.557 880.201 154.285 Q880.201 138.972 885.548 130.952 Q890.936 122.89 901.103 122.89 Z" fill="#000000" fill-rule="nonzero" fill-opacity="1" /><path clip-path="url(#clip520)" d="M937.237 174.175 L945.785 174.175 L945.785 181.142 L939.141 194.105 L933.916 194.105 L937.237 181.142 L937.237 174.175 Z" fill="#000000" fill-rule="nonzero" fill-opacity="1" /><path clip-path="url(#clip520)" d="M996.583 130.709 L996.583 177.739 L1006.47 177.739 Q1018.98 177.739 1024.78 172.068 Q1030.61 166.397 1030.61 154.163 Q1030.61 142.011 1024.78 136.38 Q1018.98 130.709 1006.47 130.709 L996.583 130.709 M988.4 123.984 L1005.21 123.984 Q1022.79 123.984 1031.02 131.316 Q1039.24 138.608 1039.24 154.163 Q1039.24 169.8 1030.98 177.132 Q1022.71 184.464 1005.21 184.464 L988.4 184.464 L988.4 123.984 Z" fill="#000000" fill-rule="nonzero" fill-opacity="1" /><path clip-path="url(#clip520)" d="M1052.93 146.791 L1104.86 146.791 L1104.86 153.596 L1052.93 153.596 L1052.93 146.791 M1052.93 163.318 L1104.86 163.318 L1104.86 170.205 L1052.93 170.205 L1052.93 163.318 Z" fill="#000000" fill-rule="nonzero" fill-opacity="1" /><path clip-path="url(#clip520)" d="M1123.94 177.577 L1137.31 177.577 L1137.31 131.438 L1122.77 134.354 L1122.77 126.901 L1137.23 123.984 L1145.41 123.984 L1145.41 177.577 L1158.78 177.577 L1158.78 184.464 L1123.94 184.464 L1123.94 177.577 Z" fill="#000000" fill-rule="nonzero" fill-opacity="1" /><path clip-path="url(#clip520)" d="M1192.81 129.372 Q1186.49 129.372 1183.29 135.61 Q1180.13 141.808 1180.13 154.285 Q1180.13 166.721 1183.29 172.959 Q1186.49 179.157 1192.81 179.157 Q1199.17 179.157 1202.33 172.959 Q1205.53 166.721 1205.53 154.285 Q1205.53 141.808 1202.33 135.61 Q1199.17 129.372 1192.81 129.372 M1192.81 122.89 Q1202.98 122.89 1208.32 130.952 Q1213.71 138.972 1213.71 154.285 Q1213.71 169.557 1208.32 177.618 Q1202.98 185.639 1192.81 185.639 Q1182.64 185.639 1177.25 177.618 Q1171.91 169.557 1171.91 154.285 Q1171.91 138.972 1177.25 130.952 Q1182.64 122.89 1192.81 122.89 Z" fill="#000000" fill-rule="nonzero" fill-opacity="1" /><path clip-path="url(#clip520)" d="M1228.94 174.175 L1237.49 174.175 L1237.49 181.142 L1230.85 194.105 L1225.62 194.105 L1228.94 181.142 L1228.94 174.175 Z" fill="#000000" fill-rule="nonzero" fill-opacity="1" /><path clip-path="url(#clip520)" d="M1280.11 123.984 L1288.29 123.984 L1288.29 149.545 L1315.43 123.984 L1325.96 123.984 L1295.95 152.178 L1328.11 184.464 L1317.33 184.464 L1288.29 155.338 L1288.29 184.464 L1280.11 184.464 L1280.11 123.984 Z" fill="#000000" fill-rule="nonzero" fill-opacity="1" /><path clip-path="url(#clip520)" d="M1335.16 146.791 L1387.09 146.791 L1387.09 153.596 L1335.16 153.596 L1335.16 146.791 M1335.16 163.318 L1387.09 163.318 L1387.09 170.205 L1335.16 170.205 L1335.16 163.318 Z" fill="#000000" fill-rule="nonzero" fill-opacity="1" /><path clip-path="url(#clip520)" d="M1406.17 177.577 L1419.54 177.577 L1419.54 131.438 L1405 134.354 L1405 126.901 L1419.46 123.984 L1427.64 123.984 L1427.64 177.577 L1441.01 177.577 L1441.01 184.464 L1406.17 184.464 L1406.17 177.577 Z" fill="#000000" fill-rule="nonzero" fill-opacity="1" /><path clip-path="url(#clip520)" d="M1475.04 129.372 Q1468.72 129.372 1465.52 135.61 Q1462.36 141.808 1462.36 154.285 Q1462.36 166.721 1465.52 172.959 Q1468.72 179.157 1475.04 179.157 Q1481.4 179.157 1484.56 172.959 Q1487.76 166.721 1487.76 154.285 Q1487.76 141.808 1484.56 135.61 Q1481.4 129.372 1475.04 129.372 M1475.04 122.89 Q1485.2 122.89 1490.55 130.952 Q1495.94 138.972 1495.94 154.285 Q1495.94 169.557 1490.55 177.618 Q1485.2 185.639 1475.04 185.639 Q1464.87 185.639 1459.48 177.618 Q1454.13 169.557 1454.13 154.285 Q1454.13 138.972 1459.48 130.952 Q1464.87 122.89 1475.04 122.89 Z" fill="#000000" fill-rule="nonzero" fill-opacity="1" /><path clip-path="url(#clip520)" d="M1527.82 129.372 Q1521.5 129.372 1518.3 135.61 Q1515.14 141.808 1515.14 154.285 Q1515.14 166.721 1518.3 172.959 Q1521.5 179.157 1527.82 179.157 Q1534.18 179.157 1537.34 172.959 Q1540.54 166.721 1540.54 154.285 Q1540.54 141.808 1537.34 135.61 Q1534.18 129.372 1527.82 129.372 M1527.82 122.89 Q1537.99 122.89 1543.33 130.952 Q1548.72 138.972 1548.72 154.285 Q1548.72 169.557 1543.33 177.618 Q1537.99 185.639 1527.82 185.639 Q1517.65 185.639 1512.26 177.618 Q1506.92 169.557 1506.92 154.285 Q1506.92 138.972 1512.26 130.952 Q1517.65 122.89 1527.82 122.89 Z" fill="#000000" fill-rule="nonzero" fill-opacity="1" /><path clip-path="url(#clip520)" d="M1563.95 174.175 L1572.5 174.175 L1572.5 181.142 L1565.86 194.105 L1560.63 194.105 L1563.95 181.142 L1563.95 174.175 Z" fill="#000000" fill-rule="nonzero" fill-opacity="1" /><path clip-path="url(#clip520)" d="M1615.12 123.984 L1623.3 123.984 L1623.3 184.464 L1615.12 184.464 L1615.12 123.984 Z" fill="#000000" fill-rule="nonzero" fill-opacity="1" /><path clip-path="url(#clip520)" d="M1640.23 146.791 L1692.16 146.791 L1692.16 153.596 L1640.23 153.596 L1640.23 146.791 M1640.23 163.318 L1692.16 163.318 L1692.16 170.205 L1640.23 170.205 L1640.23 163.318 Z" fill="#000000" fill-rule="nonzero" fill-opacity="1" /><path clip-path="url(#clip520)" d="M1711.24 177.577 L1724.61 177.577 L1724.61 131.438 L1710.07 134.354 L1710.07 126.901 L1724.53 123.984 L1732.71 123.984 L1732.71 177.577 L1746.08 177.577 L1746.08 184.464 L1711.24 184.464 L1711.24 177.577 Z" fill="#000000" fill-rule="nonzero" fill-opacity="1" /><path clip-path="url(#clip520)" d="M1780.11 129.372 Q1773.79 129.372 1770.59 135.61 Q1767.43 141.808 1767.43 154.285 Q1767.43 166.721 1770.59 172.959 Q1773.79 179.157 1780.11 179.157 Q1786.47 179.157 1789.63 172.959 Q1792.83 166.721 1792.83 154.285 Q1792.83 141.808 1789.63 135.61 Q1786.47 129.372 1780.11 129.372 M1780.11 122.89 Q1790.28 122.89 1795.62 130.952 Q1801.01 138.972 1801.01 154.285 Q1801.01 169.557 1795.62 177.618 Q1790.28 185.639 1780.11 185.639 Q1769.94 185.639 1764.55 177.618 Q1759.21 169.557 1759.21 154.285 Q1759.21 138.972 1764.55 130.952 Q1769.94 122.89 1780.11 122.89 Z" fill="#000000" fill-rule="nonzero" fill-opacity="1" /><path clip-path="url(#clip520)" d="M1813.16 121.513 L1819.65 121.513 Q1825.72 131.073 1828.72 140.228 Q1831.76 149.383 1831.76 158.417 Q1831.76 167.491 1828.72 176.686 Q1825.72 185.882 1819.65 195.401 L1813.16 195.401 Q1818.55 186.125 1821.19 176.97 Q1823.86 167.774 1823.86 158.417 Q1823.86 149.059 1821.19 139.945 Q1818.55 130.83 1813.16 121.513 Z" fill="#000000" fill-rule="nonzero" fill-opacity="1" /><polyline clip-path="url(#clip522)" style="stroke:#0000ff; stroke-linecap:round; stroke-linejoin:round; stroke-width:6; stroke-opacity:1; fill:none" points="405.443,1208.35 734.365,1113.51 1063.29,999.905 1392.21,860.506 1721.13,754.978 2050.05,567.237 "/>
<circle clip-path="url(#clip522)" cx="405.443" cy="1208.35" r="14.4" fill="#0000ff" fill-rule="evenodd" fill-opacity="1" stroke="#000000" stroke-opacity="1" stroke-width="3.2"/>
<circle clip-path="url(#clip522)" cx="734.365" cy="1113.51" r="14.4" fill="#0000ff" fill-rule="evenodd" fill-opacity="1" stroke="#000000" stroke-opacity="1" stroke-width="3.2"/>
<circle clip-path="url(#clip522)" cx="1063.29" cy="999.905" r="14.4" fill="#0000ff" fill-rule="evenodd" fill-opacity="1" stroke="#000000" stroke-opacity="1" stroke-width="3.2"/>
<circle clip-path="url(#clip522)" cx="1392.21" cy="860.506" r="14.4" fill="#0000ff" fill-rule="evenodd" fill-opacity="1" stroke="#000000" stroke-opacity="1" stroke-width="3.2"/>
<circle clip-path="url(#clip522)" cx="1721.13" cy="754.978" r="14.4" fill="#0000ff" fill-rule="evenodd" fill-opacity="1" stroke="#000000" stroke-opacity="1" stroke-width="3.2"/>
<circle clip-path="url(#clip522)" cx="2050.05" cy="567.237" r="14.4" fill="#0000ff" fill-rule="evenodd" fill-opacity="1" stroke="#000000" stroke-opacity="1" stroke-width="3.2"/>
<polyline clip-path="url(#clip522)" style="stroke:#008000; stroke-linecap:round; stroke-linejoin:round; stroke-width:6; stroke-opacity:1; fill:none" points="405.443,1086.06 734.365,995.263 1063.29,874.468 1392.21,714.378 1721.13,520.392 2050.05,283.465 "/>
<path clip-path="url(#clip522)" d="M421.443 1070.06 L389.443 1070.06 L405.443 1102.06 L421.443 1070.06 Z" fill="#008000" fill-rule="evenodd" fill-opacity="1" stroke="#000000" stroke-opacity="1" stroke-width="3.2"/>
<path clip-path="url(#clip522)" d="M750.365 979.263 L718.365 979.263 L734.365 1011.26 L750.365 979.263 Z" fill="#008000" fill-rule="evenodd" fill-opacity="1" stroke="#000000" stroke-opacity="1" stroke-width="3.2"/>
<path clip-path="url(#clip522)" d="M1079.29 858.468 L1047.29 858.468 L1063.29 890.468 L1079.29 858.468 Z" fill="#008000" fill-rule="evenodd" fill-opacity="1" stroke="#000000" stroke-opacity="1" stroke-width="3.2"/>
<path clip-path="url(#clip522)" d="M1408.21 698.378 L1376.21 698.378 L1392.21 730.378 L1408.21 698.378 Z" fill="#008000" fill-rule="evenodd" fill-opacity="1" stroke="#000000" stroke-opacity="1" stroke-width="3.2"/>
<path clip-path="url(#clip522)" d="M1737.13 504.392 L1705.13 504.392 L1721.13 536.392 L1737.13 504.392 Z" fill="#008000" fill-rule="evenodd" fill-opacity="1" stroke="#000000" stroke-opacity="1" stroke-width="3.2"/>
<path clip-path="url(#clip522)" d="M2066.05 267.465 L2034.05 267.465 L2050.05 299.465 L2066.05 267.465 Z" fill="#008000" fill-rule="evenodd" fill-opacity="1" stroke="#000000" stroke-opacity="1" stroke-width="3.2"/>
<polyline clip-path="url(#clip522)" style="stroke:#ff0000; stroke-linecap:round; stroke-linejoin:round; stroke-width:6; stroke-opacity:1; fill:none" points="405.443,1024.29 734.365,907.787 1063.29,797.859 1392.21,653.794 1721.13,534.662 2050.05,352.244 "/>
<path clip-path="url(#clip522)" d="M405.443 1008.29 L389.443 1040.29 L421.443 1040.29 L405.443 1008.29 Z" fill="#ff0000" fill-rule="evenodd" fill-opacity="1" stroke="#000000" stroke-opacity="1" stroke-width="3.2"/>
<path clip-path="url(#clip522)" d="M734.365 891.787 L718.365 923.787 L750.365 923.787 L734.365 891.787 Z" fill="#ff0000" fill-rule="evenodd" fill-opacity="1" stroke="#000000" stroke-opacity="1" stroke-width="3.2"/>
<path clip-path="url(#clip522)" d="M1063.29 781.859 L1047.29 813.859 L1079.29 813.859 L1063.29 781.859 Z" fill="#ff0000" fill-rule="evenodd" fill-opacity="1" stroke="#000000" stroke-opacity="1" stroke-width="3.2"/>
<path clip-path="url(#clip522)" d="M1392.21 637.794 L1376.21 669.794 L1408.21 669.794 L1392.21 637.794 Z" fill="#ff0000" fill-rule="evenodd" fill-opacity="1" stroke="#000000" stroke-opacity="1" stroke-width="3.2"/>
<path clip-path="url(#clip522)" d="M1721.13 518.662 L1705.13 550.662 L1737.13 550.662 L1721.13 518.662 Z" fill="#ff0000" fill-rule="evenodd" fill-opacity="1" stroke="#000000" stroke-opacity="1" stroke-width="3.2"/>
<path clip-path="url(#clip522)" d="M2050.05 336.244 L2034.05 368.244 L2066.05 368.244 L2050.05 336.244 Z" fill="#ff0000" fill-rule="evenodd" fill-opacity="1" stroke="#000000" stroke-opacity="1" stroke-width="3.2"/>
<path clip-path="url(#clip520)" d="M383.515 524.202 L1121.57 524.202 L1121.57 316.842 L383.515 316.842  Z" fill="#ffffff" fill-rule="evenodd" fill-opacity="1"/>
<polyline clip-path="url(#clip520)" style="stroke:#000000; stroke-linecap:round; stroke-linejoin:round; stroke-width:4; stroke-opacity:1; fill:none" points="383.515,524.202 1121.57,524.202 1121.57,316.842 383.515,316.842 383.515,524.202 "/>
<polyline clip-path="url(#clip520)" style="stroke:#0000ff; stroke-linecap:round; stroke-linejoin:round; stroke-width:6; stroke-opacity:1; fill:none" points="403.616,368.682 524.22,368.682 "/>
<circle clip-path="url(#clip520)" cx="463.918" cy="368.682" r="16.7507" fill="#0000ff" fill-rule="evenodd" fill-opacity="1" stroke="#000000" stroke-opacity="1" stroke-width="4.55111"/>
<path clip-path="url(#clip520)" d="M544.321 351.402 L548.997 351.402 L548.997 365.569 L565.988 365.569 L565.988 351.402 L570.664 351.402 L570.664 385.962 L565.988 385.962 L565.988 369.504 L548.997 369.504 L548.997 385.962 L544.321 385.962 L544.321 351.402 Z" fill="#000000" fill-rule="nonzero" fill-opacity="1" /><path clip-path="url(#clip520)" d="M579.969 351.402 L586.937 351.402 L595.756 374.92 L604.622 351.402 L611.589 351.402 L611.589 385.962 L607.029 385.962 L607.029 355.615 L598.117 379.319 L593.418 379.319 L584.506 355.615 L584.506 385.962 L579.969 385.962 L579.969 351.402 Z" fill="#000000" fill-rule="nonzero" fill-opacity="1" /><path clip-path="url(#clip520)" d="M620.872 351.402 L627.839 351.402 L636.659 374.92 L645.524 351.402 L652.492 351.402 L652.492 385.962 L647.932 385.962 L647.932 355.615 L639.02 379.319 L634.321 379.319 L625.409 355.615 L625.409 385.962 L620.872 385.962 L620.872 351.402 Z" fill="#000000" fill-rule="nonzero" fill-opacity="1" /><path clip-path="url(#clip520)" d="M678.117 360.8 L678.117 364.828 Q676.311 363.902 674.367 363.439 Q672.422 362.976 670.339 362.976 Q667.168 362.976 665.571 363.948 Q663.997 364.92 663.997 366.865 Q663.997 368.346 665.131 369.203 Q666.265 370.036 669.691 370.8 L671.149 371.124 Q675.686 372.096 677.584 373.879 Q679.506 375.638 679.506 378.809 Q679.506 382.42 676.635 384.527 Q673.788 386.633 668.788 386.633 Q666.705 386.633 664.436 386.217 Q662.191 385.823 659.691 385.013 L659.691 380.615 Q662.052 381.842 664.344 382.467 Q666.635 383.068 668.881 383.068 Q671.89 383.068 673.51 382.05 Q675.131 381.008 675.131 379.133 Q675.131 377.397 673.95 376.471 Q672.793 375.545 668.834 374.689 L667.353 374.342 Q663.395 373.508 661.635 371.795 Q659.876 370.059 659.876 367.05 Q659.876 363.393 662.469 361.402 Q665.061 359.411 669.83 359.411 Q672.191 359.411 674.274 359.758 Q676.358 360.106 678.117 360.8 Z" fill="#000000" fill-rule="nonzero" fill-opacity="1" /><path clip-path="url(#clip520)" d="M686.89 380.082 L691.774 380.082 L691.774 385.962 L686.89 385.962 L686.89 380.082 Z" fill="#000000" fill-rule="nonzero" fill-opacity="1" /><path clip-path="url(#clip520)" d="M701.357 360.036 L705.617 360.036 L705.617 386.425 Q705.617 391.379 703.719 393.601 Q701.844 395.823 697.654 395.823 L696.033 395.823 L696.033 392.212 L697.168 392.212 Q699.598 392.212 700.478 391.078 Q701.357 389.967 701.357 386.425 L701.357 360.036 M701.357 349.944 L705.617 349.944 L705.617 355.337 L701.357 355.337 L701.357 349.944 Z" fill="#000000" fill-rule="nonzero" fill-opacity="1" /><path clip-path="url(#clip520)" d="M714.529 349.944 L718.788 349.944 L718.788 385.962 L714.529 385.962 L714.529 349.944 Z" fill="#000000" fill-rule="nonzero" fill-opacity="1" /><polyline clip-path="url(#clip520)" style="stroke:#008000; stroke-linecap:round; stroke-linejoin:round; stroke-width:6; stroke-opacity:1; fill:none" points="403.616,420.522 524.22,420.522 "/>
<path clip-path="url(#clip520)" d="M482.53 401.91 L445.306 401.91 L463.918 439.134 L482.53 401.91 Z" fill="#008000" fill-rule="evenodd" fill-opacity="1" stroke="#000000" stroke-opacity="1" stroke-width="4.55111"/>
<path clip-path="url(#clip520)" d="M566.034 422.154 L566.034 437.802 L561.775 437.802 L561.775 422.293 Q561.775 418.612 560.34 416.784 Q558.905 414.955 556.034 414.955 Q552.585 414.955 550.594 417.154 Q548.604 419.353 548.604 423.149 L548.604 437.802 L544.321 437.802 L544.321 401.784 L548.604 401.784 L548.604 415.904 Q550.131 413.566 552.192 412.409 Q554.275 411.251 556.983 411.251 Q561.451 411.251 563.742 414.029 Q566.034 416.784 566.034 422.154 Z" fill="#000000" fill-rule="nonzero" fill-opacity="1" /><path clip-path="url(#clip520)" d="M594.715 416.853 Q596.312 413.983 598.534 412.617 Q600.756 411.251 603.765 411.251 Q607.816 411.251 610.015 414.098 Q612.214 416.922 612.214 422.154 L612.214 437.802 L607.932 437.802 L607.932 422.293 Q607.932 418.566 606.613 416.76 Q605.293 414.955 602.585 414.955 Q599.275 414.955 597.353 417.154 Q595.432 419.353 595.432 423.149 L595.432 437.802 L591.15 437.802 L591.15 422.293 Q591.15 418.543 589.83 416.76 Q588.511 414.955 585.756 414.955 Q582.492 414.955 580.571 417.177 Q578.65 419.376 578.65 423.149 L578.65 437.802 L574.367 437.802 L574.367 411.876 L578.65 411.876 L578.65 415.904 Q580.108 413.52 582.145 412.385 Q584.182 411.251 586.983 411.251 Q589.807 411.251 591.775 412.686 Q593.765 414.122 594.715 416.853 Z" fill="#000000" fill-rule="nonzero" fill-opacity="1" /><path clip-path="url(#clip520)" d="M640.895 416.853 Q642.492 413.983 644.714 412.617 Q646.936 411.251 649.946 411.251 Q653.997 411.251 656.196 414.098 Q658.395 416.922 658.395 422.154 L658.395 437.802 L654.112 437.802 L654.112 422.293 Q654.112 418.566 652.793 416.76 Q651.473 414.955 648.765 414.955 Q645.455 414.955 643.534 417.154 Q641.612 419.353 641.612 423.149 L641.612 437.802 L637.33 437.802 L637.33 422.293 Q637.33 418.543 636.011 416.76 Q634.691 414.955 631.937 414.955 Q628.673 414.955 626.751 417.177 Q624.83 419.376 624.83 423.149 L624.83 437.802 L620.548 437.802 L620.548 411.876 L624.83 411.876 L624.83 415.904 Q626.288 413.52 628.325 412.385 Q630.362 411.251 633.163 411.251 Q635.987 411.251 637.955 412.686 Q639.946 414.122 640.895 416.853 Z" fill="#000000" fill-rule="nonzero" fill-opacity="1" /><path clip-path="url(#clip520)" d="M666.89 401.784 L671.149 401.784 L671.149 437.802 L666.89 437.802 L666.89 401.784 Z" fill="#000000" fill-rule="nonzero" fill-opacity="1" /><path clip-path="url(#clip520)" d="M702.237 423.774 L702.237 425.858 L682.654 425.858 Q682.932 430.256 685.293 432.571 Q687.677 434.862 691.913 434.862 Q694.367 434.862 696.658 434.26 Q698.973 433.658 701.242 432.455 L701.242 436.483 Q698.95 437.455 696.543 437.964 Q694.135 438.473 691.658 438.473 Q685.455 438.473 681.821 434.862 Q678.209 431.251 678.209 425.094 Q678.209 418.728 681.635 415.001 Q685.084 411.251 690.918 411.251 Q696.149 411.251 699.182 414.631 Q702.237 417.987 702.237 423.774 M697.978 422.524 Q697.932 419.029 696.01 416.946 Q694.112 414.862 690.964 414.862 Q687.399 414.862 685.246 416.876 Q683.117 418.89 682.793 422.547 L697.978 422.524 Z" fill="#000000" fill-rule="nonzero" fill-opacity="1" /><path clip-path="url(#clip520)" d="M721.01 424.77 Q715.848 424.77 713.857 425.95 Q711.867 427.131 711.867 429.978 Q711.867 432.246 713.348 433.589 Q714.853 434.908 717.422 434.908 Q720.964 434.908 723.093 432.409 Q725.246 429.885 725.246 425.719 L725.246 424.77 L721.01 424.77 M729.505 423.01 L729.505 437.802 L725.246 437.802 L725.246 433.867 Q723.788 436.228 721.612 437.362 Q719.436 438.473 716.288 438.473 Q712.306 438.473 709.945 436.251 Q707.607 434.006 707.607 430.256 Q707.607 425.881 710.524 423.659 Q713.464 421.436 719.274 421.436 L725.246 421.436 L725.246 421.02 Q725.246 418.08 723.302 416.483 Q721.38 414.862 717.885 414.862 Q715.663 414.862 713.556 415.395 Q711.45 415.927 709.506 416.992 L709.506 413.057 Q711.844 412.154 714.043 411.714 Q716.242 411.251 718.325 411.251 Q723.95 411.251 726.728 414.168 Q729.505 417.085 729.505 423.01 Z" fill="#000000" fill-rule="nonzero" fill-opacity="1" /><path clip-path="url(#clip520)" d="M753.302 415.858 Q752.584 415.441 751.728 415.256 Q750.894 415.047 749.876 415.047 Q746.265 415.047 744.32 417.409 Q742.399 419.747 742.399 424.145 L742.399 437.802 L738.117 437.802 L738.117 411.876 L742.399 411.876 L742.399 415.904 Q743.741 413.543 745.894 412.409 Q748.047 411.251 751.126 411.251 Q751.566 411.251 752.098 411.321 Q752.63 411.367 753.278 411.483 L753.302 415.858 Z" fill="#000000" fill-rule="nonzero" fill-opacity="1" /><path clip-path="url(#clip520)" d="M778.487 422.154 L778.487 437.802 L774.227 437.802 L774.227 422.293 Q774.227 418.612 772.792 416.784 Q771.357 414.955 768.487 414.955 Q765.038 414.955 763.047 417.154 Q761.056 419.353 761.056 423.149 L761.056 437.802 L756.774 437.802 L756.774 411.876 L761.056 411.876 L761.056 415.904 Q762.584 413.566 764.644 412.409 Q766.727 411.251 769.436 411.251 Q773.903 411.251 776.195 414.029 Q778.487 416.784 778.487 422.154 Z" fill="#000000" fill-rule="nonzero" fill-opacity="1" /><path clip-path="url(#clip520)" d="M801.658 401.784 L811.473 401.784 L811.473 405.094 L805.917 405.094 L805.917 440.742 L811.473 440.742 L811.473 444.052 L801.658 444.052 L801.658 401.784 Z" fill="#000000" fill-rule="nonzero" fill-opacity="1" /><path clip-path="url(#clip520)" d="M818.394 422.918 L830.871 422.918 L830.871 426.714 L818.394 426.714 L818.394 422.918 Z" fill="#000000" fill-rule="nonzero" fill-opacity="1" /><path clip-path="url(#clip520)" d="M848.255 406.321 Q844.644 406.321 842.815 409.885 Q841.009 413.427 841.009 420.557 Q841.009 427.663 842.815 431.228 Q844.644 434.77 848.255 434.77 Q851.889 434.77 853.695 431.228 Q855.523 427.663 855.523 420.557 Q855.523 413.427 853.695 409.885 Q851.889 406.321 848.255 406.321 M848.255 402.617 Q854.065 402.617 857.121 407.223 Q860.199 411.807 860.199 420.557 Q860.199 429.284 857.121 433.89 Q854.065 438.473 848.255 438.473 Q842.445 438.473 839.366 433.89 Q836.31 429.284 836.31 420.557 Q836.31 411.807 839.366 407.223 Q842.445 402.617 848.255 402.617 Z" fill="#000000" fill-rule="nonzero" fill-opacity="1" /><path clip-path="url(#clip520)" d="M868.417 431.922 L873.301 431.922 L873.301 437.802 L868.417 437.802 L868.417 431.922 Z" fill="#000000" fill-rule="nonzero" fill-opacity="1" /><path clip-path="url(#clip520)" d="M897.653 419.168 Q901.009 419.885 902.884 422.154 Q904.782 424.422 904.782 427.756 Q904.782 432.871 901.264 435.672 Q897.745 438.473 891.264 438.473 Q889.088 438.473 886.773 438.033 Q884.481 437.617 882.028 436.76 L882.028 432.246 Q883.972 433.381 886.287 433.959 Q888.602 434.538 891.125 434.538 Q895.523 434.538 897.815 432.802 Q900.13 431.066 900.13 427.756 Q900.13 424.7 897.977 422.987 Q895.847 421.251 892.028 421.251 L888 421.251 L888 417.409 L892.213 417.409 Q895.662 417.409 897.491 416.043 Q899.319 414.654 899.319 412.061 Q899.319 409.399 897.421 407.987 Q895.546 406.552 892.028 406.552 Q890.106 406.552 887.907 406.969 Q885.708 407.385 883.069 408.265 L883.069 404.098 Q885.731 403.358 888.046 402.987 Q890.384 402.617 892.444 402.617 Q897.768 402.617 900.87 405.048 Q903.972 407.455 903.972 411.575 Q903.972 414.446 902.329 416.436 Q900.685 418.404 897.653 419.168 Z" fill="#000000" fill-rule="nonzero" fill-opacity="1" /><path clip-path="url(#clip520)" d="M923.648 406.321 Q920.037 406.321 918.208 409.885 Q916.403 413.427 916.403 420.557 Q916.403 427.663 918.208 431.228 Q920.037 434.77 923.648 434.77 Q927.282 434.77 929.088 431.228 Q930.916 427.663 930.916 420.557 Q930.916 413.427 929.088 409.885 Q927.282 406.321 923.648 406.321 M923.648 402.617 Q929.458 402.617 932.514 407.223 Q935.592 411.807 935.592 420.557 Q935.592 429.284 932.514 433.89 Q929.458 438.473 923.648 438.473 Q917.838 438.473 914.759 433.89 Q911.704 429.284 911.704 420.557 Q911.704 411.807 914.759 407.223 Q917.838 402.617 923.648 402.617 Z" fill="#000000" fill-rule="nonzero" fill-opacity="1" /><path clip-path="url(#clip520)" d="M954.389 418.659 Q951.24 418.659 949.389 420.811 Q947.56 422.964 947.56 426.714 Q947.56 430.441 949.389 432.617 Q951.24 434.77 954.389 434.77 Q957.537 434.77 959.365 432.617 Q961.217 430.441 961.217 426.714 Q961.217 422.964 959.365 420.811 Q957.537 418.659 954.389 418.659 M963.671 404.006 L963.671 408.265 Q961.912 407.432 960.106 406.992 Q958.324 406.552 956.564 406.552 Q951.935 406.552 949.481 409.677 Q947.051 412.802 946.703 419.122 Q948.069 417.108 950.129 416.043 Q952.189 414.955 954.666 414.955 Q959.875 414.955 962.884 418.126 Q965.916 421.274 965.916 426.714 Q965.916 432.038 962.768 435.256 Q959.62 438.473 954.389 438.473 Q948.393 438.473 945.222 433.89 Q942.051 429.284 942.051 420.557 Q942.051 412.362 945.939 407.501 Q949.828 402.617 956.379 402.617 Q958.138 402.617 959.921 402.964 Q961.726 403.311 963.671 404.006 Z" fill="#000000" fill-rule="nonzero" fill-opacity="1" /><path clip-path="url(#clip520)" d="M993.555 416.853 Q995.152 413.983 997.374 412.617 Q999.597 411.251 1002.61 411.251 Q1006.66 411.251 1008.86 414.098 Q1011.05 416.922 1011.05 422.154 L1011.05 437.802 L1006.77 437.802 L1006.77 422.293 Q1006.77 418.566 1005.45 416.76 Q1004.13 414.955 1001.43 414.955 Q998.115 414.955 996.194 417.154 Q994.273 419.353 994.273 423.149 L994.273 437.802 L989.99 437.802 L989.99 422.293 Q989.99 418.543 988.671 416.76 Q987.351 414.955 984.597 414.955 Q981.333 414.955 979.412 417.177 Q977.49 419.376 977.49 423.149 L977.49 437.802 L973.208 437.802 L973.208 411.876 L977.49 411.876 L977.49 415.904 Q978.949 413.52 980.986 412.385 Q983.023 411.251 985.824 411.251 Q988.648 411.251 990.615 412.686 Q992.606 414.122 993.555 416.853 Z" fill="#000000" fill-rule="nonzero" fill-opacity="1" /><path clip-path="url(#clip520)" d="M1036.08 412.64 L1036.08 416.668 Q1034.27 415.742 1032.33 415.279 Q1030.38 414.816 1028.3 414.816 Q1025.13 414.816 1023.53 415.788 Q1021.96 416.76 1021.96 418.705 Q1021.96 420.186 1023.09 421.043 Q1024.23 421.876 1027.65 422.64 L1029.11 422.964 Q1033.65 423.936 1035.55 425.719 Q1037.47 427.478 1037.47 430.649 Q1037.47 434.26 1034.6 436.367 Q1031.75 438.473 1026.75 438.473 Q1024.67 438.473 1022.4 438.057 Q1020.15 437.663 1017.65 436.853 L1017.65 432.455 Q1020.01 433.682 1022.3 434.307 Q1024.6 434.908 1026.84 434.908 Q1029.85 434.908 1031.47 433.89 Q1033.09 432.848 1033.09 430.973 Q1033.09 429.237 1031.91 428.311 Q1030.75 427.385 1026.8 426.529 L1025.31 426.182 Q1021.36 425.348 1019.6 423.635 Q1017.84 421.899 1017.84 418.89 Q1017.84 415.233 1020.43 413.242 Q1023.02 411.251 1027.79 411.251 Q1030.15 411.251 1032.24 411.598 Q1034.32 411.946 1036.08 412.64 Z" fill="#000000" fill-rule="nonzero" fill-opacity="1" /><path clip-path="url(#clip520)" d="M1054.2 401.784 L1054.2 444.052 L1044.39 444.052 L1044.39 440.742 L1049.92 440.742 L1049.92 405.094 L1044.39 405.094 L1044.39 401.784 L1054.2 401.784 Z" fill="#000000" fill-rule="nonzero" fill-opacity="1" /><polyline clip-path="url(#clip520)" style="stroke:#ff0000; stroke-linecap:round; stroke-linejoin:round; stroke-width:6; stroke-opacity:1; fill:none" points="403.616,472.362 524.22,472.362 "/>
<path clip-path="url(#clip520)" d="M463.918 453.75 L445.306 490.974 L482.53 490.974 L463.918 453.75 Z" fill="#ff0000" fill-rule="evenodd" fill-opacity="1" stroke="#000000" stroke-opacity="1" stroke-width="4.55111"/>
<path clip-path="url(#clip520)" d="M548.604 485.753 L548.604 499.503 L544.321 499.503 L544.321 463.716 L548.604 463.716 L548.604 467.651 Q549.946 465.337 551.983 464.225 Q554.043 463.091 556.891 463.091 Q561.613 463.091 564.553 466.841 Q567.516 470.591 567.516 476.702 Q567.516 482.813 564.553 486.563 Q561.613 490.313 556.891 490.313 Q554.043 490.313 551.983 489.202 Q549.946 488.068 548.604 485.753 M563.094 476.702 Q563.094 472.003 561.15 469.341 Q559.229 466.656 555.849 466.656 Q552.469 466.656 550.525 469.341 Q548.604 472.003 548.604 476.702 Q548.604 481.401 550.525 484.086 Q552.469 486.748 555.849 486.748 Q559.229 486.748 561.15 484.086 Q563.094 481.401 563.094 476.702 Z" fill="#000000" fill-rule="nonzero" fill-opacity="1" /><path clip-path="url(#clip520)" d="M584.622 466.702 Q581.196 466.702 579.205 469.387 Q577.215 472.049 577.215 476.702 Q577.215 481.355 579.182 484.04 Q581.173 486.702 584.622 486.702 Q588.025 486.702 590.015 484.017 Q592.006 481.332 592.006 476.702 Q592.006 472.096 590.015 469.411 Q588.025 466.702 584.622 466.702 M584.622 463.091 Q590.177 463.091 593.349 466.702 Q596.52 470.313 596.52 476.702 Q596.52 483.068 593.349 486.702 Q590.177 490.313 584.622 490.313 Q579.043 490.313 575.872 486.702 Q572.724 483.068 572.724 476.702 Q572.724 470.313 575.872 466.702 Q579.043 463.091 584.622 463.091 Z" fill="#000000" fill-rule="nonzero" fill-opacity="1" /><path clip-path="url(#clip520)" d="M623.765 468.693 Q625.362 465.823 627.585 464.457 Q629.807 463.091 632.816 463.091 Q636.867 463.091 639.066 465.938 Q641.265 468.762 641.265 473.994 L641.265 489.642 L636.983 489.642 L636.983 474.133 Q636.983 470.406 635.663 468.6 Q634.344 466.795 631.636 466.795 Q628.325 466.795 626.404 468.994 Q624.483 471.193 624.483 474.989 L624.483 489.642 L620.2 489.642 L620.2 474.133 Q620.2 470.383 618.881 468.6 Q617.562 466.795 614.807 466.795 Q611.543 466.795 609.622 469.017 Q607.701 471.216 607.701 474.989 L607.701 489.642 L603.418 489.642 L603.418 463.716 L607.701 463.716 L607.701 467.744 Q609.159 465.36 611.196 464.225 Q613.233 463.091 616.034 463.091 Q618.858 463.091 620.825 464.526 Q622.816 465.962 623.765 468.693 Z" fill="#000000" fill-rule="nonzero" fill-opacity="1" /><path clip-path="url(#clip520)" d="M671.936 475.614 L671.936 477.698 L652.353 477.698 Q652.631 482.096 654.992 484.411 Q657.376 486.702 661.612 486.702 Q664.066 486.702 666.358 486.1 Q668.672 485.498 670.941 484.295 L670.941 488.323 Q668.649 489.295 666.242 489.804 Q663.835 490.313 661.358 490.313 Q655.154 490.313 651.52 486.702 Q647.909 483.091 647.909 476.934 Q647.909 470.568 651.335 466.841 Q654.784 463.091 660.617 463.091 Q665.848 463.091 668.881 466.471 Q671.936 469.827 671.936 475.614 M667.677 474.364 Q667.631 470.869 665.709 468.786 Q663.811 466.702 660.663 466.702 Q657.098 466.702 654.946 468.716 Q652.816 470.73 652.492 474.387 L667.677 474.364 Z" fill="#000000" fill-rule="nonzero" fill-opacity="1" /><path clip-path="url(#clip520)" d="M695.987 476.378 Q695.987 471.749 694.066 469.202 Q692.168 466.656 688.719 466.656 Q685.293 466.656 683.371 469.202 Q681.473 471.749 681.473 476.378 Q681.473 480.985 683.371 483.531 Q685.293 486.077 688.719 486.077 Q692.168 486.077 694.066 483.531 Q695.987 480.985 695.987 476.378 M700.246 486.424 Q700.246 493.045 697.307 496.262 Q694.367 499.503 688.302 499.503 Q686.057 499.503 684.066 499.156 Q682.075 498.832 680.2 498.137 L680.2 493.994 Q682.075 495.012 683.904 495.498 Q685.733 495.985 687.631 495.985 Q691.82 495.985 693.904 493.785 Q695.987 491.61 695.987 487.188 L695.987 485.082 Q694.668 487.373 692.608 488.508 Q690.547 489.642 687.677 489.642 Q682.908 489.642 679.992 486.008 Q677.075 482.374 677.075 476.378 Q677.075 470.36 679.992 466.725 Q682.908 463.091 687.677 463.091 Q690.547 463.091 692.608 464.225 Q694.668 465.36 695.987 467.651 L695.987 463.716 L700.246 463.716 L700.246 486.424 Z" fill="#000000" fill-rule="nonzero" fill-opacity="1" /><path clip-path="url(#clip520)" d="M724.043 467.698 Q723.325 467.281 722.468 467.096 Q721.635 466.887 720.617 466.887 Q717.006 466.887 715.061 469.249 Q713.14 471.587 713.14 475.985 L713.14 489.642 L708.857 489.642 L708.857 463.716 L713.14 463.716 L713.14 467.744 Q714.482 465.383 716.635 464.249 Q718.788 463.091 721.867 463.091 Q722.306 463.091 722.839 463.161 Q723.371 463.207 724.019 463.323 L724.043 467.698 Z" fill="#000000" fill-rule="nonzero" fill-opacity="1" /><path clip-path="url(#clip520)" d="M740.292 476.61 Q735.13 476.61 733.14 477.79 Q731.149 478.971 731.149 481.818 Q731.149 484.086 732.63 485.429 Q734.135 486.748 736.704 486.748 Q740.246 486.748 742.376 484.249 Q744.529 481.725 744.529 477.559 L744.529 476.61 L740.292 476.61 M748.788 474.85 L748.788 489.642 L744.529 489.642 L744.529 485.707 Q743.07 488.068 740.894 489.202 Q738.718 490.313 735.57 490.313 Q731.589 490.313 729.228 488.091 Q726.89 485.846 726.89 482.096 Q726.89 477.721 729.806 475.499 Q732.746 473.276 738.556 473.276 L744.529 473.276 L744.529 472.86 Q744.529 469.92 742.584 468.323 Q740.663 466.702 737.167 466.702 Q734.945 466.702 732.839 467.235 Q730.732 467.767 728.788 468.832 L728.788 464.897 Q731.126 463.994 733.325 463.554 Q735.524 463.091 737.607 463.091 Q743.232 463.091 746.01 466.008 Q748.788 468.925 748.788 474.85 Z" fill="#000000" fill-rule="nonzero" fill-opacity="1" /><path clip-path="url(#clip520)" d="M779.112 473.994 L779.112 489.642 L774.852 489.642 L774.852 474.133 Q774.852 470.452 773.417 468.624 Q771.982 466.795 769.112 466.795 Q765.663 466.795 763.672 468.994 Q761.681 471.193 761.681 474.989 L761.681 489.642 L757.399 489.642 L757.399 463.716 L761.681 463.716 L761.681 467.744 Q763.209 465.406 765.269 464.249 Q767.352 463.091 770.061 463.091 Q774.528 463.091 776.82 465.869 Q779.112 468.624 779.112 473.994 Z" fill="#000000" fill-rule="nonzero" fill-opacity="1" /><path clip-path="url(#clip520)" d="M799.389 476.61 Q794.227 476.61 792.237 477.79 Q790.246 478.971 790.246 481.818 Q790.246 484.086 791.727 485.429 Q793.232 486.748 795.801 486.748 Q799.343 486.748 801.473 484.249 Q803.625 481.725 803.625 477.559 L803.625 476.61 L799.389 476.61 M807.885 474.85 L807.885 489.642 L803.625 489.642 L803.625 485.707 Q802.167 488.068 799.991 489.202 Q797.815 490.313 794.667 490.313 Q790.686 490.313 788.325 488.091 Q785.987 485.846 785.987 482.096 Q785.987 477.721 788.903 475.499 Q791.843 473.276 797.653 473.276 L803.625 473.276 L803.625 472.86 Q803.625 469.92 801.681 468.323 Q799.76 466.702 796.264 466.702 Q794.042 466.702 791.936 467.235 Q789.829 467.767 787.885 468.832 L787.885 464.897 Q790.223 463.994 792.422 463.554 Q794.621 463.091 796.704 463.091 Q802.329 463.091 805.107 466.008 Q807.885 468.925 807.885 474.85 Z" fill="#000000" fill-rule="nonzero" fill-opacity="1" /><path clip-path="url(#clip520)" d="M820.871 456.355 L820.871 463.716 L829.644 463.716 L829.644 467.026 L820.871 467.026 L820.871 481.1 Q820.871 484.272 821.727 485.174 Q822.607 486.077 825.269 486.077 L829.644 486.077 L829.644 489.642 L825.269 489.642 Q820.338 489.642 818.463 487.813 Q816.588 485.961 816.588 481.1 L816.588 467.026 L813.463 467.026 L813.463 463.716 L816.588 463.716 L816.588 456.355 L820.871 456.355 Z" fill="#000000" fill-rule="nonzero" fill-opacity="1" /><path clip-path="url(#clip520)" d="M857.421 475.614 L857.421 477.698 L837.838 477.698 Q838.116 482.096 840.477 484.411 Q842.861 486.702 847.097 486.702 Q849.551 486.702 851.843 486.1 Q854.158 485.498 856.426 484.295 L856.426 488.323 Q854.134 489.295 851.727 489.804 Q849.32 490.313 846.843 490.313 Q840.639 490.313 837.005 486.702 Q833.394 483.091 833.394 476.934 Q833.394 470.568 836.82 466.841 Q840.269 463.091 846.102 463.091 Q851.334 463.091 854.366 466.471 Q857.421 469.827 857.421 475.614 M853.162 474.364 Q853.116 470.869 851.195 468.786 Q849.296 466.702 846.148 466.702 Q842.584 466.702 840.431 468.716 Q838.301 470.73 837.977 474.387 L853.162 474.364 Z" fill="#000000" fill-rule="nonzero" fill-opacity="1" /><path clip-path="url(#clip520)" d="M879.088 453.624 L888.903 453.624 L888.903 456.934 L883.347 456.934 L883.347 492.582 L888.903 492.582 L888.903 495.892 L879.088 495.892 L879.088 453.624 Z" fill="#000000" fill-rule="nonzero" fill-opacity="1" /><path clip-path="url(#clip520)" d="M895.824 474.758 L908.301 474.758 L908.301 478.554 L895.824 478.554 L895.824 474.758 Z" fill="#000000" fill-rule="nonzero" fill-opacity="1" /><path clip-path="url(#clip520)" d="M919.713 485.707 L936.032 485.707 L936.032 489.642 L914.088 489.642 L914.088 485.707 Q916.75 482.952 921.333 478.323 Q925.94 473.67 927.12 472.327 Q929.365 469.804 930.245 468.068 Q931.148 466.309 931.148 464.619 Q931.148 461.864 929.203 460.128 Q927.282 458.392 924.18 458.392 Q921.981 458.392 919.528 459.156 Q917.097 459.92 914.319 461.471 L914.319 456.749 Q917.143 455.614 919.597 455.036 Q922.051 454.457 924.088 454.457 Q929.458 454.457 932.653 457.142 Q935.847 459.827 935.847 464.318 Q935.847 466.448 935.037 468.369 Q934.25 470.267 932.143 472.86 Q931.565 473.531 928.463 476.749 Q925.361 479.943 919.713 485.707 Z" fill="#000000" fill-rule="nonzero" fill-opacity="1" /><path clip-path="url(#clip520)" d="M945.847 483.762 L950.731 483.762 L950.731 489.642 L945.847 489.642 L945.847 483.762 Z" fill="#000000" fill-rule="nonzero" fill-opacity="1" /><path clip-path="url(#clip520)" d="M961.726 485.707 L969.365 485.707 L969.365 459.341 L961.055 461.008 L961.055 456.749 L969.319 455.082 L973.995 455.082 L973.995 485.707 L981.634 485.707 L981.634 489.642 L961.726 489.642 L961.726 485.707 Z" fill="#000000" fill-rule="nonzero" fill-opacity="1" /><path clip-path="url(#clip520)" d="M991.124 455.082 L1009.48 455.082 L1009.48 459.017 L995.407 459.017 L995.407 467.489 Q996.425 467.142 997.444 466.98 Q998.462 466.795 999.481 466.795 Q1005.27 466.795 1008.65 469.966 Q1012.03 473.137 1012.03 478.554 Q1012.03 484.133 1008.55 487.235 Q1005.08 490.313 998.763 490.313 Q996.587 490.313 994.319 489.943 Q992.073 489.573 989.666 488.832 L989.666 484.133 Q991.749 485.267 993.972 485.823 Q996.194 486.378 998.671 486.378 Q1002.68 486.378 1005.01 484.272 Q1007.35 482.165 1007.35 478.554 Q1007.35 474.943 1005.01 472.837 Q1002.68 470.73 998.671 470.73 Q996.796 470.73 994.921 471.147 Q993.069 471.563 991.124 472.443 L991.124 455.082 Z" fill="#000000" fill-rule="nonzero" fill-opacity="1" /><path clip-path="url(#clip520)" d="M1040.82 468.693 Q1042.42 465.823 1044.64 464.457 Q1046.86 463.091 1049.87 463.091 Q1053.93 463.091 1056.12 465.938 Q1058.32 468.762 1058.32 473.994 L1058.32 489.642 L1054.04 489.642 L1054.04 474.133 Q1054.04 470.406 1052.72 468.6 Q1051.4 466.795 1048.69 466.795 Q1045.38 466.795 1043.46 468.994 Q1041.54 471.193 1041.54 474.989 L1041.54 489.642 L1037.26 489.642 L1037.26 474.133 Q1037.26 470.383 1035.94 468.6 Q1034.62 466.795 1031.86 466.795 Q1028.6 466.795 1026.68 469.017 Q1024.76 471.216 1024.76 474.989 L1024.76 489.642 L1020.48 489.642 L1020.48 463.716 L1024.76 463.716 L1024.76 467.744 Q1026.22 465.36 1028.25 464.225 Q1030.29 463.091 1033.09 463.091 Q1035.92 463.091 1037.88 464.526 Q1039.87 465.962 1040.82 468.693 Z" fill="#000000" fill-rule="nonzero" fill-opacity="1" /><path clip-path="url(#clip520)" d="M1083.35 464.48 L1083.35 468.508 Q1081.54 467.582 1079.6 467.119 Q1077.65 466.656 1075.57 466.656 Q1072.4 466.656 1070.8 467.628 Q1069.23 468.6 1069.23 470.545 Q1069.23 472.026 1070.36 472.883 Q1071.49 473.716 1074.92 474.48 L1076.38 474.804 Q1080.92 475.776 1082.81 477.559 Q1084.74 479.318 1084.74 482.489 Q1084.74 486.1 1081.86 488.207 Q1079.02 490.313 1074.02 490.313 Q1071.93 490.313 1069.67 489.897 Q1067.42 489.503 1064.92 488.693 L1064.92 484.295 Q1067.28 485.522 1069.57 486.147 Q1071.86 486.748 1074.11 486.748 Q1077.12 486.748 1078.74 485.73 Q1080.36 484.688 1080.36 482.813 Q1080.36 481.077 1079.18 480.151 Q1078.02 479.225 1074.06 478.369 L1072.58 478.022 Q1068.62 477.188 1066.86 475.475 Q1065.11 473.739 1065.11 470.73 Q1065.11 467.073 1067.7 465.082 Q1070.29 463.091 1075.06 463.091 Q1077.42 463.091 1079.5 463.438 Q1081.59 463.786 1083.35 464.48 Z" fill="#000000" fill-rule="nonzero" fill-opacity="1" /><path clip-path="url(#clip520)" d="M1101.47 453.624 L1101.47 495.892 L1091.66 495.892 L1091.66 492.582 L1097.19 492.582 L1097.19 456.934 L1091.66 456.934 L1091.66 453.624 L1101.47 453.624 Z" fill="#000000" fill-rule="nonzero" fill-opacity="1" /></svg>
