<?xml version="1.0" encoding="utf-8"?>
<svg xmlns="http://www.w3.org/2000/svg" xmlns:xlink="http://www.w3.org/1999/xlink" width="600" height="400" viewBox="0 0 2400 1600">
<defs>
  <clipPath id="clip490">
    <rect x="0" y="0" width="2400" height="1600"/>
  </clipPath>
</defs>
<path clip-path="url(#clip490)" d="M0 1600 L2400 1600 L2400 0 L0 0  Z" fill="#ffffff" fill-rule="evenodd" fill-opacity="1"/>
<defs>
  <clipPath id="clip491">
    <rect x="480" y="0" width="1681" height="1600"/>
  </clipPath>
</defs>
<path clip-path="url(#clip490)" d="M323.213 1284.79 L2132.28 1284.79 L2132.28 283.465 L323.213 283.465  Z" fill="#ffffff" fill-rule="evenodd" fill-opacity="1"/>
<defs>
  <clipPath id="clip492">
    <rect x="323" y="283" width="1810" height="1002"/>
  </clipPath>
</defs>
<polyline clip-path="url(#clip492)" style="stroke:#000000; stroke-linecap:round; stroke-linejoin:round; stroke-width:2; stroke-opacity:0.1; fill:none" points="652.135,1284.79 652.135,283.465 "/>
<polyline clip-path="url(#clip492)" style="stroke:#000000; stroke-linecap:round; stroke-linejoin:round; stroke-width:2; stroke-opacity:0.1; fill:none" points="1063.29,1284.79 1063.29,283.465 "/>
<polyline clip-path="url(#clip492)" style="stroke:#000000; stroke-linecap:round; stroke-linejoin:round; stroke-width:2; stroke-opacity:0.1; fill:none" points="1474.44,1284.79 1474.44,283.465 "/>
<polyline clip-path="url(#clip492)" style="stroke:#000000; stroke-linecap:round; stroke-linejoin:round; stroke-width:2; stroke-opacity:0.1; fill:none" points="1885.59,1284.79 1885.59,283.465 "/>
<polyline clip-path="url(#clip490)" style="stroke:#000000; stroke-linecap:round; stroke-linejoin:round; stroke-width:4; stroke-opacity:1; fill:none" points="323.213,1284.79 2132.28,1284.79 "/>
<polyline clip-path="url(#clip490)" style="stroke:#000000; stroke-linecap:round; stroke-linejoin:round; stroke-width:4; stroke-opacity:1; fill:none" points="652.135,1284.79 652.135,1265.89 "/>
<polyline clip-path="url(#clip490)" style="stroke:#000000; stroke-linecap:round; stroke-linejoin:round; stroke-width:4; stroke-opacity:1; fill:none" points="1063.29,1284.79 1063.29,1265.89 "/>
<polyline clip-path="url(#clip490)" style="stroke:#000000; stroke-linecap:round; stroke-linejoin:round; stroke-width:4; stroke-opacity:1; fill:none" points="1474.44,1284.79 1474.44,1265.89 "/>
<polyline clip-path="url(#clip490)" style="stroke:#000000; stroke-linecap:round; stroke-linejoin:round; stroke-width:4; stroke-opacity:1; fill:none" points="1885.59,1284.79 1885.59,1265.89 "/>
<path clip-path="url(#clip490)" d="M642.412 1312.63 L660.769 1312.63 L660.769 1316.56 L646.695 1316.56 L646.695 1325.03 Q647.713 1324.69 648.732 1324.53 Q649.75 1324.34 650.769 1324.34 Q656.556 1324.34 659.935 1327.51 Q663.315 1330.68 663.315 1336.1 Q663.315 1341.68 659.843 1344.78 Q656.371 1347.86 650.051 1347.86 Q647.875 1347.86 645.607 1347.49 Q643.361 1347.12 640.954 1346.38 L640.954 1341.68 Q643.037 1342.81 645.26 1343.37 Q647.482 1343.92 649.959 1343.92 Q653.963 1343.92 656.301 1341.82 Q658.639 1339.71 658.639 1336.1 Q658.639 1332.49 656.301 1330.38 Q653.963 1328.28 649.959 1328.28 Q648.084 1328.28 646.209 1328.69 Q644.357 1329.11 642.412 1329.99 L642.412 1312.63 Z" fill="#000000" fill-rule="nonzero" fill-opacity="1" /><path clip-path="url(#clip490)" d="M1037.97 1343.25 L1045.61 1343.25 L1045.61 1316.89 L1037.3 1318.55 L1037.3 1314.29 L1045.57 1312.63 L1050.24 1312.63 L1050.24 1343.25 L1057.88 1343.25 L1057.88 1347.19 L1037.97 1347.19 L1037.97 1343.25 Z" fill="#000000" fill-rule="nonzero" fill-opacity="1" /><path clip-path="url(#clip490)" d="M1077.33 1315.71 Q1073.72 1315.71 1071.89 1319.27 Q1070.08 1322.81 1070.08 1329.94 Q1070.08 1337.05 1071.89 1340.61 Q1073.72 1344.16 1077.33 1344.16 Q1080.96 1344.16 1082.77 1340.61 Q1084.59 1337.05 1084.59 1329.94 Q1084.59 1322.81 1082.77 1319.27 Q1080.96 1315.71 1077.33 1315.71 M1077.33 1312 Q1083.14 1312 1086.19 1316.61 Q1089.27 1321.19 1089.27 1329.94 Q1089.27 1338.67 1086.19 1343.28 Q1083.14 1347.86 1077.33 1347.86 Q1071.52 1347.86 1068.44 1343.28 Q1065.38 1338.67 1065.38 1329.94 Q1065.38 1321.19 1068.44 1316.61 Q1071.52 1312 1077.33 1312 Z" fill="#000000" fill-rule="nonzero" fill-opacity="1" /><path clip-path="url(#clip490)" d="M1449.62 1343.25 L1457.26 1343.25 L1457.26 1316.89 L1448.95 1318.55 L1448.95 1314.29 L1457.22 1312.63 L1461.89 1312.63 L1461.89 1343.25 L1469.53 1343.25 L1469.53 1347.19 L1449.62 1347.19 L1449.62 1343.25 Z" fill="#000000" fill-rule="nonzero" fill-opacity="1" /><path clip-path="url(#clip490)" d="M1479.02 1312.63 L1497.38 1312.63 L1497.38 1316.56 L1483.31 1316.56 L1483.31 1325.03 Q1484.32 1324.69 1485.34 1324.53 Q1486.36 1324.34 1487.38 1324.34 Q1493.17 1324.34 1496.55 1327.51 Q1499.93 1330.68 1499.93 1336.1 Q1499.93 1341.68 1496.45 1344.78 Q1492.98 1347.86 1486.66 1347.86 Q1484.49 1347.86 1482.22 1347.49 Q1479.97 1347.12 1477.56 1346.38 L1477.56 1341.68 Q1479.65 1342.81 1481.87 1343.37 Q1484.09 1343.92 1486.57 1343.92 Q1490.57 1343.92 1492.91 1341.82 Q1495.25 1339.71 1495.25 1336.1 Q1495.25 1332.49 1492.91 1330.38 Q1490.57 1328.28 1486.57 1328.28 Q1484.69 1328.28 1482.82 1328.69 Q1480.97 1329.11 1479.02 1329.99 L1479.02 1312.63 Z" fill="#000000" fill-rule="nonzero" fill-opacity="1" /><path clip-path="url(#clip490)" d="M1864.37 1343.25 L1880.68 1343.25 L1880.68 1347.19 L1858.74 1347.19 L1858.74 1343.25 Q1861.4 1340.5 1865.99 1335.87 Q1870.59 1331.22 1871.77 1329.87 Q1874.02 1327.35 1874.9 1325.61 Q1875.8 1323.85 1875.8 1322.16 Q1875.8 1319.41 1873.86 1317.67 Q1871.93 1315.94 1868.83 1315.94 Q1866.63 1315.94 1864.18 1316.7 Q1861.75 1317.47 1858.97 1319.02 L1858.97 1314.29 Q1861.8 1313.16 1864.25 1312.58 Q1866.7 1312 1868.74 1312 Q1874.11 1312 1877.3 1314.69 Q1880.5 1317.37 1880.5 1321.86 Q1880.5 1323.99 1879.69 1325.91 Q1878.9 1327.81 1876.8 1330.41 Q1876.22 1331.08 1873.12 1334.29 Q1870.01 1337.49 1864.37 1343.25 Z" fill="#000000" fill-rule="nonzero" fill-opacity="1" /><path clip-path="url(#clip490)" d="M1900.5 1315.71 Q1896.89 1315.71 1895.06 1319.27 Q1893.25 1322.81 1893.25 1329.94 Q1893.25 1337.05 1895.06 1340.61 Q1896.89 1344.16 1900.5 1344.16 Q1904.13 1344.16 1905.94 1340.61 Q1907.77 1337.05 1907.77 1329.94 Q1907.77 1322.81 1905.94 1319.27 Q1904.13 1315.71 1900.5 1315.71 M1900.5 1312 Q1906.31 1312 1909.37 1316.61 Q1912.44 1321.19 1912.44 1329.94 Q1912.44 1338.67 1909.37 1343.28 Q1906.31 1347.86 1900.5 1347.86 Q1894.69 1347.86 1891.61 1343.28 Q1888.55 1338.67 1888.55 1329.94 Q1888.55 1321.19 1891.61 1316.61 Q1894.69 1312 1900.5 1312 Z" fill="#000000" fill-rule="nonzero" fill-opacity="1" /><path clip-path="url(#clip490)" d="M950.14 1408.14 L950.14 1429.65 L944.283 1429.65 L944.283 1408.33 Q944.283 1403.27 942.31 1400.75 Q940.336 1398.24 936.39 1398.24 Q931.647 1398.24 928.91 1401.26 Q926.173 1404.28 926.173 1409.5 L926.173 1429.65 L920.284 1429.65 L920.284 1394 L926.173 1394 L926.173 1399.54 Q928.273 1396.33 931.106 1394.74 Q933.971 1393.14 937.695 1393.14 Q943.838 1393.14 946.989 1396.96 Q950.14 1400.75 950.14 1408.14 Z" fill="#000000" fill-rule="nonzero" fill-opacity="1" /><path clip-path="url(#clip490)" d="M961.216 1415.58 L961.216 1394 L967.072 1394 L967.072 1415.36 Q967.072 1420.42 969.046 1422.97 Q971.019 1425.48 974.966 1425.48 Q979.708 1425.48 982.446 1422.46 Q985.215 1419.43 985.215 1414.21 L985.215 1394 L991.071 1394 L991.071 1429.65 L985.215 1429.65 L985.215 1424.18 Q983.082 1427.42 980.249 1429.01 Q977.448 1430.57 973.725 1430.57 Q967.582 1430.57 964.399 1426.76 Q961.216 1422.94 961.216 1415.58 M975.953 1393.14 L975.953 1393.14 Z" fill="#000000" fill-rule="nonzero" fill-opacity="1" /><path clip-path="url(#clip490)" d="M1030.89 1400.85 Q1033.08 1396.9 1036.14 1395.02 Q1039.2 1393.14 1043.33 1393.14 Q1048.9 1393.14 1051.93 1397.06 Q1054.95 1400.94 1054.95 1408.14 L1054.95 1429.65 L1049.06 1429.65 L1049.06 1408.33 Q1049.06 1403.2 1047.25 1400.72 Q1045.43 1398.24 1041.71 1398.24 Q1037.16 1398.24 1034.52 1401.26 Q1031.88 1404.28 1031.88 1409.5 L1031.88 1429.65 L1025.99 1429.65 L1025.99 1408.33 Q1025.99 1403.17 1024.17 1400.72 Q1022.36 1398.24 1018.57 1398.24 Q1014.08 1398.24 1011.44 1401.29 Q1008.8 1404.32 1008.8 1409.5 L1008.8 1429.65 L1002.91 1429.65 L1002.91 1394 L1008.8 1394 L1008.8 1399.54 Q1010.8 1396.26 1013.61 1394.7 Q1016.41 1393.14 1020.26 1393.14 Q1024.14 1393.14 1026.85 1395.12 Q1029.58 1397.09 1030.89 1400.85 Z" fill="#000000" fill-rule="nonzero" fill-opacity="1" /><path clip-path="url(#clip490)" d="M1092.22 1411.86 Q1092.22 1405.4 1089.55 1401.74 Q1086.91 1398.05 1082.26 1398.05 Q1077.61 1398.05 1074.94 1401.74 Q1072.3 1405.4 1072.3 1411.86 Q1072.3 1418.32 1074.94 1422.01 Q1077.61 1425.67 1082.26 1425.67 Q1086.91 1425.67 1089.55 1422.01 Q1092.22 1418.32 1092.22 1411.86 M1072.3 1399.41 Q1074.14 1396.23 1076.94 1394.7 Q1079.78 1393.14 1083.69 1393.14 Q1090.19 1393.14 1094.23 1398.3 Q1098.3 1403.46 1098.3 1411.86 Q1098.3 1420.26 1094.23 1425.42 Q1090.19 1430.57 1083.69 1430.57 Q1079.78 1430.57 1076.94 1429.05 Q1074.14 1427.49 1072.3 1424.3 L1072.3 1429.65 L1066.41 1429.65 L1066.41 1380.13 L1072.3 1380.13 L1072.3 1399.41 Z" fill="#000000" fill-rule="nonzero" fill-opacity="1" /><path clip-path="url(#clip490)" d="M1138.5 1410.36 L1138.5 1413.23 L1111.57 1413.23 Q1111.96 1419.28 1115.2 1422.46 Q1118.48 1425.61 1124.31 1425.61 Q1127.68 1425.61 1130.83 1424.78 Q1134.01 1423.95 1137.13 1422.3 L1137.13 1427.84 Q1133.98 1429.17 1130.67 1429.87 Q1127.36 1430.57 1123.96 1430.57 Q1115.43 1430.57 1110.43 1425.61 Q1105.46 1420.64 1105.46 1412.18 Q1105.46 1403.42 1110.17 1398.3 Q1114.92 1393.14 1122.94 1393.14 Q1130.13 1393.14 1134.3 1397.79 Q1138.5 1402.41 1138.5 1410.36 M1132.64 1408.64 Q1132.58 1403.84 1129.94 1400.97 Q1127.33 1398.11 1123 1398.11 Q1118.1 1398.11 1115.14 1400.88 Q1112.21 1403.65 1111.76 1408.68 L1132.64 1408.64 Z" fill="#000000" fill-rule="nonzero" fill-opacity="1" /><path clip-path="url(#clip490)" d="M1168.77 1399.48 Q1167.78 1398.91 1166.61 1398.65 Q1165.46 1398.36 1164.06 1398.36 Q1159.09 1398.36 1156.42 1401.61 Q1153.78 1404.83 1153.78 1410.87 L1153.78 1429.65 L1147.89 1429.65 L1147.89 1394 L1153.78 1394 L1153.78 1399.54 Q1155.62 1396.3 1158.58 1394.74 Q1161.54 1393.14 1165.78 1393.14 Q1166.38 1393.14 1167.11 1393.24 Q1167.85 1393.3 1168.74 1393.46 L1168.77 1399.48 Z" fill="#000000" fill-rule="nonzero" fill-opacity="1" /><path clip-path="url(#clip490)" d="M1209.45 1398.11 Q1204.74 1398.11 1202 1401.8 Q1199.26 1405.46 1199.26 1411.86 Q1199.26 1418.26 1201.97 1421.95 Q1204.7 1425.61 1209.45 1425.61 Q1214.13 1425.61 1216.86 1421.92 Q1219.6 1418.22 1219.6 1411.86 Q1219.6 1405.53 1216.86 1401.83 Q1214.13 1398.11 1209.45 1398.11 M1209.45 1393.14 Q1217.09 1393.14 1221.45 1398.11 Q1225.81 1403.07 1225.81 1411.86 Q1225.81 1420.61 1221.45 1425.61 Q1217.09 1430.57 1209.45 1430.57 Q1201.78 1430.57 1197.42 1425.61 Q1193.09 1420.61 1193.09 1411.86 Q1193.09 1403.07 1197.42 1398.11 Q1201.78 1393.14 1209.45 1393.14 Z" fill="#000000" fill-rule="nonzero" fill-opacity="1" /><path clip-path="url(#clip490)" d="M1253.56 1380.13 L1253.56 1385 L1247.96 1385 Q1244.81 1385 1243.57 1386.27 Q1242.36 1387.54 1242.36 1390.85 L1242.36 1394 L1252 1394 L1252 1398.55 L1242.36 1398.55 L1242.36 1429.65 L1236.47 1429.65 L1236.47 1398.55 L1230.87 1398.55 L1230.87 1394 L1236.47 1394 L1236.47 1391.52 Q1236.47 1385.57 1239.24 1382.86 Q1242.01 1380.13 1248.02 1380.13 L1253.56 1380.13 Z" fill="#000000" fill-rule="nonzero" fill-opacity="1" /><path clip-path="url(#clip490)" d="M1301.91 1395.05 L1301.91 1400.59 Q1299.43 1399.32 1296.75 1398.68 Q1294.08 1398.05 1291.21 1398.05 Q1286.85 1398.05 1284.66 1399.38 Q1282.49 1400.72 1282.49 1403.39 Q1282.49 1405.43 1284.05 1406.61 Q1285.61 1407.75 1290.32 1408.8 L1292.33 1409.25 Q1298.57 1410.59 1301.18 1413.04 Q1303.82 1415.46 1303.82 1419.82 Q1303.82 1424.78 1299.87 1427.68 Q1295.96 1430.57 1289.08 1430.57 Q1286.22 1430.57 1283.1 1430 Q1280.01 1429.46 1276.57 1428.35 L1276.57 1422.3 Q1279.82 1423.99 1282.97 1424.85 Q1286.12 1425.67 1289.21 1425.67 Q1293.35 1425.67 1295.57 1424.27 Q1297.8 1422.84 1297.8 1420.26 Q1297.8 1417.87 1296.18 1416.6 Q1294.59 1415.33 1289.15 1414.15 L1287.11 1413.67 Q1281.67 1412.53 1279.25 1410.17 Q1276.83 1407.79 1276.83 1403.65 Q1276.83 1398.62 1280.39 1395.88 Q1283.96 1393.14 1290.51 1393.14 Q1293.76 1393.14 1296.62 1393.62 Q1299.49 1394.1 1301.91 1395.05 Z" fill="#000000" fill-rule="nonzero" fill-opacity="1" /><path clip-path="url(#clip490)" d="M1318.94 1383.88 L1318.94 1394 L1331 1394 L1331 1398.55 L1318.94 1398.55 L1318.94 1417.91 Q1318.94 1422.27 1320.11 1423.51 Q1321.32 1424.75 1324.98 1424.75 L1331 1424.75 L1331 1429.65 L1324.98 1429.65 Q1318.2 1429.65 1315.63 1427.14 Q1313.05 1424.59 1313.05 1417.91 L1313.05 1398.55 L1308.75 1398.55 L1308.75 1394 L1313.05 1394 L1313.05 1383.88 L1318.94 1383.88 Z" fill="#000000" fill-rule="nonzero" fill-opacity="1" /><path clip-path="url(#clip490)" d="M1354.9 1411.73 Q1347.81 1411.73 1345.07 1413.36 Q1342.33 1414.98 1342.33 1418.89 Q1342.33 1422.01 1344.37 1423.86 Q1346.44 1425.67 1349.97 1425.67 Q1354.84 1425.67 1357.77 1422.24 Q1360.73 1418.77 1360.73 1413.04 L1360.73 1411.73 L1354.9 1411.73 M1366.58 1409.31 L1366.58 1429.65 L1360.73 1429.65 L1360.73 1424.24 Q1358.72 1427.49 1355.73 1429.05 Q1352.74 1430.57 1348.41 1430.57 Q1342.94 1430.57 1339.69 1427.52 Q1336.47 1424.43 1336.47 1419.28 Q1336.47 1413.26 1340.48 1410.2 Q1344.53 1407.15 1352.52 1407.15 L1360.73 1407.15 L1360.73 1406.58 Q1360.73 1402.53 1358.05 1400.34 Q1355.41 1398.11 1350.61 1398.11 Q1347.55 1398.11 1344.65 1398.84 Q1341.76 1399.57 1339.08 1401.04 L1339.08 1395.63 Q1342.3 1394.39 1345.32 1393.78 Q1348.35 1393.14 1351.21 1393.14 Q1358.95 1393.14 1362.76 1397.15 Q1366.58 1401.16 1366.58 1409.31 Z" fill="#000000" fill-rule="nonzero" fill-opacity="1" /><path clip-path="url(#clip490)" d="M1384.44 1383.88 L1384.44 1394 L1396.5 1394 L1396.5 1398.55 L1384.44 1398.55 L1384.44 1417.91 Q1384.44 1422.27 1385.62 1423.51 Q1386.83 1424.75 1390.49 1424.75 L1396.5 1424.75 L1396.5 1429.65 L1390.49 1429.65 Q1383.71 1429.65 1381.13 1427.14 Q1378.55 1424.59 1378.55 1417.91 L1378.55 1398.55 L1374.25 1398.55 L1374.25 1394 L1378.55 1394 L1378.55 1383.88 L1384.44 1383.88 Z" fill="#000000" fill-rule="nonzero" fill-opacity="1" /><path clip-path="url(#clip490)" d="M1434.7 1410.36 L1434.7 1413.23 L1407.77 1413.23 Q1408.15 1419.28 1411.4 1422.46 Q1414.68 1425.61 1420.5 1425.61 Q1423.88 1425.61 1427.03 1424.78 Q1430.21 1423.95 1433.33 1422.3 L1433.33 1427.84 Q1430.18 1429.17 1426.87 1429.87 Q1423.56 1430.57 1420.15 1430.57 Q1411.62 1430.57 1406.62 1425.61 Q1401.66 1420.64 1401.66 1412.18 Q1401.66 1403.42 1406.37 1398.3 Q1411.11 1393.14 1419.13 1393.14 Q1426.33 1393.14 1430.5 1397.79 Q1434.7 1402.41 1434.7 1410.36 M1428.84 1408.64 Q1428.78 1403.84 1426.14 1400.97 Q1423.53 1398.11 1419.2 1398.11 Q1414.3 1398.11 1411.34 1400.88 Q1408.41 1403.65 1407.96 1408.68 L1428.84 1408.64 Z" fill="#000000" fill-rule="nonzero" fill-opacity="1" /><path clip-path="url(#clip490)" d="M1467.03 1395.05 L1467.03 1400.59 Q1464.55 1399.32 1461.88 1398.68 Q1459.21 1398.05 1456.34 1398.05 Q1451.98 1398.05 1449.78 1399.38 Q1447.62 1400.72 1447.62 1403.39 Q1447.62 1405.43 1449.18 1406.61 Q1450.74 1407.75 1455.45 1408.8 L1457.45 1409.25 Q1463.69 1410.59 1466.3 1413.04 Q1468.94 1415.46 1468.94 1419.82 Q1468.94 1424.78 1465 1427.68 Q1461.08 1430.57 1454.21 1430.57 Q1451.34 1430.57 1448.22 1430 Q1445.14 1429.46 1441.7 1428.35 L1441.7 1422.3 Q1444.95 1423.99 1448.1 1424.85 Q1451.25 1425.67 1454.34 1425.67 Q1458.47 1425.67 1460.7 1424.27 Q1462.93 1422.84 1462.93 1420.26 Q1462.93 1417.87 1461.31 1416.6 Q1459.71 1415.33 1454.27 1414.15 L1452.23 1413.67 Q1446.79 1412.53 1444.37 1410.17 Q1441.95 1407.79 1441.95 1403.65 Q1441.95 1398.62 1445.52 1395.88 Q1449.08 1393.14 1455.64 1393.14 Q1458.89 1393.14 1461.75 1393.62 Q1464.62 1394.1 1467.03 1395.05 Z" fill="#000000" fill-rule="nonzero" fill-opacity="1" /><path clip-path="url(#clip490)" d="M1499.25 1382.13 L1507.9 1382.13 L1528.97 1421.89 L1528.97 1382.13 L1535.21 1382.13 L1535.21 1429.65 L1526.55 1429.65 L1505.48 1389.9 L1505.48 1429.65 L1499.25 1429.65 L1499.25 1382.13 Z" fill="#000000" fill-rule="nonzero" fill-opacity="1" /><polyline clip-path="url(#clip492)" style="stroke:#000000; stroke-linecap:round; stroke-linejoin:round; stroke-width:2; stroke-opacity:0.1; fill:none" points="323.213,1284.79 2132.28,1284.79 "/>
<polyline clip-path="url(#clip492)" style="stroke:#000000; stroke-linecap:round; stroke-linejoin:round; stroke-width:2; stroke-opacity:0.1; fill:none" points="323.213,1080.54 2132.28,1080.54 "/>
<polyline clip-path="url(#clip492)" style="stroke:#000000; stroke-linecap:round; stroke-linejoin:round; stroke-width:2; stroke-opacity:0.1; fill:none" points="323.213,876.302 2132.28,876.302 "/>
<polyline clip-path="url(#clip492)" style="stroke:#000000; stroke-linecap:round; stroke-linejoin:round; stroke-width:2; stroke-opacity:0.1; fill:none" points="323.213,672.059 2132.28,672.059 "/>
<polyline clip-path="url(#clip492)" style="stroke:#000000; stroke-linecap:round; stroke-linejoin:round; stroke-width:2; stroke-opacity:0.1; fill:none" points="323.213,467.816 2132.28,467.816 "/>
<polyline clip-path="url(#clip490)" style="stroke:#000000; stroke-linecap:round; stroke-linejoin:round; stroke-width:4; stroke-opacity:1; fill:none" points="323.213,1284.79 323.213,283.465 "/>
<polyline clip-path="url(#clip490)" style="stroke:#000000; stroke-linecap:round; stroke-linejoin:round; stroke-width:4; stroke-opacity:1; fill:none" points="323.213,1284.79 342.11,1284.79 "/>
<polyline clip-path="url(#clip490)" style="stroke:#000000; stroke-linecap:round; stroke-linejoin:round; stroke-width:4; stroke-opacity:1; fill:none" points="323.213,1080.54 342.11,1080.54 "/>
<polyline clip-path="url(#clip490)" style="stroke:#000000; stroke-linecap:round; stroke-linejoin:round; stroke-width:4; stroke-opacity:1; fill:none" points="323.213,876.302 342.11,876.302 "/>
<polyline clip-path="url(#clip490)" style="stroke:#000000; stroke-linecap:round; stroke-linejoin:round; stroke-width:4; stroke-opacity:1; fill:none" points="323.213,672.059 342.11,672.059 "/>
<polyline clip-path="url(#clip490)" style="stroke:#000000; stroke-linecap:round; stroke-linejoin:round; stroke-width:4; stroke-opacity:1; fill:none" points="323.213,467.816 342.11,467.816 "/>
<path clip-path="url(#clip490)" d="M275.268 1270.59 Q271.657 1270.59 269.828 1274.15 Q268.023 1277.69 268.023 1284.82 Q268.023 1291.93 269.828 1295.49 Q271.657 1299.04 275.268 1299.04 Q278.902 1299.04 280.708 1295.49 Q282.537 1291.93 282.537 1284.82 Q282.537 1277.69 280.708 1274.15 Q278.902 1270.59 275.268 1270.59 M275.268 1266.88 Q281.078 1266.88 284.134 1271.49 Q287.213 1276.07 287.213 1284.82 Q287.213 1293.55 284.134 1298.16 Q281.078 1302.74 275.268 1302.74 Q269.458 1302.74 266.379 1298.16 Q263.324 1293.55 263.324 1284.82 Q263.324 1276.07 266.379 1271.49 Q269.458 1266.88 275.268 1266.88 Z" fill="#000000" fill-rule="nonzero" fill-opacity="1" /><path clip-path="url(#clip490)" d="M266.31 1063.26 L284.666 1063.26 L284.666 1067.2 L270.592 1067.2 L270.592 1075.67 Q271.611 1075.32 272.629 1075.16 Q273.648 1074.98 274.666 1074.98 Q280.453 1074.98 283.833 1078.15 Q287.213 1081.32 287.213 1086.74 Q287.213 1092.32 283.74 1095.42 Q280.268 1098.5 273.949 1098.5 Q271.773 1098.5 269.504 1098.13 Q267.259 1097.76 264.852 1097.01 L264.852 1092.32 Q266.935 1093.45 269.157 1094.01 Q271.379 1094.56 273.856 1094.56 Q277.861 1094.56 280.199 1092.45 Q282.537 1090.35 282.537 1086.74 Q282.537 1083.13 280.199 1081.02 Q277.861 1078.91 273.856 1078.91 Q271.981 1078.91 270.106 1079.33 Q268.254 1079.75 266.31 1080.63 L266.31 1063.26 Z" fill="#000000" fill-rule="nonzero" fill-opacity="1" /><path clip-path="url(#clip490)" d="M235.917 889.646 L243.555 889.646 L243.555 863.281 L235.245 864.947 L235.245 860.688 L243.509 859.022 L248.185 859.022 L248.185 889.646 L255.824 889.646 L255.824 893.582 L235.917 893.582 L235.917 889.646 Z" fill="#000000" fill-rule="nonzero" fill-opacity="1" /><path clip-path="url(#clip490)" d="M275.268 862.1 Q271.657 862.1 269.828 865.665 Q268.023 869.207 268.023 876.336 Q268.023 883.443 269.828 887.007 Q271.657 890.549 275.268 890.549 Q278.902 890.549 280.708 887.007 Q282.537 883.443 282.537 876.336 Q282.537 869.207 280.708 865.665 Q278.902 862.1 275.268 862.1 M275.268 858.397 Q281.078 858.397 284.134 863.003 Q287.213 867.586 287.213 876.336 Q287.213 885.063 284.134 889.669 Q281.078 894.253 275.268 894.253 Q269.458 894.253 266.379 889.669 Q263.324 885.063 263.324 876.336 Q263.324 867.586 266.379 863.003 Q269.458 858.397 275.268 858.397 Z" fill="#000000" fill-rule="nonzero" fill-opacity="1" /><path clip-path="url(#clip490)" d="M236.912 685.403 L244.551 685.403 L244.551 659.038 L236.241 660.704 L236.241 656.445 L244.504 654.779 L249.18 654.779 L249.18 685.403 L256.819 685.403 L256.819 689.339 L236.912 689.339 L236.912 685.403 Z" fill="#000000" fill-rule="nonzero" fill-opacity="1" /><path clip-path="url(#clip490)" d="M266.31 654.779 L284.666 654.779 L284.666 658.714 L270.592 658.714 L270.592 667.186 Q271.611 666.839 272.629 666.677 Q273.648 666.491 274.666 666.491 Q280.453 666.491 283.833 669.663 Q287.213 672.834 287.213 678.251 Q287.213 683.829 283.74 686.931 Q280.268 690.01 273.949 690.01 Q271.773 690.01 269.504 689.639 Q267.259 689.269 264.852 688.528 L264.852 683.829 Q266.935 684.964 269.157 685.519 Q271.379 686.075 273.856 686.075 Q277.861 686.075 280.199 683.968 Q282.537 681.862 282.537 678.251 Q282.537 674.64 280.199 672.533 Q277.861 670.427 273.856 670.427 Q271.981 670.427 270.106 670.843 Q268.254 671.26 266.31 672.14 L266.31 654.779 Z" fill="#000000" fill-rule="nonzero" fill-opacity="1" /><path clip-path="url(#clip490)" d="M239.134 481.16 L255.454 481.16 L255.454 485.096 L233.509 485.096 L233.509 481.16 Q236.171 478.406 240.755 473.776 Q245.361 469.123 246.542 467.781 Q248.787 465.258 249.667 463.522 Q250.569 461.762 250.569 460.073 Q250.569 457.318 248.625 455.582 Q246.704 453.846 243.602 453.846 Q241.403 453.846 238.949 454.61 Q236.518 455.374 233.741 456.924 L233.741 452.202 Q236.565 451.068 239.018 450.489 Q241.472 449.911 243.509 449.911 Q248.879 449.911 252.074 452.596 Q255.268 455.281 255.268 459.772 Q255.268 461.901 254.458 463.823 Q253.671 465.721 251.565 468.313 Q250.986 468.985 247.884 472.202 Q244.782 475.397 239.134 481.16 Z" fill="#000000" fill-rule="nonzero" fill-opacity="1" /><path clip-path="url(#clip490)" d="M275.268 453.614 Q271.657 453.614 269.828 457.179 Q268.023 460.721 268.023 467.85 Q268.023 474.957 269.828 478.522 Q271.657 482.063 275.268 482.063 Q278.902 482.063 280.708 478.522 Q282.537 474.957 282.537 467.85 Q282.537 460.721 280.708 457.179 Q278.902 453.614 275.268 453.614 M275.268 449.911 Q281.078 449.911 284.134 454.517 Q287.213 459.1 287.213 467.85 Q287.213 476.577 284.134 481.184 Q281.078 485.767 275.268 485.767 Q269.458 485.767 266.379 481.184 Q263.324 476.577 263.324 467.85 Q263.324 459.1 266.379 454.517 Q269.458 449.911 275.268 449.911 Z" fill="#000000" fill-rule="nonzero" fill-opacity="1" /><path clip-path="url(#clip490)" d="M139.393 975.957 L146.173 975.957 Q143.149 979.203 141.653 982.895 Q140.157 986.555 140.157 990.693 Q140.157 998.841 145.154 1003.17 Q150.12 1007.5 159.541 1007.5 Q168.93 1007.5 173.927 1003.17 Q178.893 998.841 178.893 990.693 Q178.893 986.555 177.397 982.895 Q175.901 979.203 172.877 975.957 L179.593 975.957 Q181.885 979.33 183.03 983.118 Q184.176 986.874 184.176 991.075 Q184.176 1001.86 177.588 1008.07 Q170.967 1014.28 159.541 1014.28 Q148.083 1014.28 141.494 1008.07 Q134.874 1001.86 134.874 991.075 Q134.874 986.81 136.02 983.054 Q137.134 979.267 139.393 975.957 Z" fill="#000000" fill-rule="nonzero" fill-opacity="1" /><path clip-path="url(#clip490)" d="M141.017 959.597 L158.873 959.597 L158.873 951.512 Q158.873 947.024 156.549 944.574 Q154.226 942.123 149.929 942.123 Q145.664 942.123 143.34 944.574 Q141.017 947.024 141.017 951.512 L141.017 959.597 M135.733 966.026 L135.733 951.512 Q135.733 943.523 139.362 939.449 Q142.958 935.343 149.929 935.343 Q156.963 935.343 160.559 939.449 Q164.156 943.523 164.156 951.512 L164.156 959.597 L183.253 959.597 L183.253 966.026 L135.733 966.026 Z" fill="#000000" fill-rule="nonzero" fill-opacity="1" /><path clip-path="url(#clip490)" d="M135.733 927.45 L135.733 920.989 L164.602 920.989 Q172.241 920.989 175.614 918.22 Q178.956 915.451 178.956 909.244 Q178.956 903.069 175.614 900.3 Q172.241 897.531 164.602 897.531 L135.733 897.531 L135.733 891.07 L165.397 891.07 Q174.691 891.07 179.434 895.685 Q184.176 900.268 184.176 909.244 Q184.176 918.251 179.434 922.867 Q174.691 927.45 165.397 927.45 L135.733 927.45 Z" fill="#000000" fill-rule="nonzero" fill-opacity="1" /><path clip-path="url(#clip490)" d="M137.484 852.748 L147.605 852.748 L147.605 840.685 L152.157 840.685 L152.157 852.748 L171.508 852.748 Q175.869 852.748 177.11 851.571 Q178.352 850.361 178.352 846.701 L178.352 840.685 L183.253 840.685 L183.253 846.701 Q183.253 853.48 180.739 856.058 Q178.192 858.637 171.508 858.637 L152.157 858.637 L152.157 862.933 L147.605 862.933 L147.605 858.637 L137.484 858.637 L137.484 852.748 Z" fill="#000000" fill-rule="nonzero" fill-opacity="1" /><path clip-path="url(#clip490)" d="M147.605 832.983 L147.605 827.126 L183.253 827.126 L183.253 832.983 L147.605 832.983 M133.728 832.983 L133.728 827.126 L141.144 827.126 L141.144 832.983 L133.728 832.983 Z" fill="#000000" fill-rule="nonzero" fill-opacity="1" /><path clip-path="url(#clip490)" d="M154.448 787.118 Q150.502 784.922 148.624 781.866 Q146.746 778.811 146.746 774.673 Q146.746 769.103 150.661 766.079 Q154.544 763.055 161.737 763.055 L183.253 763.055 L183.253 768.944 L161.928 768.944 Q156.804 768.944 154.321 770.758 Q151.838 772.572 151.838 776.296 Q151.838 780.848 154.862 783.489 Q157.886 786.131 163.106 786.131 L183.253 786.131 L183.253 792.019 L161.928 792.019 Q156.772 792.019 154.321 793.834 Q151.838 795.648 151.838 799.436 Q151.838 803.923 154.894 806.565 Q157.918 809.207 163.106 809.207 L183.253 809.207 L183.253 815.095 L147.605 815.095 L147.605 809.207 L153.143 809.207 Q149.865 807.202 148.305 804.401 Q146.746 801.6 146.746 797.749 Q146.746 793.866 148.719 791.16 Q150.693 788.423 154.448 787.118 Z" fill="#000000" fill-rule="nonzero" fill-opacity="1" /><path clip-path="url(#clip490)" d="M163.965 720.883 L166.83 720.883 L166.83 747.81 Q172.877 747.428 176.06 744.181 Q179.211 740.903 179.211 735.078 Q179.211 731.704 178.383 728.553 Q177.556 725.371 175.901 722.251 L181.439 722.251 Q182.776 725.402 183.476 728.713 Q184.176 732.023 184.176 735.428 Q184.176 743.958 179.211 748.955 Q174.246 753.921 165.779 753.921 Q157.026 753.921 151.902 749.21 Q146.746 744.468 146.746 736.447 Q146.746 729.254 151.393 725.084 Q156.008 720.883 163.965 720.883 M162.246 726.739 Q157.44 726.803 154.576 729.445 Q151.711 732.055 151.711 736.383 Q151.711 741.285 154.48 744.245 Q157.249 747.173 162.278 747.619 L162.246 726.739 Z" fill="#000000" fill-rule="nonzero" fill-opacity="1" /><path clip-path="url(#clip490)" d="M133.792 676.482 Q141.112 680.747 148.274 682.816 Q155.435 684.885 162.787 684.885 Q170.14 684.885 177.365 682.816 Q184.558 680.715 191.847 676.482 L191.847 681.574 Q184.367 686.349 177.142 688.736 Q169.917 691.091 162.787 691.091 Q155.69 691.091 148.496 688.736 Q141.303 686.381 133.792 681.574 L133.792 676.482 Z" fill="#000000" fill-rule="nonzero" fill-opacity="1" /><path clip-path="url(#clip490)" d="M154.448 637.365 Q150.502 635.168 148.624 632.113 Q146.746 629.057 146.746 624.92 Q146.746 619.35 150.661 616.326 Q154.544 613.302 161.737 613.302 L183.253 613.302 L183.253 619.191 L161.928 619.191 Q156.804 619.191 154.321 621.005 Q151.838 622.819 151.838 626.543 Q151.838 631.094 154.862 633.736 Q157.886 636.378 163.106 636.378 L183.253 636.378 L183.253 642.266 L161.928 642.266 Q156.772 642.266 154.321 644.08 Q151.838 645.895 151.838 649.682 Q151.838 654.17 154.894 656.812 Q157.918 659.454 163.106 659.454 L183.253 659.454 L183.253 665.342 L147.605 665.342 L147.605 659.454 L153.143 659.454 Q149.865 657.448 148.305 654.648 Q146.746 651.847 146.746 647.995 Q146.746 644.112 148.719 641.407 Q150.693 638.67 154.448 637.365 Z" fill="#000000" fill-rule="nonzero" fill-opacity="1" /><path clip-path="url(#clip490)" d="M148.656 578.896 L154.194 578.896 Q152.921 581.378 152.284 584.052 Q151.647 586.725 151.647 589.59 Q151.647 593.95 152.984 596.147 Q154.321 598.311 156.995 598.311 Q159.032 598.311 160.209 596.751 Q161.355 595.192 162.405 590.481 L162.851 588.476 Q164.188 582.238 166.639 579.628 Q169.058 576.986 173.418 576.986 Q178.383 576.986 181.28 580.933 Q184.176 584.848 184.176 591.723 Q184.176 594.587 183.603 597.706 Q183.062 600.794 181.948 604.231 L175.901 604.231 Q177.588 600.985 178.447 597.834 Q179.275 594.683 179.275 591.595 Q179.275 587.457 177.874 585.229 Q176.442 583.001 173.864 583.001 Q171.477 583.001 170.203 584.625 Q168.93 586.216 167.753 591.659 L167.275 593.696 Q166.129 599.139 163.774 601.558 Q161.387 603.976 157.249 603.976 Q152.22 603.976 149.483 600.412 Q146.746 596.847 146.746 590.29 Q146.746 587.044 147.223 584.179 Q147.701 581.315 148.656 578.896 Z" fill="#000000" fill-rule="nonzero" fill-opacity="1" /><path clip-path="url(#clip490)" d="M133.792 568.583 L133.792 563.491 Q141.303 558.716 148.496 556.361 Q155.69 553.974 162.787 553.974 Q169.917 553.974 177.142 556.361 Q184.367 558.716 191.847 563.491 L191.847 568.583 Q184.558 564.35 177.365 562.281 Q170.14 560.18 162.787 560.18 Q155.435 560.18 148.274 562.281 Q141.112 564.35 133.792 568.583 Z" fill="#000000" fill-rule="nonzero" fill-opacity="1" /><path clip-path="url(#clip490)" d="M1006.87 33.264 L1015.06 33.264 L1015.06 86.8575 L1044.51 86.8575 L1044.51 93.744 L1006.87 93.744 L1006.87 33.264 Z" fill="#000000" fill-rule="nonzero" fill-opacity="1" /><path clip-path="url(#clip490)" d="M1068.89 53.5995 Q1062.9 53.5995 1059.41 58.2986 Q1055.93 62.9571 1055.93 71.0994 Q1055.93 79.2418 1059.37 83.9408 Q1062.86 88.5994 1068.89 88.5994 Q1074.85 88.5994 1078.33 83.9003 Q1081.81 79.2013 1081.81 71.0994 Q1081.81 63.0381 1078.33 58.3391 Q1074.85 53.5995 1068.89 53.5995 M1068.89 47.2801 Q1078.61 47.2801 1084.16 53.5995 Q1089.71 59.9189 1089.71 71.0994 Q1089.71 82.2394 1084.16 88.5994 Q1078.61 94.9188 1068.89 94.9188 Q1059.13 94.9188 1053.58 88.5994 Q1048.07 82.2394 1048.07 71.0994 Q1048.07 59.9189 1053.58 53.5995 Q1059.13 47.2801 1068.89 47.2801 Z" fill="#000000" fill-rule="nonzero" fill-opacity="1" /><path clip-path="url(#clip490)" d="M1131.92 70.5323 Q1131.92 62.4305 1128.56 57.9745 Q1125.24 53.5185 1119.2 53.5185 Q1113.21 53.5185 1109.85 57.9745 Q1106.52 62.4305 1106.52 70.5323 Q1106.52 78.5936 1109.85 83.0496 Q1113.21 87.5056 1119.2 87.5056 Q1125.24 87.5056 1128.56 83.0496 Q1131.92 78.5936 1131.92 70.5323 M1139.38 88.1132 Q1139.38 99.6988 1134.23 105.33 Q1129.09 111.001 1118.47 111.001 Q1114.55 111.001 1111.06 110.393 Q1107.58 109.826 1104.3 108.611 L1104.3 101.36 Q1107.58 103.142 1110.78 103.993 Q1113.98 104.843 1117.3 104.843 Q1124.63 104.843 1128.28 100.995 Q1131.92 97.1873 1131.92 89.45 L1131.92 85.7637 Q1129.61 89.7741 1126.01 91.7591 Q1122.4 93.744 1117.38 93.744 Q1109.04 93.744 1103.93 87.3841 Q1098.83 81.0242 1098.83 70.5323 Q1098.83 60 1103.93 53.64 Q1109.04 47.2801 1117.38 47.2801 Q1122.4 47.2801 1126.01 49.2651 Q1129.61 51.25 1131.92 55.2604 L1131.92 48.3739 L1139.38 48.3739 L1139.38 88.1132 Z" fill="#000000" fill-rule="nonzero" fill-opacity="1" /><path clip-path="url(#clip490)" d="M1184.59 55.2604 L1184.59 30.7119 L1192.04 30.7119 L1192.04 93.744 L1184.59 93.744 L1184.59 86.9385 Q1182.24 90.9894 1178.63 92.9743 Q1175.07 94.9188 1170.04 94.9188 Q1161.82 94.9188 1156.63 88.3563 Q1151.49 81.7938 1151.49 71.0994 Q1151.49 60.4051 1156.63 53.8426 Q1161.82 47.2801 1170.04 47.2801 Q1175.07 47.2801 1178.63 49.2651 Q1182.24 51.2095 1184.59 55.2604 M1159.19 71.0994 Q1159.19 79.3228 1162.55 84.0218 Q1165.95 88.6804 1171.87 88.6804 Q1177.78 88.6804 1181.18 84.0218 Q1184.59 79.3228 1184.59 71.0994 Q1184.59 62.8761 1181.18 58.2176 Q1177.78 53.5185 1171.87 53.5185 Q1165.95 53.5185 1162.55 58.2176 Q1159.19 62.8761 1159.19 71.0994 Z" fill="#000000" fill-rule="nonzero" fill-opacity="1" /><path clip-path="url(#clip490)" d="M1246.2 69.1955 L1246.2 72.8413 L1211.93 72.8413 Q1212.42 80.5381 1216.55 84.589 Q1220.72 88.5994 1228.13 88.5994 Q1232.43 88.5994 1236.44 87.5461 Q1240.49 86.4929 1244.46 84.3864 L1244.46 91.435 Q1240.45 93.1364 1236.23 94.0276 Q1232.02 94.9188 1227.69 94.9188 Q1216.83 94.9188 1210.47 88.5994 Q1204.15 82.2799 1204.15 71.5045 Q1204.15 60.3645 1210.15 53.8426 Q1216.18 47.2801 1226.39 47.2801 Q1235.55 47.2801 1240.85 53.1944 Q1246.2 59.0683 1246.2 69.1955 M1238.75 67.008 Q1238.67 60.8912 1235.3 57.2454 Q1231.98 53.5995 1226.47 53.5995 Q1220.23 53.5995 1216.47 57.1238 Q1212.74 60.6481 1212.17 67.0485 L1238.75 67.008 Z" fill="#000000" fill-rule="nonzero" fill-opacity="1" /><path clip-path="url(#clip490)" d="M1296.15 66.3599 L1296.15 93.744 L1288.69 93.744 L1288.69 66.6029 Q1288.69 60.162 1286.18 56.9618 Q1283.67 53.7616 1278.65 53.7616 Q1272.61 53.7616 1269.13 57.6099 Q1265.64 61.4583 1265.64 68.1018 L1265.64 93.744 L1258.15 93.744 L1258.15 48.3739 L1265.64 48.3739 L1265.64 55.4224 Q1268.32 51.331 1271.92 49.3056 Q1275.57 47.2801 1280.31 47.2801 Q1288.13 47.2801 1292.14 52.1412 Q1296.15 56.9618 1296.15 66.3599 Z" fill="#000000" fill-rule="nonzero" fill-opacity="1" /><path clip-path="url(#clip490)" d="M1339.94 49.7107 L1339.94 56.7592 Q1336.78 55.1389 1333.38 54.3287 Q1329.97 53.5185 1326.33 53.5185 Q1320.78 53.5185 1317.98 55.2199 Q1315.23 56.9213 1315.23 60.324 Q1315.23 62.9166 1317.21 64.4155 Q1319.2 65.8738 1325.19 67.2106 L1327.74 67.7777 Q1335.68 69.4791 1339.01 72.5983 Q1342.37 75.677 1342.37 81.2267 Q1342.37 87.5461 1337.35 91.2324 Q1332.36 94.9188 1323.61 94.9188 Q1319.97 94.9188 1316 94.1896 Q1312.07 93.5009 1307.69 92.0831 L1307.69 84.3864 Q1311.82 86.5334 1315.83 87.6271 Q1319.85 88.6804 1323.77 88.6804 Q1329.04 88.6804 1331.88 86.898 Q1334.71 85.0751 1334.71 81.7938 Q1334.71 78.7557 1332.65 77.1353 Q1330.62 75.5149 1323.69 74.0161 L1321.1 73.4085 Q1314.17 71.9501 1311.1 68.9525 Q1308.02 65.9143 1308.02 60.6481 Q1308.02 54.2477 1312.55 50.7639 Q1317.09 47.2801 1325.44 47.2801 Q1329.57 47.2801 1333.21 47.8878 Q1336.86 48.4954 1339.94 49.7107 Z" fill="#000000" fill-rule="nonzero" fill-opacity="1" /><path clip-path="url(#clip490)" d="M1354.24 48.3739 L1361.69 48.3739 L1361.69 93.744 L1354.24 93.744 L1354.24 48.3739 M1354.24 30.7119 L1361.69 30.7119 L1361.69 40.1505 L1354.24 40.1505 L1354.24 30.7119 Z" fill="#000000" fill-rule="nonzero" fill-opacity="1" /><path clip-path="url(#clip490)" d="M1384.66 35.492 L1384.66 48.3739 L1400.01 48.3739 L1400.01 54.1667 L1384.66 54.1667 L1384.66 78.7962 Q1384.66 84.3459 1386.16 85.9258 Q1387.7 87.5056 1392.36 87.5056 L1400.01 87.5056 L1400.01 93.744 L1392.36 93.744 Q1383.73 93.744 1380.45 90.5438 Q1377.17 87.3031 1377.17 78.7962 L1377.17 54.1667 L1371.7 54.1667 L1371.7 48.3739 L1377.17 48.3739 L1377.17 35.492 L1384.66 35.492 Z" fill="#000000" fill-rule="nonzero" fill-opacity="1" /><path clip-path="url(#clip490)" d="M1428.69 97.9569 Q1425.53 106.059 1422.54 108.53 Q1419.54 111.001 1414.51 111.001 L1408.56 111.001 L1408.56 104.762 L1412.94 104.762 Q1416.01 104.762 1417.72 103.304 Q1419.42 101.846 1421.48 96.4176 L1422.82 93.0148 L1404.47 48.3739 L1412.37 48.3739 L1426.55 83.8598 L1440.72 48.3739 L1448.62 48.3739 L1428.69 97.9569 Z" fill="#000000" fill-rule="nonzero" fill-opacity="1" /><path clip-path="url(#clip490)" d="M768.477 121.513 Q763.049 130.83 760.415 139.945 Q757.782 149.059 757.782 158.417 Q757.782 167.774 760.415 176.97 Q763.089 186.125 768.477 195.401 L761.995 195.401 Q755.919 185.882 752.881 176.686 Q749.883 167.491 749.883 158.417 Q749.883 149.383 752.881 140.228 Q755.878 131.073 761.995 121.513 L768.477 121.513 Z" fill="#000000" fill-rule="nonzero" fill-opacity="1" /><path clip-path="url(#clip490)" d="M774.877 123.984 L826.04 123.984 L826.04 130.871 L804.57 130.871 L804.57 184.464 L796.347 184.464 L796.347 130.871 L774.877 130.871 L774.877 123.984 Z" fill="#000000" fill-rule="nonzero" fill-opacity="1" /><path clip-path="url(#clip490)" d="M834.588 146.791 L886.52 146.791 L886.52 153.596 L834.588 153.596 L834.588 146.791 M834.588 163.318 L886.52 163.318 L886.52 170.205 L834.588 170.205 L834.588 163.318 Z" fill="#000000" fill-rule="nonzero" fill-opacity="1" /><path clip-path="url(#clip490)" d="M905.6 177.577 L918.968 177.577 L918.968 131.438 L904.425 134.354 L904.425 126.901 L918.887 123.984 L927.07 123.984 L927.07 177.577 L940.438 177.577 L940.438 184.464 L905.6 184.464 L905.6 177.577 Z" fill="#000000" fill-rule="nonzero" fill-opacity="1" /><path clip-path="url(#clip490)" d="M974.465 129.372 Q968.146 129.372 964.946 135.61 Q961.786 141.808 961.786 154.285 Q961.786 166.721 964.946 172.959 Q968.146 179.157 974.465 179.157 Q980.825 179.157 983.985 172.959 Q987.185 166.721 987.185 154.285 Q987.185 141.808 983.985 135.61 Q980.825 129.372 974.465 129.372 M974.465 122.89 Q984.633 122.89 989.98 130.952 Q995.368 138.972 995.368 154.285 Q995.368 169.557 989.98 177.618 Q984.633 185.639 974.465 185.639 Q964.297 185.639 958.91 177.618 Q953.563 169.557 953.563 154.285 Q953.563 138.972 958.91 130.952 Q964.297 122.89 974.465 122.89 Z" fill="#000000" fill-rule="nonzero" fill-opacity="1" /><path clip-path="url(#clip490)" d="M1027.25 129.372 Q1020.93 129.372 1017.73 135.61 Q1014.57 141.808 1014.57 154.285 Q1014.57 166.721 1017.73 172.959 Q1020.93 179.157 1027.25 179.157 Q1033.61 179.157 1036.77 172.959 Q1039.97 166.721 1039.97 154.285 Q1039.97 141.808 1036.77 135.61 Q1033.61 129.372 1027.25 129.372 M1027.25 122.89 Q1037.42 122.89 1042.76 130.952 Q1048.15 138.972 1048.15 154.285 Q1048.15 169.557 1042.76 177.618 Q1037.42 185.639 1027.25 185.639 Q1017.08 185.639 1011.69 177.618 Q1006.35 169.557 1006.35 154.285 Q1006.35 138.972 1011.69 130.952 Q1017.08 122.89 1027.25 122.89 Z" fill="#000000" fill-rule="nonzero" fill-opacity="1" /><path clip-path="url(#clip490)" d="M1063.38 174.175 L1071.93 174.175 L1071.93 181.142 L1065.29 194.105 L1060.06 194.105 L1063.38 181.142 L1063.38 174.175 Z" fill="#000000" fill-rule="nonzero" fill-opacity="1" /><path clip-path="url(#clip490)" d="M1122.73 130.709 L1122.73 177.739 L1132.61 177.739 Q1145.13 177.739 1150.92 172.068 Q1156.76 166.397 1156.76 154.163 Q1156.76 142.011 1150.92 136.38 Q1145.13 130.709 1132.61 130.709 L1122.73 130.709 M1114.55 123.984 L1131.36 123.984 Q1148.94 123.984 1157.16 131.316 Q1165.38 138.608 1165.38 154.163 Q1165.38 169.8 1157.12 177.132 Q1148.86 184.464 1131.36 184.464 L1114.55 184.464 L1114.55 123.984 Z" fill="#000000" fill-rule="nonzero" fill-opacity="1" /><path clip-path="url(#clip490)" d="M1179.08 146.791 L1231.01 146.791 L1231.01 153.596 L1179.08 153.596 L1179.08 146.791 M1179.08 163.318 L1231.01 163.318 L1231.01 170.205 L1179.08 170.205 L1179.08 163.318 Z" fill="#000000" fill-rule="nonzero" fill-opacity="1" /><path clip-path="url(#clip490)" d="M1250.09 177.577 L1263.46 177.577 L1263.46 131.438 L1248.91 134.354 L1248.91 126.901 L1263.38 123.984 L1271.56 123.984 L1271.56 177.577 L1284.93 177.577 L1284.93 184.464 L1250.09 184.464 L1250.09 177.577 Z" fill="#000000" fill-rule="nonzero" fill-opacity="1" /><path clip-path="url(#clip490)" d="M1318.95 129.372 Q1312.63 129.372 1309.43 135.61 Q1306.27 141.808 1306.27 154.285 Q1306.27 166.721 1309.43 172.959 Q1312.63 179.157 1318.95 179.157 Q1325.31 179.157 1328.47 172.959 Q1331.67 166.721 1331.67 154.285 Q1331.67 141.808 1328.47 135.61 Q1325.31 129.372 1318.95 129.372 M1318.95 122.89 Q1329.12 122.89 1334.47 130.952 Q1339.86 138.972 1339.86 154.285 Q1339.86 169.557 1334.47 177.618 Q1329.12 185.639 1318.95 185.639 Q1308.79 185.639 1303.4 177.618 Q1298.05 169.557 1298.05 154.285 Q1298.05 138.972 1303.4 130.952 Q1308.79 122.89 1318.95 122.89 Z" fill="#000000" fill-rule="nonzero" fill-opacity="1" /><path clip-path="url(#clip490)" d="M1355.09 174.175 L1363.64 174.175 L1363.64 181.142 L1356.99 194.105 L1351.77 194.105 L1355.09 181.142 L1355.09 174.175 Z" fill="#000000" fill-rule="nonzero" fill-opacity="1" /><path clip-path="url(#clip490)" d="M1406.25 123.984 L1414.43 123.984 L1414.43 149.545 L1441.58 123.984 L1452.11 123.984 L1422.09 152.178 L1454.25 184.464 L1443.48 184.464 L1414.43 155.338 L1414.43 184.464 L1406.25 184.464 L1406.25 123.984 Z" fill="#000000" fill-rule="nonzero" fill-opacity="1" /><path clip-path="url(#clip490)" d="M1461.3 146.791 L1513.24 146.791 L1513.24 153.596 L1461.3 153.596 L1461.3 146.791 M1461.3 163.318 L1513.24 163.318 L1513.24 170.205 L1461.3 170.205 L1461.3 163.318 Z" fill="#000000" fill-rule="nonzero" fill-opacity="1" /><path clip-path="url(#clip490)" d="M1532.32 177.577 L1545.68 177.577 L1545.68 131.438 L1531.14 134.354 L1531.14 126.901 L1545.6 123.984 L1553.79 123.984 L1553.79 177.577 L1567.15 177.577 L1567.15 184.464 L1532.32 184.464 L1532.32 177.577 Z" fill="#000000" fill-rule="nonzero" fill-opacity="1" /><path clip-path="url(#clip490)" d="M1601.18 129.372 Q1594.86 129.372 1591.66 135.61 Q1588.5 141.808 1588.5 154.285 Q1588.5 166.721 1591.66 172.959 Q1594.86 179.157 1601.18 179.157 Q1607.54 179.157 1610.7 172.959 Q1613.9 166.721 1613.9 154.285 Q1613.9 141.808 1610.7 135.61 Q1607.54 129.372 1601.18 129.372 M1601.18 122.89 Q1611.35 122.89 1616.7 130.952 Q1622.08 138.972 1622.08 154.285 Q1622.08 169.557 1616.7 177.618 Q1611.35 185.639 1601.18 185.639 Q1591.01 185.639 1585.63 177.618 Q1580.28 169.557 1580.28 154.285 Q1580.28 138.972 1585.63 130.952 Q1591.01 122.89 1601.18 122.89 Z" fill="#000000" fill-rule="nonzero" fill-opacity="1" /><path clip-path="url(#clip490)" d="M1653.96 129.372 Q1647.64 129.372 1644.44 135.61 Q1641.28 141.808 1641.28 154.285 Q1641.28 166.721 1644.44 172.959 Q1647.64 179.157 1653.96 179.157 Q1660.32 179.157 1663.48 172.959 Q1666.68 166.721 1666.68 154.285 Q1666.68 141.808 1663.48 135.61 Q1660.32 129.372 1653.96 129.372 M1653.96 122.89 Q1664.13 122.89 1669.48 130.952 Q1674.87 138.972 1674.87 154.285 Q1674.87 169.557 1669.48 177.618 Q1664.13 185.639 1653.96 185.639 Q1643.8 185.639 1638.41 177.618 Q1633.06 169.557 1633.06 154.285 Q1633.06 138.972 1638.41 130.952 Q1643.8 122.89 1653.96 122.89 Z" fill="#000000" fill-rule="nonzero" fill-opacity="1" /><path clip-path="url(#clip490)" d="M1687.02 121.513 L1693.5 121.513 Q1699.58 131.073 1702.57 140.228 Q1705.61 149.383 1705.61 158.417 Q1705.61 167.491 1702.57 176.686 Q1699.58 185.882 1693.5 195.401 L1687.02 195.401 Q1692.41 186.125 1695.04 176.97 Q1697.71 167.774 1697.71 158.417 Q1697.71 149.059 1695.04 139.945 Q1692.41 130.83 1687.02 121.513 Z" fill="#000000" fill-rule="nonzero" fill-opacity="1" /><polyline clip-path="url(#clip492)" style="stroke:#0000ff; stroke-linecap:round; stroke-linejoin:round; stroke-width:6; stroke-opacity:1; fill:none" points="405.443,1212.22 734.365,1135.06 1063.29,1053.15 1392.21,977.739 1721.13,889.931 2050.05,808.838 "/>
<circle clip-path="url(#clip492)" cx="405.443" cy="1212.22" r="14.4" fill="#0000ff" fill-rule="evenodd" fill-opacity="1" stroke="#000000" stroke-opacity="1" stroke-width="3.2"/>
<circle clip-path="url(#clip492)" cx="734.365" cy="1135.06" r="14.4" fill="#0000ff" fill-rule="evenodd" fill-opacity="1" stroke="#000000" stroke-opacity="1" stroke-width="3.2"/>
<circle clip-path="url(#clip492)" cx="1063.29" cy="1053.15" r="14.4" fill="#0000ff" fill-rule="evenodd" fill-opacity="1" stroke="#000000" stroke-opacity="1" stroke-width="3.2"/>
<circle clip-path="url(#clip492)" cx="1392.21" cy="977.739" r="14.4" fill="#0000ff" fill-rule="evenodd" fill-opacity="1" stroke="#000000" stroke-opacity="1" stroke-width="3.2"/>
<circle clip-path="url(#clip492)" cx="1721.13" cy="889.931" r="14.4" fill="#0000ff" fill-rule="evenodd" fill-opacity="1" stroke="#000000" stroke-opacity="1" stroke-width="3.2"/>
<circle clip-path="url(#clip492)" cx="2050.05" cy="808.838" r="14.4" fill="#0000ff" fill-rule="evenodd" fill-opacity="1" stroke="#000000" stroke-opacity="1" stroke-width="3.2"/>
<polyline clip-path="url(#clip492)" style="stroke:#008000; stroke-linecap:round; stroke-linejoin:round; stroke-width:6; stroke-opacity:1; fill:none" points="405.443,1057.29 734.365,935.902 1063.29,802.78 1392.21,657.889 1721.13,486.504 2050.05,283.465 "/>
<path clip-path="url(#clip492)" d="M421.443 1041.29 L389.443 1041.29 L405.443 1073.29 L421.443 1041.29 Z" fill="#008000" fill-rule="evenodd" fill-opacity="1" stroke="#000000" stroke-opacity="1" stroke-width="3.2"/>
<path clip-path="url(#clip492)" d="M750.365 919.902 L718.365 919.902 L734.365 951.902 L750.365 919.902 Z" fill="#008000" fill-rule="evenodd" fill-opacity="1" stroke="#000000" stroke-opacity="1" stroke-width="3.2"/>
<path clip-path="url(#clip492)" d="M1079.29 786.78 L1047.29 786.78 L1063.29 818.78 L1079.29 786.78 Z" fill="#008000" fill-rule="evenodd" fill-opacity="1" stroke="#000000" stroke-opacity="1" stroke-width="3.2"/>
<path clip-path="url(#clip492)" d="M1408.21 641.889 L1376.21 641.889 L1392.21 673.889 L1408.21 641.889 Z" fill="#008000" fill-rule="evenodd" fill-opacity="1" stroke="#000000" stroke-opacity="1" stroke-width="3.2"/>
<path clip-path="url(#clip492)" d="M1737.13 470.504 L1705.13 470.504 L1721.13 502.504 L1737.13 470.504 Z" fill="#008000" fill-rule="evenodd" fill-opacity="1" stroke="#000000" stroke-opacity="1" stroke-width="3.2"/>
<polyline clip-path="url(#clip492)" style="stroke:#ff0000; stroke-linecap:round; stroke-linejoin:round; stroke-width:6; stroke-opacity:1; fill:none" points="405.443,1105.05 734.365,1039.81 1063.29,975.104 1392.21,897.099 1721.13,849.462 2050.05,762.262 "/>
<path clip-path="url(#clip492)" d="M405.443 1089.05 L389.443 1121.05 L421.443 1121.05 L405.443 1089.05 Z" fill="#ff0000" fill-rule="evenodd" fill-opacity="1" stroke="#000000" stroke-opacity="1" stroke-width="3.2"/>
<path clip-path="url(#clip492)" d="M734.365 1023.81 L718.365 1055.81 L750.365 1055.81 L734.365 1023.81 Z" fill="#ff0000" fill-rule="evenodd" fill-opacity="1" stroke="#000000" stroke-opacity="1" stroke-width="3.2"/>
<path clip-path="url(#clip492)" d="M1063.29 959.104 L1047.29 991.104 L1079.29 991.104 L1063.29 959.104 Z" fill="#ff0000" fill-rule="evenodd" fill-opacity="1" stroke="#000000" stroke-opacity="1" stroke-width="3.2"/>
<path clip-path="url(#clip492)" d="M1392.21 881.099 L1376.21 913.099 L1408.21 913.099 L1392.21 881.099 Z" fill="#ff0000" fill-rule="evenodd" fill-opacity="1" stroke="#000000" stroke-opacity="1" stroke-width="3.2"/>
<path clip-path="url(#clip492)" d="M1721.13 833.462 L1705.13 865.462 L1737.13 865.462 L1721.13 833.462 Z" fill="#ff0000" fill-rule="evenodd" fill-opacity="1" stroke="#000000" stroke-opacity="1" stroke-width="3.2"/>
<path clip-path="url(#clip492)" d="M2050.05 746.262 L2034.05 778.262 L2066.05 778.262 L2050.05 746.262 Z" fill="#ff0000" fill-rule="evenodd" fill-opacity="1" stroke="#000000" stroke-opacity="1" stroke-width="3.2"/>
<path clip-path="url(#clip490)" d="M383.515 524.202 L1151.73 524.202 L1151.73 316.842 L383.515 316.842  Z" fill="#ffffff" fill-rule="evenodd" fill-opacity="1"/>
<polyline clip-path="url(#clip490)" style="stroke:#000000; stroke-linecap:round; stroke-linejoin:round; stroke-width:4; stroke-opacity:1; fill:none" points="383.515,524.202 1151.73,524.202 1151.73,316.842 383.515,316.842 383.515,524.202 "/>
<polyline clip-path="url(#clip490)" style="stroke:#0000ff; stroke-linecap:round; stroke-linejoin:round; stroke-width:6; stroke-opacity:1; fill:none" points="403.616,368.682 524.22,368.682 "/>
<circle clip-path="url(#clip490)" cx="463.918" cy="368.682" r="16.7507" fill="#0000ff" fill-rule="evenodd" fill-opacity="1" stroke="#000000" stroke-opacity="1" stroke-width="4.55111"/>
<path clip-path="url(#clip490)" d="M544.321 351.402 L548.997 351.402 L548.997 365.569 L565.988 365.569 L565.988 351.402 L570.664 351.402 L570.664 385.962 L565.988 385.962 L565.988 369.504 L548.997 369.504 L548.997 385.962 L544.321 385.962 L544.321 351.402 Z" fill="#000000" fill-rule="nonzero" fill-opacity="1" /><path clip-path="url(#clip490)" d="M579.969 351.402 L586.937 351.402 L595.756 374.92 L604.622 351.402 L611.589 351.402 L611.589 385.962 L607.029 385.962 L607.029 355.615 L598.117 379.319 L593.418 379.319 L584.506 355.615 L584.506 385.962 L579.969 385.962 L579.969 351.402 Z" fill="#000000" fill-rule="nonzero" fill-opacity="1" /><path clip-path="url(#clip490)" d="M620.872 351.402 L627.839 351.402 L636.659 374.92 L645.524 351.402 L652.492 351.402 L652.492 385.962 L647.932 385.962 L647.932 355.615 L639.02 379.319 L634.321 379.319 L625.409 355.615 L625.409 385.962 L620.872 385.962 L620.872 351.402 Z" fill="#000000" fill-rule="nonzero" fill-opacity="1" /><path clip-path="url(#clip490)" d="M678.117 360.8 L678.117 364.828 Q676.311 363.902 674.367 363.439 Q672.422 362.976 670.339 362.976 Q667.168 362.976 665.571 363.948 Q663.997 364.92 663.997 366.865 Q663.997 368.346 665.131 369.203 Q666.265 370.036 669.691 370.8 L671.149 371.124 Q675.686 372.096 677.584 373.879 Q679.506 375.638 679.506 378.809 Q679.506 382.42 676.635 384.527 Q673.788 386.633 668.788 386.633 Q666.705 386.633 664.436 386.217 Q662.191 385.823 659.691 385.013 L659.691 380.615 Q662.052 381.842 664.344 382.467 Q666.635 383.068 668.881 383.068 Q671.89 383.068 673.51 382.05 Q675.131 381.008 675.131 379.133 Q675.131 377.397 673.95 376.471 Q672.793 375.545 668.834 374.689 L667.353 374.342 Q663.395 373.508 661.635 371.795 Q659.876 370.059 659.876 367.05 Q659.876 363.393 662.469 361.402 Q665.061 359.411 669.83 359.411 Q672.191 359.411 674.274 359.758 Q676.358 360.106 678.117 360.8 Z" fill="#000000" fill-rule="nonzero" fill-opacity="1" /><path clip-path="url(#clip490)" d="M686.89 380.082 L691.774 380.082 L691.774 385.962 L686.89 385.962 L686.89 380.082 Z" fill="#000000" fill-rule="nonzero" fill-opacity="1" /><path clip-path="url(#clip490)" d="M701.357 360.036 L705.617 360.036 L705.617 386.425 Q705.617 391.379 703.719 393.601 Q701.844 395.823 697.654 395.823 L696.033 395.823 L696.033 392.212 L697.168 392.212 Q699.598 392.212 700.478 391.078 Q701.357 389.967 701.357 386.425 L701.357 360.036 M701.357 349.944 L705.617 349.944 L705.617 355.337 L701.357 355.337 L701.357 349.944 Z" fill="#000000" fill-rule="nonzero" fill-opacity="1" /><path clip-path="url(#clip490)" d="M714.529 349.944 L718.788 349.944 L718.788 385.962 L714.529 385.962 L714.529 349.944 Z" fill="#000000" fill-rule="nonzero" fill-opacity="1" /><polyline clip-path="url(#clip490)" style="stroke:#008000; stroke-linecap:round; stroke-linejoin:round; stroke-width:6; stroke-opacity:1; fill:none" points="403.616,420.522 524.22,420.522 "/>
<path clip-path="url(#clip490)" d="M482.53 401.91 L445.306 401.91 L463.918 439.134 L482.53 401.91 Z" fill="#008000" fill-rule="evenodd" fill-opacity="1" stroke="#000000" stroke-opacity="1" stroke-width="4.55111"/>
<path clip-path="url(#clip490)" d="M566.034 422.154 L566.034 437.802 L561.775 437.802 L561.775 422.293 Q561.775 418.612 560.34 416.784 Q558.905 414.955 556.034 414.955 Q552.585 414.955 550.594 417.154 Q548.604 419.353 548.604 423.149 L548.604 437.802 L544.321 437.802 L544.321 401.784 L548.604 401.784 L548.604 415.904 Q550.131 413.566 552.192 412.409 Q554.275 411.251 556.983 411.251 Q561.451 411.251 563.742 414.029 Q566.034 416.784 566.034 422.154 Z" fill="#000000" fill-rule="nonzero" fill-opacity="1" /><path clip-path="url(#clip490)" d="M594.715 416.853 Q596.312 413.983 598.534 412.617 Q600.756 411.251 603.765 411.251 Q607.816 411.251 610.015 414.098 Q612.214 416.922 612.214 422.154 L612.214 437.802 L607.932 437.802 L607.932 422.293 Q607.932 418.566 606.613 416.76 Q605.293 414.955 602.585 414.955 Q599.275 414.955 597.353 417.154 Q595.432 419.353 595.432 423.149 L595.432 437.802 L591.15 437.802 L591.15 422.293 Q591.15 418.543 589.83 416.76 Q588.511 414.955 585.756 414.955 Q582.492 414.955 580.571 417.177 Q578.65 419.376 578.65 423.149 L578.65 437.802 L574.367 437.802 L574.367 411.876 L578.65 411.876 L578.65 415.904 Q580.108 413.52 582.145 412.385 Q584.182 411.251 586.983 411.251 Q589.807 411.251 591.775 412.686 Q593.765 414.122 594.715 416.853 Z" fill="#000000" fill-rule="nonzero" fill-opacity="1" /><path clip-path="url(#clip490)" d="M640.895 416.853 Q642.492 413.983 644.714 412.617 Q646.936 411.251 649.946 411.251 Q653.997 411.251 656.196 414.098 Q658.395 416.922 658.395 422.154 L658.395 437.802 L654.112 437.802 L654.112 422.293 Q654.112 418.566 652.793 416.76 Q651.473 414.955 648.765 414.955 Q645.455 414.955 643.534 417.154 Q641.612 419.353 641.612 423.149 L641.612 437.802 L637.33 437.802 L637.33 422.293 Q637.33 418.543 636.011 416.76 Q634.691 414.955 631.937 414.955 Q628.673 414.955 626.751 417.177 Q624.83 419.376 624.83 423.149 L624.83 437.802 L620.548 437.802 L620.548 411.876 L624.83 411.876 L624.83 415.904 Q626.288 413.52 628.325 412.385 Q630.362 411.251 633.163 411.251 Q635.987 411.251 637.955 412.686 Q639.946 414.122 640.895 416.853 Z" fill="#000000" fill-rule="nonzero" fill-opacity="1" /><path clip-path="url(#clip490)" d="M666.89 401.784 L671.149 401.784 L671.149 437.802 L666.89 437.802 L666.89 401.784 Z" fill="#000000" fill-rule="nonzero" fill-opacity="1" /><path clip-path="url(#clip490)" d="M702.237 423.774 L702.237 425.858 L682.654 425.858 Q682.932 430.256 685.293 432.571 Q687.677 434.862 691.913 434.862 Q694.367 434.862 696.658 434.26 Q698.973 433.658 701.242 432.455 L701.242 436.483 Q698.95 437.455 696.543 437.964 Q694.135 438.473 691.658 438.473 Q685.455 438.473 681.821 434.862 Q678.209 431.251 678.209 425.094 Q678.209 418.728 681.635 415.001 Q685.084 411.251 690.918 411.251 Q696.149 411.251 699.182 414.631 Q702.237 417.987 702.237 423.774 M697.978 422.524 Q697.932 419.029 696.01 416.946 Q694.112 414.862 690.964 414.862 Q687.399 414.862 685.246 416.876 Q683.117 418.89 682.793 422.547 L697.978 422.524 Z" fill="#000000" fill-rule="nonzero" fill-opacity="1" /><path clip-path="url(#clip490)" d="M721.01 424.77 Q715.848 424.77 713.857 425.95 Q711.867 427.131 711.867 429.978 Q711.867 432.246 713.348 433.589 Q714.853 434.908 717.422 434.908 Q720.964 434.908 723.093 432.409 Q725.246 429.885 725.246 425.719 L725.246 424.77 L721.01 424.77 M729.505 423.01 L729.505 437.802 L725.246 437.802 L725.246 433.867 Q723.788 436.228 721.612 437.362 Q719.436 438.473 716.288 438.473 Q712.306 438.473 709.945 436.251 Q707.607 434.006 707.607 430.256 Q707.607 425.881 710.524 423.659 Q713.464 421.436 719.274 421.436 L725.246 421.436 L725.246 421.02 Q725.246 418.08 723.302 416.483 Q721.38 414.862 717.885 414.862 Q715.663 414.862 713.556 415.395 Q711.45 415.927 709.506 416.992 L709.506 413.057 Q711.844 412.154 714.043 411.714 Q716.242 411.251 718.325 411.251 Q723.95 411.251 726.728 414.168 Q729.505 417.085 729.505 423.01 Z" fill="#000000" fill-rule="nonzero" fill-opacity="1" /><path clip-path="url(#clip490)" d="M753.302 415.858 Q752.584 415.441 751.728 415.256 Q750.894 415.047 749.876 415.047 Q746.265 415.047 744.32 417.409 Q742.399 419.747 742.399 424.145 L742.399 437.802 L738.117 437.802 L738.117 411.876 L742.399 411.876 L742.399 415.904 Q743.741 413.543 745.894 412.409 Q748.047 411.251 751.126 411.251 Q751.566 411.251 752.098 411.321 Q752.63 411.367 753.278 411.483 L753.302 415.858 Z" fill="#000000" fill-rule="nonzero" fill-opacity="1" /><path clip-path="url(#clip490)" d="M778.487 422.154 L778.487 437.802 L774.227 437.802 L774.227 422.293 Q774.227 418.612 772.792 416.784 Q771.357 414.955 768.487 414.955 Q765.038 414.955 763.047 417.154 Q761.056 419.353 761.056 423.149 L761.056 437.802 L756.774 437.802 L756.774 411.876 L761.056 411.876 L761.056 415.904 Q762.584 413.566 764.644 412.409 Q766.727 411.251 769.436 411.251 Q773.903 411.251 776.195 414.029 Q778.487 416.784 778.487 422.154 Z" fill="#000000" fill-rule="nonzero" fill-opacity="1" /><path clip-path="url(#clip490)" d="M801.658 401.784 L811.473 401.784 L811.473 405.094 L805.917 405.094 L805.917 440.742 L811.473 440.742 L811.473 444.052 L801.658 444.052 L801.658 401.784 Z" fill="#000000" fill-rule="nonzero" fill-opacity="1" /><path clip-path="url(#clip490)" d="M818.394 422.918 L830.871 422.918 L830.871 426.714 L818.394 426.714 L818.394 422.918 Z" fill="#000000" fill-rule="nonzero" fill-opacity="1" /><path clip-path="url(#clip490)" d="M848.255 406.321 Q844.644 406.321 842.815 409.885 Q841.009 413.427 841.009 420.557 Q841.009 427.663 842.815 431.228 Q844.644 434.77 848.255 434.77 Q851.889 434.77 853.695 431.228 Q855.523 427.663 855.523 420.557 Q855.523 413.427 853.695 409.885 Q851.889 406.321 848.255 406.321 M848.255 402.617 Q854.065 402.617 857.121 407.223 Q860.199 411.807 860.199 420.557 Q860.199 429.284 857.121 433.89 Q854.065 438.473 848.255 438.473 Q842.445 438.473 839.366 433.89 Q836.31 429.284 836.31 420.557 Q836.31 411.807 839.366 407.223 Q842.445 402.617 848.255 402.617 Z" fill="#000000" fill-rule="nonzero" fill-opacity="1" /><path clip-path="url(#clip490)" d="M868.417 431.922 L873.301 431.922 L873.301 437.802 L868.417 437.802 L868.417 431.922 Z" fill="#000000" fill-rule="nonzero" fill-opacity="1" /><path clip-path="url(#clip490)" d="M884.296 433.867 L891.935 433.867 L891.935 407.501 L883.625 409.168 L883.625 404.909 L891.889 403.242 L896.565 403.242 L896.565 433.867 L904.204 433.867 L904.204 437.802 L884.296 437.802 L884.296 433.867 Z" fill="#000000" fill-rule="nonzero" fill-opacity="1" /><path clip-path="url(#clip490)" d="M913.787 437.084 L913.787 432.825 Q915.546 433.658 917.352 434.098 Q919.157 434.538 920.893 434.538 Q925.523 434.538 927.953 431.436 Q930.407 428.311 930.754 421.969 Q929.412 423.959 927.352 425.024 Q925.291 426.089 922.791 426.089 Q917.606 426.089 914.574 422.964 Q911.565 419.816 911.565 414.376 Q911.565 409.052 914.713 405.835 Q917.861 402.617 923.092 402.617 Q929.088 402.617 932.236 407.223 Q935.407 411.807 935.407 420.557 Q935.407 428.728 931.518 433.612 Q927.653 438.473 921.102 438.473 Q919.342 438.473 917.537 438.126 Q915.731 437.779 913.787 437.084 M923.092 422.432 Q926.241 422.432 928.069 420.279 Q929.921 418.126 929.921 414.376 Q929.921 410.649 928.069 408.497 Q926.241 406.321 923.092 406.321 Q919.944 406.321 918.092 408.497 Q916.264 410.649 916.264 414.376 Q916.264 418.126 918.092 420.279 Q919.944 422.432 923.092 422.432 Z" fill="#000000" fill-rule="nonzero" fill-opacity="1" /><path clip-path="url(#clip490)" d="M944.62 433.867 L952.259 433.867 L952.259 407.501 L943.949 409.168 L943.949 404.909 L952.213 403.242 L956.888 403.242 L956.888 433.867 L964.527 433.867 L964.527 437.802 L944.62 437.802 L944.62 433.867 Z" fill="#000000" fill-rule="nonzero" fill-opacity="1" /><path clip-path="url(#clip490)" d="M993.555 416.853 Q995.152 413.983 997.374 412.617 Q999.597 411.251 1002.61 411.251 Q1006.66 411.251 1008.86 414.098 Q1011.05 416.922 1011.05 422.154 L1011.05 437.802 L1006.77 437.802 L1006.77 422.293 Q1006.77 418.566 1005.45 416.76 Q1004.13 414.955 1001.43 414.955 Q998.115 414.955 996.194 417.154 Q994.273 419.353 994.273 423.149 L994.273 437.802 L989.99 437.802 L989.99 422.293 Q989.99 418.543 988.671 416.76 Q987.351 414.955 984.597 414.955 Q981.333 414.955 979.412 417.177 Q977.49 419.376 977.49 423.149 L977.49 437.802 L973.208 437.802 L973.208 411.876 L977.49 411.876 L977.49 415.904 Q978.949 413.52 980.986 412.385 Q983.023 411.251 985.824 411.251 Q988.648 411.251 990.615 412.686 Q992.606 414.122 993.555 416.853 Z" fill="#000000" fill-rule="nonzero" fill-opacity="1" /><path clip-path="url(#clip490)" d="M1036.08 412.64 L1036.08 416.668 Q1034.27 415.742 1032.33 415.279 Q1030.38 414.816 1028.3 414.816 Q1025.13 414.816 1023.53 415.788 Q1021.96 416.76 1021.96 418.705 Q1021.96 420.186 1023.09 421.043 Q1024.23 421.876 1027.65 422.64 L1029.11 422.964 Q1033.65 423.936 1035.55 425.719 Q1037.47 427.478 1037.47 430.649 Q1037.47 434.26 1034.6 436.367 Q1031.75 438.473 1026.75 438.473 Q1024.67 438.473 1022.4 438.057 Q1020.15 437.663 1017.65 436.853 L1017.65 432.455 Q1020.01 433.682 1022.3 434.307 Q1024.6 434.908 1026.84 434.908 Q1029.85 434.908 1031.47 433.89 Q1033.09 432.848 1033.09 430.973 Q1033.09 429.237 1031.91 428.311 Q1030.75 427.385 1026.8 426.529 L1025.31 426.182 Q1021.36 425.348 1019.6 423.635 Q1017.84 421.899 1017.84 418.89 Q1017.84 415.233 1020.43 413.242 Q1023.02 411.251 1027.79 411.251 Q1030.15 411.251 1032.24 411.598 Q1034.32 411.946 1036.08 412.64 Z" fill="#000000" fill-rule="nonzero" fill-opacity="1" /><path clip-path="url(#clip490)" d="M1054.2 401.784 L1054.2 444.052 L1044.39 444.052 L1044.39 440.742 L1049.92 440.742 L1049.92 405.094 L1044.39 405.094 L1044.39 401.784 L1054.2 401.784 Z" fill="#000000" fill-rule="nonzero" fill-opacity="1" /><polyline clip-path="url(#clip490)" style="stroke:#ff0000; stroke-linecap:round; stroke-linejoin:round; stroke-width:6; stroke-opacity:1; fill:none" points="403.616,472.362 524.22,472.362 "/>
<path clip-path="url(#clip490)" d="M463.918 453.75 L445.306 490.974 L482.53 490.974 L463.918 453.75 Z" fill="#ff0000" fill-rule="evenodd" fill-opacity="1" stroke="#000000" stroke-opacity="1" stroke-width="4.55111"/>
<path clip-path="url(#clip490)" d="M548.604 485.753 L548.604 499.503 L544.321 499.503 L544.321 463.716 L548.604 463.716 L548.604 467.651 Q549.946 465.337 551.983 464.225 Q554.043 463.091 556.891 463.091 Q561.613 463.091 564.553 466.841 Q567.516 470.591 567.516 476.702 Q567.516 482.813 564.553 486.563 Q561.613 490.313 556.891 490.313 Q554.043 490.313 551.983 489.202 Q549.946 488.068 548.604 485.753 M563.094 476.702 Q563.094 472.003 561.15 469.341 Q559.229 466.656 555.849 466.656 Q552.469 466.656 550.525 469.341 Q548.604 472.003 548.604 476.702 Q548.604 481.401 550.525 484.086 Q552.469 486.748 555.849 486.748 Q559.229 486.748 561.15 484.086 Q563.094 481.401 563.094 476.702 Z" fill="#000000" fill-rule="nonzero" fill-opacity="1" /><path clip-path="url(#clip490)" d="M584.622 466.702 Q581.196 466.702 579.205 469.387 Q577.215 472.049 577.215 476.702 Q577.215 481.355 579.182 484.04 Q581.173 486.702 584.622 486.702 Q588.025 486.702 590.015 484.017 Q592.006 481.332 592.006 476.702 Q592.006 472.096 590.015 469.411 Q588.025 466.702 584.622 466.702 M584.622 463.091 Q590.177 463.091 593.349 466.702 Q596.52 470.313 596.52 476.702 Q596.52 483.068 593.349 486.702 Q590.177 490.313 584.622 490.313 Q579.043 490.313 575.872 486.702 Q572.724 483.068 572.724 476.702 Q572.724 470.313 575.872 466.702 Q579.043 463.091 584.622 463.091 Z" fill="#000000" fill-rule="nonzero" fill-opacity="1" /><path clip-path="url(#clip490)" d="M623.765 468.693 Q625.362 465.823 627.585 464.457 Q629.807 463.091 632.816 463.091 Q636.867 463.091 639.066 465.938 Q641.265 468.762 641.265 473.994 L641.265 489.642 L636.983 489.642 L636.983 474.133 Q636.983 470.406 635.663 468.6 Q634.344 466.795 631.636 466.795 Q628.325 466.795 626.404 468.994 Q624.483 471.193 624.483 474.989 L624.483 489.642 L620.2 489.642 L620.2 474.133 Q620.2 470.383 618.881 468.6 Q617.562 466.795 614.807 466.795 Q611.543 466.795 609.622 469.017 Q607.701 471.216 607.701 474.989 L607.701 489.642 L603.418 489.642 L603.418 463.716 L607.701 463.716 L607.701 467.744 Q609.159 465.36 611.196 464.225 Q613.233 463.091 616.034 463.091 Q618.858 463.091 620.825 464.526 Q622.816 465.962 623.765 468.693 Z" fill="#000000" fill-rule="nonzero" fill-opacity="1" /><path clip-path="url(#clip490)" d="M671.936 475.614 L671.936 477.698 L652.353 477.698 Q652.631 482.096 654.992 484.411 Q657.376 486.702 661.612 486.702 Q664.066 486.702 666.358 486.1 Q668.672 485.498 670.941 484.295 L670.941 488.323 Q668.649 489.295 666.242 489.804 Q663.835 490.313 661.358 490.313 Q655.154 490.313 651.52 486.702 Q647.909 483.091 647.909 476.934 Q647.909 470.568 651.335 466.841 Q654.784 463.091 660.617 463.091 Q665.848 463.091 668.881 466.471 Q671.936 469.827 671.936 475.614 M667.677 474.364 Q667.631 470.869 665.709 468.786 Q663.811 466.702 660.663 466.702 Q657.098 466.702 654.946 468.716 Q652.816 470.73 652.492 474.387 L667.677 474.364 Z" fill="#000000" fill-rule="nonzero" fill-opacity="1" /><path clip-path="url(#clip490)" d="M695.987 476.378 Q695.987 471.749 694.066 469.202 Q692.168 466.656 688.719 466.656 Q685.293 466.656 683.371 469.202 Q681.473 471.749 681.473 476.378 Q681.473 480.985 683.371 483.531 Q685.293 486.077 688.719 486.077 Q692.168 486.077 694.066 483.531 Q695.987 480.985 695.987 476.378 M700.246 486.424 Q700.246 493.045 697.307 496.262 Q694.367 499.503 688.302 499.503 Q686.057 499.503 684.066 499.156 Q682.075 498.832 680.2 498.137 L680.2 493.994 Q682.075 495.012 683.904 495.498 Q685.733 495.985 687.631 495.985 Q691.82 495.985 693.904 493.785 Q695.987 491.61 695.987 487.188 L695.987 485.082 Q694.668 487.373 692.608 488.508 Q690.547 489.642 687.677 489.642 Q682.908 489.642 679.992 486.008 Q677.075 482.374 677.075 476.378 Q677.075 470.36 679.992 466.725 Q682.908 463.091 687.677 463.091 Q690.547 463.091 692.608 464.225 Q694.668 465.36 695.987 467.651 L695.987 463.716 L700.246 463.716 L700.246 486.424 Z" fill="#000000" fill-rule="nonzero" fill-opacity="1" /><path clip-path="url(#clip490)" d="M724.043 467.698 Q723.325 467.281 722.468 467.096 Q721.635 466.887 720.617 466.887 Q717.006 466.887 715.061 469.249 Q713.14 471.587 713.14 475.985 L713.14 489.642 L708.857 489.642 L708.857 463.716 L713.14 463.716 L713.14 467.744 Q714.482 465.383 716.635 464.249 Q718.788 463.091 721.867 463.091 Q722.306 463.091 722.839 463.161 Q723.371 463.207 724.019 463.323 L724.043 467.698 Z" fill="#000000" fill-rule="nonzero" fill-opacity="1" /><path clip-path="url(#clip490)" d="M740.292 476.61 Q735.13 476.61 733.14 477.79 Q731.149 478.971 731.149 481.818 Q731.149 484.086 732.63 485.429 Q734.135 486.748 736.704 486.748 Q740.246 486.748 742.376 484.249 Q744.529 481.725 744.529 477.559 L744.529 476.61 L740.292 476.61 M748.788 474.85 L748.788 489.642 L744.529 489.642 L744.529 485.707 Q743.07 488.068 740.894 489.202 Q738.718 490.313 735.57 490.313 Q731.589 490.313 729.228 488.091 Q726.89 485.846 726.89 482.096 Q726.89 477.721 729.806 475.499 Q732.746 473.276 738.556 473.276 L744.529 473.276 L744.529 472.86 Q744.529 469.92 742.584 468.323 Q740.663 466.702 737.167 466.702 Q734.945 466.702 732.839 467.235 Q730.732 467.767 728.788 468.832 L728.788 464.897 Q731.126 463.994 733.325 463.554 Q735.524 463.091 737.607 463.091 Q743.232 463.091 746.01 466.008 Q748.788 468.925 748.788 474.85 Z" fill="#000000" fill-rule="nonzero" fill-opacity="1" /><path clip-path="url(#clip490)" d="M779.112 473.994 L779.112 489.642 L774.852 489.642 L774.852 474.133 Q774.852 470.452 773.417 468.624 Q771.982 466.795 769.112 466.795 Q765.663 466.795 763.672 468.994 Q761.681 471.193 761.681 474.989 L761.681 489.642 L757.399 489.642 L757.399 463.716 L761.681 463.716 L761.681 467.744 Q763.209 465.406 765.269 464.249 Q767.352 463.091 770.061 463.091 Q774.528 463.091 776.82 465.869 Q779.112 468.624 779.112 473.994 Z" fill="#000000" fill-rule="nonzero" fill-opacity="1" /><path clip-path="url(#clip490)" d="M799.389 476.61 Q794.227 476.61 792.237 477.79 Q790.246 478.971 790.246 481.818 Q790.246 484.086 791.727 485.429 Q793.232 486.748 795.801 486.748 Q799.343 486.748 801.473 484.249 Q803.625 481.725 803.625 477.559 L803.625 476.61 L799.389 476.61 M807.885 474.85 L807.885 489.642 L803.625 489.642 L803.625 485.707 Q802.167 488.068 799.991 489.202 Q797.815 490.313 794.667 490.313 Q790.686 490.313 788.325 488.091 Q785.987 485.846 785.987 482.096 Q785.987 477.721 788.903 475.499 Q791.843 473.276 797.653 473.276 L803.625 473.276 L803.625 472.86 Q803.625 469.92 801.681 468.323 Q799.76 466.702 796.264 466.702 Q794.042 466.702 791.936 467.235 Q789.829 467.767 787.885 468.832 L787.885 464.897 Q790.223 463.994 792.422 463.554 Q794.621 463.091 796.704 463.091 Q802.329 463.091 805.107 466.008 Q807.885 468.925 807.885 474.85 Z" fill="#000000" fill-rule="nonzero" fill-opacity="1" /><path clip-path="url(#clip490)" d="M820.871 456.355 L820.871 463.716 L829.644 463.716 L829.644 467.026 L820.871 467.026 L820.871 481.1 Q820.871 484.272 821.727 485.174 Q822.607 486.077 825.269 486.077 L829.644 486.077 L829.644 489.642 L825.269 489.642 Q820.338 489.642 818.463 487.813 Q816.588 485.961 816.588 481.1 L816.588 467.026 L813.463 467.026 L813.463 463.716 L816.588 463.716 L816.588 456.355 L820.871 456.355 Z" fill="#000000" fill-rule="nonzero" fill-opacity="1" /><path clip-path="url(#clip490)" d="M857.421 475.614 L857.421 477.698 L837.838 477.698 Q838.116 482.096 840.477 484.411 Q842.861 486.702 847.097 486.702 Q849.551 486.702 851.843 486.1 Q854.158 485.498 856.426 484.295 L856.426 488.323 Q854.134 489.295 851.727 489.804 Q849.32 490.313 846.843 490.313 Q840.639 490.313 837.005 486.702 Q833.394 483.091 833.394 476.934 Q833.394 470.568 836.82 466.841 Q840.269 463.091 846.102 463.091 Q851.334 463.091 854.366 466.471 Q857.421 469.827 857.421 475.614 M853.162 474.364 Q853.116 470.869 851.195 468.786 Q849.296 466.702 846.148 466.702 Q842.584 466.702 840.431 468.716 Q838.301 470.73 837.977 474.387 L853.162 474.364 Z" fill="#000000" fill-rule="nonzero" fill-opacity="1" /><path clip-path="url(#clip490)" d="M879.088 453.624 L888.903 453.624 L888.903 456.934 L883.347 456.934 L883.347 492.582 L888.903 492.582 L888.903 495.892 L879.088 495.892 L879.088 453.624 Z" fill="#000000" fill-rule="nonzero" fill-opacity="1" /><path clip-path="url(#clip490)" d="M895.824 474.758 L908.301 474.758 L908.301 478.554 L895.824 478.554 L895.824 474.758 Z" fill="#000000" fill-rule="nonzero" fill-opacity="1" /><path clip-path="url(#clip490)" d="M925.685 458.161 Q922.074 458.161 920.245 461.725 Q918.44 465.267 918.44 472.397 Q918.44 479.503 920.245 483.068 Q922.074 486.61 925.685 486.61 Q929.319 486.61 931.125 483.068 Q932.953 479.503 932.953 472.397 Q932.953 465.267 931.125 461.725 Q929.319 458.161 925.685 458.161 M925.685 454.457 Q931.495 454.457 934.551 459.063 Q937.629 463.647 937.629 472.397 Q937.629 481.124 934.551 485.73 Q931.495 490.313 925.685 490.313 Q919.875 490.313 916.796 485.73 Q913.741 481.124 913.741 472.397 Q913.741 463.647 916.796 459.063 Q919.875 454.457 925.685 454.457 Z" fill="#000000" fill-rule="nonzero" fill-opacity="1" /><path clip-path="url(#clip490)" d="M945.847 483.762 L950.731 483.762 L950.731 489.642 L945.847 489.642 L945.847 483.762 Z" fill="#000000" fill-rule="nonzero" fill-opacity="1" /><path clip-path="url(#clip490)" d="M970.916 473.23 Q967.583 473.23 965.662 475.012 Q963.763 476.795 963.763 479.92 Q963.763 483.045 965.662 484.827 Q967.583 486.61 970.916 486.61 Q974.25 486.61 976.171 484.827 Q978.092 483.022 978.092 479.92 Q978.092 476.795 976.171 475.012 Q974.273 473.23 970.916 473.23 M966.24 471.239 Q963.231 470.499 961.541 468.438 Q959.875 466.378 959.875 463.415 Q959.875 459.272 962.814 456.864 Q965.777 454.457 970.916 454.457 Q976.078 454.457 979.018 456.864 Q981.958 459.272 981.958 463.415 Q981.958 466.378 980.268 468.438 Q978.601 470.499 975.615 471.239 Q978.995 472.026 980.87 474.318 Q982.768 476.61 982.768 479.92 Q982.768 484.943 979.689 487.628 Q976.634 490.313 970.916 490.313 Q965.199 490.313 962.12 487.628 Q959.064 484.943 959.064 479.92 Q959.064 476.61 960.963 474.318 Q962.861 472.026 966.24 471.239 M964.527 463.855 Q964.527 466.54 966.194 468.045 Q967.884 469.55 970.916 469.55 Q973.925 469.55 975.615 468.045 Q977.328 466.54 977.328 463.855 Q977.328 461.17 975.615 459.665 Q973.925 458.161 970.916 458.161 Q967.884 458.161 966.194 459.665 Q964.527 461.17 964.527 463.855 Z" fill="#000000" fill-rule="nonzero" fill-opacity="1" /><path clip-path="url(#clip490)" d="M991.124 455.082 L1009.48 455.082 L1009.48 459.017 L995.407 459.017 L995.407 467.489 Q996.425 467.142 997.444 466.98 Q998.462 466.795 999.481 466.795 Q1005.27 466.795 1008.65 469.966 Q1012.03 473.137 1012.03 478.554 Q1012.03 484.133 1008.55 487.235 Q1005.08 490.313 998.763 490.313 Q996.587 490.313 994.319 489.943 Q992.073 489.573 989.666 488.832 L989.666 484.133 Q991.749 485.267 993.972 485.823 Q996.194 486.378 998.671 486.378 Q1002.68 486.378 1005.01 484.272 Q1007.35 482.165 1007.35 478.554 Q1007.35 474.943 1005.01 472.837 Q1002.68 470.73 998.671 470.73 Q996.796 470.73 994.921 471.147 Q993.069 471.563 991.124 472.443 L991.124 455.082 Z" fill="#000000" fill-rule="nonzero" fill-opacity="1" /><path clip-path="url(#clip490)" d="M1025.27 485.707 L1041.59 485.707 L1041.59 489.642 L1019.64 489.642 L1019.64 485.707 Q1022.3 482.952 1026.89 478.323 Q1031.49 473.67 1032.68 472.327 Q1034.92 469.804 1035.8 468.068 Q1036.7 466.309 1036.7 464.619 Q1036.7 461.864 1034.76 460.128 Q1032.84 458.392 1029.74 458.392 Q1027.54 458.392 1025.08 459.156 Q1022.65 459.92 1019.87 461.471 L1019.87 456.749 Q1022.7 455.614 1025.15 455.036 Q1027.61 454.457 1029.64 454.457 Q1035.01 454.457 1038.21 457.142 Q1041.4 459.827 1041.4 464.318 Q1041.4 466.448 1040.59 468.369 Q1039.8 470.267 1037.7 472.86 Q1037.12 473.531 1034.02 476.749 Q1030.92 479.943 1025.27 485.707 Z" fill="#000000" fill-rule="nonzero" fill-opacity="1" /><path clip-path="url(#clip490)" d="M1070.99 468.693 Q1072.58 465.823 1074.8 464.457 Q1077.03 463.091 1080.04 463.091 Q1084.09 463.091 1086.29 465.938 Q1088.49 468.762 1088.49 473.994 L1088.49 489.642 L1084.2 489.642 L1084.2 474.133 Q1084.2 470.406 1082.88 468.6 Q1081.56 466.795 1078.86 466.795 Q1075.55 466.795 1073.62 468.994 Q1071.7 471.193 1071.7 474.989 L1071.7 489.642 L1067.42 489.642 L1067.42 474.133 Q1067.42 470.383 1066.1 468.6 Q1064.78 466.795 1062.03 466.795 Q1058.76 466.795 1056.84 469.017 Q1054.92 471.216 1054.92 474.989 L1054.92 489.642 L1050.64 489.642 L1050.64 463.716 L1054.92 463.716 L1054.92 467.744 Q1056.38 465.36 1058.42 464.225 Q1060.45 463.091 1063.25 463.091 Q1066.08 463.091 1068.05 464.526 Q1070.04 465.962 1070.99 468.693 Z" fill="#000000" fill-rule="nonzero" fill-opacity="1" /><path clip-path="url(#clip490)" d="M1113.51 464.48 L1113.51 468.508 Q1111.7 467.582 1109.76 467.119 Q1107.81 466.656 1105.73 466.656 Q1102.56 466.656 1100.96 467.628 Q1099.39 468.6 1099.39 470.545 Q1099.39 472.026 1100.52 472.883 Q1101.66 473.716 1105.08 474.48 L1106.54 474.804 Q1111.08 475.776 1112.98 477.559 Q1114.9 479.318 1114.9 482.489 Q1114.9 486.1 1112.03 488.207 Q1109.18 490.313 1104.18 490.313 Q1102.1 490.313 1099.83 489.897 Q1097.58 489.503 1095.08 488.693 L1095.08 484.295 Q1097.44 485.522 1099.73 486.147 Q1102.03 486.748 1104.27 486.748 Q1107.28 486.748 1108.9 485.73 Q1110.52 484.688 1110.52 482.813 Q1110.52 481.077 1109.34 480.151 Q1108.18 479.225 1104.23 478.369 L1102.74 478.022 Q1098.79 477.188 1097.03 475.475 Q1095.27 473.739 1095.27 470.73 Q1095.27 467.073 1097.86 465.082 Q1100.45 463.091 1105.22 463.091 Q1107.58 463.091 1109.67 463.438 Q1111.75 463.786 1113.51 464.48 Z" fill="#000000" fill-rule="nonzero" fill-opacity="1" /><path clip-path="url(#clip490)" d="M1131.63 453.624 L1131.63 495.892 L1121.82 495.892 L1121.82 492.582 L1127.35 492.582 L1127.35 456.934 L1121.82 456.934 L1121.82 453.624 L1131.63 453.624 Z" fill="#000000" fill-rule="nonzero" fill-opacity="1" /></svg>
