<?xml version="1.0" encoding="utf-8"?>
<svg xmlns="http://www.w3.org/2000/svg" xmlns:xlink="http://www.w3.org/1999/xlink" width="600" height="400" viewBox="0 0 2400 1600">
<defs>
  <clipPath id="clip350">
    <rect x="0" y="0" width="2400" height="1600"/>
  </clipPath>
</defs>
<path clip-path="url(#clip350)" d="M0 1600 L2400 1600 L2400 0 L0 0  Z" fill="#ffffff" fill-rule="evenodd" fill-opacity="1"/>
<defs>
  <clipPath id="clip351">
    <rect x="480" y="0" width="1681" height="1600"/>
  </clipPath>
</defs>
<path clip-path="url(#clip350)" d="M323.213 1284.79 L2132.28 1284.79 L2132.28 283.465 L323.213 283.465  Z" fill="#ffffff" fill-rule="evenodd" fill-opacity="1"/>
<defs>
  <clipPath id="clip352">
    <rect x="323" y="283" width="1810" height="1002"/>
  </clipPath>
</defs>
<polyline clip-path="url(#clip352)" style="stroke:#000000; stroke-linecap:round; stroke-linejoin:round; stroke-width:2; stroke-opacity:0.1; fill:none" points="685.027,1284.79 685.027,283.465 "/>
<polyline clip-path="url(#clip352)" style="stroke:#000000; stroke-linecap:round; stroke-linejoin:round; stroke-width:2; stroke-opacity:0.1; fill:none" points="1137.29,1284.79 1137.29,283.465 "/>
<polyline clip-path="url(#clip352)" style="stroke:#000000; stroke-linecap:round; stroke-linejoin:round; stroke-width:2; stroke-opacity:0.1; fill:none" points="1589.56,1284.79 1589.56,283.465 "/>
<polyline clip-path="url(#clip352)" style="stroke:#000000; stroke-linecap:round; stroke-linejoin:round; stroke-width:2; stroke-opacity:0.1; fill:none" points="2041.83,1284.79 2041.83,283.465 "/>
<polyline clip-path="url(#clip350)" style="stroke:#000000; stroke-linecap:round; stroke-linejoin:round; stroke-width:4; stroke-opacity:1; fill:none" points="323.213,1284.79 2132.28,1284.79 "/>
<polyline clip-path="url(#clip350)" style="stroke:#000000; stroke-linecap:round; stroke-linejoin:round; stroke-width:4; stroke-opacity:1; fill:none" points="685.027,1284.79 685.027,1265.89 "/>
<polyline clip-path="url(#clip350)" style="stroke:#000000; stroke-linecap:round; stroke-linejoin:round; stroke-width:4; stroke-opacity:1; fill:none" points="1137.29,1284.79 1137.29,1265.89 "/>
<polyline clip-path="url(#clip350)" style="stroke:#000000; stroke-linecap:round; stroke-linejoin:round; stroke-width:4; stroke-opacity:1; fill:none" points="1589.56,1284.79 1589.56,1265.89 "/>
<polyline clip-path="url(#clip350)" style="stroke:#000000; stroke-linecap:round; stroke-linejoin:round; stroke-width:4; stroke-opacity:1; fill:none" points="2041.83,1284.79 2041.83,1265.89 "/>
<path clip-path="url(#clip350)" d="M675.305 1312.63 L693.661 1312.63 L693.661 1316.56 L679.587 1316.56 L679.587 1325.03 Q680.605 1324.69 681.624 1324.53 Q682.643 1324.34 683.661 1324.34 Q689.448 1324.34 692.828 1327.51 Q696.207 1330.68 696.207 1336.1 Q696.207 1341.68 692.735 1344.78 Q689.263 1347.86 682.943 1347.86 Q680.768 1347.86 678.499 1347.49 Q676.254 1347.12 673.846 1346.38 L673.846 1341.68 Q675.93 1342.81 678.152 1343.37 Q680.374 1343.92 682.851 1343.92 Q686.855 1343.92 689.193 1341.82 Q691.531 1339.71 691.531 1336.1 Q691.531 1332.49 689.193 1330.38 Q686.855 1328.28 682.851 1328.28 Q680.976 1328.28 679.101 1328.69 Q677.249 1329.11 675.305 1329.99 L675.305 1312.63 Z" fill="#000000" fill-rule="nonzero" fill-opacity="1" /><path clip-path="url(#clip350)" d="M1111.98 1343.25 L1119.62 1343.25 L1119.62 1316.89 L1111.31 1318.55 L1111.31 1314.29 L1119.57 1312.63 L1124.25 1312.63 L1124.25 1343.25 L1131.89 1343.25 L1131.89 1347.19 L1111.98 1347.19 L1111.98 1343.25 Z" fill="#000000" fill-rule="nonzero" fill-opacity="1" /><path clip-path="url(#clip350)" d="M1151.33 1315.71 Q1147.72 1315.71 1145.89 1319.27 Q1144.09 1322.81 1144.09 1329.94 Q1144.09 1337.05 1145.89 1340.61 Q1147.72 1344.16 1151.33 1344.16 Q1154.97 1344.16 1156.77 1340.61 Q1158.6 1337.05 1158.6 1329.94 Q1158.6 1322.81 1156.77 1319.27 Q1154.97 1315.71 1151.33 1315.71 M1151.33 1312 Q1157.14 1312 1160.2 1316.61 Q1163.28 1321.19 1163.28 1329.94 Q1163.28 1338.67 1160.2 1343.28 Q1157.14 1347.86 1151.33 1347.86 Q1145.52 1347.86 1142.44 1343.28 Q1139.39 1338.67 1139.39 1329.94 Q1139.39 1321.19 1142.44 1316.61 Q1145.52 1312 1151.33 1312 Z" fill="#000000" fill-rule="nonzero" fill-opacity="1" /><path clip-path="url(#clip350)" d="M1564.75 1343.25 L1572.39 1343.25 L1572.39 1316.89 L1564.08 1318.55 L1564.08 1314.29 L1572.34 1312.63 L1577.02 1312.63 L1577.02 1343.25 L1584.65 1343.25 L1584.65 1347.19 L1564.75 1347.19 L1564.75 1343.25 Z" fill="#000000" fill-rule="nonzero" fill-opacity="1" /><path clip-path="url(#clip350)" d="M1594.15 1312.63 L1612.5 1312.63 L1612.5 1316.56 L1598.43 1316.56 L1598.43 1325.03 Q1599.45 1324.69 1600.46 1324.53 Q1601.48 1324.34 1602.5 1324.34 Q1608.29 1324.34 1611.67 1327.51 Q1615.05 1330.68 1615.05 1336.1 Q1615.05 1341.68 1611.58 1344.78 Q1608.1 1347.86 1601.78 1347.86 Q1599.61 1347.86 1597.34 1347.49 Q1595.09 1347.12 1592.69 1346.38 L1592.69 1341.68 Q1594.77 1342.81 1596.99 1343.37 Q1599.21 1343.92 1601.69 1343.92 Q1605.7 1343.92 1608.03 1341.82 Q1610.37 1339.71 1610.37 1336.1 Q1610.37 1332.49 1608.03 1330.38 Q1605.7 1328.28 1601.69 1328.28 Q1599.82 1328.28 1597.94 1328.69 Q1596.09 1329.11 1594.15 1329.99 L1594.15 1312.63 Z" fill="#000000" fill-rule="nonzero" fill-opacity="1" /><path clip-path="url(#clip350)" d="M2020.6 1343.25 L2036.92 1343.25 L2036.92 1347.19 L2014.98 1347.19 L2014.98 1343.25 Q2017.64 1340.5 2022.22 1335.87 Q2026.83 1331.22 2028.01 1329.87 Q2030.26 1327.35 2031.14 1325.61 Q2032.04 1323.85 2032.04 1322.16 Q2032.04 1319.41 2030.09 1317.67 Q2028.17 1315.94 2025.07 1315.94 Q2022.87 1315.94 2020.42 1316.7 Q2017.99 1317.47 2015.21 1319.02 L2015.21 1314.29 Q2018.03 1313.16 2020.49 1312.58 Q2022.94 1312 2024.98 1312 Q2030.35 1312 2033.54 1314.69 Q2036.74 1317.37 2036.74 1321.86 Q2036.74 1323.99 2035.93 1325.91 Q2035.14 1327.81 2033.03 1330.41 Q2032.45 1331.08 2029.35 1334.29 Q2026.25 1337.49 2020.6 1343.25 Z" fill="#000000" fill-rule="nonzero" fill-opacity="1" /><path clip-path="url(#clip350)" d="M2056.74 1315.71 Q2053.13 1315.71 2051.3 1319.27 Q2049.49 1322.81 2049.49 1329.94 Q2049.49 1337.05 2051.3 1340.61 Q2053.13 1344.16 2056.74 1344.16 Q2060.37 1344.16 2062.18 1340.61 Q2064.01 1337.05 2064.01 1329.94 Q2064.01 1322.81 2062.18 1319.27 Q2060.37 1315.71 2056.74 1315.71 M2056.74 1312 Q2062.55 1312 2065.6 1316.61 Q2068.68 1321.19 2068.68 1329.94 Q2068.68 1338.67 2065.6 1343.28 Q2062.55 1347.86 2056.74 1347.86 Q2050.93 1347.86 2047.85 1343.28 Q2044.79 1338.67 2044.79 1329.94 Q2044.79 1321.19 2047.85 1316.61 Q2050.93 1312 2056.74 1312 Z" fill="#000000" fill-rule="nonzero" fill-opacity="1" /><path clip-path="url(#clip350)" d="M950.14 1408.14 L950.14 1429.65 L944.283 1429.65 L944.283 1408.33 Q944.283 1403.27 942.31 1400.75 Q940.336 1398.24 936.39 1398.24 Q931.647 1398.24 928.91 1401.26 Q926.173 1404.28 926.173 1409.5 L926.173 1429.65 L920.284 1429.65 L920.284 1394 L926.173 1394 L926.173 1399.54 Q928.273 1396.33 931.106 1394.74 Q933.971 1393.14 937.695 1393.14 Q943.838 1393.14 946.989 1396.96 Q950.14 1400.75 950.14 1408.14 Z" fill="#000000" fill-rule="nonzero" fill-opacity="1" /><path clip-path="url(#clip350)" d="M961.216 1415.58 L961.216 1394 L967.072 1394 L967.072 1415.36 Q967.072 1420.42 969.046 1422.97 Q971.019 1425.48 974.966 1425.48 Q979.708 1425.48 982.446 1422.46 Q985.215 1419.43 985.215 1414.21 L985.215 1394 L991.071 1394 L991.071 1429.65 L985.215 1429.65 L985.215 1424.18 Q983.082 1427.42 980.249 1429.01 Q977.448 1430.57 973.725 1430.57 Q967.582 1430.57 964.399 1426.76 Q961.216 1422.94 961.216 1415.58 M975.953 1393.14 L975.953 1393.14 Z" fill="#000000" fill-rule="nonzero" fill-opacity="1" /><path clip-path="url(#clip350)" d="M1030.89 1400.85 Q1033.08 1396.9 1036.14 1395.02 Q1039.2 1393.14 1043.33 1393.14 Q1048.9 1393.14 1051.93 1397.06 Q1054.95 1400.94 1054.95 1408.14 L1054.95 1429.65 L1049.06 1429.65 L1049.06 1408.33 Q1049.06 1403.2 1047.25 1400.72 Q1045.43 1398.24 1041.71 1398.24 Q1037.16 1398.24 1034.52 1401.26 Q1031.88 1404.28 1031.88 1409.5 L1031.88 1429.65 L1025.99 1429.65 L1025.99 1408.33 Q1025.99 1403.17 1024.17 1400.72 Q1022.36 1398.24 1018.57 1398.24 Q1014.08 1398.24 1011.44 1401.29 Q1008.8 1404.32 1008.8 1409.5 L1008.8 1429.65 L1002.91 1429.65 L1002.91 1394 L1008.8 1394 L1008.8 1399.54 Q1010.8 1396.26 1013.61 1394.7 Q1016.41 1393.14 1020.26 1393.14 Q1024.14 1393.14 1026.85 1395.12 Q1029.58 1397.09 1030.89 1400.85 Z" fill="#000000" fill-rule="nonzero" fill-opacity="1" /><path clip-path="url(#clip350)" d="M1092.22 1411.86 Q1092.22 1405.4 1089.55 1401.74 Q1086.91 1398.05 1082.26 1398.05 Q1077.61 1398.05 1074.94 1401.74 Q1072.3 1405.4 1072.3 1411.86 Q1072.3 1418.32 1074.94 1422.01 Q1077.61 1425.67 1082.26 1425.67 Q1086.91 1425.67 1089.55 1422.01 Q1092.22 1418.32 1092.22 1411.86 M1072.3 1399.41 Q1074.14 1396.23 1076.94 1394.7 Q1079.78 1393.14 1083.69 1393.14 Q1090.19 1393.14 1094.23 1398.3 Q1098.3 1403.46 1098.3 1411.86 Q1098.3 1420.26 1094.23 1425.42 Q1090.19 1430.57 1083.69 1430.57 Q1079.78 1430.57 1076.94 1429.05 Q1074.14 1427.49 1072.3 1424.3 L1072.3 1429.65 L1066.41 1429.65 L1066.41 1380.13 L1072.3 1380.13 L1072.3 1399.41 Z" fill="#000000" fill-rule="nonzero" fill-opacity="1" /><path clip-path="url(#clip350)" d="M1138.5 1410.36 L1138.5 1413.23 L1111.57 1413.23 Q1111.96 1419.28 1115.2 1422.46 Q1118.48 1425.61 1124.31 1425.61 Q1127.68 1425.61 1130.83 1424.78 Q1134.01 1423.95 1137.13 1422.3 L1137.13 1427.84 Q1133.98 1429.17 1130.67 1429.87 Q1127.36 1430.57 1123.96 1430.57 Q1115.43 1430.57 1110.43 1425.61 Q1105.46 1420.64 1105.46 1412.18 Q1105.46 1403.42 1110.17 1398.3 Q1114.92 1393.14 1122.94 1393.14 Q1130.13 1393.14 1134.3 1397.79 Q1138.5 1402.41 1138.5 1410.36 M1132.64 1408.64 Q1132.58 1403.84 1129.94 1400.97 Q1127.33 1398.11 1123 1398.11 Q1118.1 1398.11 1115.14 1400.88 Q1112.21 1403.65 1111.76 1408.68 L1132.64 1408.64 Z" fill="#000000" fill-rule="nonzero" fill-opacity="1" /><path clip-path="url(#clip350)" d="M1168.77 1399.48 Q1167.78 1398.91 1166.61 1398.65 Q1165.46 1398.36 1164.06 1398.36 Q1159.09 1398.36 1156.42 1401.61 Q1153.78 1404.83 1153.78 1410.87 L1153.78 1429.65 L1147.89 1429.65 L1147.89 1394 L1153.78 1394 L1153.78 1399.54 Q1155.62 1396.3 1158.58 1394.74 Q1161.54 1393.14 1165.78 1393.14 Q1166.38 1393.14 1167.11 1393.24 Q1167.85 1393.3 1168.74 1393.46 L1168.77 1399.48 Z" fill="#000000" fill-rule="nonzero" fill-opacity="1" /><path clip-path="url(#clip350)" d="M1209.45 1398.11 Q1204.74 1398.11 1202 1401.8 Q1199.26 1405.46 1199.26 1411.86 Q1199.26 1418.26 1201.97 1421.95 Q1204.7 1425.61 1209.45 1425.61 Q1214.13 1425.61 1216.86 1421.92 Q1219.6 1418.22 1219.6 1411.86 Q1219.6 1405.53 1216.86 1401.83 Q1214.13 1398.11 1209.45 1398.11 M1209.45 1393.14 Q1217.09 1393.14 1221.45 1398.11 Q1225.81 1403.07 1225.81 1411.86 Q1225.81 1420.61 1221.45 1425.61 Q1217.09 1430.57 1209.45 1430.57 Q1201.78 1430.57 1197.42 1425.61 Q1193.09 1420.61 1193.09 1411.86 Q1193.09 1403.07 1197.42 1398.11 Q1201.78 1393.14 1209.45 1393.14 Z" fill="#000000" fill-rule="nonzero" fill-opacity="1" /><path clip-path="url(#clip350)" d="M1253.56 1380.13 L1253.56 1385 L1247.96 1385 Q1244.81 1385 1243.57 1386.27 Q1242.36 1387.54 1242.36 1390.85 L1242.36 1394 L1252 1394 L1252 1398.55 L1242.36 1398.55 L1242.36 1429.65 L1236.47 1429.65 L1236.47 1398.55 L1230.87 1398.55 L1230.87 1394 L1236.47 1394 L1236.47 1391.52 Q1236.47 1385.57 1239.24 1382.86 Q1242.01 1380.13 1248.02 1380.13 L1253.56 1380.13 Z" fill="#000000" fill-rule="nonzero" fill-opacity="1" /><path clip-path="url(#clip350)" d="M1301.91 1395.05 L1301.91 1400.59 Q1299.43 1399.32 1296.75 1398.68 Q1294.08 1398.05 1291.21 1398.05 Q1286.85 1398.05 1284.66 1399.38 Q1282.49 1400.72 1282.49 1403.39 Q1282.49 1405.43 1284.05 1406.61 Q1285.61 1407.75 1290.32 1408.8 L1292.33 1409.25 Q1298.57 1410.59 1301.18 1413.04 Q1303.82 1415.46 1303.82 1419.82 Q1303.82 1424.78 1299.87 1427.68 Q1295.96 1430.57 1289.08 1430.57 Q1286.22 1430.57 1283.1 1430 Q1280.01 1429.46 1276.57 1428.35 L1276.57 1422.3 Q1279.82 1423.99 1282.97 1424.85 Q1286.12 1425.67 1289.21 1425.67 Q1293.35 1425.67 1295.57 1424.27 Q1297.8 1422.84 1297.8 1420.26 Q1297.8 1417.87 1296.18 1416.6 Q1294.59 1415.33 1289.15 1414.15 L1287.11 1413.67 Q1281.67 1412.53 1279.25 1410.17 Q1276.83 1407.79 1276.83 1403.65 Q1276.83 1398.62 1280.39 1395.88 Q1283.96 1393.14 1290.51 1393.14 Q1293.76 1393.14 1296.62 1393.62 Q1299.49 1394.1 1301.91 1395.05 Z" fill="#000000" fill-rule="nonzero" fill-opacity="1" /><path clip-path="url(#clip350)" d="M1318.94 1383.88 L1318.94 1394 L1331 1394 L1331 1398.55 L1318.94 1398.55 L1318.94 1417.91 Q1318.94 1422.27 1320.11 1423.51 Q1321.32 1424.75 1324.98 1424.75 L1331 1424.75 L1331 1429.65 L1324.98 1429.65 Q1318.2 1429.65 1315.63 1427.14 Q1313.05 1424.59 1313.05 1417.91 L1313.05 1398.55 L1308.75 1398.55 L1308.75 1394 L1313.05 1394 L1313.05 1383.88 L1318.94 1383.88 Z" fill="#000000" fill-rule="nonzero" fill-opacity="1" /><path clip-path="url(#clip350)" d="M1354.9 1411.73 Q1347.81 1411.73 1345.07 1413.36 Q1342.33 1414.98 1342.33 1418.89 Q1342.33 1422.01 1344.37 1423.86 Q1346.44 1425.67 1349.97 1425.67 Q1354.84 1425.67 1357.77 1422.24 Q1360.73 1418.77 1360.73 1413.04 L1360.73 1411.73 L1354.9 1411.73 M1366.58 1409.31 L1366.58 1429.65 L1360.73 1429.65 L1360.73 1424.24 Q1358.72 1427.49 1355.73 1429.05 Q1352.74 1430.57 1348.41 1430.57 Q1342.94 1430.57 1339.69 1427.52 Q1336.47 1424.43 1336.47 1419.28 Q1336.47 1413.26 1340.48 1410.2 Q1344.53 1407.15 1352.52 1407.15 L1360.73 1407.15 L1360.73 1406.58 Q1360.73 1402.53 1358.05 1400.34 Q1355.41 1398.11 1350.61 1398.11 Q1347.55 1398.11 1344.65 1398.84 Q1341.76 1399.57 1339.08 1401.04 L1339.08 1395.63 Q1342.3 1394.39 1345.32 1393.78 Q1348.35 1393.14 1351.21 1393.14 Q1358.95 1393.14 1362.76 1397.15 Q1366.58 1401.16 1366.58 1409.31 Z" fill="#000000" fill-rule="nonzero" fill-opacity="1" /><path clip-path="url(#clip350)" d="M1384.44 1383.88 L1384.44 1394 L1396.5 1394 L1396.5 1398.55 L1384.44 1398.55 L1384.44 1417.91 Q1384.44 1422.27 1385.62 1423.51 Q1386.83 1424.75 1390.49 1424.75 L1396.5 1424.75 L1396.5 1429.65 L1390.49 1429.65 Q1383.71 1429.65 1381.13 1427.14 Q1378.55 1424.59 1378.55 1417.91 L1378.55 1398.55 L1374.25 1398.55 L1374.25 1394 L1378.55 1394 L1378.55 1383.88 L1384.44 1383.88 Z" fill="#000000" fill-rule="nonzero" fill-opacity="1" /><path clip-path="url(#clip350)" d="M1434.7 1410.36 L1434.7 1413.23 L1407.77 1413.23 Q1408.15 1419.28 1411.4 1422.46 Q1414.68 1425.61 1420.5 1425.61 Q1423.88 1425.61 1427.03 1424.78 Q1430.21 1423.95 1433.33 1422.3 L1433.33 1427.84 Q1430.18 1429.17 1426.87 1429.87 Q1423.56 1430.57 1420.15 1430.57 Q1411.62 1430.57 1406.62 1425.61 Q1401.66 1420.64 1401.66 1412.18 Q1401.66 1403.42 1406.37 1398.3 Q1411.11 1393.14 1419.13 1393.14 Q1426.33 1393.14 1430.5 1397.79 Q1434.7 1402.41 1434.7 1410.36 M1428.84 1408.64 Q1428.78 1403.84 1426.14 1400.97 Q1423.53 1398.11 1419.2 1398.11 Q1414.3 1398.11 1411.34 1400.88 Q1408.41 1403.65 1407.96 1408.68 L1428.84 1408.64 Z" fill="#000000" fill-rule="nonzero" fill-opacity="1" /><path clip-path="url(#clip350)" d="M1467.03 1395.05 L1467.03 1400.59 Q1464.55 1399.32 1461.88 1398.68 Q1459.21 1398.05 1456.34 1398.05 Q1451.98 1398.05 1449.78 1399.38 Q1447.62 1400.72 1447.62 1403.39 Q1447.62 1405.43 1449.18 1406.61 Q1450.74 1407.75 1455.45 1408.8 L1457.45 1409.25 Q1463.69 1410.59 1466.3 1413.04 Q1468.94 1415.46 1468.94 1419.82 Q1468.94 1424.78 1465 1427.68 Q1461.08 1430.57 1454.21 1430.57 Q1451.34 1430.57 1448.22 1430 Q1445.14 1429.46 1441.7 1428.35 L1441.7 1422.3 Q1444.95 1423.99 1448.1 1424.85 Q1451.25 1425.67 1454.34 1425.67 Q1458.47 1425.67 1460.7 1424.27 Q1462.93 1422.84 1462.93 1420.26 Q1462.93 1417.87 1461.31 1416.6 Q1459.71 1415.33 1454.27 1414.15 L1452.23 1413.67 Q1446.79 1412.53 1444.37 1410.17 Q1441.95 1407.79 1441.95 1403.65 Q1441.95 1398.62 1445.52 1395.88 Q1449.08 1393.14 1455.64 1393.14 Q1458.89 1393.14 1461.75 1393.62 Q1464.62 1394.1 1467.03 1395.05 Z" fill="#000000" fill-rule="nonzero" fill-opacity="1" /><path clip-path="url(#clip350)" d="M1499.25 1382.13 L1507.9 1382.13 L1528.97 1421.89 L1528.97 1382.13 L1535.21 1382.13 L1535.21 1429.65 L1526.55 1429.65 L1505.48 1389.9 L1505.48 1429.65 L1499.25 1429.65 L1499.25 1382.13 Z" fill="#000000" fill-rule="nonzero" fill-opacity="1" /><polyline clip-path="url(#clip352)" style="stroke:#000000; stroke-linecap:round; stroke-linejoin:round; stroke-width:2; stroke-opacity:0.1; fill:none" points="323.213,1284.79 2132.28,1284.79 "/>
<polyline clip-path="url(#clip352)" style="stroke:#000000; stroke-linecap:round; stroke-linejoin:round; stroke-width:2; stroke-opacity:0.1; fill:none" points="323.213,1095.92 2132.28,1095.92 "/>
<polyline clip-path="url(#clip352)" style="stroke:#000000; stroke-linecap:round; stroke-linejoin:round; stroke-width:2; stroke-opacity:0.1; fill:none" points="323.213,907.046 2132.28,907.046 "/>
<polyline clip-path="url(#clip352)" style="stroke:#000000; stroke-linecap:round; stroke-linejoin:round; stroke-width:2; stroke-opacity:0.1; fill:none" points="323.213,718.175 2132.28,718.175 "/>
<polyline clip-path="url(#clip352)" style="stroke:#000000; stroke-linecap:round; stroke-linejoin:round; stroke-width:2; stroke-opacity:0.1; fill:none" points="323.213,529.304 2132.28,529.304 "/>
<polyline clip-path="url(#clip352)" style="stroke:#000000; stroke-linecap:round; stroke-linejoin:round; stroke-width:2; stroke-opacity:0.1; fill:none" points="323.213,340.433 2132.28,340.433 "/>
<polyline clip-path="url(#clip350)" style="stroke:#000000; stroke-linecap:round; stroke-linejoin:round; stroke-width:4; stroke-opacity:1; fill:none" points="323.213,1284.79 323.213,283.465 "/>
<polyline clip-path="url(#clip350)" style="stroke:#000000; stroke-linecap:round; stroke-linejoin:round; stroke-width:4; stroke-opacity:1; fill:none" points="323.213,1284.79 342.11,1284.79 "/>
<polyline clip-path="url(#clip350)" style="stroke:#000000; stroke-linecap:round; stroke-linejoin:round; stroke-width:4; stroke-opacity:1; fill:none" points="323.213,1095.92 342.11,1095.92 "/>
<polyline clip-path="url(#clip350)" style="stroke:#000000; stroke-linecap:round; stroke-linejoin:round; stroke-width:4; stroke-opacity:1; fill:none" points="323.213,907.046 342.11,907.046 "/>
<polyline clip-path="url(#clip350)" style="stroke:#000000; stroke-linecap:round; stroke-linejoin:round; stroke-width:4; stroke-opacity:1; fill:none" points="323.213,718.175 342.11,718.175 "/>
<polyline clip-path="url(#clip350)" style="stroke:#000000; stroke-linecap:round; stroke-linejoin:round; stroke-width:4; stroke-opacity:1; fill:none" points="323.213,529.304 342.11,529.304 "/>
<polyline clip-path="url(#clip350)" style="stroke:#000000; stroke-linecap:round; stroke-linejoin:round; stroke-width:4; stroke-opacity:1; fill:none" points="323.213,340.433 342.11,340.433 "/>
<path clip-path="url(#clip350)" d="M275.268 1270.59 Q271.657 1270.59 269.828 1274.15 Q268.023 1277.69 268.023 1284.82 Q268.023 1291.93 269.828 1295.49 Q271.657 1299.04 275.268 1299.04 Q278.902 1299.04 280.708 1295.49 Q282.537 1291.93 282.537 1284.82 Q282.537 1277.69 280.708 1274.15 Q278.902 1270.59 275.268 1270.59 M275.268 1266.88 Q281.078 1266.88 284.134 1271.49 Q287.213 1276.07 287.213 1284.82 Q287.213 1293.55 284.134 1298.16 Q281.078 1302.74 275.268 1302.74 Q269.458 1302.74 266.379 1298.16 Q263.324 1293.55 263.324 1284.82 Q263.324 1276.07 266.379 1271.49 Q269.458 1266.88 275.268 1266.88 Z" fill="#000000" fill-rule="nonzero" fill-opacity="1" /><path clip-path="url(#clip350)" d="M266.31 1078.64 L284.666 1078.64 L284.666 1082.57 L270.592 1082.57 L270.592 1091.04 Q271.611 1090.7 272.629 1090.53 Q273.648 1090.35 274.666 1090.35 Q280.453 1090.35 283.833 1093.52 Q287.213 1096.69 287.213 1102.11 Q287.213 1107.69 283.74 1110.79 Q280.268 1113.87 273.949 1113.87 Q271.773 1113.87 269.504 1113.5 Q267.259 1113.13 264.852 1112.39 L264.852 1107.69 Q266.935 1108.82 269.157 1109.38 Q271.379 1109.93 273.856 1109.93 Q277.861 1109.93 280.199 1107.83 Q282.537 1105.72 282.537 1102.11 Q282.537 1098.5 280.199 1096.39 Q277.861 1094.28 273.856 1094.28 Q271.981 1094.28 270.106 1094.7 Q268.254 1095.12 266.31 1096 L266.31 1078.64 Z" fill="#000000" fill-rule="nonzero" fill-opacity="1" /><path clip-path="url(#clip350)" d="M235.917 920.39 L243.555 920.39 L243.555 894.025 L235.245 895.692 L235.245 891.432 L243.509 889.766 L248.185 889.766 L248.185 920.39 L255.824 920.39 L255.824 924.326 L235.917 924.326 L235.917 920.39 Z" fill="#000000" fill-rule="nonzero" fill-opacity="1" /><path clip-path="url(#clip350)" d="M275.268 892.844 Q271.657 892.844 269.828 896.409 Q268.023 899.951 268.023 907.08 Q268.023 914.187 269.828 917.752 Q271.657 921.293 275.268 921.293 Q278.902 921.293 280.708 917.752 Q282.537 914.187 282.537 907.08 Q282.537 899.951 280.708 896.409 Q278.902 892.844 275.268 892.844 M275.268 889.141 Q281.078 889.141 284.134 893.747 Q287.213 898.33 287.213 907.08 Q287.213 915.807 284.134 920.414 Q281.078 924.997 275.268 924.997 Q269.458 924.997 266.379 920.414 Q263.324 915.807 263.324 907.08 Q263.324 898.33 266.379 893.747 Q269.458 889.141 275.268 889.141 Z" fill="#000000" fill-rule="nonzero" fill-opacity="1" /><path clip-path="url(#clip350)" d="M236.912 731.52 L244.551 731.52 L244.551 705.154 L236.241 706.821 L236.241 702.561 L244.504 700.895 L249.18 700.895 L249.18 731.52 L256.819 731.52 L256.819 735.455 L236.912 735.455 L236.912 731.52 Z" fill="#000000" fill-rule="nonzero" fill-opacity="1" /><path clip-path="url(#clip350)" d="M266.31 700.895 L284.666 700.895 L284.666 704.83 L270.592 704.83 L270.592 713.302 Q271.611 712.955 272.629 712.793 Q273.648 712.608 274.666 712.608 Q280.453 712.608 283.833 715.779 Q287.213 718.95 287.213 724.367 Q287.213 729.945 283.74 733.047 Q280.268 736.126 273.949 736.126 Q271.773 736.126 269.504 735.756 Q267.259 735.385 264.852 734.645 L264.852 729.945 Q266.935 731.08 269.157 731.635 Q271.379 732.191 273.856 732.191 Q277.861 732.191 280.199 730.084 Q282.537 727.978 282.537 724.367 Q282.537 720.756 280.199 718.649 Q277.861 716.543 273.856 716.543 Q271.981 716.543 270.106 716.959 Q268.254 717.376 266.31 718.256 L266.31 700.895 Z" fill="#000000" fill-rule="nonzero" fill-opacity="1" /><path clip-path="url(#clip350)" d="M239.134 542.649 L255.454 542.649 L255.454 546.584 L233.509 546.584 L233.509 542.649 Q236.171 539.894 240.755 535.264 Q245.361 530.612 246.542 529.269 Q248.787 526.746 249.667 525.01 Q250.569 523.251 250.569 521.561 Q250.569 518.806 248.625 517.07 Q246.704 515.334 243.602 515.334 Q241.403 515.334 238.949 516.098 Q236.518 516.862 233.741 518.413 L233.741 513.69 Q236.565 512.556 239.018 511.978 Q241.472 511.399 243.509 511.399 Q248.879 511.399 252.074 514.084 Q255.268 516.769 255.268 521.26 Q255.268 523.39 254.458 525.311 Q253.671 527.209 251.565 529.802 Q250.986 530.473 247.884 533.69 Q244.782 536.885 239.134 542.649 Z" fill="#000000" fill-rule="nonzero" fill-opacity="1" /><path clip-path="url(#clip350)" d="M275.268 515.103 Q271.657 515.103 269.828 518.667 Q268.023 522.209 268.023 529.339 Q268.023 536.445 269.828 540.01 Q271.657 543.551 275.268 543.551 Q278.902 543.551 280.708 540.01 Q282.537 536.445 282.537 529.339 Q282.537 522.209 280.708 518.667 Q278.902 515.103 275.268 515.103 M275.268 511.399 Q281.078 511.399 284.134 516.005 Q287.213 520.589 287.213 529.339 Q287.213 538.065 284.134 542.672 Q281.078 547.255 275.268 547.255 Q269.458 547.255 266.379 542.672 Q263.324 538.065 263.324 529.339 Q263.324 520.589 266.379 516.005 Q269.458 511.399 275.268 511.399 Z" fill="#000000" fill-rule="nonzero" fill-opacity="1" /><path clip-path="url(#clip350)" d="M240.13 353.778 L256.449 353.778 L256.449 357.713 L234.505 357.713 L234.505 353.778 Q237.167 351.023 241.75 346.394 Q246.356 341.741 247.537 340.398 Q249.782 337.875 250.662 336.139 Q251.565 334.38 251.565 332.69 Q251.565 329.935 249.62 328.199 Q247.699 326.463 244.597 326.463 Q242.398 326.463 239.944 327.227 Q237.514 327.991 234.736 329.542 L234.736 324.82 Q237.56 323.685 240.014 323.107 Q242.467 322.528 244.504 322.528 Q249.875 322.528 253.069 325.213 Q256.264 327.898 256.264 332.389 Q256.264 334.519 255.454 336.44 Q254.666 338.338 252.56 340.931 Q251.981 341.602 248.879 344.819 Q245.778 348.014 240.13 353.778 Z" fill="#000000" fill-rule="nonzero" fill-opacity="1" /><path clip-path="url(#clip350)" d="M266.31 323.153 L284.666 323.153 L284.666 327.088 L270.592 327.088 L270.592 335.56 Q271.611 335.213 272.629 335.051 Q273.648 334.866 274.666 334.866 Q280.453 334.866 283.833 338.037 Q287.213 341.208 287.213 346.625 Q287.213 352.204 283.74 355.306 Q280.268 358.384 273.949 358.384 Q271.773 358.384 269.504 358.014 Q267.259 357.643 264.852 356.903 L264.852 352.204 Q266.935 353.338 269.157 353.894 Q271.379 354.449 273.856 354.449 Q277.861 354.449 280.199 352.343 Q282.537 350.236 282.537 346.625 Q282.537 343.014 280.199 340.907 Q277.861 338.801 273.856 338.801 Q271.981 338.801 270.106 339.218 Q268.254 339.634 266.31 340.514 L266.31 323.153 Z" fill="#000000" fill-rule="nonzero" fill-opacity="1" /><path clip-path="url(#clip350)" d="M139.393 975.957 L146.173 975.957 Q143.149 979.203 141.653 982.895 Q140.157 986.555 140.157 990.693 Q140.157 998.841 145.154 1003.17 Q150.12 1007.5 159.541 1007.5 Q168.93 1007.5 173.927 1003.17 Q178.893 998.841 178.893 990.693 Q178.893 986.555 177.397 982.895 Q175.901 979.203 172.877 975.957 L179.593 975.957 Q181.885 979.33 183.03 983.118 Q184.176 986.874 184.176 991.075 Q184.176 1001.86 177.588 1008.07 Q170.967 1014.28 159.541 1014.28 Q148.083 1014.28 141.494 1008.07 Q134.874 1001.86 134.874 991.075 Q134.874 986.81 136.02 983.054 Q137.134 979.267 139.393 975.957 Z" fill="#000000" fill-rule="nonzero" fill-opacity="1" /><path clip-path="url(#clip350)" d="M141.017 959.597 L158.873 959.597 L158.873 951.512 Q158.873 947.024 156.549 944.574 Q154.226 942.123 149.929 942.123 Q145.664 942.123 143.34 944.574 Q141.017 947.024 141.017 951.512 L141.017 959.597 M135.733 966.026 L135.733 951.512 Q135.733 943.523 139.362 939.449 Q142.958 935.343 149.929 935.343 Q156.963 935.343 160.559 939.449 Q164.156 943.523 164.156 951.512 L164.156 959.597 L183.253 959.597 L183.253 966.026 L135.733 966.026 Z" fill="#000000" fill-rule="nonzero" fill-opacity="1" /><path clip-path="url(#clip350)" d="M135.733 927.45 L135.733 920.989 L164.602 920.989 Q172.241 920.989 175.614 918.22 Q178.956 915.451 178.956 909.244 Q178.956 903.069 175.614 900.3 Q172.241 897.531 164.602 897.531 L135.733 897.531 L135.733 891.07 L165.397 891.07 Q174.691 891.07 179.434 895.685 Q184.176 900.268 184.176 909.244 Q184.176 918.251 179.434 922.867 Q174.691 927.45 165.397 927.45 L135.733 927.45 Z" fill="#000000" fill-rule="nonzero" fill-opacity="1" /><path clip-path="url(#clip350)" d="M137.484 852.748 L147.605 852.748 L147.605 840.685 L152.157 840.685 L152.157 852.748 L171.508 852.748 Q175.869 852.748 177.11 851.571 Q178.352 850.361 178.352 846.701 L178.352 840.685 L183.253 840.685 L183.253 846.701 Q183.253 853.48 180.739 856.058 Q178.192 858.637 171.508 858.637 L152.157 858.637 L152.157 862.933 L147.605 862.933 L147.605 858.637 L137.484 858.637 L137.484 852.748 Z" fill="#000000" fill-rule="nonzero" fill-opacity="1" /><path clip-path="url(#clip350)" d="M147.605 832.983 L147.605 827.126 L183.253 827.126 L183.253 832.983 L147.605 832.983 M133.728 832.983 L133.728 827.126 L141.144 827.126 L141.144 832.983 L133.728 832.983 Z" fill="#000000" fill-rule="nonzero" fill-opacity="1" /><path clip-path="url(#clip350)" d="M154.448 787.118 Q150.502 784.922 148.624 781.866 Q146.746 778.811 146.746 774.673 Q146.746 769.103 150.661 766.079 Q154.544 763.055 161.737 763.055 L183.253 763.055 L183.253 768.944 L161.928 768.944 Q156.804 768.944 154.321 770.758 Q151.838 772.572 151.838 776.296 Q151.838 780.848 154.862 783.489 Q157.886 786.131 163.106 786.131 L183.253 786.131 L183.253 792.019 L161.928 792.019 Q156.772 792.019 154.321 793.834 Q151.838 795.648 151.838 799.436 Q151.838 803.923 154.894 806.565 Q157.918 809.207 163.106 809.207 L183.253 809.207 L183.253 815.095 L147.605 815.095 L147.605 809.207 L153.143 809.207 Q149.865 807.202 148.305 804.401 Q146.746 801.6 146.746 797.749 Q146.746 793.866 148.719 791.16 Q150.693 788.423 154.448 787.118 Z" fill="#000000" fill-rule="nonzero" fill-opacity="1" /><path clip-path="url(#clip350)" d="M163.965 720.883 L166.83 720.883 L166.83 747.81 Q172.877 747.428 176.06 744.181 Q179.211 740.903 179.211 735.078 Q179.211 731.704 178.383 728.553 Q177.556 725.371 175.901 722.251 L181.439 722.251 Q182.776 725.402 183.476 728.713 Q184.176 732.023 184.176 735.428 Q184.176 743.958 179.211 748.955 Q174.246 753.921 165.779 753.921 Q157.026 753.921 151.902 749.21 Q146.746 744.468 146.746 736.447 Q146.746 729.254 151.393 725.084 Q156.008 720.883 163.965 720.883 M162.246 726.739 Q157.44 726.803 154.576 729.445 Q151.711 732.055 151.711 736.383 Q151.711 741.285 154.48 744.245 Q157.249 747.173 162.278 747.619 L162.246 726.739 Z" fill="#000000" fill-rule="nonzero" fill-opacity="1" /><path clip-path="url(#clip350)" d="M133.792 676.482 Q141.112 680.747 148.274 682.816 Q155.435 684.885 162.787 684.885 Q170.14 684.885 177.365 682.816 Q184.558 680.715 191.847 676.482 L191.847 681.574 Q184.367 686.349 177.142 688.736 Q169.917 691.091 162.787 691.091 Q155.69 691.091 148.496 688.736 Q141.303 686.381 133.792 681.574 L133.792 676.482 Z" fill="#000000" fill-rule="nonzero" fill-opacity="1" /><path clip-path="url(#clip350)" d="M154.448 637.365 Q150.502 635.168 148.624 632.113 Q146.746 629.057 146.746 624.92 Q146.746 619.35 150.661 616.326 Q154.544 613.302 161.737 613.302 L183.253 613.302 L183.253 619.191 L161.928 619.191 Q156.804 619.191 154.321 621.005 Q151.838 622.819 151.838 626.543 Q151.838 631.094 154.862 633.736 Q157.886 636.378 163.106 636.378 L183.253 636.378 L183.253 642.266 L161.928 642.266 Q156.772 642.266 154.321 644.08 Q151.838 645.895 151.838 649.682 Q151.838 654.17 154.894 656.812 Q157.918 659.454 163.106 659.454 L183.253 659.454 L183.253 665.342 L147.605 665.342 L147.605 659.454 L153.143 659.454 Q149.865 657.448 148.305 654.648 Q146.746 651.847 146.746 647.995 Q146.746 644.112 148.719 641.407 Q150.693 638.67 154.448 637.365 Z" fill="#000000" fill-rule="nonzero" fill-opacity="1" /><path clip-path="url(#clip350)" d="M148.656 578.896 L154.194 578.896 Q152.921 581.378 152.284 584.052 Q151.647 586.725 151.647 589.59 Q151.647 593.95 152.984 596.147 Q154.321 598.311 156.995 598.311 Q159.032 598.311 160.209 596.751 Q161.355 595.192 162.405 590.481 L162.851 588.476 Q164.188 582.238 166.639 579.628 Q169.058 576.986 173.418 576.986 Q178.383 576.986 181.28 580.933 Q184.176 584.848 184.176 591.723 Q184.176 594.587 183.603 597.706 Q183.062 600.794 181.948 604.231 L175.901 604.231 Q177.588 600.985 178.447 597.834 Q179.275 594.683 179.275 591.595 Q179.275 587.457 177.874 585.229 Q176.442 583.001 173.864 583.001 Q171.477 583.001 170.203 584.625 Q168.93 586.216 167.753 591.659 L167.275 593.696 Q166.129 599.139 163.774 601.558 Q161.387 603.976 157.249 603.976 Q152.22 603.976 149.483 600.412 Q146.746 596.847 146.746 590.29 Q146.746 587.044 147.223 584.179 Q147.701 581.315 148.656 578.896 Z" fill="#000000" fill-rule="nonzero" fill-opacity="1" /><path clip-path="url(#clip350)" d="M133.792 568.583 L133.792 563.491 Q141.303 558.716 148.496 556.361 Q155.69 553.974 162.787 553.974 Q169.917 553.974 177.142 556.361 Q184.367 558.716 191.847 563.491 L191.847 568.583 Q184.558 564.35 177.365 562.281 Q170.14 560.18 162.787 560.18 Q155.435 560.18 148.274 562.281 Q141.112 564.35 133.792 568.583 Z" fill="#000000" fill-rule="nonzero" fill-opacity="1" /><path clip-path="url(#clip350)" d="M1006.87 33.264 L1015.06 33.264 L1015.06 86.8575 L1044.51 86.8575 L1044.51 93.744 L1006.87 93.744 L1006.87 33.264 Z" fill="#000000" fill-rule="nonzero" fill-opacity="1" /><path clip-path="url(#clip350)" d="M1068.89 53.5995 Q1062.9 53.5995 1059.41 58.2986 Q1055.93 62.9571 1055.93 71.0994 Q1055.93 79.2418 1059.37 83.9408 Q1062.86 88.5994 1068.89 88.5994 Q1074.85 88.5994 1078.33 83.9003 Q1081.81 79.2013 1081.81 71.0994 Q1081.81 63.0381 1078.33 58.3391 Q1074.85 53.5995 1068.89 53.5995 M1068.89 47.2801 Q1078.61 47.2801 1084.16 53.5995 Q1089.71 59.9189 1089.71 71.0994 Q1089.71 82.2394 1084.16 88.5994 Q1078.61 94.9188 1068.89 94.9188 Q1059.13 94.9188 1053.58 88.5994 Q1048.07 82.2394 1048.07 71.0994 Q1048.07 59.9189 1053.58 53.5995 Q1059.13 47.2801 1068.89 47.2801 Z" fill="#000000" fill-rule="nonzero" fill-opacity="1" /><path clip-path="url(#clip350)" d="M1131.92 70.5323 Q1131.92 62.4305 1128.56 57.9745 Q1125.24 53.5185 1119.2 53.5185 Q1113.21 53.5185 1109.85 57.9745 Q1106.52 62.4305 1106.52 70.5323 Q1106.52 78.5936 1109.85 83.0496 Q1113.21 87.5056 1119.2 87.5056 Q1125.24 87.5056 1128.56 83.0496 Q1131.92 78.5936 1131.92 70.5323 M1139.38 88.1132 Q1139.38 99.6988 1134.23 105.33 Q1129.09 111.001 1118.47 111.001 Q1114.55 111.001 1111.06 110.393 Q1107.58 109.826 1104.3 108.611 L1104.3 101.36 Q1107.58 103.142 1110.78 103.993 Q1113.98 104.843 1117.3 104.843 Q1124.63 104.843 1128.28 100.995 Q1131.92 97.1873 1131.92 89.45 L1131.92 85.7637 Q1129.61 89.7741 1126.01 91.7591 Q1122.4 93.744 1117.38 93.744 Q1109.04 93.744 1103.93 87.3841 Q1098.83 81.0242 1098.83 70.5323 Q1098.83 60 1103.93 53.64 Q1109.04 47.2801 1117.38 47.2801 Q1122.4 47.2801 1126.01 49.2651 Q1129.61 51.25 1131.92 55.2604 L1131.92 48.3739 L1139.38 48.3739 L1139.38 88.1132 Z" fill="#000000" fill-rule="nonzero" fill-opacity="1" /><path clip-path="url(#clip350)" d="M1184.59 55.2604 L1184.59 30.7119 L1192.04 30.7119 L1192.04 93.744 L1184.59 93.744 L1184.59 86.9385 Q1182.24 90.9894 1178.63 92.9743 Q1175.07 94.9188 1170.04 94.9188 Q1161.82 94.9188 1156.63 88.3563 Q1151.49 81.7938 1151.49 71.0994 Q1151.49 60.4051 1156.63 53.8426 Q1161.82 47.2801 1170.04 47.2801 Q1175.07 47.2801 1178.63 49.2651 Q1182.24 51.2095 1184.59 55.2604 M1159.19 71.0994 Q1159.19 79.3228 1162.55 84.0218 Q1165.95 88.6804 1171.87 88.6804 Q1177.78 88.6804 1181.18 84.0218 Q1184.59 79.3228 1184.59 71.0994 Q1184.59 62.8761 1181.18 58.2176 Q1177.78 53.5185 1171.87 53.5185 Q1165.95 53.5185 1162.55 58.2176 Q1159.19 62.8761 1159.19 71.0994 Z" fill="#000000" fill-rule="nonzero" fill-opacity="1" /><path clip-path="url(#clip350)" d="M1246.2 69.1955 L1246.2 72.8413 L1211.93 72.8413 Q1212.42 80.5381 1216.55 84.589 Q1220.72 88.5994 1228.13 88.5994 Q1232.43 88.5994 1236.44 87.5461 Q1240.49 86.4929 1244.46 84.3864 L1244.46 91.435 Q1240.45 93.1364 1236.23 94.0276 Q1232.02 94.9188 1227.69 94.9188 Q1216.83 94.9188 1210.47 88.5994 Q1204.15 82.2799 1204.15 71.5045 Q1204.15 60.3645 1210.15 53.8426 Q1216.18 47.2801 1226.39 47.2801 Q1235.55 47.2801 1240.85 53.1944 Q1246.2 59.0683 1246.2 69.1955 M1238.75 67.008 Q1238.67 60.8912 1235.3 57.2454 Q1231.98 53.5995 1226.47 53.5995 Q1220.23 53.5995 1216.47 57.1238 Q1212.74 60.6481 1212.17 67.0485 L1238.75 67.008 Z" fill="#000000" fill-rule="nonzero" fill-opacity="1" /><path clip-path="url(#clip350)" d="M1296.15 66.3599 L1296.15 93.744 L1288.69 93.744 L1288.69 66.6029 Q1288.69 60.162 1286.18 56.9618 Q1283.67 53.7616 1278.65 53.7616 Q1272.61 53.7616 1269.13 57.6099 Q1265.64 61.4583 1265.64 68.1018 L1265.64 93.744 L1258.15 93.744 L1258.15 48.3739 L1265.64 48.3739 L1265.64 55.4224 Q1268.32 51.331 1271.92 49.3056 Q1275.57 47.2801 1280.31 47.2801 Q1288.13 47.2801 1292.14 52.1412 Q1296.15 56.9618 1296.15 66.3599 Z" fill="#000000" fill-rule="nonzero" fill-opacity="1" /><path clip-path="url(#clip350)" d="M1339.94 49.7107 L1339.94 56.7592 Q1336.78 55.1389 1333.38 54.3287 Q1329.97 53.5185 1326.33 53.5185 Q1320.78 53.5185 1317.98 55.2199 Q1315.23 56.9213 1315.23 60.324 Q1315.23 62.9166 1317.21 64.4155 Q1319.2 65.8738 1325.19 67.2106 L1327.74 67.7777 Q1335.68 69.4791 1339.01 72.5983 Q1342.37 75.677 1342.37 81.2267 Q1342.37 87.5461 1337.35 91.2324 Q1332.36 94.9188 1323.61 94.9188 Q1319.97 94.9188 1316 94.1896 Q1312.07 93.5009 1307.69 92.0831 L1307.69 84.3864 Q1311.82 86.5334 1315.83 87.6271 Q1319.85 88.6804 1323.77 88.6804 Q1329.04 88.6804 1331.88 86.898 Q1334.71 85.0751 1334.71 81.7938 Q1334.71 78.7557 1332.65 77.1353 Q1330.62 75.5149 1323.69 74.0161 L1321.1 73.4085 Q1314.17 71.9501 1311.1 68.9525 Q1308.02 65.9143 1308.02 60.6481 Q1308.02 54.2477 1312.55 50.7639 Q1317.09 47.2801 1325.44 47.2801 Q1329.57 47.2801 1333.21 47.8878 Q1336.86 48.4954 1339.94 49.7107 Z" fill="#000000" fill-rule="nonzero" fill-opacity="1" /><path clip-path="url(#clip350)" d="M1354.24 48.3739 L1361.69 48.3739 L1361.69 93.744 L1354.24 93.744 L1354.24 48.3739 M1354.24 30.7119 L1361.69 30.7119 L1361.69 40.1505 L1354.24 40.1505 L1354.24 30.7119 Z" fill="#000000" fill-rule="nonzero" fill-opacity="1" /><path clip-path="url(#clip350)" d="M1384.66 35.492 L1384.66 48.3739 L1400.01 48.3739 L1400.01 54.1667 L1384.66 54.1667 L1384.66 78.7962 Q1384.66 84.3459 1386.16 85.9258 Q1387.7 87.5056 1392.36 87.5056 L1400.01 87.5056 L1400.01 93.744 L1392.36 93.744 Q1383.73 93.744 1380.45 90.5438 Q1377.17 87.3031 1377.17 78.7962 L1377.17 54.1667 L1371.7 54.1667 L1371.7 48.3739 L1377.17 48.3739 L1377.17 35.492 L1384.66 35.492 Z" fill="#000000" fill-rule="nonzero" fill-opacity="1" /><path clip-path="url(#clip350)" d="M1428.69 97.9569 Q1425.53 106.059 1422.54 108.53 Q1419.54 111.001 1414.51 111.001 L1408.56 111.001 L1408.56 104.762 L1412.94 104.762 Q1416.01 104.762 1417.72 103.304 Q1419.42 101.846 1421.48 96.4176 L1422.82 93.0148 L1404.47 48.3739 L1412.37 48.3739 L1426.55 83.8598 L1440.72 48.3739 L1448.62 48.3739 L1428.69 97.9569 Z" fill="#000000" fill-rule="nonzero" fill-opacity="1" /><path clip-path="url(#clip350)" d="M821.24 121.513 Q815.812 130.83 813.178 139.945 Q810.545 149.059 810.545 158.417 Q810.545 167.774 813.178 176.97 Q815.852 186.125 821.24 195.401 L814.758 195.401 Q808.682 185.882 805.644 176.686 Q802.646 167.491 802.646 158.417 Q802.646 149.383 805.644 140.228 Q808.641 131.073 814.758 121.513 L821.24 121.513 Z" fill="#000000" fill-rule="nonzero" fill-opacity="1" /><path clip-path="url(#clip350)" d="M844.208 130.709 L844.208 177.739 L854.093 177.739 Q866.61 177.739 872.403 172.068 Q878.236 166.397 878.236 154.163 Q878.236 142.011 872.403 136.38 Q866.61 130.709 854.093 130.709 L844.208 130.709 M836.026 123.984 L852.837 123.984 Q870.418 123.984 878.641 131.316 Q886.864 138.608 886.864 154.163 Q886.864 169.8 878.601 177.132 Q870.337 184.464 852.837 184.464 L836.026 184.464 L836.026 123.984 Z" fill="#000000" fill-rule="nonzero" fill-opacity="1" /><path clip-path="url(#clip350)" d="M900.556 146.791 L952.489 146.791 L952.489 153.596 L900.556 153.596 L900.556 146.791 M900.556 163.318 L952.489 163.318 L952.489 170.205 L900.556 170.205 L900.556 163.318 Z" fill="#000000" fill-rule="nonzero" fill-opacity="1" /><path clip-path="url(#clip350)" d="M971.569 177.577 L984.937 177.577 L984.937 131.438 L970.394 134.354 L970.394 126.901 L984.856 123.984 L993.039 123.984 L993.039 177.577 L1006.41 177.577 L1006.41 184.464 L971.569 184.464 L971.569 177.577 Z" fill="#000000" fill-rule="nonzero" fill-opacity="1" /><path clip-path="url(#clip350)" d="M1040.43 129.372 Q1034.11 129.372 1030.91 135.61 Q1027.75 141.808 1027.75 154.285 Q1027.75 166.721 1030.91 172.959 Q1034.11 179.157 1040.43 179.157 Q1046.79 179.157 1049.95 172.959 Q1053.15 166.721 1053.15 154.285 Q1053.15 141.808 1049.95 135.61 Q1046.79 129.372 1040.43 129.372 M1040.43 122.89 Q1050.6 122.89 1055.95 130.952 Q1061.34 138.972 1061.34 154.285 Q1061.34 169.557 1055.95 177.618 Q1050.6 185.639 1040.43 185.639 Q1030.27 185.639 1024.88 177.618 Q1019.53 169.557 1019.53 154.285 Q1019.53 138.972 1024.88 130.952 Q1030.27 122.89 1040.43 122.89 Z" fill="#000000" fill-rule="nonzero" fill-opacity="1" /><path clip-path="url(#clip350)" d="M1076.57 174.175 L1085.12 174.175 L1085.12 181.142 L1078.47 194.105 L1073.25 194.105 L1076.57 181.142 L1076.57 174.175 Z" fill="#000000" fill-rule="nonzero" fill-opacity="1" /><path clip-path="url(#clip350)" d="M1092.97 123.984 L1144.14 123.984 L1144.14 130.871 L1122.67 130.871 L1122.67 184.464 L1114.44 184.464 L1114.44 130.871 L1092.97 130.871 L1092.97 123.984 Z" fill="#000000" fill-rule="nonzero" fill-opacity="1" /><path clip-path="url(#clip350)" d="M1152.68 146.791 L1204.62 146.791 L1204.62 153.596 L1152.68 153.596 L1152.68 146.791 M1152.68 163.318 L1204.62 163.318 L1204.62 170.205 L1152.68 170.205 L1152.68 163.318 Z" fill="#000000" fill-rule="nonzero" fill-opacity="1" /><path clip-path="url(#clip350)" d="M1229.33 177.577 L1257.89 177.577 L1257.89 184.464 L1219.48 184.464 L1219.48 177.577 Q1224.14 172.757 1232.16 164.655 Q1240.22 156.513 1242.29 154.163 Q1246.22 149.748 1247.76 146.71 Q1249.34 143.631 1249.34 140.674 Q1249.34 135.853 1245.94 132.815 Q1242.57 129.777 1237.15 129.777 Q1233.3 129.777 1229 131.114 Q1224.75 132.45 1219.89 135.164 L1219.89 126.901 Q1224.83 124.916 1229.13 123.903 Q1233.42 122.89 1236.98 122.89 Q1246.38 122.89 1251.97 127.589 Q1257.56 132.288 1257.56 140.147 Q1257.56 143.874 1256.14 147.236 Q1254.77 150.558 1251.08 155.095 Q1250.07 156.27 1244.64 161.9 Q1239.21 167.491 1229.33 177.577 Z" fill="#000000" fill-rule="nonzero" fill-opacity="1" /><path clip-path="url(#clip350)" d="M1292.56 129.372 Q1286.24 129.372 1283.04 135.61 Q1279.88 141.808 1279.88 154.285 Q1279.88 166.721 1283.04 172.959 Q1286.24 179.157 1292.56 179.157 Q1298.92 179.157 1302.08 172.959 Q1305.28 166.721 1305.28 154.285 Q1305.28 141.808 1302.08 135.61 Q1298.92 129.372 1292.56 129.372 M1292.56 122.89 Q1302.73 122.89 1308.08 130.952 Q1313.47 138.972 1313.47 154.285 Q1313.47 169.557 1308.08 177.618 Q1302.73 185.639 1292.56 185.639 Q1282.39 185.639 1277.01 177.618 Q1271.66 169.557 1271.66 154.285 Q1271.66 138.972 1277.01 130.952 Q1282.39 122.89 1292.56 122.89 Z" fill="#000000" fill-rule="nonzero" fill-opacity="1" /><path clip-path="url(#clip350)" d="M1345.35 129.372 Q1339.03 129.372 1335.83 135.61 Q1332.67 141.808 1332.67 154.285 Q1332.67 166.721 1335.83 172.959 Q1339.03 179.157 1345.35 179.157 Q1351.71 179.157 1354.87 172.959 Q1358.07 166.721 1358.07 154.285 Q1358.07 141.808 1354.87 135.61 Q1351.71 129.372 1345.35 129.372 M1345.35 122.89 Q1355.51 122.89 1360.86 130.952 Q1366.25 138.972 1366.25 154.285 Q1366.25 169.557 1360.86 177.618 Q1355.51 185.639 1345.35 185.639 Q1335.18 185.639 1329.79 177.618 Q1324.44 169.557 1324.44 154.285 Q1324.44 138.972 1329.79 130.952 Q1335.18 122.89 1345.35 122.89 Z" fill="#000000" fill-rule="nonzero" fill-opacity="1" /><path clip-path="url(#clip350)" d="M1381.48 174.175 L1390.03 174.175 L1390.03 181.142 L1383.38 194.105 L1378.16 194.105 L1381.48 181.142 L1381.48 174.175 Z" fill="#000000" fill-rule="nonzero" fill-opacity="1" /><path clip-path="url(#clip350)" d="M1406.27 123.984 L1414.45 123.984 L1414.45 149.545 L1441.6 123.984 L1452.13 123.984 L1422.11 152.178 L1454.27 184.464 L1443.5 184.464 L1414.45 155.338 L1414.45 184.464 L1406.27 184.464 L1406.27 123.984 Z" fill="#000000" fill-rule="nonzero" fill-opacity="1" /><path clip-path="url(#clip350)" d="M1461.32 146.791 L1513.26 146.791 L1513.26 153.596 L1461.32 153.596 L1461.32 146.791 M1461.32 163.318 L1513.26 163.318 L1513.26 170.205 L1461.32 170.205 L1461.32 163.318 Z" fill="#000000" fill-rule="nonzero" fill-opacity="1" /><path clip-path="url(#clip350)" d="M1531 123.984 L1563.12 123.984 L1563.12 130.871 L1538.49 130.871 L1538.49 145.697 Q1540.28 145.089 1542.06 144.806 Q1543.84 144.482 1545.62 144.482 Q1555.75 144.482 1561.66 150.031 Q1567.58 155.581 1567.58 165.06 Q1567.58 174.823 1561.5 180.251 Q1555.43 185.639 1544.37 185.639 Q1540.56 185.639 1536.59 184.991 Q1532.66 184.342 1528.45 183.046 L1528.45 174.823 Q1532.09 176.808 1535.98 177.78 Q1539.87 178.752 1544.2 178.752 Q1551.21 178.752 1555.3 175.066 Q1559.4 171.38 1559.4 165.06 Q1559.4 158.741 1555.3 155.054 Q1551.21 151.368 1544.2 151.368 Q1540.92 151.368 1537.64 152.097 Q1534.4 152.826 1531 154.366 L1531 123.984 Z" fill="#000000" fill-rule="nonzero" fill-opacity="1" /><path clip-path="url(#clip350)" d="M1601.2 129.372 Q1594.88 129.372 1591.68 135.61 Q1588.52 141.808 1588.52 154.285 Q1588.52 166.721 1591.68 172.959 Q1594.88 179.157 1601.2 179.157 Q1607.56 179.157 1610.72 172.959 Q1613.92 166.721 1613.92 154.285 Q1613.92 141.808 1610.72 135.61 Q1607.56 129.372 1601.2 129.372 M1601.2 122.89 Q1611.37 122.89 1616.72 130.952 Q1622.1 138.972 1622.1 154.285 Q1622.1 169.557 1616.72 177.618 Q1611.37 185.639 1601.2 185.639 Q1591.03 185.639 1585.65 177.618 Q1580.3 169.557 1580.3 154.285 Q1580.3 138.972 1585.65 130.952 Q1591.03 122.89 1601.2 122.89 Z" fill="#000000" fill-rule="nonzero" fill-opacity="1" /><path clip-path="url(#clip350)" d="M1634.26 121.513 L1640.74 121.513 Q1646.81 131.073 1649.81 140.228 Q1652.85 149.383 1652.85 158.417 Q1652.85 167.491 1649.81 176.686 Q1646.81 185.882 1640.74 195.401 L1634.26 195.401 Q1639.64 186.125 1642.28 176.97 Q1644.95 167.774 1644.95 158.417 Q1644.95 149.059 1642.28 139.945 Q1639.64 130.83 1634.26 121.513 Z" fill="#000000" fill-rule="nonzero" fill-opacity="1" /><polyline clip-path="url(#clip352)" style="stroke:#0000ff; stroke-linecap:round; stroke-linejoin:round; stroke-width:6; stroke-opacity:1; fill:none" points="413.666,1228.6 685.027,1188.32 956.387,1146.5 1227.75,1105.74 1499.11,1068.77 1770.47,1030.19 2041.83,996.955 "/>
<circle clip-path="url(#clip352)" cx="413.666" cy="1228.6" r="14.4" fill="#0000ff" fill-rule="evenodd" fill-opacity="1" stroke="#000000" stroke-opacity="1" stroke-width="3.2"/>
<circle clip-path="url(#clip352)" cx="685.027" cy="1188.32" r="14.4" fill="#0000ff" fill-rule="evenodd" fill-opacity="1" stroke="#000000" stroke-opacity="1" stroke-width="3.2"/>
<circle clip-path="url(#clip352)" cx="956.387" cy="1146.5" r="14.4" fill="#0000ff" fill-rule="evenodd" fill-opacity="1" stroke="#000000" stroke-opacity="1" stroke-width="3.2"/>
<circle clip-path="url(#clip352)" cx="1227.75" cy="1105.74" r="14.4" fill="#0000ff" fill-rule="evenodd" fill-opacity="1" stroke="#000000" stroke-opacity="1" stroke-width="3.2"/>
<circle clip-path="url(#clip352)" cx="1499.11" cy="1068.77" r="14.4" fill="#0000ff" fill-rule="evenodd" fill-opacity="1" stroke="#000000" stroke-opacity="1" stroke-width="3.2"/>
<circle clip-path="url(#clip352)" cx="1770.47" cy="1030.19" r="14.4" fill="#0000ff" fill-rule="evenodd" fill-opacity="1" stroke="#000000" stroke-opacity="1" stroke-width="3.2"/>
<circle clip-path="url(#clip352)" cx="2041.83" cy="996.955" r="14.4" fill="#0000ff" fill-rule="evenodd" fill-opacity="1" stroke="#000000" stroke-opacity="1" stroke-width="3.2"/>
<polyline clip-path="url(#clip352)" style="stroke:#008000; stroke-linecap:round; stroke-linejoin:round; stroke-width:6; stroke-opacity:1; fill:none" stroke-dasharray="24, 12, 3, 12" points="413.666,1150.94 685.027,1058.6 956.387,966.267 1227.75,865.55 1499.11,768.201 1770.47,398.934 2041.83,283.465 "/>
<path clip-path="url(#clip352)" d="M429.666 1134.94 L397.666 1134.94 L413.666 1166.94 L429.666 1134.94 Z" fill="#008000" fill-rule="evenodd" fill-opacity="1" stroke="#000000" stroke-opacity="1" stroke-width="3.2"/>
<path clip-path="url(#clip352)" d="M701.027 1042.6 L669.027 1042.6 L685.027 1074.6 L701.027 1042.6 Z" fill="#008000" fill-rule="evenodd" fill-opacity="1" stroke="#000000" stroke-opacity="1" stroke-width="3.2"/>
<path clip-path="url(#clip352)" d="M972.387 950.267 L940.387 950.267 L956.387 982.267 L972.387 950.267 Z" fill="#008000" fill-rule="evenodd" fill-opacity="1" stroke="#000000" stroke-opacity="1" stroke-width="3.2"/>
<path clip-path="url(#clip352)" d="M1243.75 849.55 L1211.75 849.55 L1227.75 881.55 L1243.75 849.55 Z" fill="#008000" fill-rule="evenodd" fill-opacity="1" stroke="#000000" stroke-opacity="1" stroke-width="3.2"/>
<path clip-path="url(#clip352)" d="M1515.11 752.201 L1483.11 752.201 L1499.11 784.201 L1515.11 752.201 Z" fill="#008000" fill-rule="evenodd" fill-opacity="1" stroke="#000000" stroke-opacity="1" stroke-width="3.2"/>
<path clip-path="url(#clip352)" d="M1786.47 382.934 L1754.47 382.934 L1770.47 414.934 L1786.47 382.934 Z" fill="#008000" fill-rule="evenodd" fill-opacity="1" stroke="#000000" stroke-opacity="1" stroke-width="3.2"/>
<polyline clip-path="url(#clip352)" style="stroke:#ff0000; stroke-linecap:round; stroke-linejoin:round; stroke-width:6; stroke-opacity:1; fill:none" stroke-dasharray="24, 12, 3, 12, 3, 12" points="413.666,1097.34 685.027,1044.87 956.387,1011.96 1227.75,967.829 1499.11,935.297 1770.47,885.977 2041.83,863.434 "/>
<path clip-path="url(#clip352)" d="M413.666 1081.34 L397.666 1113.34 L429.666 1113.34 L413.666 1081.34 Z" fill="#ff0000" fill-rule="evenodd" fill-opacity="1" stroke="#000000" stroke-opacity="1" stroke-width="3.2"/>
<path clip-path="url(#clip352)" d="M685.027 1028.87 L669.027 1060.87 L701.027 1060.87 L685.027 1028.87 Z" fill="#ff0000" fill-rule="evenodd" fill-opacity="1" stroke="#000000" stroke-opacity="1" stroke-width="3.2"/>
<path clip-path="url(#clip352)" d="M956.387 995.955 L940.387 1027.96 L972.387 1027.96 L956.387 995.955 Z" fill="#ff0000" fill-rule="evenodd" fill-opacity="1" stroke="#000000" stroke-opacity="1" stroke-width="3.2"/>
<path clip-path="url(#clip352)" d="M1227.75 951.829 L1211.75 983.829 L1243.75 983.829 L1227.75 951.829 Z" fill="#ff0000" fill-rule="evenodd" fill-opacity="1" stroke="#000000" stroke-opacity="1" stroke-width="3.2"/>
<path clip-path="url(#clip352)" d="M1499.11 919.297 L1483.11 951.297 L1515.11 951.297 L1499.11 919.297 Z" fill="#ff0000" fill-rule="evenodd" fill-opacity="1" stroke="#000000" stroke-opacity="1" stroke-width="3.2"/>
<path clip-path="url(#clip352)" d="M1770.47 869.977 L1754.47 901.977 L1786.47 901.977 L1770.47 869.977 Z" fill="#ff0000" fill-rule="evenodd" fill-opacity="1" stroke="#000000" stroke-opacity="1" stroke-width="3.2"/>
<path clip-path="url(#clip352)" d="M2041.83 847.434 L2025.83 879.434 L2057.83 879.434 L2041.83 847.434 Z" fill="#ff0000" fill-rule="evenodd" fill-opacity="1" stroke="#000000" stroke-opacity="1" stroke-width="3.2"/>
<path clip-path="url(#clip350)" d="M383.515 524.202 L877.522 524.202 L877.522 316.842 L383.515 316.842  Z" fill="#ffffff" fill-rule="evenodd" fill-opacity="1"/>
<polyline clip-path="url(#clip350)" style="stroke:#000000; stroke-linecap:round; stroke-linejoin:round; stroke-width:4; stroke-opacity:1; fill:none" points="383.515,524.202 877.522,524.202 877.522,316.842 383.515,316.842 383.515,524.202 "/>
<polyline clip-path="url(#clip350)" style="stroke:#0000ff; stroke-linecap:round; stroke-linejoin:round; stroke-width:6; stroke-opacity:1; fill:none" points="403.616,368.682 524.22,368.682 "/>
<circle clip-path="url(#clip350)" cx="463.918" cy="368.682" r="16.7507" fill="#0000ff" fill-rule="evenodd" fill-opacity="1" stroke="#000000" stroke-opacity="1" stroke-width="4.55111"/>
<path clip-path="url(#clip350)" d="M544.321 351.402 L548.997 351.402 L548.997 365.569 L565.988 365.569 L565.988 351.402 L570.664 351.402 L570.664 385.962 L565.988 385.962 L565.988 369.504 L548.997 369.504 L548.997 385.962 L544.321 385.962 L544.321 351.402 Z" fill="#000000" fill-rule="nonzero" fill-opacity="1" /><path clip-path="url(#clip350)" d="M579.969 351.402 L586.937 351.402 L595.756 374.92 L604.622 351.402 L611.589 351.402 L611.589 385.962 L607.029 385.962 L607.029 355.615 L598.117 379.319 L593.418 379.319 L584.506 355.615 L584.506 385.962 L579.969 385.962 L579.969 351.402 Z" fill="#000000" fill-rule="nonzero" fill-opacity="1" /><path clip-path="url(#clip350)" d="M620.872 351.402 L627.839 351.402 L636.659 374.92 L645.524 351.402 L652.492 351.402 L652.492 385.962 L647.932 385.962 L647.932 355.615 L639.02 379.319 L634.321 379.319 L625.409 355.615 L625.409 385.962 L620.872 385.962 L620.872 351.402 Z" fill="#000000" fill-rule="nonzero" fill-opacity="1" /><path clip-path="url(#clip350)" d="M678.117 360.8 L678.117 364.828 Q676.311 363.902 674.367 363.439 Q672.422 362.976 670.339 362.976 Q667.168 362.976 665.571 363.948 Q663.997 364.92 663.997 366.865 Q663.997 368.346 665.131 369.203 Q666.265 370.036 669.691 370.8 L671.149 371.124 Q675.686 372.096 677.584 373.879 Q679.506 375.638 679.506 378.809 Q679.506 382.42 676.635 384.527 Q673.788 386.633 668.788 386.633 Q666.705 386.633 664.436 386.217 Q662.191 385.823 659.691 385.013 L659.691 380.615 Q662.052 381.842 664.344 382.467 Q666.635 383.068 668.881 383.068 Q671.89 383.068 673.51 382.05 Q675.131 381.008 675.131 379.133 Q675.131 377.397 673.95 376.471 Q672.793 375.545 668.834 374.689 L667.353 374.342 Q663.395 373.508 661.635 371.795 Q659.876 370.059 659.876 367.05 Q659.876 363.393 662.469 361.402 Q665.061 359.411 669.83 359.411 Q672.191 359.411 674.274 359.758 Q676.358 360.106 678.117 360.8 Z" fill="#000000" fill-rule="nonzero" fill-opacity="1" /><path clip-path="url(#clip350)" d="M686.89 380.082 L691.774 380.082 L691.774 385.962 L686.89 385.962 L686.89 380.082 Z" fill="#000000" fill-rule="nonzero" fill-opacity="1" /><path clip-path="url(#clip350)" d="M701.357 360.036 L705.617 360.036 L705.617 386.425 Q705.617 391.379 703.719 393.601 Q701.844 395.823 697.654 395.823 L696.033 395.823 L696.033 392.212 L697.168 392.212 Q699.598 392.212 700.478 391.078 Q701.357 389.967 701.357 386.425 L701.357 360.036 M701.357 349.944 L705.617 349.944 L705.617 355.337 L701.357 355.337 L701.357 349.944 Z" fill="#000000" fill-rule="nonzero" fill-opacity="1" /><path clip-path="url(#clip350)" d="M714.529 349.944 L718.788 349.944 L718.788 385.962 L714.529 385.962 L714.529 349.944 Z" fill="#000000" fill-rule="nonzero" fill-opacity="1" /><polyline clip-path="url(#clip350)" style="stroke:#008000; stroke-linecap:round; stroke-linejoin:round; stroke-width:6; stroke-opacity:1; fill:none" stroke-dasharray="24, 12, 3, 12" points="403.616,420.522 524.22,420.522 "/>
<path clip-path="url(#clip350)" d="M482.53 401.91 L445.306 401.91 L463.918 439.134 L482.53 401.91 Z" fill="#008000" fill-rule="evenodd" fill-opacity="1" stroke="#000000" stroke-opacity="1" stroke-width="4.55111"/>
<path clip-path="url(#clip350)" d="M566.034 422.154 L566.034 437.802 L561.775 437.802 L561.775 422.293 Q561.775 418.612 560.34 416.784 Q558.905 414.955 556.034 414.955 Q552.585 414.955 550.594 417.154 Q548.604 419.353 548.604 423.149 L548.604 437.802 L544.321 437.802 L544.321 401.784 L548.604 401.784 L548.604 415.904 Q550.131 413.566 552.192 412.409 Q554.275 411.251 556.983 411.251 Q561.451 411.251 563.742 414.029 Q566.034 416.784 566.034 422.154 Z" fill="#000000" fill-rule="nonzero" fill-opacity="1" /><path clip-path="url(#clip350)" d="M594.715 416.853 Q596.312 413.983 598.534 412.617 Q600.756 411.251 603.765 411.251 Q607.816 411.251 610.015 414.098 Q612.214 416.922 612.214 422.154 L612.214 437.802 L607.932 437.802 L607.932 422.293 Q607.932 418.566 606.613 416.76 Q605.293 414.955 602.585 414.955 Q599.275 414.955 597.353 417.154 Q595.432 419.353 595.432 423.149 L595.432 437.802 L591.15 437.802 L591.15 422.293 Q591.15 418.543 589.83 416.76 Q588.511 414.955 585.756 414.955 Q582.492 414.955 580.571 417.177 Q578.65 419.376 578.65 423.149 L578.65 437.802 L574.367 437.802 L574.367 411.876 L578.65 411.876 L578.65 415.904 Q580.108 413.52 582.145 412.385 Q584.182 411.251 586.983 411.251 Q589.807 411.251 591.775 412.686 Q593.765 414.122 594.715 416.853 Z" fill="#000000" fill-rule="nonzero" fill-opacity="1" /><path clip-path="url(#clip350)" d="M640.895 416.853 Q642.492 413.983 644.714 412.617 Q646.936 411.251 649.946 411.251 Q653.997 411.251 656.196 414.098 Q658.395 416.922 658.395 422.154 L658.395 437.802 L654.112 437.802 L654.112 422.293 Q654.112 418.566 652.793 416.76 Q651.473 414.955 648.765 414.955 Q645.455 414.955 643.534 417.154 Q641.612 419.353 641.612 423.149 L641.612 437.802 L637.33 437.802 L637.33 422.293 Q637.33 418.543 636.011 416.76 Q634.691 414.955 631.937 414.955 Q628.673 414.955 626.751 417.177 Q624.83 419.376 624.83 423.149 L624.83 437.802 L620.548 437.802 L620.548 411.876 L624.83 411.876 L624.83 415.904 Q626.288 413.52 628.325 412.385 Q630.362 411.251 633.163 411.251 Q635.987 411.251 637.955 412.686 Q639.946 414.122 640.895 416.853 Z" fill="#000000" fill-rule="nonzero" fill-opacity="1" /><path clip-path="url(#clip350)" d="M666.89 401.784 L671.149 401.784 L671.149 437.802 L666.89 437.802 L666.89 401.784 Z" fill="#000000" fill-rule="nonzero" fill-opacity="1" /><path clip-path="url(#clip350)" d="M702.237 423.774 L702.237 425.858 L682.654 425.858 Q682.932 430.256 685.293 432.571 Q687.677 434.862 691.913 434.862 Q694.367 434.862 696.658 434.26 Q698.973 433.658 701.242 432.455 L701.242 436.483 Q698.95 437.455 696.543 437.964 Q694.135 438.473 691.658 438.473 Q685.455 438.473 681.821 434.862 Q678.209 431.251 678.209 425.094 Q678.209 418.728 681.635 415.001 Q685.084 411.251 690.918 411.251 Q696.149 411.251 699.182 414.631 Q702.237 417.987 702.237 423.774 M697.978 422.524 Q697.932 419.029 696.01 416.946 Q694.112 414.862 690.964 414.862 Q687.399 414.862 685.246 416.876 Q683.117 418.89 682.793 422.547 L697.978 422.524 Z" fill="#000000" fill-rule="nonzero" fill-opacity="1" /><path clip-path="url(#clip350)" d="M721.01 424.77 Q715.848 424.77 713.857 425.95 Q711.867 427.131 711.867 429.978 Q711.867 432.246 713.348 433.589 Q714.853 434.908 717.422 434.908 Q720.964 434.908 723.093 432.409 Q725.246 429.885 725.246 425.719 L725.246 424.77 L721.01 424.77 M729.505 423.01 L729.505 437.802 L725.246 437.802 L725.246 433.867 Q723.788 436.228 721.612 437.362 Q719.436 438.473 716.288 438.473 Q712.306 438.473 709.945 436.251 Q707.607 434.006 707.607 430.256 Q707.607 425.881 710.524 423.659 Q713.464 421.436 719.274 421.436 L725.246 421.436 L725.246 421.02 Q725.246 418.08 723.302 416.483 Q721.38 414.862 717.885 414.862 Q715.663 414.862 713.556 415.395 Q711.45 415.927 709.506 416.992 L709.506 413.057 Q711.844 412.154 714.043 411.714 Q716.242 411.251 718.325 411.251 Q723.95 411.251 726.728 414.168 Q729.505 417.085 729.505 423.01 Z" fill="#000000" fill-rule="nonzero" fill-opacity="1" /><path clip-path="url(#clip350)" d="M753.302 415.858 Q752.584 415.441 751.728 415.256 Q750.894 415.047 749.876 415.047 Q746.265 415.047 744.32 417.409 Q742.399 419.747 742.399 424.145 L742.399 437.802 L738.117 437.802 L738.117 411.876 L742.399 411.876 L742.399 415.904 Q743.741 413.543 745.894 412.409 Q748.047 411.251 751.126 411.251 Q751.566 411.251 752.098 411.321 Q752.63 411.367 753.278 411.483 L753.302 415.858 Z" fill="#000000" fill-rule="nonzero" fill-opacity="1" /><path clip-path="url(#clip350)" d="M778.487 422.154 L778.487 437.802 L774.227 437.802 L774.227 422.293 Q774.227 418.612 772.792 416.784 Q771.357 414.955 768.487 414.955 Q765.038 414.955 763.047 417.154 Q761.056 419.353 761.056 423.149 L761.056 437.802 L756.774 437.802 L756.774 411.876 L761.056 411.876 L761.056 415.904 Q762.584 413.566 764.644 412.409 Q766.727 411.251 769.436 411.251 Q773.903 411.251 776.195 414.029 Q778.487 416.784 778.487 422.154 Z" fill="#000000" fill-rule="nonzero" fill-opacity="1" /><polyline clip-path="url(#clip350)" style="stroke:#ff0000; stroke-linecap:round; stroke-linejoin:round; stroke-width:6; stroke-opacity:1; fill:none" stroke-dasharray="24, 12, 3, 12, 3, 12" points="403.616,472.362 524.22,472.362 "/>
<path clip-path="url(#clip350)" d="M463.918 453.75 L445.306 490.974 L482.53 490.974 L463.918 453.75 Z" fill="#ff0000" fill-rule="evenodd" fill-opacity="1" stroke="#000000" stroke-opacity="1" stroke-width="4.55111"/>
<path clip-path="url(#clip350)" d="M548.604 485.753 L548.604 499.503 L544.321 499.503 L544.321 463.716 L548.604 463.716 L548.604 467.651 Q549.946 465.337 551.983 464.225 Q554.043 463.091 556.891 463.091 Q561.613 463.091 564.553 466.841 Q567.516 470.591 567.516 476.702 Q567.516 482.813 564.553 486.563 Q561.613 490.313 556.891 490.313 Q554.043 490.313 551.983 489.202 Q549.946 488.068 548.604 485.753 M563.094 476.702 Q563.094 472.003 561.15 469.341 Q559.229 466.656 555.849 466.656 Q552.469 466.656 550.525 469.341 Q548.604 472.003 548.604 476.702 Q548.604 481.401 550.525 484.086 Q552.469 486.748 555.849 486.748 Q559.229 486.748 561.15 484.086 Q563.094 481.401 563.094 476.702 Z" fill="#000000" fill-rule="nonzero" fill-opacity="1" /><path clip-path="url(#clip350)" d="M584.622 466.702 Q581.196 466.702 579.205 469.387 Q577.215 472.049 577.215 476.702 Q577.215 481.355 579.182 484.04 Q581.173 486.702 584.622 486.702 Q588.025 486.702 590.015 484.017 Q592.006 481.332 592.006 476.702 Q592.006 472.096 590.015 469.411 Q588.025 466.702 584.622 466.702 M584.622 463.091 Q590.177 463.091 593.349 466.702 Q596.52 470.313 596.52 476.702 Q596.52 483.068 593.349 486.702 Q590.177 490.313 584.622 490.313 Q579.043 490.313 575.872 486.702 Q572.724 483.068 572.724 476.702 Q572.724 470.313 575.872 466.702 Q579.043 463.091 584.622 463.091 Z" fill="#000000" fill-rule="nonzero" fill-opacity="1" /><path clip-path="url(#clip350)" d="M623.765 468.693 Q625.362 465.823 627.585 464.457 Q629.807 463.091 632.816 463.091 Q636.867 463.091 639.066 465.938 Q641.265 468.762 641.265 473.994 L641.265 489.642 L636.983 489.642 L636.983 474.133 Q636.983 470.406 635.663 468.6 Q634.344 466.795 631.636 466.795 Q628.325 466.795 626.404 468.994 Q624.483 471.193 624.483 474.989 L624.483 489.642 L620.2 489.642 L620.2 474.133 Q620.2 470.383 618.881 468.6 Q617.562 466.795 614.807 466.795 Q611.543 466.795 609.622 469.017 Q607.701 471.216 607.701 474.989 L607.701 489.642 L603.418 489.642 L603.418 463.716 L607.701 463.716 L607.701 467.744 Q609.159 465.36 611.196 464.225 Q613.233 463.091 616.034 463.091 Q618.858 463.091 620.825 464.526 Q622.816 465.962 623.765 468.693 Z" fill="#000000" fill-rule="nonzero" fill-opacity="1" /><path clip-path="url(#clip350)" d="M671.936 475.614 L671.936 477.698 L652.353 477.698 Q652.631 482.096 654.992 484.411 Q657.376 486.702 661.612 486.702 Q664.066 486.702 666.358 486.1 Q668.672 485.498 670.941 484.295 L670.941 488.323 Q668.649 489.295 666.242 489.804 Q663.835 490.313 661.358 490.313 Q655.154 490.313 651.52 486.702 Q647.909 483.091 647.909 476.934 Q647.909 470.568 651.335 466.841 Q654.784 463.091 660.617 463.091 Q665.848 463.091 668.881 466.471 Q671.936 469.827 671.936 475.614 M667.677 474.364 Q667.631 470.869 665.709 468.786 Q663.811 466.702 660.663 466.702 Q657.098 466.702 654.946 468.716 Q652.816 470.73 652.492 474.387 L667.677 474.364 Z" fill="#000000" fill-rule="nonzero" fill-opacity="1" /><path clip-path="url(#clip350)" d="M695.987 476.378 Q695.987 471.749 694.066 469.202 Q692.168 466.656 688.719 466.656 Q685.293 466.656 683.371 469.202 Q681.473 471.749 681.473 476.378 Q681.473 480.985 683.371 483.531 Q685.293 486.077 688.719 486.077 Q692.168 486.077 694.066 483.531 Q695.987 480.985 695.987 476.378 M700.246 486.424 Q700.246 493.045 697.307 496.262 Q694.367 499.503 688.302 499.503 Q686.057 499.503 684.066 499.156 Q682.075 498.832 680.2 498.137 L680.2 493.994 Q682.075 495.012 683.904 495.498 Q685.733 495.985 687.631 495.985 Q691.82 495.985 693.904 493.785 Q695.987 491.61 695.987 487.188 L695.987 485.082 Q694.668 487.373 692.608 488.508 Q690.547 489.642 687.677 489.642 Q682.908 489.642 679.992 486.008 Q677.075 482.374 677.075 476.378 Q677.075 470.36 679.992 466.725 Q682.908 463.091 687.677 463.091 Q690.547 463.091 692.608 464.225 Q694.668 465.36 695.987 467.651 L695.987 463.716 L700.246 463.716 L700.246 486.424 Z" fill="#000000" fill-rule="nonzero" fill-opacity="1" /><path clip-path="url(#clip350)" d="M724.043 467.698 Q723.325 467.281 722.468 467.096 Q721.635 466.887 720.617 466.887 Q717.006 466.887 715.061 469.249 Q713.14 471.587 713.14 475.985 L713.14 489.642 L708.857 489.642 L708.857 463.716 L713.14 463.716 L713.14 467.744 Q714.482 465.383 716.635 464.249 Q718.788 463.091 721.867 463.091 Q722.306 463.091 722.839 463.161 Q723.371 463.207 724.019 463.323 L724.043 467.698 Z" fill="#000000" fill-rule="nonzero" fill-opacity="1" /><path clip-path="url(#clip350)" d="M740.292 476.61 Q735.13 476.61 733.14 477.79 Q731.149 478.971 731.149 481.818 Q731.149 484.086 732.63 485.429 Q734.135 486.748 736.704 486.748 Q740.246 486.748 742.376 484.249 Q744.529 481.725 744.529 477.559 L744.529 476.61 L740.292 476.61 M748.788 474.85 L748.788 489.642 L744.529 489.642 L744.529 485.707 Q743.07 488.068 740.894 489.202 Q738.718 490.313 735.57 490.313 Q731.589 490.313 729.228 488.091 Q726.89 485.846 726.89 482.096 Q726.89 477.721 729.806 475.499 Q732.746 473.276 738.556 473.276 L744.529 473.276 L744.529 472.86 Q744.529 469.92 742.584 468.323 Q740.663 466.702 737.167 466.702 Q734.945 466.702 732.839 467.235 Q730.732 467.767 728.788 468.832 L728.788 464.897 Q731.126 463.994 733.325 463.554 Q735.524 463.091 737.607 463.091 Q743.232 463.091 746.01 466.008 Q748.788 468.925 748.788 474.85 Z" fill="#000000" fill-rule="nonzero" fill-opacity="1" /><path clip-path="url(#clip350)" d="M779.112 473.994 L779.112 489.642 L774.852 489.642 L774.852 474.133 Q774.852 470.452 773.417 468.624 Q771.982 466.795 769.112 466.795 Q765.663 466.795 763.672 468.994 Q761.681 471.193 761.681 474.989 L761.681 489.642 L757.399 489.642 L757.399 463.716 L761.681 463.716 L761.681 467.744 Q763.209 465.406 765.269 464.249 Q767.352 463.091 770.061 463.091 Q774.528 463.091 776.82 465.869 Q779.112 468.624 779.112 473.994 Z" fill="#000000" fill-rule="nonzero" fill-opacity="1" /><path clip-path="url(#clip350)" d="M799.389 476.61 Q794.227 476.61 792.237 477.79 Q790.246 478.971 790.246 481.818 Q790.246 484.086 791.727 485.429 Q793.232 486.748 795.801 486.748 Q799.343 486.748 801.473 484.249 Q803.625 481.725 803.625 477.559 L803.625 476.61 L799.389 476.61 M807.885 474.85 L807.885 489.642 L803.625 489.642 L803.625 485.707 Q802.167 488.068 799.991 489.202 Q797.815 490.313 794.667 490.313 Q790.686 490.313 788.325 488.091 Q785.987 485.846 785.987 482.096 Q785.987 477.721 788.903 475.499 Q791.843 473.276 797.653 473.276 L803.625 473.276 L803.625 472.86 Q803.625 469.92 801.681 468.323 Q799.76 466.702 796.264 466.702 Q794.042 466.702 791.936 467.235 Q789.829 467.767 787.885 468.832 L787.885 464.897 Q790.223 463.994 792.422 463.554 Q794.621 463.091 796.704 463.091 Q802.329 463.091 805.107 466.008 Q807.885 468.925 807.885 474.85 Z" fill="#000000" fill-rule="nonzero" fill-opacity="1" /><path clip-path="url(#clip350)" d="M820.871 456.355 L820.871 463.716 L829.644 463.716 L829.644 467.026 L820.871 467.026 L820.871 481.1 Q820.871 484.272 821.727 485.174 Q822.607 486.077 825.269 486.077 L829.644 486.077 L829.644 489.642 L825.269 489.642 Q820.338 489.642 818.463 487.813 Q816.588 485.961 816.588 481.1 L816.588 467.026 L813.463 467.026 L813.463 463.716 L816.588 463.716 L816.588 456.355 L820.871 456.355 Z" fill="#000000" fill-rule="nonzero" fill-opacity="1" /><path clip-path="url(#clip350)" d="M857.421 475.614 L857.421 477.698 L837.838 477.698 Q838.116 482.096 840.477 484.411 Q842.861 486.702 847.097 486.702 Q849.551 486.702 851.843 486.1 Q854.158 485.498 856.426 484.295 L856.426 488.323 Q854.134 489.295 851.727 489.804 Q849.32 490.313 846.843 490.313 Q840.639 490.313 837.005 486.702 Q833.394 483.091 833.394 476.934 Q833.394 470.568 836.82 466.841 Q840.269 463.091 846.102 463.091 Q851.334 463.091 854.366 466.471 Q857.421 469.827 857.421 475.614 M853.162 474.364 Q853.116 470.869 851.195 468.786 Q849.296 466.702 846.148 466.702 Q842.584 466.702 840.431 468.716 Q838.301 470.73 837.977 474.387 L853.162 474.364 Z" fill="#000000" fill-rule="nonzero" fill-opacity="1" /></svg>
