<?xml version="1.0" encoding="utf-8"?>
<svg xmlns="http://www.w3.org/2000/svg" xmlns:xlink="http://www.w3.org/1999/xlink" width="600" height="400" viewBox="0 0 2400 1600">
<defs>
  <clipPath id="clip620">
    <rect x="0" y="0" width="2400" height="1600"/>
  </clipPath>
</defs>
<path clip-path="url(#clip620)" d="M0 1600 L2400 1600 L2400 0 L0 0  Z" fill="#ffffff" fill-rule="evenodd" fill-opacity="1"/>
<defs>
  <clipPath id="clip621">
    <rect x="480" y="0" width="1681" height="1600"/>
  </clipPath>
</defs>
<path clip-path="url(#clip620)" d="M323.213 1284.79 L2132.28 1284.79 L2132.28 283.465 L323.213 283.465  Z" fill="#ffffff" fill-rule="evenodd" fill-opacity="1"/>
<defs>
  <clipPath id="clip622">
    <rect x="323" y="283" width="1810" height="1002"/>
  </clipPath>
</defs>
<polyline clip-path="url(#clip622)" style="stroke:#000000; stroke-linecap:round; stroke-linejoin:round; stroke-width:2; stroke-opacity:0.1; fill:none" points="685.027,1284.79 685.027,283.465 "/>
<polyline clip-path="url(#clip622)" style="stroke:#000000; stroke-linecap:round; stroke-linejoin:round; stroke-width:2; stroke-opacity:0.1; fill:none" points="1137.29,1284.79 1137.29,283.465 "/>
<polyline clip-path="url(#clip622)" style="stroke:#000000; stroke-linecap:round; stroke-linejoin:round; stroke-width:2; stroke-opacity:0.1; fill:none" points="1589.56,1284.79 1589.56,283.465 "/>
<polyline clip-path="url(#clip622)" style="stroke:#000000; stroke-linecap:round; stroke-linejoin:round; stroke-width:2; stroke-opacity:0.1; fill:none" points="2041.83,1284.79 2041.83,283.465 "/>
<polyline clip-path="url(#clip620)" style="stroke:#000000; stroke-linecap:round; stroke-linejoin:round; stroke-width:4; stroke-opacity:1; fill:none" points="323.213,1284.79 2132.28,1284.79 "/>
<polyline clip-path="url(#clip620)" style="stroke:#000000; stroke-linecap:round; stroke-linejoin:round; stroke-width:4; stroke-opacity:1; fill:none" points="685.027,1284.79 685.027,1265.89 "/>
<polyline clip-path="url(#clip620)" style="stroke:#000000; stroke-linecap:round; stroke-linejoin:round; stroke-width:4; stroke-opacity:1; fill:none" points="1137.29,1284.79 1137.29,1265.89 "/>
<polyline clip-path="url(#clip620)" style="stroke:#000000; stroke-linecap:round; stroke-linejoin:round; stroke-width:4; stroke-opacity:1; fill:none" points="1589.56,1284.79 1589.56,1265.89 "/>
<polyline clip-path="url(#clip620)" style="stroke:#000000; stroke-linecap:round; stroke-linejoin:round; stroke-width:4; stroke-opacity:1; fill:none" points="2041.83,1284.79 2041.83,1265.89 "/>
<path clip-path="url(#clip620)" d="M675.305 1312.63 L693.661 1312.63 L693.661 1316.56 L679.587 1316.56 L679.587 1325.03 Q680.605 1324.69 681.624 1324.53 Q682.643 1324.34 683.661 1324.34 Q689.448 1324.34 692.828 1327.51 Q696.207 1330.68 696.207 1336.1 Q696.207 1341.68 692.735 1344.78 Q689.263 1347.86 682.943 1347.86 Q680.768 1347.86 678.499 1347.49 Q676.254 1347.12 673.846 1346.38 L673.846 1341.68 Q675.93 1342.81 678.152 1343.37 Q680.374 1343.92 682.851 1343.92 Q686.855 1343.92 689.193 1341.82 Q691.531 1339.71 691.531 1336.1 Q691.531 1332.49 689.193 1330.38 Q686.855 1328.28 682.851 1328.28 Q680.976 1328.28 679.101 1328.69 Q677.249 1329.11 675.305 1329.99 L675.305 1312.63 Z" fill="#000000" fill-rule="nonzero" fill-opacity="1" /><path clip-path="url(#clip620)" d="M1111.98 1343.25 L1119.62 1343.25 L1119.62 1316.89 L1111.31 1318.55 L1111.31 1314.29 L1119.57 1312.63 L1124.25 1312.63 L1124.25 1343.25 L1131.89 1343.25 L1131.89 1347.19 L1111.98 1347.19 L1111.98 1343.25 Z" fill="#000000" fill-rule="nonzero" fill-opacity="1" /><path clip-path="url(#clip620)" d="M1151.33 1315.71 Q1147.72 1315.71 1145.89 1319.27 Q1144.09 1322.81 1144.09 1329.94 Q1144.09 1337.05 1145.89 1340.61 Q1147.72 1344.16 1151.33 1344.16 Q1154.97 1344.16 1156.77 1340.61 Q1158.6 1337.05 1158.6 1329.94 Q1158.6 1322.81 1156.77 1319.27 Q1154.97 1315.71 1151.33 1315.71 M1151.33 1312 Q1157.14 1312 1160.2 1316.61 Q1163.28 1321.19 1163.28 1329.94 Q1163.28 1338.67 1160.2 1343.28 Q1157.14 1347.86 1151.33 1347.86 Q1145.52 1347.86 1142.44 1343.28 Q1139.39 1338.67 1139.39 1329.94 Q1139.39 1321.19 1142.44 1316.61 Q1145.52 1312 1151.33 1312 Z" fill="#000000" fill-rule="nonzero" fill-opacity="1" /><path clip-path="url(#clip620)" d="M1564.75 1343.25 L1572.39 1343.25 L1572.39 1316.89 L1564.08 1318.55 L1564.08 1314.29 L1572.34 1312.63 L1577.02 1312.63 L1577.02 1343.25 L1584.65 1343.25 L1584.65 1347.19 L1564.75 1347.19 L1564.75 1343.25 Z" fill="#000000" fill-rule="nonzero" fill-opacity="1" /><path clip-path="url(#clip620)" d="M1594.15 1312.63 L1612.5 1312.63 L1612.5 1316.56 L1598.43 1316.56 L1598.43 1325.03 Q1599.45 1324.69 1600.46 1324.53 Q1601.48 1324.34 1602.5 1324.34 Q1608.29 1324.34 1611.67 1327.51 Q1615.05 1330.68 1615.05 1336.1 Q1615.05 1341.68 1611.58 1344.78 Q1608.1 1347.86 1601.78 1347.86 Q1599.61 1347.86 1597.34 1347.49 Q1595.09 1347.12 1592.69 1346.38 L1592.69 1341.68 Q1594.77 1342.81 1596.99 1343.37 Q1599.21 1343.92 1601.69 1343.92 Q1605.7 1343.92 1608.03 1341.82 Q1610.37 1339.71 1610.37 1336.1 Q1610.37 1332.49 1608.03 1330.38 Q1605.7 1328.28 1601.69 1328.28 Q1599.82 1328.28 1597.94 1328.69 Q1596.09 1329.11 1594.15 1329.99 L1594.15 1312.63 Z" fill="#000000" fill-rule="nonzero" fill-opacity="1" /><path clip-path="url(#clip620)" d="M2020.6 1343.25 L2036.92 1343.25 L2036.92 1347.19 L2014.98 1347.19 L2014.98 1343.25 Q2017.64 1340.5 2022.22 1335.87 Q2026.83 1331.22 2028.01 1329.87 Q2030.26 1327.35 2031.14 1325.61 Q2032.04 1323.85 2032.04 1322.16 Q2032.04 1319.41 2030.09 1317.67 Q2028.17 1315.94 2025.07 1315.94 Q2022.87 1315.94 2020.42 1316.7 Q2017.99 1317.47 2015.21 1319.02 L2015.21 1314.29 Q2018.03 1313.16 2020.49 1312.58 Q2022.94 1312 2024.98 1312 Q2030.35 1312 2033.54 1314.69 Q2036.74 1317.37 2036.74 1321.86 Q2036.74 1323.99 2035.93 1325.91 Q2035.14 1327.81 2033.03 1330.41 Q2032.45 1331.08 2029.35 1334.29 Q2026.25 1337.49 2020.6 1343.25 Z" fill="#000000" fill-rule="nonzero" fill-opacity="1" /><path clip-path="url(#clip620)" d="M2056.74 1315.71 Q2053.13 1315.71 2051.3 1319.27 Q2049.49 1322.81 2049.49 1329.94 Q2049.49 1337.05 2051.3 1340.61 Q2053.13 1344.16 2056.74 1344.16 Q2060.37 1344.16 2062.18 1340.61 Q2064.01 1337.05 2064.01 1329.94 Q2064.01 1322.81 2062.18 1319.27 Q2060.37 1315.71 2056.74 1315.71 M2056.74 1312 Q2062.55 1312 2065.6 1316.61 Q2068.68 1321.19 2068.68 1329.94 Q2068.68 1338.67 2065.6 1343.28 Q2062.55 1347.86 2056.74 1347.86 Q2050.93 1347.86 2047.85 1343.28 Q2044.79 1338.67 2044.79 1329.94 Q2044.79 1321.19 2047.85 1316.61 Q2050.93 1312 2056.74 1312 Z" fill="#000000" fill-rule="nonzero" fill-opacity="1" /><path clip-path="url(#clip620)" d="M950.14 1408.14 L950.14 1429.65 L944.283 1429.65 L944.283 1408.33 Q944.283 1403.27 942.31 1400.75 Q940.336 1398.24 936.39 1398.24 Q931.647 1398.24 928.91 1401.26 Q926.173 1404.28 926.173 1409.5 L926.173 1429.65 L920.284 1429.65 L920.284 1394 L926.173 1394 L926.173 1399.54 Q928.273 1396.33 931.106 1394.74 Q933.971 1393.14 937.695 1393.14 Q943.838 1393.14 946.989 1396.96 Q950.14 1400.75 950.14 1408.14 Z" fill="#000000" fill-rule="nonzero" fill-opacity="1" /><path clip-path="url(#clip620)" d="M961.216 1415.58 L961.216 1394 L967.072 1394 L967.072 1415.36 Q967.072 1420.42 969.046 1422.97 Q971.019 1425.48 974.966 1425.48 Q979.708 1425.48 982.446 1422.46 Q985.215 1419.43 985.215 1414.21 L985.215 1394 L991.071 1394 L991.071 1429.65 L985.215 1429.65 L985.215 1424.18 Q983.082 1427.42 980.249 1429.01 Q977.448 1430.57 973.725 1430.57 Q967.582 1430.57 964.399 1426.76 Q961.216 1422.94 961.216 1415.58 M975.953 1393.14 L975.953 1393.14 Z" fill="#000000" fill-rule="nonzero" fill-opacity="1" /><path clip-path="url(#clip620)" d="M1030.89 1400.85 Q1033.08 1396.9 1036.14 1395.02 Q1039.2 1393.14 1043.33 1393.14 Q1048.9 1393.14 1051.93 1397.06 Q1054.95 1400.94 1054.95 1408.14 L1054.95 1429.65 L1049.06 1429.65 L1049.06 1408.33 Q1049.06 1403.2 1047.25 1400.72 Q1045.43 1398.24 1041.71 1398.24 Q1037.16 1398.24 1034.52 1401.26 Q1031.88 1404.28 1031.88 1409.5 L1031.88 1429.65 L1025.99 1429.65 L1025.99 1408.33 Q1025.99 1403.17 1024.17 1400.72 Q1022.36 1398.24 1018.57 1398.24 Q1014.08 1398.24 1011.44 1401.29 Q1008.8 1404.32 1008.8 1409.5 L1008.8 1429.65 L1002.91 1429.65 L1002.91 1394 L1008.8 1394 L1008.8 1399.54 Q1010.8 1396.26 1013.61 1394.7 Q1016.41 1393.14 1020.26 1393.14 Q1024.14 1393.14 1026.85 1395.12 Q1029.58 1397.09 1030.89 1400.85 Z" fill="#000000" fill-rule="nonzero" fill-opacity="1" /><path clip-path="url(#clip620)" d="M1092.22 1411.86 Q1092.22 1405.4 1089.55 1401.74 Q1086.91 1398.05 1082.26 1398.05 Q1077.61 1398.05 1074.94 1401.74 Q1072.3 1405.4 1072.3 1411.86 Q1072.3 1418.32 1074.94 1422.01 Q1077.61 1425.67 1082.26 1425.67 Q1086.91 1425.67 1089.55 1422.01 Q1092.22 1418.32 1092.22 1411.86 M1072.3 1399.41 Q1074.14 1396.23 1076.94 1394.7 Q1079.78 1393.14 1083.69 1393.14 Q1090.19 1393.14 1094.23 1398.3 Q1098.3 1403.46 1098.3 1411.86 Q1098.3 1420.26 1094.23 1425.42 Q1090.19 1430.57 1083.69 1430.57 Q1079.78 1430.57 1076.94 1429.05 Q1074.14 1427.49 1072.3 1424.3 L1072.3 1429.65 L1066.41 1429.65 L1066.41 1380.13 L1072.3 1380.13 L1072.3 1399.41 Z" fill="#000000" fill-rule="nonzero" fill-opacity="1" /><path clip-path="url(#clip620)" d="M1138.5 1410.36 L1138.5 1413.23 L1111.57 1413.23 Q1111.96 1419.28 1115.2 1422.46 Q1118.48 1425.61 1124.31 1425.61 Q1127.68 1425.61 1130.83 1424.78 Q1134.01 1423.95 1137.13 1422.3 L1137.13 1427.84 Q1133.98 1429.17 1130.67 1429.87 Q1127.36 1430.57 1123.96 1430.57 Q1115.43 1430.57 1110.43 1425.61 Q1105.46 1420.64 1105.46 1412.18 Q1105.46 1403.42 1110.17 1398.3 Q1114.92 1393.14 1122.94 1393.14 Q1130.13 1393.14 1134.3 1397.79 Q1138.5 1402.41 1138.5 1410.36 M1132.64 1408.64 Q1132.58 1403.84 1129.94 1400.97 Q1127.33 1398.11 1123 1398.11 Q1118.1 1398.11 1115.14 1400.88 Q1112.21 1403.65 1111.76 1408.68 L1132.64 1408.64 Z" fill="#000000" fill-rule="nonzero" fill-opacity="1" /><path clip-path="url(#clip620)" d="M1168.77 1399.48 Q1167.78 1398.91 1166.61 1398.65 Q1165.46 1398.36 1164.06 1398.36 Q1159.09 1398.36 1156.42 1401.61 Q1153.78 1404.83 1153.78 1410.87 L1153.78 1429.65 L1147.89 1429.65 L1147.89 1394 L1153.78 1394 L1153.78 1399.54 Q1155.62 1396.3 1158.58 1394.74 Q1161.54 1393.14 1165.78 1393.14 Q1166.38 1393.14 1167.11 1393.24 Q1167.85 1393.3 1168.74 1393.46 L1168.77 1399.48 Z" fill="#000000" fill-rule="nonzero" fill-opacity="1" /><path clip-path="url(#clip620)" d="M1209.45 1398.11 Q1204.74 1398.11 1202 1401.8 Q1199.26 1405.46 1199.26 1411.86 Q1199.26 1418.26 1201.97 1421.95 Q1204.7 1425.61 1209.45 1425.61 Q1214.13 1425.61 1216.86 1421.92 Q1219.6 1418.22 1219.6 1411.86 Q1219.6 1405.53 1216.86 1401.83 Q1214.13 1398.11 1209.45 1398.11 M1209.45 1393.14 Q1217.09 1393.14 1221.45 1398.11 Q1225.81 1403.07 1225.81 1411.86 Q1225.81 1420.61 1221.45 1425.61 Q1217.09 1430.57 1209.45 1430.57 Q1201.78 1430.57 1197.42 1425.61 Q1193.09 1420.61 1193.09 1411.86 Q1193.09 1403.07 1197.42 1398.11 Q1201.78 1393.14 1209.45 1393.14 Z" fill="#000000" fill-rule="nonzero" fill-opacity="1" /><path clip-path="url(#clip620)" d="M1253.56 1380.13 L1253.56 1385 L1247.96 1385 Q1244.81 1385 1243.57 1386.27 Q1242.36 1387.54 1242.36 1390.85 L1242.36 1394 L1252 1394 L1252 1398.55 L1242.36 1398.55 L1242.36 1429.65 L1236.47 1429.65 L1236.47 1398.55 L1230.87 1398.55 L1230.87 1394 L1236.47 1394 L1236.47 1391.52 Q1236.47 1385.57 1239.24 1382.86 Q1242.01 1380.13 1248.02 1380.13 L1253.56 1380.13 Z" fill="#000000" fill-rule="nonzero" fill-opacity="1" /><path clip-path="url(#clip620)" d="M1301.91 1395.05 L1301.91 1400.59 Q1299.43 1399.32 1296.75 1398.68 Q1294.08 1398.05 1291.21 1398.05 Q1286.85 1398.05 1284.66 1399.38 Q1282.49 1400.72 1282.49 1403.39 Q1282.49 1405.43 1284.05 1406.61 Q1285.61 1407.75 1290.32 1408.8 L1292.33 1409.25 Q1298.57 1410.59 1301.18 1413.04 Q1303.82 1415.46 1303.82 1419.82 Q1303.82 1424.78 1299.87 1427.68 Q1295.96 1430.57 1289.08 1430.57 Q1286.22 1430.57 1283.1 1430 Q1280.01 1429.46 1276.57 1428.35 L1276.57 1422.3 Q1279.82 1423.99 1282.97 1424.85 Q1286.12 1425.67 1289.21 1425.67 Q1293.35 1425.67 1295.57 1424.27 Q1297.8 1422.84 1297.8 1420.26 Q1297.8 1417.87 1296.18 1416.6 Q1294.59 1415.33 1289.15 1414.15 L1287.11 1413.67 Q1281.67 1412.53 1279.25 1410.17 Q1276.83 1407.79 1276.83 1403.65 Q1276.83 1398.62 1280.39 1395.88 Q1283.96 1393.14 1290.51 1393.14 Q1293.76 1393.14 1296.62 1393.62 Q1299.49 1394.1 1301.91 1395.05 Z" fill="#000000" fill-rule="nonzero" fill-opacity="1" /><path clip-path="url(#clip620)" d="M1318.94 1383.88 L1318.94 1394 L1331 1394 L1331 1398.55 L1318.94 1398.55 L1318.94 1417.91 Q1318.94 1422.27 1320.11 1423.51 Q1321.32 1424.75 1324.98 1424.75 L1331 1424.75 L1331 1429.65 L1324.98 1429.65 Q1318.2 1429.65 1315.63 1427.14 Q1313.05 1424.59 1313.05 1417.91 L1313.05 1398.55 L1308.75 1398.55 L1308.75 1394 L1313.05 1394 L1313.05 1383.88 L1318.94 1383.88 Z" fill="#000000" fill-rule="nonzero" fill-opacity="1" /><path clip-path="url(#clip620)" d="M1354.9 1411.73 Q1347.81 1411.73 1345.07 1413.36 Q1342.33 1414.98 1342.33 1418.89 Q1342.33 1422.01 1344.37 1423.86 Q1346.44 1425.67 1349.97 1425.67 Q1354.84 1425.67 1357.77 1422.24 Q1360.73 1418.77 1360.73 1413.04 L1360.73 1411.73 L1354.9 1411.73 M1366.58 1409.31 L1366.58 1429.65 L1360.73 1429.65 L1360.73 1424.24 Q1358.72 1427.49 1355.73 1429.05 Q1352.74 1430.57 1348.41 1430.57 Q1342.94 1430.57 1339.69 1427.52 Q1336.47 1424.43 1336.47 1419.28 Q1336.47 1413.26 1340.48 1410.2 Q1344.53 1407.15 1352.52 1407.15 L1360.73 1407.15 L1360.73 1406.58 Q1360.73 1402.53 1358.05 1400.34 Q1355.41 1398.11 1350.61 1398.11 Q1347.55 1398.11 1344.65 1398.84 Q1341.76 1399.57 1339.08 1401.04 L1339.08 1395.63 Q1342.3 1394.39 1345.32 1393.78 Q1348.35 1393.14 1351.21 1393.14 Q1358.95 1393.14 1362.76 1397.15 Q1366.58 1401.16 1366.58 1409.31 Z" fill="#000000" fill-rule="nonzero" fill-opacity="1" /><path clip-path="url(#clip620)" d="M1384.44 1383.88 L1384.44 1394 L1396.5 1394 L1396.5 1398.55 L1384.44 1398.55 L1384.44 1417.91 Q1384.44 1422.27 1385.62 1423.51 Q1386.83 1424.75 1390.49 1424.75 L1396.5 1424.75 L1396.5 1429.65 L1390.49 1429.65 Q1383.71 1429.65 1381.13 1427.14 Q1378.55 1424.59 1378.55 1417.91 L1378.55 1398.55 L1374.25 1398.55 L1374.25 1394 L1378.55 1394 L1378.55 1383.88 L1384.44 1383.88 Z" fill="#000000" fill-rule="nonzero" fill-opacity="1" /><path clip-path="url(#clip620)" d="M1434.7 1410.36 L1434.7 1413.23 L1407.77 1413.23 Q1408.15 1419.28 1411.4 1422.46 Q1414.68 1425.61 1420.5 1425.61 Q1423.88 1425.61 1427.03 1424.78 Q1430.21 1423.95 1433.33 1422.3 L1433.33 1427.84 Q1430.18 1429.17 1426.87 1429.87 Q1423.56 1430.57 1420.15 1430.57 Q1411.62 1430.57 1406.62 1425.61 Q1401.66 1420.64 1401.66 1412.18 Q1401.66 1403.42 1406.37 1398.3 Q1411.11 1393.14 1419.13 1393.14 Q1426.33 1393.14 1430.5 1397.79 Q1434.7 1402.41 1434.7 1410.36 M1428.84 1408.64 Q1428.78 1403.84 1426.14 1400.97 Q1423.53 1398.11 1419.2 1398.11 Q1414.3 1398.11 1411.34 1400.88 Q1408.41 1403.65 1407.96 1408.68 L1428.84 1408.64 Z" fill="#000000" fill-rule="nonzero" fill-opacity="1" /><path clip-path="url(#clip620)" d="M1467.03 1395.05 L1467.03 1400.59 Q1464.55 1399.32 1461.88 1398.68 Q1459.21 1398.05 1456.34 1398.05 Q1451.98 1398.05 1449.78 1399.38 Q1447.62 1400.72 1447.62 1403.39 Q1447.62 1405.43 1449.18 1406.61 Q1450.74 1407.75 1455.45 1408.8 L1457.45 1409.25 Q1463.69 1410.59 1466.3 1413.04 Q1468.94 1415.46 1468.94 1419.82 Q1468.94 1424.78 1465 1427.68 Q1461.08 1430.57 1454.21 1430.57 Q1451.34 1430.57 1448.22 1430 Q1445.14 1429.46 1441.7 1428.35 L1441.7 1422.3 Q1444.95 1423.99 1448.1 1424.85 Q1451.25 1425.67 1454.34 1425.67 Q1458.47 1425.67 1460.7 1424.27 Q1462.93 1422.84 1462.93 1420.26 Q1462.93 1417.87 1461.31 1416.6 Q1459.71 1415.33 1454.27 1414.15 L1452.23 1413.67 Q1446.79 1412.53 1444.37 1410.17 Q1441.95 1407.79 1441.95 1403.65 Q1441.95 1398.62 1445.52 1395.88 Q1449.08 1393.14 1455.64 1393.14 Q1458.89 1393.14 1461.75 1393.62 Q1464.62 1394.1 1467.03 1395.05 Z" fill="#000000" fill-rule="nonzero" fill-opacity="1" /><path clip-path="url(#clip620)" d="M1499.25 1382.13 L1507.9 1382.13 L1528.97 1421.89 L1528.97 1382.13 L1535.21 1382.13 L1535.21 1429.65 L1526.55 1429.65 L1505.48 1389.9 L1505.48 1429.65 L1499.25 1429.65 L1499.25 1382.13 Z" fill="#000000" fill-rule="nonzero" fill-opacity="1" /><polyline clip-path="url(#clip622)" style="stroke:#000000; stroke-linecap:round; stroke-linejoin:round; stroke-width:2; stroke-opacity:0.1; fill:none" points="323.213,1284.79 2132.28,1284.79 "/>
<polyline clip-path="url(#clip622)" style="stroke:#000000; stroke-linecap:round; stroke-linejoin:round; stroke-width:2; stroke-opacity:0.1; fill:none" points="323.213,1094.39 2132.28,1094.39 "/>
<polyline clip-path="url(#clip622)" style="stroke:#000000; stroke-linecap:round; stroke-linejoin:round; stroke-width:2; stroke-opacity:0.1; fill:none" points="323.213,903.993 2132.28,903.993 "/>
<polyline clip-path="url(#clip622)" style="stroke:#000000; stroke-linecap:round; stroke-linejoin:round; stroke-width:2; stroke-opacity:0.1; fill:none" points="323.213,713.596 2132.28,713.596 "/>
<polyline clip-path="url(#clip622)" style="stroke:#000000; stroke-linecap:round; stroke-linejoin:round; stroke-width:2; stroke-opacity:0.1; fill:none" points="323.213,523.199 2132.28,523.199 "/>
<polyline clip-path="url(#clip622)" style="stroke:#000000; stroke-linecap:round; stroke-linejoin:round; stroke-width:2; stroke-opacity:0.1; fill:none" points="323.213,332.801 2132.28,332.801 "/>
<polyline clip-path="url(#clip620)" style="stroke:#000000; stroke-linecap:round; stroke-linejoin:round; stroke-width:4; stroke-opacity:1; fill:none" points="323.213,1284.79 323.213,283.465 "/>
<polyline clip-path="url(#clip620)" style="stroke:#000000; stroke-linecap:round; stroke-linejoin:round; stroke-width:4; stroke-opacity:1; fill:none" points="323.213,1284.79 342.11,1284.79 "/>
<polyline clip-path="url(#clip620)" style="stroke:#000000; stroke-linecap:round; stroke-linejoin:round; stroke-width:4; stroke-opacity:1; fill:none" points="323.213,1094.39 342.11,1094.39 "/>
<polyline clip-path="url(#clip620)" style="stroke:#000000; stroke-linecap:round; stroke-linejoin:round; stroke-width:4; stroke-opacity:1; fill:none" points="323.213,903.993 342.11,903.993 "/>
<polyline clip-path="url(#clip620)" style="stroke:#000000; stroke-linecap:round; stroke-linejoin:round; stroke-width:4; stroke-opacity:1; fill:none" points="323.213,713.596 342.11,713.596 "/>
<polyline clip-path="url(#clip620)" style="stroke:#000000; stroke-linecap:round; stroke-linejoin:round; stroke-width:4; stroke-opacity:1; fill:none" points="323.213,523.199 342.11,523.199 "/>
<polyline clip-path="url(#clip620)" style="stroke:#000000; stroke-linecap:round; stroke-linejoin:round; stroke-width:4; stroke-opacity:1; fill:none" points="323.213,332.801 342.11,332.801 "/>
<path clip-path="url(#clip620)" d="M275.268 1270.59 Q271.657 1270.59 269.828 1274.15 Q268.023 1277.69 268.023 1284.82 Q268.023 1291.93 269.828 1295.49 Q271.657 1299.04 275.268 1299.04 Q278.902 1299.04 280.708 1295.49 Q282.537 1291.93 282.537 1284.82 Q282.537 1277.69 280.708 1274.15 Q278.902 1270.59 275.268 1270.59 M275.268 1266.88 Q281.078 1266.88 284.134 1271.49 Q287.213 1276.07 287.213 1284.82 Q287.213 1293.55 284.134 1298.16 Q281.078 1302.74 275.268 1302.74 Q269.458 1302.74 266.379 1298.16 Q263.324 1293.55 263.324 1284.82 Q263.324 1276.07 266.379 1271.49 Q269.458 1266.88 275.268 1266.88 Z" fill="#000000" fill-rule="nonzero" fill-opacity="1" /><path clip-path="url(#clip620)" d="M266.31 1077.11 L284.666 1077.11 L284.666 1081.05 L270.592 1081.05 L270.592 1089.52 Q271.611 1089.17 272.629 1089.01 Q273.648 1088.82 274.666 1088.82 Q280.453 1088.82 283.833 1091.99 Q287.213 1095.17 287.213 1100.58 Q287.213 1106.16 283.74 1109.26 Q280.268 1112.34 273.949 1112.34 Q271.773 1112.34 269.504 1111.97 Q267.259 1111.6 264.852 1110.86 L264.852 1106.16 Q266.935 1107.3 269.157 1107.85 Q271.379 1108.41 273.856 1108.41 Q277.861 1108.41 280.199 1106.3 Q282.537 1104.19 282.537 1100.58 Q282.537 1096.97 280.199 1094.86 Q277.861 1092.76 273.856 1092.76 Q271.981 1092.76 270.106 1093.17 Q268.254 1093.59 266.31 1094.47 L266.31 1077.11 Z" fill="#000000" fill-rule="nonzero" fill-opacity="1" /><path clip-path="url(#clip620)" d="M235.917 917.338 L243.555 917.338 L243.555 890.972 L235.245 892.639 L235.245 888.38 L243.509 886.713 L248.185 886.713 L248.185 917.338 L255.824 917.338 L255.824 921.273 L235.917 921.273 L235.917 917.338 Z" fill="#000000" fill-rule="nonzero" fill-opacity="1" /><path clip-path="url(#clip620)" d="M275.268 889.792 Q271.657 889.792 269.828 893.357 Q268.023 896.898 268.023 904.028 Q268.023 911.134 269.828 914.699 Q271.657 918.241 275.268 918.241 Q278.902 918.241 280.708 914.699 Q282.537 911.134 282.537 904.028 Q282.537 896.898 280.708 893.357 Q278.902 889.792 275.268 889.792 M275.268 886.088 Q281.078 886.088 284.134 890.694 Q287.213 895.278 287.213 904.028 Q287.213 912.755 284.134 917.361 Q281.078 921.944 275.268 921.944 Q269.458 921.944 266.379 917.361 Q263.324 912.755 263.324 904.028 Q263.324 895.278 266.379 890.694 Q269.458 886.088 275.268 886.088 Z" fill="#000000" fill-rule="nonzero" fill-opacity="1" /><path clip-path="url(#clip620)" d="M236.912 726.941 L244.551 726.941 L244.551 700.575 L236.241 702.242 L236.241 697.982 L244.504 696.316 L249.18 696.316 L249.18 726.941 L256.819 726.941 L256.819 730.876 L236.912 730.876 L236.912 726.941 Z" fill="#000000" fill-rule="nonzero" fill-opacity="1" /><path clip-path="url(#clip620)" d="M266.31 696.316 L284.666 696.316 L284.666 700.251 L270.592 700.251 L270.592 708.723 Q271.611 708.376 272.629 708.214 Q273.648 708.029 274.666 708.029 Q280.453 708.029 283.833 711.2 Q287.213 714.371 287.213 719.788 Q287.213 725.367 283.74 728.468 Q280.268 731.547 273.949 731.547 Q271.773 731.547 269.504 731.177 Q267.259 730.806 264.852 730.066 L264.852 725.367 Q266.935 726.501 269.157 727.056 Q271.379 727.612 273.856 727.612 Q277.861 727.612 280.199 725.505 Q282.537 723.399 282.537 719.788 Q282.537 716.177 280.199 714.07 Q277.861 711.964 273.856 711.964 Q271.981 711.964 270.106 712.381 Q268.254 712.797 266.31 713.677 L266.31 696.316 Z" fill="#000000" fill-rule="nonzero" fill-opacity="1" /><path clip-path="url(#clip620)" d="M239.134 536.543 L255.454 536.543 L255.454 540.479 L233.509 540.479 L233.509 536.543 Q236.171 533.789 240.755 529.159 Q245.361 524.507 246.542 523.164 Q248.787 520.641 249.667 518.905 Q250.569 517.145 250.569 515.456 Q250.569 512.701 248.625 510.965 Q246.704 509.229 243.602 509.229 Q241.403 509.229 238.949 509.993 Q236.518 510.757 233.741 512.308 L233.741 507.585 Q236.565 506.451 239.018 505.872 Q241.472 505.294 243.509 505.294 Q248.879 505.294 252.074 507.979 Q255.268 510.664 255.268 515.155 Q255.268 517.284 254.458 519.206 Q253.671 521.104 251.565 523.696 Q250.986 524.368 247.884 527.585 Q244.782 530.78 239.134 536.543 Z" fill="#000000" fill-rule="nonzero" fill-opacity="1" /><path clip-path="url(#clip620)" d="M275.268 508.997 Q271.657 508.997 269.828 512.562 Q268.023 516.104 268.023 523.233 Q268.023 530.34 269.828 533.905 Q271.657 537.446 275.268 537.446 Q278.902 537.446 280.708 533.905 Q282.537 530.34 282.537 523.233 Q282.537 516.104 280.708 512.562 Q278.902 508.997 275.268 508.997 M275.268 505.294 Q281.078 505.294 284.134 509.9 Q287.213 514.483 287.213 523.233 Q287.213 531.96 284.134 536.567 Q281.078 541.15 275.268 541.15 Q269.458 541.15 266.379 536.567 Q263.324 531.96 263.324 523.233 Q263.324 514.483 266.379 509.9 Q269.458 505.294 275.268 505.294 Z" fill="#000000" fill-rule="nonzero" fill-opacity="1" /><path clip-path="url(#clip620)" d="M240.13 346.146 L256.449 346.146 L256.449 350.081 L234.505 350.081 L234.505 346.146 Q237.167 343.392 241.75 338.762 Q246.356 334.109 247.537 332.767 Q249.782 330.244 250.662 328.508 Q251.565 326.748 251.565 325.058 Q251.565 322.304 249.62 320.568 Q247.699 318.832 244.597 318.832 Q242.398 318.832 239.944 319.596 Q237.514 320.359 234.736 321.91 L234.736 317.188 Q237.56 316.054 240.014 315.475 Q242.467 314.896 244.504 314.896 Q249.875 314.896 253.069 317.582 Q256.264 320.267 256.264 324.758 Q256.264 326.887 255.454 328.808 Q254.666 330.707 252.56 333.299 Q251.981 333.97 248.879 337.188 Q245.778 340.382 240.13 346.146 Z" fill="#000000" fill-rule="nonzero" fill-opacity="1" /><path clip-path="url(#clip620)" d="M266.31 315.521 L284.666 315.521 L284.666 319.457 L270.592 319.457 L270.592 327.929 Q271.611 327.582 272.629 327.42 Q273.648 327.234 274.666 327.234 Q280.453 327.234 283.833 330.406 Q287.213 333.577 287.213 338.994 Q287.213 344.572 283.74 347.674 Q280.268 350.753 273.949 350.753 Q271.773 350.753 269.504 350.382 Q267.259 350.012 264.852 349.271 L264.852 344.572 Q266.935 345.706 269.157 346.262 Q271.379 346.818 273.856 346.818 Q277.861 346.818 280.199 344.711 Q282.537 342.605 282.537 338.994 Q282.537 335.382 280.199 333.276 Q277.861 331.17 273.856 331.17 Q271.981 331.17 270.106 331.586 Q268.254 332.003 266.31 332.882 L266.31 315.521 Z" fill="#000000" fill-rule="nonzero" fill-opacity="1" /><path clip-path="url(#clip620)" d="M139.393 975.957 L146.173 975.957 Q143.149 979.203 141.653 982.895 Q140.157 986.555 140.157 990.693 Q140.157 998.841 145.154 1003.17 Q150.12 1007.5 159.541 1007.5 Q168.93 1007.5 173.927 1003.17 Q178.893 998.841 178.893 990.693 Q178.893 986.555 177.397 982.895 Q175.901 979.203 172.877 975.957 L179.593 975.957 Q181.885 979.33 183.03 983.118 Q184.176 986.874 184.176 991.075 Q184.176 1001.86 177.588 1008.07 Q170.967 1014.28 159.541 1014.28 Q148.083 1014.28 141.494 1008.07 Q134.874 1001.86 134.874 991.075 Q134.874 986.81 136.02 983.054 Q137.134 979.267 139.393 975.957 Z" fill="#000000" fill-rule="nonzero" fill-opacity="1" /><path clip-path="url(#clip620)" d="M141.017 959.597 L158.873 959.597 L158.873 951.512 Q158.873 947.024 156.549 944.574 Q154.226 942.123 149.929 942.123 Q145.664 942.123 143.34 944.574 Q141.017 947.024 141.017 951.512 L141.017 959.597 M135.733 966.026 L135.733 951.512 Q135.733 943.523 139.362 939.449 Q142.958 935.343 149.929 935.343 Q156.963 935.343 160.559 939.449 Q164.156 943.523 164.156 951.512 L164.156 959.597 L183.253 959.597 L183.253 966.026 L135.733 966.026 Z" fill="#000000" fill-rule="nonzero" fill-opacity="1" /><path clip-path="url(#clip620)" d="M135.733 927.45 L135.733 920.989 L164.602 920.989 Q172.241 920.989 175.614 918.22 Q178.956 915.451 178.956 909.244 Q178.956 903.069 175.614 900.3 Q172.241 897.531 164.602 897.531 L135.733 897.531 L135.733 891.07 L165.397 891.07 Q174.691 891.07 179.434 895.685 Q184.176 900.268 184.176 909.244 Q184.176 918.251 179.434 922.867 Q174.691 927.45 165.397 927.45 L135.733 927.45 Z" fill="#000000" fill-rule="nonzero" fill-opacity="1" /><path clip-path="url(#clip620)" d="M137.484 852.748 L147.605 852.748 L147.605 840.685 L152.157 840.685 L152.157 852.748 L171.508 852.748 Q175.869 852.748 177.11 851.571 Q178.352 850.361 178.352 846.701 L178.352 840.685 L183.253 840.685 L183.253 846.701 Q183.253 853.48 180.739 856.058 Q178.192 858.637 171.508 858.637 L152.157 858.637 L152.157 862.933 L147.605 862.933 L147.605 858.637 L137.484 858.637 L137.484 852.748 Z" fill="#000000" fill-rule="nonzero" fill-opacity="1" /><path clip-path="url(#clip620)" d="M147.605 832.983 L147.605 827.126 L183.253 827.126 L183.253 832.983 L147.605 832.983 M133.728 832.983 L133.728 827.126 L141.144 827.126 L141.144 832.983 L133.728 832.983 Z" fill="#000000" fill-rule="nonzero" fill-opacity="1" /><path clip-path="url(#clip620)" d="M154.448 787.118 Q150.502 784.922 148.624 781.866 Q146.746 778.811 146.746 774.673 Q146.746 769.103 150.661 766.079 Q154.544 763.055 161.737 763.055 L183.253 763.055 L183.253 768.944 L161.928 768.944 Q156.804 768.944 154.321 770.758 Q151.838 772.572 151.838 776.296 Q151.838 780.848 154.862 783.489 Q157.886 786.131 163.106 786.131 L183.253 786.131 L183.253 792.019 L161.928 792.019 Q156.772 792.019 154.321 793.834 Q151.838 795.648 151.838 799.436 Q151.838 803.923 154.894 806.565 Q157.918 809.207 163.106 809.207 L183.253 809.207 L183.253 815.095 L147.605 815.095 L147.605 809.207 L153.143 809.207 Q149.865 807.202 148.305 804.401 Q146.746 801.6 146.746 797.749 Q146.746 793.866 148.719 791.16 Q150.693 788.423 154.448 787.118 Z" fill="#000000" fill-rule="nonzero" fill-opacity="1" /><path clip-path="url(#clip620)" d="M163.965 720.883 L166.83 720.883 L166.83 747.81 Q172.877 747.428 176.06 744.181 Q179.211 740.903 179.211 735.078 Q179.211 731.704 178.383 728.553 Q177.556 725.371 175.901 722.251 L181.439 722.251 Q182.776 725.402 183.476 728.713 Q184.176 732.023 184.176 735.428 Q184.176 743.958 179.211 748.955 Q174.246 753.921 165.779 753.921 Q157.026 753.921 151.902 749.21 Q146.746 744.468 146.746 736.447 Q146.746 729.254 151.393 725.084 Q156.008 720.883 163.965 720.883 M162.246 726.739 Q157.44 726.803 154.576 729.445 Q151.711 732.055 151.711 736.383 Q151.711 741.285 154.48 744.245 Q157.249 747.173 162.278 747.619 L162.246 726.739 Z" fill="#000000" fill-rule="nonzero" fill-opacity="1" /><path clip-path="url(#clip620)" d="M133.792 676.482 Q141.112 680.747 148.274 682.816 Q155.435 684.885 162.787 684.885 Q170.14 684.885 177.365 682.816 Q184.558 680.715 191.847 676.482 L191.847 681.574 Q184.367 686.349 177.142 688.736 Q169.917 691.091 162.787 691.091 Q155.69 691.091 148.496 688.736 Q141.303 686.381 133.792 681.574 L133.792 676.482 Z" fill="#000000" fill-rule="nonzero" fill-opacity="1" /><path clip-path="url(#clip620)" d="M154.448 637.365 Q150.502 635.168 148.624 632.113 Q146.746 629.057 146.746 624.92 Q146.746 619.35 150.661 616.326 Q154.544 613.302 161.737 613.302 L183.253 613.302 L183.253 619.191 L161.928 619.191 Q156.804 619.191 154.321 621.005 Q151.838 622.819 151.838 626.543 Q151.838 631.094 154.862 633.736 Q157.886 636.378 163.106 636.378 L183.253 636.378 L183.253 642.266 L161.928 642.266 Q156.772 642.266 154.321 644.08 Q151.838 645.895 151.838 649.682 Q151.838 654.17 154.894 656.812 Q157.918 659.454 163.106 659.454 L183.253 659.454 L183.253 665.342 L147.605 665.342 L147.605 659.454 L153.143 659.454 Q149.865 657.448 148.305 654.648 Q146.746 651.847 146.746 647.995 Q146.746 644.112 148.719 641.407 Q150.693 638.67 154.448 637.365 Z" fill="#000000" fill-rule="nonzero" fill-opacity="1" /><path clip-path="url(#clip620)" d="M148.656 578.896 L154.194 578.896 Q152.921 581.378 152.284 584.052 Q151.647 586.725 151.647 589.59 Q151.647 593.95 152.984 596.147 Q154.321 598.311 156.995 598.311 Q159.032 598.311 160.209 596.751 Q161.355 595.192 162.405 590.481 L162.851 588.476 Q164.188 582.238 166.639 579.628 Q169.058 576.986 173.418 576.986 Q178.383 576.986 181.28 580.933 Q184.176 584.848 184.176 591.723 Q184.176 594.587 183.603 597.706 Q183.062 600.794 181.948 604.231 L175.901 604.231 Q177.588 600.985 178.447 597.834 Q179.275 594.683 179.275 591.595 Q179.275 587.457 177.874 585.229 Q176.442 583.001 173.864 583.001 Q171.477 583.001 170.203 584.625 Q168.93 586.216 167.753 591.659 L167.275 593.696 Q166.129 599.139 163.774 601.558 Q161.387 603.976 157.249 603.976 Q152.22 603.976 149.483 600.412 Q146.746 596.847 146.746 590.29 Q146.746 587.044 147.223 584.179 Q147.701 581.315 148.656 578.896 Z" fill="#000000" fill-rule="nonzero" fill-opacity="1" /><path clip-path="url(#clip620)" d="M133.792 568.583 L133.792 563.491 Q141.303 558.716 148.496 556.361 Q155.69 553.974 162.787 553.974 Q169.917 553.974 177.142 556.361 Q184.367 558.716 191.847 563.491 L191.847 568.583 Q184.558 564.35 177.365 562.281 Q170.14 560.18 162.787 560.18 Q155.435 560.18 148.274 562.281 Q141.112 564.35 133.792 568.583 Z" fill="#000000" fill-rule="nonzero" fill-opacity="1" /><path clip-path="url(#clip620)" d="M852.574 33.264 L887.33 33.264 L887.33 40.1505 L860.756 40.1505 L860.756 57.9745 L884.738 57.9745 L884.738 64.8611 L860.756 64.8611 L860.756 93.744 L852.574 93.744 L852.574 33.264 Z" fill="#000000" fill-rule="nonzero" fill-opacity="1" /><path clip-path="url(#clip620)" d="M914.593 53.5995 Q908.598 53.5995 905.114 58.2986 Q901.63 62.9571 901.63 71.0994 Q901.63 79.2418 905.073 83.9408 Q908.557 88.5994 914.593 88.5994 Q920.548 88.5994 924.031 83.9003 Q927.515 79.2013 927.515 71.0994 Q927.515 63.0381 924.031 58.3391 Q920.548 53.5995 914.593 53.5995 M914.593 47.2801 Q924.315 47.2801 929.865 53.5995 Q935.415 59.9189 935.415 71.0994 Q935.415 82.2394 929.865 88.5994 Q924.315 94.9188 914.593 94.9188 Q904.83 94.9188 899.28 88.5994 Q893.771 82.2394 893.771 71.0994 Q893.771 59.9189 899.28 53.5995 Q904.83 47.2801 914.593 47.2801 Z" fill="#000000" fill-rule="nonzero" fill-opacity="1" /><path clip-path="url(#clip620)" d="M974.06 55.3414 Q972.804 54.6123 971.306 54.2882 Q969.847 53.9236 968.065 53.9236 Q961.745 53.9236 958.343 58.0555 Q954.98 62.1469 954.98 69.8437 L954.98 93.744 L947.486 93.744 L947.486 48.3739 L954.98 48.3739 L954.98 55.4224 Q957.33 51.2905 961.097 49.3056 Q964.865 47.2801 970.252 47.2801 Q971.022 47.2801 971.954 47.4017 Q972.885 47.4827 974.02 47.6852 L974.06 55.3414 Z" fill="#000000" fill-rule="nonzero" fill-opacity="1" /><path clip-path="url(#clip620)" d="M977.544 48.3739 L984.998 48.3739 L994.315 83.7788 L1003.59 48.3739 L1012.38 48.3739 L1021.7 83.7788 L1030.98 48.3739 L1038.43 48.3739 L1026.56 93.744 L1017.77 93.744 L1008.01 56.5567 L998.204 93.744 L989.413 93.744 L977.544 48.3739 Z" fill="#000000" fill-rule="nonzero" fill-opacity="1" /><path clip-path="url(#clip620)" d="M1070.35 70.9374 Q1061.32 70.9374 1057.83 73.0034 Q1054.35 75.0693 1054.35 80.0519 Q1054.35 84.0218 1056.94 86.3714 Q1059.57 88.6804 1064.07 88.6804 Q1070.27 88.6804 1074 84.3054 Q1077.76 79.8899 1077.76 72.5983 L1077.76 70.9374 L1070.35 70.9374 M1085.22 67.8587 L1085.22 93.744 L1077.76 93.744 L1077.76 86.8575 Q1075.21 90.9894 1071.4 92.9743 Q1067.6 94.9188 1062.09 94.9188 Q1055.12 94.9188 1050.99 91.0299 Q1046.9 87.1005 1046.9 80.5381 Q1046.9 72.8818 1052 68.993 Q1057.14 65.1041 1067.31 65.1041 L1077.76 65.1041 L1077.76 64.3749 Q1077.76 59.2303 1074.36 56.4352 Q1071 53.5995 1064.88 53.5995 Q1060.99 53.5995 1057.31 54.5312 Q1053.62 55.463 1050.22 57.3264 L1050.22 50.4398 Q1054.31 48.86 1058.16 48.0903 Q1062.01 47.2801 1065.65 47.2801 Q1075.49 47.2801 1080.36 52.3843 Q1085.22 57.4884 1085.22 67.8587 Z" fill="#000000" fill-rule="nonzero" fill-opacity="1" /><path clip-path="url(#clip620)" d="M1126.86 55.3414 Q1125.6 54.6123 1124.11 54.2882 Q1122.65 53.9236 1120.86 53.9236 Q1114.55 53.9236 1111.14 58.0555 Q1107.78 62.1469 1107.78 69.8437 L1107.78 93.744 L1100.29 93.744 L1100.29 48.3739 L1107.78 48.3739 L1107.78 55.4224 Q1110.13 51.2905 1113.9 49.3056 Q1117.66 47.2801 1123.05 47.2801 Q1123.82 47.2801 1124.75 47.4017 Q1125.69 47.4827 1126.82 47.6852 L1126.86 55.3414 Z" fill="#000000" fill-rule="nonzero" fill-opacity="1" /><path clip-path="url(#clip620)" d="M1163.08 55.2604 L1163.08 30.7119 L1170.53 30.7119 L1170.53 93.744 L1163.08 93.744 L1163.08 86.9385 Q1160.73 90.9894 1157.12 92.9743 Q1153.56 94.9188 1148.53 94.9188 Q1140.31 94.9188 1135.12 88.3563 Q1129.98 81.7938 1129.98 71.0994 Q1129.98 60.4051 1135.12 53.8426 Q1140.31 47.2801 1148.53 47.2801 Q1153.56 47.2801 1157.12 49.2651 Q1160.73 51.2095 1163.08 55.2604 M1137.68 71.0994 Q1137.68 79.3228 1141.04 84.0218 Q1144.44 88.6804 1150.36 88.6804 Q1156.27 88.6804 1159.67 84.0218 Q1163.08 79.3228 1163.08 71.0994 Q1163.08 62.8761 1159.67 58.2176 Q1156.27 53.5185 1150.36 53.5185 Q1144.44 53.5185 1141.04 58.2176 Q1137.68 62.8761 1137.68 71.0994 Z" fill="#000000" fill-rule="nonzero" fill-opacity="1" /><path clip-path="url(#clip620)" d="M1182.11 67.6967 L1203.95 67.6967 L1203.95 74.3402 L1182.11 74.3402 L1182.11 67.6967 Z" fill="#000000" fill-rule="nonzero" fill-opacity="1" /><path clip-path="url(#clip620)" d="M1221.37 64.8611 L1221.37 87.0195 L1234.49 87.0195 Q1241.1 87.0195 1244.26 84.3054 Q1247.46 81.5508 1247.46 75.92 Q1247.46 70.2488 1244.26 67.5752 Q1241.1 64.8611 1234.49 64.8611 L1221.37 64.8611 M1221.37 39.9885 L1221.37 58.2176 L1233.48 58.2176 Q1239.48 58.2176 1242.39 55.9896 Q1245.35 53.7211 1245.35 49.103 Q1245.35 44.5255 1242.39 42.257 Q1239.48 39.9885 1233.48 39.9885 L1221.37 39.9885 M1213.19 33.264 L1234.09 33.264 Q1243.45 33.264 1248.51 37.1529 Q1253.57 41.0417 1253.57 48.2118 Q1253.57 53.7616 1250.98 57.0428 Q1248.39 60.324 1243.36 61.1342 Q1249.4 62.4305 1252.72 66.5624 Q1256.08 70.6538 1256.08 76.8112 Q1256.08 84.913 1250.57 89.3285 Q1245.07 93.744 1234.9 93.744 L1213.19 93.744 L1213.19 33.264 Z" fill="#000000" fill-rule="nonzero" fill-opacity="1" /><path clip-path="url(#clip620)" d="M1290.4 70.9374 Q1281.36 70.9374 1277.88 73.0034 Q1274.39 75.0693 1274.39 80.0519 Q1274.39 84.0218 1276.99 86.3714 Q1279.62 88.6804 1284.12 88.6804 Q1290.31 88.6804 1294.04 84.3054 Q1297.81 79.8899 1297.81 72.5983 L1297.81 70.9374 L1290.4 70.9374 M1305.26 67.8587 L1305.26 93.744 L1297.81 93.744 L1297.81 86.8575 Q1295.26 90.9894 1291.45 92.9743 Q1287.64 94.9188 1282.13 94.9188 Q1275.16 94.9188 1271.03 91.0299 Q1266.94 87.1005 1266.94 80.5381 Q1266.94 72.8818 1272.04 68.993 Q1277.19 65.1041 1287.36 65.1041 L1297.81 65.1041 L1297.81 64.3749 Q1297.81 59.2303 1294.41 56.4352 Q1291.04 53.5995 1284.93 53.5995 Q1281.04 53.5995 1277.35 54.5312 Q1273.67 55.463 1270.26 57.3264 L1270.26 50.4398 Q1274.35 48.86 1278.2 48.0903 Q1282.05 47.2801 1285.7 47.2801 Q1295.54 47.2801 1300.4 52.3843 Q1305.26 57.4884 1305.26 67.8587 Z" fill="#000000" fill-rule="nonzero" fill-opacity="1" /><path clip-path="url(#clip620)" d="M1353.27 50.1158 L1353.27 57.0833 Q1350.11 55.3414 1346.91 54.4907 Q1343.75 53.5995 1340.5 53.5995 Q1333.25 53.5995 1329.24 58.2176 Q1325.23 62.7951 1325.23 71.0994 Q1325.23 79.4038 1329.24 84.0218 Q1333.25 88.5994 1340.5 88.5994 Q1343.75 88.5994 1346.91 87.7487 Q1350.11 86.8575 1353.27 85.1156 L1353.27 92.0021 Q1350.15 93.4604 1346.78 94.1896 Q1343.46 94.9188 1339.69 94.9188 Q1329.45 94.9188 1323.41 88.4778 Q1317.37 82.0369 1317.37 71.0994 Q1317.37 60 1323.45 53.64 Q1329.57 47.2801 1340.18 47.2801 Q1343.62 47.2801 1346.91 48.0093 Q1350.19 48.6979 1353.27 50.1158 Z" fill="#000000" fill-rule="nonzero" fill-opacity="1" /><path clip-path="url(#clip620)" d="M1365.94 30.7119 L1373.44 30.7119 L1373.44 67.9397 L1395.68 48.3739 L1405.2 48.3739 L1381.14 69.6006 L1406.21 93.744 L1396.49 93.744 L1373.44 71.5856 L1373.44 93.744 L1365.94 93.744 L1365.94 30.7119 Z" fill="#000000" fill-rule="nonzero" fill-opacity="1" /><path clip-path="url(#clip620)" d="M1409.94 48.3739 L1417.39 48.3739 L1426.71 83.7788 L1435.98 48.3739 L1444.78 48.3739 L1454.09 83.7788 L1463.37 48.3739 L1470.82 48.3739 L1458.95 93.744 L1450.16 93.744 L1440.4 56.5567 L1430.6 93.744 L1421.81 93.744 L1409.94 48.3739 Z" fill="#000000" fill-rule="nonzero" fill-opacity="1" /><path clip-path="url(#clip620)" d="M1502.74 70.9374 Q1493.71 70.9374 1490.23 73.0034 Q1486.74 75.0693 1486.74 80.0519 Q1486.74 84.0218 1489.34 86.3714 Q1491.97 88.6804 1496.46 88.6804 Q1502.66 88.6804 1506.39 84.3054 Q1510.16 79.8899 1510.16 72.5983 L1510.16 70.9374 L1502.74 70.9374 M1517.61 67.8587 L1517.61 93.744 L1510.16 93.744 L1510.16 86.8575 Q1507.6 90.9894 1503.8 92.9743 Q1499.99 94.9188 1494.48 94.9188 Q1487.51 94.9188 1483.38 91.0299 Q1479.29 87.1005 1479.29 80.5381 Q1479.29 72.8818 1484.39 68.993 Q1489.54 65.1041 1499.71 65.1041 L1510.16 65.1041 L1510.16 64.3749 Q1510.16 59.2303 1506.75 56.4352 Q1503.39 53.5995 1497.27 53.5995 Q1493.39 53.5995 1489.7 54.5312 Q1486.01 55.463 1482.61 57.3264 L1482.61 50.4398 Q1486.7 48.86 1490.55 48.0903 Q1494.4 47.2801 1498.04 47.2801 Q1507.89 47.2801 1512.75 52.3843 Q1517.61 57.4884 1517.61 67.8587 Z" fill="#000000" fill-rule="nonzero" fill-opacity="1" /><path clip-path="url(#clip620)" d="M1559.25 55.3414 Q1558 54.6123 1556.5 54.2882 Q1555.04 53.9236 1553.26 53.9236 Q1546.94 53.9236 1543.54 58.0555 Q1540.17 62.1469 1540.17 69.8437 L1540.17 93.744 L1532.68 93.744 L1532.68 48.3739 L1540.17 48.3739 L1540.17 55.4224 Q1542.52 51.2905 1546.29 49.3056 Q1550.06 47.2801 1555.45 47.2801 Q1556.22 47.2801 1557.15 47.4017 Q1558.08 47.4827 1559.21 47.6852 L1559.25 55.3414 Z" fill="#000000" fill-rule="nonzero" fill-opacity="1" /><path clip-path="url(#clip620)" d="M1595.47 55.2604 L1595.47 30.7119 L1602.92 30.7119 L1602.92 93.744 L1595.47 93.744 L1595.47 86.9385 Q1593.12 90.9894 1589.51 92.9743 Q1585.95 94.9188 1580.93 94.9188 Q1572.7 94.9188 1567.52 88.3563 Q1562.37 81.7938 1562.37 71.0994 Q1562.37 60.4051 1567.52 53.8426 Q1572.7 47.2801 1580.93 47.2801 Q1585.95 47.2801 1589.51 49.2651 Q1593.12 51.2095 1595.47 55.2604 M1570.07 71.0994 Q1570.07 79.3228 1573.43 84.0218 Q1576.83 88.6804 1582.75 88.6804 Q1588.66 88.6804 1592.07 84.0218 Q1595.47 79.3228 1595.47 71.0994 Q1595.47 62.8761 1592.07 58.2176 Q1588.66 53.5185 1582.75 53.5185 Q1576.83 53.5185 1573.43 58.2176 Q1570.07 62.8761 1570.07 71.0994 Z" fill="#000000" fill-rule="nonzero" fill-opacity="1" /><path clip-path="url(#clip620)" d="M821.24 121.513 Q815.812 130.83 813.178 139.945 Q810.545 149.059 810.545 158.417 Q810.545 167.774 813.178 176.97 Q815.852 186.125 821.24 195.401 L814.758 195.401 Q808.682 185.882 805.644 176.686 Q802.646 167.491 802.646 158.417 Q802.646 149.383 805.644 140.228 Q808.641 131.073 814.758 121.513 L821.24 121.513 Z" fill="#000000" fill-rule="nonzero" fill-opacity="1" /><path clip-path="url(#clip620)" d="M844.208 130.709 L844.208 177.739 L854.093 177.739 Q866.61 177.739 872.403 172.068 Q878.236 166.397 878.236 154.163 Q878.236 142.011 872.403 136.38 Q866.61 130.709 854.093 130.709 L844.208 130.709 M836.026 123.984 L852.837 123.984 Q870.418 123.984 878.641 131.316 Q886.864 138.608 886.864 154.163 Q886.864 169.8 878.601 177.132 Q870.337 184.464 852.837 184.464 L836.026 184.464 L836.026 123.984 Z" fill="#000000" fill-rule="nonzero" fill-opacity="1" /><path clip-path="url(#clip620)" d="M900.556 146.791 L952.489 146.791 L952.489 153.596 L900.556 153.596 L900.556 146.791 M900.556 163.318 L952.489 163.318 L952.489 170.205 L900.556 170.205 L900.556 163.318 Z" fill="#000000" fill-rule="nonzero" fill-opacity="1" /><path clip-path="url(#clip620)" d="M971.569 177.577 L984.937 177.577 L984.937 131.438 L970.394 134.354 L970.394 126.901 L984.856 123.984 L993.039 123.984 L993.039 177.577 L1006.41 177.577 L1006.41 184.464 L971.569 184.464 L971.569 177.577 Z" fill="#000000" fill-rule="nonzero" fill-opacity="1" /><path clip-path="url(#clip620)" d="M1040.43 129.372 Q1034.11 129.372 1030.91 135.61 Q1027.75 141.808 1027.75 154.285 Q1027.75 166.721 1030.91 172.959 Q1034.11 179.157 1040.43 179.157 Q1046.79 179.157 1049.95 172.959 Q1053.15 166.721 1053.15 154.285 Q1053.15 141.808 1049.95 135.61 Q1046.79 129.372 1040.43 129.372 M1040.43 122.89 Q1050.6 122.89 1055.95 130.952 Q1061.34 138.972 1061.34 154.285 Q1061.34 169.557 1055.95 177.618 Q1050.6 185.639 1040.43 185.639 Q1030.27 185.639 1024.88 177.618 Q1019.53 169.557 1019.53 154.285 Q1019.53 138.972 1024.88 130.952 Q1030.27 122.89 1040.43 122.89 Z" fill="#000000" fill-rule="nonzero" fill-opacity="1" /><path clip-path="url(#clip620)" d="M1076.57 174.175 L1085.12 174.175 L1085.12 181.142 L1078.47 194.105 L1073.25 194.105 L1076.57 181.142 L1076.57 174.175 Z" fill="#000000" fill-rule="nonzero" fill-opacity="1" /><path clip-path="url(#clip620)" d="M1092.97 123.984 L1144.14 123.984 L1144.14 130.871 L1122.67 130.871 L1122.67 184.464 L1114.44 184.464 L1114.44 130.871 L1092.97 130.871 L1092.97 123.984 Z" fill="#000000" fill-rule="nonzero" fill-opacity="1" /><path clip-path="url(#clip620)" d="M1152.68 146.791 L1204.62 146.791 L1204.62 153.596 L1152.68 153.596 L1152.68 146.791 M1152.68 163.318 L1204.62 163.318 L1204.62 170.205 L1152.68 170.205 L1152.68 163.318 Z" fill="#000000" fill-rule="nonzero" fill-opacity="1" /><path clip-path="url(#clip620)" d="M1229.33 177.577 L1257.89 177.577 L1257.89 184.464 L1219.48 184.464 L1219.48 177.577 Q1224.14 172.757 1232.16 164.655 Q1240.22 156.513 1242.29 154.163 Q1246.22 149.748 1247.76 146.71 Q1249.34 143.631 1249.34 140.674 Q1249.34 135.853 1245.94 132.815 Q1242.57 129.777 1237.15 129.777 Q1233.3 129.777 1229 131.114 Q1224.75 132.45 1219.89 135.164 L1219.89 126.901 Q1224.83 124.916 1229.13 123.903 Q1233.42 122.89 1236.98 122.89 Q1246.38 122.89 1251.97 127.589 Q1257.56 132.288 1257.56 140.147 Q1257.56 143.874 1256.14 147.236 Q1254.77 150.558 1251.08 155.095 Q1250.07 156.27 1244.64 161.9 Q1239.21 167.491 1229.33 177.577 Z" fill="#000000" fill-rule="nonzero" fill-opacity="1" /><path clip-path="url(#clip620)" d="M1292.56 129.372 Q1286.24 129.372 1283.04 135.61 Q1279.88 141.808 1279.88 154.285 Q1279.88 166.721 1283.04 172.959 Q1286.24 179.157 1292.56 179.157 Q1298.92 179.157 1302.08 172.959 Q1305.28 166.721 1305.28 154.285 Q1305.28 141.808 1302.08 135.61 Q1298.92 129.372 1292.56 129.372 M1292.56 122.89 Q1302.73 122.89 1308.08 130.952 Q1313.47 138.972 1313.47 154.285 Q1313.47 169.557 1308.08 177.618 Q1302.73 185.639 1292.56 185.639 Q1282.39 185.639 1277.01 177.618 Q1271.66 169.557 1271.66 154.285 Q1271.66 138.972 1277.01 130.952 Q1282.39 122.89 1292.56 122.89 Z" fill="#000000" fill-rule="nonzero" fill-opacity="1" /><path clip-path="url(#clip620)" d="M1345.35 129.372 Q1339.03 129.372 1335.83 135.61 Q1332.67 141.808 1332.67 154.285 Q1332.67 166.721 1335.83 172.959 Q1339.03 179.157 1345.35 179.157 Q1351.71 179.157 1354.87 172.959 Q1358.07 166.721 1358.07 154.285 Q1358.07 141.808 1354.87 135.61 Q1351.71 129.372 1345.35 129.372 M1345.35 122.89 Q1355.51 122.89 1360.86 130.952 Q1366.25 138.972 1366.25 154.285 Q1366.25 169.557 1360.86 177.618 Q1355.51 185.639 1345.35 185.639 Q1335.18 185.639 1329.79 177.618 Q1324.44 169.557 1324.44 154.285 Q1324.44 138.972 1329.79 130.952 Q1335.18 122.89 1345.35 122.89 Z" fill="#000000" fill-rule="nonzero" fill-opacity="1" /><path clip-path="url(#clip620)" d="M1381.48 174.175 L1390.03 174.175 L1390.03 181.142 L1383.38 194.105 L1378.16 194.105 L1381.48 181.142 L1381.48 174.175 Z" fill="#000000" fill-rule="nonzero" fill-opacity="1" /><path clip-path="url(#clip620)" d="M1406.27 123.984 L1414.45 123.984 L1414.45 149.545 L1441.6 123.984 L1452.13 123.984 L1422.11 152.178 L1454.27 184.464 L1443.5 184.464 L1414.45 155.338 L1414.45 184.464 L1406.27 184.464 L1406.27 123.984 Z" fill="#000000" fill-rule="nonzero" fill-opacity="1" /><path clip-path="url(#clip620)" d="M1461.32 146.791 L1513.26 146.791 L1513.26 153.596 L1461.32 153.596 L1461.32 146.791 M1461.32 163.318 L1513.26 163.318 L1513.26 170.205 L1461.32 170.205 L1461.32 163.318 Z" fill="#000000" fill-rule="nonzero" fill-opacity="1" /><path clip-path="url(#clip620)" d="M1531 123.984 L1563.12 123.984 L1563.12 130.871 L1538.49 130.871 L1538.49 145.697 Q1540.28 145.089 1542.06 144.806 Q1543.84 144.482 1545.62 144.482 Q1555.75 144.482 1561.66 150.031 Q1567.58 155.581 1567.58 165.06 Q1567.58 174.823 1561.5 180.251 Q1555.43 185.639 1544.37 185.639 Q1540.56 185.639 1536.59 184.991 Q1532.66 184.342 1528.45 183.046 L1528.45 174.823 Q1532.09 176.808 1535.98 177.78 Q1539.87 178.752 1544.2 178.752 Q1551.21 178.752 1555.3 175.066 Q1559.4 171.38 1559.4 165.06 Q1559.4 158.741 1555.3 155.054 Q1551.21 151.368 1544.2 151.368 Q1540.92 151.368 1537.64 152.097 Q1534.4 152.826 1531 154.366 L1531 123.984 Z" fill="#000000" fill-rule="nonzero" fill-opacity="1" /><path clip-path="url(#clip620)" d="M1601.2 129.372 Q1594.88 129.372 1591.68 135.61 Q1588.52 141.808 1588.52 154.285 Q1588.52 166.721 1591.68 172.959 Q1594.88 179.157 1601.2 179.157 Q1607.56 179.157 1610.72 172.959 Q1613.92 166.721 1613.92 154.285 Q1613.92 141.808 1610.72 135.61 Q1607.56 129.372 1601.2 129.372 M1601.2 122.89 Q1611.37 122.89 1616.72 130.952 Q1622.1 138.972 1622.1 154.285 Q1622.1 169.557 1616.72 177.618 Q1611.37 185.639 1601.2 185.639 Q1591.03 185.639 1585.65 177.618 Q1580.3 169.557 1580.3 154.285 Q1580.3 138.972 1585.65 130.952 Q1591.03 122.89 1601.2 122.89 Z" fill="#000000" fill-rule="nonzero" fill-opacity="1" /><path clip-path="url(#clip620)" d="M1634.26 121.513 L1640.74 121.513 Q1646.81 131.073 1649.81 140.228 Q1652.85 149.383 1652.85 158.417 Q1652.85 167.491 1649.81 176.686 Q1646.81 185.882 1640.74 195.401 L1634.26 195.401 Q1639.64 186.125 1642.28 176.97 Q1644.95 167.774 1644.95 158.417 Q1644.95 149.059 1642.28 139.945 Q1639.64 130.83 1634.26 121.513 Z" fill="#000000" fill-rule="nonzero" fill-opacity="1" /><polyline clip-path="url(#clip622)" style="stroke:#0000ff; stroke-linecap:round; stroke-linejoin:round; stroke-width:6; stroke-opacity:1; fill:none" points="413.666,1201.96 685.027,1141.62 956.387,1086.71 1227.75,1009.29 1499.11,938.297 1770.47,878.258 2041.83,811.634 "/>
<circle clip-path="url(#clip622)" cx="413.666" cy="1201.96" r="14.4" fill="#0000ff" fill-rule="evenodd" fill-opacity="1" stroke="#000000" stroke-opacity="1" stroke-width="3.2"/>
<circle clip-path="url(#clip622)" cx="685.027" cy="1141.62" r="14.4" fill="#0000ff" fill-rule="evenodd" fill-opacity="1" stroke="#000000" stroke-opacity="1" stroke-width="3.2"/>
<circle clip-path="url(#clip622)" cx="956.387" cy="1086.71" r="14.4" fill="#0000ff" fill-rule="evenodd" fill-opacity="1" stroke="#000000" stroke-opacity="1" stroke-width="3.2"/>
<circle clip-path="url(#clip622)" cx="1227.75" cy="1009.29" r="14.4" fill="#0000ff" fill-rule="evenodd" fill-opacity="1" stroke="#000000" stroke-opacity="1" stroke-width="3.2"/>
<circle clip-path="url(#clip622)" cx="1499.11" cy="938.297" r="14.4" fill="#0000ff" fill-rule="evenodd" fill-opacity="1" stroke="#000000" stroke-opacity="1" stroke-width="3.2"/>
<circle clip-path="url(#clip622)" cx="1770.47" cy="878.258" r="14.4" fill="#0000ff" fill-rule="evenodd" fill-opacity="1" stroke="#000000" stroke-opacity="1" stroke-width="3.2"/>
<circle clip-path="url(#clip622)" cx="2041.83" cy="811.634" r="14.4" fill="#0000ff" fill-rule="evenodd" fill-opacity="1" stroke="#000000" stroke-opacity="1" stroke-width="3.2"/>
<polyline clip-path="url(#clip622)" style="stroke:#008000; stroke-linecap:round; stroke-linejoin:round; stroke-width:6; stroke-opacity:1; fill:none" stroke-dasharray="24, 12, 3, 12" points="413.666,1117.92 685.027,1014.8 956.387,903.237 1227.75,815.986 1499.11,690.03 1770.47,434.233 2041.83,283.465 "/>
<path clip-path="url(#clip622)" d="M429.666 1101.92 L397.666 1101.92 L413.666 1133.92 L429.666 1101.92 Z" fill="#008000" fill-rule="evenodd" fill-opacity="1" stroke="#000000" stroke-opacity="1" stroke-width="3.2"/>
<path clip-path="url(#clip622)" d="M701.027 998.8 L669.027 998.8 L685.027 1030.8 L701.027 998.8 Z" fill="#008000" fill-rule="evenodd" fill-opacity="1" stroke="#000000" stroke-opacity="1" stroke-width="3.2"/>
<path clip-path="url(#clip622)" d="M972.387 887.237 L940.387 887.237 L956.387 919.237 L972.387 887.237 Z" fill="#008000" fill-rule="evenodd" fill-opacity="1" stroke="#000000" stroke-opacity="1" stroke-width="3.2"/>
<path clip-path="url(#clip622)" d="M1243.75 799.986 L1211.75 799.986 L1227.75 831.986 L1243.75 799.986 Z" fill="#008000" fill-rule="evenodd" fill-opacity="1" stroke="#000000" stroke-opacity="1" stroke-width="3.2"/>
<path clip-path="url(#clip622)" d="M1515.11 674.03 L1483.11 674.03 L1499.11 706.03 L1515.11 674.03 Z" fill="#008000" fill-rule="evenodd" fill-opacity="1" stroke="#000000" stroke-opacity="1" stroke-width="3.2"/>
<path clip-path="url(#clip622)" d="M1786.47 418.233 L1754.47 418.233 L1770.47 450.233 L1786.47 418.233 Z" fill="#008000" fill-rule="evenodd" fill-opacity="1" stroke="#000000" stroke-opacity="1" stroke-width="3.2"/>
<path clip-path="url(#clip622)" d="M2057.83 267.465 L2025.83 267.465 L2041.83 299.465 L2057.83 267.465 Z" fill="#008000" fill-rule="evenodd" fill-opacity="1" stroke="#000000" stroke-opacity="1" stroke-width="3.2"/>
<polyline clip-path="url(#clip622)" style="stroke:#ff0000; stroke-linecap:round; stroke-linejoin:round; stroke-width:6; stroke-opacity:1; fill:none" stroke-dasharray="24, 12, 3, 12, 3, 12" points="413.666,859.224 685.027,769.251 956.387,703.193 1227.75,600.305 1499.11,532.55 1770.47,353.184 2041.83,371.544 "/>
<path clip-path="url(#clip622)" d="M413.666 843.224 L397.666 875.224 L429.666 875.224 L413.666 843.224 Z" fill="#ff0000" fill-rule="evenodd" fill-opacity="1" stroke="#000000" stroke-opacity="1" stroke-width="3.2"/>
<path clip-path="url(#clip622)" d="M685.027 753.251 L669.027 785.251 L701.027 785.251 L685.027 753.251 Z" fill="#ff0000" fill-rule="evenodd" fill-opacity="1" stroke="#000000" stroke-opacity="1" stroke-width="3.2"/>
<path clip-path="url(#clip622)" d="M956.387 687.193 L940.387 719.193 L972.387 719.193 L956.387 687.193 Z" fill="#ff0000" fill-rule="evenodd" fill-opacity="1" stroke="#000000" stroke-opacity="1" stroke-width="3.2"/>
<path clip-path="url(#clip622)" d="M1227.75 584.305 L1211.75 616.305 L1243.75 616.305 L1227.75 584.305 Z" fill="#ff0000" fill-rule="evenodd" fill-opacity="1" stroke="#000000" stroke-opacity="1" stroke-width="3.2"/>
<path clip-path="url(#clip622)" d="M1499.11 516.55 L1483.11 548.55 L1515.11 548.55 L1499.11 516.55 Z" fill="#ff0000" fill-rule="evenodd" fill-opacity="1" stroke="#000000" stroke-opacity="1" stroke-width="3.2"/>
<path clip-path="url(#clip622)" d="M1770.47 337.184 L1754.47 369.184 L1786.47 369.184 L1770.47 337.184 Z" fill="#ff0000" fill-rule="evenodd" fill-opacity="1" stroke="#000000" stroke-opacity="1" stroke-width="3.2"/>
<path clip-path="url(#clip622)" d="M2041.83 355.544 L2025.83 387.544 L2057.83 387.544 L2041.83 355.544 Z" fill="#ff0000" fill-rule="evenodd" fill-opacity="1" stroke="#000000" stroke-opacity="1" stroke-width="3.2"/>
<path clip-path="url(#clip620)" d="M383.515 524.202 L877.522 524.202 L877.522 316.842 L383.515 316.842  Z" fill="#ffffff" fill-rule="evenodd" fill-opacity="1"/>
<polyline clip-path="url(#clip620)" style="stroke:#000000; stroke-linecap:round; stroke-linejoin:round; stroke-width:4; stroke-opacity:1; fill:none" points="383.515,524.202 877.522,524.202 877.522,316.842 383.515,316.842 383.515,524.202 "/>
<polyline clip-path="url(#clip620)" style="stroke:#0000ff; stroke-linecap:round; stroke-linejoin:round; stroke-width:6; stroke-opacity:1; fill:none" points="403.616,368.682 524.22,368.682 "/>
<circle clip-path="url(#clip620)" cx="463.918" cy="368.682" r="16.7507" fill="#0000ff" fill-rule="evenodd" fill-opacity="1" stroke="#000000" stroke-opacity="1" stroke-width="4.55111"/>
<path clip-path="url(#clip620)" d="M544.321 351.402 L548.997 351.402 L548.997 365.569 L565.988 365.569 L565.988 351.402 L570.664 351.402 L570.664 385.962 L565.988 385.962 L565.988 369.504 L548.997 369.504 L548.997 385.962 L544.321 385.962 L544.321 351.402 Z" fill="#000000" fill-rule="nonzero" fill-opacity="1" /><path clip-path="url(#clip620)" d="M579.969 351.402 L586.937 351.402 L595.756 374.92 L604.622 351.402 L611.589 351.402 L611.589 385.962 L607.029 385.962 L607.029 355.615 L598.117 379.319 L593.418 379.319 L584.506 355.615 L584.506 385.962 L579.969 385.962 L579.969 351.402 Z" fill="#000000" fill-rule="nonzero" fill-opacity="1" /><path clip-path="url(#clip620)" d="M620.872 351.402 L627.839 351.402 L636.659 374.92 L645.524 351.402 L652.492 351.402 L652.492 385.962 L647.932 385.962 L647.932 355.615 L639.02 379.319 L634.321 379.319 L625.409 355.615 L625.409 385.962 L620.872 385.962 L620.872 351.402 Z" fill="#000000" fill-rule="nonzero" fill-opacity="1" /><path clip-path="url(#clip620)" d="M678.117 360.8 L678.117 364.828 Q676.311 363.902 674.367 363.439 Q672.422 362.976 670.339 362.976 Q667.168 362.976 665.571 363.948 Q663.997 364.92 663.997 366.865 Q663.997 368.346 665.131 369.203 Q666.265 370.036 669.691 370.8 L671.149 371.124 Q675.686 372.096 677.584 373.879 Q679.506 375.638 679.506 378.809 Q679.506 382.42 676.635 384.527 Q673.788 386.633 668.788 386.633 Q666.705 386.633 664.436 386.217 Q662.191 385.823 659.691 385.013 L659.691 380.615 Q662.052 381.842 664.344 382.467 Q666.635 383.068 668.881 383.068 Q671.89 383.068 673.51 382.05 Q675.131 381.008 675.131 379.133 Q675.131 377.397 673.95 376.471 Q672.793 375.545 668.834 374.689 L667.353 374.342 Q663.395 373.508 661.635 371.795 Q659.876 370.059 659.876 367.05 Q659.876 363.393 662.469 361.402 Q665.061 359.411 669.83 359.411 Q672.191 359.411 674.274 359.758 Q676.358 360.106 678.117 360.8 Z" fill="#000000" fill-rule="nonzero" fill-opacity="1" /><path clip-path="url(#clip620)" d="M686.89 380.082 L691.774 380.082 L691.774 385.962 L686.89 385.962 L686.89 380.082 Z" fill="#000000" fill-rule="nonzero" fill-opacity="1" /><path clip-path="url(#clip620)" d="M701.357 360.036 L705.617 360.036 L705.617 386.425 Q705.617 391.379 703.719 393.601 Q701.844 395.823 697.654 395.823 L696.033 395.823 L696.033 392.212 L697.168 392.212 Q699.598 392.212 700.478 391.078 Q701.357 389.967 701.357 386.425 L701.357 360.036 M701.357 349.944 L705.617 349.944 L705.617 355.337 L701.357 355.337 L701.357 349.944 Z" fill="#000000" fill-rule="nonzero" fill-opacity="1" /><path clip-path="url(#clip620)" d="M714.529 349.944 L718.788 349.944 L718.788 385.962 L714.529 385.962 L714.529 349.944 Z" fill="#000000" fill-rule="nonzero" fill-opacity="1" /><polyline clip-path="url(#clip620)" style="stroke:#008000; stroke-linecap:round; stroke-linejoin:round; stroke-width:6; stroke-opacity:1; fill:none" stroke-dasharray="24, 12, 3, 12" points="403.616,420.522 524.22,420.522 "/>
<path clip-path="url(#clip620)" d="M482.53 401.91 L445.306 401.91 L463.918 439.134 L482.53 401.91 Z" fill="#008000" fill-rule="evenodd" fill-opacity="1" stroke="#000000" stroke-opacity="1" stroke-width="4.55111"/>
<path clip-path="url(#clip620)" d="M566.034 422.154 L566.034 437.802 L561.775 437.802 L561.775 422.293 Q561.775 418.612 560.34 416.784 Q558.905 414.955 556.034 414.955 Q552.585 414.955 550.594 417.154 Q548.604 419.353 548.604 423.149 L548.604 437.802 L544.321 437.802 L544.321 401.784 L548.604 401.784 L548.604 415.904 Q550.131 413.566 552.192 412.409 Q554.275 411.251 556.983 411.251 Q561.451 411.251 563.742 414.029 Q566.034 416.784 566.034 422.154 Z" fill="#000000" fill-rule="nonzero" fill-opacity="1" /><path clip-path="url(#clip620)" d="M594.715 416.853 Q596.312 413.983 598.534 412.617 Q600.756 411.251 603.765 411.251 Q607.816 411.251 610.015 414.098 Q612.214 416.922 612.214 422.154 L612.214 437.802 L607.932 437.802 L607.932 422.293 Q607.932 418.566 606.613 416.76 Q605.293 414.955 602.585 414.955 Q599.275 414.955 597.353 417.154 Q595.432 419.353 595.432 423.149 L595.432 437.802 L591.15 437.802 L591.15 422.293 Q591.15 418.543 589.83 416.76 Q588.511 414.955 585.756 414.955 Q582.492 414.955 580.571 417.177 Q578.65 419.376 578.65 423.149 L578.65 437.802 L574.367 437.802 L574.367 411.876 L578.65 411.876 L578.65 415.904 Q580.108 413.52 582.145 412.385 Q584.182 411.251 586.983 411.251 Q589.807 411.251 591.775 412.686 Q593.765 414.122 594.715 416.853 Z" fill="#000000" fill-rule="nonzero" fill-opacity="1" /><path clip-path="url(#clip620)" d="M640.895 416.853 Q642.492 413.983 644.714 412.617 Q646.936 411.251 649.946 411.251 Q653.997 411.251 656.196 414.098 Q658.395 416.922 658.395 422.154 L658.395 437.802 L654.112 437.802 L654.112 422.293 Q654.112 418.566 652.793 416.76 Q651.473 414.955 648.765 414.955 Q645.455 414.955 643.534 417.154 Q641.612 419.353 641.612 423.149 L641.612 437.802 L637.33 437.802 L637.33 422.293 Q637.33 418.543 636.011 416.76 Q634.691 414.955 631.937 414.955 Q628.673 414.955 626.751 417.177 Q624.83 419.376 624.83 423.149 L624.83 437.802 L620.548 437.802 L620.548 411.876 L624.83 411.876 L624.83 415.904 Q626.288 413.52 628.325 412.385 Q630.362 411.251 633.163 411.251 Q635.987 411.251 637.955 412.686 Q639.946 414.122 640.895 416.853 Z" fill="#000000" fill-rule="nonzero" fill-opacity="1" /><path clip-path="url(#clip620)" d="M666.89 401.784 L671.149 401.784 L671.149 437.802 L666.89 437.802 L666.89 401.784 Z" fill="#000000" fill-rule="nonzero" fill-opacity="1" /><path clip-path="url(#clip620)" d="M702.237 423.774 L702.237 425.858 L682.654 425.858 Q682.932 430.256 685.293 432.571 Q687.677 434.862 691.913 434.862 Q694.367 434.862 696.658 434.26 Q698.973 433.658 701.242 432.455 L701.242 436.483 Q698.95 437.455 696.543 437.964 Q694.135 438.473 691.658 438.473 Q685.455 438.473 681.821 434.862 Q678.209 431.251 678.209 425.094 Q678.209 418.728 681.635 415.001 Q685.084 411.251 690.918 411.251 Q696.149 411.251 699.182 414.631 Q702.237 417.987 702.237 423.774 M697.978 422.524 Q697.932 419.029 696.01 416.946 Q694.112 414.862 690.964 414.862 Q687.399 414.862 685.246 416.876 Q683.117 418.89 682.793 422.547 L697.978 422.524 Z" fill="#000000" fill-rule="nonzero" fill-opacity="1" /><path clip-path="url(#clip620)" d="M721.01 424.77 Q715.848 424.77 713.857 425.95 Q711.867 427.131 711.867 429.978 Q711.867 432.246 713.348 433.589 Q714.853 434.908 717.422 434.908 Q720.964 434.908 723.093 432.409 Q725.246 429.885 725.246 425.719 L725.246 424.77 L721.01 424.77 M729.505 423.01 L729.505 437.802 L725.246 437.802 L725.246 433.867 Q723.788 436.228 721.612 437.362 Q719.436 438.473 716.288 438.473 Q712.306 438.473 709.945 436.251 Q707.607 434.006 707.607 430.256 Q707.607 425.881 710.524 423.659 Q713.464 421.436 719.274 421.436 L725.246 421.436 L725.246 421.02 Q725.246 418.08 723.302 416.483 Q721.38 414.862 717.885 414.862 Q715.663 414.862 713.556 415.395 Q711.45 415.927 709.506 416.992 L709.506 413.057 Q711.844 412.154 714.043 411.714 Q716.242 411.251 718.325 411.251 Q723.95 411.251 726.728 414.168 Q729.505 417.085 729.505 423.01 Z" fill="#000000" fill-rule="nonzero" fill-opacity="1" /><path clip-path="url(#clip620)" d="M753.302 415.858 Q752.584 415.441 751.728 415.256 Q750.894 415.047 749.876 415.047 Q746.265 415.047 744.32 417.409 Q742.399 419.747 742.399 424.145 L742.399 437.802 L738.117 437.802 L738.117 411.876 L742.399 411.876 L742.399 415.904 Q743.741 413.543 745.894 412.409 Q748.047 411.251 751.126 411.251 Q751.566 411.251 752.098 411.321 Q752.63 411.367 753.278 411.483 L753.302 415.858 Z" fill="#000000" fill-rule="nonzero" fill-opacity="1" /><path clip-path="url(#clip620)" d="M778.487 422.154 L778.487 437.802 L774.227 437.802 L774.227 422.293 Q774.227 418.612 772.792 416.784 Q771.357 414.955 768.487 414.955 Q765.038 414.955 763.047 417.154 Q761.056 419.353 761.056 423.149 L761.056 437.802 L756.774 437.802 L756.774 411.876 L761.056 411.876 L761.056 415.904 Q762.584 413.566 764.644 412.409 Q766.727 411.251 769.436 411.251 Q773.903 411.251 776.195 414.029 Q778.487 416.784 778.487 422.154 Z" fill="#000000" fill-rule="nonzero" fill-opacity="1" /><polyline clip-path="url(#clip620)" style="stroke:#ff0000; stroke-linecap:round; stroke-linejoin:round; stroke-width:6; stroke-opacity:1; fill:none" stroke-dasharray="24, 12, 3, 12, 3, 12" points="403.616,472.362 524.22,472.362 "/>
<path clip-path="url(#clip620)" d="M463.918 453.75 L445.306 490.974 L482.53 490.974 L463.918 453.75 Z" fill="#ff0000" fill-rule="evenodd" fill-opacity="1" stroke="#000000" stroke-opacity="1" stroke-width="4.55111"/>
<path clip-path="url(#clip620)" d="M548.604 485.753 L548.604 499.503 L544.321 499.503 L544.321 463.716 L548.604 463.716 L548.604 467.651 Q549.946 465.337 551.983 464.225 Q554.043 463.091 556.891 463.091 Q561.613 463.091 564.553 466.841 Q567.516 470.591 567.516 476.702 Q567.516 482.813 564.553 486.563 Q561.613 490.313 556.891 490.313 Q554.043 490.313 551.983 489.202 Q549.946 488.068 548.604 485.753 M563.094 476.702 Q563.094 472.003 561.15 469.341 Q559.229 466.656 555.849 466.656 Q552.469 466.656 550.525 469.341 Q548.604 472.003 548.604 476.702 Q548.604 481.401 550.525 484.086 Q552.469 486.748 555.849 486.748 Q559.229 486.748 561.15 484.086 Q563.094 481.401 563.094 476.702 Z" fill="#000000" fill-rule="nonzero" fill-opacity="1" /><path clip-path="url(#clip620)" d="M584.622 466.702 Q581.196 466.702 579.205 469.387 Q577.215 472.049 577.215 476.702 Q577.215 481.355 579.182 484.04 Q581.173 486.702 584.622 486.702 Q588.025 486.702 590.015 484.017 Q592.006 481.332 592.006 476.702 Q592.006 472.096 590.015 469.411 Q588.025 466.702 584.622 466.702 M584.622 463.091 Q590.177 463.091 593.349 466.702 Q596.52 470.313 596.52 476.702 Q596.52 483.068 593.349 486.702 Q590.177 490.313 584.622 490.313 Q579.043 490.313 575.872 486.702 Q572.724 483.068 572.724 476.702 Q572.724 470.313 575.872 466.702 Q579.043 463.091 584.622 463.091 Z" fill="#000000" fill-rule="nonzero" fill-opacity="1" /><path clip-path="url(#clip620)" d="M623.765 468.693 Q625.362 465.823 627.585 464.457 Q629.807 463.091 632.816 463.091 Q636.867 463.091 639.066 465.938 Q641.265 468.762 641.265 473.994 L641.265 489.642 L636.983 489.642 L636.983 474.133 Q636.983 470.406 635.663 468.6 Q634.344 466.795 631.636 466.795 Q628.325 466.795 626.404 468.994 Q624.483 471.193 624.483 474.989 L624.483 489.642 L620.2 489.642 L620.2 474.133 Q620.2 470.383 618.881 468.6 Q617.562 466.795 614.807 466.795 Q611.543 466.795 609.622 469.017 Q607.701 471.216 607.701 474.989 L607.701 489.642 L603.418 489.642 L603.418 463.716 L607.701 463.716 L607.701 467.744 Q609.159 465.36 611.196 464.225 Q613.233 463.091 616.034 463.091 Q618.858 463.091 620.825 464.526 Q622.816 465.962 623.765 468.693 Z" fill="#000000" fill-rule="nonzero" fill-opacity="1" /><path clip-path="url(#clip620)" d="M671.936 475.614 L671.936 477.698 L652.353 477.698 Q652.631 482.096 654.992 484.411 Q657.376 486.702 661.612 486.702 Q664.066 486.702 666.358 486.1 Q668.672 485.498 670.941 484.295 L670.941 488.323 Q668.649 489.295 666.242 489.804 Q663.835 490.313 661.358 490.313 Q655.154 490.313 651.52 486.702 Q647.909 483.091 647.909 476.934 Q647.909 470.568 651.335 466.841 Q654.784 463.091 660.617 463.091 Q665.848 463.091 668.881 466.471 Q671.936 469.827 671.936 475.614 M667.677 474.364 Q667.631 470.869 665.709 468.786 Q663.811 466.702 660.663 466.702 Q657.098 466.702 654.946 468.716 Q652.816 470.73 652.492 474.387 L667.677 474.364 Z" fill="#000000" fill-rule="nonzero" fill-opacity="1" /><path clip-path="url(#clip620)" d="M695.987 476.378 Q695.987 471.749 694.066 469.202 Q692.168 466.656 688.719 466.656 Q685.293 466.656 683.371 469.202 Q681.473 471.749 681.473 476.378 Q681.473 480.985 683.371 483.531 Q685.293 486.077 688.719 486.077 Q692.168 486.077 694.066 483.531 Q695.987 480.985 695.987 476.378 M700.246 486.424 Q700.246 493.045 697.307 496.262 Q694.367 499.503 688.302 499.503 Q686.057 499.503 684.066 499.156 Q682.075 498.832 680.2 498.137 L680.2 493.994 Q682.075 495.012 683.904 495.498 Q685.733 495.985 687.631 495.985 Q691.82 495.985 693.904 493.785 Q695.987 491.61 695.987 487.188 L695.987 485.082 Q694.668 487.373 692.608 488.508 Q690.547 489.642 687.677 489.642 Q682.908 489.642 679.992 486.008 Q677.075 482.374 677.075 476.378 Q677.075 470.36 679.992 466.725 Q682.908 463.091 687.677 463.091 Q690.547 463.091 692.608 464.225 Q694.668 465.36 695.987 467.651 L695.987 463.716 L700.246 463.716 L700.246 486.424 Z" fill="#000000" fill-rule="nonzero" fill-opacity="1" /><path clip-path="url(#clip620)" d="M724.043 467.698 Q723.325 467.281 722.468 467.096 Q721.635 466.887 720.617 466.887 Q717.006 466.887 715.061 469.249 Q713.14 471.587 713.14 475.985 L713.14 489.642 L708.857 489.642 L708.857 463.716 L713.14 463.716 L713.14 467.744 Q714.482 465.383 716.635 464.249 Q718.788 463.091 721.867 463.091 Q722.306 463.091 722.839 463.161 Q723.371 463.207 724.019 463.323 L724.043 467.698 Z" fill="#000000" fill-rule="nonzero" fill-opacity="1" /><path clip-path="url(#clip620)" d="M740.292 476.61 Q735.13 476.61 733.14 477.79 Q731.149 478.971 731.149 481.818 Q731.149 484.086 732.63 485.429 Q734.135 486.748 736.704 486.748 Q740.246 486.748 742.376 484.249 Q744.529 481.725 744.529 477.559 L744.529 476.61 L740.292 476.61 M748.788 474.85 L748.788 489.642 L744.529 489.642 L744.529 485.707 Q743.07 488.068 740.894 489.202 Q738.718 490.313 735.57 490.313 Q731.589 490.313 729.228 488.091 Q726.89 485.846 726.89 482.096 Q726.89 477.721 729.806 475.499 Q732.746 473.276 738.556 473.276 L744.529 473.276 L744.529 472.86 Q744.529 469.92 742.584 468.323 Q740.663 466.702 737.167 466.702 Q734.945 466.702 732.839 467.235 Q730.732 467.767 728.788 468.832 L728.788 464.897 Q731.126 463.994 733.325 463.554 Q735.524 463.091 737.607 463.091 Q743.232 463.091 746.01 466.008 Q748.788 468.925 748.788 474.85 Z" fill="#000000" fill-rule="nonzero" fill-opacity="1" /><path clip-path="url(#clip620)" d="M779.112 473.994 L779.112 489.642 L774.852 489.642 L774.852 474.133 Q774.852 470.452 773.417 468.624 Q771.982 466.795 769.112 466.795 Q765.663 466.795 763.672 468.994 Q761.681 471.193 761.681 474.989 L761.681 489.642 L757.399 489.642 L757.399 463.716 L761.681 463.716 L761.681 467.744 Q763.209 465.406 765.269 464.249 Q767.352 463.091 770.061 463.091 Q774.528 463.091 776.82 465.869 Q779.112 468.624 779.112 473.994 Z" fill="#000000" fill-rule="nonzero" fill-opacity="1" /><path clip-path="url(#clip620)" d="M799.389 476.61 Q794.227 476.61 792.237 477.79 Q790.246 478.971 790.246 481.818 Q790.246 484.086 791.727 485.429 Q793.232 486.748 795.801 486.748 Q799.343 486.748 801.473 484.249 Q803.625 481.725 803.625 477.559 L803.625 476.61 L799.389 476.61 M807.885 474.85 L807.885 489.642 L803.625 489.642 L803.625 485.707 Q802.167 488.068 799.991 489.202 Q797.815 490.313 794.667 490.313 Q790.686 490.313 788.325 488.091 Q785.987 485.846 785.987 482.096 Q785.987 477.721 788.903 475.499 Q791.843 473.276 797.653 473.276 L803.625 473.276 L803.625 472.86 Q803.625 469.92 801.681 468.323 Q799.76 466.702 796.264 466.702 Q794.042 466.702 791.936 467.235 Q789.829 467.767 787.885 468.832 L787.885 464.897 Q790.223 463.994 792.422 463.554 Q794.621 463.091 796.704 463.091 Q802.329 463.091 805.107 466.008 Q807.885 468.925 807.885 474.85 Z" fill="#000000" fill-rule="nonzero" fill-opacity="1" /><path clip-path="url(#clip620)" d="M820.871 456.355 L820.871 463.716 L829.644 463.716 L829.644 467.026 L820.871 467.026 L820.871 481.1 Q820.871 484.272 821.727 485.174 Q822.607 486.077 825.269 486.077 L829.644 486.077 L829.644 489.642 L825.269 489.642 Q820.338 489.642 818.463 487.813 Q816.588 485.961 816.588 481.1 L816.588 467.026 L813.463 467.026 L813.463 463.716 L816.588 463.716 L816.588 456.355 L820.871 456.355 Z" fill="#000000" fill-rule="nonzero" fill-opacity="1" /><path clip-path="url(#clip620)" d="M857.421 475.614 L857.421 477.698 L837.838 477.698 Q838.116 482.096 840.477 484.411 Q842.861 486.702 847.097 486.702 Q849.551 486.702 851.843 486.1 Q854.158 485.498 856.426 484.295 L856.426 488.323 Q854.134 489.295 851.727 489.804 Q849.32 490.313 846.843 490.313 Q840.639 490.313 837.005 486.702 Q833.394 483.091 833.394 476.934 Q833.394 470.568 836.82 466.841 Q840.269 463.091 846.102 463.091 Q851.334 463.091 854.366 466.471 Q857.421 469.827 857.421 475.614 M853.162 474.364 Q853.116 470.869 851.195 468.786 Q849.296 466.702 846.148 466.702 Q842.584 466.702 840.431 468.716 Q838.301 470.73 837.977 474.387 L853.162 474.364 Z" fill="#000000" fill-rule="nonzero" fill-opacity="1" /></svg>
