<?xml version="1.0" encoding="utf-8"?>
<svg xmlns="http://www.w3.org/2000/svg" xmlns:xlink="http://www.w3.org/1999/xlink" width="600" height="400" viewBox="0 0 2400 1600">
<defs>
  <clipPath id="clip560">
    <rect x="0" y="0" width="2400" height="1600"/>
  </clipPath>
</defs>
<path clip-path="url(#clip560)" d="M0 1600 L2400 1600 L2400 0 L0 0  Z" fill="#ffffff" fill-rule="evenodd" fill-opacity="1"/>
<defs>
  <clipPath id="clip561">
    <rect x="480" y="0" width="1681" height="1600"/>
  </clipPath>
</defs>
<path clip-path="url(#clip560)" d="M323.213 1284.79 L2132.28 1284.79 L2132.28 283.465 L323.213 283.465  Z" fill="#ffffff" fill-rule="evenodd" fill-opacity="1"/>
<defs>
  <clipPath id="clip562">
    <rect x="323" y="283" width="1810" height="1002"/>
  </clipPath>
</defs>
<polyline clip-path="url(#clip562)" style="stroke:#000000; stroke-linecap:round; stroke-linejoin:round; stroke-width:2; stroke-opacity:0.1; fill:none" points="685.027,1284.79 685.027,283.465 "/>
<polyline clip-path="url(#clip562)" style="stroke:#000000; stroke-linecap:round; stroke-linejoin:round; stroke-width:2; stroke-opacity:0.1; fill:none" points="1137.29,1284.79 1137.29,283.465 "/>
<polyline clip-path="url(#clip562)" style="stroke:#000000; stroke-linecap:round; stroke-linejoin:round; stroke-width:2; stroke-opacity:0.1; fill:none" points="1589.56,1284.79 1589.56,283.465 "/>
<polyline clip-path="url(#clip562)" style="stroke:#000000; stroke-linecap:round; stroke-linejoin:round; stroke-width:2; stroke-opacity:0.1; fill:none" points="2041.83,1284.79 2041.83,283.465 "/>
<polyline clip-path="url(#clip560)" style="stroke:#000000; stroke-linecap:round; stroke-linejoin:round; stroke-width:4; stroke-opacity:1; fill:none" points="323.213,1284.79 2132.28,1284.79 "/>
<polyline clip-path="url(#clip560)" style="stroke:#000000; stroke-linecap:round; stroke-linejoin:round; stroke-width:4; stroke-opacity:1; fill:none" points="685.027,1284.79 685.027,1265.89 "/>
<polyline clip-path="url(#clip560)" style="stroke:#000000; stroke-linecap:round; stroke-linejoin:round; stroke-width:4; stroke-opacity:1; fill:none" points="1137.29,1284.79 1137.29,1265.89 "/>
<polyline clip-path="url(#clip560)" style="stroke:#000000; stroke-linecap:round; stroke-linejoin:round; stroke-width:4; stroke-opacity:1; fill:none" points="1589.56,1284.79 1589.56,1265.89 "/>
<polyline clip-path="url(#clip560)" style="stroke:#000000; stroke-linecap:round; stroke-linejoin:round; stroke-width:4; stroke-opacity:1; fill:none" points="2041.83,1284.79 2041.83,1265.89 "/>
<path clip-path="url(#clip560)" d="M675.305 1312.63 L693.661 1312.63 L693.661 1316.56 L679.587 1316.56 L679.587 1325.03 Q680.605 1324.69 681.624 1324.53 Q682.643 1324.34 683.661 1324.34 Q689.448 1324.34 692.828 1327.51 Q696.207 1330.68 696.207 1336.1 Q696.207 1341.68 692.735 1344.78 Q689.263 1347.86 682.943 1347.86 Q680.768 1347.86 678.499 1347.49 Q676.254 1347.12 673.846 1346.38 L673.846 1341.68 Q675.93 1342.81 678.152 1343.37 Q680.374 1343.92 682.851 1343.92 Q686.855 1343.92 689.193 1341.82 Q691.531 1339.71 691.531 1336.1 Q691.531 1332.49 689.193 1330.38 Q686.855 1328.28 682.851 1328.28 Q680.976 1328.28 679.101 1328.69 Q677.249 1329.11 675.305 1329.99 L675.305 1312.63 Z" fill="#000000" fill-rule="nonzero" fill-opacity="1" /><path clip-path="url(#clip560)" d="M1111.98 1343.25 L1119.62 1343.25 L1119.62 1316.89 L1111.31 1318.55 L1111.31 1314.29 L1119.57 1312.63 L1124.25 1312.63 L1124.25 1343.25 L1131.89 1343.25 L1131.89 1347.19 L1111.98 1347.19 L1111.98 1343.25 Z" fill="#000000" fill-rule="nonzero" fill-opacity="1" /><path clip-path="url(#clip560)" d="M1151.33 1315.71 Q1147.72 1315.71 1145.89 1319.27 Q1144.09 1322.81 1144.09 1329.94 Q1144.09 1337.05 1145.89 1340.61 Q1147.72 1344.16 1151.33 1344.16 Q1154.97 1344.16 1156.77 1340.61 Q1158.6 1337.05 1158.6 1329.94 Q1158.6 1322.81 1156.77 1319.27 Q1154.97 1315.71 1151.33 1315.71 M1151.33 1312 Q1157.14 1312 1160.2 1316.61 Q1163.28 1321.19 1163.28 1329.94 Q1163.28 1338.67 1160.2 1343.28 Q1157.14 1347.86 1151.33 1347.86 Q1145.52 1347.86 1142.44 1343.28 Q1139.39 1338.67 1139.39 1329.94 Q1139.39 1321.19 1142.44 1316.61 Q1145.52 1312 1151.33 1312 Z" fill="#000000" fill-rule="nonzero" fill-opacity="1" /><path clip-path="url(#clip560)" d="M1564.75 1343.25 L1572.39 1343.25 L1572.39 1316.89 L1564.08 1318.55 L1564.08 1314.29 L1572.34 1312.63 L1577.02 1312.63 L1577.02 1343.25 L1584.65 1343.25 L1584.65 1347.19 L1564.75 1347.19 L1564.75 1343.25 Z" fill="#000000" fill-rule="nonzero" fill-opacity="1" /><path clip-path="url(#clip560)" d="M1594.15 1312.63 L1612.5 1312.63 L1612.5 1316.56 L1598.43 1316.56 L1598.43 1325.03 Q1599.45 1324.69 1600.46 1324.53 Q1601.48 1324.34 1602.5 1324.34 Q1608.29 1324.34 1611.67 1327.51 Q1615.05 1330.68 1615.05 1336.1 Q1615.05 1341.68 1611.58 1344.78 Q1608.1 1347.86 1601.78 1347.86 Q1599.61 1347.86 1597.34 1347.49 Q1595.09 1347.12 1592.69 1346.38 L1592.69 1341.68 Q1594.77 1342.81 1596.99 1343.37 Q1599.21 1343.92 1601.69 1343.92 Q1605.7 1343.92 1608.03 1341.82 Q1610.37 1339.71 1610.37 1336.1 Q1610.37 1332.49 1608.03 1330.38 Q1605.7 1328.28 1601.69 1328.28 Q1599.82 1328.28 1597.94 1328.69 Q1596.09 1329.11 1594.15 1329.99 L1594.15 1312.63 Z" fill="#000000" fill-rule="nonzero" fill-opacity="1" /><path clip-path="url(#clip560)" d="M2020.6 1343.25 L2036.92 1343.25 L2036.92 1347.19 L2014.98 1347.19 L2014.98 1343.25 Q2017.64 1340.5 2022.22 1335.87 Q2026.83 1331.22 2028.01 1329.87 Q2030.26 1327.35 2031.14 1325.61 Q2032.04 1323.85 2032.04 1322.16 Q2032.04 1319.41 2030.09 1317.67 Q2028.17 1315.94 2025.07 1315.94 Q2022.87 1315.94 2020.42 1316.7 Q2017.99 1317.47 2015.21 1319.02 L2015.21 1314.29 Q2018.03 1313.16 2020.49 1312.58 Q2022.94 1312 2024.98 1312 Q2030.35 1312 2033.54 1314.69 Q2036.74 1317.37 2036.74 1321.86 Q2036.74 1323.99 2035.93 1325.91 Q2035.14 1327.81 2033.03 1330.41 Q2032.45 1331.08 2029.35 1334.29 Q2026.25 1337.49 2020.6 1343.25 Z" fill="#000000" fill-rule="nonzero" fill-opacity="1" /><path clip-path="url(#clip560)" d="M2056.74 1315.71 Q2053.13 1315.71 2051.3 1319.27 Q2049.49 1322.81 2049.49 1329.94 Q2049.49 1337.05 2051.3 1340.61 Q2053.13 1344.16 2056.74 1344.16 Q2060.37 1344.16 2062.18 1340.61 Q2064.01 1337.05 2064.01 1329.94 Q2064.01 1322.81 2062.18 1319.27 Q2060.37 1315.71 2056.74 1315.71 M2056.74 1312 Q2062.55 1312 2065.6 1316.61 Q2068.68 1321.19 2068.68 1329.94 Q2068.68 1338.67 2065.6 1343.28 Q2062.55 1347.86 2056.74 1347.86 Q2050.93 1347.86 2047.85 1343.28 Q2044.79 1338.67 2044.79 1329.94 Q2044.79 1321.19 2047.85 1316.61 Q2050.93 1312 2056.74 1312 Z" fill="#000000" fill-rule="nonzero" fill-opacity="1" /><path clip-path="url(#clip560)" d="M950.14 1408.14 L950.14 1429.65 L944.283 1429.65 L944.283 1408.33 Q944.283 1403.27 942.31 1400.75 Q940.336 1398.24 936.39 1398.24 Q931.647 1398.24 928.91 1401.26 Q926.173 1404.28 926.173 1409.5 L926.173 1429.65 L920.284 1429.65 L920.284 1394 L926.173 1394 L926.173 1399.54 Q928.273 1396.33 931.106 1394.74 Q933.971 1393.14 937.695 1393.14 Q943.838 1393.14 946.989 1396.96 Q950.14 1400.75 950.14 1408.14 Z" fill="#000000" fill-rule="nonzero" fill-opacity="1" /><path clip-path="url(#clip560)" d="M961.216 1415.58 L961.216 1394 L967.072 1394 L967.072 1415.36 Q967.072 1420.42 969.046 1422.97 Q971.019 1425.48 974.966 1425.48 Q979.708 1425.48 982.446 1422.46 Q985.215 1419.43 985.215 1414.21 L985.215 1394 L991.071 1394 L991.071 1429.65 L985.215 1429.65 L985.215 1424.18 Q983.082 1427.42 980.249 1429.01 Q977.448 1430.57 973.725 1430.57 Q967.582 1430.57 964.399 1426.76 Q961.216 1422.94 961.216 1415.58 M975.953 1393.14 L975.953 1393.14 Z" fill="#000000" fill-rule="nonzero" fill-opacity="1" /><path clip-path="url(#clip560)" d="M1030.89 1400.85 Q1033.08 1396.9 1036.14 1395.02 Q1039.2 1393.14 1043.33 1393.14 Q1048.9 1393.14 1051.93 1397.06 Q1054.95 1400.94 1054.95 1408.14 L1054.95 1429.65 L1049.06 1429.65 L1049.06 1408.33 Q1049.06 1403.2 1047.25 1400.72 Q1045.43 1398.24 1041.71 1398.24 Q1037.16 1398.24 1034.52 1401.26 Q1031.88 1404.28 1031.88 1409.5 L1031.88 1429.65 L1025.99 1429.65 L1025.99 1408.33 Q1025.99 1403.17 1024.17 1400.72 Q1022.36 1398.24 1018.57 1398.24 Q1014.08 1398.24 1011.44 1401.29 Q1008.8 1404.32 1008.8 1409.5 L1008.8 1429.65 L1002.91 1429.65 L1002.91 1394 L1008.8 1394 L1008.8 1399.54 Q1010.8 1396.26 1013.61 1394.7 Q1016.41 1393.14 1020.26 1393.14 Q1024.14 1393.14 1026.85 1395.12 Q1029.58 1397.09 1030.89 1400.85 Z" fill="#000000" fill-rule="nonzero" fill-opacity="1" /><path clip-path="url(#clip560)" d="M1092.22 1411.86 Q1092.22 1405.4 1089.55 1401.74 Q1086.91 1398.05 1082.26 1398.05 Q1077.61 1398.05 1074.94 1401.74 Q1072.3 1405.4 1072.3 1411.86 Q1072.3 1418.32 1074.94 1422.01 Q1077.61 1425.67 1082.26 1425.67 Q1086.91 1425.67 1089.55 1422.01 Q1092.22 1418.32 1092.22 1411.86 M1072.3 1399.41 Q1074.14 1396.23 1076.94 1394.7 Q1079.78 1393.14 1083.69 1393.14 Q1090.19 1393.14 1094.23 1398.3 Q1098.3 1403.46 1098.3 1411.86 Q1098.3 1420.26 1094.23 1425.42 Q1090.19 1430.57 1083.69 1430.57 Q1079.78 1430.57 1076.94 1429.05 Q1074.14 1427.49 1072.3 1424.3 L1072.3 1429.65 L1066.41 1429.65 L1066.41 1380.13 L1072.3 1380.13 L1072.3 1399.41 Z" fill="#000000" fill-rule="nonzero" fill-opacity="1" /><path clip-path="url(#clip560)" d="M1138.5 1410.36 L1138.5 1413.23 L1111.57 1413.23 Q1111.96 1419.28 1115.2 1422.46 Q1118.48 1425.61 1124.31 1425.61 Q1127.68 1425.61 1130.83 1424.78 Q1134.01 1423.95 1137.13 1422.3 L1137.13 1427.84 Q1133.98 1429.17 1130.67 1429.87 Q1127.36 1430.57 1123.96 1430.57 Q1115.43 1430.57 1110.43 1425.61 Q1105.46 1420.64 1105.46 1412.18 Q1105.46 1403.42 1110.17 1398.3 Q1114.92 1393.14 1122.94 1393.14 Q1130.13 1393.14 1134.3 1397.79 Q1138.5 1402.41 1138.5 1410.36 M1132.64 1408.64 Q1132.58 1403.84 1129.94 1400.97 Q1127.33 1398.11 1123 1398.11 Q1118.1 1398.11 1115.14 1400.88 Q1112.21 1403.65 1111.76 1408.68 L1132.64 1408.64 Z" fill="#000000" fill-rule="nonzero" fill-opacity="1" /><path clip-path="url(#clip560)" d="M1168.77 1399.48 Q1167.78 1398.91 1166.61 1398.65 Q1165.46 1398.36 1164.06 1398.36 Q1159.09 1398.36 1156.42 1401.61 Q1153.78 1404.83 1153.78 1410.87 L1153.78 1429.65 L1147.89 1429.65 L1147.89 1394 L1153.78 1394 L1153.78 1399.54 Q1155.62 1396.3 1158.58 1394.74 Q1161.54 1393.14 1165.78 1393.14 Q1166.38 1393.14 1167.11 1393.24 Q1167.85 1393.3 1168.74 1393.46 L1168.77 1399.48 Z" fill="#000000" fill-rule="nonzero" fill-opacity="1" /><path clip-path="url(#clip560)" d="M1209.45 1398.11 Q1204.74 1398.11 1202 1401.8 Q1199.26 1405.46 1199.26 1411.86 Q1199.26 1418.26 1201.97 1421.95 Q1204.7 1425.61 1209.45 1425.61 Q1214.13 1425.61 1216.86 1421.92 Q1219.6 1418.22 1219.6 1411.86 Q1219.6 1405.53 1216.86 1401.83 Q1214.13 1398.11 1209.45 1398.11 M1209.45 1393.14 Q1217.09 1393.14 1221.45 1398.11 Q1225.81 1403.07 1225.81 1411.86 Q1225.81 1420.61 1221.45 1425.61 Q1217.09 1430.57 1209.45 1430.57 Q1201.78 1430.57 1197.42 1425.61 Q1193.09 1420.61 1193.09 1411.86 Q1193.09 1403.07 1197.42 1398.11 Q1201.78 1393.14 1209.45 1393.14 Z" fill="#000000" fill-rule="nonzero" fill-opacity="1" /><path clip-path="url(#clip560)" d="M1253.56 1380.13 L1253.56 1385 L1247.96 1385 Q1244.81 1385 1243.57 1386.27 Q1242.36 1387.54 1242.36 1390.85 L1242.36 1394 L1252 1394 L1252 1398.55 L1242.36 1398.55 L1242.36 1429.65 L1236.47 1429.65 L1236.47 1398.55 L1230.87 1398.55 L1230.87 1394 L1236.47 1394 L1236.47 1391.52 Q1236.47 1385.57 1239.24 1382.86 Q1242.01 1380.13 1248.02 1380.13 L1253.56 1380.13 Z" fill="#000000" fill-rule="nonzero" fill-opacity="1" /><path clip-path="url(#clip560)" d="M1301.91 1395.05 L1301.91 1400.59 Q1299.43 1399.32 1296.75 1398.68 Q1294.08 1398.05 1291.21 1398.05 Q1286.85 1398.05 1284.66 1399.38 Q1282.49 1400.72 1282.49 1403.39 Q1282.49 1405.43 1284.05 1406.61 Q1285.61 1407.75 1290.32 1408.8 L1292.33 1409.25 Q1298.57 1410.59 1301.18 1413.04 Q1303.82 1415.46 1303.82 1419.82 Q1303.82 1424.78 1299.87 1427.68 Q1295.96 1430.57 1289.08 1430.57 Q1286.22 1430.57 1283.1 1430 Q1280.01 1429.46 1276.57 1428.35 L1276.57 1422.3 Q1279.82 1423.99 1282.97 1424.85 Q1286.12 1425.67 1289.21 1425.67 Q1293.35 1425.67 1295.57 1424.27 Q1297.8 1422.84 1297.8 1420.26 Q1297.8 1417.87 1296.18 1416.6 Q1294.59 1415.33 1289.15 1414.15 L1287.11 1413.67 Q1281.67 1412.53 1279.25 1410.17 Q1276.83 1407.79 1276.83 1403.65 Q1276.83 1398.62 1280.39 1395.88 Q1283.96 1393.14 1290.51 1393.14 Q1293.76 1393.14 1296.62 1393.62 Q1299.49 1394.1 1301.91 1395.05 Z" fill="#000000" fill-rule="nonzero" fill-opacity="1" /><path clip-path="url(#clip560)" d="M1318.94 1383.88 L1318.94 1394 L1331 1394 L1331 1398.55 L1318.94 1398.55 L1318.94 1417.91 Q1318.94 1422.27 1320.11 1423.51 Q1321.32 1424.75 1324.98 1424.75 L1331 1424.75 L1331 1429.65 L1324.98 1429.65 Q1318.2 1429.65 1315.63 1427.14 Q1313.05 1424.59 1313.05 1417.91 L1313.05 1398.55 L1308.75 1398.55 L1308.75 1394 L1313.05 1394 L1313.05 1383.88 L1318.94 1383.88 Z" fill="#000000" fill-rule="nonzero" fill-opacity="1" /><path clip-path="url(#clip560)" d="M1354.9 1411.73 Q1347.81 1411.73 1345.07 1413.36 Q1342.33 1414.98 1342.33 1418.89 Q1342.33 1422.01 1344.37 1423.86 Q1346.44 1425.67 1349.97 1425.67 Q1354.84 1425.67 1357.77 1422.24 Q1360.73 1418.77 1360.73 1413.04 L1360.73 1411.73 L1354.9 1411.73 M1366.58 1409.31 L1366.58 1429.65 L1360.73 1429.65 L1360.73 1424.24 Q1358.72 1427.49 1355.73 1429.05 Q1352.74 1430.57 1348.41 1430.57 Q1342.94 1430.57 1339.69 1427.52 Q1336.47 1424.43 1336.47 1419.28 Q1336.47 1413.26 1340.48 1410.2 Q1344.53 1407.15 1352.52 1407.15 L1360.73 1407.15 L1360.73 1406.58 Q1360.73 1402.53 1358.05 1400.34 Q1355.41 1398.11 1350.61 1398.11 Q1347.55 1398.11 1344.65 1398.84 Q1341.76 1399.57 1339.08 1401.04 L1339.08 1395.63 Q1342.3 1394.39 1345.32 1393.78 Q1348.35 1393.14 1351.21 1393.14 Q1358.95 1393.14 1362.76 1397.15 Q1366.58 1401.16 1366.58 1409.31 Z" fill="#000000" fill-rule="nonzero" fill-opacity="1" /><path clip-path="url(#clip560)" d="M1384.44 1383.88 L1384.44 1394 L1396.5 1394 L1396.5 1398.55 L1384.44 1398.55 L1384.44 1417.91 Q1384.44 1422.27 1385.62 1423.51 Q1386.83 1424.75 1390.49 1424.75 L1396.5 1424.75 L1396.5 1429.65 L1390.49 1429.65 Q1383.71 1429.65 1381.13 1427.14 Q1378.55 1424.59 1378.55 1417.91 L1378.55 1398.55 L1374.25 1398.55 L1374.25 1394 L1378.55 1394 L1378.55 1383.88 L1384.44 1383.88 Z" fill="#000000" fill-rule="nonzero" fill-opacity="1" /><path clip-path="url(#clip560)" d="M1434.7 1410.36 L1434.7 1413.23 L1407.77 1413.23 Q1408.15 1419.28 1411.4 1422.46 Q1414.68 1425.61 1420.5 1425.61 Q1423.88 1425.61 1427.03 1424.78 Q1430.21 1423.95 1433.33 1422.3 L1433.33 1427.84 Q1430.18 1429.17 1426.87 1429.87 Q1423.56 1430.57 1420.15 1430.57 Q1411.62 1430.57 1406.62 1425.61 Q1401.66 1420.64 1401.66 1412.18 Q1401.66 1403.42 1406.37 1398.3 Q1411.11 1393.14 1419.13 1393.14 Q1426.33 1393.14 1430.5 1397.79 Q1434.7 1402.41 1434.7 1410.36 M1428.84 1408.64 Q1428.78 1403.84 1426.14 1400.97 Q1423.53 1398.11 1419.2 1398.11 Q1414.3 1398.11 1411.34 1400.88 Q1408.41 1403.65 1407.96 1408.68 L1428.84 1408.64 Z" fill="#000000" fill-rule="nonzero" fill-opacity="1" /><path clip-path="url(#clip560)" d="M1467.03 1395.05 L1467.03 1400.59 Q1464.55 1399.32 1461.88 1398.68 Q1459.21 1398.05 1456.34 1398.05 Q1451.98 1398.05 1449.78 1399.38 Q1447.62 1400.72 1447.62 1403.39 Q1447.62 1405.43 1449.18 1406.61 Q1450.74 1407.75 1455.45 1408.8 L1457.45 1409.25 Q1463.69 1410.59 1466.3 1413.04 Q1468.94 1415.46 1468.94 1419.82 Q1468.94 1424.78 1465 1427.68 Q1461.08 1430.57 1454.21 1430.57 Q1451.34 1430.57 1448.22 1430 Q1445.14 1429.46 1441.7 1428.35 L1441.7 1422.3 Q1444.95 1423.99 1448.1 1424.85 Q1451.25 1425.67 1454.34 1425.67 Q1458.47 1425.67 1460.7 1424.27 Q1462.93 1422.84 1462.93 1420.26 Q1462.93 1417.87 1461.31 1416.6 Q1459.71 1415.33 1454.27 1414.15 L1452.23 1413.67 Q1446.79 1412.53 1444.37 1410.17 Q1441.95 1407.79 1441.95 1403.65 Q1441.95 1398.62 1445.52 1395.88 Q1449.08 1393.14 1455.64 1393.14 Q1458.89 1393.14 1461.75 1393.62 Q1464.62 1394.1 1467.03 1395.05 Z" fill="#000000" fill-rule="nonzero" fill-opacity="1" /><path clip-path="url(#clip560)" d="M1499.25 1382.13 L1507.9 1382.13 L1528.97 1421.89 L1528.97 1382.13 L1535.21 1382.13 L1535.21 1429.65 L1526.55 1429.65 L1505.48 1389.9 L1505.48 1429.65 L1499.25 1429.65 L1499.25 1382.13 Z" fill="#000000" fill-rule="nonzero" fill-opacity="1" /><polyline clip-path="url(#clip562)" style="stroke:#000000; stroke-linecap:round; stroke-linejoin:round; stroke-width:2; stroke-opacity:0.1; fill:none" points="323.213,1284.79 2132.28,1284.79 "/>
<polyline clip-path="url(#clip562)" style="stroke:#000000; stroke-linecap:round; stroke-linejoin:round; stroke-width:2; stroke-opacity:0.1; fill:none" points="323.213,1014.8 2132.28,1014.8 "/>
<polyline clip-path="url(#clip562)" style="stroke:#000000; stroke-linecap:round; stroke-linejoin:round; stroke-width:2; stroke-opacity:0.1; fill:none" points="323.213,744.815 2132.28,744.815 "/>
<polyline clip-path="url(#clip562)" style="stroke:#000000; stroke-linecap:round; stroke-linejoin:round; stroke-width:2; stroke-opacity:0.1; fill:none" points="323.213,474.829 2132.28,474.829 "/>
<polyline clip-path="url(#clip560)" style="stroke:#000000; stroke-linecap:round; stroke-linejoin:round; stroke-width:4; stroke-opacity:1; fill:none" points="323.213,1284.79 323.213,283.465 "/>
<polyline clip-path="url(#clip560)" style="stroke:#000000; stroke-linecap:round; stroke-linejoin:round; stroke-width:4; stroke-opacity:1; fill:none" points="323.213,1284.79 342.11,1284.79 "/>
<polyline clip-path="url(#clip560)" style="stroke:#000000; stroke-linecap:round; stroke-linejoin:round; stroke-width:4; stroke-opacity:1; fill:none" points="323.213,1014.8 342.11,1014.8 "/>
<polyline clip-path="url(#clip560)" style="stroke:#000000; stroke-linecap:round; stroke-linejoin:round; stroke-width:4; stroke-opacity:1; fill:none" points="323.213,744.815 342.11,744.815 "/>
<polyline clip-path="url(#clip560)" style="stroke:#000000; stroke-linecap:round; stroke-linejoin:round; stroke-width:4; stroke-opacity:1; fill:none" points="323.213,474.829 342.11,474.829 "/>
<path clip-path="url(#clip560)" d="M275.268 1270.59 Q271.657 1270.59 269.828 1274.15 Q268.023 1277.69 268.023 1284.82 Q268.023 1291.93 269.828 1295.49 Q271.657 1299.04 275.268 1299.04 Q278.902 1299.04 280.708 1295.49 Q282.537 1291.93 282.537 1284.82 Q282.537 1277.69 280.708 1274.15 Q278.902 1270.59 275.268 1270.59 M275.268 1266.88 Q281.078 1266.88 284.134 1271.49 Q287.213 1276.07 287.213 1284.82 Q287.213 1293.55 284.134 1298.16 Q281.078 1302.74 275.268 1302.74 Q269.458 1302.74 266.379 1298.16 Q263.324 1293.55 263.324 1284.82 Q263.324 1276.07 266.379 1271.49 Q269.458 1266.88 275.268 1266.88 Z" fill="#000000" fill-rule="nonzero" fill-opacity="1" /><path clip-path="url(#clip560)" d="M266.31 997.521 L284.666 997.521 L284.666 1001.46 L270.592 1001.46 L270.592 1009.93 Q271.611 1009.58 272.629 1009.42 Q273.648 1009.23 274.666 1009.23 Q280.453 1009.23 283.833 1012.41 Q287.213 1015.58 287.213 1020.99 Q287.213 1026.57 283.74 1029.67 Q280.268 1032.75 273.949 1032.75 Q271.773 1032.75 269.504 1032.38 Q267.259 1032.01 264.852 1031.27 L264.852 1026.57 Q266.935 1027.71 269.157 1028.26 Q271.379 1028.82 273.856 1028.82 Q277.861 1028.82 280.199 1026.71 Q282.537 1024.6 282.537 1020.99 Q282.537 1017.38 280.199 1015.28 Q277.861 1013.17 273.856 1013.17 Q271.981 1013.17 270.106 1013.59 Q268.254 1014 266.31 1014.88 L266.31 997.521 Z" fill="#000000" fill-rule="nonzero" fill-opacity="1" /><path clip-path="url(#clip560)" d="M235.917 758.16 L243.555 758.16 L243.555 731.795 L235.245 733.461 L235.245 729.202 L243.509 727.535 L248.185 727.535 L248.185 758.16 L255.824 758.16 L255.824 762.095 L235.917 762.095 L235.917 758.16 Z" fill="#000000" fill-rule="nonzero" fill-opacity="1" /><path clip-path="url(#clip560)" d="M275.268 730.614 Q271.657 730.614 269.828 734.179 Q268.023 737.721 268.023 744.85 Q268.023 751.957 269.828 755.521 Q271.657 759.063 275.268 759.063 Q278.902 759.063 280.708 755.521 Q282.537 751.957 282.537 744.85 Q282.537 737.721 280.708 734.179 Q278.902 730.614 275.268 730.614 M275.268 726.91 Q281.078 726.91 284.134 731.517 Q287.213 736.1 287.213 744.85 Q287.213 753.577 284.134 758.183 Q281.078 762.767 275.268 762.767 Q269.458 762.767 266.379 758.183 Q263.324 753.577 263.324 744.85 Q263.324 736.1 266.379 731.517 Q269.458 726.91 275.268 726.91 Z" fill="#000000" fill-rule="nonzero" fill-opacity="1" /><path clip-path="url(#clip560)" d="M236.912 488.174 L244.551 488.174 L244.551 461.809 L236.241 463.475 L236.241 459.216 L244.504 457.549 L249.18 457.549 L249.18 488.174 L256.819 488.174 L256.819 492.109 L236.912 492.109 L236.912 488.174 Z" fill="#000000" fill-rule="nonzero" fill-opacity="1" /><path clip-path="url(#clip560)" d="M266.31 457.549 L284.666 457.549 L284.666 461.485 L270.592 461.485 L270.592 469.957 Q271.611 469.61 272.629 469.448 Q273.648 469.262 274.666 469.262 Q280.453 469.262 283.833 472.434 Q287.213 475.605 287.213 481.022 Q287.213 486.6 283.74 489.702 Q280.268 492.781 273.949 492.781 Q271.773 492.781 269.504 492.41 Q267.259 492.04 264.852 491.299 L264.852 486.6 Q266.935 487.734 269.157 488.29 Q271.379 488.846 273.856 488.846 Q277.861 488.846 280.199 486.739 Q282.537 484.633 282.537 481.022 Q282.537 477.41 280.199 475.304 Q277.861 473.198 273.856 473.198 Q271.981 473.198 270.106 473.614 Q268.254 474.031 266.31 474.91 L266.31 457.549 Z" fill="#000000" fill-rule="nonzero" fill-opacity="1" /><path clip-path="url(#clip560)" d="M141.13 975.957 L147.909 975.957 Q144.885 979.203 143.389 982.895 Q141.893 986.555 141.893 990.693 Q141.893 998.841 146.891 1003.17 Q151.856 1007.5 161.277 1007.5 Q170.666 1007.5 175.664 1003.17 Q180.629 998.841 180.629 990.693 Q180.629 986.555 179.133 982.895 Q177.637 979.203 174.613 975.957 L181.329 975.957 Q183.621 979.33 184.766 983.118 Q185.912 986.874 185.912 991.075 Q185.912 1001.86 179.324 1008.07 Q172.703 1014.28 161.277 1014.28 Q149.819 1014.28 143.23 1008.07 Q136.61 1001.86 136.61 991.075 Q136.61 986.81 137.756 983.054 Q138.87 979.267 141.13 975.957 Z" fill="#000000" fill-rule="nonzero" fill-opacity="1" /><path clip-path="url(#clip560)" d="M142.753 959.597 L160.609 959.597 L160.609 951.512 Q160.609 947.024 158.285 944.574 Q155.962 942.123 151.665 942.123 Q147.4 942.123 145.076 944.574 Q142.753 947.024 142.753 951.512 L142.753 959.597 M137.469 966.026 L137.469 951.512 Q137.469 943.523 141.098 939.449 Q144.694 935.343 151.665 935.343 Q158.699 935.343 162.296 939.449 Q165.892 943.523 165.892 951.512 L165.892 959.597 L184.989 959.597 L184.989 966.026 L137.469 966.026 Z" fill="#000000" fill-rule="nonzero" fill-opacity="1" /><path clip-path="url(#clip560)" d="M137.469 927.45 L137.469 920.989 L166.338 920.989 Q173.977 920.989 177.35 918.22 Q180.692 915.451 180.692 909.244 Q180.692 903.069 177.35 900.3 Q173.977 897.531 166.338 897.531 L137.469 897.531 L137.469 891.07 L167.133 891.07 Q176.427 891.07 181.17 895.685 Q185.912 900.268 185.912 909.244 Q185.912 918.251 181.17 922.867 Q176.427 927.45 167.133 927.45 L137.469 927.45 Z" fill="#000000" fill-rule="nonzero" fill-opacity="1" /><path clip-path="url(#clip560)" d="M139.22 852.748 L149.341 852.748 L149.341 840.685 L153.893 840.685 L153.893 852.748 L173.245 852.748 Q177.605 852.748 178.846 851.571 Q180.088 850.361 180.088 846.701 L180.088 840.685 L184.989 840.685 L184.989 846.701 Q184.989 853.48 182.475 856.058 Q179.929 858.637 173.245 858.637 L153.893 858.637 L153.893 862.933 L149.341 862.933 L149.341 858.637 L139.22 858.637 L139.22 852.748 Z" fill="#000000" fill-rule="nonzero" fill-opacity="1" /><path clip-path="url(#clip560)" d="M149.341 832.983 L149.341 827.126 L184.989 827.126 L184.989 832.983 L149.341 832.983 M135.464 832.983 L135.464 827.126 L142.88 827.126 L142.88 832.983 L135.464 832.983 Z" fill="#000000" fill-rule="nonzero" fill-opacity="1" /><path clip-path="url(#clip560)" d="M156.184 787.118 Q152.238 784.922 150.36 781.866 Q148.482 778.811 148.482 774.673 Q148.482 769.103 152.397 766.079 Q156.28 763.055 163.473 763.055 L184.989 763.055 L184.989 768.944 L163.664 768.944 Q158.54 768.944 156.057 770.758 Q153.575 772.572 153.575 776.296 Q153.575 780.848 156.598 783.489 Q159.622 786.131 164.842 786.131 L184.989 786.131 L184.989 792.019 L163.664 792.019 Q158.508 792.019 156.057 793.834 Q153.575 795.648 153.575 799.436 Q153.575 803.923 156.63 806.565 Q159.654 809.207 164.842 809.207 L184.989 809.207 L184.989 815.095 L149.341 815.095 L149.341 809.207 L154.879 809.207 Q151.601 807.202 150.042 804.401 Q148.482 801.6 148.482 797.749 Q148.482 793.866 150.455 791.16 Q152.429 788.423 156.184 787.118 Z" fill="#000000" fill-rule="nonzero" fill-opacity="1" /><path clip-path="url(#clip560)" d="M165.701 720.883 L168.566 720.883 L168.566 747.81 Q174.613 747.428 177.796 744.181 Q180.947 740.903 180.947 735.078 Q180.947 731.704 180.12 728.553 Q179.292 725.371 177.637 722.251 L183.175 722.251 Q184.512 725.402 185.212 728.713 Q185.912 732.023 185.912 735.428 Q185.912 743.958 180.947 748.955 Q175.982 753.921 167.515 753.921 Q158.763 753.921 153.638 749.21 Q148.482 744.468 148.482 736.447 Q148.482 729.254 153.129 725.084 Q157.744 720.883 165.701 720.883 M163.982 726.739 Q159.176 726.803 156.312 729.445 Q153.447 732.055 153.447 736.383 Q153.447 741.285 156.216 744.245 Q158.985 747.173 164.014 747.619 L163.982 726.739 Z" fill="#000000" fill-rule="nonzero" fill-opacity="1" /><path clip-path="url(#clip560)" d="M135.528 676.482 Q142.848 680.747 150.01 682.816 Q157.171 684.885 164.524 684.885 Q171.876 684.885 179.101 682.816 Q186.294 680.715 193.583 676.482 L193.583 681.574 Q186.103 686.349 178.878 688.736 Q171.653 691.091 164.524 691.091 Q157.426 691.091 150.233 688.736 Q143.039 686.381 135.528 681.574 L135.528 676.482 Z" fill="#000000" fill-rule="nonzero" fill-opacity="1" /><path clip-path="url(#clip560)" d="M156.184 637.365 Q152.238 635.168 150.36 632.113 Q148.482 629.057 148.482 624.92 Q148.482 619.35 152.397 616.326 Q156.28 613.302 163.473 613.302 L184.989 613.302 L184.989 619.191 L163.664 619.191 Q158.54 619.191 156.057 621.005 Q153.575 622.819 153.575 626.543 Q153.575 631.094 156.598 633.736 Q159.622 636.378 164.842 636.378 L184.989 636.378 L184.989 642.266 L163.664 642.266 Q158.508 642.266 156.057 644.08 Q153.575 645.895 153.575 649.682 Q153.575 654.17 156.63 656.812 Q159.654 659.454 164.842 659.454 L184.989 659.454 L184.989 665.342 L149.341 665.342 L149.341 659.454 L154.879 659.454 Q151.601 657.448 150.042 654.648 Q148.482 651.847 148.482 647.995 Q148.482 644.112 150.455 641.407 Q152.429 638.67 156.184 637.365 Z" fill="#000000" fill-rule="nonzero" fill-opacity="1" /><path clip-path="url(#clip560)" d="M150.392 578.896 L155.93 578.896 Q154.657 581.378 154.02 584.052 Q153.384 586.725 153.384 589.59 Q153.384 593.95 154.72 596.147 Q156.057 598.311 158.731 598.311 Q160.768 598.311 161.945 596.751 Q163.091 595.192 164.142 590.481 L164.587 588.476 Q165.924 582.238 168.375 579.628 Q170.794 576.986 175.154 576.986 Q180.12 576.986 183.016 580.933 Q185.912 584.848 185.912 591.723 Q185.912 594.587 185.339 597.706 Q184.798 600.794 183.684 604.231 L177.637 604.231 Q179.324 600.985 180.183 597.834 Q181.011 594.683 181.011 591.595 Q181.011 587.457 179.61 585.229 Q178.178 583.001 175.6 583.001 Q173.213 583.001 171.94 584.625 Q170.666 586.216 169.489 591.659 L169.011 593.696 Q167.866 599.139 165.51 601.558 Q163.123 603.976 158.985 603.976 Q153.956 603.976 151.219 600.412 Q148.482 596.847 148.482 590.29 Q148.482 587.044 148.959 584.179 Q149.437 581.315 150.392 578.896 Z" fill="#000000" fill-rule="nonzero" fill-opacity="1" /><path clip-path="url(#clip560)" d="M135.528 568.583 L135.528 563.491 Q143.039 558.716 150.233 556.361 Q157.426 553.974 164.524 553.974 Q171.653 553.974 178.878 556.361 Q186.103 558.716 193.583 563.491 L193.583 568.583 Q186.294 564.35 179.101 562.281 Q171.876 560.18 164.524 560.18 Q157.171 560.18 150.01 562.281 Q142.848 564.35 135.528 568.583 Z" fill="#000000" fill-rule="nonzero" fill-opacity="1" /><path clip-path="url(#clip560)" d="M1119.37 93.744 L1096.28 33.264 L1104.82 33.264 L1123.98 84.1839 L1143.19 33.264 L1151.69 33.264 L1128.64 93.744 L1119.37 93.744 Z" fill="#000000" fill-rule="nonzero" fill-opacity="1" /><path clip-path="url(#clip560)" d="M1158.38 48.3739 L1165.83 48.3739 L1165.83 93.744 L1158.38 93.744 L1158.38 48.3739 M1158.38 30.7119 L1165.83 30.7119 L1165.83 40.1505 L1158.38 40.1505 L1158.38 30.7119 Z" fill="#000000" fill-rule="nonzero" fill-opacity="1" /><path clip-path="url(#clip560)" d="M1188.8 35.492 L1188.8 48.3739 L1204.15 48.3739 L1204.15 54.1667 L1188.8 54.1667 L1188.8 78.7962 Q1188.8 84.3459 1190.3 85.9258 Q1191.84 87.5056 1196.5 87.5056 L1204.15 87.5056 L1204.15 93.744 L1196.5 93.744 Q1187.87 93.744 1184.59 90.5438 Q1181.3 87.3031 1181.3 78.7962 L1181.3 54.1667 L1175.84 54.1667 L1175.84 48.3739 L1181.3 48.3739 L1181.3 35.492 L1188.8 35.492 Z" fill="#000000" fill-rule="nonzero" fill-opacity="1" /><path clip-path="url(#clip560)" d="M1252.76 69.1955 L1252.76 72.8413 L1218.49 72.8413 Q1218.98 80.5381 1223.11 84.589 Q1227.28 88.5994 1234.7 88.5994 Q1238.99 88.5994 1243 87.5461 Q1247.05 86.4929 1251.02 84.3864 L1251.02 91.435 Q1247.01 93.1364 1242.8 94.0276 Q1238.58 94.9188 1234.25 94.9188 Q1223.39 94.9188 1217.03 88.5994 Q1210.71 82.2799 1210.71 71.5045 Q1210.71 60.3645 1216.71 53.8426 Q1222.75 47.2801 1232.95 47.2801 Q1242.11 47.2801 1247.42 53.1944 Q1252.76 59.0683 1252.76 69.1955 M1245.31 67.008 Q1245.23 60.8912 1241.87 57.2454 Q1238.54 53.5995 1233.03 53.5995 Q1226.8 53.5995 1223.03 57.1238 Q1219.3 60.6481 1218.73 67.0485 L1245.31 67.008 Z" fill="#000000" fill-rule="nonzero" fill-opacity="1" /><path clip-path="url(#clip560)" d="M1291.29 55.3414 Q1290.03 54.6123 1288.53 54.2882 Q1287.07 53.9236 1285.29 53.9236 Q1278.97 53.9236 1275.57 58.0555 Q1272.21 62.1469 1272.21 69.8437 L1272.21 93.744 L1264.71 93.744 L1264.71 48.3739 L1272.21 48.3739 L1272.21 55.4224 Q1274.56 51.2905 1278.32 49.3056 Q1282.09 47.2801 1287.48 47.2801 Q1288.25 47.2801 1289.18 47.4017 Q1290.11 47.4827 1291.25 47.6852 L1291.29 55.3414 Z" fill="#000000" fill-rule="nonzero" fill-opacity="1" /><path clip-path="url(#clip560)" d="M1331.67 71.0994 Q1331.67 62.8761 1328.27 58.2176 Q1324.91 53.5185 1318.99 53.5185 Q1313.08 53.5185 1309.68 58.2176 Q1306.32 62.8761 1306.32 71.0994 Q1306.32 79.3228 1309.68 84.0218 Q1313.08 88.6804 1318.99 88.6804 Q1324.91 88.6804 1328.27 84.0218 Q1331.67 79.3228 1331.67 71.0994 M1306.32 55.2604 Q1308.66 51.2095 1312.23 49.2651 Q1315.83 47.2801 1320.82 47.2801 Q1329.08 47.2801 1334.23 53.8426 Q1339.41 60.4051 1339.41 71.0994 Q1339.41 81.7938 1334.23 88.3563 Q1329.08 94.9188 1320.82 94.9188 Q1315.83 94.9188 1312.23 92.9743 Q1308.66 90.9894 1306.32 86.9385 L1306.32 93.744 L1298.82 93.744 L1298.82 30.7119 L1306.32 30.7119 L1306.32 55.2604 Z" fill="#000000" fill-rule="nonzero" fill-opacity="1" /><path clip-path="url(#clip560)" d="M1351.77 48.3739 L1359.22 48.3739 L1359.22 93.744 L1351.77 93.744 L1351.77 48.3739 M1351.77 30.7119 L1359.22 30.7119 L1359.22 40.1505 L1351.77 40.1505 L1351.77 30.7119 Z" fill="#000000" fill-rule="nonzero" fill-opacity="1" /><path clip-path="url(#clip560)" d="M821.24 121.513 Q815.812 130.83 813.178 139.945 Q810.545 149.059 810.545 158.417 Q810.545 167.774 813.178 176.97 Q815.852 186.125 821.24 195.401 L814.758 195.401 Q808.682 185.882 805.644 176.686 Q802.646 167.491 802.646 158.417 Q802.646 149.383 805.644 140.228 Q808.641 131.073 814.758 121.513 L821.24 121.513 Z" fill="#000000" fill-rule="nonzero" fill-opacity="1" /><path clip-path="url(#clip560)" d="M844.208 130.709 L844.208 177.739 L854.093 177.739 Q866.61 177.739 872.403 172.068 Q878.236 166.397 878.236 154.163 Q878.236 142.011 872.403 136.38 Q866.61 130.709 854.093 130.709 L844.208 130.709 M836.026 123.984 L852.837 123.984 Q870.418 123.984 878.641 131.316 Q886.864 138.608 886.864 154.163 Q886.864 169.8 878.601 177.132 Q870.337 184.464 852.837 184.464 L836.026 184.464 L836.026 123.984 Z" fill="#000000" fill-rule="nonzero" fill-opacity="1" /><path clip-path="url(#clip560)" d="M900.556 146.791 L952.489 146.791 L952.489 153.596 L900.556 153.596 L900.556 146.791 M900.556 163.318 L952.489 163.318 L952.489 170.205 L900.556 170.205 L900.556 163.318 Z" fill="#000000" fill-rule="nonzero" fill-opacity="1" /><path clip-path="url(#clip560)" d="M971.569 177.577 L984.937 177.577 L984.937 131.438 L970.394 134.354 L970.394 126.901 L984.856 123.984 L993.039 123.984 L993.039 177.577 L1006.41 177.577 L1006.41 184.464 L971.569 184.464 L971.569 177.577 Z" fill="#000000" fill-rule="nonzero" fill-opacity="1" /><path clip-path="url(#clip560)" d="M1040.43 129.372 Q1034.11 129.372 1030.91 135.61 Q1027.75 141.808 1027.75 154.285 Q1027.75 166.721 1030.91 172.959 Q1034.11 179.157 1040.43 179.157 Q1046.79 179.157 1049.95 172.959 Q1053.15 166.721 1053.15 154.285 Q1053.15 141.808 1049.95 135.61 Q1046.79 129.372 1040.43 129.372 M1040.43 122.89 Q1050.6 122.89 1055.95 130.952 Q1061.34 138.972 1061.34 154.285 Q1061.34 169.557 1055.95 177.618 Q1050.6 185.639 1040.43 185.639 Q1030.27 185.639 1024.88 177.618 Q1019.53 169.557 1019.53 154.285 Q1019.53 138.972 1024.88 130.952 Q1030.27 122.89 1040.43 122.89 Z" fill="#000000" fill-rule="nonzero" fill-opacity="1" /><path clip-path="url(#clip560)" d="M1076.57 174.175 L1085.12 174.175 L1085.12 181.142 L1078.47 194.105 L1073.25 194.105 L1076.57 181.142 L1076.57 174.175 Z" fill="#000000" fill-rule="nonzero" fill-opacity="1" /><path clip-path="url(#clip560)" d="M1092.97 123.984 L1144.14 123.984 L1144.14 130.871 L1122.67 130.871 L1122.67 184.464 L1114.44 184.464 L1114.44 130.871 L1092.97 130.871 L1092.97 123.984 Z" fill="#000000" fill-rule="nonzero" fill-opacity="1" /><path clip-path="url(#clip560)" d="M1152.68 146.791 L1204.62 146.791 L1204.62 153.596 L1152.68 153.596 L1152.68 146.791 M1152.68 163.318 L1204.62 163.318 L1204.62 170.205 L1152.68 170.205 L1152.68 163.318 Z" fill="#000000" fill-rule="nonzero" fill-opacity="1" /><path clip-path="url(#clip560)" d="M1229.33 177.577 L1257.89 177.577 L1257.89 184.464 L1219.48 184.464 L1219.48 177.577 Q1224.14 172.757 1232.16 164.655 Q1240.22 156.513 1242.29 154.163 Q1246.22 149.748 1247.76 146.71 Q1249.34 143.631 1249.34 140.674 Q1249.34 135.853 1245.94 132.815 Q1242.57 129.777 1237.15 129.777 Q1233.3 129.777 1229 131.114 Q1224.75 132.45 1219.89 135.164 L1219.89 126.901 Q1224.83 124.916 1229.13 123.903 Q1233.42 122.89 1236.98 122.89 Q1246.38 122.89 1251.97 127.589 Q1257.56 132.288 1257.56 140.147 Q1257.56 143.874 1256.14 147.236 Q1254.77 150.558 1251.08 155.095 Q1250.07 156.27 1244.64 161.9 Q1239.21 167.491 1229.33 177.577 Z" fill="#000000" fill-rule="nonzero" fill-opacity="1" /><path clip-path="url(#clip560)" d="M1292.56 129.372 Q1286.24 129.372 1283.04 135.61 Q1279.88 141.808 1279.88 154.285 Q1279.88 166.721 1283.04 172.959 Q1286.24 179.157 1292.56 179.157 Q1298.92 179.157 1302.08 172.959 Q1305.28 166.721 1305.28 154.285 Q1305.28 141.808 1302.08 135.61 Q1298.92 129.372 1292.56 129.372 M1292.56 122.89 Q1302.73 122.89 1308.08 130.952 Q1313.47 138.972 1313.47 154.285 Q1313.47 169.557 1308.08 177.618 Q1302.73 185.639 1292.56 185.639 Q1282.39 185.639 1277.01 177.618 Q1271.66 169.557 1271.66 154.285 Q1271.66 138.972 1277.01 130.952 Q1282.39 122.89 1292.56 122.89 Z" fill="#000000" fill-rule="nonzero" fill-opacity="1" /><path clip-path="url(#clip560)" d="M1345.35 129.372 Q1339.03 129.372 1335.83 135.61 Q1332.67 141.808 1332.67 154.285 Q1332.67 166.721 1335.83 172.959 Q1339.03 179.157 1345.35 179.157 Q1351.71 179.157 1354.87 172.959 Q1358.07 166.721 1358.07 154.285 Q1358.07 141.808 1354.87 135.61 Q1351.71 129.372 1345.35 129.372 M1345.35 122.89 Q1355.51 122.89 1360.86 130.952 Q1366.25 138.972 1366.25 154.285 Q1366.25 169.557 1360.86 177.618 Q1355.51 185.639 1345.35 185.639 Q1335.18 185.639 1329.79 177.618 Q1324.44 169.557 1324.44 154.285 Q1324.44 138.972 1329.79 130.952 Q1335.18 122.89 1345.35 122.89 Z" fill="#000000" fill-rule="nonzero" fill-opacity="1" /><path clip-path="url(#clip560)" d="M1381.48 174.175 L1390.03 174.175 L1390.03 181.142 L1383.38 194.105 L1378.16 194.105 L1381.48 181.142 L1381.48 174.175 Z" fill="#000000" fill-rule="nonzero" fill-opacity="1" /><path clip-path="url(#clip560)" d="M1406.27 123.984 L1414.45 123.984 L1414.45 149.545 L1441.6 123.984 L1452.13 123.984 L1422.11 152.178 L1454.27 184.464 L1443.5 184.464 L1414.45 155.338 L1414.45 184.464 L1406.27 184.464 L1406.27 123.984 Z" fill="#000000" fill-rule="nonzero" fill-opacity="1" /><path clip-path="url(#clip560)" d="M1461.32 146.791 L1513.26 146.791 L1513.26 153.596 L1461.32 153.596 L1461.32 146.791 M1461.32 163.318 L1513.26 163.318 L1513.26 170.205 L1461.32 170.205 L1461.32 163.318 Z" fill="#000000" fill-rule="nonzero" fill-opacity="1" /><path clip-path="url(#clip560)" d="M1531 123.984 L1563.12 123.984 L1563.12 130.871 L1538.49 130.871 L1538.49 145.697 Q1540.28 145.089 1542.06 144.806 Q1543.84 144.482 1545.62 144.482 Q1555.75 144.482 1561.66 150.031 Q1567.58 155.581 1567.58 165.06 Q1567.58 174.823 1561.5 180.251 Q1555.43 185.639 1544.37 185.639 Q1540.56 185.639 1536.59 184.991 Q1532.66 184.342 1528.45 183.046 L1528.45 174.823 Q1532.09 176.808 1535.98 177.78 Q1539.87 178.752 1544.2 178.752 Q1551.21 178.752 1555.3 175.066 Q1559.4 171.38 1559.4 165.06 Q1559.4 158.741 1555.3 155.054 Q1551.21 151.368 1544.2 151.368 Q1540.92 151.368 1537.64 152.097 Q1534.4 152.826 1531 154.366 L1531 123.984 Z" fill="#000000" fill-rule="nonzero" fill-opacity="1" /><path clip-path="url(#clip560)" d="M1601.2 129.372 Q1594.88 129.372 1591.68 135.61 Q1588.52 141.808 1588.52 154.285 Q1588.52 166.721 1591.68 172.959 Q1594.88 179.157 1601.2 179.157 Q1607.56 179.157 1610.72 172.959 Q1613.92 166.721 1613.92 154.285 Q1613.92 141.808 1610.72 135.61 Q1607.56 129.372 1601.2 129.372 M1601.2 122.89 Q1611.37 122.89 1616.72 130.952 Q1622.1 138.972 1622.1 154.285 Q1622.1 169.557 1616.72 177.618 Q1611.37 185.639 1601.2 185.639 Q1591.03 185.639 1585.65 177.618 Q1580.3 169.557 1580.3 154.285 Q1580.3 138.972 1585.65 130.952 Q1591.03 122.89 1601.2 122.89 Z" fill="#000000" fill-rule="nonzero" fill-opacity="1" /><path clip-path="url(#clip560)" d="M1634.26 121.513 L1640.74 121.513 Q1646.81 131.073 1649.81 140.228 Q1652.85 149.383 1652.85 158.417 Q1652.85 167.491 1649.81 176.686 Q1646.81 185.882 1640.74 195.401 L1634.26 195.401 Q1639.64 186.125 1642.28 176.97 Q1644.95 167.774 1644.95 158.417 Q1644.95 149.059 1642.28 139.945 Q1639.64 130.83 1634.26 121.513 Z" fill="#000000" fill-rule="nonzero" fill-opacity="1" /><polyline clip-path="url(#clip562)" style="stroke:#0000ff; stroke-linecap:round; stroke-linejoin:round; stroke-width:6; stroke-opacity:1; fill:none" points="413.666,1227.46 685.027,1144.57 956.387,1032.65 1227.75,909.138 1499.11,771.553 1770.47,635.108 2041.83,472.78 "/>
<circle clip-path="url(#clip562)" cx="413.666" cy="1227.46" r="14.4" fill="#0000ff" fill-rule="evenodd" fill-opacity="1" stroke="#000000" stroke-opacity="1" stroke-width="3.2"/>
<circle clip-path="url(#clip562)" cx="685.027" cy="1144.57" r="14.4" fill="#0000ff" fill-rule="evenodd" fill-opacity="1" stroke="#000000" stroke-opacity="1" stroke-width="3.2"/>
<circle clip-path="url(#clip562)" cx="956.387" cy="1032.65" r="14.4" fill="#0000ff" fill-rule="evenodd" fill-opacity="1" stroke="#000000" stroke-opacity="1" stroke-width="3.2"/>
<circle clip-path="url(#clip562)" cx="1227.75" cy="909.138" r="14.4" fill="#0000ff" fill-rule="evenodd" fill-opacity="1" stroke="#000000" stroke-opacity="1" stroke-width="3.2"/>
<circle clip-path="url(#clip562)" cx="1499.11" cy="771.553" r="14.4" fill="#0000ff" fill-rule="evenodd" fill-opacity="1" stroke="#000000" stroke-opacity="1" stroke-width="3.2"/>
<circle clip-path="url(#clip562)" cx="1770.47" cy="635.108" r="14.4" fill="#0000ff" fill-rule="evenodd" fill-opacity="1" stroke="#000000" stroke-opacity="1" stroke-width="3.2"/>
<circle clip-path="url(#clip562)" cx="2041.83" cy="472.78" r="14.4" fill="#0000ff" fill-rule="evenodd" fill-opacity="1" stroke="#000000" stroke-opacity="1" stroke-width="3.2"/>
<polyline clip-path="url(#clip562)" style="stroke:#008000; stroke-linecap:round; stroke-linejoin:round; stroke-width:6; stroke-opacity:1; fill:none" stroke-dasharray="24, 12, 3, 12" points="413.666,1135.95 685.027,1034.68 956.387,940.297 1227.75,832.791 1499.11,723.17 1770.47,405.57 2041.83,283.465 "/>
<path clip-path="url(#clip562)" d="M429.666 1119.95 L397.666 1119.95 L413.666 1151.95 L429.666 1119.95 Z" fill="#008000" fill-rule="evenodd" fill-opacity="1" stroke="#000000" stroke-opacity="1" stroke-width="3.2"/>
<path clip-path="url(#clip562)" d="M701.027 1018.68 L669.027 1018.68 L685.027 1050.68 L701.027 1018.68 Z" fill="#008000" fill-rule="evenodd" fill-opacity="1" stroke="#000000" stroke-opacity="1" stroke-width="3.2"/>
<path clip-path="url(#clip562)" d="M972.387 924.297 L940.387 924.297 L956.387 956.297 L972.387 924.297 Z" fill="#008000" fill-rule="evenodd" fill-opacity="1" stroke="#000000" stroke-opacity="1" stroke-width="3.2"/>
<path clip-path="url(#clip562)" d="M1243.75 816.791 L1211.75 816.791 L1227.75 848.791 L1243.75 816.791 Z" fill="#008000" fill-rule="evenodd" fill-opacity="1" stroke="#000000" stroke-opacity="1" stroke-width="3.2"/>
<path clip-path="url(#clip562)" d="M1515.11 707.17 L1483.11 707.17 L1499.11 739.17 L1515.11 707.17 Z" fill="#008000" fill-rule="evenodd" fill-opacity="1" stroke="#000000" stroke-opacity="1" stroke-width="3.2"/>
<path clip-path="url(#clip562)" d="M1786.47 389.57 L1754.47 389.57 L1770.47 421.57 L1786.47 389.57 Z" fill="#008000" fill-rule="evenodd" fill-opacity="1" stroke="#000000" stroke-opacity="1" stroke-width="3.2"/>
<path clip-path="url(#clip562)" d="M2057.83 267.465 L2025.83 267.465 L2041.83 299.465 L2057.83 267.465 Z" fill="#008000" fill-rule="evenodd" fill-opacity="1" stroke="#000000" stroke-opacity="1" stroke-width="3.2"/>
<path clip-path="url(#clip560)" d="M383.515 472.362 L798.587 472.362 L798.587 316.842 L383.515 316.842  Z" fill="#ffffff" fill-rule="evenodd" fill-opacity="1"/>
<polyline clip-path="url(#clip560)" style="stroke:#000000; stroke-linecap:round; stroke-linejoin:round; stroke-width:4; stroke-opacity:1; fill:none" points="383.515,472.362 798.587,472.362 798.587,316.842 383.515,316.842 383.515,472.362 "/>
<polyline clip-path="url(#clip560)" style="stroke:#0000ff; stroke-linecap:round; stroke-linejoin:round; stroke-width:6; stroke-opacity:1; fill:none" points="403.616,368.682 524.22,368.682 "/>
<circle clip-path="url(#clip560)" cx="463.918" cy="368.682" r="16.7507" fill="#0000ff" fill-rule="evenodd" fill-opacity="1" stroke="#000000" stroke-opacity="1" stroke-width="4.55111"/>
<path clip-path="url(#clip560)" d="M544.321 351.402 L548.997 351.402 L548.997 365.569 L565.988 365.569 L565.988 351.402 L570.664 351.402 L570.664 385.962 L565.988 385.962 L565.988 369.504 L548.997 369.504 L548.997 385.962 L544.321 385.962 L544.321 351.402 Z" fill="#000000" fill-rule="nonzero" fill-opacity="1" /><path clip-path="url(#clip560)" d="M579.969 351.402 L586.937 351.402 L595.756 374.92 L604.622 351.402 L611.589 351.402 L611.589 385.962 L607.029 385.962 L607.029 355.615 L598.117 379.319 L593.418 379.319 L584.506 355.615 L584.506 385.962 L579.969 385.962 L579.969 351.402 Z" fill="#000000" fill-rule="nonzero" fill-opacity="1" /><path clip-path="url(#clip560)" d="M620.872 351.402 L627.839 351.402 L636.659 374.92 L645.524 351.402 L652.492 351.402 L652.492 385.962 L647.932 385.962 L647.932 355.615 L639.02 379.319 L634.321 379.319 L625.409 355.615 L625.409 385.962 L620.872 385.962 L620.872 351.402 Z" fill="#000000" fill-rule="nonzero" fill-opacity="1" /><path clip-path="url(#clip560)" d="M678.117 360.8 L678.117 364.828 Q676.311 363.902 674.367 363.439 Q672.422 362.976 670.339 362.976 Q667.168 362.976 665.571 363.948 Q663.997 364.92 663.997 366.865 Q663.997 368.346 665.131 369.203 Q666.265 370.036 669.691 370.8 L671.149 371.124 Q675.686 372.096 677.584 373.879 Q679.506 375.638 679.506 378.809 Q679.506 382.42 676.635 384.527 Q673.788 386.633 668.788 386.633 Q666.705 386.633 664.436 386.217 Q662.191 385.823 659.691 385.013 L659.691 380.615 Q662.052 381.842 664.344 382.467 Q666.635 383.068 668.881 383.068 Q671.89 383.068 673.51 382.05 Q675.131 381.008 675.131 379.133 Q675.131 377.397 673.95 376.471 Q672.793 375.545 668.834 374.689 L667.353 374.342 Q663.395 373.508 661.635 371.795 Q659.876 370.059 659.876 367.05 Q659.876 363.393 662.469 361.402 Q665.061 359.411 669.83 359.411 Q672.191 359.411 674.274 359.758 Q676.358 360.106 678.117 360.8 Z" fill="#000000" fill-rule="nonzero" fill-opacity="1" /><path clip-path="url(#clip560)" d="M686.89 380.082 L691.774 380.082 L691.774 385.962 L686.89 385.962 L686.89 380.082 Z" fill="#000000" fill-rule="nonzero" fill-opacity="1" /><path clip-path="url(#clip560)" d="M701.357 360.036 L705.617 360.036 L705.617 386.425 Q705.617 391.379 703.719 393.601 Q701.844 395.823 697.654 395.823 L696.033 395.823 L696.033 392.212 L697.168 392.212 Q699.598 392.212 700.478 391.078 Q701.357 389.967 701.357 386.425 L701.357 360.036 M701.357 349.944 L705.617 349.944 L705.617 355.337 L701.357 355.337 L701.357 349.944 Z" fill="#000000" fill-rule="nonzero" fill-opacity="1" /><path clip-path="url(#clip560)" d="M714.529 349.944 L718.788 349.944 L718.788 385.962 L714.529 385.962 L714.529 349.944 Z" fill="#000000" fill-rule="nonzero" fill-opacity="1" /><polyline clip-path="url(#clip560)" style="stroke:#008000; stroke-linecap:round; stroke-linejoin:round; stroke-width:6; stroke-opacity:1; fill:none" stroke-dasharray="24, 12, 3, 12" points="403.616,420.522 524.22,420.522 "/>
<path clip-path="url(#clip560)" d="M482.53 401.91 L445.306 401.91 L463.918 439.134 L482.53 401.91 Z" fill="#008000" fill-rule="evenodd" fill-opacity="1" stroke="#000000" stroke-opacity="1" stroke-width="4.55111"/>
<path clip-path="url(#clip560)" d="M566.034 422.154 L566.034 437.802 L561.775 437.802 L561.775 422.293 Q561.775 418.612 560.34 416.784 Q558.905 414.955 556.034 414.955 Q552.585 414.955 550.594 417.154 Q548.604 419.353 548.604 423.149 L548.604 437.802 L544.321 437.802 L544.321 401.784 L548.604 401.784 L548.604 415.904 Q550.131 413.566 552.192 412.409 Q554.275 411.251 556.983 411.251 Q561.451 411.251 563.742 414.029 Q566.034 416.784 566.034 422.154 Z" fill="#000000" fill-rule="nonzero" fill-opacity="1" /><path clip-path="url(#clip560)" d="M594.715 416.853 Q596.312 413.983 598.534 412.617 Q600.756 411.251 603.765 411.251 Q607.816 411.251 610.015 414.098 Q612.214 416.922 612.214 422.154 L612.214 437.802 L607.932 437.802 L607.932 422.293 Q607.932 418.566 606.613 416.76 Q605.293 414.955 602.585 414.955 Q599.275 414.955 597.353 417.154 Q595.432 419.353 595.432 423.149 L595.432 437.802 L591.15 437.802 L591.15 422.293 Q591.15 418.543 589.83 416.76 Q588.511 414.955 585.756 414.955 Q582.492 414.955 580.571 417.177 Q578.65 419.376 578.65 423.149 L578.65 437.802 L574.367 437.802 L574.367 411.876 L578.65 411.876 L578.65 415.904 Q580.108 413.52 582.145 412.385 Q584.182 411.251 586.983 411.251 Q589.807 411.251 591.775 412.686 Q593.765 414.122 594.715 416.853 Z" fill="#000000" fill-rule="nonzero" fill-opacity="1" /><path clip-path="url(#clip560)" d="M640.895 416.853 Q642.492 413.983 644.714 412.617 Q646.936 411.251 649.946 411.251 Q653.997 411.251 656.196 414.098 Q658.395 416.922 658.395 422.154 L658.395 437.802 L654.112 437.802 L654.112 422.293 Q654.112 418.566 652.793 416.76 Q651.473 414.955 648.765 414.955 Q645.455 414.955 643.534 417.154 Q641.612 419.353 641.612 423.149 L641.612 437.802 L637.33 437.802 L637.33 422.293 Q637.33 418.543 636.011 416.76 Q634.691 414.955 631.937 414.955 Q628.673 414.955 626.751 417.177 Q624.83 419.376 624.83 423.149 L624.83 437.802 L620.548 437.802 L620.548 411.876 L624.83 411.876 L624.83 415.904 Q626.288 413.52 628.325 412.385 Q630.362 411.251 633.163 411.251 Q635.987 411.251 637.955 412.686 Q639.946 414.122 640.895 416.853 Z" fill="#000000" fill-rule="nonzero" fill-opacity="1" /><path clip-path="url(#clip560)" d="M666.89 401.784 L671.149 401.784 L671.149 437.802 L666.89 437.802 L666.89 401.784 Z" fill="#000000" fill-rule="nonzero" fill-opacity="1" /><path clip-path="url(#clip560)" d="M702.237 423.774 L702.237 425.858 L682.654 425.858 Q682.932 430.256 685.293 432.571 Q687.677 434.862 691.913 434.862 Q694.367 434.862 696.658 434.26 Q698.973 433.658 701.242 432.455 L701.242 436.483 Q698.95 437.455 696.543 437.964 Q694.135 438.473 691.658 438.473 Q685.455 438.473 681.821 434.862 Q678.209 431.251 678.209 425.094 Q678.209 418.728 681.635 415.001 Q685.084 411.251 690.918 411.251 Q696.149 411.251 699.182 414.631 Q702.237 417.987 702.237 423.774 M697.978 422.524 Q697.932 419.029 696.01 416.946 Q694.112 414.862 690.964 414.862 Q687.399 414.862 685.246 416.876 Q683.117 418.89 682.793 422.547 L697.978 422.524 Z" fill="#000000" fill-rule="nonzero" fill-opacity="1" /><path clip-path="url(#clip560)" d="M721.01 424.77 Q715.848 424.77 713.857 425.95 Q711.867 427.131 711.867 429.978 Q711.867 432.246 713.348 433.589 Q714.853 434.908 717.422 434.908 Q720.964 434.908 723.093 432.409 Q725.246 429.885 725.246 425.719 L725.246 424.77 L721.01 424.77 M729.505 423.01 L729.505 437.802 L725.246 437.802 L725.246 433.867 Q723.788 436.228 721.612 437.362 Q719.436 438.473 716.288 438.473 Q712.306 438.473 709.945 436.251 Q707.607 434.006 707.607 430.256 Q707.607 425.881 710.524 423.659 Q713.464 421.436 719.274 421.436 L725.246 421.436 L725.246 421.02 Q725.246 418.08 723.302 416.483 Q721.38 414.862 717.885 414.862 Q715.663 414.862 713.556 415.395 Q711.45 415.927 709.506 416.992 L709.506 413.057 Q711.844 412.154 714.043 411.714 Q716.242 411.251 718.325 411.251 Q723.95 411.251 726.728 414.168 Q729.505 417.085 729.505 423.01 Z" fill="#000000" fill-rule="nonzero" fill-opacity="1" /><path clip-path="url(#clip560)" d="M753.302 415.858 Q752.584 415.441 751.728 415.256 Q750.894 415.047 749.876 415.047 Q746.265 415.047 744.32 417.409 Q742.399 419.747 742.399 424.145 L742.399 437.802 L738.117 437.802 L738.117 411.876 L742.399 411.876 L742.399 415.904 Q743.741 413.543 745.894 412.409 Q748.047 411.251 751.126 411.251 Q751.566 411.251 752.098 411.321 Q752.63 411.367 753.278 411.483 L753.302 415.858 Z" fill="#000000" fill-rule="nonzero" fill-opacity="1" /><path clip-path="url(#clip560)" d="M778.487 422.154 L778.487 437.802 L774.227 437.802 L774.227 422.293 Q774.227 418.612 772.792 416.784 Q771.357 414.955 768.487 414.955 Q765.038 414.955 763.047 417.154 Q761.056 419.353 761.056 423.149 L761.056 437.802 L756.774 437.802 L756.774 411.876 L761.056 411.876 L761.056 415.904 Q762.584 413.566 764.644 412.409 Q766.727 411.251 769.436 411.251 Q773.903 411.251 776.195 414.029 Q778.487 416.784 778.487 422.154 Z" fill="#000000" fill-rule="nonzero" fill-opacity="1" /></svg>
