<?xml version="1.0" encoding="utf-8"?>
<svg xmlns="http://www.w3.org/2000/svg" xmlns:xlink="http://www.w3.org/1999/xlink" width="600" height="400" viewBox="0 0 2400 1600">
<defs>
  <clipPath id="clip410">
    <rect x="0" y="0" width="2400" height="1600"/>
  </clipPath>
</defs>
<path clip-path="url(#clip410)" d="M0 1600 L2400 1600 L2400 0 L0 0  Z" fill="#ffffff" fill-rule="evenodd" fill-opacity="1"/>
<defs>
  <clipPath id="clip411">
    <rect x="480" y="0" width="1681" height="1600"/>
  </clipPath>
</defs>
<path clip-path="url(#clip410)" d="M323.213 1284.79 L2132.28 1284.79 L2132.28 283.465 L323.213 283.465  Z" fill="#ffffff" fill-rule="evenodd" fill-opacity="1"/>
<defs>
  <clipPath id="clip412">
    <rect x="323" y="283" width="1810" height="1002"/>
  </clipPath>
</defs>
<polyline clip-path="url(#clip412)" style="stroke:#000000; stroke-linecap:round; stroke-linejoin:round; stroke-width:2; stroke-opacity:0.1; fill:none" points="685.027,1284.79 685.027,283.465 "/>
<polyline clip-path="url(#clip412)" style="stroke:#000000; stroke-linecap:round; stroke-linejoin:round; stroke-width:2; stroke-opacity:0.1; fill:none" points="1137.29,1284.79 1137.29,283.465 "/>
<polyline clip-path="url(#clip412)" style="stroke:#000000; stroke-linecap:round; stroke-linejoin:round; stroke-width:2; stroke-opacity:0.1; fill:none" points="1589.56,1284.79 1589.56,283.465 "/>
<polyline clip-path="url(#clip412)" style="stroke:#000000; stroke-linecap:round; stroke-linejoin:round; stroke-width:2; stroke-opacity:0.1; fill:none" points="2041.83,1284.79 2041.83,283.465 "/>
<polyline clip-path="url(#clip410)" style="stroke:#000000; stroke-linecap:round; stroke-linejoin:round; stroke-width:4; stroke-opacity:1; fill:none" points="323.213,1284.79 2132.28,1284.79 "/>
<polyline clip-path="url(#clip410)" style="stroke:#000000; stroke-linecap:round; stroke-linejoin:round; stroke-width:4; stroke-opacity:1; fill:none" points="685.027,1284.79 685.027,1265.89 "/>
<polyline clip-path="url(#clip410)" style="stroke:#000000; stroke-linecap:round; stroke-linejoin:round; stroke-width:4; stroke-opacity:1; fill:none" points="1137.29,1284.79 1137.29,1265.89 "/>
<polyline clip-path="url(#clip410)" style="stroke:#000000; stroke-linecap:round; stroke-linejoin:round; stroke-width:4; stroke-opacity:1; fill:none" points="1589.56,1284.79 1589.56,1265.89 "/>
<polyline clip-path="url(#clip410)" style="stroke:#000000; stroke-linecap:round; stroke-linejoin:round; stroke-width:4; stroke-opacity:1; fill:none" points="2041.83,1284.79 2041.83,1265.89 "/>
<path clip-path="url(#clip410)" d="M675.305 1312.63 L693.661 1312.63 L693.661 1316.56 L679.587 1316.56 L679.587 1325.03 Q680.605 1324.69 681.624 1324.53 Q682.643 1324.34 683.661 1324.34 Q689.448 1324.34 692.828 1327.51 Q696.207 1330.68 696.207 1336.1 Q696.207 1341.68 692.735 1344.78 Q689.263 1347.86 682.943 1347.86 Q680.768 1347.86 678.499 1347.49 Q676.254 1347.12 673.846 1346.38 L673.846 1341.68 Q675.93 1342.81 678.152 1343.37 Q680.374 1343.92 682.851 1343.92 Q686.855 1343.92 689.193 1341.82 Q691.531 1339.71 691.531 1336.1 Q691.531 1332.49 689.193 1330.38 Q686.855 1328.28 682.851 1328.28 Q680.976 1328.28 679.101 1328.69 Q677.249 1329.11 675.305 1329.99 L675.305 1312.63 Z" fill="#000000" fill-rule="nonzero" fill-opacity="1" /><path clip-path="url(#clip410)" d="M1111.98 1343.25 L1119.62 1343.25 L1119.62 1316.89 L1111.31 1318.55 L1111.31 1314.29 L1119.57 1312.63 L1124.25 1312.63 L1124.25 1343.25 L1131.89 1343.25 L1131.89 1347.19 L1111.98 1347.19 L1111.98 1343.25 Z" fill="#000000" fill-rule="nonzero" fill-opacity="1" /><path clip-path="url(#clip410)" d="M1151.33 1315.71 Q1147.72 1315.71 1145.89 1319.27 Q1144.09 1322.81 1144.09 1329.94 Q1144.09 1337.05 1145.89 1340.61 Q1147.72 1344.16 1151.33 1344.16 Q1154.97 1344.16 1156.77 1340.61 Q1158.6 1337.05 1158.6 1329.94 Q1158.6 1322.81 1156.77 1319.27 Q1154.97 1315.71 1151.33 1315.71 M1151.33 1312 Q1157.14 1312 1160.2 1316.61 Q1163.28 1321.19 1163.28 1329.94 Q1163.28 1338.67 1160.2 1343.28 Q1157.14 1347.86 1151.33 1347.86 Q1145.52 1347.86 1142.44 1343.28 Q1139.39 1338.67 1139.39 1329.94 Q1139.39 1321.19 1142.44 1316.61 Q1145.52 1312 1151.33 1312 Z" fill="#000000" fill-rule="nonzero" fill-opacity="1" /><path clip-path="url(#clip410)" d="M1564.75 1343.25 L1572.39 1343.25 L1572.39 1316.89 L1564.08 1318.55 L1564.08 1314.29 L1572.34 1312.63 L1577.02 1312.63 L1577.02 1343.25 L1584.65 1343.25 L1584.65 1347.19 L1564.75 1347.19 L1564.75 1343.25 Z" fill="#000000" fill-rule="nonzero" fill-opacity="1" /><path clip-path="url(#clip410)" d="M1594.15 1312.63 L1612.5 1312.63 L1612.5 1316.56 L1598.43 1316.56 L1598.43 1325.03 Q1599.45 1324.69 1600.46 1324.53 Q1601.48 1324.34 1602.5 1324.34 Q1608.29 1324.34 1611.67 1327.51 Q1615.05 1330.68 1615.05 1336.1 Q1615.05 1341.68 1611.58 1344.78 Q1608.1 1347.86 1601.78 1347.86 Q1599.61 1347.86 1597.34 1347.49 Q1595.09 1347.12 1592.69 1346.38 L1592.69 1341.68 Q1594.77 1342.81 1596.99 1343.37 Q1599.21 1343.92 1601.69 1343.92 Q1605.7 1343.92 1608.03 1341.82 Q1610.37 1339.71 1610.37 1336.1 Q1610.37 1332.49 1608.03 1330.38 Q1605.7 1328.28 1601.69 1328.28 Q1599.82 1328.28 1597.94 1328.69 Q1596.09 1329.11 1594.15 1329.99 L1594.15 1312.63 Z" fill="#000000" fill-rule="nonzero" fill-opacity="1" /><path clip-path="url(#clip410)" d="M2020.6 1343.25 L2036.92 1343.25 L2036.92 1347.19 L2014.98 1347.19 L2014.98 1343.25 Q2017.64 1340.5 2022.22 1335.87 Q2026.83 1331.22 2028.01 1329.87 Q2030.26 1327.35 2031.14 1325.61 Q2032.04 1323.85 2032.04 1322.16 Q2032.04 1319.41 2030.09 1317.67 Q2028.17 1315.94 2025.07 1315.94 Q2022.87 1315.94 2020.42 1316.7 Q2017.99 1317.47 2015.21 1319.02 L2015.21 1314.29 Q2018.03 1313.16 2020.49 1312.58 Q2022.94 1312 2024.98 1312 Q2030.35 1312 2033.54 1314.69 Q2036.74 1317.37 2036.74 1321.86 Q2036.74 1323.99 2035.93 1325.91 Q2035.14 1327.81 2033.03 1330.41 Q2032.45 1331.08 2029.35 1334.29 Q2026.25 1337.49 2020.6 1343.25 Z" fill="#000000" fill-rule="nonzero" fill-opacity="1" /><path clip-path="url(#clip410)" d="M2056.74 1315.71 Q2053.13 1315.71 2051.3 1319.27 Q2049.49 1322.81 2049.49 1329.94 Q2049.49 1337.05 2051.3 1340.61 Q2053.13 1344.16 2056.74 1344.16 Q2060.37 1344.16 2062.18 1340.61 Q2064.01 1337.05 2064.01 1329.94 Q2064.01 1322.81 2062.18 1319.27 Q2060.37 1315.71 2056.74 1315.71 M2056.74 1312 Q2062.55 1312 2065.6 1316.61 Q2068.68 1321.19 2068.68 1329.94 Q2068.68 1338.67 2065.6 1343.28 Q2062.55 1347.86 2056.74 1347.86 Q2050.93 1347.86 2047.85 1343.28 Q2044.79 1338.67 2044.79 1329.94 Q2044.79 1321.19 2047.85 1316.61 Q2050.93 1312 2056.74 1312 Z" fill="#000000" fill-rule="nonzero" fill-opacity="1" /><path clip-path="url(#clip410)" d="M950.14 1408.14 L950.14 1429.65 L944.283 1429.65 L944.283 1408.33 Q944.283 1403.27 942.31 1400.75 Q940.336 1398.24 936.39 1398.24 Q931.647 1398.24 928.91 1401.26 Q926.173 1404.28 926.173 1409.5 L926.173 1429.65 L920.284 1429.65 L920.284 1394 L926.173 1394 L926.173 1399.54 Q928.273 1396.33 931.106 1394.74 Q933.971 1393.14 937.695 1393.14 Q943.838 1393.14 946.989 1396.96 Q950.14 1400.75 950.14 1408.14 Z" fill="#000000" fill-rule="nonzero" fill-opacity="1" /><path clip-path="url(#clip410)" d="M961.216 1415.58 L961.216 1394 L967.072 1394 L967.072 1415.36 Q967.072 1420.42 969.046 1422.97 Q971.019 1425.48 974.966 1425.48 Q979.708 1425.48 982.446 1422.46 Q985.215 1419.43 985.215 1414.21 L985.215 1394 L991.071 1394 L991.071 1429.65 L985.215 1429.65 L985.215 1424.18 Q983.082 1427.42 980.249 1429.01 Q977.448 1430.57 973.725 1430.57 Q967.582 1430.57 964.399 1426.76 Q961.216 1422.94 961.216 1415.58 M975.953 1393.14 L975.953 1393.14 Z" fill="#000000" fill-rule="nonzero" fill-opacity="1" /><path clip-path="url(#clip410)" d="M1030.89 1400.85 Q1033.08 1396.9 1036.14 1395.02 Q1039.2 1393.14 1043.33 1393.14 Q1048.9 1393.14 1051.93 1397.06 Q1054.95 1400.94 1054.95 1408.14 L1054.95 1429.65 L1049.06 1429.65 L1049.06 1408.33 Q1049.06 1403.2 1047.25 1400.72 Q1045.43 1398.24 1041.71 1398.24 Q1037.16 1398.24 1034.52 1401.26 Q1031.88 1404.28 1031.88 1409.5 L1031.88 1429.65 L1025.99 1429.65 L1025.99 1408.33 Q1025.99 1403.17 1024.17 1400.72 Q1022.36 1398.24 1018.57 1398.24 Q1014.08 1398.24 1011.44 1401.29 Q1008.8 1404.32 1008.8 1409.5 L1008.8 1429.65 L1002.91 1429.65 L1002.91 1394 L1008.8 1394 L1008.8 1399.54 Q1010.8 1396.26 1013.61 1394.7 Q1016.41 1393.14 1020.26 1393.14 Q1024.14 1393.14 1026.85 1395.12 Q1029.58 1397.09 1030.89 1400.85 Z" fill="#000000" fill-rule="nonzero" fill-opacity="1" /><path clip-path="url(#clip410)" d="M1092.22 1411.86 Q1092.22 1405.4 1089.55 1401.74 Q1086.91 1398.05 1082.26 1398.05 Q1077.61 1398.05 1074.94 1401.74 Q1072.3 1405.4 1072.3 1411.86 Q1072.3 1418.32 1074.94 1422.01 Q1077.61 1425.67 1082.26 1425.67 Q1086.91 1425.67 1089.55 1422.01 Q1092.22 1418.32 1092.22 1411.86 M1072.3 1399.41 Q1074.14 1396.23 1076.94 1394.7 Q1079.78 1393.14 1083.69 1393.14 Q1090.19 1393.14 1094.23 1398.3 Q1098.3 1403.46 1098.3 1411.86 Q1098.3 1420.26 1094.23 1425.42 Q1090.19 1430.57 1083.69 1430.57 Q1079.78 1430.57 1076.94 1429.05 Q1074.14 1427.49 1072.3 1424.3 L1072.3 1429.65 L1066.41 1429.65 L1066.41 1380.13 L1072.3 1380.13 L1072.3 1399.41 Z" fill="#000000" fill-rule="nonzero" fill-opacity="1" /><path clip-path="url(#clip410)" d="M1138.5 1410.36 L1138.5 1413.23 L1111.57 1413.23 Q1111.96 1419.28 1115.2 1422.46 Q1118.48 1425.61 1124.31 1425.61 Q1127.68 1425.61 1130.83 1424.78 Q1134.01 1423.95 1137.13 1422.3 L1137.13 1427.84 Q1133.98 1429.17 1130.67 1429.87 Q1127.36 1430.57 1123.96 1430.57 Q1115.43 1430.57 1110.43 1425.61 Q1105.46 1420.64 1105.46 1412.18 Q1105.46 1403.42 1110.17 1398.3 Q1114.92 1393.14 1122.94 1393.14 Q1130.13 1393.14 1134.3 1397.79 Q1138.5 1402.41 1138.5 1410.36 M1132.64 1408.64 Q1132.58 1403.84 1129.94 1400.97 Q1127.33 1398.11 1123 1398.11 Q1118.1 1398.11 1115.14 1400.88 Q1112.21 1403.65 1111.76 1408.68 L1132.64 1408.64 Z" fill="#000000" fill-rule="nonzero" fill-opacity="1" /><path clip-path="url(#clip410)" d="M1168.77 1399.48 Q1167.78 1398.91 1166.61 1398.65 Q1165.46 1398.36 1164.06 1398.36 Q1159.09 1398.36 1156.42 1401.61 Q1153.78 1404.83 1153.78 1410.87 L1153.78 1429.65 L1147.89 1429.65 L1147.89 1394 L1153.78 1394 L1153.78 1399.54 Q1155.62 1396.3 1158.58 1394.74 Q1161.54 1393.14 1165.78 1393.14 Q1166.38 1393.14 1167.11 1393.24 Q1167.85 1393.3 1168.74 1393.46 L1168.77 1399.48 Z" fill="#000000" fill-rule="nonzero" fill-opacity="1" /><path clip-path="url(#clip410)" d="M1209.45 1398.11 Q1204.74 1398.11 1202 1401.8 Q1199.26 1405.46 1199.26 1411.86 Q1199.26 1418.26 1201.97 1421.95 Q1204.7 1425.61 1209.45 1425.61 Q1214.13 1425.61 1216.86 1421.92 Q1219.6 1418.22 1219.6 1411.86 Q1219.6 1405.53 1216.86 1401.83 Q1214.13 1398.11 1209.45 1398.11 M1209.45 1393.14 Q1217.09 1393.14 1221.45 1398.11 Q1225.81 1403.07 1225.81 1411.86 Q1225.81 1420.61 1221.45 1425.61 Q1217.09 1430.57 1209.45 1430.57 Q1201.78 1430.57 1197.42 1425.61 Q1193.09 1420.61 1193.09 1411.86 Q1193.09 1403.07 1197.42 1398.11 Q1201.78 1393.14 1209.45 1393.14 Z" fill="#000000" fill-rule="nonzero" fill-opacity="1" /><path clip-path="url(#clip410)" d="M1253.56 1380.13 L1253.56 1385 L1247.96 1385 Q1244.81 1385 1243.57 1386.27 Q1242.36 1387.54 1242.36 1390.85 L1242.36 1394 L1252 1394 L1252 1398.55 L1242.36 1398.55 L1242.36 1429.65 L1236.47 1429.65 L1236.47 1398.55 L1230.87 1398.55 L1230.87 1394 L1236.47 1394 L1236.47 1391.52 Q1236.47 1385.57 1239.24 1382.86 Q1242.01 1380.13 1248.02 1380.13 L1253.56 1380.13 Z" fill="#000000" fill-rule="nonzero" fill-opacity="1" /><path clip-path="url(#clip410)" d="M1301.91 1395.05 L1301.91 1400.59 Q1299.43 1399.32 1296.75 1398.68 Q1294.08 1398.05 1291.21 1398.05 Q1286.85 1398.05 1284.66 1399.38 Q1282.49 1400.72 1282.49 1403.39 Q1282.49 1405.43 1284.05 1406.61 Q1285.61 1407.75 1290.32 1408.8 L1292.33 1409.25 Q1298.57 1410.59 1301.18 1413.04 Q1303.82 1415.46 1303.82 1419.82 Q1303.82 1424.78 1299.87 1427.68 Q1295.96 1430.57 1289.08 1430.57 Q1286.22 1430.57 1283.1 1430 Q1280.01 1429.46 1276.57 1428.35 L1276.57 1422.3 Q1279.82 1423.99 1282.97 1424.85 Q1286.12 1425.67 1289.21 1425.67 Q1293.35 1425.67 1295.57 1424.27 Q1297.8 1422.84 1297.8 1420.26 Q1297.8 1417.87 1296.18 1416.6 Q1294.59 1415.33 1289.15 1414.15 L1287.11 1413.67 Q1281.67 1412.53 1279.25 1410.17 Q1276.83 1407.79 1276.83 1403.65 Q1276.83 1398.62 1280.39 1395.88 Q1283.96 1393.14 1290.51 1393.14 Q1293.76 1393.14 1296.62 1393.62 Q1299.49 1394.1 1301.91 1395.05 Z" fill="#000000" fill-rule="nonzero" fill-opacity="1" /><path clip-path="url(#clip410)" d="M1318.94 1383.88 L1318.94 1394 L1331 1394 L1331 1398.55 L1318.94 1398.55 L1318.94 1417.91 Q1318.94 1422.27 1320.11 1423.51 Q1321.32 1424.75 1324.98 1424.75 L1331 1424.75 L1331 1429.65 L1324.98 1429.65 Q1318.2 1429.65 1315.63 1427.14 Q1313.05 1424.59 1313.05 1417.91 L1313.05 1398.55 L1308.75 1398.55 L1308.75 1394 L1313.05 1394 L1313.05 1383.88 L1318.94 1383.88 Z" fill="#000000" fill-rule="nonzero" fill-opacity="1" /><path clip-path="url(#clip410)" d="M1354.9 1411.73 Q1347.81 1411.73 1345.07 1413.36 Q1342.33 1414.98 1342.33 1418.89 Q1342.33 1422.01 1344.37 1423.86 Q1346.44 1425.67 1349.97 1425.67 Q1354.84 1425.67 1357.77 1422.24 Q1360.73 1418.77 1360.73 1413.04 L1360.73 1411.73 L1354.9 1411.73 M1366.58 1409.31 L1366.58 1429.65 L1360.73 1429.65 L1360.73 1424.24 Q1358.72 1427.49 1355.73 1429.05 Q1352.74 1430.57 1348.41 1430.57 Q1342.94 1430.57 1339.69 1427.52 Q1336.47 1424.43 1336.47 1419.28 Q1336.47 1413.26 1340.48 1410.2 Q1344.53 1407.15 1352.52 1407.15 L1360.73 1407.15 L1360.73 1406.58 Q1360.73 1402.53 1358.05 1400.34 Q1355.41 1398.11 1350.61 1398.11 Q1347.55 1398.11 1344.65 1398.84 Q1341.76 1399.57 1339.08 1401.04 L1339.08 1395.63 Q1342.3 1394.39 1345.32 1393.78 Q1348.35 1393.14 1351.21 1393.14 Q1358.95 1393.14 1362.76 1397.15 Q1366.58 1401.16 1366.58 1409.31 Z" fill="#000000" fill-rule="nonzero" fill-opacity="1" /><path clip-path="url(#clip410)" d="M1384.44 1383.88 L1384.44 1394 L1396.5 1394 L1396.5 1398.55 L1384.44 1398.55 L1384.44 1417.91 Q1384.44 1422.27 1385.62 1423.51 Q1386.83 1424.75 1390.49 1424.75 L1396.5 1424.75 L1396.5 1429.65 L1390.49 1429.65 Q1383.71 1429.65 1381.13 1427.14 Q1378.55 1424.59 1378.55 1417.91 L1378.55 1398.55 L1374.25 1398.55 L1374.25 1394 L1378.55 1394 L1378.55 1383.88 L1384.44 1383.88 Z" fill="#000000" fill-rule="nonzero" fill-opacity="1" /><path clip-path="url(#clip410)" d="M1434.7 1410.36 L1434.7 1413.23 L1407.77 1413.23 Q1408.15 1419.28 1411.4 1422.46 Q1414.68 1425.61 1420.5 1425.61 Q1423.88 1425.61 1427.03 1424.78 Q1430.21 1423.95 1433.33 1422.3 L1433.33 1427.84 Q1430.18 1429.17 1426.87 1429.87 Q1423.56 1430.57 1420.15 1430.57 Q1411.62 1430.57 1406.62 1425.61 Q1401.66 1420.64 1401.66 1412.18 Q1401.66 1403.42 1406.37 1398.3 Q1411.11 1393.14 1419.13 1393.14 Q1426.33 1393.14 1430.5 1397.79 Q1434.7 1402.41 1434.7 1410.36 M1428.84 1408.64 Q1428.78 1403.84 1426.14 1400.97 Q1423.53 1398.11 1419.2 1398.11 Q1414.3 1398.11 1411.34 1400.88 Q1408.41 1403.65 1407.96 1408.68 L1428.84 1408.64 Z" fill="#000000" fill-rule="nonzero" fill-opacity="1" /><path clip-path="url(#clip410)" d="M1467.03 1395.05 L1467.03 1400.59 Q1464.55 1399.32 1461.88 1398.68 Q1459.21 1398.05 1456.34 1398.05 Q1451.98 1398.05 1449.78 1399.38 Q1447.62 1400.72 1447.62 1403.39 Q1447.62 1405.43 1449.18 1406.61 Q1450.74 1407.75 1455.45 1408.8 L1457.45 1409.25 Q1463.69 1410.59 1466.3 1413.04 Q1468.94 1415.46 1468.94 1419.82 Q1468.94 1424.78 1465 1427.68 Q1461.08 1430.57 1454.21 1430.57 Q1451.34 1430.57 1448.22 1430 Q1445.14 1429.46 1441.7 1428.35 L1441.7 1422.3 Q1444.95 1423.99 1448.1 1424.85 Q1451.25 1425.67 1454.34 1425.67 Q1458.47 1425.67 1460.7 1424.27 Q1462.93 1422.84 1462.93 1420.26 Q1462.93 1417.87 1461.31 1416.6 Q1459.71 1415.33 1454.27 1414.15 L1452.23 1413.67 Q1446.79 1412.53 1444.37 1410.17 Q1441.95 1407.79 1441.95 1403.65 Q1441.95 1398.62 1445.52 1395.88 Q1449.08 1393.14 1455.64 1393.14 Q1458.89 1393.14 1461.75 1393.62 Q1464.62 1394.1 1467.03 1395.05 Z" fill="#000000" fill-rule="nonzero" fill-opacity="1" /><path clip-path="url(#clip410)" d="M1499.25 1382.13 L1507.9 1382.13 L1528.97 1421.89 L1528.97 1382.13 L1535.21 1382.13 L1535.21 1429.65 L1526.55 1429.65 L1505.48 1389.9 L1505.48 1429.65 L1499.25 1429.65 L1499.25 1382.13 Z" fill="#000000" fill-rule="nonzero" fill-opacity="1" /><polyline clip-path="url(#clip412)" style="stroke:#000000; stroke-linecap:round; stroke-linejoin:round; stroke-width:2; stroke-opacity:0.1; fill:none" points="323.213,1284.79 2132.28,1284.79 "/>
<polyline clip-path="url(#clip412)" style="stroke:#000000; stroke-linecap:round; stroke-linejoin:round; stroke-width:2; stroke-opacity:0.1; fill:none" points="323.213,1035.34 2132.28,1035.34 "/>
<polyline clip-path="url(#clip412)" style="stroke:#000000; stroke-linecap:round; stroke-linejoin:round; stroke-width:2; stroke-opacity:0.1; fill:none" points="323.213,785.885 2132.28,785.885 "/>
<polyline clip-path="url(#clip412)" style="stroke:#000000; stroke-linecap:round; stroke-linejoin:round; stroke-width:2; stroke-opacity:0.1; fill:none" points="323.213,536.433 2132.28,536.433 "/>
<polyline clip-path="url(#clip412)" style="stroke:#000000; stroke-linecap:round; stroke-linejoin:round; stroke-width:2; stroke-opacity:0.1; fill:none" points="323.213,286.982 2132.28,286.982 "/>
<polyline clip-path="url(#clip410)" style="stroke:#000000; stroke-linecap:round; stroke-linejoin:round; stroke-width:4; stroke-opacity:1; fill:none" points="323.213,1284.79 323.213,283.465 "/>
<polyline clip-path="url(#clip410)" style="stroke:#000000; stroke-linecap:round; stroke-linejoin:round; stroke-width:4; stroke-opacity:1; fill:none" points="323.213,1284.79 342.11,1284.79 "/>
<polyline clip-path="url(#clip410)" style="stroke:#000000; stroke-linecap:round; stroke-linejoin:round; stroke-width:4; stroke-opacity:1; fill:none" points="323.213,1035.34 342.11,1035.34 "/>
<polyline clip-path="url(#clip410)" style="stroke:#000000; stroke-linecap:round; stroke-linejoin:round; stroke-width:4; stroke-opacity:1; fill:none" points="323.213,785.885 342.11,785.885 "/>
<polyline clip-path="url(#clip410)" style="stroke:#000000; stroke-linecap:round; stroke-linejoin:round; stroke-width:4; stroke-opacity:1; fill:none" points="323.213,536.433 342.11,536.433 "/>
<polyline clip-path="url(#clip410)" style="stroke:#000000; stroke-linecap:round; stroke-linejoin:round; stroke-width:4; stroke-opacity:1; fill:none" points="323.213,286.982 342.11,286.982 "/>
<path clip-path="url(#clip410)" d="M275.268 1270.59 Q271.657 1270.59 269.828 1274.15 Q268.023 1277.69 268.023 1284.82 Q268.023 1291.93 269.828 1295.49 Q271.657 1299.04 275.268 1299.04 Q278.902 1299.04 280.708 1295.49 Q282.537 1291.93 282.537 1284.82 Q282.537 1277.69 280.708 1274.15 Q278.902 1270.59 275.268 1270.59 M275.268 1266.88 Q281.078 1266.88 284.134 1271.49 Q287.213 1276.07 287.213 1284.82 Q287.213 1293.55 284.134 1298.16 Q281.078 1302.74 275.268 1302.74 Q269.458 1302.74 266.379 1298.16 Q263.324 1293.55 263.324 1284.82 Q263.324 1276.07 266.379 1271.49 Q269.458 1266.88 275.268 1266.88 Z" fill="#000000" fill-rule="nonzero" fill-opacity="1" /><path clip-path="url(#clip410)" d="M205.755 1048.68 L213.394 1048.68 L213.394 1022.32 L205.083 1023.98 L205.083 1019.72 L213.347 1018.06 L218.023 1018.06 L218.023 1048.68 L225.662 1048.68 L225.662 1052.62 L205.755 1052.62 L205.755 1048.68 Z" fill="#000000" fill-rule="nonzero" fill-opacity="1" /><path clip-path="url(#clip410)" d="M245.106 1021.13 Q241.495 1021.13 239.667 1024.7 Q237.861 1028.24 237.861 1035.37 Q237.861 1042.48 239.667 1046.04 Q241.495 1049.58 245.106 1049.58 Q248.741 1049.58 250.546 1046.04 Q252.375 1042.48 252.375 1035.37 Q252.375 1028.24 250.546 1024.7 Q248.741 1021.13 245.106 1021.13 M245.106 1017.43 Q250.916 1017.43 253.972 1022.04 Q257.051 1026.62 257.051 1035.37 Q257.051 1044.1 253.972 1048.7 Q250.916 1053.29 245.106 1053.29 Q239.296 1053.29 236.218 1048.7 Q233.162 1044.1 233.162 1035.37 Q233.162 1026.62 236.218 1022.04 Q239.296 1017.43 245.106 1017.43 Z" fill="#000000" fill-rule="nonzero" fill-opacity="1" /><path clip-path="url(#clip410)" d="M275.268 1021.13 Q271.657 1021.13 269.828 1024.7 Q268.023 1028.24 268.023 1035.37 Q268.023 1042.48 269.828 1046.04 Q271.657 1049.58 275.268 1049.58 Q278.902 1049.58 280.708 1046.04 Q282.537 1042.48 282.537 1035.37 Q282.537 1028.24 280.708 1024.7 Q278.902 1021.13 275.268 1021.13 M275.268 1017.43 Q281.078 1017.43 284.134 1022.04 Q287.213 1026.62 287.213 1035.37 Q287.213 1044.1 284.134 1048.7 Q281.078 1053.29 275.268 1053.29 Q269.458 1053.29 266.379 1048.7 Q263.324 1044.1 263.324 1035.37 Q263.324 1026.62 266.379 1022.04 Q269.458 1017.43 275.268 1017.43 Z" fill="#000000" fill-rule="nonzero" fill-opacity="1" /><path clip-path="url(#clip410)" d="M208.972 799.23 L225.292 799.23 L225.292 803.165 L203.347 803.165 L203.347 799.23 Q206.009 796.475 210.593 791.845 Q215.199 787.193 216.38 785.85 Q218.625 783.327 219.505 781.591 Q220.407 779.831 220.407 778.142 Q220.407 775.387 218.463 773.651 Q216.542 771.915 213.44 771.915 Q211.241 771.915 208.787 772.679 Q206.357 773.443 203.579 774.994 L203.579 770.271 Q206.403 769.137 208.857 768.558 Q211.31 767.98 213.347 767.98 Q218.718 767.98 221.912 770.665 Q225.106 773.35 225.106 777.841 Q225.106 779.97 224.296 781.892 Q223.509 783.79 221.403 786.382 Q220.824 787.054 217.722 790.271 Q214.62 793.466 208.972 799.23 Z" fill="#000000" fill-rule="nonzero" fill-opacity="1" /><path clip-path="url(#clip410)" d="M245.106 771.683 Q241.495 771.683 239.667 775.248 Q237.861 778.79 237.861 785.919 Q237.861 793.026 239.667 796.591 Q241.495 800.132 245.106 800.132 Q248.741 800.132 250.546 796.591 Q252.375 793.026 252.375 785.919 Q252.375 778.79 250.546 775.248 Q248.741 771.683 245.106 771.683 M245.106 767.98 Q250.916 767.98 253.972 772.586 Q257.051 777.169 257.051 785.919 Q257.051 794.646 253.972 799.253 Q250.916 803.836 245.106 803.836 Q239.296 803.836 236.218 799.253 Q233.162 794.646 233.162 785.919 Q233.162 777.169 236.218 772.586 Q239.296 767.98 245.106 767.98 Z" fill="#000000" fill-rule="nonzero" fill-opacity="1" /><path clip-path="url(#clip410)" d="M275.268 771.683 Q271.657 771.683 269.828 775.248 Q268.023 778.79 268.023 785.919 Q268.023 793.026 269.828 796.591 Q271.657 800.132 275.268 800.132 Q278.902 800.132 280.708 796.591 Q282.537 793.026 282.537 785.919 Q282.537 778.79 280.708 775.248 Q278.902 771.683 275.268 771.683 M275.268 767.98 Q281.078 767.98 284.134 772.586 Q287.213 777.169 287.213 785.919 Q287.213 794.646 284.134 799.253 Q281.078 803.836 275.268 803.836 Q269.458 803.836 266.379 799.253 Q263.324 794.646 263.324 785.919 Q263.324 777.169 266.379 772.586 Q269.458 767.98 275.268 767.98 Z" fill="#000000" fill-rule="nonzero" fill-opacity="1" /><path clip-path="url(#clip410)" d="M219.111 535.079 Q222.468 535.797 224.343 538.065 Q226.241 540.334 226.241 543.667 Q226.241 548.783 222.722 551.584 Q219.204 554.385 212.722 554.385 Q210.546 554.385 208.232 553.945 Q205.94 553.528 203.486 552.672 L203.486 548.158 Q205.431 549.292 207.745 549.871 Q210.06 550.449 212.583 550.449 Q216.981 550.449 219.273 548.713 Q221.588 546.977 221.588 543.667 Q221.588 540.612 219.435 538.899 Q217.306 537.162 213.486 537.162 L209.458 537.162 L209.458 533.32 L213.671 533.32 Q217.12 533.32 218.949 531.954 Q220.778 530.565 220.778 527.973 Q220.778 525.311 218.88 523.899 Q217.005 522.463 213.486 522.463 Q211.565 522.463 209.366 522.88 Q207.167 523.297 204.528 524.176 L204.528 520.01 Q207.19 519.269 209.505 518.899 Q211.843 518.528 213.903 518.528 Q219.227 518.528 222.329 520.959 Q225.431 523.366 225.431 527.487 Q225.431 530.357 223.787 532.348 Q222.144 534.315 219.111 535.079 Z" fill="#000000" fill-rule="nonzero" fill-opacity="1" /><path clip-path="url(#clip410)" d="M245.106 522.232 Q241.495 522.232 239.667 525.797 Q237.861 529.338 237.861 536.468 Q237.861 543.574 239.667 547.139 Q241.495 550.681 245.106 550.681 Q248.741 550.681 250.546 547.139 Q252.375 543.574 252.375 536.468 Q252.375 529.338 250.546 525.797 Q248.741 522.232 245.106 522.232 M245.106 518.528 Q250.916 518.528 253.972 523.135 Q257.051 527.718 257.051 536.468 Q257.051 545.195 253.972 549.801 Q250.916 554.385 245.106 554.385 Q239.296 554.385 236.218 549.801 Q233.162 545.195 233.162 536.468 Q233.162 527.718 236.218 523.135 Q239.296 518.528 245.106 518.528 Z" fill="#000000" fill-rule="nonzero" fill-opacity="1" /><path clip-path="url(#clip410)" d="M275.268 522.232 Q271.657 522.232 269.828 525.797 Q268.023 529.338 268.023 536.468 Q268.023 543.574 269.828 547.139 Q271.657 550.681 275.268 550.681 Q278.902 550.681 280.708 547.139 Q282.537 543.574 282.537 536.468 Q282.537 529.338 280.708 525.797 Q278.902 522.232 275.268 522.232 M275.268 518.528 Q281.078 518.528 284.134 523.135 Q287.213 527.718 287.213 536.468 Q287.213 545.195 284.134 549.801 Q281.078 554.385 275.268 554.385 Q269.458 554.385 266.379 549.801 Q263.324 545.195 263.324 536.468 Q263.324 527.718 266.379 523.135 Q269.458 518.528 275.268 518.528 Z" fill="#000000" fill-rule="nonzero" fill-opacity="1" /><path clip-path="url(#clip410)" d="M217.792 273.776 L205.986 292.225 L217.792 292.225 L217.792 273.776 M216.565 269.702 L222.444 269.702 L222.444 292.225 L227.375 292.225 L227.375 296.114 L222.444 296.114 L222.444 304.262 L217.792 304.262 L217.792 296.114 L202.19 296.114 L202.19 291.6 L216.565 269.702 Z" fill="#000000" fill-rule="nonzero" fill-opacity="1" /><path clip-path="url(#clip410)" d="M245.106 272.781 Q241.495 272.781 239.667 276.345 Q237.861 279.887 237.861 287.017 Q237.861 294.123 239.667 297.688 Q241.495 301.23 245.106 301.23 Q248.741 301.23 250.546 297.688 Q252.375 294.123 252.375 287.017 Q252.375 279.887 250.546 276.345 Q248.741 272.781 245.106 272.781 M245.106 269.077 Q250.916 269.077 253.972 273.683 Q257.051 278.267 257.051 287.017 Q257.051 295.743 253.972 300.35 Q250.916 304.933 245.106 304.933 Q239.296 304.933 236.218 300.35 Q233.162 295.743 233.162 287.017 Q233.162 278.267 236.218 273.683 Q239.296 269.077 245.106 269.077 Z" fill="#000000" fill-rule="nonzero" fill-opacity="1" /><path clip-path="url(#clip410)" d="M275.268 272.781 Q271.657 272.781 269.828 276.345 Q268.023 279.887 268.023 287.017 Q268.023 294.123 269.828 297.688 Q271.657 301.23 275.268 301.23 Q278.902 301.23 280.708 297.688 Q282.537 294.123 282.537 287.017 Q282.537 279.887 280.708 276.345 Q278.902 272.781 275.268 272.781 M275.268 269.077 Q281.078 269.077 284.134 273.683 Q287.213 278.267 287.213 287.017 Q287.213 295.743 284.134 300.35 Q281.078 304.933 275.268 304.933 Q269.458 304.933 266.379 300.35 Q263.324 295.743 263.324 287.017 Q263.324 278.267 266.379 273.683 Q269.458 269.077 275.268 269.077 Z" fill="#000000" fill-rule="nonzero" fill-opacity="1" /><path clip-path="url(#clip410)" d="M108.074 975.957 L114.854 975.957 Q111.83 979.203 110.334 982.895 Q108.838 986.555 108.838 990.693 Q108.838 998.841 113.835 1003.17 Q118.8 1007.5 128.222 1007.5 Q137.611 1007.5 142.608 1003.17 Q147.573 998.841 147.573 990.693 Q147.573 986.555 146.077 982.895 Q144.582 979.203 141.558 975.957 L148.274 975.957 Q150.565 979.33 151.711 983.118 Q152.857 986.874 152.857 991.075 Q152.857 1001.86 146.268 1008.07 Q139.648 1014.28 128.222 1014.28 Q116.763 1014.28 110.175 1008.07 Q103.555 1001.86 103.555 991.075 Q103.555 986.81 104.7 983.054 Q105.814 979.267 108.074 975.957 Z" fill="#000000" fill-rule="nonzero" fill-opacity="1" /><path clip-path="url(#clip410)" d="M109.697 959.597 L127.553 959.597 L127.553 951.512 Q127.553 947.024 125.23 944.574 Q122.906 942.123 118.609 942.123 Q114.344 942.123 112.021 944.574 Q109.697 947.024 109.697 951.512 L109.697 959.597 M104.414 966.026 L104.414 951.512 Q104.414 943.523 108.042 939.449 Q111.639 935.343 118.609 935.343 Q125.644 935.343 129.24 939.449 Q132.837 943.523 132.837 951.512 L132.837 959.597 L151.934 959.597 L151.934 966.026 L104.414 966.026 Z" fill="#000000" fill-rule="nonzero" fill-opacity="1" /><path clip-path="url(#clip410)" d="M104.414 927.45 L104.414 920.989 L133.282 920.989 Q140.921 920.989 144.295 918.22 Q147.637 915.451 147.637 909.244 Q147.637 903.069 144.295 900.3 Q140.921 897.531 133.282 897.531 L104.414 897.531 L104.414 891.07 L134.078 891.07 Q143.372 891.07 148.114 895.685 Q152.857 900.268 152.857 909.244 Q152.857 918.251 148.114 922.867 Q143.372 927.45 134.078 927.45 L104.414 927.45 Z" fill="#000000" fill-rule="nonzero" fill-opacity="1" /><path clip-path="url(#clip410)" d="M106.164 852.748 L116.286 852.748 L116.286 840.685 L120.837 840.685 L120.837 852.748 L140.189 852.748 Q144.55 852.748 145.791 851.571 Q147.032 850.361 147.032 846.701 L147.032 840.685 L151.934 840.685 L151.934 846.701 Q151.934 853.48 149.419 856.058 Q146.873 858.637 140.189 858.637 L120.837 858.637 L120.837 862.933 L116.286 862.933 L116.286 858.637 L106.164 858.637 L106.164 852.748 Z" fill="#000000" fill-rule="nonzero" fill-opacity="1" /><path clip-path="url(#clip410)" d="M116.286 832.983 L116.286 827.126 L151.934 827.126 L151.934 832.983 L116.286 832.983 M102.409 832.983 L102.409 827.126 L109.825 827.126 L109.825 832.983 L102.409 832.983 Z" fill="#000000" fill-rule="nonzero" fill-opacity="1" /><path clip-path="url(#clip410)" d="M123.129 787.118 Q119.182 784.922 117.304 781.866 Q115.427 778.811 115.427 774.673 Q115.427 769.103 119.341 766.079 Q123.225 763.055 130.418 763.055 L151.934 763.055 L151.934 768.944 L130.609 768.944 Q125.484 768.944 123.002 770.758 Q120.519 772.572 120.519 776.296 Q120.519 780.848 123.543 783.489 Q126.567 786.131 131.786 786.131 L151.934 786.131 L151.934 792.019 L130.609 792.019 Q125.453 792.019 123.002 793.834 Q120.519 795.648 120.519 799.436 Q120.519 803.923 123.575 806.565 Q126.598 809.207 131.786 809.207 L151.934 809.207 L151.934 815.095 L116.286 815.095 L116.286 809.207 L121.824 809.207 Q118.546 807.202 116.986 804.401 Q115.427 801.6 115.427 797.749 Q115.427 793.866 117.4 791.16 Q119.373 788.423 123.129 787.118 Z" fill="#000000" fill-rule="nonzero" fill-opacity="1" /><path clip-path="url(#clip410)" d="M132.646 720.883 L135.51 720.883 L135.51 747.81 Q141.558 747.428 144.741 744.181 Q147.892 740.903 147.892 735.078 Q147.892 731.704 147.064 728.553 Q146.237 725.371 144.582 722.251 L150.12 722.251 Q151.456 725.402 152.157 728.713 Q152.857 732.023 152.857 735.428 Q152.857 743.958 147.892 748.955 Q142.926 753.921 134.46 753.921 Q125.707 753.921 120.583 749.21 Q115.427 744.468 115.427 736.447 Q115.427 729.254 120.074 725.084 Q124.689 720.883 132.646 720.883 M130.927 726.739 Q126.121 726.803 123.256 729.445 Q120.392 732.055 120.392 736.383 Q120.392 741.285 123.161 744.245 Q125.93 747.173 130.959 747.619 L130.927 726.739 Z" fill="#000000" fill-rule="nonzero" fill-opacity="1" /><path clip-path="url(#clip410)" d="M102.472 676.482 Q109.793 680.747 116.954 682.816 Q124.116 684.885 131.468 684.885 Q138.821 684.885 146.046 682.816 Q153.239 680.715 160.528 676.482 L160.528 681.574 Q153.048 686.349 145.823 688.736 Q138.598 691.091 131.468 691.091 Q124.37 691.091 117.177 688.736 Q109.984 686.381 102.472 681.574 L102.472 676.482 Z" fill="#000000" fill-rule="nonzero" fill-opacity="1" /><path clip-path="url(#clip410)" d="M123.129 637.365 Q119.182 635.168 117.304 632.113 Q115.427 629.057 115.427 624.92 Q115.427 619.35 119.341 616.326 Q123.225 613.302 130.418 613.302 L151.934 613.302 L151.934 619.191 L130.609 619.191 Q125.484 619.191 123.002 621.005 Q120.519 622.819 120.519 626.543 Q120.519 631.094 123.543 633.736 Q126.567 636.378 131.786 636.378 L151.934 636.378 L151.934 642.266 L130.609 642.266 Q125.453 642.266 123.002 644.08 Q120.519 645.895 120.519 649.682 Q120.519 654.17 123.575 656.812 Q126.598 659.454 131.786 659.454 L151.934 659.454 L151.934 665.342 L116.286 665.342 L116.286 659.454 L121.824 659.454 Q118.546 657.448 116.986 654.648 Q115.427 651.847 115.427 647.995 Q115.427 644.112 117.4 641.407 Q119.373 638.67 123.129 637.365 Z" fill="#000000" fill-rule="nonzero" fill-opacity="1" /><path clip-path="url(#clip410)" d="M117.336 578.896 L122.874 578.896 Q121.601 581.378 120.965 584.052 Q120.328 586.725 120.328 589.59 Q120.328 593.95 121.665 596.147 Q123.002 598.311 125.675 598.311 Q127.712 598.311 128.89 596.751 Q130.036 595.192 131.086 590.481 L131.532 588.476 Q132.869 582.238 135.319 579.628 Q137.738 576.986 142.099 576.986 Q147.064 576.986 149.961 580.933 Q152.857 584.848 152.857 591.723 Q152.857 594.587 152.284 597.706 Q151.743 600.794 150.629 604.231 L144.582 604.231 Q146.268 600.985 147.128 597.834 Q147.955 594.683 147.955 591.595 Q147.955 587.457 146.555 585.229 Q145.123 583.001 142.544 583.001 Q140.157 583.001 138.884 584.625 Q137.611 586.216 136.433 591.659 L135.956 593.696 Q134.81 599.139 132.455 601.558 Q130.068 603.976 125.93 603.976 Q120.901 603.976 118.164 600.412 Q115.427 596.847 115.427 590.29 Q115.427 587.044 115.904 584.179 Q116.381 581.315 117.336 578.896 Z" fill="#000000" fill-rule="nonzero" fill-opacity="1" /><path clip-path="url(#clip410)" d="M102.472 568.583 L102.472 563.491 Q109.984 558.716 117.177 556.361 Q124.37 553.974 131.468 553.974 Q138.598 553.974 145.823 556.361 Q153.048 558.716 160.528 563.491 L160.528 568.583 Q153.239 564.35 146.046 562.281 Q138.821 560.18 131.468 560.18 Q124.116 560.18 116.954 562.281 Q109.793 564.35 102.472 568.583 Z" fill="#000000" fill-rule="nonzero" fill-opacity="1" /><path clip-path="url(#clip410)" d="M984.937 64.8611 L984.937 87.0195 L998.062 87.0195 Q1004.66 87.0195 1007.82 84.3054 Q1011.02 81.5508 1011.02 75.92 Q1011.02 70.2488 1007.82 67.5752 Q1004.66 64.8611 998.062 64.8611 L984.937 64.8611 M984.937 39.9885 L984.937 58.2176 L997.049 58.2176 Q1003.04 58.2176 1005.96 55.9896 Q1008.92 53.7211 1008.92 49.103 Q1008.92 44.5255 1005.96 42.257 Q1003.04 39.9885 997.049 39.9885 L984.937 39.9885 M976.754 33.264 L997.657 33.264 Q1007.01 33.264 1012.08 37.1529 Q1017.14 41.0417 1017.14 48.2118 Q1017.14 53.7616 1014.55 57.0428 Q1011.96 60.324 1006.93 61.1342 Q1012.97 62.4305 1016.29 66.5624 Q1019.65 70.6538 1019.65 76.8112 Q1019.65 84.913 1014.14 89.3285 Q1008.63 93.744 998.467 93.744 L976.754 93.744 L976.754 33.264 Z" fill="#000000" fill-rule="nonzero" fill-opacity="1" /><path clip-path="url(#clip410)" d="M1053.96 70.9374 Q1044.93 70.9374 1041.45 73.0034 Q1037.96 75.0693 1037.96 80.0519 Q1037.96 84.0218 1040.56 86.3714 Q1043.19 88.6804 1047.69 88.6804 Q1053.88 88.6804 1057.61 84.3054 Q1061.38 79.8899 1061.38 72.5983 L1061.38 70.9374 L1053.96 70.9374 M1068.83 67.8587 L1068.83 93.744 L1061.38 93.744 L1061.38 86.8575 Q1058.83 90.9894 1055.02 92.9743 Q1051.21 94.9188 1045.7 94.9188 Q1038.73 94.9188 1034.6 91.0299 Q1030.51 87.1005 1030.51 80.5381 Q1030.51 72.8818 1035.61 68.993 Q1040.76 65.1041 1050.93 65.1041 L1061.38 65.1041 L1061.38 64.3749 Q1061.38 59.2303 1057.97 56.4352 Q1054.61 53.5995 1048.5 53.5995 Q1044.61 53.5995 1040.92 54.5312 Q1037.23 55.463 1033.83 57.3264 L1033.83 50.4398 Q1037.92 48.86 1041.77 48.0903 Q1045.62 47.2801 1049.27 47.2801 Q1059.11 47.2801 1063.97 52.3843 Q1068.83 57.4884 1068.83 67.8587 Z" fill="#000000" fill-rule="nonzero" fill-opacity="1" /><path clip-path="url(#clip410)" d="M1083.41 75.839 L1083.41 48.3739 L1090.87 48.3739 L1090.87 75.5554 Q1090.87 81.9964 1093.38 85.2371 Q1095.89 88.4373 1100.91 88.4373 Q1106.95 88.4373 1110.43 84.589 Q1113.96 80.7406 1113.96 74.0971 L1113.96 48.3739 L1121.41 48.3739 L1121.41 93.744 L1113.96 93.744 L1113.96 86.7764 Q1111.24 90.9084 1107.64 92.9338 Q1104.07 94.9188 1099.33 94.9188 Q1091.52 94.9188 1087.47 90.0577 Q1083.41 85.1966 1083.41 75.839 M1102.17 47.2801 L1102.17 47.2801 Z" fill="#000000" fill-rule="nonzero" fill-opacity="1" /><path clip-path="url(#clip410)" d="M1172.09 57.0833 Q1174.88 52.0602 1178.77 49.6702 Q1182.66 47.2801 1187.93 47.2801 Q1195.02 47.2801 1198.87 52.2627 Q1202.71 57.2048 1202.71 66.3599 L1202.71 93.744 L1195.22 93.744 L1195.22 66.6029 Q1195.22 60.081 1192.91 56.9213 Q1190.6 53.7616 1185.86 53.7616 Q1180.07 53.7616 1176.71 57.6099 Q1173.34 61.4583 1173.34 68.1018 L1173.34 93.744 L1165.85 93.744 L1165.85 66.6029 Q1165.85 60.0405 1163.54 56.9213 Q1161.23 53.7616 1156.41 53.7616 Q1150.7 53.7616 1147.34 57.6504 Q1143.98 61.4988 1143.98 68.1018 L1143.98 93.744 L1136.48 93.744 L1136.48 48.3739 L1143.98 48.3739 L1143.98 55.4224 Q1146.53 51.25 1150.09 49.2651 Q1153.66 47.2801 1158.56 47.2801 Q1163.5 47.2801 1166.94 49.7917 Q1170.43 52.3032 1172.09 57.0833 Z" fill="#000000" fill-rule="nonzero" fill-opacity="1" /><path clip-path="url(#clip410)" d="M1213.81 67.6967 L1235.65 67.6967 L1235.65 74.3402 L1213.81 74.3402 L1213.81 67.6967 Z" fill="#000000" fill-rule="nonzero" fill-opacity="1" /><path clip-path="url(#clip410)" d="M1239.09 33.264 L1247.35 33.264 L1260.07 84.3864 L1272.75 33.264 L1281.95 33.264 L1294.67 84.3864 L1307.35 33.264 L1315.65 33.264 L1300.46 93.744 L1290.17 93.744 L1277.41 41.2443 L1264.53 93.744 L1254.24 93.744 L1239.09 33.264 Z" fill="#000000" fill-rule="nonzero" fill-opacity="1" /><path clip-path="url(#clip410)" d="M1360.13 69.1955 L1360.13 72.8413 L1325.86 72.8413 Q1326.35 80.5381 1330.48 84.589 Q1334.65 88.5994 1342.06 88.5994 Q1346.36 88.5994 1350.37 87.5461 Q1354.42 86.4929 1358.39 84.3864 L1358.39 91.435 Q1354.38 93.1364 1350.17 94.0276 Q1345.95 94.9188 1341.62 94.9188 Q1330.76 94.9188 1324.4 88.5994 Q1318.08 82.2799 1318.08 71.5045 Q1318.08 60.3645 1324.08 53.8426 Q1330.11 47.2801 1340.32 47.2801 Q1349.48 47.2801 1354.78 53.1944 Q1360.13 59.0683 1360.13 69.1955 M1352.68 67.008 Q1352.6 60.8912 1349.23 57.2454 Q1345.91 53.5995 1340.4 53.5995 Q1334.17 53.5995 1330.4 57.1238 Q1326.67 60.6481 1326.1 67.0485 L1352.68 67.008 Z" fill="#000000" fill-rule="nonzero" fill-opacity="1" /><path clip-path="url(#clip410)" d="M1372.37 30.7119 L1379.82 30.7119 L1379.82 93.744 L1372.37 93.744 L1372.37 30.7119 Z" fill="#000000" fill-rule="nonzero" fill-opacity="1" /><path clip-path="url(#clip410)" d="M1428.07 50.1158 L1428.07 57.0833 Q1424.91 55.3414 1421.71 54.4907 Q1418.55 53.5995 1415.3 53.5995 Q1408.05 53.5995 1404.04 58.2176 Q1400.03 62.7951 1400.03 71.0994 Q1400.03 79.4038 1404.04 84.0218 Q1408.05 88.5994 1415.3 88.5994 Q1418.55 88.5994 1421.71 87.7487 Q1424.91 86.8575 1428.07 85.1156 L1428.07 92.0021 Q1424.95 93.4604 1421.58 94.1896 Q1418.26 94.9188 1414.49 94.9188 Q1404.25 94.9188 1398.21 88.4778 Q1392.17 82.0369 1392.17 71.0994 Q1392.17 60 1398.25 53.64 Q1404.37 47.2801 1414.98 47.2801 Q1418.42 47.2801 1421.71 48.0093 Q1424.99 48.6979 1428.07 50.1158 Z" fill="#000000" fill-rule="nonzero" fill-opacity="1" /><path clip-path="url(#clip410)" d="M1478.74 66.3599 L1478.74 93.744 L1471.29 93.744 L1471.29 66.6029 Q1471.29 60.162 1468.78 56.9618 Q1466.27 53.7616 1461.24 53.7616 Q1455.21 53.7616 1451.72 57.6099 Q1448.24 61.4583 1448.24 68.1018 L1448.24 93.744 L1440.74 93.744 L1440.74 30.7119 L1448.24 30.7119 L1448.24 55.4224 Q1450.91 51.331 1454.52 49.3056 Q1458.16 47.2801 1462.9 47.2801 Q1470.72 47.2801 1474.73 52.1412 Q1478.74 56.9618 1478.74 66.3599 Z" fill="#000000" fill-rule="nonzero" fill-opacity="1" /><path clip-path="url(#clip410)" d="M708.28 121.513 Q702.852 130.83 700.219 139.945 Q697.586 149.059 697.586 158.417 Q697.586 167.774 700.219 176.97 Q702.893 186.125 708.28 195.401 L701.799 195.401 Q695.723 185.882 692.684 176.686 Q689.687 167.491 689.687 158.417 Q689.687 149.383 692.684 140.228 Q695.682 131.073 701.799 121.513 L708.28 121.513 Z" fill="#000000" fill-rule="nonzero" fill-opacity="1" /><path clip-path="url(#clip410)" d="M731.249 130.709 L731.249 177.739 L741.133 177.739 Q753.65 177.739 759.443 172.068 Q765.277 166.397 765.277 154.163 Q765.277 142.011 759.443 136.38 Q753.65 130.709 741.133 130.709 L731.249 130.709 M723.066 123.984 L739.877 123.984 Q757.458 123.984 765.682 131.316 Q773.905 138.608 773.905 154.163 Q773.905 169.8 765.641 177.132 Q757.377 184.464 739.877 184.464 L723.066 184.464 L723.066 123.984 Z" fill="#000000" fill-rule="nonzero" fill-opacity="1" /><path clip-path="url(#clip410)" d="M787.597 146.791 L839.53 146.791 L839.53 153.596 L787.597 153.596 L787.597 146.791 M787.597 163.318 L839.53 163.318 L839.53 170.205 L787.597 170.205 L787.597 163.318 Z" fill="#000000" fill-rule="nonzero" fill-opacity="1" /><path clip-path="url(#clip410)" d="M858.609 177.577 L871.977 177.577 L871.977 131.438 L857.435 134.354 L857.435 126.901 L871.896 123.984 L880.079 123.984 L880.079 177.577 L893.447 177.577 L893.447 184.464 L858.609 184.464 L858.609 177.577 Z" fill="#000000" fill-rule="nonzero" fill-opacity="1" /><path clip-path="url(#clip410)" d="M927.475 129.372 Q921.155 129.372 917.955 135.61 Q914.795 141.808 914.795 154.285 Q914.795 166.721 917.955 172.959 Q921.155 179.157 927.475 179.157 Q933.835 179.157 936.994 172.959 Q940.195 166.721 940.195 154.285 Q940.195 141.808 936.994 135.61 Q933.835 129.372 927.475 129.372 M927.475 122.89 Q937.643 122.89 942.99 130.952 Q948.377 138.972 948.377 154.285 Q948.377 169.557 942.99 177.618 Q937.643 185.639 927.475 185.639 Q917.307 185.639 911.919 177.618 Q906.572 169.557 906.572 154.285 Q906.572 138.972 911.919 130.952 Q917.307 122.89 927.475 122.89 Z" fill="#000000" fill-rule="nonzero" fill-opacity="1" /><path clip-path="url(#clip410)" d="M963.609 174.175 L972.156 174.175 L972.156 181.142 L965.513 194.105 L960.287 194.105 L963.609 181.142 L963.609 174.175 Z" fill="#000000" fill-rule="nonzero" fill-opacity="1" /><path clip-path="url(#clip410)" d="M980.015 123.984 L1031.18 123.984 L1031.18 130.871 L1009.71 130.871 L1009.71 184.464 L1001.48 184.464 L1001.48 130.871 L980.015 130.871 L980.015 123.984 Z" fill="#000000" fill-rule="nonzero" fill-opacity="1" /><path clip-path="url(#clip410)" d="M1039.73 146.791 L1091.66 146.791 L1091.66 153.596 L1039.73 153.596 L1039.73 146.791 M1039.73 163.318 L1091.66 163.318 L1091.66 170.205 L1039.73 170.205 L1039.73 163.318 Z" fill="#000000" fill-rule="nonzero" fill-opacity="1" /><path clip-path="url(#clip410)" d="M1116.37 177.577 L1144.93 177.577 L1144.93 184.464 L1106.52 184.464 L1106.52 177.577 Q1111.18 172.757 1119.2 164.655 Q1127.27 156.513 1129.33 154.163 Q1133.26 149.748 1134.8 146.71 Q1136.38 143.631 1136.38 140.674 Q1136.38 135.853 1132.98 132.815 Q1129.61 129.777 1124.19 129.777 Q1120.34 129.777 1116.04 131.114 Q1111.79 132.45 1106.93 135.164 L1106.93 126.901 Q1111.87 124.916 1116.17 123.903 Q1120.46 122.89 1124.02 122.89 Q1133.42 122.89 1139.01 127.589 Q1144.6 132.288 1144.6 140.147 Q1144.6 143.874 1143.19 147.236 Q1141.81 150.558 1138.12 155.095 Q1137.11 156.27 1131.68 161.9 Q1126.25 167.491 1116.37 177.577 Z" fill="#000000" fill-rule="nonzero" fill-opacity="1" /><path clip-path="url(#clip410)" d="M1179.6 129.372 Q1173.28 129.372 1170.08 135.61 Q1166.92 141.808 1166.92 154.285 Q1166.92 166.721 1170.08 172.959 Q1173.28 179.157 1179.6 179.157 Q1185.96 179.157 1189.12 172.959 Q1192.32 166.721 1192.32 154.285 Q1192.32 141.808 1189.12 135.61 Q1185.96 129.372 1179.6 129.372 M1179.6 122.89 Q1189.77 122.89 1195.12 130.952 Q1200.51 138.972 1200.51 154.285 Q1200.51 169.557 1195.12 177.618 Q1189.77 185.639 1179.6 185.639 Q1169.44 185.639 1164.05 177.618 Q1158.7 169.557 1158.7 154.285 Q1158.7 138.972 1164.05 130.952 Q1169.44 122.89 1179.6 122.89 Z" fill="#000000" fill-rule="nonzero" fill-opacity="1" /><path clip-path="url(#clip410)" d="M1232.39 129.372 Q1226.07 129.372 1222.87 135.61 Q1219.71 141.808 1219.71 154.285 Q1219.71 166.721 1222.87 172.959 Q1226.07 179.157 1232.39 179.157 Q1238.75 179.157 1241.91 172.959 Q1245.11 166.721 1245.11 154.285 Q1245.11 141.808 1241.91 135.61 Q1238.75 129.372 1232.39 129.372 M1232.39 122.89 Q1242.55 122.89 1247.9 130.952 Q1253.29 138.972 1253.29 154.285 Q1253.29 169.557 1247.9 177.618 Q1242.55 185.639 1232.39 185.639 Q1222.22 185.639 1216.83 177.618 Q1211.48 169.557 1211.48 154.285 Q1211.48 138.972 1216.83 130.952 Q1222.22 122.89 1232.39 122.89 Z" fill="#000000" fill-rule="nonzero" fill-opacity="1" /><path clip-path="url(#clip410)" d="M1268.52 174.175 L1277.07 174.175 L1277.07 181.142 L1270.42 194.105 L1265.2 194.105 L1268.52 181.142 L1268.52 174.175 Z" fill="#000000" fill-rule="nonzero" fill-opacity="1" /><path clip-path="url(#clip410)" d="M1293.31 123.984 L1301.49 123.984 L1301.49 149.545 L1328.64 123.984 L1339.17 123.984 L1309.15 152.178 L1341.32 184.464 L1330.54 184.464 L1301.49 155.338 L1301.49 184.464 L1293.31 184.464 L1293.31 123.984 Z" fill="#000000" fill-rule="nonzero" fill-opacity="1" /><path clip-path="url(#clip410)" d="M1348.36 146.791 L1400.3 146.791 L1400.3 153.596 L1348.36 153.596 L1348.36 146.791 M1348.36 163.318 L1400.3 163.318 L1400.3 170.205 L1348.36 170.205 L1348.36 163.318 Z" fill="#000000" fill-rule="nonzero" fill-opacity="1" /><path clip-path="url(#clip410)" d="M1418.04 123.984 L1450.16 123.984 L1450.16 130.871 L1425.53 130.871 L1425.53 145.697 Q1427.32 145.089 1429.1 144.806 Q1430.88 144.482 1432.66 144.482 Q1442.79 144.482 1448.7 150.031 Q1454.62 155.581 1454.62 165.06 Q1454.62 174.823 1448.54 180.251 Q1442.47 185.639 1431.41 185.639 Q1427.6 185.639 1423.63 184.991 Q1419.7 184.342 1415.49 183.046 L1415.49 174.823 Q1419.13 176.808 1423.02 177.78 Q1426.91 178.752 1431.25 178.752 Q1438.25 178.752 1442.34 175.066 Q1446.44 171.38 1446.44 165.06 Q1446.44 158.741 1442.34 155.054 Q1438.25 151.368 1431.25 151.368 Q1427.96 151.368 1424.68 152.097 Q1421.44 152.826 1418.04 154.366 L1418.04 123.984 Z" fill="#000000" fill-rule="nonzero" fill-opacity="1" /><path clip-path="url(#clip410)" d="M1488.24 129.372 Q1481.92 129.372 1478.72 135.61 Q1475.56 141.808 1475.56 154.285 Q1475.56 166.721 1478.72 172.959 Q1481.92 179.157 1488.24 179.157 Q1494.6 179.157 1497.76 172.959 Q1500.96 166.721 1500.96 154.285 Q1500.96 141.808 1497.76 135.61 Q1494.6 129.372 1488.24 129.372 M1488.24 122.89 Q1498.41 122.89 1503.76 130.952 Q1509.14 138.972 1509.14 154.285 Q1509.14 169.557 1503.76 177.618 Q1498.41 185.639 1488.24 185.639 Q1478.07 185.639 1472.69 177.618 Q1467.34 169.557 1467.34 154.285 Q1467.34 138.972 1472.69 130.952 Q1478.07 122.89 1488.24 122.89 Z" fill="#000000" fill-rule="nonzero" fill-opacity="1" /><path clip-path="url(#clip410)" d="M1524.38 174.175 L1532.92 174.175 L1532.92 181.142 L1526.28 194.105 L1521.05 194.105 L1524.38 181.142 L1524.38 174.175 Z" fill="#000000" fill-rule="nonzero" fill-opacity="1" /><path clip-path="url(#clip410)" d="M1549.17 123.984 L1557.35 123.984 L1557.35 184.464 L1549.17 184.464 L1549.17 123.984 Z" fill="#000000" fill-rule="nonzero" fill-opacity="1" /><path clip-path="url(#clip410)" d="M1574.28 146.791 L1626.22 146.791 L1626.22 153.596 L1574.28 153.596 L1574.28 146.791 M1574.28 163.318 L1626.22 163.318 L1626.22 170.205 L1574.28 170.205 L1574.28 163.318 Z" fill="#000000" fill-rule="nonzero" fill-opacity="1" /><path clip-path="url(#clip410)" d="M1645.29 177.577 L1658.66 177.577 L1658.66 131.438 L1644.12 134.354 L1644.12 126.901 L1658.58 123.984 L1666.76 123.984 L1666.76 177.577 L1680.13 177.577 L1680.13 184.464 L1645.29 184.464 L1645.29 177.577 Z" fill="#000000" fill-rule="nonzero" fill-opacity="1" /><path clip-path="url(#clip410)" d="M1714.16 129.372 Q1707.84 129.372 1704.64 135.61 Q1701.48 141.808 1701.48 154.285 Q1701.48 166.721 1704.64 172.959 Q1707.84 179.157 1714.16 179.157 Q1720.52 179.157 1723.68 172.959 Q1726.88 166.721 1726.88 154.285 Q1726.88 141.808 1723.68 135.61 Q1720.52 129.372 1714.16 129.372 M1714.16 122.89 Q1724.33 122.89 1729.68 130.952 Q1735.06 138.972 1735.06 154.285 Q1735.06 169.557 1729.68 177.618 Q1724.33 185.639 1714.16 185.639 Q1703.99 185.639 1698.6 177.618 Q1693.26 169.557 1693.26 154.285 Q1693.26 138.972 1698.6 130.952 Q1703.99 122.89 1714.16 122.89 Z" fill="#000000" fill-rule="nonzero" fill-opacity="1" /><path clip-path="url(#clip410)" d="M1747.22 121.513 L1753.7 121.513 Q1759.77 131.073 1762.77 140.228 Q1765.81 149.383 1765.81 158.417 Q1765.81 167.491 1762.77 176.686 Q1759.77 185.882 1753.7 195.401 L1747.22 195.401 Q1752.6 186.125 1755.24 176.97 Q1757.91 167.774 1757.91 158.417 Q1757.91 149.059 1755.24 139.945 Q1752.6 130.83 1747.22 121.513 Z" fill="#000000" fill-rule="nonzero" fill-opacity="1" /><polyline clip-path="url(#clip412)" style="stroke:#0000ff; stroke-linecap:round; stroke-linejoin:round; stroke-width:6; stroke-opacity:1; fill:none" points="413.666,1220.8 685.027,1162.9 956.387,1109.49 1227.75,1036.17 1499.11,966.062 1770.47,906.834 2041.83,830.031 "/>
<circle clip-path="url(#clip412)" cx="413.666" cy="1220.8" r="14.4" fill="#0000ff" fill-rule="evenodd" fill-opacity="1" stroke="#000000" stroke-opacity="1" stroke-width="3.2"/>
<circle clip-path="url(#clip412)" cx="685.027" cy="1162.9" r="14.4" fill="#0000ff" fill-rule="evenodd" fill-opacity="1" stroke="#000000" stroke-opacity="1" stroke-width="3.2"/>
<circle clip-path="url(#clip412)" cx="956.387" cy="1109.49" r="14.4" fill="#0000ff" fill-rule="evenodd" fill-opacity="1" stroke="#000000" stroke-opacity="1" stroke-width="3.2"/>
<circle clip-path="url(#clip412)" cx="1227.75" cy="1036.17" r="14.4" fill="#0000ff" fill-rule="evenodd" fill-opacity="1" stroke="#000000" stroke-opacity="1" stroke-width="3.2"/>
<circle clip-path="url(#clip412)" cx="1499.11" cy="966.062" r="14.4" fill="#0000ff" fill-rule="evenodd" fill-opacity="1" stroke="#000000" stroke-opacity="1" stroke-width="3.2"/>
<circle clip-path="url(#clip412)" cx="1770.47" cy="906.834" r="14.4" fill="#0000ff" fill-rule="evenodd" fill-opacity="1" stroke="#000000" stroke-opacity="1" stroke-width="3.2"/>
<circle clip-path="url(#clip412)" cx="2041.83" cy="830.031" r="14.4" fill="#0000ff" fill-rule="evenodd" fill-opacity="1" stroke="#000000" stroke-opacity="1" stroke-width="3.2"/>
<polyline clip-path="url(#clip412)" style="stroke:#008000; stroke-linecap:round; stroke-linejoin:round; stroke-width:6; stroke-opacity:1; fill:none" stroke-dasharray="24, 12, 3, 12" points="413.666,1143.33 685.027,1065.06 956.387,979.651 1227.75,864.32 1499.11,750.08 1770.47,413.956 2041.83,283.465 "/>
<path clip-path="url(#clip412)" d="M429.666 1127.33 L397.666 1127.33 L413.666 1159.33 L429.666 1127.33 Z" fill="#008000" fill-rule="evenodd" fill-opacity="1" stroke="#000000" stroke-opacity="1" stroke-width="3.2"/>
<path clip-path="url(#clip412)" d="M701.027 1049.06 L669.027 1049.06 L685.027 1081.06 L701.027 1049.06 Z" fill="#008000" fill-rule="evenodd" fill-opacity="1" stroke="#000000" stroke-opacity="1" stroke-width="3.2"/>
<path clip-path="url(#clip412)" d="M972.387 963.651 L940.387 963.651 L956.387 995.651 L972.387 963.651 Z" fill="#008000" fill-rule="evenodd" fill-opacity="1" stroke="#000000" stroke-opacity="1" stroke-width="3.2"/>
<path clip-path="url(#clip412)" d="M1243.75 848.32 L1211.75 848.32 L1227.75 880.32 L1243.75 848.32 Z" fill="#008000" fill-rule="evenodd" fill-opacity="1" stroke="#000000" stroke-opacity="1" stroke-width="3.2"/>
<path clip-path="url(#clip412)" d="M1515.11 734.08 L1483.11 734.08 L1499.11 766.08 L1515.11 734.08 Z" fill="#008000" fill-rule="evenodd" fill-opacity="1" stroke="#000000" stroke-opacity="1" stroke-width="3.2"/>
<path clip-path="url(#clip412)" d="M1786.47 397.956 L1754.47 397.956 L1770.47 429.956 L1786.47 397.956 Z" fill="#008000" fill-rule="evenodd" fill-opacity="1" stroke="#000000" stroke-opacity="1" stroke-width="3.2"/>
<polyline clip-path="url(#clip412)" style="stroke:#ff0000; stroke-linecap:round; stroke-linejoin:round; stroke-width:6; stroke-opacity:1; fill:none" stroke-dasharray="24, 12, 3, 12, 3, 12" points="413.666,965.372 685.027,874.116 956.387,801.921 1227.75,710.496 1499.11,560.683 1770.47,448.044 2041.83,383.923 "/>
<path clip-path="url(#clip412)" d="M413.666 949.372 L397.666 981.372 L429.666 981.372 L413.666 949.372 Z" fill="#ff0000" fill-rule="evenodd" fill-opacity="1" stroke="#000000" stroke-opacity="1" stroke-width="3.2"/>
<path clip-path="url(#clip412)" d="M685.027 858.116 L669.027 890.116 L701.027 890.116 L685.027 858.116 Z" fill="#ff0000" fill-rule="evenodd" fill-opacity="1" stroke="#000000" stroke-opacity="1" stroke-width="3.2"/>
<path clip-path="url(#clip412)" d="M956.387 785.921 L940.387 817.921 L972.387 817.921 L956.387 785.921 Z" fill="#ff0000" fill-rule="evenodd" fill-opacity="1" stroke="#000000" stroke-opacity="1" stroke-width="3.2"/>
<path clip-path="url(#clip412)" d="M1227.75 694.496 L1211.75 726.496 L1243.75 726.496 L1227.75 694.496 Z" fill="#ff0000" fill-rule="evenodd" fill-opacity="1" stroke="#000000" stroke-opacity="1" stroke-width="3.2"/>
<path clip-path="url(#clip412)" d="M1499.11 544.683 L1483.11 576.683 L1515.11 576.683 L1499.11 544.683 Z" fill="#ff0000" fill-rule="evenodd" fill-opacity="1" stroke="#000000" stroke-opacity="1" stroke-width="3.2"/>
<path clip-path="url(#clip412)" d="M1770.47 432.044 L1754.47 464.044 L1786.47 464.044 L1770.47 432.044 Z" fill="#ff0000" fill-rule="evenodd" fill-opacity="1" stroke="#000000" stroke-opacity="1" stroke-width="3.2"/>
<path clip-path="url(#clip412)" d="M2041.83 367.923 L2025.83 399.923 L2057.83 399.923 L2041.83 367.923 Z" fill="#ff0000" fill-rule="evenodd" fill-opacity="1" stroke="#000000" stroke-opacity="1" stroke-width="3.2"/>
<path clip-path="url(#clip410)" d="M383.515 524.202 L877.522 524.202 L877.522 316.842 L383.515 316.842  Z" fill="#ffffff" fill-rule="evenodd" fill-opacity="1"/>
<polyline clip-path="url(#clip410)" style="stroke:#000000; stroke-linecap:round; stroke-linejoin:round; stroke-width:4; stroke-opacity:1; fill:none" points="383.515,524.202 877.522,524.202 877.522,316.842 383.515,316.842 383.515,524.202 "/>
<polyline clip-path="url(#clip410)" style="stroke:#0000ff; stroke-linecap:round; stroke-linejoin:round; stroke-width:6; stroke-opacity:1; fill:none" points="403.616,368.682 524.22,368.682 "/>
<circle clip-path="url(#clip410)" cx="463.918" cy="368.682" r="16.7507" fill="#0000ff" fill-rule="evenodd" fill-opacity="1" stroke="#000000" stroke-opacity="1" stroke-width="4.55111"/>
<path clip-path="url(#clip410)" d="M544.321 351.402 L548.997 351.402 L548.997 365.569 L565.988 365.569 L565.988 351.402 L570.664 351.402 L570.664 385.962 L565.988 385.962 L565.988 369.504 L548.997 369.504 L548.997 385.962 L544.321 385.962 L544.321 351.402 Z" fill="#000000" fill-rule="nonzero" fill-opacity="1" /><path clip-path="url(#clip410)" d="M579.969 351.402 L586.937 351.402 L595.756 374.92 L604.622 351.402 L611.589 351.402 L611.589 385.962 L607.029 385.962 L607.029 355.615 L598.117 379.319 L593.418 379.319 L584.506 355.615 L584.506 385.962 L579.969 385.962 L579.969 351.402 Z" fill="#000000" fill-rule="nonzero" fill-opacity="1" /><path clip-path="url(#clip410)" d="M620.872 351.402 L627.839 351.402 L636.659 374.92 L645.524 351.402 L652.492 351.402 L652.492 385.962 L647.932 385.962 L647.932 355.615 L639.02 379.319 L634.321 379.319 L625.409 355.615 L625.409 385.962 L620.872 385.962 L620.872 351.402 Z" fill="#000000" fill-rule="nonzero" fill-opacity="1" /><path clip-path="url(#clip410)" d="M678.117 360.8 L678.117 364.828 Q676.311 363.902 674.367 363.439 Q672.422 362.976 670.339 362.976 Q667.168 362.976 665.571 363.948 Q663.997 364.92 663.997 366.865 Q663.997 368.346 665.131 369.203 Q666.265 370.036 669.691 370.8 L671.149 371.124 Q675.686 372.096 677.584 373.879 Q679.506 375.638 679.506 378.809 Q679.506 382.42 676.635 384.527 Q673.788 386.633 668.788 386.633 Q666.705 386.633 664.436 386.217 Q662.191 385.823 659.691 385.013 L659.691 380.615 Q662.052 381.842 664.344 382.467 Q666.635 383.068 668.881 383.068 Q671.89 383.068 673.51 382.05 Q675.131 381.008 675.131 379.133 Q675.131 377.397 673.95 376.471 Q672.793 375.545 668.834 374.689 L667.353 374.342 Q663.395 373.508 661.635 371.795 Q659.876 370.059 659.876 367.05 Q659.876 363.393 662.469 361.402 Q665.061 359.411 669.83 359.411 Q672.191 359.411 674.274 359.758 Q676.358 360.106 678.117 360.8 Z" fill="#000000" fill-rule="nonzero" fill-opacity="1" /><path clip-path="url(#clip410)" d="M686.89 380.082 L691.774 380.082 L691.774 385.962 L686.89 385.962 L686.89 380.082 Z" fill="#000000" fill-rule="nonzero" fill-opacity="1" /><path clip-path="url(#clip410)" d="M701.357 360.036 L705.617 360.036 L705.617 386.425 Q705.617 391.379 703.719 393.601 Q701.844 395.823 697.654 395.823 L696.033 395.823 L696.033 392.212 L697.168 392.212 Q699.598 392.212 700.478 391.078 Q701.357 389.967 701.357 386.425 L701.357 360.036 M701.357 349.944 L705.617 349.944 L705.617 355.337 L701.357 355.337 L701.357 349.944 Z" fill="#000000" fill-rule="nonzero" fill-opacity="1" /><path clip-path="url(#clip410)" d="M714.529 349.944 L718.788 349.944 L718.788 385.962 L714.529 385.962 L714.529 349.944 Z" fill="#000000" fill-rule="nonzero" fill-opacity="1" /><polyline clip-path="url(#clip410)" style="stroke:#008000; stroke-linecap:round; stroke-linejoin:round; stroke-width:6; stroke-opacity:1; fill:none" stroke-dasharray="24, 12, 3, 12" points="403.616,420.522 524.22,420.522 "/>
<path clip-path="url(#clip410)" d="M482.53 401.91 L445.306 401.91 L463.918 439.134 L482.53 401.91 Z" fill="#008000" fill-rule="evenodd" fill-opacity="1" stroke="#000000" stroke-opacity="1" stroke-width="4.55111"/>
<path clip-path="url(#clip410)" d="M566.034 422.154 L566.034 437.802 L561.775 437.802 L561.775 422.293 Q561.775 418.612 560.34 416.784 Q558.905 414.955 556.034 414.955 Q552.585 414.955 550.594 417.154 Q548.604 419.353 548.604 423.149 L548.604 437.802 L544.321 437.802 L544.321 401.784 L548.604 401.784 L548.604 415.904 Q550.131 413.566 552.192 412.409 Q554.275 411.251 556.983 411.251 Q561.451 411.251 563.742 414.029 Q566.034 416.784 566.034 422.154 Z" fill="#000000" fill-rule="nonzero" fill-opacity="1" /><path clip-path="url(#clip410)" d="M594.715 416.853 Q596.312 413.983 598.534 412.617 Q600.756 411.251 603.765 411.251 Q607.816 411.251 610.015 414.098 Q612.214 416.922 612.214 422.154 L612.214 437.802 L607.932 437.802 L607.932 422.293 Q607.932 418.566 606.613 416.76 Q605.293 414.955 602.585 414.955 Q599.275 414.955 597.353 417.154 Q595.432 419.353 595.432 423.149 L595.432 437.802 L591.15 437.802 L591.15 422.293 Q591.15 418.543 589.83 416.76 Q588.511 414.955 585.756 414.955 Q582.492 414.955 580.571 417.177 Q578.65 419.376 578.65 423.149 L578.65 437.802 L574.367 437.802 L574.367 411.876 L578.65 411.876 L578.65 415.904 Q580.108 413.52 582.145 412.385 Q584.182 411.251 586.983 411.251 Q589.807 411.251 591.775 412.686 Q593.765 414.122 594.715 416.853 Z" fill="#000000" fill-rule="nonzero" fill-opacity="1" /><path clip-path="url(#clip410)" d="M640.895 416.853 Q642.492 413.983 644.714 412.617 Q646.936 411.251 649.946 411.251 Q653.997 411.251 656.196 414.098 Q658.395 416.922 658.395 422.154 L658.395 437.802 L654.112 437.802 L654.112 422.293 Q654.112 418.566 652.793 416.76 Q651.473 414.955 648.765 414.955 Q645.455 414.955 643.534 417.154 Q641.612 419.353 641.612 423.149 L641.612 437.802 L637.33 437.802 L637.33 422.293 Q637.33 418.543 636.011 416.76 Q634.691 414.955 631.937 414.955 Q628.673 414.955 626.751 417.177 Q624.83 419.376 624.83 423.149 L624.83 437.802 L620.548 437.802 L620.548 411.876 L624.83 411.876 L624.83 415.904 Q626.288 413.52 628.325 412.385 Q630.362 411.251 633.163 411.251 Q635.987 411.251 637.955 412.686 Q639.946 414.122 640.895 416.853 Z" fill="#000000" fill-rule="nonzero" fill-opacity="1" /><path clip-path="url(#clip410)" d="M666.89 401.784 L671.149 401.784 L671.149 437.802 L666.89 437.802 L666.89 401.784 Z" fill="#000000" fill-rule="nonzero" fill-opacity="1" /><path clip-path="url(#clip410)" d="M702.237 423.774 L702.237 425.858 L682.654 425.858 Q682.932 430.256 685.293 432.571 Q687.677 434.862 691.913 434.862 Q694.367 434.862 696.658 434.26 Q698.973 433.658 701.242 432.455 L701.242 436.483 Q698.95 437.455 696.543 437.964 Q694.135 438.473 691.658 438.473 Q685.455 438.473 681.821 434.862 Q678.209 431.251 678.209 425.094 Q678.209 418.728 681.635 415.001 Q685.084 411.251 690.918 411.251 Q696.149 411.251 699.182 414.631 Q702.237 417.987 702.237 423.774 M697.978 422.524 Q697.932 419.029 696.01 416.946 Q694.112 414.862 690.964 414.862 Q687.399 414.862 685.246 416.876 Q683.117 418.89 682.793 422.547 L697.978 422.524 Z" fill="#000000" fill-rule="nonzero" fill-opacity="1" /><path clip-path="url(#clip410)" d="M721.01 424.77 Q715.848 424.77 713.857 425.95 Q711.867 427.131 711.867 429.978 Q711.867 432.246 713.348 433.589 Q714.853 434.908 717.422 434.908 Q720.964 434.908 723.093 432.409 Q725.246 429.885 725.246 425.719 L725.246 424.77 L721.01 424.77 M729.505 423.01 L729.505 437.802 L725.246 437.802 L725.246 433.867 Q723.788 436.228 721.612 437.362 Q719.436 438.473 716.288 438.473 Q712.306 438.473 709.945 436.251 Q707.607 434.006 707.607 430.256 Q707.607 425.881 710.524 423.659 Q713.464 421.436 719.274 421.436 L725.246 421.436 L725.246 421.02 Q725.246 418.08 723.302 416.483 Q721.38 414.862 717.885 414.862 Q715.663 414.862 713.556 415.395 Q711.45 415.927 709.506 416.992 L709.506 413.057 Q711.844 412.154 714.043 411.714 Q716.242 411.251 718.325 411.251 Q723.95 411.251 726.728 414.168 Q729.505 417.085 729.505 423.01 Z" fill="#000000" fill-rule="nonzero" fill-opacity="1" /><path clip-path="url(#clip410)" d="M753.302 415.858 Q752.584 415.441 751.728 415.256 Q750.894 415.047 749.876 415.047 Q746.265 415.047 744.32 417.409 Q742.399 419.747 742.399 424.145 L742.399 437.802 L738.117 437.802 L738.117 411.876 L742.399 411.876 L742.399 415.904 Q743.741 413.543 745.894 412.409 Q748.047 411.251 751.126 411.251 Q751.566 411.251 752.098 411.321 Q752.63 411.367 753.278 411.483 L753.302 415.858 Z" fill="#000000" fill-rule="nonzero" fill-opacity="1" /><path clip-path="url(#clip410)" d="M778.487 422.154 L778.487 437.802 L774.227 437.802 L774.227 422.293 Q774.227 418.612 772.792 416.784 Q771.357 414.955 768.487 414.955 Q765.038 414.955 763.047 417.154 Q761.056 419.353 761.056 423.149 L761.056 437.802 L756.774 437.802 L756.774 411.876 L761.056 411.876 L761.056 415.904 Q762.584 413.566 764.644 412.409 Q766.727 411.251 769.436 411.251 Q773.903 411.251 776.195 414.029 Q778.487 416.784 778.487 422.154 Z" fill="#000000" fill-rule="nonzero" fill-opacity="1" /><polyline clip-path="url(#clip410)" style="stroke:#ff0000; stroke-linecap:round; stroke-linejoin:round; stroke-width:6; stroke-opacity:1; fill:none" stroke-dasharray="24, 12, 3, 12, 3, 12" points="403.616,472.362 524.22,472.362 "/>
<path clip-path="url(#clip410)" d="M463.918 453.75 L445.306 490.974 L482.53 490.974 L463.918 453.75 Z" fill="#ff0000" fill-rule="evenodd" fill-opacity="1" stroke="#000000" stroke-opacity="1" stroke-width="4.55111"/>
<path clip-path="url(#clip410)" d="M548.604 485.753 L548.604 499.503 L544.321 499.503 L544.321 463.716 L548.604 463.716 L548.604 467.651 Q549.946 465.337 551.983 464.225 Q554.043 463.091 556.891 463.091 Q561.613 463.091 564.553 466.841 Q567.516 470.591 567.516 476.702 Q567.516 482.813 564.553 486.563 Q561.613 490.313 556.891 490.313 Q554.043 490.313 551.983 489.202 Q549.946 488.068 548.604 485.753 M563.094 476.702 Q563.094 472.003 561.15 469.341 Q559.229 466.656 555.849 466.656 Q552.469 466.656 550.525 469.341 Q548.604 472.003 548.604 476.702 Q548.604 481.401 550.525 484.086 Q552.469 486.748 555.849 486.748 Q559.229 486.748 561.15 484.086 Q563.094 481.401 563.094 476.702 Z" fill="#000000" fill-rule="nonzero" fill-opacity="1" /><path clip-path="url(#clip410)" d="M584.622 466.702 Q581.196 466.702 579.205 469.387 Q577.215 472.049 577.215 476.702 Q577.215 481.355 579.182 484.04 Q581.173 486.702 584.622 486.702 Q588.025 486.702 590.015 484.017 Q592.006 481.332 592.006 476.702 Q592.006 472.096 590.015 469.411 Q588.025 466.702 584.622 466.702 M584.622 463.091 Q590.177 463.091 593.349 466.702 Q596.52 470.313 596.52 476.702 Q596.52 483.068 593.349 486.702 Q590.177 490.313 584.622 490.313 Q579.043 490.313 575.872 486.702 Q572.724 483.068 572.724 476.702 Q572.724 470.313 575.872 466.702 Q579.043 463.091 584.622 463.091 Z" fill="#000000" fill-rule="nonzero" fill-opacity="1" /><path clip-path="url(#clip410)" d="M623.765 468.693 Q625.362 465.823 627.585 464.457 Q629.807 463.091 632.816 463.091 Q636.867 463.091 639.066 465.938 Q641.265 468.762 641.265 473.994 L641.265 489.642 L636.983 489.642 L636.983 474.133 Q636.983 470.406 635.663 468.6 Q634.344 466.795 631.636 466.795 Q628.325 466.795 626.404 468.994 Q624.483 471.193 624.483 474.989 L624.483 489.642 L620.2 489.642 L620.2 474.133 Q620.2 470.383 618.881 468.6 Q617.562 466.795 614.807 466.795 Q611.543 466.795 609.622 469.017 Q607.701 471.216 607.701 474.989 L607.701 489.642 L603.418 489.642 L603.418 463.716 L607.701 463.716 L607.701 467.744 Q609.159 465.36 611.196 464.225 Q613.233 463.091 616.034 463.091 Q618.858 463.091 620.825 464.526 Q622.816 465.962 623.765 468.693 Z" fill="#000000" fill-rule="nonzero" fill-opacity="1" /><path clip-path="url(#clip410)" d="M671.936 475.614 L671.936 477.698 L652.353 477.698 Q652.631 482.096 654.992 484.411 Q657.376 486.702 661.612 486.702 Q664.066 486.702 666.358 486.1 Q668.672 485.498 670.941 484.295 L670.941 488.323 Q668.649 489.295 666.242 489.804 Q663.835 490.313 661.358 490.313 Q655.154 490.313 651.52 486.702 Q647.909 483.091 647.909 476.934 Q647.909 470.568 651.335 466.841 Q654.784 463.091 660.617 463.091 Q665.848 463.091 668.881 466.471 Q671.936 469.827 671.936 475.614 M667.677 474.364 Q667.631 470.869 665.709 468.786 Q663.811 466.702 660.663 466.702 Q657.098 466.702 654.946 468.716 Q652.816 470.73 652.492 474.387 L667.677 474.364 Z" fill="#000000" fill-rule="nonzero" fill-opacity="1" /><path clip-path="url(#clip410)" d="M695.987 476.378 Q695.987 471.749 694.066 469.202 Q692.168 466.656 688.719 466.656 Q685.293 466.656 683.371 469.202 Q681.473 471.749 681.473 476.378 Q681.473 480.985 683.371 483.531 Q685.293 486.077 688.719 486.077 Q692.168 486.077 694.066 483.531 Q695.987 480.985 695.987 476.378 M700.246 486.424 Q700.246 493.045 697.307 496.262 Q694.367 499.503 688.302 499.503 Q686.057 499.503 684.066 499.156 Q682.075 498.832 680.2 498.137 L680.2 493.994 Q682.075 495.012 683.904 495.498 Q685.733 495.985 687.631 495.985 Q691.82 495.985 693.904 493.785 Q695.987 491.61 695.987 487.188 L695.987 485.082 Q694.668 487.373 692.608 488.508 Q690.547 489.642 687.677 489.642 Q682.908 489.642 679.992 486.008 Q677.075 482.374 677.075 476.378 Q677.075 470.36 679.992 466.725 Q682.908 463.091 687.677 463.091 Q690.547 463.091 692.608 464.225 Q694.668 465.36 695.987 467.651 L695.987 463.716 L700.246 463.716 L700.246 486.424 Z" fill="#000000" fill-rule="nonzero" fill-opacity="1" /><path clip-path="url(#clip410)" d="M724.043 467.698 Q723.325 467.281 722.468 467.096 Q721.635 466.887 720.617 466.887 Q717.006 466.887 715.061 469.249 Q713.14 471.587 713.14 475.985 L713.14 489.642 L708.857 489.642 L708.857 463.716 L713.14 463.716 L713.14 467.744 Q714.482 465.383 716.635 464.249 Q718.788 463.091 721.867 463.091 Q722.306 463.091 722.839 463.161 Q723.371 463.207 724.019 463.323 L724.043 467.698 Z" fill="#000000" fill-rule="nonzero" fill-opacity="1" /><path clip-path="url(#clip410)" d="M740.292 476.61 Q735.13 476.61 733.14 477.79 Q731.149 478.971 731.149 481.818 Q731.149 484.086 732.63 485.429 Q734.135 486.748 736.704 486.748 Q740.246 486.748 742.376 484.249 Q744.529 481.725 744.529 477.559 L744.529 476.61 L740.292 476.61 M748.788 474.85 L748.788 489.642 L744.529 489.642 L744.529 485.707 Q743.07 488.068 740.894 489.202 Q738.718 490.313 735.57 490.313 Q731.589 490.313 729.228 488.091 Q726.89 485.846 726.89 482.096 Q726.89 477.721 729.806 475.499 Q732.746 473.276 738.556 473.276 L744.529 473.276 L744.529 472.86 Q744.529 469.92 742.584 468.323 Q740.663 466.702 737.167 466.702 Q734.945 466.702 732.839 467.235 Q730.732 467.767 728.788 468.832 L728.788 464.897 Q731.126 463.994 733.325 463.554 Q735.524 463.091 737.607 463.091 Q743.232 463.091 746.01 466.008 Q748.788 468.925 748.788 474.85 Z" fill="#000000" fill-rule="nonzero" fill-opacity="1" /><path clip-path="url(#clip410)" d="M779.112 473.994 L779.112 489.642 L774.852 489.642 L774.852 474.133 Q774.852 470.452 773.417 468.624 Q771.982 466.795 769.112 466.795 Q765.663 466.795 763.672 468.994 Q761.681 471.193 761.681 474.989 L761.681 489.642 L757.399 489.642 L757.399 463.716 L761.681 463.716 L761.681 467.744 Q763.209 465.406 765.269 464.249 Q767.352 463.091 770.061 463.091 Q774.528 463.091 776.82 465.869 Q779.112 468.624 779.112 473.994 Z" fill="#000000" fill-rule="nonzero" fill-opacity="1" /><path clip-path="url(#clip410)" d="M799.389 476.61 Q794.227 476.61 792.237 477.79 Q790.246 478.971 790.246 481.818 Q790.246 484.086 791.727 485.429 Q793.232 486.748 795.801 486.748 Q799.343 486.748 801.473 484.249 Q803.625 481.725 803.625 477.559 L803.625 476.61 L799.389 476.61 M807.885 474.85 L807.885 489.642 L803.625 489.642 L803.625 485.707 Q802.167 488.068 799.991 489.202 Q797.815 490.313 794.667 490.313 Q790.686 490.313 788.325 488.091 Q785.987 485.846 785.987 482.096 Q785.987 477.721 788.903 475.499 Q791.843 473.276 797.653 473.276 L803.625 473.276 L803.625 472.86 Q803.625 469.92 801.681 468.323 Q799.76 466.702 796.264 466.702 Q794.042 466.702 791.936 467.235 Q789.829 467.767 787.885 468.832 L787.885 464.897 Q790.223 463.994 792.422 463.554 Q794.621 463.091 796.704 463.091 Q802.329 463.091 805.107 466.008 Q807.885 468.925 807.885 474.85 Z" fill="#000000" fill-rule="nonzero" fill-opacity="1" /><path clip-path="url(#clip410)" d="M820.871 456.355 L820.871 463.716 L829.644 463.716 L829.644 467.026 L820.871 467.026 L820.871 481.1 Q820.871 484.272 821.727 485.174 Q822.607 486.077 825.269 486.077 L829.644 486.077 L829.644 489.642 L825.269 489.642 Q820.338 489.642 818.463 487.813 Q816.588 485.961 816.588 481.1 L816.588 467.026 L813.463 467.026 L813.463 463.716 L816.588 463.716 L816.588 456.355 L820.871 456.355 Z" fill="#000000" fill-rule="nonzero" fill-opacity="1" /><path clip-path="url(#clip410)" d="M857.421 475.614 L857.421 477.698 L837.838 477.698 Q838.116 482.096 840.477 484.411 Q842.861 486.702 847.097 486.702 Q849.551 486.702 851.843 486.1 Q854.158 485.498 856.426 484.295 L856.426 488.323 Q854.134 489.295 851.727 489.804 Q849.32 490.313 846.843 490.313 Q840.639 490.313 837.005 486.702 Q833.394 483.091 833.394 476.934 Q833.394 470.568 836.82 466.841 Q840.269 463.091 846.102 463.091 Q851.334 463.091 854.366 466.471 Q857.421 469.827 857.421 475.614 M853.162 474.364 Q853.116 470.869 851.195 468.786 Q849.296 466.702 846.148 466.702 Q842.584 466.702 840.431 468.716 Q838.301 470.73 837.977 474.387 L853.162 474.364 Z" fill="#000000" fill-rule="nonzero" fill-opacity="1" /></svg>
