<?xml version="1.0" encoding="utf-8"?>
<svg xmlns="http://www.w3.org/2000/svg" xmlns:xlink="http://www.w3.org/1999/xlink" width="600" height="400" viewBox="0 0 2400 1600">
<defs>
  <clipPath id="clip200">
    <rect x="0" y="0" width="2400" height="1600"/>
  </clipPath>
</defs>
<path clip-path="url(#clip200)" d="M0 1600 L2400 1600 L2400 0 L0 0  Z" fill="#ffffff" fill-rule="evenodd" fill-opacity="1"/>
<defs>
  <clipPath id="clip201">
    <rect x="480" y="0" width="1681" height="1600"/>
  </clipPath>
</defs>
<path clip-path="url(#clip200)" d="M323.213 1284.79 L2132.28 1284.79 L2132.28 283.465 L323.213 283.465  Z" fill="#ffffff" fill-rule="evenodd" fill-opacity="1"/>
<defs>
  <clipPath id="clip202">
    <rect x="323" y="283" width="1810" height="1002"/>
  </clipPath>
</defs>
<polyline clip-path="url(#clip202)" style="stroke:#000000; stroke-linecap:round; stroke-linejoin:round; stroke-width:2; stroke-opacity:0.1; fill:none" points="685.027,1284.79 685.027,283.465 "/>
<polyline clip-path="url(#clip202)" style="stroke:#000000; stroke-linecap:round; stroke-linejoin:round; stroke-width:2; stroke-opacity:0.1; fill:none" points="1137.29,1284.79 1137.29,283.465 "/>
<polyline clip-path="url(#clip202)" style="stroke:#000000; stroke-linecap:round; stroke-linejoin:round; stroke-width:2; stroke-opacity:0.1; fill:none" points="1589.56,1284.79 1589.56,283.465 "/>
<polyline clip-path="url(#clip202)" style="stroke:#000000; stroke-linecap:round; stroke-linejoin:round; stroke-width:2; stroke-opacity:0.1; fill:none" points="2041.83,1284.79 2041.83,283.465 "/>
<polyline clip-path="url(#clip200)" style="stroke:#000000; stroke-linecap:round; stroke-linejoin:round; stroke-width:4; stroke-opacity:1; fill:none" points="323.213,1284.79 2132.28,1284.79 "/>
<polyline clip-path="url(#clip200)" style="stroke:#000000; stroke-linecap:round; stroke-linejoin:round; stroke-width:4; stroke-opacity:1; fill:none" points="685.027,1284.79 685.027,1265.89 "/>
<polyline clip-path="url(#clip200)" style="stroke:#000000; stroke-linecap:round; stroke-linejoin:round; stroke-width:4; stroke-opacity:1; fill:none" points="1137.29,1284.79 1137.29,1265.89 "/>
<polyline clip-path="url(#clip200)" style="stroke:#000000; stroke-linecap:round; stroke-linejoin:round; stroke-width:4; stroke-opacity:1; fill:none" points="1589.56,1284.79 1589.56,1265.89 "/>
<polyline clip-path="url(#clip200)" style="stroke:#000000; stroke-linecap:round; stroke-linejoin:round; stroke-width:4; stroke-opacity:1; fill:none" points="2041.83,1284.79 2041.83,1265.89 "/>
<path clip-path="url(#clip200)" d="M675.305 1312.63 L693.661 1312.63 L693.661 1316.56 L679.587 1316.56 L679.587 1325.03 Q680.605 1324.69 681.624 1324.53 Q682.643 1324.34 683.661 1324.34 Q689.448 1324.34 692.828 1327.51 Q696.207 1330.68 696.207 1336.1 Q696.207 1341.68 692.735 1344.78 Q689.263 1347.86 682.943 1347.86 Q680.768 1347.86 678.499 1347.49 Q676.254 1347.12 673.846 1346.38 L673.846 1341.68 Q675.93 1342.81 678.152 1343.37 Q680.374 1343.92 682.851 1343.92 Q686.855 1343.92 689.193 1341.82 Q691.531 1339.71 691.531 1336.1 Q691.531 1332.49 689.193 1330.38 Q686.855 1328.28 682.851 1328.28 Q680.976 1328.28 679.101 1328.69 Q677.249 1329.11 675.305 1329.99 L675.305 1312.63 Z" fill="#000000" fill-rule="nonzero" fill-opacity="1" /><path clip-path="url(#clip200)" d="M1111.98 1343.25 L1119.62 1343.25 L1119.62 1316.89 L1111.31 1318.55 L1111.31 1314.29 L1119.57 1312.63 L1124.25 1312.63 L1124.25 1343.25 L1131.89 1343.25 L1131.89 1347.19 L1111.98 1347.19 L1111.98 1343.25 Z" fill="#000000" fill-rule="nonzero" fill-opacity="1" /><path clip-path="url(#clip200)" d="M1151.33 1315.71 Q1147.72 1315.71 1145.89 1319.27 Q1144.09 1322.81 1144.09 1329.94 Q1144.09 1337.05 1145.89 1340.61 Q1147.72 1344.16 1151.33 1344.16 Q1154.97 1344.16 1156.77 1340.61 Q1158.6 1337.05 1158.6 1329.94 Q1158.6 1322.81 1156.77 1319.27 Q1154.97 1315.71 1151.33 1315.71 M1151.33 1312 Q1157.14 1312 1160.2 1316.61 Q1163.28 1321.19 1163.28 1329.94 Q1163.28 1338.67 1160.2 1343.28 Q1157.14 1347.86 1151.33 1347.86 Q1145.52 1347.86 1142.44 1343.28 Q1139.39 1338.67 1139.39 1329.94 Q1139.39 1321.19 1142.44 1316.61 Q1145.52 1312 1151.33 1312 Z" fill="#000000" fill-rule="nonzero" fill-opacity="1" /><path clip-path="url(#clip200)" d="M1564.75 1343.25 L1572.39 1343.25 L1572.39 1316.89 L1564.08 1318.55 L1564.08 1314.29 L1572.34 1312.63 L1577.02 1312.63 L1577.02 1343.25 L1584.65 1343.25 L1584.65 1347.19 L1564.75 1347.19 L1564.75 1343.25 Z" fill="#000000" fill-rule="nonzero" fill-opacity="1" /><path clip-path="url(#clip200)" d="M1594.15 1312.63 L1612.5 1312.63 L1612.5 1316.56 L1598.43 1316.56 L1598.43 1325.03 Q1599.45 1324.69 1600.46 1324.53 Q1601.48 1324.34 1602.5 1324.34 Q1608.29 1324.34 1611.67 1327.51 Q1615.05 1330.68 1615.05 1336.1 Q1615.05 1341.68 1611.58 1344.78 Q1608.1 1347.86 1601.78 1347.86 Q1599.61 1347.86 1597.34 1347.49 Q1595.09 1347.12 1592.69 1346.38 L1592.69 1341.68 Q1594.77 1342.81 1596.99 1343.37 Q1599.21 1343.92 1601.69 1343.92 Q1605.7 1343.92 1608.03 1341.82 Q1610.37 1339.71 1610.37 1336.1 Q1610.37 1332.49 1608.03 1330.38 Q1605.7 1328.28 1601.69 1328.28 Q1599.82 1328.28 1597.94 1328.69 Q1596.09 1329.11 1594.15 1329.99 L1594.15 1312.63 Z" fill="#000000" fill-rule="nonzero" fill-opacity="1" /><path clip-path="url(#clip200)" d="M2020.6 1343.25 L2036.92 1343.25 L2036.92 1347.19 L2014.98 1347.19 L2014.98 1343.25 Q2017.64 1340.5 2022.22 1335.87 Q2026.83 1331.22 2028.01 1329.87 Q2030.26 1327.35 2031.14 1325.61 Q2032.04 1323.85 2032.04 1322.16 Q2032.04 1319.41 2030.09 1317.67 Q2028.17 1315.94 2025.07 1315.94 Q2022.87 1315.94 2020.42 1316.7 Q2017.99 1317.47 2015.21 1319.02 L2015.21 1314.29 Q2018.03 1313.16 2020.49 1312.58 Q2022.94 1312 2024.98 1312 Q2030.35 1312 2033.54 1314.69 Q2036.74 1317.37 2036.74 1321.86 Q2036.74 1323.99 2035.93 1325.91 Q2035.14 1327.81 2033.03 1330.41 Q2032.45 1331.08 2029.35 1334.29 Q2026.25 1337.49 2020.6 1343.25 Z" fill="#000000" fill-rule="nonzero" fill-opacity="1" /><path clip-path="url(#clip200)" d="M2056.74 1315.71 Q2053.13 1315.71 2051.3 1319.27 Q2049.49 1322.81 2049.49 1329.94 Q2049.49 1337.05 2051.3 1340.61 Q2053.13 1344.16 2056.74 1344.16 Q2060.37 1344.16 2062.18 1340.61 Q2064.01 1337.05 2064.01 1329.94 Q2064.01 1322.81 2062.18 1319.27 Q2060.37 1315.71 2056.74 1315.71 M2056.74 1312 Q2062.55 1312 2065.6 1316.61 Q2068.68 1321.19 2068.68 1329.94 Q2068.68 1338.67 2065.6 1343.28 Q2062.55 1347.86 2056.74 1347.86 Q2050.93 1347.86 2047.85 1343.28 Q2044.79 1338.67 2044.79 1329.94 Q2044.79 1321.19 2047.85 1316.61 Q2050.93 1312 2056.74 1312 Z" fill="#000000" fill-rule="nonzero" fill-opacity="1" /><path clip-path="url(#clip200)" d="M950.14 1408.14 L950.14 1429.65 L944.283 1429.65 L944.283 1408.33 Q944.283 1403.27 942.31 1400.75 Q940.336 1398.24 936.39 1398.24 Q931.647 1398.24 928.91 1401.26 Q926.173 1404.28 926.173 1409.5 L926.173 1429.65 L920.284 1429.65 L920.284 1394 L926.173 1394 L926.173 1399.54 Q928.273 1396.33 931.106 1394.74 Q933.971 1393.14 937.695 1393.14 Q943.838 1393.14 946.989 1396.96 Q950.14 1400.75 950.14 1408.14 Z" fill="#000000" fill-rule="nonzero" fill-opacity="1" /><path clip-path="url(#clip200)" d="M961.216 1415.58 L961.216 1394 L967.072 1394 L967.072 1415.36 Q967.072 1420.42 969.046 1422.97 Q971.019 1425.48 974.966 1425.48 Q979.708 1425.48 982.446 1422.46 Q985.215 1419.43 985.215 1414.21 L985.215 1394 L991.071 1394 L991.071 1429.65 L985.215 1429.65 L985.215 1424.18 Q983.082 1427.42 980.249 1429.01 Q977.448 1430.57 973.725 1430.57 Q967.582 1430.57 964.399 1426.76 Q961.216 1422.94 961.216 1415.58 M975.953 1393.14 L975.953 1393.14 Z" fill="#000000" fill-rule="nonzero" fill-opacity="1" /><path clip-path="url(#clip200)" d="M1030.89 1400.85 Q1033.08 1396.9 1036.14 1395.02 Q1039.2 1393.14 1043.33 1393.14 Q1048.9 1393.14 1051.93 1397.06 Q1054.95 1400.94 1054.95 1408.14 L1054.95 1429.65 L1049.06 1429.65 L1049.06 1408.33 Q1049.06 1403.2 1047.25 1400.72 Q1045.43 1398.24 1041.71 1398.24 Q1037.16 1398.24 1034.52 1401.26 Q1031.88 1404.28 1031.88 1409.5 L1031.88 1429.65 L1025.99 1429.65 L1025.99 1408.33 Q1025.99 1403.17 1024.17 1400.72 Q1022.36 1398.24 1018.57 1398.24 Q1014.08 1398.24 1011.44 1401.29 Q1008.8 1404.32 1008.8 1409.5 L1008.8 1429.65 L1002.91 1429.65 L1002.91 1394 L1008.8 1394 L1008.8 1399.54 Q1010.8 1396.26 1013.61 1394.7 Q1016.41 1393.14 1020.26 1393.14 Q1024.14 1393.14 1026.85 1395.12 Q1029.58 1397.09 1030.89 1400.85 Z" fill="#000000" fill-rule="nonzero" fill-opacity="1" /><path clip-path="url(#clip200)" d="M1092.22 1411.86 Q1092.22 1405.4 1089.55 1401.74 Q1086.91 1398.05 1082.26 1398.05 Q1077.61 1398.05 1074.94 1401.74 Q1072.3 1405.4 1072.3 1411.86 Q1072.3 1418.32 1074.94 1422.01 Q1077.61 1425.67 1082.26 1425.67 Q1086.91 1425.67 1089.55 1422.01 Q1092.22 1418.32 1092.22 1411.86 M1072.3 1399.41 Q1074.14 1396.23 1076.94 1394.7 Q1079.78 1393.14 1083.69 1393.14 Q1090.19 1393.14 1094.23 1398.3 Q1098.3 1403.46 1098.3 1411.86 Q1098.3 1420.26 1094.23 1425.42 Q1090.19 1430.57 1083.69 1430.57 Q1079.78 1430.57 1076.94 1429.05 Q1074.14 1427.49 1072.3 1424.3 L1072.3 1429.65 L1066.41 1429.65 L1066.41 1380.13 L1072.3 1380.13 L1072.3 1399.41 Z" fill="#000000" fill-rule="nonzero" fill-opacity="1" /><path clip-path="url(#clip200)" d="M1138.5 1410.36 L1138.5 1413.23 L1111.57 1413.23 Q1111.96 1419.28 1115.2 1422.46 Q1118.48 1425.61 1124.31 1425.61 Q1127.68 1425.61 1130.83 1424.78 Q1134.01 1423.95 1137.13 1422.3 L1137.13 1427.84 Q1133.98 1429.17 1130.67 1429.87 Q1127.36 1430.57 1123.96 1430.57 Q1115.43 1430.57 1110.43 1425.61 Q1105.46 1420.64 1105.46 1412.18 Q1105.46 1403.42 1110.17 1398.3 Q1114.92 1393.14 1122.94 1393.14 Q1130.13 1393.14 1134.3 1397.79 Q1138.5 1402.41 1138.5 1410.36 M1132.64 1408.64 Q1132.58 1403.84 1129.94 1400.97 Q1127.33 1398.11 1123 1398.11 Q1118.1 1398.11 1115.14 1400.88 Q1112.21 1403.65 1111.76 1408.68 L1132.64 1408.64 Z" fill="#000000" fill-rule="nonzero" fill-opacity="1" /><path clip-path="url(#clip200)" d="M1168.77 1399.48 Q1167.78 1398.91 1166.61 1398.65 Q1165.46 1398.36 1164.06 1398.36 Q1159.09 1398.36 1156.42 1401.61 Q1153.78 1404.83 1153.78 1410.87 L1153.78 1429.65 L1147.89 1429.65 L1147.89 1394 L1153.78 1394 L1153.78 1399.54 Q1155.62 1396.3 1158.58 1394.74 Q1161.54 1393.14 1165.78 1393.14 Q1166.38 1393.14 1167.11 1393.24 Q1167.85 1393.3 1168.74 1393.46 L1168.77 1399.48 Z" fill="#000000" fill-rule="nonzero" fill-opacity="1" /><path clip-path="url(#clip200)" d="M1209.45 1398.11 Q1204.74 1398.11 1202 1401.8 Q1199.26 1405.46 1199.26 1411.86 Q1199.26 1418.26 1201.97 1421.95 Q1204.7 1425.61 1209.45 1425.61 Q1214.13 1425.61 1216.86 1421.92 Q1219.6 1418.22 1219.6 1411.86 Q1219.6 1405.53 1216.86 1401.83 Q1214.13 1398.11 1209.45 1398.11 M1209.45 1393.14 Q1217.09 1393.14 1221.45 1398.11 Q1225.81 1403.07 1225.81 1411.86 Q1225.81 1420.61 1221.45 1425.61 Q1217.09 1430.57 1209.45 1430.57 Q1201.78 1430.57 1197.42 1425.61 Q1193.09 1420.61 1193.09 1411.86 Q1193.09 1403.07 1197.42 1398.11 Q1201.78 1393.14 1209.45 1393.14 Z" fill="#000000" fill-rule="nonzero" fill-opacity="1" /><path clip-path="url(#clip200)" d="M1253.56 1380.13 L1253.56 1385 L1247.96 1385 Q1244.81 1385 1243.57 1386.27 Q1242.36 1387.54 1242.36 1390.85 L1242.36 1394 L1252 1394 L1252 1398.55 L1242.36 1398.55 L1242.36 1429.65 L1236.47 1429.65 L1236.47 1398.55 L1230.87 1398.55 L1230.87 1394 L1236.47 1394 L1236.47 1391.52 Q1236.47 1385.57 1239.24 1382.86 Q1242.01 1380.13 1248.02 1380.13 L1253.56 1380.13 Z" fill="#000000" fill-rule="nonzero" fill-opacity="1" /><path clip-path="url(#clip200)" d="M1301.91 1395.05 L1301.91 1400.59 Q1299.43 1399.32 1296.75 1398.68 Q1294.08 1398.05 1291.21 1398.05 Q1286.85 1398.05 1284.66 1399.38 Q1282.49 1400.72 1282.49 1403.39 Q1282.49 1405.43 1284.05 1406.61 Q1285.61 1407.75 1290.32 1408.8 L1292.33 1409.25 Q1298.57 1410.59 1301.18 1413.04 Q1303.82 1415.46 1303.82 1419.82 Q1303.82 1424.78 1299.87 1427.68 Q1295.96 1430.57 1289.08 1430.57 Q1286.22 1430.57 1283.1 1430 Q1280.01 1429.46 1276.57 1428.35 L1276.57 1422.3 Q1279.82 1423.99 1282.97 1424.85 Q1286.12 1425.67 1289.21 1425.67 Q1293.35 1425.67 1295.57 1424.27 Q1297.8 1422.84 1297.8 1420.26 Q1297.8 1417.87 1296.18 1416.6 Q1294.59 1415.33 1289.15 1414.15 L1287.11 1413.67 Q1281.67 1412.53 1279.25 1410.17 Q1276.83 1407.79 1276.83 1403.65 Q1276.83 1398.62 1280.39 1395.88 Q1283.96 1393.14 1290.51 1393.14 Q1293.76 1393.14 1296.62 1393.62 Q1299.49 1394.1 1301.91 1395.05 Z" fill="#000000" fill-rule="nonzero" fill-opacity="1" /><path clip-path="url(#clip200)" d="M1318.94 1383.88 L1318.94 1394 L1331 1394 L1331 1398.55 L1318.94 1398.55 L1318.94 1417.91 Q1318.94 1422.27 1320.11 1423.51 Q1321.32 1424.75 1324.98 1424.75 L1331 1424.75 L1331 1429.65 L1324.98 1429.65 Q1318.2 1429.65 1315.63 1427.14 Q1313.05 1424.59 1313.05 1417.91 L1313.05 1398.55 L1308.75 1398.55 L1308.75 1394 L1313.05 1394 L1313.05 1383.88 L1318.94 1383.88 Z" fill="#000000" fill-rule="nonzero" fill-opacity="1" /><path clip-path="url(#clip200)" d="M1354.9 1411.73 Q1347.81 1411.73 1345.07 1413.36 Q1342.33 1414.98 1342.33 1418.89 Q1342.33 1422.01 1344.37 1423.86 Q1346.44 1425.67 1349.97 1425.67 Q1354.84 1425.67 1357.77 1422.24 Q1360.73 1418.77 1360.73 1413.04 L1360.73 1411.73 L1354.9 1411.73 M1366.58 1409.31 L1366.58 1429.65 L1360.73 1429.65 L1360.73 1424.24 Q1358.72 1427.49 1355.73 1429.05 Q1352.74 1430.57 1348.41 1430.57 Q1342.94 1430.57 1339.69 1427.52 Q1336.47 1424.43 1336.47 1419.28 Q1336.47 1413.26 1340.48 1410.2 Q1344.53 1407.15 1352.52 1407.15 L1360.73 1407.15 L1360.73 1406.58 Q1360.73 1402.53 1358.05 1400.34 Q1355.41 1398.11 1350.61 1398.11 Q1347.55 1398.11 1344.65 1398.84 Q1341.76 1399.57 1339.08 1401.04 L1339.08 1395.63 Q1342.3 1394.39 1345.32 1393.78 Q1348.35 1393.14 1351.21 1393.14 Q1358.95 1393.14 1362.76 1397.15 Q1366.58 1401.16 1366.58 1409.31 Z" fill="#000000" fill-rule="nonzero" fill-opacity="1" /><path clip-path="url(#clip200)" d="M1384.44 1383.88 L1384.44 1394 L1396.5 1394 L1396.5 1398.55 L1384.44 1398.55 L1384.44 1417.91 Q1384.44 1422.27 1385.62 1423.51 Q1386.83 1424.75 1390.49 1424.75 L1396.5 1424.75 L1396.5 1429.65 L1390.49 1429.65 Q1383.71 1429.65 1381.13 1427.14 Q1378.55 1424.59 1378.55 1417.91 L1378.55 1398.55 L1374.25 1398.55 L1374.25 1394 L1378.55 1394 L1378.55 1383.88 L1384.44 1383.88 Z" fill="#000000" fill-rule="nonzero" fill-opacity="1" /><path clip-path="url(#clip200)" d="M1434.7 1410.36 L1434.7 1413.23 L1407.77 1413.23 Q1408.15 1419.28 1411.4 1422.46 Q1414.68 1425.61 1420.5 1425.61 Q1423.88 1425.61 1427.03 1424.78 Q1430.21 1423.95 1433.33 1422.3 L1433.33 1427.84 Q1430.18 1429.17 1426.87 1429.87 Q1423.56 1430.57 1420.15 1430.57 Q1411.62 1430.57 1406.62 1425.61 Q1401.66 1420.64 1401.66 1412.18 Q1401.66 1403.42 1406.37 1398.3 Q1411.11 1393.14 1419.13 1393.14 Q1426.33 1393.14 1430.5 1397.79 Q1434.7 1402.41 1434.7 1410.36 M1428.84 1408.64 Q1428.78 1403.84 1426.14 1400.97 Q1423.53 1398.11 1419.2 1398.11 Q1414.3 1398.11 1411.34 1400.88 Q1408.41 1403.65 1407.96 1408.68 L1428.84 1408.64 Z" fill="#000000" fill-rule="nonzero" fill-opacity="1" /><path clip-path="url(#clip200)" d="M1467.03 1395.05 L1467.03 1400.59 Q1464.55 1399.32 1461.88 1398.68 Q1459.21 1398.05 1456.34 1398.05 Q1451.98 1398.05 1449.78 1399.38 Q1447.62 1400.72 1447.62 1403.39 Q1447.62 1405.43 1449.18 1406.61 Q1450.74 1407.75 1455.45 1408.8 L1457.45 1409.25 Q1463.69 1410.59 1466.3 1413.04 Q1468.94 1415.46 1468.94 1419.82 Q1468.94 1424.78 1465 1427.68 Q1461.08 1430.57 1454.21 1430.57 Q1451.34 1430.57 1448.22 1430 Q1445.14 1429.46 1441.7 1428.35 L1441.7 1422.3 Q1444.95 1423.99 1448.1 1424.85 Q1451.25 1425.67 1454.34 1425.67 Q1458.47 1425.67 1460.7 1424.27 Q1462.93 1422.84 1462.93 1420.26 Q1462.93 1417.87 1461.31 1416.6 Q1459.71 1415.33 1454.27 1414.15 L1452.23 1413.67 Q1446.79 1412.53 1444.37 1410.17 Q1441.95 1407.79 1441.95 1403.65 Q1441.95 1398.62 1445.52 1395.88 Q1449.08 1393.14 1455.64 1393.14 Q1458.89 1393.14 1461.75 1393.62 Q1464.62 1394.1 1467.03 1395.05 Z" fill="#000000" fill-rule="nonzero" fill-opacity="1" /><path clip-path="url(#clip200)" d="M1499.25 1382.13 L1507.9 1382.13 L1528.97 1421.89 L1528.97 1382.13 L1535.21 1382.13 L1535.21 1429.65 L1526.55 1429.65 L1505.48 1389.9 L1505.48 1429.65 L1499.25 1429.65 L1499.25 1382.13 Z" fill="#000000" fill-rule="nonzero" fill-opacity="1" /><polyline clip-path="url(#clip202)" style="stroke:#000000; stroke-linecap:round; stroke-linejoin:round; stroke-width:2; stroke-opacity:0.1; fill:none" points="323.213,1284.79 2132.28,1284.79 "/>
<polyline clip-path="url(#clip202)" style="stroke:#000000; stroke-linecap:round; stroke-linejoin:round; stroke-width:2; stroke-opacity:0.1; fill:none" points="323.213,1114.05 2132.28,1114.05 "/>
<polyline clip-path="url(#clip202)" style="stroke:#000000; stroke-linecap:round; stroke-linejoin:round; stroke-width:2; stroke-opacity:0.1; fill:none" points="323.213,943.316 2132.28,943.316 "/>
<polyline clip-path="url(#clip202)" style="stroke:#000000; stroke-linecap:round; stroke-linejoin:round; stroke-width:2; stroke-opacity:0.1; fill:none" points="323.213,772.58 2132.28,772.58 "/>
<polyline clip-path="url(#clip202)" style="stroke:#000000; stroke-linecap:round; stroke-linejoin:round; stroke-width:2; stroke-opacity:0.1; fill:none" points="323.213,601.845 2132.28,601.845 "/>
<polyline clip-path="url(#clip202)" style="stroke:#000000; stroke-linecap:round; stroke-linejoin:round; stroke-width:2; stroke-opacity:0.1; fill:none" points="323.213,431.109 2132.28,431.109 "/>
<polyline clip-path="url(#clip200)" style="stroke:#000000; stroke-linecap:round; stroke-linejoin:round; stroke-width:4; stroke-opacity:1; fill:none" points="323.213,1284.79 323.213,283.465 "/>
<polyline clip-path="url(#clip200)" style="stroke:#000000; stroke-linecap:round; stroke-linejoin:round; stroke-width:4; stroke-opacity:1; fill:none" points="323.213,1284.79 342.11,1284.79 "/>
<polyline clip-path="url(#clip200)" style="stroke:#000000; stroke-linecap:round; stroke-linejoin:round; stroke-width:4; stroke-opacity:1; fill:none" points="323.213,1114.05 342.11,1114.05 "/>
<polyline clip-path="url(#clip200)" style="stroke:#000000; stroke-linecap:round; stroke-linejoin:round; stroke-width:4; stroke-opacity:1; fill:none" points="323.213,943.316 342.11,943.316 "/>
<polyline clip-path="url(#clip200)" style="stroke:#000000; stroke-linecap:round; stroke-linejoin:round; stroke-width:4; stroke-opacity:1; fill:none" points="323.213,772.58 342.11,772.58 "/>
<polyline clip-path="url(#clip200)" style="stroke:#000000; stroke-linecap:round; stroke-linejoin:round; stroke-width:4; stroke-opacity:1; fill:none" points="323.213,601.845 342.11,601.845 "/>
<polyline clip-path="url(#clip200)" style="stroke:#000000; stroke-linecap:round; stroke-linejoin:round; stroke-width:4; stroke-opacity:1; fill:none" points="323.213,431.109 342.11,431.109 "/>
<path clip-path="url(#clip200)" d="M230.037 1270.59 Q226.426 1270.59 224.597 1274.15 Q222.792 1277.69 222.792 1284.82 Q222.792 1291.93 224.597 1295.49 Q226.426 1299.04 230.037 1299.04 Q233.671 1299.04 235.477 1295.49 Q237.305 1291.93 237.305 1284.82 Q237.305 1277.69 235.477 1274.15 Q233.671 1270.59 230.037 1270.59 M230.037 1266.88 Q235.847 1266.88 238.903 1271.49 Q241.981 1276.07 241.981 1284.82 Q241.981 1293.55 238.903 1298.16 Q235.847 1302.74 230.037 1302.74 Q224.227 1302.74 221.148 1298.16 Q218.093 1293.55 218.093 1284.82 Q218.093 1276.07 221.148 1271.49 Q224.227 1266.88 230.037 1266.88 Z" fill="#000000" fill-rule="nonzero" fill-opacity="1" /><path clip-path="url(#clip200)" d="M250.199 1296.19 L255.083 1296.19 L255.083 1302.07 L250.199 1302.07 L250.199 1296.19 Z" fill="#000000" fill-rule="nonzero" fill-opacity="1" /><path clip-path="url(#clip200)" d="M275.268 1270.59 Q271.657 1270.59 269.828 1274.15 Q268.023 1277.69 268.023 1284.82 Q268.023 1291.93 269.828 1295.49 Q271.657 1299.04 275.268 1299.04 Q278.902 1299.04 280.708 1295.49 Q282.537 1291.93 282.537 1284.82 Q282.537 1277.69 280.708 1274.15 Q278.902 1270.59 275.268 1270.59 M275.268 1266.88 Q281.078 1266.88 284.134 1271.49 Q287.213 1276.07 287.213 1284.82 Q287.213 1293.55 284.134 1298.16 Q281.078 1302.74 275.268 1302.74 Q269.458 1302.74 266.379 1298.16 Q263.324 1293.55 263.324 1284.82 Q263.324 1276.07 266.379 1271.49 Q269.458 1266.88 275.268 1266.88 Z" fill="#000000" fill-rule="nonzero" fill-opacity="1" /><path clip-path="url(#clip200)" d="M231.032 1099.85 Q227.421 1099.85 225.593 1103.42 Q223.787 1106.96 223.787 1114.09 Q223.787 1121.19 225.593 1124.76 Q227.421 1128.3 231.032 1128.3 Q234.667 1128.3 236.472 1124.76 Q238.301 1121.19 238.301 1114.09 Q238.301 1106.96 236.472 1103.42 Q234.667 1099.85 231.032 1099.85 M231.032 1096.15 Q236.842 1096.15 239.898 1100.75 Q242.977 1105.34 242.977 1114.09 Q242.977 1122.81 239.898 1127.42 Q236.842 1132 231.032 1132 Q225.222 1132 222.144 1127.42 Q219.088 1122.81 219.088 1114.09 Q219.088 1105.34 222.144 1100.75 Q225.222 1096.15 231.032 1096.15 Z" fill="#000000" fill-rule="nonzero" fill-opacity="1" /><path clip-path="url(#clip200)" d="M251.194 1125.45 L256.079 1125.45 L256.079 1131.33 L251.194 1131.33 L251.194 1125.45 Z" fill="#000000" fill-rule="nonzero" fill-opacity="1" /><path clip-path="url(#clip200)" d="M266.31 1096.77 L284.666 1096.77 L284.666 1100.71 L270.592 1100.71 L270.592 1109.18 Q271.611 1108.83 272.629 1108.67 Q273.648 1108.48 274.666 1108.48 Q280.453 1108.48 283.833 1111.66 Q287.213 1114.83 287.213 1120.24 Q287.213 1125.82 283.74 1128.92 Q280.268 1132 273.949 1132 Q271.773 1132 269.504 1131.63 Q267.259 1131.26 264.852 1130.52 L264.852 1125.82 Q266.935 1126.96 269.157 1127.51 Q271.379 1128.07 273.856 1128.07 Q277.861 1128.07 280.199 1125.96 Q282.537 1123.85 282.537 1120.24 Q282.537 1116.63 280.199 1114.53 Q277.861 1112.42 273.856 1112.42 Q271.981 1112.42 270.106 1112.84 Q268.254 1113.25 266.31 1114.13 L266.31 1096.77 Z" fill="#000000" fill-rule="nonzero" fill-opacity="1" /><path clip-path="url(#clip200)" d="M220.847 956.661 L228.486 956.661 L228.486 930.295 L220.176 931.962 L220.176 927.703 L228.44 926.036 L233.116 926.036 L233.116 956.661 L240.755 956.661 L240.755 960.596 L220.847 960.596 L220.847 956.661 Z" fill="#000000" fill-rule="nonzero" fill-opacity="1" /><path clip-path="url(#clip200)" d="M250.199 954.716 L255.083 954.716 L255.083 960.596 L250.199 960.596 L250.199 954.716 Z" fill="#000000" fill-rule="nonzero" fill-opacity="1" /><path clip-path="url(#clip200)" d="M275.268 929.115 Q271.657 929.115 269.828 932.679 Q268.023 936.221 268.023 943.351 Q268.023 950.457 269.828 954.022 Q271.657 957.564 275.268 957.564 Q278.902 957.564 280.708 954.022 Q282.537 950.457 282.537 943.351 Q282.537 936.221 280.708 932.679 Q278.902 929.115 275.268 929.115 M275.268 925.411 Q281.078 925.411 284.134 930.017 Q287.213 934.601 287.213 943.351 Q287.213 952.078 284.134 956.684 Q281.078 961.267 275.268 961.267 Q269.458 961.267 266.379 956.684 Q263.324 952.078 263.324 943.351 Q263.324 934.601 266.379 930.017 Q269.458 925.411 275.268 925.411 Z" fill="#000000" fill-rule="nonzero" fill-opacity="1" /><path clip-path="url(#clip200)" d="M221.843 785.925 L229.481 785.925 L229.481 759.56 L221.171 761.226 L221.171 756.967 L229.435 755.3 L234.111 755.3 L234.111 785.925 L241.75 785.925 L241.75 789.86 L221.843 789.86 L221.843 785.925 Z" fill="#000000" fill-rule="nonzero" fill-opacity="1" /><path clip-path="url(#clip200)" d="M251.194 783.981 L256.079 783.981 L256.079 789.86 L251.194 789.86 L251.194 783.981 Z" fill="#000000" fill-rule="nonzero" fill-opacity="1" /><path clip-path="url(#clip200)" d="M266.31 755.3 L284.666 755.3 L284.666 759.235 L270.592 759.235 L270.592 767.708 Q271.611 767.36 272.629 767.198 Q273.648 767.013 274.666 767.013 Q280.453 767.013 283.833 770.185 Q287.213 773.356 287.213 778.772 Q287.213 784.351 283.74 787.453 Q280.268 790.532 273.949 790.532 Q271.773 790.532 269.504 790.161 Q267.259 789.791 264.852 789.05 L264.852 784.351 Q266.935 785.485 269.157 786.041 Q271.379 786.596 273.856 786.596 Q277.861 786.596 280.199 784.49 Q282.537 782.384 282.537 778.772 Q282.537 775.161 280.199 773.055 Q277.861 770.948 273.856 770.948 Q271.981 770.948 270.106 771.365 Q268.254 771.782 266.31 772.661 L266.31 755.3 Z" fill="#000000" fill-rule="nonzero" fill-opacity="1" /><path clip-path="url(#clip200)" d="M224.065 615.189 L240.384 615.189 L240.384 619.125 L218.44 619.125 L218.44 615.189 Q221.102 612.435 225.685 607.805 Q230.292 603.152 231.472 601.81 Q233.718 599.287 234.597 597.551 Q235.5 595.791 235.5 594.102 Q235.5 591.347 233.555 589.611 Q231.634 587.875 228.532 587.875 Q226.333 587.875 223.88 588.639 Q221.449 589.403 218.671 590.953 L218.671 586.231 Q221.495 585.097 223.949 584.518 Q226.403 583.94 228.44 583.94 Q233.81 583.94 237.005 586.625 Q240.199 589.31 240.199 593.801 Q240.199 595.93 239.389 597.852 Q238.602 599.75 236.495 602.342 Q235.917 603.014 232.815 606.231 Q229.713 609.426 224.065 615.189 Z" fill="#000000" fill-rule="nonzero" fill-opacity="1" /><path clip-path="url(#clip200)" d="M250.199 613.245 L255.083 613.245 L255.083 619.125 L250.199 619.125 L250.199 613.245 Z" fill="#000000" fill-rule="nonzero" fill-opacity="1" /><path clip-path="url(#clip200)" d="M275.268 587.643 Q271.657 587.643 269.828 591.208 Q268.023 594.75 268.023 601.879 Q268.023 608.986 269.828 612.551 Q271.657 616.092 275.268 616.092 Q278.902 616.092 280.708 612.551 Q282.537 608.986 282.537 601.879 Q282.537 594.75 280.708 591.208 Q278.902 587.643 275.268 587.643 M275.268 583.94 Q281.078 583.94 284.134 588.546 Q287.213 593.129 287.213 601.879 Q287.213 610.606 284.134 615.213 Q281.078 619.796 275.268 619.796 Q269.458 619.796 266.379 615.213 Q263.324 610.606 263.324 601.879 Q263.324 593.129 266.379 588.546 Q269.458 583.94 275.268 583.94 Z" fill="#000000" fill-rule="nonzero" fill-opacity="1" /><path clip-path="url(#clip200)" d="M225.06 444.454 L241.38 444.454 L241.38 448.389 L219.435 448.389 L219.435 444.454 Q222.097 441.699 226.681 437.07 Q231.287 432.417 232.468 431.074 Q234.713 428.551 235.593 426.815 Q236.495 425.056 236.495 423.366 Q236.495 420.611 234.551 418.875 Q232.63 417.139 229.528 417.139 Q227.329 417.139 224.875 417.903 Q222.444 418.667 219.667 420.218 L219.667 415.496 Q222.491 414.361 224.944 413.783 Q227.398 413.204 229.435 413.204 Q234.805 413.204 238 415.889 Q241.194 418.574 241.194 423.065 Q241.194 425.195 240.384 427.116 Q239.597 429.014 237.491 431.607 Q236.912 432.278 233.81 435.495 Q230.708 438.69 225.06 444.454 Z" fill="#000000" fill-rule="nonzero" fill-opacity="1" /><path clip-path="url(#clip200)" d="M251.194 442.509 L256.079 442.509 L256.079 448.389 L251.194 448.389 L251.194 442.509 Z" fill="#000000" fill-rule="nonzero" fill-opacity="1" /><path clip-path="url(#clip200)" d="M266.31 413.829 L284.666 413.829 L284.666 417.764 L270.592 417.764 L270.592 426.236 Q271.611 425.889 272.629 425.727 Q273.648 425.542 274.666 425.542 Q280.453 425.542 283.833 428.713 Q287.213 431.884 287.213 437.301 Q287.213 442.88 283.74 445.982 Q280.268 449.06 273.949 449.06 Q271.773 449.06 269.504 448.69 Q267.259 448.319 264.852 447.579 L264.852 442.88 Q266.935 444.014 269.157 444.57 Q271.379 445.125 273.856 445.125 Q277.861 445.125 280.199 443.019 Q282.537 440.912 282.537 437.301 Q282.537 433.69 280.199 431.583 Q277.861 429.477 273.856 429.477 Q271.981 429.477 270.106 429.894 Q268.254 430.31 266.31 431.19 L266.31 413.829 Z" fill="#000000" fill-rule="nonzero" fill-opacity="1" /><path clip-path="url(#clip200)" d="M123.977 975.957 L130.756 975.957 Q127.733 979.203 126.237 982.895 Q124.741 986.555 124.741 990.693 Q124.741 998.841 129.738 1003.17 Q134.703 1007.5 144.124 1007.5 Q153.514 1007.5 158.511 1003.17 Q163.476 998.841 163.476 990.693 Q163.476 986.555 161.98 982.895 Q160.484 979.203 157.46 975.957 L164.176 975.957 Q166.468 979.33 167.614 983.118 Q168.76 986.874 168.76 991.075 Q168.76 1001.86 162.171 1008.07 Q155.551 1014.28 144.124 1014.28 Q132.666 1014.28 126.078 1008.07 Q119.457 1001.86 119.457 991.075 Q119.457 986.81 120.603 983.054 Q121.717 979.267 123.977 975.957 Z" fill="#000000" fill-rule="nonzero" fill-opacity="1" /><path clip-path="url(#clip200)" d="M125.6 959.597 L143.456 959.597 L143.456 951.512 Q143.456 947.024 141.132 944.574 Q138.809 942.123 134.512 942.123 Q130.247 942.123 127.924 944.574 Q125.6 947.024 125.6 951.512 L125.6 959.597 M120.317 966.026 L120.317 951.512 Q120.317 943.523 123.945 939.449 Q127.542 935.343 134.512 935.343 Q141.546 935.343 145.143 939.449 Q148.739 943.523 148.739 951.512 L148.739 959.597 L167.837 959.597 L167.837 966.026 L120.317 966.026 Z" fill="#000000" fill-rule="nonzero" fill-opacity="1" /><path clip-path="url(#clip200)" d="M120.317 927.45 L120.317 920.989 L149.185 920.989 Q156.824 920.989 160.198 918.22 Q163.54 915.451 163.54 909.244 Q163.54 903.069 160.198 900.3 Q156.824 897.531 149.185 897.531 L120.317 897.531 L120.317 891.07 L149.981 891.07 Q159.275 891.07 164.017 895.685 Q168.76 900.268 168.76 909.244 Q168.76 918.251 164.017 922.867 Q159.275 927.45 149.981 927.45 L120.317 927.45 Z" fill="#000000" fill-rule="nonzero" fill-opacity="1" /><path clip-path="url(#clip200)" d="M122.067 852.748 L132.189 852.748 L132.189 840.685 L136.74 840.685 L136.74 852.748 L156.092 852.748 Q160.452 852.748 161.694 851.571 Q162.935 850.361 162.935 846.701 L162.935 840.685 L167.837 840.685 L167.837 846.701 Q167.837 853.48 165.322 856.058 Q162.776 858.637 156.092 858.637 L136.74 858.637 L136.74 862.933 L132.189 862.933 L132.189 858.637 L122.067 858.637 L122.067 852.748 Z" fill="#000000" fill-rule="nonzero" fill-opacity="1" /><path clip-path="url(#clip200)" d="M132.189 832.983 L132.189 827.126 L167.837 827.126 L167.837 832.983 L132.189 832.983 M118.311 832.983 L118.311 827.126 L125.727 827.126 L125.727 832.983 L118.311 832.983 Z" fill="#000000" fill-rule="nonzero" fill-opacity="1" /><path clip-path="url(#clip200)" d="M139.032 787.118 Q135.085 784.922 133.207 781.866 Q131.329 778.811 131.329 774.673 Q131.329 769.103 135.244 766.079 Q139.127 763.055 146.321 763.055 L167.837 763.055 L167.837 768.944 L146.511 768.944 Q141.387 768.944 138.904 770.758 Q136.422 772.572 136.422 776.296 Q136.422 780.848 139.446 783.489 Q142.469 786.131 147.689 786.131 L167.837 786.131 L167.837 792.019 L146.511 792.019 Q141.355 792.019 138.904 793.834 Q136.422 795.648 136.422 799.436 Q136.422 803.923 139.477 806.565 Q142.501 809.207 147.689 809.207 L167.837 809.207 L167.837 815.095 L132.189 815.095 L132.189 809.207 L137.727 809.207 Q134.448 807.202 132.889 804.401 Q131.329 801.6 131.329 797.749 Q131.329 793.866 133.303 791.16 Q135.276 788.423 139.032 787.118 Z" fill="#000000" fill-rule="nonzero" fill-opacity="1" /><path clip-path="url(#clip200)" d="M148.549 720.883 L151.413 720.883 L151.413 747.81 Q157.46 747.428 160.643 744.181 Q163.794 740.903 163.794 735.078 Q163.794 731.704 162.967 728.553 Q162.139 725.371 160.484 722.251 L166.022 722.251 Q167.359 725.402 168.059 728.713 Q168.76 732.023 168.76 735.428 Q168.76 743.958 163.794 748.955 Q158.829 753.921 150.363 753.921 Q141.61 753.921 136.485 749.21 Q131.329 744.468 131.329 736.447 Q131.329 729.254 135.976 725.084 Q140.591 720.883 148.549 720.883 M146.83 726.739 Q142.024 726.803 139.159 729.445 Q136.295 732.055 136.295 736.383 Q136.295 741.285 139.064 744.245 Q141.833 747.173 146.862 747.619 L146.83 726.739 Z" fill="#000000" fill-rule="nonzero" fill-opacity="1" /><path clip-path="url(#clip200)" d="M118.375 676.482 Q125.696 680.747 132.857 682.816 Q140.018 684.885 147.371 684.885 Q154.723 684.885 161.948 682.816 Q169.142 680.715 176.43 676.482 L176.43 681.574 Q168.951 686.349 161.726 688.736 Q154.5 691.091 147.371 691.091 Q140.273 691.091 133.08 688.736 Q125.887 686.381 118.375 681.574 L118.375 676.482 Z" fill="#000000" fill-rule="nonzero" fill-opacity="1" /><path clip-path="url(#clip200)" d="M139.032 637.365 Q135.085 635.168 133.207 632.113 Q131.329 629.057 131.329 624.92 Q131.329 619.35 135.244 616.326 Q139.127 613.302 146.321 613.302 L167.837 613.302 L167.837 619.191 L146.511 619.191 Q141.387 619.191 138.904 621.005 Q136.422 622.819 136.422 626.543 Q136.422 631.094 139.446 633.736 Q142.469 636.378 147.689 636.378 L167.837 636.378 L167.837 642.266 L146.511 642.266 Q141.355 642.266 138.904 644.08 Q136.422 645.895 136.422 649.682 Q136.422 654.17 139.477 656.812 Q142.501 659.454 147.689 659.454 L167.837 659.454 L167.837 665.342 L132.189 665.342 L132.189 659.454 L137.727 659.454 Q134.448 657.448 132.889 654.648 Q131.329 651.847 131.329 647.995 Q131.329 644.112 133.303 641.407 Q135.276 638.67 139.032 637.365 Z" fill="#000000" fill-rule="nonzero" fill-opacity="1" /><path clip-path="url(#clip200)" d="M133.239 578.896 L138.777 578.896 Q137.504 581.378 136.867 584.052 Q136.231 586.725 136.231 589.59 Q136.231 593.95 137.568 596.147 Q138.904 598.311 141.578 598.311 Q143.615 598.311 144.793 596.751 Q145.939 595.192 146.989 590.481 L147.435 588.476 Q148.771 582.238 151.222 579.628 Q153.641 576.986 158.002 576.986 Q162.967 576.986 165.863 580.933 Q168.76 584.848 168.76 591.723 Q168.76 594.587 168.187 597.706 Q167.646 600.794 166.532 604.231 L160.484 604.231 Q162.171 600.985 163.03 597.834 Q163.858 594.683 163.858 591.595 Q163.858 587.457 162.458 585.229 Q161.025 583.001 158.447 583.001 Q156.06 583.001 154.787 584.625 Q153.514 586.216 152.336 591.659 L151.859 593.696 Q150.713 599.139 148.358 601.558 Q145.97 603.976 141.833 603.976 Q136.804 603.976 134.067 600.412 Q131.329 596.847 131.329 590.29 Q131.329 587.044 131.807 584.179 Q132.284 581.315 133.239 578.896 Z" fill="#000000" fill-rule="nonzero" fill-opacity="1" /><path clip-path="url(#clip200)" d="M118.375 568.583 L118.375 563.491 Q125.887 558.716 133.08 556.361 Q140.273 553.974 147.371 553.974 Q154.5 553.974 161.726 556.361 Q168.951 558.716 176.43 563.491 L176.43 568.583 Q169.142 564.35 161.948 562.281 Q154.723 560.18 147.371 560.18 Q140.018 560.18 132.857 562.281 Q125.696 564.35 118.375 568.583 Z" fill="#000000" fill-rule="nonzero" fill-opacity="1" /><path clip-path="url(#clip200)" d="M1119.37 93.744 L1096.28 33.264 L1104.82 33.264 L1123.98 84.1839 L1143.19 33.264 L1151.69 33.264 L1128.64 93.744 L1119.37 93.744 Z" fill="#000000" fill-rule="nonzero" fill-opacity="1" /><path clip-path="url(#clip200)" d="M1158.38 48.3739 L1165.83 48.3739 L1165.83 93.744 L1158.38 93.744 L1158.38 48.3739 M1158.38 30.7119 L1165.83 30.7119 L1165.83 40.1505 L1158.38 40.1505 L1158.38 30.7119 Z" fill="#000000" fill-rule="nonzero" fill-opacity="1" /><path clip-path="url(#clip200)" d="M1188.8 35.492 L1188.8 48.3739 L1204.15 48.3739 L1204.15 54.1667 L1188.8 54.1667 L1188.8 78.7962 Q1188.8 84.3459 1190.3 85.9258 Q1191.84 87.5056 1196.5 87.5056 L1204.15 87.5056 L1204.15 93.744 L1196.5 93.744 Q1187.87 93.744 1184.59 90.5438 Q1181.3 87.3031 1181.3 78.7962 L1181.3 54.1667 L1175.84 54.1667 L1175.84 48.3739 L1181.3 48.3739 L1181.3 35.492 L1188.8 35.492 Z" fill="#000000" fill-rule="nonzero" fill-opacity="1" /><path clip-path="url(#clip200)" d="M1252.76 69.1955 L1252.76 72.8413 L1218.49 72.8413 Q1218.98 80.5381 1223.11 84.589 Q1227.28 88.5994 1234.7 88.5994 Q1238.99 88.5994 1243 87.5461 Q1247.05 86.4929 1251.02 84.3864 L1251.02 91.435 Q1247.01 93.1364 1242.8 94.0276 Q1238.58 94.9188 1234.25 94.9188 Q1223.39 94.9188 1217.03 88.5994 Q1210.71 82.2799 1210.71 71.5045 Q1210.71 60.3645 1216.71 53.8426 Q1222.75 47.2801 1232.95 47.2801 Q1242.11 47.2801 1247.42 53.1944 Q1252.76 59.0683 1252.76 69.1955 M1245.31 67.008 Q1245.23 60.8912 1241.87 57.2454 Q1238.54 53.5995 1233.03 53.5995 Q1226.8 53.5995 1223.03 57.1238 Q1219.3 60.6481 1218.73 67.0485 L1245.31 67.008 Z" fill="#000000" fill-rule="nonzero" fill-opacity="1" /><path clip-path="url(#clip200)" d="M1291.29 55.3414 Q1290.03 54.6123 1288.53 54.2882 Q1287.07 53.9236 1285.29 53.9236 Q1278.97 53.9236 1275.57 58.0555 Q1272.21 62.1469 1272.21 69.8437 L1272.21 93.744 L1264.71 93.744 L1264.71 48.3739 L1272.21 48.3739 L1272.21 55.4224 Q1274.56 51.2905 1278.32 49.3056 Q1282.09 47.2801 1287.48 47.2801 Q1288.25 47.2801 1289.18 47.4017 Q1290.11 47.4827 1291.25 47.6852 L1291.29 55.3414 Z" fill="#000000" fill-rule="nonzero" fill-opacity="1" /><path clip-path="url(#clip200)" d="M1331.67 71.0994 Q1331.67 62.8761 1328.27 58.2176 Q1324.91 53.5185 1318.99 53.5185 Q1313.08 53.5185 1309.68 58.2176 Q1306.32 62.8761 1306.32 71.0994 Q1306.32 79.3228 1309.68 84.0218 Q1313.08 88.6804 1318.99 88.6804 Q1324.91 88.6804 1328.27 84.0218 Q1331.67 79.3228 1331.67 71.0994 M1306.32 55.2604 Q1308.66 51.2095 1312.23 49.2651 Q1315.83 47.2801 1320.82 47.2801 Q1329.08 47.2801 1334.23 53.8426 Q1339.41 60.4051 1339.41 71.0994 Q1339.41 81.7938 1334.23 88.3563 Q1329.08 94.9188 1320.82 94.9188 Q1315.83 94.9188 1312.23 92.9743 Q1308.66 90.9894 1306.32 86.9385 L1306.32 93.744 L1298.82 93.744 L1298.82 30.7119 L1306.32 30.7119 L1306.32 55.2604 Z" fill="#000000" fill-rule="nonzero" fill-opacity="1" /><path clip-path="url(#clip200)" d="M1351.77 48.3739 L1359.22 48.3739 L1359.22 93.744 L1351.77 93.744 L1351.77 48.3739 M1351.77 30.7119 L1359.22 30.7119 L1359.22 40.1505 L1351.77 40.1505 L1351.77 30.7119 Z" fill="#000000" fill-rule="nonzero" fill-opacity="1" /><path clip-path="url(#clip200)" d="M847.631 121.513 Q842.203 130.83 839.57 139.945 Q836.937 149.059 836.937 158.417 Q836.937 167.774 839.57 176.97 Q842.244 186.125 847.631 195.401 L841.15 195.401 Q835.074 185.882 832.035 176.686 Q829.038 167.491 829.038 158.417 Q829.038 149.383 832.035 140.228 Q835.033 131.073 841.15 121.513 L847.631 121.513 Z" fill="#000000" fill-rule="nonzero" fill-opacity="1" /><path clip-path="url(#clip200)" d="M870.6 130.709 L870.6 177.739 L880.484 177.739 Q893.002 177.739 898.794 172.068 Q904.628 166.397 904.628 154.163 Q904.628 142.011 898.794 136.38 Q893.002 130.709 880.484 130.709 L870.6 130.709 M862.417 123.984 L879.228 123.984 Q896.809 123.984 905.033 131.316 Q913.256 138.608 913.256 154.163 Q913.256 169.8 904.992 177.132 Q896.728 184.464 879.228 184.464 L862.417 184.464 L862.417 123.984 Z" fill="#000000" fill-rule="nonzero" fill-opacity="1" /><path clip-path="url(#clip200)" d="M926.948 146.791 L978.881 146.791 L978.881 153.596 L926.948 153.596 L926.948 146.791 M926.948 163.318 L978.881 163.318 L978.881 170.205 L926.948 170.205 L926.948 163.318 Z" fill="#000000" fill-rule="nonzero" fill-opacity="1" /><path clip-path="url(#clip200)" d="M997.96 177.577 L1011.33 177.577 L1011.33 131.438 L996.786 134.354 L996.786 126.901 L1011.25 123.984 L1019.43 123.984 L1019.43 177.577 L1032.8 177.577 L1032.8 184.464 L997.96 184.464 L997.96 177.577 Z" fill="#000000" fill-rule="nonzero" fill-opacity="1" /><path clip-path="url(#clip200)" d="M1050.18 174.175 L1058.72 174.175 L1058.72 181.142 L1052.08 194.105 L1046.85 194.105 L1050.18 181.142 L1050.18 174.175 Z" fill="#000000" fill-rule="nonzero" fill-opacity="1" /><path clip-path="url(#clip200)" d="M1066.58 123.984 L1117.75 123.984 L1117.75 130.871 L1096.28 130.871 L1096.28 184.464 L1088.05 184.464 L1088.05 130.871 L1066.58 130.871 L1066.58 123.984 Z" fill="#000000" fill-rule="nonzero" fill-opacity="1" /><path clip-path="url(#clip200)" d="M1126.29 146.791 L1178.23 146.791 L1178.23 153.596 L1126.29 153.596 L1126.29 146.791 M1126.29 163.318 L1178.23 163.318 L1178.23 170.205 L1126.29 170.205 L1126.29 163.318 Z" fill="#000000" fill-rule="nonzero" fill-opacity="1" /><path clip-path="url(#clip200)" d="M1197.31 177.577 L1210.67 177.577 L1210.67 131.438 L1196.13 134.354 L1196.13 126.901 L1210.59 123.984 L1218.78 123.984 L1218.78 177.577 L1232.14 177.577 L1232.14 184.464 L1197.31 184.464 L1197.31 177.577 Z" fill="#000000" fill-rule="nonzero" fill-opacity="1" /><path clip-path="url(#clip200)" d="M1266.17 129.372 Q1259.85 129.372 1256.65 135.61 Q1253.49 141.808 1253.49 154.285 Q1253.49 166.721 1256.65 172.959 Q1259.85 179.157 1266.17 179.157 Q1272.53 179.157 1275.69 172.959 Q1278.89 166.721 1278.89 154.285 Q1278.89 141.808 1275.69 135.61 Q1272.53 129.372 1266.17 129.372 M1266.17 122.89 Q1276.34 122.89 1281.69 130.952 Q1287.07 138.972 1287.07 154.285 Q1287.07 169.557 1281.69 177.618 Q1276.34 185.639 1266.17 185.639 Q1256 185.639 1250.62 177.618 Q1245.27 169.557 1245.27 154.285 Q1245.27 138.972 1250.62 130.952 Q1256 122.89 1266.17 122.89 Z" fill="#000000" fill-rule="nonzero" fill-opacity="1" /><path clip-path="url(#clip200)" d="M1318.95 129.372 Q1312.63 129.372 1309.43 135.61 Q1306.27 141.808 1306.27 154.285 Q1306.27 166.721 1309.43 172.959 Q1312.63 179.157 1318.95 179.157 Q1325.31 179.157 1328.47 172.959 Q1331.67 166.721 1331.67 154.285 Q1331.67 141.808 1328.47 135.61 Q1325.31 129.372 1318.95 129.372 M1318.95 122.89 Q1329.12 122.89 1334.47 130.952 Q1339.86 138.972 1339.86 154.285 Q1339.86 169.557 1334.47 177.618 Q1329.12 185.639 1318.95 185.639 Q1308.79 185.639 1303.4 177.618 Q1298.05 169.557 1298.05 154.285 Q1298.05 138.972 1303.4 130.952 Q1308.79 122.89 1318.95 122.89 Z" fill="#000000" fill-rule="nonzero" fill-opacity="1" /><path clip-path="url(#clip200)" d="M1371.74 129.372 Q1365.42 129.372 1362.22 135.61 Q1359.06 141.808 1359.06 154.285 Q1359.06 166.721 1362.22 172.959 Q1365.42 179.157 1371.74 179.157 Q1378.1 179.157 1381.26 172.959 Q1384.46 166.721 1384.46 154.285 Q1384.46 141.808 1381.26 135.61 Q1378.1 129.372 1371.74 129.372 M1371.74 122.89 Q1381.91 122.89 1387.25 130.952 Q1392.64 138.972 1392.64 154.285 Q1392.64 169.557 1387.25 177.618 Q1381.91 185.639 1371.74 185.639 Q1361.57 185.639 1356.18 177.618 Q1350.83 169.557 1350.83 154.285 Q1350.83 138.972 1356.18 130.952 Q1361.57 122.89 1371.74 122.89 Z" fill="#000000" fill-rule="nonzero" fill-opacity="1" /><path clip-path="url(#clip200)" d="M1407.87 174.175 L1416.42 174.175 L1416.42 181.142 L1409.78 194.105 L1404.55 194.105 L1407.87 181.142 L1407.87 174.175 Z" fill="#000000" fill-rule="nonzero" fill-opacity="1" /><path clip-path="url(#clip200)" d="M1432.66 123.984 L1440.85 123.984 L1440.85 149.545 L1467.99 123.984 L1478.52 123.984 L1448.5 152.178 L1480.67 184.464 L1469.89 184.464 L1440.85 155.338 L1440.85 184.464 L1432.66 184.464 L1432.66 123.984 Z" fill="#000000" fill-rule="nonzero" fill-opacity="1" /><path clip-path="url(#clip200)" d="M1487.71 146.791 L1539.65 146.791 L1539.65 153.596 L1487.71 153.596 L1487.71 146.791 M1487.71 163.318 L1539.65 163.318 L1539.65 170.205 L1487.71 170.205 L1487.71 163.318 Z" fill="#000000" fill-rule="nonzero" fill-opacity="1" /><path clip-path="url(#clip200)" d="M1558.73 177.577 L1572.1 177.577 L1572.1 131.438 L1557.55 134.354 L1557.55 126.901 L1572.01 123.984 L1580.2 123.984 L1580.2 177.577 L1593.56 177.577 L1593.56 184.464 L1558.73 184.464 L1558.73 177.577 Z" fill="#000000" fill-rule="nonzero" fill-opacity="1" /><path clip-path="url(#clip200)" d="M1607.86 121.513 L1614.35 121.513 Q1620.42 131.073 1623.42 140.228 Q1626.46 149.383 1626.46 158.417 Q1626.46 167.491 1623.42 176.686 Q1620.42 185.882 1614.35 195.401 L1607.86 195.401 Q1613.25 186.125 1615.89 176.97 Q1618.56 167.774 1618.56 158.417 Q1618.56 149.059 1615.89 139.945 Q1613.25 130.83 1607.86 121.513 Z" fill="#000000" fill-rule="nonzero" fill-opacity="1" /><polyline clip-path="url(#clip202)" style="stroke:#ffa500; stroke-linecap:round; stroke-linejoin:round; stroke-width:6; stroke-opacity:1; fill:none" stroke-dasharray="24, 15" points="413.666,1194.32 685.027,1058.03 956.387,909.491 1227.75,758.633 1499.11,615.145 1770.47,448.232 2041.83,283.465 "/>
<path clip-path="url(#clip202)" d="M397.666 1178.32 L397.666 1210.32 L429.666 1210.32 L429.666 1178.32 L397.666 1178.32 Z" fill="#ffa500" fill-rule="evenodd" fill-opacity="1" stroke="#000000" stroke-opacity="1" stroke-width="3.2"/>
<path clip-path="url(#clip202)" d="M669.027 1042.03 L669.027 1074.03 L701.027 1074.03 L701.027 1042.03 L669.027 1042.03 Z" fill="#ffa500" fill-rule="evenodd" fill-opacity="1" stroke="#000000" stroke-opacity="1" stroke-width="3.2"/>
<path clip-path="url(#clip202)" d="M940.387 893.491 L940.387 925.491 L972.387 925.491 L972.387 893.491 L940.387 893.491 Z" fill="#ffa500" fill-rule="evenodd" fill-opacity="1" stroke="#000000" stroke-opacity="1" stroke-width="3.2"/>
<path clip-path="url(#clip202)" d="M1211.75 742.633 L1211.75 774.633 L1243.75 774.633 L1243.75 742.633 L1211.75 742.633 Z" fill="#ffa500" fill-rule="evenodd" fill-opacity="1" stroke="#000000" stroke-opacity="1" stroke-width="3.2"/>
<path clip-path="url(#clip202)" d="M1483.11 599.145 L1483.11 631.145 L1515.11 631.145 L1515.11 599.145 L1483.11 599.145 Z" fill="#ffa500" fill-rule="evenodd" fill-opacity="1" stroke="#000000" stroke-opacity="1" stroke-width="3.2"/>
<path clip-path="url(#clip202)" d="M1754.47 432.232 L1754.47 464.232 L1786.47 464.232 L1786.47 432.232 L1754.47 432.232 Z" fill="#ffa500" fill-rule="evenodd" fill-opacity="1" stroke="#000000" stroke-opacity="1" stroke-width="3.2"/>
<path clip-path="url(#clip202)" d="M2025.83 267.465 L2025.83 299.465 L2057.83 299.465 L2057.83 267.465 L2025.83 267.465 Z" fill="#ffa500" fill-rule="evenodd" fill-opacity="1" stroke="#000000" stroke-opacity="1" stroke-width="3.2"/>
<polyline clip-path="url(#clip202)" style="stroke:#0000ff; stroke-linecap:round; stroke-linejoin:round; stroke-width:6; stroke-opacity:1; fill:none" points="413.666,1259.37 685.027,1222.84 956.387,1164.9 1227.75,1098.38 1499.11,1024.2 1770.47,952.851 2041.83,861.363 "/>
<circle clip-path="url(#clip202)" cx="413.666" cy="1259.37" r="14.4" fill="#0000ff" fill-rule="evenodd" fill-opacity="1" stroke="#000000" stroke-opacity="1" stroke-width="3.2"/>
<circle clip-path="url(#clip202)" cx="685.027" cy="1222.84" r="14.4" fill="#0000ff" fill-rule="evenodd" fill-opacity="1" stroke="#000000" stroke-opacity="1" stroke-width="3.2"/>
<circle clip-path="url(#clip202)" cx="956.387" cy="1164.9" r="14.4" fill="#0000ff" fill-rule="evenodd" fill-opacity="1" stroke="#000000" stroke-opacity="1" stroke-width="3.2"/>
<circle clip-path="url(#clip202)" cx="1227.75" cy="1098.38" r="14.4" fill="#0000ff" fill-rule="evenodd" fill-opacity="1" stroke="#000000" stroke-opacity="1" stroke-width="3.2"/>
<circle clip-path="url(#clip202)" cx="1499.11" cy="1024.2" r="14.4" fill="#0000ff" fill-rule="evenodd" fill-opacity="1" stroke="#000000" stroke-opacity="1" stroke-width="3.2"/>
<circle clip-path="url(#clip202)" cx="1770.47" cy="952.851" r="14.4" fill="#0000ff" fill-rule="evenodd" fill-opacity="1" stroke="#000000" stroke-opacity="1" stroke-width="3.2"/>
<circle clip-path="url(#clip202)" cx="2041.83" cy="861.363" r="14.4" fill="#0000ff" fill-rule="evenodd" fill-opacity="1" stroke="#000000" stroke-opacity="1" stroke-width="3.2"/>
<polyline clip-path="url(#clip202)" style="stroke:#008000; stroke-linecap:round; stroke-linejoin:round; stroke-width:6; stroke-opacity:1; fill:none" stroke-dasharray="24, 12, 3, 12" points="413.666,1264.48 685.027,1253.42 956.387,1238.25 1227.75,1218.93 1499.11,1194.16 1770.47,1170.99 2041.83,1140.67 "/>
<path clip-path="url(#clip202)" d="M429.666 1248.48 L397.666 1248.48 L413.666 1280.48 L429.666 1248.48 Z" fill="#008000" fill-rule="evenodd" fill-opacity="1" stroke="#000000" stroke-opacity="1" stroke-width="3.2"/>
<path clip-path="url(#clip202)" d="M701.027 1237.42 L669.027 1237.42 L685.027 1269.42 L701.027 1237.42 Z" fill="#008000" fill-rule="evenodd" fill-opacity="1" stroke="#000000" stroke-opacity="1" stroke-width="3.2"/>
<path clip-path="url(#clip202)" d="M972.387 1222.25 L940.387 1222.25 L956.387 1254.25 L972.387 1222.25 Z" fill="#008000" fill-rule="evenodd" fill-opacity="1" stroke="#000000" stroke-opacity="1" stroke-width="3.2"/>
<path clip-path="url(#clip202)" d="M1243.75 1202.93 L1211.75 1202.93 L1227.75 1234.93 L1243.75 1202.93 Z" fill="#008000" fill-rule="evenodd" fill-opacity="1" stroke="#000000" stroke-opacity="1" stroke-width="3.2"/>
<path clip-path="url(#clip202)" d="M1515.11 1178.16 L1483.11 1178.16 L1499.11 1210.16 L1515.11 1178.16 Z" fill="#008000" fill-rule="evenodd" fill-opacity="1" stroke="#000000" stroke-opacity="1" stroke-width="3.2"/>
<path clip-path="url(#clip202)" d="M1786.47 1154.99 L1754.47 1154.99 L1770.47 1186.99 L1786.47 1154.99 Z" fill="#008000" fill-rule="evenodd" fill-opacity="1" stroke="#000000" stroke-opacity="1" stroke-width="3.2"/>
<path clip-path="url(#clip202)" d="M2057.83 1124.67 L2025.83 1124.67 L2041.83 1156.67 L2057.83 1124.67 Z" fill="#008000" fill-rule="evenodd" fill-opacity="1" stroke="#000000" stroke-opacity="1" stroke-width="3.2"/>
<path clip-path="url(#clip200)" d="M383.515 524.202 L829.629 524.202 L829.629 316.842 L383.515 316.842  Z" fill="#ffffff" fill-rule="evenodd" fill-opacity="1"/>
<polyline clip-path="url(#clip200)" style="stroke:#000000; stroke-linecap:round; stroke-linejoin:round; stroke-width:4; stroke-opacity:1; fill:none" points="383.515,524.202 829.629,524.202 829.629,316.842 383.515,316.842 383.515,524.202 "/>
<polyline clip-path="url(#clip200)" style="stroke:#ffa500; stroke-linecap:round; stroke-linejoin:round; stroke-width:6; stroke-opacity:1; fill:none" stroke-dasharray="24, 15" points="403.616,368.682 524.22,368.682 "/>
<path clip-path="url(#clip200)" d="M445.306 350.07 L445.306 387.294 L482.53 387.294 L482.53 350.07 L445.306 350.07 Z" fill="#ffa500" fill-rule="evenodd" fill-opacity="1" stroke="#000000" stroke-opacity="1" stroke-width="4.55111"/>
<path clip-path="url(#clip200)" d="M544.321 351.402 L548.997 351.402 L548.997 365.569 L565.988 365.569 L565.988 351.402 L570.664 351.402 L570.664 385.962 L565.988 385.962 L565.988 369.504 L548.997 369.504 L548.997 385.962 L544.321 385.962 L544.321 351.402 Z" fill="#000000" fill-rule="nonzero" fill-opacity="1" /><path clip-path="url(#clip200)" d="M579.969 351.402 L586.937 351.402 L595.756 374.92 L604.622 351.402 L611.589 351.402 L611.589 385.962 L607.029 385.962 L607.029 355.615 L598.117 379.319 L593.418 379.319 L584.506 355.615 L584.506 385.962 L579.969 385.962 L579.969 351.402 Z" fill="#000000" fill-rule="nonzero" fill-opacity="1" /><path clip-path="url(#clip200)" d="M620.872 351.402 L627.839 351.402 L636.659 374.92 L645.524 351.402 L652.492 351.402 L652.492 385.962 L647.932 385.962 L647.932 355.615 L639.02 379.319 L634.321 379.319 L625.409 355.615 L625.409 385.962 L620.872 385.962 L620.872 351.402 Z" fill="#000000" fill-rule="nonzero" fill-opacity="1" /><path clip-path="url(#clip200)" d="M666.45 369.457 L666.45 382.119 L673.95 382.119 Q677.723 382.119 679.529 380.569 Q681.358 378.994 681.358 375.777 Q681.358 372.536 679.529 371.008 Q677.723 369.457 673.95 369.457 L666.45 369.457 M666.45 355.245 L666.45 365.661 L673.371 365.661 Q676.797 365.661 678.464 364.388 Q680.154 363.092 680.154 360.453 Q680.154 357.837 678.464 356.541 Q676.797 355.245 673.371 355.245 L666.45 355.245 M661.774 351.402 L673.719 351.402 Q679.066 351.402 681.959 353.624 Q684.853 355.846 684.853 359.944 Q684.853 363.115 683.371 364.99 Q681.89 366.865 679.02 367.328 Q682.469 368.069 684.367 370.43 Q686.288 372.768 686.288 376.286 Q686.288 380.916 683.14 383.439 Q679.992 385.962 674.182 385.962 L661.774 385.962 L661.774 351.402 Z" fill="#000000" fill-rule="nonzero" fill-opacity="1" /><path clip-path="url(#clip200)" d="M705.894 372.93 Q700.732 372.93 698.742 374.11 Q696.751 375.291 696.751 378.138 Q696.751 380.406 698.232 381.749 Q699.737 383.068 702.307 383.068 Q705.848 383.068 707.978 380.569 Q710.131 378.045 710.131 373.879 L710.131 372.93 L705.894 372.93 M714.39 371.17 L714.39 385.962 L710.131 385.962 L710.131 382.027 Q708.672 384.388 706.496 385.522 Q704.32 386.633 701.172 386.633 Q697.191 386.633 694.83 384.411 Q692.492 382.166 692.492 378.416 Q692.492 374.041 695.408 371.819 Q698.348 369.596 704.158 369.596 L710.131 369.596 L710.131 369.18 Q710.131 366.24 708.186 364.643 Q706.265 363.022 702.769 363.022 Q700.547 363.022 698.441 363.555 Q696.334 364.087 694.39 365.152 L694.39 361.217 Q696.728 360.314 698.927 359.874 Q701.126 359.411 703.209 359.411 Q708.834 359.411 711.612 362.328 Q714.39 365.245 714.39 371.17 Z" fill="#000000" fill-rule="nonzero" fill-opacity="1" /><path clip-path="url(#clip200)" d="M739.691 360.8 L739.691 364.828 Q737.885 363.902 735.941 363.439 Q733.996 362.976 731.913 362.976 Q728.742 362.976 727.144 363.948 Q725.57 364.92 725.57 366.865 Q725.57 368.346 726.705 369.203 Q727.839 370.036 731.265 370.8 L732.723 371.124 Q737.26 372.096 739.158 373.879 Q741.079 375.638 741.079 378.809 Q741.079 382.42 738.209 384.527 Q735.362 386.633 730.362 386.633 Q728.279 386.633 726.01 386.217 Q723.765 385.823 721.265 385.013 L721.265 380.615 Q723.626 381.842 725.918 382.467 Q728.209 383.068 730.455 383.068 Q733.464 383.068 735.084 382.05 Q736.704 381.008 736.704 379.133 Q736.704 377.397 735.524 376.471 Q734.367 375.545 730.408 374.689 L728.927 374.342 Q724.968 373.508 723.209 371.795 Q721.45 370.059 721.45 367.05 Q721.45 363.393 724.043 361.402 Q726.635 359.411 731.404 359.411 Q733.765 359.411 735.848 359.758 Q737.931 360.106 739.691 360.8 Z" fill="#000000" fill-rule="nonzero" fill-opacity="1" /><path clip-path="url(#clip200)" d="M770.038 371.934 L770.038 374.018 L750.454 374.018 Q750.732 378.416 753.093 380.731 Q755.478 383.022 759.714 383.022 Q762.167 383.022 764.459 382.42 Q766.774 381.818 769.042 380.615 L769.042 384.643 Q766.751 385.615 764.343 386.124 Q761.936 386.633 759.459 386.633 Q753.255 386.633 749.621 383.022 Q746.01 379.411 746.01 373.254 Q746.01 366.888 749.436 363.161 Q752.885 359.411 758.718 359.411 Q763.95 359.411 766.982 362.791 Q770.038 366.147 770.038 371.934 M765.778 370.684 Q765.732 367.189 763.811 365.106 Q761.913 363.022 758.765 363.022 Q755.2 363.022 753.047 365.036 Q750.917 367.05 750.593 370.707 L765.778 370.684 Z" fill="#000000" fill-rule="nonzero" fill-opacity="1" /><path clip-path="url(#clip200)" d="M777.63 380.082 L782.514 380.082 L782.514 385.962 L777.63 385.962 L777.63 380.082 Z" fill="#000000" fill-rule="nonzero" fill-opacity="1" /><path clip-path="url(#clip200)" d="M792.098 360.036 L796.357 360.036 L796.357 386.425 Q796.357 391.379 794.459 393.601 Q792.584 395.823 788.394 395.823 L786.774 395.823 L786.774 392.212 L787.908 392.212 Q790.338 392.212 791.218 391.078 Q792.098 389.967 792.098 386.425 L792.098 360.036 M792.098 349.944 L796.357 349.944 L796.357 355.337 L792.098 355.337 L792.098 349.944 Z" fill="#000000" fill-rule="nonzero" fill-opacity="1" /><path clip-path="url(#clip200)" d="M805.269 349.944 L809.528 349.944 L809.528 385.962 L805.269 385.962 L805.269 349.944 Z" fill="#000000" fill-rule="nonzero" fill-opacity="1" /><polyline clip-path="url(#clip200)" style="stroke:#0000ff; stroke-linecap:round; stroke-linejoin:round; stroke-width:6; stroke-opacity:1; fill:none" points="403.616,420.522 524.22,420.522 "/>
<circle clip-path="url(#clip200)" cx="463.918" cy="420.522" r="16.7507" fill="#0000ff" fill-rule="evenodd" fill-opacity="1" stroke="#000000" stroke-opacity="1" stroke-width="4.55111"/>
<path clip-path="url(#clip200)" d="M544.321 403.242 L548.997 403.242 L548.997 417.409 L565.988 417.409 L565.988 403.242 L570.664 403.242 L570.664 437.802 L565.988 437.802 L565.988 421.344 L548.997 421.344 L548.997 437.802 L544.321 437.802 L544.321 403.242 Z" fill="#000000" fill-rule="nonzero" fill-opacity="1" /><path clip-path="url(#clip200)" d="M579.969 403.242 L586.937 403.242 L595.756 426.76 L604.622 403.242 L611.589 403.242 L611.589 437.802 L607.029 437.802 L607.029 407.455 L598.117 431.159 L593.418 431.159 L584.506 407.455 L584.506 437.802 L579.969 437.802 L579.969 403.242 Z" fill="#000000" fill-rule="nonzero" fill-opacity="1" /><path clip-path="url(#clip200)" d="M620.872 403.242 L627.839 403.242 L636.659 426.76 L645.524 403.242 L652.492 403.242 L652.492 437.802 L647.932 437.802 L647.932 407.455 L639.02 431.159 L634.321 431.159 L625.409 407.455 L625.409 437.802 L620.872 437.802 L620.872 403.242 Z" fill="#000000" fill-rule="nonzero" fill-opacity="1" /><path clip-path="url(#clip200)" d="M678.117 412.64 L678.117 416.668 Q676.311 415.742 674.367 415.279 Q672.422 414.816 670.339 414.816 Q667.168 414.816 665.571 415.788 Q663.997 416.76 663.997 418.705 Q663.997 420.186 665.131 421.043 Q666.265 421.876 669.691 422.64 L671.149 422.964 Q675.686 423.936 677.584 425.719 Q679.506 427.478 679.506 430.649 Q679.506 434.26 676.635 436.367 Q673.788 438.473 668.788 438.473 Q666.705 438.473 664.436 438.057 Q662.191 437.663 659.691 436.853 L659.691 432.455 Q662.052 433.682 664.344 434.307 Q666.635 434.908 668.881 434.908 Q671.89 434.908 673.51 433.89 Q675.131 432.848 675.131 430.973 Q675.131 429.237 673.95 428.311 Q672.793 427.385 668.834 426.529 L667.353 426.182 Q663.395 425.348 661.635 423.635 Q659.876 421.899 659.876 418.89 Q659.876 415.233 662.469 413.242 Q665.061 411.251 669.83 411.251 Q672.191 411.251 674.274 411.598 Q676.358 411.946 678.117 412.64 Z" fill="#000000" fill-rule="nonzero" fill-opacity="1" /><path clip-path="url(#clip200)" d="M686.89 431.922 L691.774 431.922 L691.774 437.802 L686.89 437.802 L686.89 431.922 Z" fill="#000000" fill-rule="nonzero" fill-opacity="1" /><path clip-path="url(#clip200)" d="M701.357 411.876 L705.617 411.876 L705.617 438.265 Q705.617 443.219 703.719 445.441 Q701.844 447.663 697.654 447.663 L696.033 447.663 L696.033 444.052 L697.168 444.052 Q699.598 444.052 700.478 442.918 Q701.357 441.807 701.357 438.265 L701.357 411.876 M701.357 401.784 L705.617 401.784 L705.617 407.177 L701.357 407.177 L701.357 401.784 Z" fill="#000000" fill-rule="nonzero" fill-opacity="1" /><path clip-path="url(#clip200)" d="M714.529 401.784 L718.788 401.784 L718.788 437.802 L714.529 437.802 L714.529 401.784 Z" fill="#000000" fill-rule="nonzero" fill-opacity="1" /><polyline clip-path="url(#clip200)" style="stroke:#008000; stroke-linecap:round; stroke-linejoin:round; stroke-width:6; stroke-opacity:1; fill:none" stroke-dasharray="24, 12, 3, 12" points="403.616,472.362 524.22,472.362 "/>
<path clip-path="url(#clip200)" d="M482.53 453.75 L445.306 453.75 L463.918 490.974 L482.53 453.75 Z" fill="#008000" fill-rule="evenodd" fill-opacity="1" stroke="#000000" stroke-opacity="1" stroke-width="4.55111"/>
<path clip-path="url(#clip200)" d="M566.034 473.994 L566.034 489.642 L561.775 489.642 L561.775 474.133 Q561.775 470.452 560.34 468.624 Q558.905 466.795 556.034 466.795 Q552.585 466.795 550.594 468.994 Q548.604 471.193 548.604 474.989 L548.604 489.642 L544.321 489.642 L544.321 453.624 L548.604 453.624 L548.604 467.744 Q550.131 465.406 552.192 464.249 Q554.275 463.091 556.983 463.091 Q561.451 463.091 563.742 465.869 Q566.034 468.624 566.034 473.994 Z" fill="#000000" fill-rule="nonzero" fill-opacity="1" /><path clip-path="url(#clip200)" d="M594.715 468.693 Q596.312 465.823 598.534 464.457 Q600.756 463.091 603.765 463.091 Q607.816 463.091 610.015 465.938 Q612.214 468.762 612.214 473.994 L612.214 489.642 L607.932 489.642 L607.932 474.133 Q607.932 470.406 606.613 468.6 Q605.293 466.795 602.585 466.795 Q599.275 466.795 597.353 468.994 Q595.432 471.193 595.432 474.989 L595.432 489.642 L591.15 489.642 L591.15 474.133 Q591.15 470.383 589.83 468.6 Q588.511 466.795 585.756 466.795 Q582.492 466.795 580.571 469.017 Q578.65 471.216 578.65 474.989 L578.65 489.642 L574.367 489.642 L574.367 463.716 L578.65 463.716 L578.65 467.744 Q580.108 465.36 582.145 464.225 Q584.182 463.091 586.983 463.091 Q589.807 463.091 591.775 464.526 Q593.765 465.962 594.715 468.693 Z" fill="#000000" fill-rule="nonzero" fill-opacity="1" /><path clip-path="url(#clip200)" d="M640.895 468.693 Q642.492 465.823 644.714 464.457 Q646.936 463.091 649.946 463.091 Q653.997 463.091 656.196 465.938 Q658.395 468.762 658.395 473.994 L658.395 489.642 L654.112 489.642 L654.112 474.133 Q654.112 470.406 652.793 468.6 Q651.473 466.795 648.765 466.795 Q645.455 466.795 643.534 468.994 Q641.612 471.193 641.612 474.989 L641.612 489.642 L637.33 489.642 L637.33 474.133 Q637.33 470.383 636.011 468.6 Q634.691 466.795 631.937 466.795 Q628.673 466.795 626.751 469.017 Q624.83 471.216 624.83 474.989 L624.83 489.642 L620.548 489.642 L620.548 463.716 L624.83 463.716 L624.83 467.744 Q626.288 465.36 628.325 464.225 Q630.362 463.091 633.163 463.091 Q635.987 463.091 637.955 464.526 Q639.946 465.962 640.895 468.693 Z" fill="#000000" fill-rule="nonzero" fill-opacity="1" /><path clip-path="url(#clip200)" d="M666.89 453.624 L671.149 453.624 L671.149 489.642 L666.89 489.642 L666.89 453.624 Z" fill="#000000" fill-rule="nonzero" fill-opacity="1" /><path clip-path="url(#clip200)" d="M702.237 475.614 L702.237 477.698 L682.654 477.698 Q682.932 482.096 685.293 484.411 Q687.677 486.702 691.913 486.702 Q694.367 486.702 696.658 486.1 Q698.973 485.498 701.242 484.295 L701.242 488.323 Q698.95 489.295 696.543 489.804 Q694.135 490.313 691.658 490.313 Q685.455 490.313 681.821 486.702 Q678.209 483.091 678.209 476.934 Q678.209 470.568 681.635 466.841 Q685.084 463.091 690.918 463.091 Q696.149 463.091 699.182 466.471 Q702.237 469.827 702.237 475.614 M697.978 474.364 Q697.932 470.869 696.01 468.786 Q694.112 466.702 690.964 466.702 Q687.399 466.702 685.246 468.716 Q683.117 470.73 682.793 474.387 L697.978 474.364 Z" fill="#000000" fill-rule="nonzero" fill-opacity="1" /><path clip-path="url(#clip200)" d="M721.01 476.61 Q715.848 476.61 713.857 477.79 Q711.867 478.971 711.867 481.818 Q711.867 484.086 713.348 485.429 Q714.853 486.748 717.422 486.748 Q720.964 486.748 723.093 484.249 Q725.246 481.725 725.246 477.559 L725.246 476.61 L721.01 476.61 M729.505 474.85 L729.505 489.642 L725.246 489.642 L725.246 485.707 Q723.788 488.068 721.612 489.202 Q719.436 490.313 716.288 490.313 Q712.306 490.313 709.945 488.091 Q707.607 485.846 707.607 482.096 Q707.607 477.721 710.524 475.499 Q713.464 473.276 719.274 473.276 L725.246 473.276 L725.246 472.86 Q725.246 469.92 723.302 468.323 Q721.38 466.702 717.885 466.702 Q715.663 466.702 713.556 467.235 Q711.45 467.767 709.506 468.832 L709.506 464.897 Q711.844 463.994 714.043 463.554 Q716.242 463.091 718.325 463.091 Q723.95 463.091 726.728 466.008 Q729.505 468.925 729.505 474.85 Z" fill="#000000" fill-rule="nonzero" fill-opacity="1" /><path clip-path="url(#clip200)" d="M753.302 467.698 Q752.584 467.281 751.728 467.096 Q750.894 466.887 749.876 466.887 Q746.265 466.887 744.32 469.249 Q742.399 471.587 742.399 475.985 L742.399 489.642 L738.117 489.642 L738.117 463.716 L742.399 463.716 L742.399 467.744 Q743.741 465.383 745.894 464.249 Q748.047 463.091 751.126 463.091 Q751.566 463.091 752.098 463.161 Q752.63 463.207 753.278 463.323 L753.302 467.698 Z" fill="#000000" fill-rule="nonzero" fill-opacity="1" /><path clip-path="url(#clip200)" d="M778.487 473.994 L778.487 489.642 L774.227 489.642 L774.227 474.133 Q774.227 470.452 772.792 468.624 Q771.357 466.795 768.487 466.795 Q765.038 466.795 763.047 468.994 Q761.056 471.193 761.056 474.989 L761.056 489.642 L756.774 489.642 L756.774 463.716 L761.056 463.716 L761.056 467.744 Q762.584 465.406 764.644 464.249 Q766.727 463.091 769.436 463.091 Q773.903 463.091 776.195 465.869 Q778.487 468.624 778.487 473.994 Z" fill="#000000" fill-rule="nonzero" fill-opacity="1" /></svg>
