<?xml version="1.0" encoding="utf-8"?>
<svg xmlns="http://www.w3.org/2000/svg" xmlns:xlink="http://www.w3.org/1999/xlink" width="600" height="400" viewBox="0 0 2400 1600">
<defs>
  <clipPath id="clip530">
    <rect x="0" y="0" width="2400" height="1600"/>
  </clipPath>
</defs>
<path clip-path="url(#clip530)" d="M0 1600 L2400 1600 L2400 0 L0 0  Z" fill="#ffffff" fill-rule="evenodd" fill-opacity="1"/>
<defs>
  <clipPath id="clip531">
    <rect x="480" y="0" width="1681" height="1600"/>
  </clipPath>
</defs>
<path clip-path="url(#clip530)" d="M323.213 1284.79 L2132.28 1284.79 L2132.28 283.465 L323.213 283.465  Z" fill="#ffffff" fill-rule="evenodd" fill-opacity="1"/>
<defs>
  <clipPath id="clip532">
    <rect x="323" y="283" width="1810" height="1002"/>
  </clipPath>
</defs>
<polyline clip-path="url(#clip532)" style="stroke:#000000; stroke-linecap:round; stroke-linejoin:round; stroke-width:2; stroke-opacity:0.1; fill:none" points="685.027,1284.79 685.027,283.465 "/>
<polyline clip-path="url(#clip532)" style="stroke:#000000; stroke-linecap:round; stroke-linejoin:round; stroke-width:2; stroke-opacity:0.1; fill:none" points="1137.29,1284.79 1137.29,283.465 "/>
<polyline clip-path="url(#clip532)" style="stroke:#000000; stroke-linecap:round; stroke-linejoin:round; stroke-width:2; stroke-opacity:0.1; fill:none" points="1589.56,1284.79 1589.56,283.465 "/>
<polyline clip-path="url(#clip532)" style="stroke:#000000; stroke-linecap:round; stroke-linejoin:round; stroke-width:2; stroke-opacity:0.1; fill:none" points="2041.83,1284.79 2041.83,283.465 "/>
<polyline clip-path="url(#clip530)" style="stroke:#000000; stroke-linecap:round; stroke-linejoin:round; stroke-width:4; stroke-opacity:1; fill:none" points="323.213,1284.79 2132.28,1284.79 "/>
<polyline clip-path="url(#clip530)" style="stroke:#000000; stroke-linecap:round; stroke-linejoin:round; stroke-width:4; stroke-opacity:1; fill:none" points="685.027,1284.79 685.027,1265.89 "/>
<polyline clip-path="url(#clip530)" style="stroke:#000000; stroke-linecap:round; stroke-linejoin:round; stroke-width:4; stroke-opacity:1; fill:none" points="1137.29,1284.79 1137.29,1265.89 "/>
<polyline clip-path="url(#clip530)" style="stroke:#000000; stroke-linecap:round; stroke-linejoin:round; stroke-width:4; stroke-opacity:1; fill:none" points="1589.56,1284.79 1589.56,1265.89 "/>
<polyline clip-path="url(#clip530)" style="stroke:#000000; stroke-linecap:round; stroke-linejoin:round; stroke-width:4; stroke-opacity:1; fill:none" points="2041.83,1284.79 2041.83,1265.89 "/>
<path clip-path="url(#clip530)" d="M675.305 1312.63 L693.661 1312.63 L693.661 1316.56 L679.587 1316.56 L679.587 1325.03 Q680.605 1324.69 681.624 1324.53 Q682.643 1324.34 683.661 1324.34 Q689.448 1324.34 692.828 1327.51 Q696.207 1330.68 696.207 1336.1 Q696.207 1341.68 692.735 1344.78 Q689.263 1347.86 682.943 1347.86 Q680.768 1347.86 678.499 1347.49 Q676.254 1347.12 673.846 1346.38 L673.846 1341.68 Q675.93 1342.81 678.152 1343.37 Q680.374 1343.92 682.851 1343.92 Q686.855 1343.92 689.193 1341.82 Q691.531 1339.71 691.531 1336.1 Q691.531 1332.49 689.193 1330.38 Q686.855 1328.28 682.851 1328.28 Q680.976 1328.28 679.101 1328.69 Q677.249 1329.11 675.305 1329.99 L675.305 1312.63 Z" fill="#000000" fill-rule="nonzero" fill-opacity="1" /><path clip-path="url(#clip530)" d="M1111.98 1343.25 L1119.62 1343.25 L1119.62 1316.89 L1111.31 1318.55 L1111.31 1314.29 L1119.57 1312.63 L1124.25 1312.63 L1124.25 1343.25 L1131.89 1343.25 L1131.89 1347.19 L1111.98 1347.19 L1111.98 1343.25 Z" fill="#000000" fill-rule="nonzero" fill-opacity="1" /><path clip-path="url(#clip530)" d="M1151.33 1315.71 Q1147.72 1315.71 1145.89 1319.27 Q1144.09 1322.81 1144.09 1329.94 Q1144.09 1337.05 1145.89 1340.61 Q1147.72 1344.16 1151.33 1344.16 Q1154.97 1344.16 1156.77 1340.61 Q1158.6 1337.05 1158.6 1329.94 Q1158.6 1322.81 1156.77 1319.27 Q1154.97 1315.71 1151.33 1315.71 M1151.33 1312 Q1157.14 1312 1160.2 1316.61 Q1163.28 1321.19 1163.28 1329.94 Q1163.28 1338.67 1160.2 1343.28 Q1157.14 1347.86 1151.33 1347.86 Q1145.52 1347.86 1142.44 1343.28 Q1139.39 1338.67 1139.39 1329.94 Q1139.39 1321.19 1142.44 1316.61 Q1145.52 1312 1151.33 1312 Z" fill="#000000" fill-rule="nonzero" fill-opacity="1" /><path clip-path="url(#clip530)" d="M1564.75 1343.25 L1572.39 1343.25 L1572.39 1316.89 L1564.08 1318.55 L1564.08 1314.29 L1572.34 1312.63 L1577.02 1312.63 L1577.02 1343.25 L1584.65 1343.25 L1584.65 1347.19 L1564.75 1347.19 L1564.75 1343.25 Z" fill="#000000" fill-rule="nonzero" fill-opacity="1" /><path clip-path="url(#clip530)" d="M1594.15 1312.63 L1612.5 1312.63 L1612.5 1316.56 L1598.43 1316.56 L1598.43 1325.03 Q1599.45 1324.69 1600.46 1324.53 Q1601.48 1324.34 1602.5 1324.34 Q1608.29 1324.34 1611.67 1327.51 Q1615.05 1330.68 1615.05 1336.1 Q1615.05 1341.68 1611.58 1344.78 Q1608.1 1347.86 1601.78 1347.86 Q1599.61 1347.86 1597.34 1347.49 Q1595.09 1347.12 1592.69 1346.38 L1592.69 1341.68 Q1594.77 1342.81 1596.99 1343.37 Q1599.21 1343.92 1601.69 1343.92 Q1605.7 1343.92 1608.03 1341.82 Q1610.37 1339.71 1610.37 1336.1 Q1610.37 1332.49 1608.03 1330.38 Q1605.7 1328.28 1601.69 1328.28 Q1599.82 1328.28 1597.94 1328.69 Q1596.09 1329.11 1594.15 1329.99 L1594.15 1312.63 Z" fill="#000000" fill-rule="nonzero" fill-opacity="1" /><path clip-path="url(#clip530)" d="M2020.6 1343.25 L2036.92 1343.25 L2036.92 1347.19 L2014.98 1347.19 L2014.98 1343.25 Q2017.64 1340.5 2022.22 1335.87 Q2026.83 1331.22 2028.01 1329.87 Q2030.26 1327.35 2031.14 1325.61 Q2032.04 1323.85 2032.04 1322.16 Q2032.04 1319.41 2030.09 1317.67 Q2028.17 1315.94 2025.07 1315.94 Q2022.87 1315.94 2020.42 1316.7 Q2017.99 1317.47 2015.21 1319.02 L2015.21 1314.29 Q2018.03 1313.16 2020.49 1312.58 Q2022.94 1312 2024.98 1312 Q2030.35 1312 2033.54 1314.69 Q2036.74 1317.37 2036.74 1321.86 Q2036.74 1323.99 2035.93 1325.91 Q2035.14 1327.81 2033.03 1330.41 Q2032.45 1331.08 2029.35 1334.29 Q2026.25 1337.49 2020.6 1343.25 Z" fill="#000000" fill-rule="nonzero" fill-opacity="1" /><path clip-path="url(#clip530)" d="M2056.74 1315.71 Q2053.13 1315.71 2051.3 1319.27 Q2049.49 1322.81 2049.49 1329.94 Q2049.49 1337.05 2051.3 1340.61 Q2053.13 1344.16 2056.74 1344.16 Q2060.37 1344.16 2062.18 1340.61 Q2064.01 1337.05 2064.01 1329.94 Q2064.01 1322.81 2062.18 1319.27 Q2060.37 1315.71 2056.74 1315.71 M2056.74 1312 Q2062.55 1312 2065.6 1316.61 Q2068.68 1321.19 2068.68 1329.94 Q2068.68 1338.67 2065.6 1343.28 Q2062.55 1347.86 2056.74 1347.86 Q2050.93 1347.86 2047.85 1343.28 Q2044.79 1338.67 2044.79 1329.94 Q2044.79 1321.19 2047.85 1316.61 Q2050.93 1312 2056.74 1312 Z" fill="#000000" fill-rule="nonzero" fill-opacity="1" /><path clip-path="url(#clip530)" d="M950.14 1408.14 L950.14 1429.65 L944.283 1429.65 L944.283 1408.33 Q944.283 1403.27 942.31 1400.75 Q940.336 1398.24 936.39 1398.24 Q931.647 1398.24 928.91 1401.26 Q926.173 1404.28 926.173 1409.5 L926.173 1429.65 L920.284 1429.65 L920.284 1394 L926.173 1394 L926.173 1399.54 Q928.273 1396.33 931.106 1394.74 Q933.971 1393.14 937.695 1393.14 Q943.838 1393.14 946.989 1396.96 Q950.14 1400.75 950.14 1408.14 Z" fill="#000000" fill-rule="nonzero" fill-opacity="1" /><path clip-path="url(#clip530)" d="M961.216 1415.58 L961.216 1394 L967.072 1394 L967.072 1415.36 Q967.072 1420.42 969.046 1422.97 Q971.019 1425.48 974.966 1425.48 Q979.708 1425.48 982.446 1422.46 Q985.215 1419.43 985.215 1414.21 L985.215 1394 L991.071 1394 L991.071 1429.65 L985.215 1429.65 L985.215 1424.18 Q983.082 1427.42 980.249 1429.01 Q977.448 1430.57 973.725 1430.57 Q967.582 1430.57 964.399 1426.76 Q961.216 1422.94 961.216 1415.58 M975.953 1393.14 L975.953 1393.14 Z" fill="#000000" fill-rule="nonzero" fill-opacity="1" /><path clip-path="url(#clip530)" d="M1030.89 1400.85 Q1033.08 1396.9 1036.14 1395.02 Q1039.2 1393.14 1043.33 1393.14 Q1048.9 1393.14 1051.93 1397.06 Q1054.95 1400.94 1054.95 1408.14 L1054.95 1429.65 L1049.06 1429.65 L1049.06 1408.33 Q1049.06 1403.2 1047.25 1400.72 Q1045.43 1398.24 1041.71 1398.24 Q1037.16 1398.24 1034.52 1401.26 Q1031.88 1404.28 1031.88 1409.5 L1031.88 1429.65 L1025.99 1429.65 L1025.99 1408.33 Q1025.99 1403.17 1024.17 1400.72 Q1022.36 1398.24 1018.57 1398.24 Q1014.08 1398.24 1011.44 1401.29 Q1008.8 1404.32 1008.8 1409.5 L1008.8 1429.65 L1002.91 1429.65 L1002.91 1394 L1008.8 1394 L1008.8 1399.54 Q1010.8 1396.26 1013.61 1394.7 Q1016.41 1393.14 1020.26 1393.14 Q1024.14 1393.14 1026.85 1395.12 Q1029.58 1397.09 1030.89 1400.85 Z" fill="#000000" fill-rule="nonzero" fill-opacity="1" /><path clip-path="url(#clip530)" d="M1092.22 1411.86 Q1092.22 1405.4 1089.55 1401.74 Q1086.91 1398.05 1082.26 1398.05 Q1077.61 1398.05 1074.94 1401.74 Q1072.3 1405.4 1072.3 1411.86 Q1072.3 1418.32 1074.94 1422.01 Q1077.61 1425.67 1082.26 1425.67 Q1086.91 1425.67 1089.55 1422.01 Q1092.22 1418.32 1092.22 1411.86 M1072.3 1399.41 Q1074.14 1396.23 1076.94 1394.7 Q1079.78 1393.14 1083.69 1393.14 Q1090.19 1393.14 1094.23 1398.3 Q1098.3 1403.46 1098.3 1411.86 Q1098.3 1420.26 1094.23 1425.42 Q1090.19 1430.57 1083.69 1430.57 Q1079.78 1430.57 1076.94 1429.05 Q1074.14 1427.49 1072.3 1424.3 L1072.3 1429.65 L1066.41 1429.65 L1066.41 1380.13 L1072.3 1380.13 L1072.3 1399.41 Z" fill="#000000" fill-rule="nonzero" fill-opacity="1" /><path clip-path="url(#clip530)" d="M1138.5 1410.36 L1138.5 1413.23 L1111.57 1413.23 Q1111.96 1419.28 1115.2 1422.46 Q1118.48 1425.61 1124.31 1425.61 Q1127.68 1425.61 1130.83 1424.78 Q1134.01 1423.95 1137.13 1422.3 L1137.13 1427.84 Q1133.98 1429.17 1130.67 1429.87 Q1127.36 1430.57 1123.96 1430.57 Q1115.43 1430.57 1110.43 1425.61 Q1105.46 1420.64 1105.46 1412.18 Q1105.46 1403.42 1110.17 1398.3 Q1114.92 1393.14 1122.94 1393.14 Q1130.13 1393.14 1134.3 1397.79 Q1138.5 1402.41 1138.5 1410.36 M1132.64 1408.64 Q1132.58 1403.84 1129.94 1400.97 Q1127.33 1398.11 1123 1398.11 Q1118.1 1398.11 1115.14 1400.88 Q1112.21 1403.65 1111.76 1408.68 L1132.64 1408.64 Z" fill="#000000" fill-rule="nonzero" fill-opacity="1" /><path clip-path="url(#clip530)" d="M1168.77 1399.48 Q1167.78 1398.91 1166.61 1398.65 Q1165.46 1398.36 1164.06 1398.36 Q1159.09 1398.36 1156.42 1401.61 Q1153.78 1404.83 1153.78 1410.87 L1153.78 1429.65 L1147.89 1429.65 L1147.89 1394 L1153.78 1394 L1153.78 1399.54 Q1155.62 1396.3 1158.58 1394.74 Q1161.54 1393.14 1165.78 1393.14 Q1166.38 1393.14 1167.11 1393.24 Q1167.85 1393.3 1168.74 1393.46 L1168.77 1399.48 Z" fill="#000000" fill-rule="nonzero" fill-opacity="1" /><path clip-path="url(#clip530)" d="M1209.45 1398.11 Q1204.74 1398.11 1202 1401.8 Q1199.26 1405.46 1199.26 1411.86 Q1199.26 1418.26 1201.97 1421.95 Q1204.7 1425.61 1209.45 1425.61 Q1214.13 1425.61 1216.86 1421.92 Q1219.6 1418.22 1219.6 1411.86 Q1219.6 1405.53 1216.86 1401.83 Q1214.13 1398.11 1209.45 1398.11 M1209.45 1393.14 Q1217.09 1393.14 1221.45 1398.11 Q1225.81 1403.07 1225.81 1411.86 Q1225.81 1420.61 1221.45 1425.61 Q1217.09 1430.57 1209.45 1430.57 Q1201.78 1430.57 1197.42 1425.61 Q1193.09 1420.61 1193.09 1411.86 Q1193.09 1403.07 1197.42 1398.11 Q1201.78 1393.14 1209.45 1393.14 Z" fill="#000000" fill-rule="nonzero" fill-opacity="1" /><path clip-path="url(#clip530)" d="M1253.56 1380.13 L1253.56 1385 L1247.96 1385 Q1244.81 1385 1243.57 1386.27 Q1242.36 1387.54 1242.36 1390.85 L1242.36 1394 L1252 1394 L1252 1398.55 L1242.36 1398.55 L1242.36 1429.65 L1236.47 1429.65 L1236.47 1398.55 L1230.87 1398.55 L1230.87 1394 L1236.47 1394 L1236.47 1391.52 Q1236.47 1385.57 1239.24 1382.86 Q1242.01 1380.13 1248.02 1380.13 L1253.56 1380.13 Z" fill="#000000" fill-rule="nonzero" fill-opacity="1" /><path clip-path="url(#clip530)" d="M1301.91 1395.05 L1301.91 1400.59 Q1299.43 1399.32 1296.75 1398.68 Q1294.08 1398.05 1291.21 1398.05 Q1286.85 1398.05 1284.66 1399.38 Q1282.49 1400.72 1282.49 1403.39 Q1282.49 1405.43 1284.05 1406.61 Q1285.61 1407.75 1290.32 1408.8 L1292.33 1409.25 Q1298.57 1410.59 1301.18 1413.04 Q1303.82 1415.46 1303.82 1419.82 Q1303.82 1424.78 1299.87 1427.68 Q1295.96 1430.57 1289.08 1430.57 Q1286.22 1430.57 1283.1 1430 Q1280.01 1429.46 1276.57 1428.35 L1276.57 1422.3 Q1279.82 1423.99 1282.97 1424.85 Q1286.12 1425.67 1289.21 1425.67 Q1293.35 1425.67 1295.57 1424.27 Q1297.8 1422.84 1297.8 1420.26 Q1297.8 1417.87 1296.18 1416.6 Q1294.59 1415.33 1289.15 1414.15 L1287.11 1413.67 Q1281.67 1412.53 1279.25 1410.17 Q1276.83 1407.79 1276.83 1403.65 Q1276.83 1398.62 1280.39 1395.88 Q1283.96 1393.14 1290.51 1393.14 Q1293.76 1393.14 1296.62 1393.62 Q1299.49 1394.1 1301.91 1395.05 Z" fill="#000000" fill-rule="nonzero" fill-opacity="1" /><path clip-path="url(#clip530)" d="M1318.94 1383.88 L1318.94 1394 L1331 1394 L1331 1398.55 L1318.94 1398.55 L1318.94 1417.91 Q1318.94 1422.27 1320.11 1423.51 Q1321.32 1424.75 1324.98 1424.75 L1331 1424.75 L1331 1429.65 L1324.98 1429.65 Q1318.2 1429.65 1315.63 1427.14 Q1313.05 1424.59 1313.05 1417.91 L1313.05 1398.55 L1308.75 1398.55 L1308.75 1394 L1313.05 1394 L1313.05 1383.88 L1318.94 1383.88 Z" fill="#000000" fill-rule="nonzero" fill-opacity="1" /><path clip-path="url(#clip530)" d="M1354.9 1411.73 Q1347.81 1411.73 1345.07 1413.36 Q1342.33 1414.98 1342.33 1418.89 Q1342.33 1422.01 1344.37 1423.86 Q1346.44 1425.67 1349.97 1425.67 Q1354.84 1425.67 1357.77 1422.24 Q1360.73 1418.77 1360.73 1413.04 L1360.73 1411.73 L1354.9 1411.73 M1366.58 1409.31 L1366.58 1429.65 L1360.73 1429.65 L1360.73 1424.24 Q1358.72 1427.49 1355.73 1429.05 Q1352.74 1430.57 1348.41 1430.57 Q1342.94 1430.57 1339.69 1427.52 Q1336.47 1424.43 1336.47 1419.28 Q1336.47 1413.26 1340.48 1410.2 Q1344.53 1407.15 1352.52 1407.15 L1360.73 1407.15 L1360.73 1406.58 Q1360.73 1402.53 1358.05 1400.34 Q1355.41 1398.11 1350.61 1398.11 Q1347.55 1398.11 1344.65 1398.84 Q1341.76 1399.57 1339.08 1401.04 L1339.08 1395.63 Q1342.3 1394.39 1345.32 1393.78 Q1348.35 1393.14 1351.21 1393.14 Q1358.95 1393.14 1362.76 1397.15 Q1366.58 1401.16 1366.58 1409.31 Z" fill="#000000" fill-rule="nonzero" fill-opacity="1" /><path clip-path="url(#clip530)" d="M1384.44 1383.88 L1384.44 1394 L1396.5 1394 L1396.5 1398.55 L1384.44 1398.55 L1384.44 1417.91 Q1384.44 1422.27 1385.62 1423.51 Q1386.83 1424.75 1390.49 1424.75 L1396.5 1424.75 L1396.5 1429.65 L1390.49 1429.65 Q1383.71 1429.65 1381.13 1427.14 Q1378.55 1424.59 1378.55 1417.91 L1378.55 1398.55 L1374.25 1398.55 L1374.25 1394 L1378.55 1394 L1378.55 1383.88 L1384.44 1383.88 Z" fill="#000000" fill-rule="nonzero" fill-opacity="1" /><path clip-path="url(#clip530)" d="M1434.7 1410.36 L1434.7 1413.23 L1407.77 1413.23 Q1408.15 1419.28 1411.4 1422.46 Q1414.68 1425.61 1420.5 1425.61 Q1423.88 1425.61 1427.03 1424.78 Q1430.21 1423.95 1433.33 1422.3 L1433.33 1427.84 Q1430.18 1429.17 1426.87 1429.87 Q1423.56 1430.57 1420.15 1430.57 Q1411.62 1430.57 1406.62 1425.61 Q1401.66 1420.64 1401.66 1412.18 Q1401.66 1403.42 1406.37 1398.3 Q1411.11 1393.14 1419.13 1393.14 Q1426.33 1393.14 1430.5 1397.79 Q1434.7 1402.41 1434.7 1410.36 M1428.84 1408.64 Q1428.78 1403.84 1426.14 1400.97 Q1423.53 1398.11 1419.2 1398.11 Q1414.3 1398.11 1411.34 1400.88 Q1408.41 1403.65 1407.96 1408.68 L1428.84 1408.64 Z" fill="#000000" fill-rule="nonzero" fill-opacity="1" /><path clip-path="url(#clip530)" d="M1467.03 1395.05 L1467.03 1400.59 Q1464.55 1399.32 1461.88 1398.68 Q1459.21 1398.05 1456.34 1398.05 Q1451.98 1398.05 1449.78 1399.38 Q1447.62 1400.72 1447.62 1403.39 Q1447.62 1405.43 1449.18 1406.61 Q1450.74 1407.75 1455.45 1408.8 L1457.45 1409.25 Q1463.69 1410.59 1466.3 1413.04 Q1468.94 1415.46 1468.94 1419.82 Q1468.94 1424.78 1465 1427.68 Q1461.08 1430.57 1454.21 1430.57 Q1451.34 1430.57 1448.22 1430 Q1445.14 1429.46 1441.7 1428.35 L1441.7 1422.3 Q1444.95 1423.99 1448.1 1424.85 Q1451.25 1425.67 1454.34 1425.67 Q1458.47 1425.67 1460.7 1424.27 Q1462.93 1422.84 1462.93 1420.26 Q1462.93 1417.87 1461.31 1416.6 Q1459.71 1415.33 1454.27 1414.15 L1452.23 1413.67 Q1446.79 1412.53 1444.37 1410.17 Q1441.95 1407.79 1441.95 1403.65 Q1441.95 1398.62 1445.52 1395.88 Q1449.08 1393.14 1455.64 1393.14 Q1458.89 1393.14 1461.75 1393.62 Q1464.62 1394.1 1467.03 1395.05 Z" fill="#000000" fill-rule="nonzero" fill-opacity="1" /><path clip-path="url(#clip530)" d="M1499.25 1382.13 L1507.9 1382.13 L1528.97 1421.89 L1528.97 1382.13 L1535.21 1382.13 L1535.21 1429.65 L1526.55 1429.65 L1505.48 1389.9 L1505.48 1429.65 L1499.25 1429.65 L1499.25 1382.13 Z" fill="#000000" fill-rule="nonzero" fill-opacity="1" /><polyline clip-path="url(#clip532)" style="stroke:#000000; stroke-linecap:round; stroke-linejoin:round; stroke-width:2; stroke-opacity:0.1; fill:none" points="323.213,1284.79 2132.28,1284.79 "/>
<polyline clip-path="url(#clip532)" style="stroke:#000000; stroke-linecap:round; stroke-linejoin:round; stroke-width:2; stroke-opacity:0.1; fill:none" points="323.213,1006.48 2132.28,1006.48 "/>
<polyline clip-path="url(#clip532)" style="stroke:#000000; stroke-linecap:round; stroke-linejoin:round; stroke-width:2; stroke-opacity:0.1; fill:none" points="323.213,728.176 2132.28,728.176 "/>
<polyline clip-path="url(#clip532)" style="stroke:#000000; stroke-linecap:round; stroke-linejoin:round; stroke-width:2; stroke-opacity:0.1; fill:none" points="323.213,449.87 2132.28,449.87 "/>
<polyline clip-path="url(#clip530)" style="stroke:#000000; stroke-linecap:round; stroke-linejoin:round; stroke-width:4; stroke-opacity:1; fill:none" points="323.213,1284.79 323.213,283.465 "/>
<polyline clip-path="url(#clip530)" style="stroke:#000000; stroke-linecap:round; stroke-linejoin:round; stroke-width:4; stroke-opacity:1; fill:none" points="323.213,1284.79 342.11,1284.79 "/>
<polyline clip-path="url(#clip530)" style="stroke:#000000; stroke-linecap:round; stroke-linejoin:round; stroke-width:4; stroke-opacity:1; fill:none" points="323.213,1006.48 342.11,1006.48 "/>
<polyline clip-path="url(#clip530)" style="stroke:#000000; stroke-linecap:round; stroke-linejoin:round; stroke-width:4; stroke-opacity:1; fill:none" points="323.213,728.176 342.11,728.176 "/>
<polyline clip-path="url(#clip530)" style="stroke:#000000; stroke-linecap:round; stroke-linejoin:round; stroke-width:4; stroke-opacity:1; fill:none" points="323.213,449.87 342.11,449.87 "/>
<path clip-path="url(#clip530)" d="M275.268 1270.59 Q271.657 1270.59 269.828 1274.15 Q268.023 1277.69 268.023 1284.82 Q268.023 1291.93 269.828 1295.49 Q271.657 1299.04 275.268 1299.04 Q278.902 1299.04 280.708 1295.49 Q282.537 1291.93 282.537 1284.82 Q282.537 1277.69 280.708 1274.15 Q278.902 1270.59 275.268 1270.59 M275.268 1266.88 Q281.078 1266.88 284.134 1271.49 Q287.213 1276.07 287.213 1284.82 Q287.213 1293.55 284.134 1298.16 Q281.078 1302.74 275.268 1302.74 Q269.458 1302.74 266.379 1298.16 Q263.324 1293.55 263.324 1284.82 Q263.324 1276.07 266.379 1271.49 Q269.458 1266.88 275.268 1266.88 Z" fill="#000000" fill-rule="nonzero" fill-opacity="1" /><path clip-path="url(#clip530)" d="M239.134 1019.83 L255.454 1019.83 L255.454 1023.76 L233.509 1023.76 L233.509 1019.83 Q236.171 1017.07 240.755 1012.44 Q245.361 1007.79 246.542 1006.45 Q248.787 1003.92 249.667 1002.19 Q250.569 1000.43 250.569 998.739 Q250.569 995.984 248.625 994.248 Q246.704 992.512 243.602 992.512 Q241.403 992.512 238.949 993.276 Q236.518 994.04 233.741 995.591 L233.741 990.868 Q236.565 989.734 239.018 989.155 Q241.472 988.577 243.509 988.577 Q248.879 988.577 252.074 991.262 Q255.268 993.947 255.268 998.438 Q255.268 1000.57 254.458 1002.49 Q253.671 1004.39 251.565 1006.98 Q250.986 1007.65 247.884 1010.87 Q244.782 1014.06 239.134 1019.83 Z" fill="#000000" fill-rule="nonzero" fill-opacity="1" /><path clip-path="url(#clip530)" d="M275.268 992.28 Q271.657 992.28 269.828 995.845 Q268.023 999.387 268.023 1006.52 Q268.023 1013.62 269.828 1017.19 Q271.657 1020.73 275.268 1020.73 Q278.902 1020.73 280.708 1017.19 Q282.537 1013.62 282.537 1006.52 Q282.537 999.387 280.708 995.845 Q278.902 992.28 275.268 992.28 M275.268 988.577 Q281.078 988.577 284.134 993.183 Q287.213 997.766 287.213 1006.52 Q287.213 1015.24 284.134 1019.85 Q281.078 1024.43 275.268 1024.43 Q269.458 1024.43 266.379 1019.85 Q263.324 1015.24 263.324 1006.52 Q263.324 997.766 266.379 993.183 Q269.458 988.577 275.268 988.577 Z" fill="#000000" fill-rule="nonzero" fill-opacity="1" /><path clip-path="url(#clip530)" d="M247.954 714.97 L236.148 733.419 L247.954 733.419 L247.954 714.97 M246.727 710.896 L252.606 710.896 L252.606 733.419 L257.537 733.419 L257.537 737.308 L252.606 737.308 L252.606 745.456 L247.954 745.456 L247.954 737.308 L232.352 737.308 L232.352 732.794 L246.727 710.896 Z" fill="#000000" fill-rule="nonzero" fill-opacity="1" /><path clip-path="url(#clip530)" d="M275.268 713.975 Q271.657 713.975 269.828 717.539 Q268.023 721.081 268.023 728.211 Q268.023 735.317 269.828 738.882 Q271.657 742.424 275.268 742.424 Q278.902 742.424 280.708 738.882 Q282.537 735.317 282.537 728.211 Q282.537 721.081 280.708 717.539 Q278.902 713.975 275.268 713.975 M275.268 710.271 Q281.078 710.271 284.134 714.877 Q287.213 719.461 287.213 728.211 Q287.213 736.938 284.134 741.544 Q281.078 746.127 275.268 746.127 Q269.458 746.127 266.379 741.544 Q263.324 736.938 263.324 728.211 Q263.324 719.461 266.379 714.877 Q269.458 710.271 275.268 710.271 Z" fill="#000000" fill-rule="nonzero" fill-opacity="1" /><path clip-path="url(#clip530)" d="M245.685 448.007 Q242.537 448.007 240.685 450.16 Q238.856 452.312 238.856 456.062 Q238.856 459.789 240.685 461.965 Q242.537 464.118 245.685 464.118 Q248.833 464.118 250.662 461.965 Q252.514 459.789 252.514 456.062 Q252.514 452.312 250.662 450.16 Q248.833 448.007 245.685 448.007 M254.967 433.354 L254.967 437.613 Q253.208 436.78 251.403 436.34 Q249.62 435.9 247.861 435.9 Q243.231 435.9 240.778 439.025 Q238.347 442.15 238 448.47 Q239.366 446.456 241.426 445.391 Q243.486 444.303 245.963 444.303 Q251.171 444.303 254.18 447.474 Q257.213 450.623 257.213 456.062 Q257.213 461.386 254.065 464.604 Q250.916 467.822 245.685 467.822 Q239.69 467.822 236.518 463.238 Q233.347 458.632 233.347 449.905 Q233.347 441.711 237.236 436.85 Q241.125 431.965 247.676 431.965 Q249.435 431.965 251.217 432.313 Q253.023 432.66 254.967 433.354 Z" fill="#000000" fill-rule="nonzero" fill-opacity="1" /><path clip-path="url(#clip530)" d="M275.268 435.669 Q271.657 435.669 269.828 439.234 Q268.023 442.775 268.023 449.905 Q268.023 457.011 269.828 460.576 Q271.657 464.118 275.268 464.118 Q278.902 464.118 280.708 460.576 Q282.537 457.011 282.537 449.905 Q282.537 442.775 280.708 439.234 Q278.902 435.669 275.268 435.669 M275.268 431.965 Q281.078 431.965 284.134 436.572 Q287.213 441.155 287.213 449.905 Q287.213 458.632 284.134 463.238 Q281.078 467.822 275.268 467.822 Q269.458 467.822 266.379 463.238 Q263.324 458.632 263.324 449.905 Q263.324 441.155 266.379 436.572 Q269.458 431.965 275.268 431.965 Z" fill="#000000" fill-rule="nonzero" fill-opacity="1" /><path clip-path="url(#clip530)" d="M138.236 975.957 L145.016 975.957 Q141.992 979.203 140.496 982.895 Q139 986.555 139 990.693 Q139 998.841 143.997 1003.17 Q148.962 1007.5 158.384 1007.5 Q167.773 1007.5 172.77 1003.17 Q177.735 998.841 177.735 990.693 Q177.735 986.555 176.239 982.895 Q174.743 979.203 171.72 975.957 L178.435 975.957 Q180.727 979.33 181.873 983.118 Q183.019 986.874 183.019 991.075 Q183.019 1001.86 176.43 1008.07 Q169.81 1014.28 158.384 1014.28 Q146.925 1014.28 140.337 1008.07 Q133.716 1001.86 133.716 991.075 Q133.716 986.81 134.862 983.054 Q135.976 979.267 138.236 975.957 Z" fill="#000000" fill-rule="nonzero" fill-opacity="1" /><path clip-path="url(#clip530)" d="M139.859 959.597 L157.715 959.597 L157.715 951.512 Q157.715 947.024 155.392 944.574 Q153.068 942.123 148.771 942.123 Q144.506 942.123 142.183 944.574 Q139.859 947.024 139.859 951.512 L139.859 959.597 M134.576 966.026 L134.576 951.512 Q134.576 943.523 138.204 939.449 Q141.801 935.343 148.771 935.343 Q155.805 935.343 159.402 939.449 Q162.999 943.523 162.999 951.512 L162.999 959.597 L182.096 959.597 L182.096 966.026 L134.576 966.026 Z" fill="#000000" fill-rule="nonzero" fill-opacity="1" /><path clip-path="url(#clip530)" d="M134.576 927.45 L134.576 920.989 L163.444 920.989 Q171.083 920.989 174.457 918.22 Q177.799 915.451 177.799 909.244 Q177.799 903.069 174.457 900.3 Q171.083 897.531 163.444 897.531 L134.576 897.531 L134.576 891.07 L164.24 891.07 Q173.534 891.07 178.276 895.685 Q183.019 900.268 183.019 909.244 Q183.019 918.251 178.276 922.867 Q173.534 927.45 164.24 927.45 L134.576 927.45 Z" fill="#000000" fill-rule="nonzero" fill-opacity="1" /><path clip-path="url(#clip530)" d="M136.326 852.748 L146.448 852.748 L146.448 840.685 L150.999 840.685 L150.999 852.748 L170.351 852.748 Q174.712 852.748 175.953 851.571 Q177.194 850.361 177.194 846.701 L177.194 840.685 L182.096 840.685 L182.096 846.701 Q182.096 853.48 179.581 856.058 Q177.035 858.637 170.351 858.637 L150.999 858.637 L150.999 862.933 L146.448 862.933 L146.448 858.637 L136.326 858.637 L136.326 852.748 Z" fill="#000000" fill-rule="nonzero" fill-opacity="1" /><path clip-path="url(#clip530)" d="M146.448 832.983 L146.448 827.126 L182.096 827.126 L182.096 832.983 L146.448 832.983 M132.571 832.983 L132.571 827.126 L139.987 827.126 L139.987 832.983 L132.571 832.983 Z" fill="#000000" fill-rule="nonzero" fill-opacity="1" /><path clip-path="url(#clip530)" d="M153.291 787.118 Q149.344 784.922 147.466 781.866 Q145.588 778.811 145.588 774.673 Q145.588 769.103 149.503 766.079 Q153.386 763.055 160.58 763.055 L182.096 763.055 L182.096 768.944 L160.771 768.944 Q155.646 768.944 153.164 770.758 Q150.681 772.572 150.681 776.296 Q150.681 780.848 153.705 783.489 Q156.728 786.131 161.948 786.131 L182.096 786.131 L182.096 792.019 L160.771 792.019 Q155.614 792.019 153.164 793.834 Q150.681 795.648 150.681 799.436 Q150.681 803.923 153.737 806.565 Q156.76 809.207 161.948 809.207 L182.096 809.207 L182.096 815.095 L146.448 815.095 L146.448 809.207 L151.986 809.207 Q148.708 807.202 147.148 804.401 Q145.588 801.6 145.588 797.749 Q145.588 793.866 147.562 791.16 Q149.535 788.423 153.291 787.118 Z" fill="#000000" fill-rule="nonzero" fill-opacity="1" /><path clip-path="url(#clip530)" d="M162.808 720.883 L165.672 720.883 L165.672 747.81 Q171.72 747.428 174.903 744.181 Q178.054 740.903 178.054 735.078 Q178.054 731.704 177.226 728.553 Q176.398 725.371 174.743 722.251 L180.282 722.251 Q181.618 725.402 182.319 728.713 Q183.019 732.023 183.019 735.428 Q183.019 743.958 178.054 748.955 Q173.088 753.921 164.622 753.921 Q155.869 753.921 150.745 749.21 Q145.588 744.468 145.588 736.447 Q145.588 729.254 150.235 725.084 Q154.851 720.883 162.808 720.883 M161.089 726.739 Q156.283 726.803 153.418 729.445 Q150.554 732.055 150.554 736.383 Q150.554 741.285 153.323 744.245 Q156.092 747.173 161.121 747.619 L161.089 726.739 Z" fill="#000000" fill-rule="nonzero" fill-opacity="1" /><path clip-path="url(#clip530)" d="M132.634 676.482 Q139.955 680.747 147.116 682.816 Q154.278 684.885 161.63 684.885 Q168.982 684.885 176.208 682.816 Q183.401 680.715 190.689 676.482 L190.689 681.574 Q183.21 686.349 175.985 688.736 Q168.76 691.091 161.63 691.091 Q154.532 691.091 147.339 688.736 Q140.146 686.381 132.634 681.574 L132.634 676.482 Z" fill="#000000" fill-rule="nonzero" fill-opacity="1" /><path clip-path="url(#clip530)" d="M153.291 637.365 Q149.344 635.168 147.466 632.113 Q145.588 629.057 145.588 624.92 Q145.588 619.35 149.503 616.326 Q153.386 613.302 160.58 613.302 L182.096 613.302 L182.096 619.191 L160.771 619.191 Q155.646 619.191 153.164 621.005 Q150.681 622.819 150.681 626.543 Q150.681 631.094 153.705 633.736 Q156.728 636.378 161.948 636.378 L182.096 636.378 L182.096 642.266 L160.771 642.266 Q155.614 642.266 153.164 644.08 Q150.681 645.895 150.681 649.682 Q150.681 654.17 153.737 656.812 Q156.76 659.454 161.948 659.454 L182.096 659.454 L182.096 665.342 L146.448 665.342 L146.448 659.454 L151.986 659.454 Q148.708 657.448 147.148 654.648 Q145.588 651.847 145.588 647.995 Q145.588 644.112 147.562 641.407 Q149.535 638.67 153.291 637.365 Z" fill="#000000" fill-rule="nonzero" fill-opacity="1" /><path clip-path="url(#clip530)" d="M147.498 578.896 L153.036 578.896 Q151.763 581.378 151.127 584.052 Q150.49 586.725 150.49 589.59 Q150.49 593.95 151.827 596.147 Q153.164 598.311 155.837 598.311 Q157.874 598.311 159.052 596.751 Q160.198 595.192 161.248 590.481 L161.694 588.476 Q163.03 582.238 165.481 579.628 Q167.9 576.986 172.261 576.986 Q177.226 576.986 180.122 580.933 Q183.019 584.848 183.019 591.723 Q183.019 594.587 182.446 597.706 Q181.905 600.794 180.791 604.231 L174.743 604.231 Q176.43 600.985 177.29 597.834 Q178.117 594.683 178.117 591.595 Q178.117 587.457 176.717 585.229 Q175.284 583.001 172.706 583.001 Q170.319 583.001 169.046 584.625 Q167.773 586.216 166.595 591.659 L166.118 593.696 Q164.972 599.139 162.617 601.558 Q160.23 603.976 156.092 603.976 Q151.063 603.976 148.326 600.412 Q145.588 596.847 145.588 590.29 Q145.588 587.044 146.066 584.179 Q146.543 581.315 147.498 578.896 Z" fill="#000000" fill-rule="nonzero" fill-opacity="1" /><path clip-path="url(#clip530)" d="M132.634 568.583 L132.634 563.491 Q140.146 558.716 147.339 556.361 Q154.532 553.974 161.63 553.974 Q168.76 553.974 175.985 556.361 Q183.21 558.716 190.689 563.491 L190.689 568.583 Q183.401 564.35 176.208 562.281 Q168.982 560.18 161.63 560.18 Q154.278 560.18 147.116 562.281 Q139.955 564.35 132.634 568.583 Z" fill="#000000" fill-rule="nonzero" fill-opacity="1" /><path clip-path="url(#clip530)" d="M984.937 64.8611 L984.937 87.0195 L998.062 87.0195 Q1004.66 87.0195 1007.82 84.3054 Q1011.02 81.5508 1011.02 75.92 Q1011.02 70.2488 1007.82 67.5752 Q1004.66 64.8611 998.062 64.8611 L984.937 64.8611 M984.937 39.9885 L984.937 58.2176 L997.049 58.2176 Q1003.04 58.2176 1005.96 55.9896 Q1008.92 53.7211 1008.92 49.103 Q1008.92 44.5255 1005.96 42.257 Q1003.04 39.9885 997.049 39.9885 L984.937 39.9885 M976.754 33.264 L997.657 33.264 Q1007.01 33.264 1012.08 37.1529 Q1017.14 41.0417 1017.14 48.2118 Q1017.14 53.7616 1014.55 57.0428 Q1011.96 60.324 1006.93 61.1342 Q1012.97 62.4305 1016.29 66.5624 Q1019.65 70.6538 1019.65 76.8112 Q1019.65 84.913 1014.14 89.3285 Q1008.63 93.744 998.467 93.744 L976.754 93.744 L976.754 33.264 Z" fill="#000000" fill-rule="nonzero" fill-opacity="1" /><path clip-path="url(#clip530)" d="M1053.96 70.9374 Q1044.93 70.9374 1041.45 73.0034 Q1037.96 75.0693 1037.96 80.0519 Q1037.96 84.0218 1040.56 86.3714 Q1043.19 88.6804 1047.69 88.6804 Q1053.88 88.6804 1057.61 84.3054 Q1061.38 79.8899 1061.38 72.5983 L1061.38 70.9374 L1053.96 70.9374 M1068.83 67.8587 L1068.83 93.744 L1061.38 93.744 L1061.38 86.8575 Q1058.83 90.9894 1055.02 92.9743 Q1051.21 94.9188 1045.7 94.9188 Q1038.73 94.9188 1034.6 91.0299 Q1030.51 87.1005 1030.51 80.5381 Q1030.51 72.8818 1035.61 68.993 Q1040.76 65.1041 1050.93 65.1041 L1061.38 65.1041 L1061.38 64.3749 Q1061.38 59.2303 1057.97 56.4352 Q1054.61 53.5995 1048.5 53.5995 Q1044.61 53.5995 1040.92 54.5312 Q1037.23 55.463 1033.83 57.3264 L1033.83 50.4398 Q1037.92 48.86 1041.77 48.0903 Q1045.62 47.2801 1049.27 47.2801 Q1059.11 47.2801 1063.97 52.3843 Q1068.83 57.4884 1068.83 67.8587 Z" fill="#000000" fill-rule="nonzero" fill-opacity="1" /><path clip-path="url(#clip530)" d="M1083.41 75.839 L1083.41 48.3739 L1090.87 48.3739 L1090.87 75.5554 Q1090.87 81.9964 1093.38 85.2371 Q1095.89 88.4373 1100.91 88.4373 Q1106.95 88.4373 1110.43 84.589 Q1113.96 80.7406 1113.96 74.0971 L1113.96 48.3739 L1121.41 48.3739 L1121.41 93.744 L1113.96 93.744 L1113.96 86.7764 Q1111.24 90.9084 1107.64 92.9338 Q1104.07 94.9188 1099.33 94.9188 Q1091.52 94.9188 1087.47 90.0577 Q1083.41 85.1966 1083.41 75.839 M1102.17 47.2801 L1102.17 47.2801 Z" fill="#000000" fill-rule="nonzero" fill-opacity="1" /><path clip-path="url(#clip530)" d="M1172.09 57.0833 Q1174.88 52.0602 1178.77 49.6702 Q1182.66 47.2801 1187.93 47.2801 Q1195.02 47.2801 1198.87 52.2627 Q1202.71 57.2048 1202.71 66.3599 L1202.71 93.744 L1195.22 93.744 L1195.22 66.6029 Q1195.22 60.081 1192.91 56.9213 Q1190.6 53.7616 1185.86 53.7616 Q1180.07 53.7616 1176.71 57.6099 Q1173.34 61.4583 1173.34 68.1018 L1173.34 93.744 L1165.85 93.744 L1165.85 66.6029 Q1165.85 60.0405 1163.54 56.9213 Q1161.23 53.7616 1156.41 53.7616 Q1150.7 53.7616 1147.34 57.6504 Q1143.98 61.4988 1143.98 68.1018 L1143.98 93.744 L1136.48 93.744 L1136.48 48.3739 L1143.98 48.3739 L1143.98 55.4224 Q1146.53 51.25 1150.09 49.2651 Q1153.66 47.2801 1158.56 47.2801 Q1163.5 47.2801 1166.94 49.7917 Q1170.43 52.3032 1172.09 57.0833 Z" fill="#000000" fill-rule="nonzero" fill-opacity="1" /><path clip-path="url(#clip530)" d="M1213.81 67.6967 L1235.65 67.6967 L1235.65 74.3402 L1213.81 74.3402 L1213.81 67.6967 Z" fill="#000000" fill-rule="nonzero" fill-opacity="1" /><path clip-path="url(#clip530)" d="M1239.09 33.264 L1247.35 33.264 L1260.07 84.3864 L1272.75 33.264 L1281.95 33.264 L1294.67 84.3864 L1307.35 33.264 L1315.65 33.264 L1300.46 93.744 L1290.17 93.744 L1277.41 41.2443 L1264.53 93.744 L1254.24 93.744 L1239.09 33.264 Z" fill="#000000" fill-rule="nonzero" fill-opacity="1" /><path clip-path="url(#clip530)" d="M1360.13 69.1955 L1360.13 72.8413 L1325.86 72.8413 Q1326.35 80.5381 1330.48 84.589 Q1334.65 88.5994 1342.06 88.5994 Q1346.36 88.5994 1350.37 87.5461 Q1354.42 86.4929 1358.39 84.3864 L1358.39 91.435 Q1354.38 93.1364 1350.17 94.0276 Q1345.95 94.9188 1341.62 94.9188 Q1330.76 94.9188 1324.4 88.5994 Q1318.08 82.2799 1318.08 71.5045 Q1318.08 60.3645 1324.08 53.8426 Q1330.11 47.2801 1340.32 47.2801 Q1349.48 47.2801 1354.78 53.1944 Q1360.13 59.0683 1360.13 69.1955 M1352.68 67.008 Q1352.6 60.8912 1349.23 57.2454 Q1345.91 53.5995 1340.4 53.5995 Q1334.17 53.5995 1330.4 57.1238 Q1326.67 60.6481 1326.1 67.0485 L1352.68 67.008 Z" fill="#000000" fill-rule="nonzero" fill-opacity="1" /><path clip-path="url(#clip530)" d="M1372.37 30.7119 L1379.82 30.7119 L1379.82 93.744 L1372.37 93.744 L1372.37 30.7119 Z" fill="#000000" fill-rule="nonzero" fill-opacity="1" /><path clip-path="url(#clip530)" d="M1428.07 50.1158 L1428.07 57.0833 Q1424.91 55.3414 1421.71 54.4907 Q1418.55 53.5995 1415.3 53.5995 Q1408.05 53.5995 1404.04 58.2176 Q1400.03 62.7951 1400.03 71.0994 Q1400.03 79.4038 1404.04 84.0218 Q1408.05 88.5994 1415.3 88.5994 Q1418.55 88.5994 1421.71 87.7487 Q1424.91 86.8575 1428.07 85.1156 L1428.07 92.0021 Q1424.95 93.4604 1421.58 94.1896 Q1418.26 94.9188 1414.49 94.9188 Q1404.25 94.9188 1398.21 88.4778 Q1392.17 82.0369 1392.17 71.0994 Q1392.17 60 1398.25 53.64 Q1404.37 47.2801 1414.98 47.2801 Q1418.42 47.2801 1421.71 48.0093 Q1424.99 48.6979 1428.07 50.1158 Z" fill="#000000" fill-rule="nonzero" fill-opacity="1" /><path clip-path="url(#clip530)" d="M1478.74 66.3599 L1478.74 93.744 L1471.29 93.744 L1471.29 66.6029 Q1471.29 60.162 1468.78 56.9618 Q1466.27 53.7616 1461.24 53.7616 Q1455.21 53.7616 1451.72 57.6099 Q1448.24 61.4583 1448.24 68.1018 L1448.24 93.744 L1440.74 93.744 L1440.74 30.7119 L1448.24 30.7119 L1448.24 55.4224 Q1450.91 51.331 1454.52 49.3056 Q1458.16 47.2801 1462.9 47.2801 Q1470.72 47.2801 1474.73 52.1412 Q1478.74 56.9618 1478.74 66.3599 Z" fill="#000000" fill-rule="nonzero" fill-opacity="1" /><path clip-path="url(#clip530)" d="M734.672 121.513 Q729.244 130.83 726.611 139.945 Q723.978 149.059 723.978 158.417 Q723.978 167.774 726.611 176.97 Q729.284 186.125 734.672 195.401 L728.191 195.401 Q722.114 185.882 719.076 176.686 Q716.078 167.491 716.078 158.417 Q716.078 149.383 719.076 140.228 Q722.074 131.073 728.191 121.513 L734.672 121.513 Z" fill="#000000" fill-rule="nonzero" fill-opacity="1" /><path clip-path="url(#clip530)" d="M757.641 130.709 L757.641 177.739 L767.525 177.739 Q780.042 177.739 785.835 172.068 Q791.668 166.397 791.668 154.163 Q791.668 142.011 785.835 136.38 Q780.042 130.709 767.525 130.709 L757.641 130.709 M749.458 123.984 L766.269 123.984 Q783.85 123.984 792.073 131.316 Q800.297 138.608 800.297 154.163 Q800.297 169.8 792.033 177.132 Q783.769 184.464 766.269 184.464 L749.458 184.464 L749.458 123.984 Z" fill="#000000" fill-rule="nonzero" fill-opacity="1" /><path clip-path="url(#clip530)" d="M813.989 146.791 L865.921 146.791 L865.921 153.596 L813.989 153.596 L813.989 146.791 M813.989 163.318 L865.921 163.318 L865.921 170.205 L813.989 170.205 L813.989 163.318 Z" fill="#000000" fill-rule="nonzero" fill-opacity="1" /><path clip-path="url(#clip530)" d="M885.001 177.577 L898.369 177.577 L898.369 131.438 L883.826 134.354 L883.826 126.901 L898.288 123.984 L906.471 123.984 L906.471 177.577 L919.839 177.577 L919.839 184.464 L885.001 184.464 L885.001 177.577 Z" fill="#000000" fill-rule="nonzero" fill-opacity="1" /><path clip-path="url(#clip530)" d="M937.217 174.175 L945.765 174.175 L945.765 181.142 L939.121 194.105 L933.895 194.105 L937.217 181.142 L937.217 174.175 Z" fill="#000000" fill-rule="nonzero" fill-opacity="1" /><path clip-path="url(#clip530)" d="M953.623 123.984 L1004.79 123.984 L1004.79 130.871 L983.316 130.871 L983.316 184.464 L975.093 184.464 L975.093 130.871 L953.623 130.871 L953.623 123.984 Z" fill="#000000" fill-rule="nonzero" fill-opacity="1" /><path clip-path="url(#clip530)" d="M1013.33 146.791 L1065.27 146.791 L1065.27 153.596 L1013.33 153.596 L1013.33 146.791 M1013.33 163.318 L1065.27 163.318 L1065.27 170.205 L1013.33 170.205 L1013.33 163.318 Z" fill="#000000" fill-rule="nonzero" fill-opacity="1" /><path clip-path="url(#clip530)" d="M1084.35 177.577 L1097.71 177.577 L1097.71 131.438 L1083.17 134.354 L1083.17 126.901 L1097.63 123.984 L1105.82 123.984 L1105.82 177.577 L1119.18 177.577 L1119.18 184.464 L1084.35 184.464 L1084.35 177.577 Z" fill="#000000" fill-rule="nonzero" fill-opacity="1" /><path clip-path="url(#clip530)" d="M1153.21 129.372 Q1146.89 129.372 1143.69 135.61 Q1140.53 141.808 1140.53 154.285 Q1140.53 166.721 1143.69 172.959 Q1146.89 179.157 1153.21 179.157 Q1159.57 179.157 1162.73 172.959 Q1165.93 166.721 1165.93 154.285 Q1165.93 141.808 1162.73 135.61 Q1159.57 129.372 1153.21 129.372 M1153.21 122.89 Q1163.38 122.89 1168.73 130.952 Q1174.11 138.972 1174.11 154.285 Q1174.11 169.557 1168.73 177.618 Q1163.38 185.639 1153.21 185.639 Q1143.04 185.639 1137.66 177.618 Q1132.31 169.557 1132.31 154.285 Q1132.31 138.972 1137.66 130.952 Q1143.04 122.89 1153.21 122.89 Z" fill="#000000" fill-rule="nonzero" fill-opacity="1" /><path clip-path="url(#clip530)" d="M1205.99 129.372 Q1199.68 129.372 1196.48 135.61 Q1193.32 141.808 1193.32 154.285 Q1193.32 166.721 1196.48 172.959 Q1199.68 179.157 1205.99 179.157 Q1212.35 179.157 1215.51 172.959 Q1218.71 166.721 1218.71 154.285 Q1218.71 141.808 1215.51 135.61 Q1212.35 129.372 1205.99 129.372 M1205.99 122.89 Q1216.16 122.89 1221.51 130.952 Q1226.9 138.972 1226.9 154.285 Q1226.9 169.557 1221.51 177.618 Q1216.16 185.639 1205.99 185.639 Q1195.83 185.639 1190.44 177.618 Q1185.09 169.557 1185.09 154.285 Q1185.09 138.972 1190.44 130.952 Q1195.83 122.89 1205.99 122.89 Z" fill="#000000" fill-rule="nonzero" fill-opacity="1" /><path clip-path="url(#clip530)" d="M1258.78 129.372 Q1252.46 129.372 1249.26 135.61 Q1246.1 141.808 1246.1 154.285 Q1246.1 166.721 1249.26 172.959 Q1252.46 179.157 1258.78 179.157 Q1265.14 179.157 1268.3 172.959 Q1271.5 166.721 1271.5 154.285 Q1271.5 141.808 1268.3 135.61 Q1265.14 129.372 1258.78 129.372 M1258.78 122.89 Q1268.95 122.89 1274.29 130.952 Q1279.68 138.972 1279.68 154.285 Q1279.68 169.557 1274.29 177.618 Q1268.95 185.639 1258.78 185.639 Q1248.61 185.639 1243.22 177.618 Q1237.88 169.557 1237.88 154.285 Q1237.88 138.972 1243.22 130.952 Q1248.61 122.89 1258.78 122.89 Z" fill="#000000" fill-rule="nonzero" fill-opacity="1" /><path clip-path="url(#clip530)" d="M1294.91 174.175 L1303.46 174.175 L1303.46 181.142 L1296.82 194.105 L1291.59 194.105 L1294.91 181.142 L1294.91 174.175 Z" fill="#000000" fill-rule="nonzero" fill-opacity="1" /><path clip-path="url(#clip530)" d="M1319.7 123.984 L1327.89 123.984 L1327.89 149.545 L1355.03 123.984 L1365.56 123.984 L1335.54 152.178 L1367.71 184.464 L1356.93 184.464 L1327.89 155.338 L1327.89 184.464 L1319.7 184.464 L1319.7 123.984 Z" fill="#000000" fill-rule="nonzero" fill-opacity="1" /><path clip-path="url(#clip530)" d="M1374.76 146.791 L1426.69 146.791 L1426.69 153.596 L1374.76 153.596 L1374.76 146.791 M1374.76 163.318 L1426.69 163.318 L1426.69 170.205 L1374.76 170.205 L1374.76 163.318 Z" fill="#000000" fill-rule="nonzero" fill-opacity="1" /><path clip-path="url(#clip530)" d="M1445.77 177.577 L1459.14 177.577 L1459.14 131.438 L1444.59 134.354 L1444.59 126.901 L1459.05 123.984 L1467.24 123.984 L1467.24 177.577 L1480.61 177.577 L1480.61 184.464 L1445.77 184.464 L1445.77 177.577 Z" fill="#000000" fill-rule="nonzero" fill-opacity="1" /><path clip-path="url(#clip530)" d="M1497.98 174.175 L1506.53 174.175 L1506.53 181.142 L1499.89 194.105 L1494.66 194.105 L1497.98 181.142 L1497.98 174.175 Z" fill="#000000" fill-rule="nonzero" fill-opacity="1" /><path clip-path="url(#clip530)" d="M1522.78 123.984 L1530.96 123.984 L1530.96 184.464 L1522.78 184.464 L1522.78 123.984 Z" fill="#000000" fill-rule="nonzero" fill-opacity="1" /><path clip-path="url(#clip530)" d="M1547.89 146.791 L1599.82 146.791 L1599.82 153.596 L1547.89 153.596 L1547.89 146.791 M1547.89 163.318 L1599.82 163.318 L1599.82 170.205 L1547.89 170.205 L1547.89 163.318 Z" fill="#000000" fill-rule="nonzero" fill-opacity="1" /><path clip-path="url(#clip530)" d="M1618.9 177.577 L1632.27 177.577 L1632.27 131.438 L1617.73 134.354 L1617.73 126.901 L1632.19 123.984 L1640.37 123.984 L1640.37 177.577 L1653.74 177.577 L1653.74 184.464 L1618.9 184.464 L1618.9 177.577 Z" fill="#000000" fill-rule="nonzero" fill-opacity="1" /><path clip-path="url(#clip530)" d="M1687.77 129.372 Q1681.45 129.372 1678.25 135.61 Q1675.09 141.808 1675.09 154.285 Q1675.09 166.721 1678.25 172.959 Q1681.45 179.157 1687.77 179.157 Q1694.13 179.157 1697.29 172.959 Q1700.49 166.721 1700.49 154.285 Q1700.49 141.808 1697.29 135.61 Q1694.13 129.372 1687.77 129.372 M1687.77 122.89 Q1697.94 122.89 1703.28 130.952 Q1708.67 138.972 1708.67 154.285 Q1708.67 169.557 1703.28 177.618 Q1697.94 185.639 1687.77 185.639 Q1677.6 185.639 1672.21 177.618 Q1666.87 169.557 1666.87 154.285 Q1666.87 138.972 1672.21 130.952 Q1677.6 122.89 1687.77 122.89 Z" fill="#000000" fill-rule="nonzero" fill-opacity="1" /><path clip-path="url(#clip530)" d="M1720.82 121.513 L1727.31 121.513 Q1733.38 131.073 1736.38 140.228 Q1739.42 149.383 1739.42 158.417 Q1739.42 167.491 1736.38 176.686 Q1733.38 185.882 1727.31 195.401 L1720.82 195.401 Q1726.21 186.125 1728.84 176.97 Q1731.52 167.774 1731.52 158.417 Q1731.52 149.059 1728.84 139.945 Q1726.21 130.83 1720.82 121.513 Z" fill="#000000" fill-rule="nonzero" fill-opacity="1" /><polyline clip-path="url(#clip532)" style="stroke:#ffa500; stroke-linecap:round; stroke-linejoin:round; stroke-width:6; stroke-opacity:1; fill:none" stroke-dasharray="24, 15" points="413.666,1226.45 685.027,1126.79 956.387,1007.6 1227.75,862.575 1499.11,693.14 1770.47,502.228 2041.83,283.465 "/>
<path clip-path="url(#clip532)" d="M397.666 1210.45 L397.666 1242.45 L429.666 1242.45 L429.666 1210.45 L397.666 1210.45 Z" fill="#ffa500" fill-rule="evenodd" fill-opacity="1" stroke="#000000" stroke-opacity="1" stroke-width="3.2"/>
<path clip-path="url(#clip532)" d="M669.027 1110.79 L669.027 1142.79 L701.027 1142.79 L701.027 1110.79 L669.027 1110.79 Z" fill="#ffa500" fill-rule="evenodd" fill-opacity="1" stroke="#000000" stroke-opacity="1" stroke-width="3.2"/>
<path clip-path="url(#clip532)" d="M940.387 991.602 L940.387 1023.6 L972.387 1023.6 L972.387 991.602 L940.387 991.602 Z" fill="#ffa500" fill-rule="evenodd" fill-opacity="1" stroke="#000000" stroke-opacity="1" stroke-width="3.2"/>
<path clip-path="url(#clip532)" d="M1211.75 846.575 L1211.75 878.575 L1243.75 878.575 L1243.75 846.575 L1211.75 846.575 Z" fill="#ffa500" fill-rule="evenodd" fill-opacity="1" stroke="#000000" stroke-opacity="1" stroke-width="3.2"/>
<path clip-path="url(#clip532)" d="M1483.11 677.14 L1483.11 709.14 L1515.11 709.14 L1515.11 677.14 L1483.11 677.14 Z" fill="#ffa500" fill-rule="evenodd" fill-opacity="1" stroke="#000000" stroke-opacity="1" stroke-width="3.2"/>
<path clip-path="url(#clip532)" d="M1754.47 486.228 L1754.47 518.228 L1786.47 518.228 L1786.47 486.228 L1754.47 486.228 Z" fill="#ffa500" fill-rule="evenodd" fill-opacity="1" stroke="#000000" stroke-opacity="1" stroke-width="3.2"/>
<path clip-path="url(#clip532)" d="M2025.83 267.465 L2025.83 299.465 L2057.83 299.465 L2057.83 267.465 L2025.83 267.465 Z" fill="#ffa500" fill-rule="evenodd" fill-opacity="1" stroke="#000000" stroke-opacity="1" stroke-width="3.2"/>
<polyline clip-path="url(#clip532)" style="stroke:#0000ff; stroke-linecap:round; stroke-linejoin:round; stroke-width:6; stroke-opacity:1; fill:none" points="413.666,1258.3 685.027,1239.9 956.387,1224.75 1227.75,1199.12 1499.11,1174.76 1770.47,1162.94 2041.83,1140.39 "/>
<circle clip-path="url(#clip532)" cx="413.666" cy="1258.3" r="14.4" fill="#0000ff" fill-rule="evenodd" fill-opacity="1" stroke="#000000" stroke-opacity="1" stroke-width="3.2"/>
<circle clip-path="url(#clip532)" cx="685.027" cy="1239.9" r="14.4" fill="#0000ff" fill-rule="evenodd" fill-opacity="1" stroke="#000000" stroke-opacity="1" stroke-width="3.2"/>
<circle clip-path="url(#clip532)" cx="956.387" cy="1224.75" r="14.4" fill="#0000ff" fill-rule="evenodd" fill-opacity="1" stroke="#000000" stroke-opacity="1" stroke-width="3.2"/>
<circle clip-path="url(#clip532)" cx="1227.75" cy="1199.12" r="14.4" fill="#0000ff" fill-rule="evenodd" fill-opacity="1" stroke="#000000" stroke-opacity="1" stroke-width="3.2"/>
<circle clip-path="url(#clip532)" cx="1499.11" cy="1174.76" r="14.4" fill="#0000ff" fill-rule="evenodd" fill-opacity="1" stroke="#000000" stroke-opacity="1" stroke-width="3.2"/>
<circle clip-path="url(#clip532)" cx="1770.47" cy="1162.94" r="14.4" fill="#0000ff" fill-rule="evenodd" fill-opacity="1" stroke="#000000" stroke-opacity="1" stroke-width="3.2"/>
<circle clip-path="url(#clip532)" cx="2041.83" cy="1140.39" r="14.4" fill="#0000ff" fill-rule="evenodd" fill-opacity="1" stroke="#000000" stroke-opacity="1" stroke-width="3.2"/>
<polyline clip-path="url(#clip532)" style="stroke:#008000; stroke-linecap:round; stroke-linejoin:round; stroke-width:6; stroke-opacity:1; fill:none" stroke-dasharray="24, 12, 3, 12" points="413.666,1249 685.027,1228.89 956.387,1203.79 1227.75,1166.35 1499.11,1128.21 1770.47,1080.83 2041.83,1030.69 "/>
<path clip-path="url(#clip532)" d="M429.666 1233 L397.666 1233 L413.666 1265 L429.666 1233 Z" fill="#008000" fill-rule="evenodd" fill-opacity="1" stroke="#000000" stroke-opacity="1" stroke-width="3.2"/>
<path clip-path="url(#clip532)" d="M701.027 1212.89 L669.027 1212.89 L685.027 1244.89 L701.027 1212.89 Z" fill="#008000" fill-rule="evenodd" fill-opacity="1" stroke="#000000" stroke-opacity="1" stroke-width="3.2"/>
<path clip-path="url(#clip532)" d="M972.387 1187.79 L940.387 1187.79 L956.387 1219.79 L972.387 1187.79 Z" fill="#008000" fill-rule="evenodd" fill-opacity="1" stroke="#000000" stroke-opacity="1" stroke-width="3.2"/>
<path clip-path="url(#clip532)" d="M1243.75 1150.35 L1211.75 1150.35 L1227.75 1182.35 L1243.75 1150.35 Z" fill="#008000" fill-rule="evenodd" fill-opacity="1" stroke="#000000" stroke-opacity="1" stroke-width="3.2"/>
<path clip-path="url(#clip532)" d="M1515.11 1112.21 L1483.11 1112.21 L1499.11 1144.21 L1515.11 1112.21 Z" fill="#008000" fill-rule="evenodd" fill-opacity="1" stroke="#000000" stroke-opacity="1" stroke-width="3.2"/>
<path clip-path="url(#clip532)" d="M1786.47 1064.83 L1754.47 1064.83 L1770.47 1096.83 L1786.47 1064.83 Z" fill="#008000" fill-rule="evenodd" fill-opacity="1" stroke="#000000" stroke-opacity="1" stroke-width="3.2"/>
<path clip-path="url(#clip532)" d="M2057.83 1014.69 L2025.83 1014.69 L2041.83 1046.69 L2057.83 1014.69 Z" fill="#008000" fill-rule="evenodd" fill-opacity="1" stroke="#000000" stroke-opacity="1" stroke-width="3.2"/>
<path clip-path="url(#clip530)" d="M383.515 524.202 L829.629 524.202 L829.629 316.842 L383.515 316.842  Z" fill="#ffffff" fill-rule="evenodd" fill-opacity="1"/>
<polyline clip-path="url(#clip530)" style="stroke:#000000; stroke-linecap:round; stroke-linejoin:round; stroke-width:4; stroke-opacity:1; fill:none" points="383.515,524.202 829.629,524.202 829.629,316.842 383.515,316.842 383.515,524.202 "/>
<polyline clip-path="url(#clip530)" style="stroke:#ffa500; stroke-linecap:round; stroke-linejoin:round; stroke-width:6; stroke-opacity:1; fill:none" stroke-dasharray="24, 15" points="403.616,368.682 524.22,368.682 "/>
<path clip-path="url(#clip530)" d="M445.306 350.07 L445.306 387.294 L482.53 387.294 L482.53 350.07 L445.306 350.07 Z" fill="#ffa500" fill-rule="evenodd" fill-opacity="1" stroke="#000000" stroke-opacity="1" stroke-width="4.55111"/>
<path clip-path="url(#clip530)" d="M544.321 351.402 L548.997 351.402 L548.997 365.569 L565.988 365.569 L565.988 351.402 L570.664 351.402 L570.664 385.962 L565.988 385.962 L565.988 369.504 L548.997 369.504 L548.997 385.962 L544.321 385.962 L544.321 351.402 Z" fill="#000000" fill-rule="nonzero" fill-opacity="1" /><path clip-path="url(#clip530)" d="M579.969 351.402 L586.937 351.402 L595.756 374.92 L604.622 351.402 L611.589 351.402 L611.589 385.962 L607.029 385.962 L607.029 355.615 L598.117 379.319 L593.418 379.319 L584.506 355.615 L584.506 385.962 L579.969 385.962 L579.969 351.402 Z" fill="#000000" fill-rule="nonzero" fill-opacity="1" /><path clip-path="url(#clip530)" d="M620.872 351.402 L627.839 351.402 L636.659 374.92 L645.524 351.402 L652.492 351.402 L652.492 385.962 L647.932 385.962 L647.932 355.615 L639.02 379.319 L634.321 379.319 L625.409 355.615 L625.409 385.962 L620.872 385.962 L620.872 351.402 Z" fill="#000000" fill-rule="nonzero" fill-opacity="1" /><path clip-path="url(#clip530)" d="M666.45 369.457 L666.45 382.119 L673.95 382.119 Q677.723 382.119 679.529 380.569 Q681.358 378.994 681.358 375.777 Q681.358 372.536 679.529 371.008 Q677.723 369.457 673.95 369.457 L666.45 369.457 M666.45 355.245 L666.45 365.661 L673.371 365.661 Q676.797 365.661 678.464 364.388 Q680.154 363.092 680.154 360.453 Q680.154 357.837 678.464 356.541 Q676.797 355.245 673.371 355.245 L666.45 355.245 M661.774 351.402 L673.719 351.402 Q679.066 351.402 681.959 353.624 Q684.853 355.846 684.853 359.944 Q684.853 363.115 683.371 364.99 Q681.89 366.865 679.02 367.328 Q682.469 368.069 684.367 370.43 Q686.288 372.768 686.288 376.286 Q686.288 380.916 683.14 383.439 Q679.992 385.962 674.182 385.962 L661.774 385.962 L661.774 351.402 Z" fill="#000000" fill-rule="nonzero" fill-opacity="1" /><path clip-path="url(#clip530)" d="M705.894 372.93 Q700.732 372.93 698.742 374.11 Q696.751 375.291 696.751 378.138 Q696.751 380.406 698.232 381.749 Q699.737 383.068 702.307 383.068 Q705.848 383.068 707.978 380.569 Q710.131 378.045 710.131 373.879 L710.131 372.93 L705.894 372.93 M714.39 371.17 L714.39 385.962 L710.131 385.962 L710.131 382.027 Q708.672 384.388 706.496 385.522 Q704.32 386.633 701.172 386.633 Q697.191 386.633 694.83 384.411 Q692.492 382.166 692.492 378.416 Q692.492 374.041 695.408 371.819 Q698.348 369.596 704.158 369.596 L710.131 369.596 L710.131 369.18 Q710.131 366.24 708.186 364.643 Q706.265 363.022 702.769 363.022 Q700.547 363.022 698.441 363.555 Q696.334 364.087 694.39 365.152 L694.39 361.217 Q696.728 360.314 698.927 359.874 Q701.126 359.411 703.209 359.411 Q708.834 359.411 711.612 362.328 Q714.39 365.245 714.39 371.17 Z" fill="#000000" fill-rule="nonzero" fill-opacity="1" /><path clip-path="url(#clip530)" d="M739.691 360.8 L739.691 364.828 Q737.885 363.902 735.941 363.439 Q733.996 362.976 731.913 362.976 Q728.742 362.976 727.144 363.948 Q725.57 364.92 725.57 366.865 Q725.57 368.346 726.705 369.203 Q727.839 370.036 731.265 370.8 L732.723 371.124 Q737.26 372.096 739.158 373.879 Q741.079 375.638 741.079 378.809 Q741.079 382.42 738.209 384.527 Q735.362 386.633 730.362 386.633 Q728.279 386.633 726.01 386.217 Q723.765 385.823 721.265 385.013 L721.265 380.615 Q723.626 381.842 725.918 382.467 Q728.209 383.068 730.455 383.068 Q733.464 383.068 735.084 382.05 Q736.704 381.008 736.704 379.133 Q736.704 377.397 735.524 376.471 Q734.367 375.545 730.408 374.689 L728.927 374.342 Q724.968 373.508 723.209 371.795 Q721.45 370.059 721.45 367.05 Q721.45 363.393 724.043 361.402 Q726.635 359.411 731.404 359.411 Q733.765 359.411 735.848 359.758 Q737.931 360.106 739.691 360.8 Z" fill="#000000" fill-rule="nonzero" fill-opacity="1" /><path clip-path="url(#clip530)" d="M770.038 371.934 L770.038 374.018 L750.454 374.018 Q750.732 378.416 753.093 380.731 Q755.478 383.022 759.714 383.022 Q762.167 383.022 764.459 382.42 Q766.774 381.818 769.042 380.615 L769.042 384.643 Q766.751 385.615 764.343 386.124 Q761.936 386.633 759.459 386.633 Q753.255 386.633 749.621 383.022 Q746.01 379.411 746.01 373.254 Q746.01 366.888 749.436 363.161 Q752.885 359.411 758.718 359.411 Q763.95 359.411 766.982 362.791 Q770.038 366.147 770.038 371.934 M765.778 370.684 Q765.732 367.189 763.811 365.106 Q761.913 363.022 758.765 363.022 Q755.2 363.022 753.047 365.036 Q750.917 367.05 750.593 370.707 L765.778 370.684 Z" fill="#000000" fill-rule="nonzero" fill-opacity="1" /><path clip-path="url(#clip530)" d="M777.63 380.082 L782.514 380.082 L782.514 385.962 L777.63 385.962 L777.63 380.082 Z" fill="#000000" fill-rule="nonzero" fill-opacity="1" /><path clip-path="url(#clip530)" d="M792.098 360.036 L796.357 360.036 L796.357 386.425 Q796.357 391.379 794.459 393.601 Q792.584 395.823 788.394 395.823 L786.774 395.823 L786.774 392.212 L787.908 392.212 Q790.338 392.212 791.218 391.078 Q792.098 389.967 792.098 386.425 L792.098 360.036 M792.098 349.944 L796.357 349.944 L796.357 355.337 L792.098 355.337 L792.098 349.944 Z" fill="#000000" fill-rule="nonzero" fill-opacity="1" /><path clip-path="url(#clip530)" d="M805.269 349.944 L809.528 349.944 L809.528 385.962 L805.269 385.962 L805.269 349.944 Z" fill="#000000" fill-rule="nonzero" fill-opacity="1" /><polyline clip-path="url(#clip530)" style="stroke:#0000ff; stroke-linecap:round; stroke-linejoin:round; stroke-width:6; stroke-opacity:1; fill:none" points="403.616,420.522 524.22,420.522 "/>
<circle clip-path="url(#clip530)" cx="463.918" cy="420.522" r="16.7507" fill="#0000ff" fill-rule="evenodd" fill-opacity="1" stroke="#000000" stroke-opacity="1" stroke-width="4.55111"/>
<path clip-path="url(#clip530)" d="M544.321 403.242 L548.997 403.242 L548.997 417.409 L565.988 417.409 L565.988 403.242 L570.664 403.242 L570.664 437.802 L565.988 437.802 L565.988 421.344 L548.997 421.344 L548.997 437.802 L544.321 437.802 L544.321 403.242 Z" fill="#000000" fill-rule="nonzero" fill-opacity="1" /><path clip-path="url(#clip530)" d="M579.969 403.242 L586.937 403.242 L595.756 426.76 L604.622 403.242 L611.589 403.242 L611.589 437.802 L607.029 437.802 L607.029 407.455 L598.117 431.159 L593.418 431.159 L584.506 407.455 L584.506 437.802 L579.969 437.802 L579.969 403.242 Z" fill="#000000" fill-rule="nonzero" fill-opacity="1" /><path clip-path="url(#clip530)" d="M620.872 403.242 L627.839 403.242 L636.659 426.76 L645.524 403.242 L652.492 403.242 L652.492 437.802 L647.932 437.802 L647.932 407.455 L639.02 431.159 L634.321 431.159 L625.409 407.455 L625.409 437.802 L620.872 437.802 L620.872 403.242 Z" fill="#000000" fill-rule="nonzero" fill-opacity="1" /><path clip-path="url(#clip530)" d="M678.117 412.64 L678.117 416.668 Q676.311 415.742 674.367 415.279 Q672.422 414.816 670.339 414.816 Q667.168 414.816 665.571 415.788 Q663.997 416.76 663.997 418.705 Q663.997 420.186 665.131 421.043 Q666.265 421.876 669.691 422.64 L671.149 422.964 Q675.686 423.936 677.584 425.719 Q679.506 427.478 679.506 430.649 Q679.506 434.26 676.635 436.367 Q673.788 438.473 668.788 438.473 Q666.705 438.473 664.436 438.057 Q662.191 437.663 659.691 436.853 L659.691 432.455 Q662.052 433.682 664.344 434.307 Q666.635 434.908 668.881 434.908 Q671.89 434.908 673.51 433.89 Q675.131 432.848 675.131 430.973 Q675.131 429.237 673.95 428.311 Q672.793 427.385 668.834 426.529 L667.353 426.182 Q663.395 425.348 661.635 423.635 Q659.876 421.899 659.876 418.89 Q659.876 415.233 662.469 413.242 Q665.061 411.251 669.83 411.251 Q672.191 411.251 674.274 411.598 Q676.358 411.946 678.117 412.64 Z" fill="#000000" fill-rule="nonzero" fill-opacity="1" /><path clip-path="url(#clip530)" d="M686.89 431.922 L691.774 431.922 L691.774 437.802 L686.89 437.802 L686.89 431.922 Z" fill="#000000" fill-rule="nonzero" fill-opacity="1" /><path clip-path="url(#clip530)" d="M701.357 411.876 L705.617 411.876 L705.617 438.265 Q705.617 443.219 703.719 445.441 Q701.844 447.663 697.654 447.663 L696.033 447.663 L696.033 444.052 L697.168 444.052 Q699.598 444.052 700.478 442.918 Q701.357 441.807 701.357 438.265 L701.357 411.876 M701.357 401.784 L705.617 401.784 L705.617 407.177 L701.357 407.177 L701.357 401.784 Z" fill="#000000" fill-rule="nonzero" fill-opacity="1" /><path clip-path="url(#clip530)" d="M714.529 401.784 L718.788 401.784 L718.788 437.802 L714.529 437.802 L714.529 401.784 Z" fill="#000000" fill-rule="nonzero" fill-opacity="1" /><polyline clip-path="url(#clip530)" style="stroke:#008000; stroke-linecap:round; stroke-linejoin:round; stroke-width:6; stroke-opacity:1; fill:none" stroke-dasharray="24, 12, 3, 12" points="403.616,472.362 524.22,472.362 "/>
<path clip-path="url(#clip530)" d="M482.53 453.75 L445.306 453.75 L463.918 490.974 L482.53 453.75 Z" fill="#008000" fill-rule="evenodd" fill-opacity="1" stroke="#000000" stroke-opacity="1" stroke-width="4.55111"/>
<path clip-path="url(#clip530)" d="M566.034 473.994 L566.034 489.642 L561.775 489.642 L561.775 474.133 Q561.775 470.452 560.34 468.624 Q558.905 466.795 556.034 466.795 Q552.585 466.795 550.594 468.994 Q548.604 471.193 548.604 474.989 L548.604 489.642 L544.321 489.642 L544.321 453.624 L548.604 453.624 L548.604 467.744 Q550.131 465.406 552.192 464.249 Q554.275 463.091 556.983 463.091 Q561.451 463.091 563.742 465.869 Q566.034 468.624 566.034 473.994 Z" fill="#000000" fill-rule="nonzero" fill-opacity="1" /><path clip-path="url(#clip530)" d="M594.715 468.693 Q596.312 465.823 598.534 464.457 Q600.756 463.091 603.765 463.091 Q607.816 463.091 610.015 465.938 Q612.214 468.762 612.214 473.994 L612.214 489.642 L607.932 489.642 L607.932 474.133 Q607.932 470.406 606.613 468.6 Q605.293 466.795 602.585 466.795 Q599.275 466.795 597.353 468.994 Q595.432 471.193 595.432 474.989 L595.432 489.642 L591.15 489.642 L591.15 474.133 Q591.15 470.383 589.83 468.6 Q588.511 466.795 585.756 466.795 Q582.492 466.795 580.571 469.017 Q578.65 471.216 578.65 474.989 L578.65 489.642 L574.367 489.642 L574.367 463.716 L578.65 463.716 L578.65 467.744 Q580.108 465.36 582.145 464.225 Q584.182 463.091 586.983 463.091 Q589.807 463.091 591.775 464.526 Q593.765 465.962 594.715 468.693 Z" fill="#000000" fill-rule="nonzero" fill-opacity="1" /><path clip-path="url(#clip530)" d="M640.895 468.693 Q642.492 465.823 644.714 464.457 Q646.936 463.091 649.946 463.091 Q653.997 463.091 656.196 465.938 Q658.395 468.762 658.395 473.994 L658.395 489.642 L654.112 489.642 L654.112 474.133 Q654.112 470.406 652.793 468.6 Q651.473 466.795 648.765 466.795 Q645.455 466.795 643.534 468.994 Q641.612 471.193 641.612 474.989 L641.612 489.642 L637.33 489.642 L637.33 474.133 Q637.33 470.383 636.011 468.6 Q634.691 466.795 631.937 466.795 Q628.673 466.795 626.751 469.017 Q624.83 471.216 624.83 474.989 L624.83 489.642 L620.548 489.642 L620.548 463.716 L624.83 463.716 L624.83 467.744 Q626.288 465.36 628.325 464.225 Q630.362 463.091 633.163 463.091 Q635.987 463.091 637.955 464.526 Q639.946 465.962 640.895 468.693 Z" fill="#000000" fill-rule="nonzero" fill-opacity="1" /><path clip-path="url(#clip530)" d="M666.89 453.624 L671.149 453.624 L671.149 489.642 L666.89 489.642 L666.89 453.624 Z" fill="#000000" fill-rule="nonzero" fill-opacity="1" /><path clip-path="url(#clip530)" d="M702.237 475.614 L702.237 477.698 L682.654 477.698 Q682.932 482.096 685.293 484.411 Q687.677 486.702 691.913 486.702 Q694.367 486.702 696.658 486.1 Q698.973 485.498 701.242 484.295 L701.242 488.323 Q698.95 489.295 696.543 489.804 Q694.135 490.313 691.658 490.313 Q685.455 490.313 681.821 486.702 Q678.209 483.091 678.209 476.934 Q678.209 470.568 681.635 466.841 Q685.084 463.091 690.918 463.091 Q696.149 463.091 699.182 466.471 Q702.237 469.827 702.237 475.614 M697.978 474.364 Q697.932 470.869 696.01 468.786 Q694.112 466.702 690.964 466.702 Q687.399 466.702 685.246 468.716 Q683.117 470.73 682.793 474.387 L697.978 474.364 Z" fill="#000000" fill-rule="nonzero" fill-opacity="1" /><path clip-path="url(#clip530)" d="M721.01 476.61 Q715.848 476.61 713.857 477.79 Q711.867 478.971 711.867 481.818 Q711.867 484.086 713.348 485.429 Q714.853 486.748 717.422 486.748 Q720.964 486.748 723.093 484.249 Q725.246 481.725 725.246 477.559 L725.246 476.61 L721.01 476.61 M729.505 474.85 L729.505 489.642 L725.246 489.642 L725.246 485.707 Q723.788 488.068 721.612 489.202 Q719.436 490.313 716.288 490.313 Q712.306 490.313 709.945 488.091 Q707.607 485.846 707.607 482.096 Q707.607 477.721 710.524 475.499 Q713.464 473.276 719.274 473.276 L725.246 473.276 L725.246 472.86 Q725.246 469.92 723.302 468.323 Q721.38 466.702 717.885 466.702 Q715.663 466.702 713.556 467.235 Q711.45 467.767 709.506 468.832 L709.506 464.897 Q711.844 463.994 714.043 463.554 Q716.242 463.091 718.325 463.091 Q723.95 463.091 726.728 466.008 Q729.505 468.925 729.505 474.85 Z" fill="#000000" fill-rule="nonzero" fill-opacity="1" /><path clip-path="url(#clip530)" d="M753.302 467.698 Q752.584 467.281 751.728 467.096 Q750.894 466.887 749.876 466.887 Q746.265 466.887 744.32 469.249 Q742.399 471.587 742.399 475.985 L742.399 489.642 L738.117 489.642 L738.117 463.716 L742.399 463.716 L742.399 467.744 Q743.741 465.383 745.894 464.249 Q748.047 463.091 751.126 463.091 Q751.566 463.091 752.098 463.161 Q752.63 463.207 753.278 463.323 L753.302 467.698 Z" fill="#000000" fill-rule="nonzero" fill-opacity="1" /><path clip-path="url(#clip530)" d="M778.487 473.994 L778.487 489.642 L774.227 489.642 L774.227 474.133 Q774.227 470.452 772.792 468.624 Q771.357 466.795 768.487 466.795 Q765.038 466.795 763.047 468.994 Q761.056 471.193 761.056 474.989 L761.056 489.642 L756.774 489.642 L756.774 463.716 L761.056 463.716 L761.056 467.744 Q762.584 465.406 764.644 464.249 Q766.727 463.091 769.436 463.091 Q773.903 463.091 776.195 465.869 Q778.487 468.624 778.487 473.994 Z" fill="#000000" fill-rule="nonzero" fill-opacity="1" /></svg>
