<?xml version="1.0" encoding="utf-8"?>
<svg xmlns="http://www.w3.org/2000/svg" xmlns:xlink="http://www.w3.org/1999/xlink" width="600" height="400" viewBox="0 0 2400 1600">
<defs>
  <clipPath id="clip260">
    <rect x="0" y="0" width="2400" height="1600"/>
  </clipPath>
</defs>
<path clip-path="url(#clip260)" d="M0 1600 L2400 1600 L2400 0 L0 0  Z" fill="#ffffff" fill-rule="evenodd" fill-opacity="1"/>
<defs>
  <clipPath id="clip261">
    <rect x="480" y="0" width="1681" height="1600"/>
  </clipPath>
</defs>
<path clip-path="url(#clip260)" d="M323.213 1284.79 L2132.28 1284.79 L2132.28 283.465 L323.213 283.465  Z" fill="#ffffff" fill-rule="evenodd" fill-opacity="1"/>
<defs>
  <clipPath id="clip262">
    <rect x="323" y="283" width="1810" height="1002"/>
  </clipPath>
</defs>
<polyline clip-path="url(#clip262)" style="stroke:#000000; stroke-linecap:round; stroke-linejoin:round; stroke-width:2; stroke-opacity:0.1; fill:none" points="685.027,1284.79 685.027,283.465 "/>
<polyline clip-path="url(#clip262)" style="stroke:#000000; stroke-linecap:round; stroke-linejoin:round; stroke-width:2; stroke-opacity:0.1; fill:none" points="1137.29,1284.79 1137.29,283.465 "/>
<polyline clip-path="url(#clip262)" style="stroke:#000000; stroke-linecap:round; stroke-linejoin:round; stroke-width:2; stroke-opacity:0.1; fill:none" points="1589.56,1284.79 1589.56,283.465 "/>
<polyline clip-path="url(#clip262)" style="stroke:#000000; stroke-linecap:round; stroke-linejoin:round; stroke-width:2; stroke-opacity:0.1; fill:none" points="2041.83,1284.79 2041.83,283.465 "/>
<polyline clip-path="url(#clip260)" style="stroke:#000000; stroke-linecap:round; stroke-linejoin:round; stroke-width:4; stroke-opacity:1; fill:none" points="323.213,1284.79 2132.28,1284.79 "/>
<polyline clip-path="url(#clip260)" style="stroke:#000000; stroke-linecap:round; stroke-linejoin:round; stroke-width:4; stroke-opacity:1; fill:none" points="685.027,1284.79 685.027,1265.89 "/>
<polyline clip-path="url(#clip260)" style="stroke:#000000; stroke-linecap:round; stroke-linejoin:round; stroke-width:4; stroke-opacity:1; fill:none" points="1137.29,1284.79 1137.29,1265.89 "/>
<polyline clip-path="url(#clip260)" style="stroke:#000000; stroke-linecap:round; stroke-linejoin:round; stroke-width:4; stroke-opacity:1; fill:none" points="1589.56,1284.79 1589.56,1265.89 "/>
<polyline clip-path="url(#clip260)" style="stroke:#000000; stroke-linecap:round; stroke-linejoin:round; stroke-width:4; stroke-opacity:1; fill:none" points="2041.83,1284.79 2041.83,1265.89 "/>
<path clip-path="url(#clip260)" d="M675.305 1312.63 L693.661 1312.63 L693.661 1316.56 L679.587 1316.56 L679.587 1325.03 Q680.605 1324.69 681.624 1324.53 Q682.643 1324.34 683.661 1324.34 Q689.448 1324.34 692.828 1327.51 Q696.207 1330.68 696.207 1336.1 Q696.207 1341.68 692.735 1344.78 Q689.263 1347.86 682.943 1347.86 Q680.768 1347.86 678.499 1347.49 Q676.254 1347.12 673.846 1346.38 L673.846 1341.68 Q675.93 1342.81 678.152 1343.37 Q680.374 1343.92 682.851 1343.92 Q686.855 1343.92 689.193 1341.82 Q691.531 1339.71 691.531 1336.1 Q691.531 1332.49 689.193 1330.38 Q686.855 1328.28 682.851 1328.28 Q680.976 1328.28 679.101 1328.69 Q677.249 1329.11 675.305 1329.99 L675.305 1312.63 Z" fill="#000000" fill-rule="nonzero" fill-opacity="1" /><path clip-path="url(#clip260)" d="M1111.98 1343.25 L1119.62 1343.25 L1119.62 1316.89 L1111.31 1318.55 L1111.31 1314.29 L1119.57 1312.63 L1124.25 1312.63 L1124.25 1343.25 L1131.89 1343.25 L1131.89 1347.19 L1111.98 1347.19 L1111.98 1343.25 Z" fill="#000000" fill-rule="nonzero" fill-opacity="1" /><path clip-path="url(#clip260)" d="M1151.33 1315.71 Q1147.72 1315.71 1145.89 1319.27 Q1144.09 1322.81 1144.09 1329.94 Q1144.09 1337.05 1145.89 1340.61 Q1147.72 1344.16 1151.33 1344.16 Q1154.97 1344.16 1156.77 1340.61 Q1158.6 1337.05 1158.6 1329.94 Q1158.6 1322.81 1156.77 1319.27 Q1154.97 1315.71 1151.33 1315.71 M1151.33 1312 Q1157.14 1312 1160.2 1316.61 Q1163.28 1321.19 1163.28 1329.94 Q1163.28 1338.67 1160.2 1343.28 Q1157.14 1347.86 1151.33 1347.86 Q1145.52 1347.86 1142.44 1343.28 Q1139.39 1338.67 1139.39 1329.94 Q1139.39 1321.19 1142.44 1316.61 Q1145.52 1312 1151.33 1312 Z" fill="#000000" fill-rule="nonzero" fill-opacity="1" /><path clip-path="url(#clip260)" d="M1564.75 1343.25 L1572.39 1343.25 L1572.39 1316.89 L1564.08 1318.55 L1564.08 1314.29 L1572.34 1312.63 L1577.02 1312.63 L1577.02 1343.25 L1584.65 1343.25 L1584.65 1347.19 L1564.75 1347.19 L1564.75 1343.25 Z" fill="#000000" fill-rule="nonzero" fill-opacity="1" /><path clip-path="url(#clip260)" d="M1594.15 1312.63 L1612.5 1312.63 L1612.5 1316.56 L1598.43 1316.56 L1598.43 1325.03 Q1599.45 1324.69 1600.46 1324.53 Q1601.48 1324.34 1602.5 1324.34 Q1608.29 1324.34 1611.67 1327.51 Q1615.05 1330.68 1615.05 1336.1 Q1615.05 1341.68 1611.58 1344.78 Q1608.1 1347.86 1601.78 1347.86 Q1599.61 1347.86 1597.34 1347.49 Q1595.09 1347.12 1592.69 1346.38 L1592.69 1341.68 Q1594.77 1342.81 1596.99 1343.37 Q1599.21 1343.92 1601.69 1343.92 Q1605.7 1343.92 1608.03 1341.82 Q1610.37 1339.71 1610.37 1336.1 Q1610.37 1332.49 1608.03 1330.38 Q1605.7 1328.28 1601.69 1328.28 Q1599.82 1328.28 1597.94 1328.69 Q1596.09 1329.11 1594.15 1329.99 L1594.15 1312.63 Z" fill="#000000" fill-rule="nonzero" fill-opacity="1" /><path clip-path="url(#clip260)" d="M2020.6 1343.25 L2036.92 1343.25 L2036.92 1347.19 L2014.98 1347.19 L2014.98 1343.25 Q2017.64 1340.5 2022.22 1335.87 Q2026.83 1331.22 2028.01 1329.87 Q2030.26 1327.35 2031.14 1325.61 Q2032.04 1323.85 2032.04 1322.16 Q2032.04 1319.41 2030.09 1317.67 Q2028.17 1315.94 2025.07 1315.94 Q2022.87 1315.94 2020.42 1316.7 Q2017.99 1317.47 2015.21 1319.02 L2015.21 1314.29 Q2018.03 1313.16 2020.49 1312.58 Q2022.94 1312 2024.98 1312 Q2030.35 1312 2033.54 1314.69 Q2036.74 1317.37 2036.74 1321.86 Q2036.74 1323.99 2035.93 1325.91 Q2035.14 1327.81 2033.03 1330.41 Q2032.45 1331.08 2029.35 1334.29 Q2026.25 1337.49 2020.6 1343.25 Z" fill="#000000" fill-rule="nonzero" fill-opacity="1" /><path clip-path="url(#clip260)" d="M2056.74 1315.71 Q2053.13 1315.71 2051.3 1319.27 Q2049.49 1322.81 2049.49 1329.94 Q2049.49 1337.05 2051.3 1340.61 Q2053.13 1344.16 2056.74 1344.16 Q2060.37 1344.16 2062.18 1340.61 Q2064.01 1337.05 2064.01 1329.94 Q2064.01 1322.81 2062.18 1319.27 Q2060.37 1315.71 2056.74 1315.71 M2056.74 1312 Q2062.55 1312 2065.6 1316.61 Q2068.68 1321.19 2068.68 1329.94 Q2068.68 1338.67 2065.6 1343.28 Q2062.55 1347.86 2056.74 1347.86 Q2050.93 1347.86 2047.85 1343.28 Q2044.79 1338.67 2044.79 1329.94 Q2044.79 1321.19 2047.85 1316.61 Q2050.93 1312 2056.74 1312 Z" fill="#000000" fill-rule="nonzero" fill-opacity="1" /><path clip-path="url(#clip260)" d="M950.14 1408.14 L950.14 1429.65 L944.283 1429.65 L944.283 1408.33 Q944.283 1403.27 942.31 1400.75 Q940.336 1398.24 936.39 1398.24 Q931.647 1398.24 928.91 1401.26 Q926.173 1404.28 926.173 1409.5 L926.173 1429.65 L920.284 1429.65 L920.284 1394 L926.173 1394 L926.173 1399.54 Q928.273 1396.33 931.106 1394.74 Q933.971 1393.14 937.695 1393.14 Q943.838 1393.14 946.989 1396.96 Q950.14 1400.75 950.14 1408.14 Z" fill="#000000" fill-rule="nonzero" fill-opacity="1" /><path clip-path="url(#clip260)" d="M961.216 1415.58 L961.216 1394 L967.072 1394 L967.072 1415.36 Q967.072 1420.42 969.046 1422.97 Q971.019 1425.48 974.966 1425.48 Q979.708 1425.48 982.446 1422.46 Q985.215 1419.43 985.215 1414.21 L985.215 1394 L991.071 1394 L991.071 1429.65 L985.215 1429.65 L985.215 1424.18 Q983.082 1427.42 980.249 1429.01 Q977.448 1430.57 973.725 1430.57 Q967.582 1430.57 964.399 1426.76 Q961.216 1422.94 961.216 1415.58 M975.953 1393.14 L975.953 1393.14 Z" fill="#000000" fill-rule="nonzero" fill-opacity="1" /><path clip-path="url(#clip260)" d="M1030.89 1400.85 Q1033.08 1396.9 1036.14 1395.02 Q1039.2 1393.14 1043.33 1393.14 Q1048.9 1393.14 1051.93 1397.06 Q1054.95 1400.94 1054.95 1408.14 L1054.95 1429.65 L1049.06 1429.65 L1049.06 1408.33 Q1049.06 1403.2 1047.25 1400.72 Q1045.43 1398.24 1041.71 1398.24 Q1037.16 1398.24 1034.52 1401.26 Q1031.88 1404.28 1031.88 1409.5 L1031.88 1429.65 L1025.99 1429.65 L1025.99 1408.33 Q1025.99 1403.17 1024.17 1400.72 Q1022.36 1398.24 1018.57 1398.24 Q1014.08 1398.24 1011.44 1401.29 Q1008.8 1404.32 1008.8 1409.5 L1008.8 1429.65 L1002.91 1429.65 L1002.91 1394 L1008.8 1394 L1008.8 1399.54 Q1010.8 1396.26 1013.61 1394.7 Q1016.41 1393.14 1020.26 1393.14 Q1024.14 1393.14 1026.85 1395.12 Q1029.58 1397.09 1030.89 1400.85 Z" fill="#000000" fill-rule="nonzero" fill-opacity="1" /><path clip-path="url(#clip260)" d="M1092.22 1411.86 Q1092.22 1405.4 1089.55 1401.74 Q1086.91 1398.05 1082.26 1398.05 Q1077.61 1398.05 1074.94 1401.74 Q1072.3 1405.4 1072.3 1411.86 Q1072.3 1418.32 1074.94 1422.01 Q1077.61 1425.67 1082.26 1425.67 Q1086.91 1425.67 1089.55 1422.01 Q1092.22 1418.32 1092.22 1411.86 M1072.3 1399.41 Q1074.14 1396.23 1076.94 1394.7 Q1079.78 1393.14 1083.69 1393.14 Q1090.19 1393.14 1094.23 1398.3 Q1098.3 1403.46 1098.3 1411.86 Q1098.3 1420.26 1094.23 1425.42 Q1090.19 1430.57 1083.69 1430.57 Q1079.78 1430.57 1076.94 1429.05 Q1074.14 1427.49 1072.3 1424.3 L1072.3 1429.65 L1066.41 1429.65 L1066.41 1380.13 L1072.3 1380.13 L1072.3 1399.41 Z" fill="#000000" fill-rule="nonzero" fill-opacity="1" /><path clip-path="url(#clip260)" d="M1138.5 1410.36 L1138.5 1413.23 L1111.57 1413.23 Q1111.96 1419.28 1115.2 1422.46 Q1118.48 1425.61 1124.31 1425.61 Q1127.68 1425.61 1130.83 1424.78 Q1134.01 1423.95 1137.13 1422.3 L1137.13 1427.84 Q1133.98 1429.17 1130.67 1429.87 Q1127.36 1430.57 1123.96 1430.57 Q1115.43 1430.57 1110.43 1425.61 Q1105.46 1420.64 1105.46 1412.18 Q1105.46 1403.42 1110.17 1398.3 Q1114.92 1393.14 1122.94 1393.14 Q1130.13 1393.14 1134.3 1397.79 Q1138.5 1402.41 1138.5 1410.36 M1132.64 1408.64 Q1132.58 1403.84 1129.94 1400.97 Q1127.33 1398.11 1123 1398.11 Q1118.1 1398.11 1115.14 1400.88 Q1112.21 1403.65 1111.76 1408.68 L1132.64 1408.64 Z" fill="#000000" fill-rule="nonzero" fill-opacity="1" /><path clip-path="url(#clip260)" d="M1168.77 1399.48 Q1167.78 1398.91 1166.61 1398.65 Q1165.46 1398.36 1164.06 1398.36 Q1159.09 1398.36 1156.42 1401.61 Q1153.78 1404.83 1153.78 1410.87 L1153.78 1429.65 L1147.89 1429.65 L1147.89 1394 L1153.78 1394 L1153.78 1399.54 Q1155.62 1396.3 1158.58 1394.74 Q1161.54 1393.14 1165.78 1393.14 Q1166.38 1393.14 1167.11 1393.24 Q1167.85 1393.3 1168.74 1393.46 L1168.77 1399.48 Z" fill="#000000" fill-rule="nonzero" fill-opacity="1" /><path clip-path="url(#clip260)" d="M1209.45 1398.11 Q1204.74 1398.11 1202 1401.8 Q1199.26 1405.46 1199.26 1411.86 Q1199.26 1418.26 1201.97 1421.95 Q1204.7 1425.61 1209.45 1425.61 Q1214.13 1425.61 1216.86 1421.92 Q1219.6 1418.22 1219.6 1411.86 Q1219.6 1405.53 1216.86 1401.83 Q1214.13 1398.11 1209.45 1398.11 M1209.45 1393.14 Q1217.09 1393.14 1221.45 1398.11 Q1225.81 1403.07 1225.81 1411.86 Q1225.81 1420.61 1221.45 1425.61 Q1217.09 1430.57 1209.45 1430.57 Q1201.78 1430.57 1197.42 1425.61 Q1193.09 1420.61 1193.09 1411.86 Q1193.09 1403.07 1197.42 1398.11 Q1201.78 1393.14 1209.45 1393.14 Z" fill="#000000" fill-rule="nonzero" fill-opacity="1" /><path clip-path="url(#clip260)" d="M1253.56 1380.13 L1253.56 1385 L1247.96 1385 Q1244.81 1385 1243.57 1386.27 Q1242.36 1387.54 1242.36 1390.85 L1242.36 1394 L1252 1394 L1252 1398.55 L1242.36 1398.55 L1242.36 1429.65 L1236.47 1429.65 L1236.47 1398.55 L1230.87 1398.55 L1230.87 1394 L1236.47 1394 L1236.47 1391.52 Q1236.47 1385.57 1239.24 1382.86 Q1242.01 1380.13 1248.02 1380.13 L1253.56 1380.13 Z" fill="#000000" fill-rule="nonzero" fill-opacity="1" /><path clip-path="url(#clip260)" d="M1301.91 1395.05 L1301.91 1400.59 Q1299.43 1399.32 1296.75 1398.68 Q1294.08 1398.05 1291.21 1398.05 Q1286.85 1398.05 1284.66 1399.38 Q1282.49 1400.72 1282.49 1403.39 Q1282.49 1405.43 1284.05 1406.61 Q1285.61 1407.75 1290.32 1408.8 L1292.33 1409.25 Q1298.57 1410.59 1301.18 1413.04 Q1303.82 1415.46 1303.82 1419.82 Q1303.82 1424.78 1299.87 1427.68 Q1295.96 1430.57 1289.08 1430.57 Q1286.22 1430.57 1283.1 1430 Q1280.01 1429.46 1276.57 1428.35 L1276.57 1422.3 Q1279.82 1423.99 1282.97 1424.85 Q1286.12 1425.67 1289.21 1425.67 Q1293.35 1425.67 1295.57 1424.27 Q1297.8 1422.84 1297.8 1420.26 Q1297.8 1417.87 1296.18 1416.6 Q1294.59 1415.33 1289.15 1414.15 L1287.11 1413.67 Q1281.67 1412.53 1279.25 1410.17 Q1276.83 1407.79 1276.83 1403.65 Q1276.83 1398.62 1280.39 1395.88 Q1283.96 1393.14 1290.51 1393.14 Q1293.76 1393.14 1296.62 1393.62 Q1299.49 1394.1 1301.91 1395.05 Z" fill="#000000" fill-rule="nonzero" fill-opacity="1" /><path clip-path="url(#clip260)" d="M1318.94 1383.88 L1318.94 1394 L1331 1394 L1331 1398.55 L1318.94 1398.55 L1318.94 1417.91 Q1318.94 1422.27 1320.11 1423.51 Q1321.32 1424.75 1324.98 1424.75 L1331 1424.75 L1331 1429.65 L1324.98 1429.65 Q1318.2 1429.65 1315.63 1427.14 Q1313.05 1424.59 1313.05 1417.91 L1313.05 1398.55 L1308.75 1398.55 L1308.75 1394 L1313.05 1394 L1313.05 1383.88 L1318.94 1383.88 Z" fill="#000000" fill-rule="nonzero" fill-opacity="1" /><path clip-path="url(#clip260)" d="M1354.9 1411.73 Q1347.81 1411.73 1345.07 1413.36 Q1342.33 1414.98 1342.33 1418.89 Q1342.33 1422.01 1344.37 1423.86 Q1346.44 1425.67 1349.97 1425.67 Q1354.84 1425.67 1357.77 1422.24 Q1360.73 1418.77 1360.73 1413.04 L1360.73 1411.73 L1354.9 1411.73 M1366.58 1409.31 L1366.58 1429.65 L1360.73 1429.65 L1360.73 1424.24 Q1358.72 1427.49 1355.73 1429.05 Q1352.74 1430.57 1348.41 1430.57 Q1342.94 1430.57 1339.69 1427.52 Q1336.47 1424.43 1336.47 1419.28 Q1336.47 1413.26 1340.48 1410.2 Q1344.53 1407.15 1352.52 1407.15 L1360.73 1407.15 L1360.73 1406.58 Q1360.73 1402.53 1358.05 1400.34 Q1355.41 1398.11 1350.61 1398.11 Q1347.55 1398.11 1344.65 1398.84 Q1341.76 1399.57 1339.08 1401.04 L1339.08 1395.63 Q1342.3 1394.39 1345.32 1393.78 Q1348.35 1393.14 1351.21 1393.14 Q1358.95 1393.14 1362.76 1397.15 Q1366.58 1401.16 1366.58 1409.31 Z" fill="#000000" fill-rule="nonzero" fill-opacity="1" /><path clip-path="url(#clip260)" d="M1384.44 1383.88 L1384.44 1394 L1396.5 1394 L1396.5 1398.55 L1384.44 1398.55 L1384.44 1417.91 Q1384.44 1422.27 1385.62 1423.51 Q1386.83 1424.75 1390.49 1424.75 L1396.5 1424.75 L1396.5 1429.65 L1390.49 1429.65 Q1383.71 1429.65 1381.13 1427.14 Q1378.55 1424.59 1378.55 1417.91 L1378.55 1398.55 L1374.25 1398.55 L1374.25 1394 L1378.55 1394 L1378.55 1383.88 L1384.44 1383.88 Z" fill="#000000" fill-rule="nonzero" fill-opacity="1" /><path clip-path="url(#clip260)" d="M1434.7 1410.36 L1434.7 1413.23 L1407.77 1413.23 Q1408.15 1419.28 1411.4 1422.46 Q1414.68 1425.61 1420.5 1425.61 Q1423.88 1425.61 1427.03 1424.78 Q1430.21 1423.95 1433.33 1422.3 L1433.33 1427.84 Q1430.18 1429.17 1426.87 1429.87 Q1423.56 1430.57 1420.15 1430.57 Q1411.62 1430.57 1406.62 1425.61 Q1401.66 1420.64 1401.66 1412.18 Q1401.66 1403.42 1406.37 1398.3 Q1411.11 1393.14 1419.13 1393.14 Q1426.33 1393.14 1430.5 1397.79 Q1434.7 1402.41 1434.7 1410.36 M1428.84 1408.64 Q1428.78 1403.84 1426.14 1400.97 Q1423.53 1398.11 1419.2 1398.11 Q1414.3 1398.11 1411.34 1400.88 Q1408.41 1403.65 1407.96 1408.68 L1428.84 1408.64 Z" fill="#000000" fill-rule="nonzero" fill-opacity="1" /><path clip-path="url(#clip260)" d="M1467.03 1395.05 L1467.03 1400.59 Q1464.55 1399.32 1461.88 1398.68 Q1459.21 1398.05 1456.34 1398.05 Q1451.98 1398.05 1449.78 1399.38 Q1447.62 1400.72 1447.62 1403.39 Q1447.62 1405.43 1449.18 1406.61 Q1450.74 1407.75 1455.45 1408.8 L1457.45 1409.25 Q1463.69 1410.59 1466.3 1413.04 Q1468.94 1415.46 1468.94 1419.82 Q1468.94 1424.78 1465 1427.68 Q1461.08 1430.57 1454.21 1430.57 Q1451.34 1430.57 1448.22 1430 Q1445.14 1429.46 1441.7 1428.35 L1441.7 1422.3 Q1444.95 1423.99 1448.1 1424.85 Q1451.25 1425.67 1454.34 1425.67 Q1458.47 1425.67 1460.7 1424.27 Q1462.93 1422.84 1462.93 1420.26 Q1462.93 1417.87 1461.31 1416.6 Q1459.71 1415.33 1454.27 1414.15 L1452.23 1413.67 Q1446.79 1412.53 1444.37 1410.17 Q1441.95 1407.79 1441.95 1403.65 Q1441.95 1398.62 1445.52 1395.88 Q1449.08 1393.14 1455.64 1393.14 Q1458.89 1393.14 1461.75 1393.62 Q1464.62 1394.1 1467.03 1395.05 Z" fill="#000000" fill-rule="nonzero" fill-opacity="1" /><path clip-path="url(#clip260)" d="M1499.25 1382.13 L1507.9 1382.13 L1528.97 1421.89 L1528.97 1382.13 L1535.21 1382.13 L1535.21 1429.65 L1526.55 1429.65 L1505.48 1389.9 L1505.48 1429.65 L1499.25 1429.65 L1499.25 1382.13 Z" fill="#000000" fill-rule="nonzero" fill-opacity="1" /><polyline clip-path="url(#clip262)" style="stroke:#000000; stroke-linecap:round; stroke-linejoin:round; stroke-width:2; stroke-opacity:0.1; fill:none" points="323.213,1284.79 2132.28,1284.79 "/>
<polyline clip-path="url(#clip262)" style="stroke:#000000; stroke-linecap:round; stroke-linejoin:round; stroke-width:2; stroke-opacity:0.1; fill:none" points="323.213,998.608 2132.28,998.608 "/>
<polyline clip-path="url(#clip262)" style="stroke:#000000; stroke-linecap:round; stroke-linejoin:round; stroke-width:2; stroke-opacity:0.1; fill:none" points="323.213,712.428 2132.28,712.428 "/>
<polyline clip-path="url(#clip262)" style="stroke:#000000; stroke-linecap:round; stroke-linejoin:round; stroke-width:2; stroke-opacity:0.1; fill:none" points="323.213,426.248 2132.28,426.248 "/>
<polyline clip-path="url(#clip260)" style="stroke:#000000; stroke-linecap:round; stroke-linejoin:round; stroke-width:4; stroke-opacity:1; fill:none" points="323.213,1284.79 323.213,283.465 "/>
<polyline clip-path="url(#clip260)" style="stroke:#000000; stroke-linecap:round; stroke-linejoin:round; stroke-width:4; stroke-opacity:1; fill:none" points="323.213,1284.79 342.11,1284.79 "/>
<polyline clip-path="url(#clip260)" style="stroke:#000000; stroke-linecap:round; stroke-linejoin:round; stroke-width:4; stroke-opacity:1; fill:none" points="323.213,998.608 342.11,998.608 "/>
<polyline clip-path="url(#clip260)" style="stroke:#000000; stroke-linecap:round; stroke-linejoin:round; stroke-width:4; stroke-opacity:1; fill:none" points="323.213,712.428 342.11,712.428 "/>
<polyline clip-path="url(#clip260)" style="stroke:#000000; stroke-linecap:round; stroke-linejoin:round; stroke-width:4; stroke-opacity:1; fill:none" points="323.213,426.248 342.11,426.248 "/>
<path clip-path="url(#clip260)" d="M275.268 1270.59 Q271.657 1270.59 269.828 1274.15 Q268.023 1277.69 268.023 1284.82 Q268.023 1291.93 269.828 1295.49 Q271.657 1299.04 275.268 1299.04 Q278.902 1299.04 280.708 1295.49 Q282.537 1291.93 282.537 1284.82 Q282.537 1277.69 280.708 1274.15 Q278.902 1270.59 275.268 1270.59 M275.268 1266.88 Q281.078 1266.88 284.134 1271.49 Q287.213 1276.07 287.213 1284.82 Q287.213 1293.55 284.134 1298.16 Q281.078 1302.74 275.268 1302.74 Q269.458 1302.74 266.379 1298.16 Q263.324 1293.55 263.324 1284.82 Q263.324 1276.07 266.379 1271.49 Q269.458 1266.88 275.268 1266.88 Z" fill="#000000" fill-rule="nonzero" fill-opacity="1" /><path clip-path="url(#clip260)" d="M267.305 1011.95 L274.944 1011.95 L274.944 985.587 L266.634 987.253 L266.634 982.994 L274.898 981.328 L279.574 981.328 L279.574 1011.95 L287.213 1011.95 L287.213 1015.89 L267.305 1015.89 L267.305 1011.95 Z" fill="#000000" fill-rule="nonzero" fill-opacity="1" /><path clip-path="url(#clip260)" d="M270.893 725.772 L287.213 725.772 L287.213 729.708 L265.268 729.708 L265.268 725.772 Q267.93 723.018 272.514 718.388 Q277.12 713.735 278.301 712.393 Q280.546 709.87 281.426 708.134 Q282.328 706.374 282.328 704.685 Q282.328 701.93 280.384 700.194 Q278.463 698.458 275.361 698.458 Q273.162 698.458 270.708 699.222 Q268.278 699.986 265.5 701.536 L265.5 696.814 Q268.324 695.68 270.778 695.101 Q273.231 694.523 275.268 694.523 Q280.639 694.523 283.833 697.208 Q287.027 699.893 287.027 704.384 Q287.027 706.513 286.217 708.435 Q285.43 710.333 283.324 712.925 Q282.745 713.597 279.643 716.814 Q276.541 720.009 270.893 725.772 Z" fill="#000000" fill-rule="nonzero" fill-opacity="1" /><path clip-path="url(#clip260)" d="M280.083 424.894 Q283.439 425.611 285.314 427.88 Q287.213 430.148 287.213 433.481 Q287.213 438.597 283.694 441.398 Q280.176 444.199 273.694 444.199 Q271.518 444.199 269.203 443.759 Q266.912 443.343 264.458 442.486 L264.458 437.972 Q266.403 439.106 268.717 439.685 Q271.032 440.264 273.555 440.264 Q277.953 440.264 280.245 438.528 Q282.56 436.792 282.56 433.481 Q282.56 430.426 280.407 428.713 Q278.277 426.977 274.458 426.977 L270.43 426.977 L270.43 423.134 L274.643 423.134 Q278.092 423.134 279.921 421.769 Q281.75 420.38 281.75 417.787 Q281.75 415.125 279.852 413.713 Q277.977 412.278 274.458 412.278 Q272.537 412.278 270.338 412.695 Q268.139 413.111 265.5 413.991 L265.5 409.824 Q268.162 409.083 270.477 408.713 Q272.815 408.343 274.875 408.343 Q280.199 408.343 283.301 410.773 Q286.402 413.181 286.402 417.301 Q286.402 420.171 284.759 422.162 Q283.115 424.13 280.083 424.894 Z" fill="#000000" fill-rule="nonzero" fill-opacity="1" /><path clip-path="url(#clip260)" d="M169.208 975.957 L175.988 975.957 Q172.964 979.203 171.468 982.895 Q169.972 986.555 169.972 990.693 Q169.972 998.841 174.969 1003.17 Q179.934 1007.5 189.356 1007.5 Q198.745 1007.5 203.742 1003.17 Q208.707 998.841 208.707 990.693 Q208.707 986.555 207.211 982.895 Q205.715 979.203 202.692 975.957 L209.408 975.957 Q211.699 979.33 212.845 983.118 Q213.991 986.874 213.991 991.075 Q213.991 1001.86 207.402 1008.07 Q200.782 1014.28 189.356 1014.28 Q177.897 1014.28 171.309 1008.07 Q164.688 1001.86 164.688 991.075 Q164.688 986.81 165.834 983.054 Q166.948 979.267 169.208 975.957 Z" fill="#000000" fill-rule="nonzero" fill-opacity="1" /><path clip-path="url(#clip260)" d="M170.831 959.597 L188.687 959.597 L188.687 951.512 Q188.687 947.024 186.364 944.574 Q184.04 942.123 179.743 942.123 Q175.478 942.123 173.155 944.574 Q170.831 947.024 170.831 951.512 L170.831 959.597 M165.548 966.026 L165.548 951.512 Q165.548 943.523 169.176 939.449 Q172.773 935.343 179.743 935.343 Q186.777 935.343 190.374 939.449 Q193.971 943.523 193.971 951.512 L193.971 959.597 L213.068 959.597 L213.068 966.026 L165.548 966.026 Z" fill="#000000" fill-rule="nonzero" fill-opacity="1" /><path clip-path="url(#clip260)" d="M165.548 927.45 L165.548 920.989 L194.416 920.989 Q202.055 920.989 205.429 918.22 Q208.771 915.451 208.771 909.244 Q208.771 903.069 205.429 900.3 Q202.055 897.531 194.416 897.531 L165.548 897.531 L165.548 891.07 L195.212 891.07 Q204.506 891.07 209.248 895.685 Q213.991 900.268 213.991 909.244 Q213.991 918.251 209.248 922.867 Q204.506 927.45 195.212 927.45 L165.548 927.45 Z" fill="#000000" fill-rule="nonzero" fill-opacity="1" /><path clip-path="url(#clip260)" d="M167.298 852.748 L177.42 852.748 L177.42 840.685 L181.971 840.685 L181.971 852.748 L201.323 852.748 Q205.684 852.748 206.925 851.571 Q208.166 850.361 208.166 846.701 L208.166 840.685 L213.068 840.685 L213.068 846.701 Q213.068 853.48 210.553 856.058 Q208.007 858.637 201.323 858.637 L181.971 858.637 L181.971 862.933 L177.42 862.933 L177.42 858.637 L167.298 858.637 L167.298 852.748 Z" fill="#000000" fill-rule="nonzero" fill-opacity="1" /><path clip-path="url(#clip260)" d="M177.42 832.983 L177.42 827.126 L213.068 827.126 L213.068 832.983 L177.42 832.983 M163.543 832.983 L163.543 827.126 L170.959 827.126 L170.959 832.983 L163.543 832.983 Z" fill="#000000" fill-rule="nonzero" fill-opacity="1" /><path clip-path="url(#clip260)" d="M184.263 787.118 Q180.316 784.922 178.438 781.866 Q176.561 778.811 176.561 774.673 Q176.561 769.103 180.475 766.079 Q184.359 763.055 191.552 763.055 L213.068 763.055 L213.068 768.944 L191.743 768.944 Q186.618 768.944 184.136 770.758 Q181.653 772.572 181.653 776.296 Q181.653 780.848 184.677 783.489 Q187.7 786.131 192.92 786.131 L213.068 786.131 L213.068 792.019 L191.743 792.019 Q186.586 792.019 184.136 793.834 Q181.653 795.648 181.653 799.436 Q181.653 803.923 184.709 806.565 Q187.732 809.207 192.92 809.207 L213.068 809.207 L213.068 815.095 L177.42 815.095 L177.42 809.207 L182.958 809.207 Q179.68 807.202 178.12 804.401 Q176.561 801.6 176.561 797.749 Q176.561 793.866 178.534 791.16 Q180.507 788.423 184.263 787.118 Z" fill="#000000" fill-rule="nonzero" fill-opacity="1" /><path clip-path="url(#clip260)" d="M193.78 720.883 L196.644 720.883 L196.644 747.81 Q202.692 747.428 205.875 744.181 Q209.026 740.903 209.026 735.078 Q209.026 731.704 208.198 728.553 Q207.371 725.371 205.715 722.251 L211.254 722.251 Q212.59 725.402 213.291 728.713 Q213.991 732.023 213.991 735.428 Q213.991 743.958 209.026 748.955 Q204.06 753.921 195.594 753.921 Q186.841 753.921 181.717 749.21 Q176.561 744.468 176.561 736.447 Q176.561 729.254 181.207 725.084 Q185.823 720.883 193.78 720.883 M192.061 726.739 Q187.255 726.803 184.39 729.445 Q181.526 732.055 181.526 736.383 Q181.526 741.285 184.295 744.245 Q187.064 747.173 192.093 747.619 L192.061 726.739 Z" fill="#000000" fill-rule="nonzero" fill-opacity="1" /><path clip-path="url(#clip260)" d="M163.606 676.482 Q170.927 680.747 178.088 682.816 Q185.25 684.885 192.602 684.885 Q199.954 684.885 207.18 682.816 Q214.373 680.715 221.662 676.482 L221.662 681.574 Q214.182 686.349 206.957 688.736 Q199.732 691.091 192.602 691.091 Q185.504 691.091 178.311 688.736 Q171.118 686.381 163.606 681.574 L163.606 676.482 Z" fill="#000000" fill-rule="nonzero" fill-opacity="1" /><path clip-path="url(#clip260)" d="M184.263 637.365 Q180.316 635.168 178.438 632.113 Q176.561 629.057 176.561 624.92 Q176.561 619.35 180.475 616.326 Q184.359 613.302 191.552 613.302 L213.068 613.302 L213.068 619.191 L191.743 619.191 Q186.618 619.191 184.136 621.005 Q181.653 622.819 181.653 626.543 Q181.653 631.094 184.677 633.736 Q187.7 636.378 192.92 636.378 L213.068 636.378 L213.068 642.266 L191.743 642.266 Q186.586 642.266 184.136 644.08 Q181.653 645.895 181.653 649.682 Q181.653 654.17 184.709 656.812 Q187.732 659.454 192.92 659.454 L213.068 659.454 L213.068 665.342 L177.42 665.342 L177.42 659.454 L182.958 659.454 Q179.68 657.448 178.12 654.648 Q176.561 651.847 176.561 647.995 Q176.561 644.112 178.534 641.407 Q180.507 638.67 184.263 637.365 Z" fill="#000000" fill-rule="nonzero" fill-opacity="1" /><path clip-path="url(#clip260)" d="M178.47 578.896 L184.008 578.896 Q182.735 581.378 182.099 584.052 Q181.462 586.725 181.462 589.59 Q181.462 593.95 182.799 596.147 Q184.136 598.311 186.809 598.311 Q188.846 598.311 190.024 596.751 Q191.17 595.192 192.22 590.481 L192.666 588.476 Q194.003 582.238 196.453 579.628 Q198.872 576.986 203.233 576.986 Q208.198 576.986 211.094 580.933 Q213.991 584.848 213.991 591.723 Q213.991 594.587 213.418 597.706 Q212.877 600.794 211.763 604.231 L205.715 604.231 Q207.402 600.985 208.262 597.834 Q209.089 594.683 209.089 591.595 Q209.089 587.457 207.689 585.229 Q206.257 583.001 203.678 583.001 Q201.291 583.001 200.018 584.625 Q198.745 586.216 197.567 591.659 L197.09 593.696 Q195.944 599.139 193.589 601.558 Q191.202 603.976 187.064 603.976 Q182.035 603.976 179.298 600.412 Q176.561 596.847 176.561 590.29 Q176.561 587.044 177.038 584.179 Q177.515 581.315 178.47 578.896 Z" fill="#000000" fill-rule="nonzero" fill-opacity="1" /><path clip-path="url(#clip260)" d="M163.606 568.583 L163.606 563.491 Q171.118 558.716 178.311 556.361 Q185.504 553.974 192.602 553.974 Q199.732 553.974 206.957 556.361 Q214.182 558.716 221.662 563.491 L221.662 568.583 Q214.373 564.35 207.18 562.281 Q199.954 560.18 192.602 560.18 Q185.25 560.18 178.088 562.281 Q170.927 564.35 163.606 568.583 Z" fill="#000000" fill-rule="nonzero" fill-opacity="1" /><path clip-path="url(#clip260)" d="M852.574 33.264 L887.33 33.264 L887.33 40.1505 L860.756 40.1505 L860.756 57.9745 L884.738 57.9745 L884.738 64.8611 L860.756 64.8611 L860.756 93.744 L852.574 93.744 L852.574 33.264 Z" fill="#000000" fill-rule="nonzero" fill-opacity="1" /><path clip-path="url(#clip260)" d="M914.593 53.5995 Q908.598 53.5995 905.114 58.2986 Q901.63 62.9571 901.63 71.0994 Q901.63 79.2418 905.073 83.9408 Q908.557 88.5994 914.593 88.5994 Q920.548 88.5994 924.031 83.9003 Q927.515 79.2013 927.515 71.0994 Q927.515 63.0381 924.031 58.3391 Q920.548 53.5995 914.593 53.5995 M914.593 47.2801 Q924.315 47.2801 929.865 53.5995 Q935.415 59.9189 935.415 71.0994 Q935.415 82.2394 929.865 88.5994 Q924.315 94.9188 914.593 94.9188 Q904.83 94.9188 899.28 88.5994 Q893.771 82.2394 893.771 71.0994 Q893.771 59.9189 899.28 53.5995 Q904.83 47.2801 914.593 47.2801 Z" fill="#000000" fill-rule="nonzero" fill-opacity="1" /><path clip-path="url(#clip260)" d="M974.06 55.3414 Q972.804 54.6123 971.306 54.2882 Q969.847 53.9236 968.065 53.9236 Q961.745 53.9236 958.343 58.0555 Q954.98 62.1469 954.98 69.8437 L954.98 93.744 L947.486 93.744 L947.486 48.3739 L954.98 48.3739 L954.98 55.4224 Q957.33 51.2905 961.097 49.3056 Q964.865 47.2801 970.252 47.2801 Q971.022 47.2801 971.954 47.4017 Q972.885 47.4827 974.02 47.6852 L974.06 55.3414 Z" fill="#000000" fill-rule="nonzero" fill-opacity="1" /><path clip-path="url(#clip260)" d="M977.544 48.3739 L984.998 48.3739 L994.315 83.7788 L1003.59 48.3739 L1012.38 48.3739 L1021.7 83.7788 L1030.98 48.3739 L1038.43 48.3739 L1026.56 93.744 L1017.77 93.744 L1008.01 56.5567 L998.204 93.744 L989.413 93.744 L977.544 48.3739 Z" fill="#000000" fill-rule="nonzero" fill-opacity="1" /><path clip-path="url(#clip260)" d="M1070.35 70.9374 Q1061.32 70.9374 1057.83 73.0034 Q1054.35 75.0693 1054.35 80.0519 Q1054.35 84.0218 1056.94 86.3714 Q1059.57 88.6804 1064.07 88.6804 Q1070.27 88.6804 1074 84.3054 Q1077.76 79.8899 1077.76 72.5983 L1077.76 70.9374 L1070.35 70.9374 M1085.22 67.8587 L1085.22 93.744 L1077.76 93.744 L1077.76 86.8575 Q1075.21 90.9894 1071.4 92.9743 Q1067.6 94.9188 1062.09 94.9188 Q1055.12 94.9188 1050.99 91.0299 Q1046.9 87.1005 1046.9 80.5381 Q1046.9 72.8818 1052 68.993 Q1057.14 65.1041 1067.31 65.1041 L1077.76 65.1041 L1077.76 64.3749 Q1077.76 59.2303 1074.36 56.4352 Q1071 53.5995 1064.88 53.5995 Q1060.99 53.5995 1057.31 54.5312 Q1053.62 55.463 1050.22 57.3264 L1050.22 50.4398 Q1054.31 48.86 1058.16 48.0903 Q1062.01 47.2801 1065.65 47.2801 Q1075.49 47.2801 1080.36 52.3843 Q1085.22 57.4884 1085.22 67.8587 Z" fill="#000000" fill-rule="nonzero" fill-opacity="1" /><path clip-path="url(#clip260)" d="M1126.86 55.3414 Q1125.6 54.6123 1124.11 54.2882 Q1122.65 53.9236 1120.86 53.9236 Q1114.55 53.9236 1111.14 58.0555 Q1107.78 62.1469 1107.78 69.8437 L1107.78 93.744 L1100.29 93.744 L1100.29 48.3739 L1107.78 48.3739 L1107.78 55.4224 Q1110.13 51.2905 1113.9 49.3056 Q1117.66 47.2801 1123.05 47.2801 Q1123.82 47.2801 1124.75 47.4017 Q1125.69 47.4827 1126.82 47.6852 L1126.86 55.3414 Z" fill="#000000" fill-rule="nonzero" fill-opacity="1" /><path clip-path="url(#clip260)" d="M1163.08 55.2604 L1163.08 30.7119 L1170.53 30.7119 L1170.53 93.744 L1163.08 93.744 L1163.08 86.9385 Q1160.73 90.9894 1157.12 92.9743 Q1153.56 94.9188 1148.53 94.9188 Q1140.31 94.9188 1135.12 88.3563 Q1129.98 81.7938 1129.98 71.0994 Q1129.98 60.4051 1135.12 53.8426 Q1140.31 47.2801 1148.53 47.2801 Q1153.56 47.2801 1157.12 49.2651 Q1160.73 51.2095 1163.08 55.2604 M1137.68 71.0994 Q1137.68 79.3228 1141.04 84.0218 Q1144.44 88.6804 1150.36 88.6804 Q1156.27 88.6804 1159.67 84.0218 Q1163.08 79.3228 1163.08 71.0994 Q1163.08 62.8761 1159.67 58.2176 Q1156.27 53.5185 1150.36 53.5185 Q1144.44 53.5185 1141.04 58.2176 Q1137.68 62.8761 1137.68 71.0994 Z" fill="#000000" fill-rule="nonzero" fill-opacity="1" /><path clip-path="url(#clip260)" d="M1182.11 67.6967 L1203.95 67.6967 L1203.95 74.3402 L1182.11 74.3402 L1182.11 67.6967 Z" fill="#000000" fill-rule="nonzero" fill-opacity="1" /><path clip-path="url(#clip260)" d="M1221.37 64.8611 L1221.37 87.0195 L1234.49 87.0195 Q1241.1 87.0195 1244.26 84.3054 Q1247.46 81.5508 1247.46 75.92 Q1247.46 70.2488 1244.26 67.5752 Q1241.1 64.8611 1234.49 64.8611 L1221.37 64.8611 M1221.37 39.9885 L1221.37 58.2176 L1233.48 58.2176 Q1239.48 58.2176 1242.39 55.9896 Q1245.35 53.7211 1245.35 49.103 Q1245.35 44.5255 1242.39 42.257 Q1239.48 39.9885 1233.48 39.9885 L1221.37 39.9885 M1213.19 33.264 L1234.09 33.264 Q1243.45 33.264 1248.51 37.1529 Q1253.57 41.0417 1253.57 48.2118 Q1253.57 53.7616 1250.98 57.0428 Q1248.39 60.324 1243.36 61.1342 Q1249.4 62.4305 1252.72 66.5624 Q1256.08 70.6538 1256.08 76.8112 Q1256.08 84.913 1250.57 89.3285 Q1245.07 93.744 1234.9 93.744 L1213.19 93.744 L1213.19 33.264 Z" fill="#000000" fill-rule="nonzero" fill-opacity="1" /><path clip-path="url(#clip260)" d="M1290.4 70.9374 Q1281.36 70.9374 1277.88 73.0034 Q1274.39 75.0693 1274.39 80.0519 Q1274.39 84.0218 1276.99 86.3714 Q1279.62 88.6804 1284.12 88.6804 Q1290.31 88.6804 1294.04 84.3054 Q1297.81 79.8899 1297.81 72.5983 L1297.81 70.9374 L1290.4 70.9374 M1305.26 67.8587 L1305.26 93.744 L1297.81 93.744 L1297.81 86.8575 Q1295.26 90.9894 1291.45 92.9743 Q1287.64 94.9188 1282.13 94.9188 Q1275.16 94.9188 1271.03 91.0299 Q1266.94 87.1005 1266.94 80.5381 Q1266.94 72.8818 1272.04 68.993 Q1277.19 65.1041 1287.36 65.1041 L1297.81 65.1041 L1297.81 64.3749 Q1297.81 59.2303 1294.41 56.4352 Q1291.04 53.5995 1284.93 53.5995 Q1281.04 53.5995 1277.35 54.5312 Q1273.67 55.463 1270.26 57.3264 L1270.26 50.4398 Q1274.35 48.86 1278.2 48.0903 Q1282.05 47.2801 1285.7 47.2801 Q1295.54 47.2801 1300.4 52.3843 Q1305.26 57.4884 1305.26 67.8587 Z" fill="#000000" fill-rule="nonzero" fill-opacity="1" /><path clip-path="url(#clip260)" d="M1353.27 50.1158 L1353.27 57.0833 Q1350.11 55.3414 1346.91 54.4907 Q1343.75 53.5995 1340.5 53.5995 Q1333.25 53.5995 1329.24 58.2176 Q1325.23 62.7951 1325.23 71.0994 Q1325.23 79.4038 1329.24 84.0218 Q1333.25 88.5994 1340.5 88.5994 Q1343.75 88.5994 1346.91 87.7487 Q1350.11 86.8575 1353.27 85.1156 L1353.27 92.0021 Q1350.15 93.4604 1346.78 94.1896 Q1343.46 94.9188 1339.69 94.9188 Q1329.45 94.9188 1323.41 88.4778 Q1317.37 82.0369 1317.37 71.0994 Q1317.37 60 1323.45 53.64 Q1329.57 47.2801 1340.18 47.2801 Q1343.62 47.2801 1346.91 48.0093 Q1350.19 48.6979 1353.27 50.1158 Z" fill="#000000" fill-rule="nonzero" fill-opacity="1" /><path clip-path="url(#clip260)" d="M1365.94 30.7119 L1373.44 30.7119 L1373.44 67.9397 L1395.68 48.3739 L1405.2 48.3739 L1381.14 69.6006 L1406.21 93.744 L1396.49 93.744 L1373.44 71.5856 L1373.44 93.744 L1365.94 93.744 L1365.94 30.7119 Z" fill="#000000" fill-rule="nonzero" fill-opacity="1" /><path clip-path="url(#clip260)" d="M1409.94 48.3739 L1417.39 48.3739 L1426.71 83.7788 L1435.98 48.3739 L1444.78 48.3739 L1454.09 83.7788 L1463.37 48.3739 L1470.82 48.3739 L1458.95 93.744 L1450.16 93.744 L1440.4 56.5567 L1430.6 93.744 L1421.81 93.744 L1409.94 48.3739 Z" fill="#000000" fill-rule="nonzero" fill-opacity="1" /><path clip-path="url(#clip260)" d="M1502.74 70.9374 Q1493.71 70.9374 1490.23 73.0034 Q1486.74 75.0693 1486.74 80.0519 Q1486.74 84.0218 1489.34 86.3714 Q1491.97 88.6804 1496.46 88.6804 Q1502.66 88.6804 1506.39 84.3054 Q1510.16 79.8899 1510.16 72.5983 L1510.16 70.9374 L1502.74 70.9374 M1517.61 67.8587 L1517.61 93.744 L1510.16 93.744 L1510.16 86.8575 Q1507.6 90.9894 1503.8 92.9743 Q1499.99 94.9188 1494.48 94.9188 Q1487.51 94.9188 1483.38 91.0299 Q1479.29 87.1005 1479.29 80.5381 Q1479.29 72.8818 1484.39 68.993 Q1489.54 65.1041 1499.71 65.1041 L1510.16 65.1041 L1510.16 64.3749 Q1510.16 59.2303 1506.75 56.4352 Q1503.39 53.5995 1497.27 53.5995 Q1493.39 53.5995 1489.7 54.5312 Q1486.01 55.463 1482.61 57.3264 L1482.61 50.4398 Q1486.7 48.86 1490.55 48.0903 Q1494.4 47.2801 1498.04 47.2801 Q1507.89 47.2801 1512.75 52.3843 Q1517.61 57.4884 1517.61 67.8587 Z" fill="#000000" fill-rule="nonzero" fill-opacity="1" /><path clip-path="url(#clip260)" d="M1559.25 55.3414 Q1558 54.6123 1556.5 54.2882 Q1555.04 53.9236 1553.26 53.9236 Q1546.94 53.9236 1543.54 58.0555 Q1540.17 62.1469 1540.17 69.8437 L1540.17 93.744 L1532.68 93.744 L1532.68 48.3739 L1540.17 48.3739 L1540.17 55.4224 Q1542.52 51.2905 1546.29 49.3056 Q1550.06 47.2801 1555.45 47.2801 Q1556.22 47.2801 1557.15 47.4017 Q1558.08 47.4827 1559.21 47.6852 L1559.25 55.3414 Z" fill="#000000" fill-rule="nonzero" fill-opacity="1" /><path clip-path="url(#clip260)" d="M1595.47 55.2604 L1595.47 30.7119 L1602.92 30.7119 L1602.92 93.744 L1595.47 93.744 L1595.47 86.9385 Q1593.12 90.9894 1589.51 92.9743 Q1585.95 94.9188 1580.93 94.9188 Q1572.7 94.9188 1567.52 88.3563 Q1562.37 81.7938 1562.37 71.0994 Q1562.37 60.4051 1567.52 53.8426 Q1572.7 47.2801 1580.93 47.2801 Q1585.95 47.2801 1589.51 49.2651 Q1593.12 51.2095 1595.47 55.2604 M1570.07 71.0994 Q1570.07 79.3228 1573.43 84.0218 Q1576.83 88.6804 1582.75 88.6804 Q1588.66 88.6804 1592.07 84.0218 Q1595.47 79.3228 1595.47 71.0994 Q1595.47 62.8761 1592.07 58.2176 Q1588.66 53.5185 1582.75 53.5185 Q1576.83 53.5185 1573.43 58.2176 Q1570.07 62.8761 1570.07 71.0994 Z" fill="#000000" fill-rule="nonzero" fill-opacity="1" /><path clip-path="url(#clip260)" d="M847.631 121.513 Q842.203 130.83 839.57 139.945 Q836.937 149.059 836.937 158.417 Q836.937 167.774 839.57 176.97 Q842.244 186.125 847.631 195.401 L841.15 195.401 Q835.074 185.882 832.035 176.686 Q829.038 167.491 829.038 158.417 Q829.038 149.383 832.035 140.228 Q835.033 131.073 841.15 121.513 L847.631 121.513 Z" fill="#000000" fill-rule="nonzero" fill-opacity="1" /><path clip-path="url(#clip260)" d="M870.6 130.709 L870.6 177.739 L880.484 177.739 Q893.002 177.739 898.794 172.068 Q904.628 166.397 904.628 154.163 Q904.628 142.011 898.794 136.38 Q893.002 130.709 880.484 130.709 L870.6 130.709 M862.417 123.984 L879.228 123.984 Q896.809 123.984 905.033 131.316 Q913.256 138.608 913.256 154.163 Q913.256 169.8 904.992 177.132 Q896.728 184.464 879.228 184.464 L862.417 184.464 L862.417 123.984 Z" fill="#000000" fill-rule="nonzero" fill-opacity="1" /><path clip-path="url(#clip260)" d="M926.948 146.791 L978.881 146.791 L978.881 153.596 L926.948 153.596 L926.948 146.791 M926.948 163.318 L978.881 163.318 L978.881 170.205 L926.948 170.205 L926.948 163.318 Z" fill="#000000" fill-rule="nonzero" fill-opacity="1" /><path clip-path="url(#clip260)" d="M997.96 177.577 L1011.33 177.577 L1011.33 131.438 L996.786 134.354 L996.786 126.901 L1011.25 123.984 L1019.43 123.984 L1019.43 177.577 L1032.8 177.577 L1032.8 184.464 L997.96 184.464 L997.96 177.577 Z" fill="#000000" fill-rule="nonzero" fill-opacity="1" /><path clip-path="url(#clip260)" d="M1050.18 174.175 L1058.72 174.175 L1058.72 181.142 L1052.08 194.105 L1046.85 194.105 L1050.18 181.142 L1050.18 174.175 Z" fill="#000000" fill-rule="nonzero" fill-opacity="1" /><path clip-path="url(#clip260)" d="M1066.58 123.984 L1117.75 123.984 L1117.75 130.871 L1096.28 130.871 L1096.28 184.464 L1088.05 184.464 L1088.05 130.871 L1066.58 130.871 L1066.58 123.984 Z" fill="#000000" fill-rule="nonzero" fill-opacity="1" /><path clip-path="url(#clip260)" d="M1126.29 146.791 L1178.23 146.791 L1178.23 153.596 L1126.29 153.596 L1126.29 146.791 M1126.29 163.318 L1178.23 163.318 L1178.23 170.205 L1126.29 170.205 L1126.29 163.318 Z" fill="#000000" fill-rule="nonzero" fill-opacity="1" /><path clip-path="url(#clip260)" d="M1197.31 177.577 L1210.67 177.577 L1210.67 131.438 L1196.13 134.354 L1196.13 126.901 L1210.59 123.984 L1218.78 123.984 L1218.78 177.577 L1232.14 177.577 L1232.14 184.464 L1197.31 184.464 L1197.31 177.577 Z" fill="#000000" fill-rule="nonzero" fill-opacity="1" /><path clip-path="url(#clip260)" d="M1266.17 129.372 Q1259.85 129.372 1256.65 135.61 Q1253.49 141.808 1253.49 154.285 Q1253.49 166.721 1256.65 172.959 Q1259.85 179.157 1266.17 179.157 Q1272.53 179.157 1275.69 172.959 Q1278.89 166.721 1278.89 154.285 Q1278.89 141.808 1275.69 135.61 Q1272.53 129.372 1266.17 129.372 M1266.17 122.89 Q1276.34 122.89 1281.69 130.952 Q1287.07 138.972 1287.07 154.285 Q1287.07 169.557 1281.69 177.618 Q1276.34 185.639 1266.17 185.639 Q1256 185.639 1250.62 177.618 Q1245.27 169.557 1245.27 154.285 Q1245.27 138.972 1250.62 130.952 Q1256 122.89 1266.17 122.89 Z" fill="#000000" fill-rule="nonzero" fill-opacity="1" /><path clip-path="url(#clip260)" d="M1318.95 129.372 Q1312.63 129.372 1309.43 135.61 Q1306.27 141.808 1306.27 154.285 Q1306.27 166.721 1309.43 172.959 Q1312.63 179.157 1318.95 179.157 Q1325.31 179.157 1328.47 172.959 Q1331.67 166.721 1331.67 154.285 Q1331.67 141.808 1328.47 135.61 Q1325.31 129.372 1318.95 129.372 M1318.95 122.89 Q1329.12 122.89 1334.47 130.952 Q1339.86 138.972 1339.86 154.285 Q1339.86 169.557 1334.47 177.618 Q1329.12 185.639 1318.95 185.639 Q1308.79 185.639 1303.4 177.618 Q1298.05 169.557 1298.05 154.285 Q1298.05 138.972 1303.4 130.952 Q1308.79 122.89 1318.95 122.89 Z" fill="#000000" fill-rule="nonzero" fill-opacity="1" /><path clip-path="url(#clip260)" d="M1371.74 129.372 Q1365.42 129.372 1362.22 135.61 Q1359.06 141.808 1359.06 154.285 Q1359.06 166.721 1362.22 172.959 Q1365.42 179.157 1371.74 179.157 Q1378.1 179.157 1381.26 172.959 Q1384.46 166.721 1384.46 154.285 Q1384.46 141.808 1381.26 135.61 Q1378.1 129.372 1371.74 129.372 M1371.74 122.89 Q1381.91 122.89 1387.25 130.952 Q1392.64 138.972 1392.64 154.285 Q1392.64 169.557 1387.25 177.618 Q1381.91 185.639 1371.74 185.639 Q1361.57 185.639 1356.18 177.618 Q1350.83 169.557 1350.83 154.285 Q1350.83 138.972 1356.18 130.952 Q1361.57 122.89 1371.74 122.89 Z" fill="#000000" fill-rule="nonzero" fill-opacity="1" /><path clip-path="url(#clip260)" d="M1407.87 174.175 L1416.42 174.175 L1416.42 181.142 L1409.78 194.105 L1404.55 194.105 L1407.87 181.142 L1407.87 174.175 Z" fill="#000000" fill-rule="nonzero" fill-opacity="1" /><path clip-path="url(#clip260)" d="M1432.66 123.984 L1440.85 123.984 L1440.85 149.545 L1467.99 123.984 L1478.52 123.984 L1448.5 152.178 L1480.67 184.464 L1469.89 184.464 L1440.85 155.338 L1440.85 184.464 L1432.66 184.464 L1432.66 123.984 Z" fill="#000000" fill-rule="nonzero" fill-opacity="1" /><path clip-path="url(#clip260)" d="M1487.71 146.791 L1539.65 146.791 L1539.65 153.596 L1487.71 153.596 L1487.71 146.791 M1487.71 163.318 L1539.65 163.318 L1539.65 170.205 L1487.71 170.205 L1487.71 163.318 Z" fill="#000000" fill-rule="nonzero" fill-opacity="1" /><path clip-path="url(#clip260)" d="M1558.73 177.577 L1572.1 177.577 L1572.1 131.438 L1557.55 134.354 L1557.55 126.901 L1572.01 123.984 L1580.2 123.984 L1580.2 177.577 L1593.56 177.577 L1593.56 184.464 L1558.73 184.464 L1558.73 177.577 Z" fill="#000000" fill-rule="nonzero" fill-opacity="1" /><path clip-path="url(#clip260)" d="M1607.86 121.513 L1614.35 121.513 Q1620.42 131.073 1623.42 140.228 Q1626.46 149.383 1626.46 158.417 Q1626.46 167.491 1623.42 176.686 Q1620.42 185.882 1614.35 195.401 L1607.86 195.401 Q1613.25 186.125 1615.89 176.97 Q1618.56 167.774 1618.56 158.417 Q1618.56 149.059 1615.89 139.945 Q1613.25 130.83 1607.86 121.513 Z" fill="#000000" fill-rule="nonzero" fill-opacity="1" /><polyline clip-path="url(#clip262)" style="stroke:#ffa500; stroke-linecap:round; stroke-linejoin:round; stroke-width:6; stroke-opacity:1; fill:none" stroke-dasharray="24, 15" points="413.666,1192.13 685.027,1062.15 956.387,925.687 1227.75,772.748 1499.11,629.581 1770.47,480.717 2041.83,283.465 "/>
<path clip-path="url(#clip262)" d="M397.666 1176.13 L397.666 1208.13 L429.666 1208.13 L429.666 1176.13 L397.666 1176.13 Z" fill="#ffa500" fill-rule="evenodd" fill-opacity="1" stroke="#000000" stroke-opacity="1" stroke-width="3.2"/>
<path clip-path="url(#clip262)" d="M669.027 1046.15 L669.027 1078.15 L701.027 1078.15 L701.027 1046.15 L669.027 1046.15 Z" fill="#ffa500" fill-rule="evenodd" fill-opacity="1" stroke="#000000" stroke-opacity="1" stroke-width="3.2"/>
<path clip-path="url(#clip262)" d="M940.387 909.687 L940.387 941.687 L972.387 941.687 L972.387 909.687 L940.387 909.687 Z" fill="#ffa500" fill-rule="evenodd" fill-opacity="1" stroke="#000000" stroke-opacity="1" stroke-width="3.2"/>
<path clip-path="url(#clip262)" d="M1211.75 756.748 L1211.75 788.748 L1243.75 788.748 L1243.75 756.748 L1211.75 756.748 Z" fill="#ffa500" fill-rule="evenodd" fill-opacity="1" stroke="#000000" stroke-opacity="1" stroke-width="3.2"/>
<path clip-path="url(#clip262)" d="M1483.11 613.581 L1483.11 645.581 L1515.11 645.581 L1515.11 613.581 L1483.11 613.581 Z" fill="#ffa500" fill-rule="evenodd" fill-opacity="1" stroke="#000000" stroke-opacity="1" stroke-width="3.2"/>
<path clip-path="url(#clip262)" d="M1754.47 464.717 L1754.47 496.717 L1786.47 496.717 L1786.47 464.717 L1754.47 464.717 Z" fill="#ffa500" fill-rule="evenodd" fill-opacity="1" stroke="#000000" stroke-opacity="1" stroke-width="3.2"/>
<path clip-path="url(#clip262)" d="M2025.83 267.465 L2025.83 299.465 L2057.83 299.465 L2057.83 267.465 L2025.83 267.465 Z" fill="#ffa500" fill-rule="evenodd" fill-opacity="1" stroke="#000000" stroke-opacity="1" stroke-width="3.2"/>
<polyline clip-path="url(#clip262)" style="stroke:#0000ff; stroke-linecap:round; stroke-linejoin:round; stroke-width:6; stroke-opacity:1; fill:none" points="413.666,1235.27 685.027,1200.05 956.387,1170.4 1227.75,1122.06 1499.11,1086.18 1770.47,1055.26 2041.83,1018.92 "/>
<circle clip-path="url(#clip262)" cx="413.666" cy="1235.27" r="14.4" fill="#0000ff" fill-rule="evenodd" fill-opacity="1" stroke="#000000" stroke-opacity="1" stroke-width="3.2"/>
<circle clip-path="url(#clip262)" cx="685.027" cy="1200.05" r="14.4" fill="#0000ff" fill-rule="evenodd" fill-opacity="1" stroke="#000000" stroke-opacity="1" stroke-width="3.2"/>
<circle clip-path="url(#clip262)" cx="956.387" cy="1170.4" r="14.4" fill="#0000ff" fill-rule="evenodd" fill-opacity="1" stroke="#000000" stroke-opacity="1" stroke-width="3.2"/>
<circle clip-path="url(#clip262)" cx="1227.75" cy="1122.06" r="14.4" fill="#0000ff" fill-rule="evenodd" fill-opacity="1" stroke="#000000" stroke-opacity="1" stroke-width="3.2"/>
<circle clip-path="url(#clip262)" cx="1499.11" cy="1086.18" r="14.4" fill="#0000ff" fill-rule="evenodd" fill-opacity="1" stroke="#000000" stroke-opacity="1" stroke-width="3.2"/>
<circle clip-path="url(#clip262)" cx="1770.47" cy="1055.26" r="14.4" fill="#0000ff" fill-rule="evenodd" fill-opacity="1" stroke="#000000" stroke-opacity="1" stroke-width="3.2"/>
<circle clip-path="url(#clip262)" cx="2041.83" cy="1018.92" r="14.4" fill="#0000ff" fill-rule="evenodd" fill-opacity="1" stroke="#000000" stroke-opacity="1" stroke-width="3.2"/>
<polyline clip-path="url(#clip262)" style="stroke:#008000; stroke-linecap:round; stroke-linejoin:round; stroke-width:6; stroke-opacity:1; fill:none" stroke-dasharray="24, 12, 3, 12" points="413.666,1248.35 685.027,1222.81 956.387,1180.15 1227.75,1108.51 1499.11,1047.26 1770.47,982.004 2041.83,968.898 "/>
<path clip-path="url(#clip262)" d="M429.666 1232.35 L397.666 1232.35 L413.666 1264.35 L429.666 1232.35 Z" fill="#008000" fill-rule="evenodd" fill-opacity="1" stroke="#000000" stroke-opacity="1" stroke-width="3.2"/>
<path clip-path="url(#clip262)" d="M701.027 1206.81 L669.027 1206.81 L685.027 1238.81 L701.027 1206.81 Z" fill="#008000" fill-rule="evenodd" fill-opacity="1" stroke="#000000" stroke-opacity="1" stroke-width="3.2"/>
<path clip-path="url(#clip262)" d="M972.387 1164.15 L940.387 1164.15 L956.387 1196.15 L972.387 1164.15 Z" fill="#008000" fill-rule="evenodd" fill-opacity="1" stroke="#000000" stroke-opacity="1" stroke-width="3.2"/>
<path clip-path="url(#clip262)" d="M1243.75 1092.51 L1211.75 1092.51 L1227.75 1124.51 L1243.75 1092.51 Z" fill="#008000" fill-rule="evenodd" fill-opacity="1" stroke="#000000" stroke-opacity="1" stroke-width="3.2"/>
<path clip-path="url(#clip262)" d="M1515.11 1031.26 L1483.11 1031.26 L1499.11 1063.26 L1515.11 1031.26 Z" fill="#008000" fill-rule="evenodd" fill-opacity="1" stroke="#000000" stroke-opacity="1" stroke-width="3.2"/>
<path clip-path="url(#clip262)" d="M1786.47 966.004 L1754.47 966.004 L1770.47 998.004 L1786.47 966.004 Z" fill="#008000" fill-rule="evenodd" fill-opacity="1" stroke="#000000" stroke-opacity="1" stroke-width="3.2"/>
<path clip-path="url(#clip262)" d="M2057.83 952.898 L2025.83 952.898 L2041.83 984.898 L2057.83 952.898 Z" fill="#008000" fill-rule="evenodd" fill-opacity="1" stroke="#000000" stroke-opacity="1" stroke-width="3.2"/>
<path clip-path="url(#clip260)" d="M383.515 524.202 L829.629 524.202 L829.629 316.842 L383.515 316.842  Z" fill="#ffffff" fill-rule="evenodd" fill-opacity="1"/>
<polyline clip-path="url(#clip260)" style="stroke:#000000; stroke-linecap:round; stroke-linejoin:round; stroke-width:4; stroke-opacity:1; fill:none" points="383.515,524.202 829.629,524.202 829.629,316.842 383.515,316.842 383.515,524.202 "/>
<polyline clip-path="url(#clip260)" style="stroke:#ffa500; stroke-linecap:round; stroke-linejoin:round; stroke-width:6; stroke-opacity:1; fill:none" stroke-dasharray="24, 15" points="403.616,368.682 524.22,368.682 "/>
<path clip-path="url(#clip260)" d="M445.306 350.07 L445.306 387.294 L482.53 387.294 L482.53 350.07 L445.306 350.07 Z" fill="#ffa500" fill-rule="evenodd" fill-opacity="1" stroke="#000000" stroke-opacity="1" stroke-width="4.55111"/>
<path clip-path="url(#clip260)" d="M544.321 351.402 L548.997 351.402 L548.997 365.569 L565.988 365.569 L565.988 351.402 L570.664 351.402 L570.664 385.962 L565.988 385.962 L565.988 369.504 L548.997 369.504 L548.997 385.962 L544.321 385.962 L544.321 351.402 Z" fill="#000000" fill-rule="nonzero" fill-opacity="1" /><path clip-path="url(#clip260)" d="M579.969 351.402 L586.937 351.402 L595.756 374.92 L604.622 351.402 L611.589 351.402 L611.589 385.962 L607.029 385.962 L607.029 355.615 L598.117 379.319 L593.418 379.319 L584.506 355.615 L584.506 385.962 L579.969 385.962 L579.969 351.402 Z" fill="#000000" fill-rule="nonzero" fill-opacity="1" /><path clip-path="url(#clip260)" d="M620.872 351.402 L627.839 351.402 L636.659 374.92 L645.524 351.402 L652.492 351.402 L652.492 385.962 L647.932 385.962 L647.932 355.615 L639.02 379.319 L634.321 379.319 L625.409 355.615 L625.409 385.962 L620.872 385.962 L620.872 351.402 Z" fill="#000000" fill-rule="nonzero" fill-opacity="1" /><path clip-path="url(#clip260)" d="M666.45 369.457 L666.45 382.119 L673.95 382.119 Q677.723 382.119 679.529 380.569 Q681.358 378.994 681.358 375.777 Q681.358 372.536 679.529 371.008 Q677.723 369.457 673.95 369.457 L666.45 369.457 M666.45 355.245 L666.45 365.661 L673.371 365.661 Q676.797 365.661 678.464 364.388 Q680.154 363.092 680.154 360.453 Q680.154 357.837 678.464 356.541 Q676.797 355.245 673.371 355.245 L666.45 355.245 M661.774 351.402 L673.719 351.402 Q679.066 351.402 681.959 353.624 Q684.853 355.846 684.853 359.944 Q684.853 363.115 683.371 364.99 Q681.89 366.865 679.02 367.328 Q682.469 368.069 684.367 370.43 Q686.288 372.768 686.288 376.286 Q686.288 380.916 683.14 383.439 Q679.992 385.962 674.182 385.962 L661.774 385.962 L661.774 351.402 Z" fill="#000000" fill-rule="nonzero" fill-opacity="1" /><path clip-path="url(#clip260)" d="M705.894 372.93 Q700.732 372.93 698.742 374.11 Q696.751 375.291 696.751 378.138 Q696.751 380.406 698.232 381.749 Q699.737 383.068 702.307 383.068 Q705.848 383.068 707.978 380.569 Q710.131 378.045 710.131 373.879 L710.131 372.93 L705.894 372.93 M714.39 371.17 L714.39 385.962 L710.131 385.962 L710.131 382.027 Q708.672 384.388 706.496 385.522 Q704.32 386.633 701.172 386.633 Q697.191 386.633 694.83 384.411 Q692.492 382.166 692.492 378.416 Q692.492 374.041 695.408 371.819 Q698.348 369.596 704.158 369.596 L710.131 369.596 L710.131 369.18 Q710.131 366.24 708.186 364.643 Q706.265 363.022 702.769 363.022 Q700.547 363.022 698.441 363.555 Q696.334 364.087 694.39 365.152 L694.39 361.217 Q696.728 360.314 698.927 359.874 Q701.126 359.411 703.209 359.411 Q708.834 359.411 711.612 362.328 Q714.39 365.245 714.39 371.17 Z" fill="#000000" fill-rule="nonzero" fill-opacity="1" /><path clip-path="url(#clip260)" d="M739.691 360.8 L739.691 364.828 Q737.885 363.902 735.941 363.439 Q733.996 362.976 731.913 362.976 Q728.742 362.976 727.144 363.948 Q725.57 364.92 725.57 366.865 Q725.57 368.346 726.705 369.203 Q727.839 370.036 731.265 370.8 L732.723 371.124 Q737.26 372.096 739.158 373.879 Q741.079 375.638 741.079 378.809 Q741.079 382.42 738.209 384.527 Q735.362 386.633 730.362 386.633 Q728.279 386.633 726.01 386.217 Q723.765 385.823 721.265 385.013 L721.265 380.615 Q723.626 381.842 725.918 382.467 Q728.209 383.068 730.455 383.068 Q733.464 383.068 735.084 382.05 Q736.704 381.008 736.704 379.133 Q736.704 377.397 735.524 376.471 Q734.367 375.545 730.408 374.689 L728.927 374.342 Q724.968 373.508 723.209 371.795 Q721.45 370.059 721.45 367.05 Q721.45 363.393 724.043 361.402 Q726.635 359.411 731.404 359.411 Q733.765 359.411 735.848 359.758 Q737.931 360.106 739.691 360.8 Z" fill="#000000" fill-rule="nonzero" fill-opacity="1" /><path clip-path="url(#clip260)" d="M770.038 371.934 L770.038 374.018 L750.454 374.018 Q750.732 378.416 753.093 380.731 Q755.478 383.022 759.714 383.022 Q762.167 383.022 764.459 382.42 Q766.774 381.818 769.042 380.615 L769.042 384.643 Q766.751 385.615 764.343 386.124 Q761.936 386.633 759.459 386.633 Q753.255 386.633 749.621 383.022 Q746.01 379.411 746.01 373.254 Q746.01 366.888 749.436 363.161 Q752.885 359.411 758.718 359.411 Q763.95 359.411 766.982 362.791 Q770.038 366.147 770.038 371.934 M765.778 370.684 Q765.732 367.189 763.811 365.106 Q761.913 363.022 758.765 363.022 Q755.2 363.022 753.047 365.036 Q750.917 367.05 750.593 370.707 L765.778 370.684 Z" fill="#000000" fill-rule="nonzero" fill-opacity="1" /><path clip-path="url(#clip260)" d="M777.63 380.082 L782.514 380.082 L782.514 385.962 L777.63 385.962 L777.63 380.082 Z" fill="#000000" fill-rule="nonzero" fill-opacity="1" /><path clip-path="url(#clip260)" d="M792.098 360.036 L796.357 360.036 L796.357 386.425 Q796.357 391.379 794.459 393.601 Q792.584 395.823 788.394 395.823 L786.774 395.823 L786.774 392.212 L787.908 392.212 Q790.338 392.212 791.218 391.078 Q792.098 389.967 792.098 386.425 L792.098 360.036 M792.098 349.944 L796.357 349.944 L796.357 355.337 L792.098 355.337 L792.098 349.944 Z" fill="#000000" fill-rule="nonzero" fill-opacity="1" /><path clip-path="url(#clip260)" d="M805.269 349.944 L809.528 349.944 L809.528 385.962 L805.269 385.962 L805.269 349.944 Z" fill="#000000" fill-rule="nonzero" fill-opacity="1" /><polyline clip-path="url(#clip260)" style="stroke:#0000ff; stroke-linecap:round; stroke-linejoin:round; stroke-width:6; stroke-opacity:1; fill:none" points="403.616,420.522 524.22,420.522 "/>
<circle clip-path="url(#clip260)" cx="463.918" cy="420.522" r="16.7507" fill="#0000ff" fill-rule="evenodd" fill-opacity="1" stroke="#000000" stroke-opacity="1" stroke-width="4.55111"/>
<path clip-path="url(#clip260)" d="M544.321 403.242 L548.997 403.242 L548.997 417.409 L565.988 417.409 L565.988 403.242 L570.664 403.242 L570.664 437.802 L565.988 437.802 L565.988 421.344 L548.997 421.344 L548.997 437.802 L544.321 437.802 L544.321 403.242 Z" fill="#000000" fill-rule="nonzero" fill-opacity="1" /><path clip-path="url(#clip260)" d="M579.969 403.242 L586.937 403.242 L595.756 426.76 L604.622 403.242 L611.589 403.242 L611.589 437.802 L607.029 437.802 L607.029 407.455 L598.117 431.159 L593.418 431.159 L584.506 407.455 L584.506 437.802 L579.969 437.802 L579.969 403.242 Z" fill="#000000" fill-rule="nonzero" fill-opacity="1" /><path clip-path="url(#clip260)" d="M620.872 403.242 L627.839 403.242 L636.659 426.76 L645.524 403.242 L652.492 403.242 L652.492 437.802 L647.932 437.802 L647.932 407.455 L639.02 431.159 L634.321 431.159 L625.409 407.455 L625.409 437.802 L620.872 437.802 L620.872 403.242 Z" fill="#000000" fill-rule="nonzero" fill-opacity="1" /><path clip-path="url(#clip260)" d="M678.117 412.64 L678.117 416.668 Q676.311 415.742 674.367 415.279 Q672.422 414.816 670.339 414.816 Q667.168 414.816 665.571 415.788 Q663.997 416.76 663.997 418.705 Q663.997 420.186 665.131 421.043 Q666.265 421.876 669.691 422.64 L671.149 422.964 Q675.686 423.936 677.584 425.719 Q679.506 427.478 679.506 430.649 Q679.506 434.26 676.635 436.367 Q673.788 438.473 668.788 438.473 Q666.705 438.473 664.436 438.057 Q662.191 437.663 659.691 436.853 L659.691 432.455 Q662.052 433.682 664.344 434.307 Q666.635 434.908 668.881 434.908 Q671.89 434.908 673.51 433.89 Q675.131 432.848 675.131 430.973 Q675.131 429.237 673.95 428.311 Q672.793 427.385 668.834 426.529 L667.353 426.182 Q663.395 425.348 661.635 423.635 Q659.876 421.899 659.876 418.89 Q659.876 415.233 662.469 413.242 Q665.061 411.251 669.83 411.251 Q672.191 411.251 674.274 411.598 Q676.358 411.946 678.117 412.64 Z" fill="#000000" fill-rule="nonzero" fill-opacity="1" /><path clip-path="url(#clip260)" d="M686.89 431.922 L691.774 431.922 L691.774 437.802 L686.89 437.802 L686.89 431.922 Z" fill="#000000" fill-rule="nonzero" fill-opacity="1" /><path clip-path="url(#clip260)" d="M701.357 411.876 L705.617 411.876 L705.617 438.265 Q705.617 443.219 703.719 445.441 Q701.844 447.663 697.654 447.663 L696.033 447.663 L696.033 444.052 L697.168 444.052 Q699.598 444.052 700.478 442.918 Q701.357 441.807 701.357 438.265 L701.357 411.876 M701.357 401.784 L705.617 401.784 L705.617 407.177 L701.357 407.177 L701.357 401.784 Z" fill="#000000" fill-rule="nonzero" fill-opacity="1" /><path clip-path="url(#clip260)" d="M714.529 401.784 L718.788 401.784 L718.788 437.802 L714.529 437.802 L714.529 401.784 Z" fill="#000000" fill-rule="nonzero" fill-opacity="1" /><polyline clip-path="url(#clip260)" style="stroke:#008000; stroke-linecap:round; stroke-linejoin:round; stroke-width:6; stroke-opacity:1; fill:none" stroke-dasharray="24, 12, 3, 12" points="403.616,472.362 524.22,472.362 "/>
<path clip-path="url(#clip260)" d="M482.53 453.75 L445.306 453.75 L463.918 490.974 L482.53 453.75 Z" fill="#008000" fill-rule="evenodd" fill-opacity="1" stroke="#000000" stroke-opacity="1" stroke-width="4.55111"/>
<path clip-path="url(#clip260)" d="M566.034 473.994 L566.034 489.642 L561.775 489.642 L561.775 474.133 Q561.775 470.452 560.34 468.624 Q558.905 466.795 556.034 466.795 Q552.585 466.795 550.594 468.994 Q548.604 471.193 548.604 474.989 L548.604 489.642 L544.321 489.642 L544.321 453.624 L548.604 453.624 L548.604 467.744 Q550.131 465.406 552.192 464.249 Q554.275 463.091 556.983 463.091 Q561.451 463.091 563.742 465.869 Q566.034 468.624 566.034 473.994 Z" fill="#000000" fill-rule="nonzero" fill-opacity="1" /><path clip-path="url(#clip260)" d="M594.715 468.693 Q596.312 465.823 598.534 464.457 Q600.756 463.091 603.765 463.091 Q607.816 463.091 610.015 465.938 Q612.214 468.762 612.214 473.994 L612.214 489.642 L607.932 489.642 L607.932 474.133 Q607.932 470.406 606.613 468.6 Q605.293 466.795 602.585 466.795 Q599.275 466.795 597.353 468.994 Q595.432 471.193 595.432 474.989 L595.432 489.642 L591.15 489.642 L591.15 474.133 Q591.15 470.383 589.83 468.6 Q588.511 466.795 585.756 466.795 Q582.492 466.795 580.571 469.017 Q578.65 471.216 578.65 474.989 L578.65 489.642 L574.367 489.642 L574.367 463.716 L578.65 463.716 L578.65 467.744 Q580.108 465.36 582.145 464.225 Q584.182 463.091 586.983 463.091 Q589.807 463.091 591.775 464.526 Q593.765 465.962 594.715 468.693 Z" fill="#000000" fill-rule="nonzero" fill-opacity="1" /><path clip-path="url(#clip260)" d="M640.895 468.693 Q642.492 465.823 644.714 464.457 Q646.936 463.091 649.946 463.091 Q653.997 463.091 656.196 465.938 Q658.395 468.762 658.395 473.994 L658.395 489.642 L654.112 489.642 L654.112 474.133 Q654.112 470.406 652.793 468.6 Q651.473 466.795 648.765 466.795 Q645.455 466.795 643.534 468.994 Q641.612 471.193 641.612 474.989 L641.612 489.642 L637.33 489.642 L637.33 474.133 Q637.33 470.383 636.011 468.6 Q634.691 466.795 631.937 466.795 Q628.673 466.795 626.751 469.017 Q624.83 471.216 624.83 474.989 L624.83 489.642 L620.548 489.642 L620.548 463.716 L624.83 463.716 L624.83 467.744 Q626.288 465.36 628.325 464.225 Q630.362 463.091 633.163 463.091 Q635.987 463.091 637.955 464.526 Q639.946 465.962 640.895 468.693 Z" fill="#000000" fill-rule="nonzero" fill-opacity="1" /><path clip-path="url(#clip260)" d="M666.89 453.624 L671.149 453.624 L671.149 489.642 L666.89 489.642 L666.89 453.624 Z" fill="#000000" fill-rule="nonzero" fill-opacity="1" /><path clip-path="url(#clip260)" d="M702.237 475.614 L702.237 477.698 L682.654 477.698 Q682.932 482.096 685.293 484.411 Q687.677 486.702 691.913 486.702 Q694.367 486.702 696.658 486.1 Q698.973 485.498 701.242 484.295 L701.242 488.323 Q698.95 489.295 696.543 489.804 Q694.135 490.313 691.658 490.313 Q685.455 490.313 681.821 486.702 Q678.209 483.091 678.209 476.934 Q678.209 470.568 681.635 466.841 Q685.084 463.091 690.918 463.091 Q696.149 463.091 699.182 466.471 Q702.237 469.827 702.237 475.614 M697.978 474.364 Q697.932 470.869 696.01 468.786 Q694.112 466.702 690.964 466.702 Q687.399 466.702 685.246 468.716 Q683.117 470.73 682.793 474.387 L697.978 474.364 Z" fill="#000000" fill-rule="nonzero" fill-opacity="1" /><path clip-path="url(#clip260)" d="M721.01 476.61 Q715.848 476.61 713.857 477.79 Q711.867 478.971 711.867 481.818 Q711.867 484.086 713.348 485.429 Q714.853 486.748 717.422 486.748 Q720.964 486.748 723.093 484.249 Q725.246 481.725 725.246 477.559 L725.246 476.61 L721.01 476.61 M729.505 474.85 L729.505 489.642 L725.246 489.642 L725.246 485.707 Q723.788 488.068 721.612 489.202 Q719.436 490.313 716.288 490.313 Q712.306 490.313 709.945 488.091 Q707.607 485.846 707.607 482.096 Q707.607 477.721 710.524 475.499 Q713.464 473.276 719.274 473.276 L725.246 473.276 L725.246 472.86 Q725.246 469.92 723.302 468.323 Q721.38 466.702 717.885 466.702 Q715.663 466.702 713.556 467.235 Q711.45 467.767 709.506 468.832 L709.506 464.897 Q711.844 463.994 714.043 463.554 Q716.242 463.091 718.325 463.091 Q723.95 463.091 726.728 466.008 Q729.505 468.925 729.505 474.85 Z" fill="#000000" fill-rule="nonzero" fill-opacity="1" /><path clip-path="url(#clip260)" d="M753.302 467.698 Q752.584 467.281 751.728 467.096 Q750.894 466.887 749.876 466.887 Q746.265 466.887 744.32 469.249 Q742.399 471.587 742.399 475.985 L742.399 489.642 L738.117 489.642 L738.117 463.716 L742.399 463.716 L742.399 467.744 Q743.741 465.383 745.894 464.249 Q748.047 463.091 751.126 463.091 Q751.566 463.091 752.098 463.161 Q752.63 463.207 753.278 463.323 L753.302 467.698 Z" fill="#000000" fill-rule="nonzero" fill-opacity="1" /><path clip-path="url(#clip260)" d="M778.487 473.994 L778.487 489.642 L774.227 489.642 L774.227 474.133 Q774.227 470.452 772.792 468.624 Q771.357 466.795 768.487 466.795 Q765.038 466.795 763.047 468.994 Q761.056 471.193 761.056 474.989 L761.056 489.642 L756.774 489.642 L756.774 463.716 L761.056 463.716 L761.056 467.744 Q762.584 465.406 764.644 464.249 Q766.727 463.091 769.436 463.091 Q773.903 463.091 776.195 465.869 Q778.487 468.624 778.487 473.994 Z" fill="#000000" fill-rule="nonzero" fill-opacity="1" /></svg>
