<?xml version="1.0" encoding="utf-8"?>
<svg xmlns="http://www.w3.org/2000/svg" xmlns:xlink="http://www.w3.org/1999/xlink" width="600" height="400" viewBox="0 0 2400 1600">
<defs>
  <clipPath id="clip870">
    <rect x="0" y="0" width="2400" height="1600"/>
  </clipPath>
</defs>
<path clip-path="url(#clip870)" d="M0 1600 L2400 1600 L2400 0 L0 0  Z" fill="#ffffff" fill-rule="evenodd" fill-opacity="1"/>
<defs>
  <clipPath id="clip871">
    <rect x="480" y="0" width="1681" height="1600"/>
  </clipPath>
</defs>
<path clip-path="url(#clip870)" d="M323.213 1284.79 L2132.28 1284.79 L2132.28 283.465 L323.213 283.465  Z" fill="#ffffff" fill-rule="evenodd" fill-opacity="1"/>
<defs>
  <clipPath id="clip872">
    <rect x="323" y="283" width="1810" height="1002"/>
  </clipPath>
</defs>
<polyline clip-path="url(#clip872)" style="stroke:#000000; stroke-linecap:round; stroke-linejoin:round; stroke-width:2; stroke-opacity:0.1; fill:none" points="652.135,1284.79 652.135,283.465 "/>
<polyline clip-path="url(#clip872)" style="stroke:#000000; stroke-linecap:round; stroke-linejoin:round; stroke-width:2; stroke-opacity:0.1; fill:none" points="1063.29,1284.79 1063.29,283.465 "/>
<polyline clip-path="url(#clip872)" style="stroke:#000000; stroke-linecap:round; stroke-linejoin:round; stroke-width:2; stroke-opacity:0.1; fill:none" points="1474.44,1284.79 1474.44,283.465 "/>
<polyline clip-path="url(#clip872)" style="stroke:#000000; stroke-linecap:round; stroke-linejoin:round; stroke-width:2; stroke-opacity:0.1; fill:none" points="1885.59,1284.79 1885.59,283.465 "/>
<polyline clip-path="url(#clip870)" style="stroke:#000000; stroke-linecap:round; stroke-linejoin:round; stroke-width:4; stroke-opacity:1; fill:none" points="323.213,1284.79 2132.28,1284.79 "/>
<polyline clip-path="url(#clip870)" style="stroke:#000000; stroke-linecap:round; stroke-linejoin:round; stroke-width:4; stroke-opacity:1; fill:none" points="652.135,1284.79 652.135,1265.89 "/>
<polyline clip-path="url(#clip870)" style="stroke:#000000; stroke-linecap:round; stroke-linejoin:round; stroke-width:4; stroke-opacity:1; fill:none" points="1063.29,1284.79 1063.29,1265.89 "/>
<polyline clip-path="url(#clip870)" style="stroke:#000000; stroke-linecap:round; stroke-linejoin:round; stroke-width:4; stroke-opacity:1; fill:none" points="1474.44,1284.79 1474.44,1265.89 "/>
<polyline clip-path="url(#clip870)" style="stroke:#000000; stroke-linecap:round; stroke-linejoin:round; stroke-width:4; stroke-opacity:1; fill:none" points="1885.59,1284.79 1885.59,1265.89 "/>
<path clip-path="url(#clip870)" d="M642.412 1312.63 L660.769 1312.63 L660.769 1316.56 L646.695 1316.56 L646.695 1325.03 Q647.713 1324.69 648.732 1324.53 Q649.75 1324.34 650.769 1324.34 Q656.556 1324.34 659.935 1327.51 Q663.315 1330.68 663.315 1336.1 Q663.315 1341.68 659.843 1344.78 Q656.371 1347.86 650.051 1347.86 Q647.875 1347.86 645.607 1347.49 Q643.361 1347.12 640.954 1346.38 L640.954 1341.68 Q643.037 1342.81 645.26 1343.37 Q647.482 1343.92 649.959 1343.92 Q653.963 1343.92 656.301 1341.82 Q658.639 1339.71 658.639 1336.1 Q658.639 1332.49 656.301 1330.38 Q653.963 1328.28 649.959 1328.28 Q648.084 1328.28 646.209 1328.69 Q644.357 1329.11 642.412 1329.99 L642.412 1312.63 Z" fill="#000000" fill-rule="nonzero" fill-opacity="1" /><path clip-path="url(#clip870)" d="M1037.97 1343.25 L1045.61 1343.25 L1045.61 1316.89 L1037.3 1318.55 L1037.3 1314.29 L1045.57 1312.63 L1050.24 1312.63 L1050.24 1343.25 L1057.88 1343.25 L1057.88 1347.19 L1037.97 1347.19 L1037.97 1343.25 Z" fill="#000000" fill-rule="nonzero" fill-opacity="1" /><path clip-path="url(#clip870)" d="M1077.33 1315.71 Q1073.72 1315.71 1071.89 1319.27 Q1070.08 1322.81 1070.08 1329.94 Q1070.08 1337.05 1071.89 1340.61 Q1073.72 1344.16 1077.33 1344.16 Q1080.96 1344.16 1082.77 1340.61 Q1084.59 1337.05 1084.59 1329.94 Q1084.59 1322.81 1082.77 1319.27 Q1080.96 1315.71 1077.33 1315.71 M1077.33 1312 Q1083.14 1312 1086.19 1316.61 Q1089.27 1321.19 1089.27 1329.94 Q1089.27 1338.67 1086.19 1343.28 Q1083.14 1347.86 1077.33 1347.86 Q1071.52 1347.86 1068.44 1343.28 Q1065.38 1338.67 1065.38 1329.94 Q1065.38 1321.19 1068.44 1316.61 Q1071.52 1312 1077.33 1312 Z" fill="#000000" fill-rule="nonzero" fill-opacity="1" /><path clip-path="url(#clip870)" d="M1449.62 1343.25 L1457.26 1343.25 L1457.26 1316.89 L1448.95 1318.55 L1448.95 1314.29 L1457.22 1312.63 L1461.89 1312.63 L1461.89 1343.25 L1469.53 1343.25 L1469.53 1347.19 L1449.62 1347.19 L1449.62 1343.25 Z" fill="#000000" fill-rule="nonzero" fill-opacity="1" /><path clip-path="url(#clip870)" d="M1479.02 1312.63 L1497.38 1312.63 L1497.38 1316.56 L1483.31 1316.56 L1483.31 1325.03 Q1484.32 1324.69 1485.34 1324.53 Q1486.36 1324.34 1487.38 1324.34 Q1493.17 1324.34 1496.55 1327.51 Q1499.93 1330.68 1499.93 1336.1 Q1499.93 1341.68 1496.45 1344.78 Q1492.98 1347.86 1486.66 1347.86 Q1484.49 1347.86 1482.22 1347.49 Q1479.97 1347.12 1477.56 1346.38 L1477.56 1341.68 Q1479.65 1342.81 1481.87 1343.37 Q1484.09 1343.92 1486.57 1343.92 Q1490.57 1343.92 1492.91 1341.82 Q1495.25 1339.71 1495.25 1336.1 Q1495.25 1332.49 1492.91 1330.38 Q1490.57 1328.28 1486.57 1328.28 Q1484.69 1328.28 1482.82 1328.69 Q1480.97 1329.11 1479.02 1329.99 L1479.02 1312.63 Z" fill="#000000" fill-rule="nonzero" fill-opacity="1" /><path clip-path="url(#clip870)" d="M1864.37 1343.25 L1880.68 1343.25 L1880.68 1347.19 L1858.74 1347.19 L1858.74 1343.25 Q1861.4 1340.5 1865.99 1335.87 Q1870.59 1331.22 1871.77 1329.87 Q1874.02 1327.35 1874.9 1325.61 Q1875.8 1323.85 1875.8 1322.16 Q1875.8 1319.41 1873.86 1317.67 Q1871.93 1315.94 1868.83 1315.94 Q1866.63 1315.94 1864.18 1316.7 Q1861.75 1317.47 1858.97 1319.02 L1858.97 1314.29 Q1861.8 1313.16 1864.25 1312.58 Q1866.7 1312 1868.74 1312 Q1874.11 1312 1877.3 1314.69 Q1880.5 1317.37 1880.5 1321.86 Q1880.5 1323.99 1879.69 1325.91 Q1878.9 1327.81 1876.8 1330.41 Q1876.22 1331.08 1873.12 1334.29 Q1870.01 1337.49 1864.37 1343.25 Z" fill="#000000" fill-rule="nonzero" fill-opacity="1" /><path clip-path="url(#clip870)" d="M1900.5 1315.71 Q1896.89 1315.71 1895.06 1319.27 Q1893.25 1322.81 1893.25 1329.94 Q1893.25 1337.05 1895.06 1340.61 Q1896.89 1344.16 1900.5 1344.16 Q1904.13 1344.16 1905.94 1340.61 Q1907.77 1337.05 1907.77 1329.94 Q1907.77 1322.81 1905.94 1319.27 Q1904.13 1315.71 1900.5 1315.71 M1900.5 1312 Q1906.31 1312 1909.37 1316.61 Q1912.44 1321.19 1912.44 1329.94 Q1912.44 1338.67 1909.37 1343.28 Q1906.31 1347.86 1900.5 1347.86 Q1894.69 1347.86 1891.61 1343.28 Q1888.55 1338.67 1888.55 1329.94 Q1888.55 1321.19 1891.61 1316.61 Q1894.69 1312 1900.5 1312 Z" fill="#000000" fill-rule="nonzero" fill-opacity="1" /><path clip-path="url(#clip870)" d="M950.14 1408.14 L950.14 1429.65 L944.283 1429.65 L944.283 1408.33 Q944.283 1403.27 942.31 1400.75 Q940.336 1398.24 936.39 1398.24 Q931.647 1398.24 928.91 1401.26 Q926.173 1404.28 926.173 1409.5 L926.173 1429.65 L920.284 1429.65 L920.284 1394 L926.173 1394 L926.173 1399.54 Q928.273 1396.33 931.106 1394.74 Q933.971 1393.14 937.695 1393.14 Q943.838 1393.14 946.989 1396.96 Q950.14 1400.75 950.14 1408.14 Z" fill="#000000" fill-rule="nonzero" fill-opacity="1" /><path clip-path="url(#clip870)" d="M961.216 1415.58 L961.216 1394 L967.072 1394 L967.072 1415.36 Q967.072 1420.42 969.046 1422.97 Q971.019 1425.48 974.966 1425.48 Q979.708 1425.48 982.446 1422.46 Q985.215 1419.43 985.215 1414.21 L985.215 1394 L991.071 1394 L991.071 1429.65 L985.215 1429.65 L985.215 1424.18 Q983.082 1427.42 980.249 1429.01 Q977.448 1430.57 973.725 1430.57 Q967.582 1430.57 964.399 1426.76 Q961.216 1422.94 961.216 1415.58 M975.953 1393.14 L975.953 1393.14 Z" fill="#000000" fill-rule="nonzero" fill-opacity="1" /><path clip-path="url(#clip870)" d="M1030.89 1400.85 Q1033.08 1396.9 1036.14 1395.02 Q1039.2 1393.14 1043.33 1393.14 Q1048.9 1393.14 1051.93 1397.06 Q1054.95 1400.94 1054.95 1408.14 L1054.95 1429.65 L1049.06 1429.65 L1049.06 1408.33 Q1049.06 1403.2 1047.25 1400.72 Q1045.43 1398.24 1041.71 1398.24 Q1037.16 1398.24 1034.52 1401.26 Q1031.88 1404.28 1031.88 1409.5 L1031.88 1429.65 L1025.99 1429.65 L1025.99 1408.33 Q1025.99 1403.17 1024.17 1400.72 Q1022.36 1398.24 1018.57 1398.24 Q1014.08 1398.24 1011.44 1401.29 Q1008.8 1404.32 1008.8 1409.5 L1008.8 1429.65 L1002.91 1429.65 L1002.91 1394 L1008.8 1394 L1008.8 1399.54 Q1010.8 1396.26 1013.61 1394.7 Q1016.41 1393.14 1020.26 1393.14 Q1024.14 1393.14 1026.85 1395.12 Q1029.58 1397.09 1030.89 1400.85 Z" fill="#000000" fill-rule="nonzero" fill-opacity="1" /><path clip-path="url(#clip870)" d="M1092.22 1411.86 Q1092.22 1405.4 1089.55 1401.74 Q1086.91 1398.05 1082.26 1398.05 Q1077.61 1398.05 1074.94 1401.74 Q1072.3 1405.4 1072.3 1411.86 Q1072.3 1418.32 1074.94 1422.01 Q1077.61 1425.67 1082.26 1425.67 Q1086.91 1425.67 1089.55 1422.01 Q1092.22 1418.32 1092.22 1411.86 M1072.3 1399.41 Q1074.14 1396.23 1076.94 1394.7 Q1079.78 1393.14 1083.69 1393.14 Q1090.19 1393.14 1094.23 1398.3 Q1098.3 1403.46 1098.3 1411.86 Q1098.3 1420.26 1094.23 1425.42 Q1090.19 1430.57 1083.69 1430.57 Q1079.78 1430.57 1076.94 1429.05 Q1074.14 1427.49 1072.3 1424.3 L1072.3 1429.65 L1066.41 1429.65 L1066.41 1380.13 L1072.3 1380.13 L1072.3 1399.41 Z" fill="#000000" fill-rule="nonzero" fill-opacity="1" /><path clip-path="url(#clip870)" d="M1138.5 1410.36 L1138.5 1413.23 L1111.57 1413.23 Q1111.96 1419.28 1115.2 1422.46 Q1118.48 1425.61 1124.31 1425.61 Q1127.68 1425.61 1130.83 1424.78 Q1134.01 1423.95 1137.13 1422.3 L1137.13 1427.84 Q1133.98 1429.17 1130.67 1429.87 Q1127.36 1430.57 1123.96 1430.57 Q1115.43 1430.57 1110.43 1425.61 Q1105.46 1420.64 1105.46 1412.18 Q1105.46 1403.42 1110.17 1398.3 Q1114.92 1393.14 1122.94 1393.14 Q1130.13 1393.14 1134.3 1397.79 Q1138.5 1402.41 1138.5 1410.36 M1132.64 1408.64 Q1132.58 1403.84 1129.94 1400.97 Q1127.33 1398.11 1123 1398.11 Q1118.1 1398.11 1115.14 1400.88 Q1112.21 1403.65 1111.76 1408.68 L1132.64 1408.64 Z" fill="#000000" fill-rule="nonzero" fill-opacity="1" /><path clip-path="url(#clip870)" d="M1168.77 1399.48 Q1167.78 1398.91 1166.61 1398.65 Q1165.46 1398.36 1164.06 1398.36 Q1159.09 1398.36 1156.42 1401.61 Q1153.78 1404.83 1153.78 1410.87 L1153.78 1429.65 L1147.89 1429.65 L1147.89 1394 L1153.78 1394 L1153.78 1399.54 Q1155.62 1396.3 1158.58 1394.74 Q1161.54 1393.14 1165.78 1393.14 Q1166.38 1393.14 1167.11 1393.24 Q1167.85 1393.3 1168.74 1393.46 L1168.77 1399.48 Z" fill="#000000" fill-rule="nonzero" fill-opacity="1" /><path clip-path="url(#clip870)" d="M1209.45 1398.11 Q1204.74 1398.11 1202 1401.8 Q1199.26 1405.46 1199.26 1411.86 Q1199.26 1418.26 1201.97 1421.95 Q1204.7 1425.61 1209.45 1425.61 Q1214.13 1425.61 1216.86 1421.92 Q1219.6 1418.22 1219.6 1411.86 Q1219.6 1405.53 1216.86 1401.83 Q1214.13 1398.11 1209.45 1398.11 M1209.45 1393.14 Q1217.09 1393.14 1221.45 1398.11 Q1225.81 1403.07 1225.81 1411.86 Q1225.81 1420.61 1221.45 1425.61 Q1217.09 1430.57 1209.45 1430.57 Q1201.78 1430.57 1197.42 1425.61 Q1193.09 1420.61 1193.09 1411.86 Q1193.09 1403.07 1197.42 1398.11 Q1201.78 1393.14 1209.45 1393.14 Z" fill="#000000" fill-rule="nonzero" fill-opacity="1" /><path clip-path="url(#clip870)" d="M1253.56 1380.13 L1253.56 1385 L1247.96 1385 Q1244.81 1385 1243.57 1386.27 Q1242.36 1387.54 1242.36 1390.85 L1242.36 1394 L1252 1394 L1252 1398.55 L1242.36 1398.55 L1242.36 1429.65 L1236.47 1429.65 L1236.47 1398.55 L1230.87 1398.55 L1230.87 1394 L1236.47 1394 L1236.47 1391.52 Q1236.47 1385.57 1239.24 1382.86 Q1242.01 1380.13 1248.02 1380.13 L1253.56 1380.13 Z" fill="#000000" fill-rule="nonzero" fill-opacity="1" /><path clip-path="url(#clip870)" d="M1301.91 1395.05 L1301.91 1400.59 Q1299.43 1399.32 1296.75 1398.68 Q1294.08 1398.05 1291.21 1398.05 Q1286.85 1398.05 1284.66 1399.38 Q1282.49 1400.72 1282.49 1403.39 Q1282.49 1405.43 1284.05 1406.61 Q1285.61 1407.75 1290.32 1408.8 L1292.33 1409.25 Q1298.57 1410.59 1301.18 1413.04 Q1303.82 1415.46 1303.82 1419.82 Q1303.82 1424.78 1299.87 1427.68 Q1295.96 1430.57 1289.08 1430.57 Q1286.22 1430.57 1283.1 1430 Q1280.01 1429.46 1276.57 1428.35 L1276.57 1422.3 Q1279.82 1423.99 1282.97 1424.85 Q1286.12 1425.67 1289.21 1425.67 Q1293.35 1425.67 1295.57 1424.27 Q1297.8 1422.84 1297.8 1420.26 Q1297.8 1417.87 1296.18 1416.6 Q1294.59 1415.33 1289.15 1414.15 L1287.11 1413.67 Q1281.67 1412.53 1279.25 1410.17 Q1276.83 1407.79 1276.83 1403.65 Q1276.83 1398.62 1280.39 1395.88 Q1283.96 1393.14 1290.51 1393.14 Q1293.76 1393.14 1296.62 1393.62 Q1299.49 1394.1 1301.91 1395.05 Z" fill="#000000" fill-rule="nonzero" fill-opacity="1" /><path clip-path="url(#clip870)" d="M1318.94 1383.88 L1318.94 1394 L1331 1394 L1331 1398.55 L1318.94 1398.55 L1318.94 1417.91 Q1318.94 1422.27 1320.11 1423.51 Q1321.32 1424.75 1324.98 1424.75 L1331 1424.75 L1331 1429.65 L1324.98 1429.65 Q1318.2 1429.65 1315.63 1427.14 Q1313.05 1424.59 1313.05 1417.91 L1313.05 1398.55 L1308.75 1398.55 L1308.75 1394 L1313.05 1394 L1313.05 1383.88 L1318.94 1383.88 Z" fill="#000000" fill-rule="nonzero" fill-opacity="1" /><path clip-path="url(#clip870)" d="M1354.9 1411.73 Q1347.81 1411.73 1345.07 1413.36 Q1342.33 1414.98 1342.33 1418.89 Q1342.33 1422.01 1344.37 1423.86 Q1346.44 1425.67 1349.97 1425.67 Q1354.84 1425.67 1357.77 1422.24 Q1360.73 1418.77 1360.73 1413.04 L1360.73 1411.73 L1354.9 1411.73 M1366.58 1409.31 L1366.58 1429.65 L1360.73 1429.65 L1360.73 1424.24 Q1358.72 1427.49 1355.73 1429.05 Q1352.74 1430.57 1348.41 1430.57 Q1342.94 1430.57 1339.69 1427.52 Q1336.47 1424.43 1336.47 1419.28 Q1336.47 1413.26 1340.48 1410.2 Q1344.53 1407.15 1352.52 1407.15 L1360.73 1407.15 L1360.73 1406.58 Q1360.73 1402.53 1358.05 1400.34 Q1355.41 1398.11 1350.61 1398.11 Q1347.55 1398.11 1344.65 1398.84 Q1341.76 1399.57 1339.08 1401.04 L1339.08 1395.63 Q1342.3 1394.39 1345.32 1393.78 Q1348.35 1393.14 1351.21 1393.14 Q1358.95 1393.14 1362.76 1397.15 Q1366.58 1401.16 1366.58 1409.31 Z" fill="#000000" fill-rule="nonzero" fill-opacity="1" /><path clip-path="url(#clip870)" d="M1384.44 1383.88 L1384.44 1394 L1396.5 1394 L1396.5 1398.55 L1384.44 1398.55 L1384.44 1417.91 Q1384.44 1422.27 1385.62 1423.51 Q1386.83 1424.75 1390.49 1424.75 L1396.5 1424.75 L1396.5 1429.65 L1390.49 1429.65 Q1383.71 1429.65 1381.13 1427.14 Q1378.55 1424.59 1378.55 1417.91 L1378.55 1398.55 L1374.25 1398.55 L1374.25 1394 L1378.55 1394 L1378.55 1383.88 L1384.44 1383.88 Z" fill="#000000" fill-rule="nonzero" fill-opacity="1" /><path clip-path="url(#clip870)" d="M1434.7 1410.36 L1434.7 1413.23 L1407.77 1413.23 Q1408.15 1419.28 1411.4 1422.46 Q1414.68 1425.61 1420.5 1425.61 Q1423.88 1425.61 1427.03 1424.78 Q1430.21 1423.95 1433.33 1422.3 L1433.33 1427.84 Q1430.18 1429.17 1426.87 1429.87 Q1423.56 1430.57 1420.15 1430.57 Q1411.62 1430.57 1406.62 1425.61 Q1401.66 1420.64 1401.66 1412.18 Q1401.66 1403.42 1406.37 1398.3 Q1411.11 1393.14 1419.13 1393.14 Q1426.33 1393.14 1430.5 1397.79 Q1434.7 1402.41 1434.7 1410.36 M1428.84 1408.64 Q1428.78 1403.84 1426.14 1400.97 Q1423.53 1398.11 1419.2 1398.11 Q1414.3 1398.11 1411.34 1400.88 Q1408.41 1403.65 1407.96 1408.68 L1428.84 1408.64 Z" fill="#000000" fill-rule="nonzero" fill-opacity="1" /><path clip-path="url(#clip870)" d="M1467.03 1395.05 L1467.03 1400.59 Q1464.55 1399.32 1461.88 1398.68 Q1459.21 1398.05 1456.34 1398.05 Q1451.98 1398.05 1449.78 1399.38 Q1447.62 1400.72 1447.62 1403.39 Q1447.62 1405.43 1449.18 1406.61 Q1450.74 1407.75 1455.45 1408.8 L1457.45 1409.25 Q1463.69 1410.59 1466.3 1413.04 Q1468.94 1415.46 1468.94 1419.82 Q1468.94 1424.78 1465 1427.68 Q1461.08 1430.57 1454.21 1430.57 Q1451.34 1430.57 1448.22 1430 Q1445.14 1429.46 1441.7 1428.35 L1441.7 1422.3 Q1444.95 1423.99 1448.1 1424.85 Q1451.25 1425.67 1454.34 1425.67 Q1458.47 1425.67 1460.7 1424.27 Q1462.93 1422.84 1462.93 1420.26 Q1462.93 1417.87 1461.31 1416.6 Q1459.71 1415.33 1454.27 1414.15 L1452.23 1413.67 Q1446.79 1412.53 1444.37 1410.17 Q1441.95 1407.79 1441.95 1403.65 Q1441.95 1398.62 1445.52 1395.88 Q1449.08 1393.14 1455.64 1393.14 Q1458.89 1393.14 1461.75 1393.62 Q1464.62 1394.1 1467.03 1395.05 Z" fill="#000000" fill-rule="nonzero" fill-opacity="1" /><path clip-path="url(#clip870)" d="M1499.25 1382.13 L1507.9 1382.13 L1528.97 1421.89 L1528.97 1382.13 L1535.21 1382.13 L1535.21 1429.65 L1526.55 1429.65 L1505.48 1389.9 L1505.48 1429.65 L1499.25 1429.65 L1499.25 1382.13 Z" fill="#000000" fill-rule="nonzero" fill-opacity="1" /><polyline clip-path="url(#clip872)" style="stroke:#000000; stroke-linecap:round; stroke-linejoin:round; stroke-width:2; stroke-opacity:0.1; fill:none" points="323.213,1284.79 2132.28,1284.79 "/>
<polyline clip-path="url(#clip872)" style="stroke:#000000; stroke-linecap:round; stroke-linejoin:round; stroke-width:2; stroke-opacity:0.1; fill:none" points="323.213,1096.01 2132.28,1096.01 "/>
<polyline clip-path="url(#clip872)" style="stroke:#000000; stroke-linecap:round; stroke-linejoin:round; stroke-width:2; stroke-opacity:0.1; fill:none" points="323.213,907.241 2132.28,907.241 "/>
<polyline clip-path="url(#clip872)" style="stroke:#000000; stroke-linecap:round; stroke-linejoin:round; stroke-width:2; stroke-opacity:0.1; fill:none" points="323.213,718.468 2132.28,718.468 "/>
<polyline clip-path="url(#clip872)" style="stroke:#000000; stroke-linecap:round; stroke-linejoin:round; stroke-width:2; stroke-opacity:0.1; fill:none" points="323.213,529.695 2132.28,529.695 "/>
<polyline clip-path="url(#clip872)" style="stroke:#000000; stroke-linecap:round; stroke-linejoin:round; stroke-width:2; stroke-opacity:0.1; fill:none" points="323.213,340.921 2132.28,340.921 "/>
<polyline clip-path="url(#clip870)" style="stroke:#000000; stroke-linecap:round; stroke-linejoin:round; stroke-width:4; stroke-opacity:1; fill:none" points="323.213,1284.79 323.213,283.465 "/>
<polyline clip-path="url(#clip870)" style="stroke:#000000; stroke-linecap:round; stroke-linejoin:round; stroke-width:4; stroke-opacity:1; fill:none" points="323.213,1284.79 342.11,1284.79 "/>
<polyline clip-path="url(#clip870)" style="stroke:#000000; stroke-linecap:round; stroke-linejoin:round; stroke-width:4; stroke-opacity:1; fill:none" points="323.213,1096.01 342.11,1096.01 "/>
<polyline clip-path="url(#clip870)" style="stroke:#000000; stroke-linecap:round; stroke-linejoin:round; stroke-width:4; stroke-opacity:1; fill:none" points="323.213,907.241 342.11,907.241 "/>
<polyline clip-path="url(#clip870)" style="stroke:#000000; stroke-linecap:round; stroke-linejoin:round; stroke-width:4; stroke-opacity:1; fill:none" points="323.213,718.468 342.11,718.468 "/>
<polyline clip-path="url(#clip870)" style="stroke:#000000; stroke-linecap:round; stroke-linejoin:round; stroke-width:4; stroke-opacity:1; fill:none" points="323.213,529.695 342.11,529.695 "/>
<polyline clip-path="url(#clip870)" style="stroke:#000000; stroke-linecap:round; stroke-linejoin:round; stroke-width:4; stroke-opacity:1; fill:none" points="323.213,340.921 342.11,340.921 "/>
<path clip-path="url(#clip870)" d="M275.268 1270.59 Q271.657 1270.59 269.828 1274.15 Q268.023 1277.69 268.023 1284.82 Q268.023 1291.93 269.828 1295.49 Q271.657 1299.04 275.268 1299.04 Q278.902 1299.04 280.708 1295.49 Q282.537 1291.93 282.537 1284.82 Q282.537 1277.69 280.708 1274.15 Q278.902 1270.59 275.268 1270.59 M275.268 1266.88 Q281.078 1266.88 284.134 1271.49 Q287.213 1276.07 287.213 1284.82 Q287.213 1293.55 284.134 1298.16 Q281.078 1302.74 275.268 1302.74 Q269.458 1302.74 266.379 1298.16 Q263.324 1293.55 263.324 1284.82 Q263.324 1276.07 266.379 1271.49 Q269.458 1266.88 275.268 1266.88 Z" fill="#000000" fill-rule="nonzero" fill-opacity="1" /><path clip-path="url(#clip870)" d="M267.305 1109.36 L274.944 1109.36 L274.944 1082.99 L266.634 1084.66 L266.634 1080.4 L274.898 1078.73 L279.574 1078.73 L279.574 1109.36 L287.213 1109.36 L287.213 1113.29 L267.305 1113.29 L267.305 1109.36 Z" fill="#000000" fill-rule="nonzero" fill-opacity="1" /><path clip-path="url(#clip870)" d="M270.893 920.586 L287.213 920.586 L287.213 924.521 L265.268 924.521 L265.268 920.586 Q267.93 917.831 272.514 913.202 Q277.12 908.549 278.301 907.206 Q280.546 904.683 281.426 902.947 Q282.328 901.188 282.328 899.498 Q282.328 896.743 280.384 895.007 Q278.463 893.271 275.361 893.271 Q273.162 893.271 270.708 894.035 Q268.278 894.799 265.5 896.35 L265.5 891.628 Q268.324 890.493 270.778 889.915 Q273.231 889.336 275.268 889.336 Q280.639 889.336 283.833 892.021 Q287.027 894.706 287.027 899.197 Q287.027 901.327 286.217 903.248 Q285.43 905.146 283.324 907.739 Q282.745 908.41 279.643 911.628 Q276.541 914.822 270.893 920.586 Z" fill="#000000" fill-rule="nonzero" fill-opacity="1" /><path clip-path="url(#clip870)" d="M280.083 717.114 Q283.439 717.831 285.314 720.1 Q287.213 722.368 287.213 725.701 Q287.213 730.817 283.694 733.618 Q280.176 736.419 273.694 736.419 Q271.518 736.419 269.203 735.979 Q266.912 735.563 264.458 734.706 L264.458 730.192 Q266.403 731.326 268.717 731.905 Q271.032 732.484 273.555 732.484 Q277.953 732.484 280.245 730.748 Q282.56 729.012 282.56 725.701 Q282.56 722.646 280.407 720.933 Q278.277 719.197 274.458 719.197 L270.43 719.197 L270.43 715.354 L274.643 715.354 Q278.092 715.354 279.921 713.989 Q281.75 712.6 281.75 710.007 Q281.75 707.345 279.852 705.933 Q277.977 704.498 274.458 704.498 Q272.537 704.498 270.338 704.915 Q268.139 705.331 265.5 706.211 L265.5 702.044 Q268.162 701.303 270.477 700.933 Q272.815 700.563 274.875 700.563 Q280.199 700.563 283.301 702.993 Q286.402 705.401 286.402 709.521 Q286.402 712.391 284.759 714.382 Q283.115 716.35 280.083 717.114 Z" fill="#000000" fill-rule="nonzero" fill-opacity="1" /><path clip-path="url(#clip870)" d="M277.629 516.489 L265.824 534.938 L277.629 534.938 L277.629 516.489 M276.402 512.415 L282.282 512.415 L282.282 534.938 L287.213 534.938 L287.213 538.826 L282.282 538.826 L282.282 546.975 L277.629 546.975 L277.629 538.826 L262.028 538.826 L262.028 534.313 L276.402 512.415 Z" fill="#000000" fill-rule="nonzero" fill-opacity="1" /><path clip-path="url(#clip870)" d="M266.31 323.641 L284.666 323.641 L284.666 327.576 L270.592 327.576 L270.592 336.049 Q271.611 335.701 272.629 335.539 Q273.648 335.354 274.666 335.354 Q280.453 335.354 283.833 338.525 Q287.213 341.697 287.213 347.113 Q287.213 352.692 283.74 355.794 Q280.268 358.873 273.949 358.873 Q271.773 358.873 269.504 358.502 Q267.259 358.132 264.852 357.391 L264.852 352.692 Q266.935 353.826 269.157 354.382 Q271.379 354.937 273.856 354.937 Q277.861 354.937 280.199 352.831 Q282.537 350.724 282.537 347.113 Q282.537 343.502 280.199 341.396 Q277.861 339.289 273.856 339.289 Q271.981 339.289 270.106 339.706 Q268.254 340.123 266.31 341.002 L266.31 323.641 Z" fill="#000000" fill-rule="nonzero" fill-opacity="1" /><path clip-path="url(#clip870)" d="M167.912 975.957 L174.691 975.957 Q171.668 979.203 170.172 982.895 Q168.676 986.555 168.676 990.693 Q168.676 998.841 173.673 1003.17 Q178.638 1007.5 188.059 1007.5 Q197.449 1007.5 202.446 1003.17 Q207.411 998.841 207.411 990.693 Q207.411 986.555 205.915 982.895 Q204.419 979.203 201.395 975.957 L208.111 975.957 Q210.403 979.33 211.549 983.118 Q212.695 986.874 212.695 991.075 Q212.695 1001.86 206.106 1008.07 Q199.486 1014.28 188.059 1014.28 Q176.601 1014.28 170.013 1008.07 Q163.392 1001.86 163.392 991.075 Q163.392 986.81 164.538 983.054 Q165.652 979.267 167.912 975.957 Z" fill="#000000" fill-rule="nonzero" fill-opacity="1" /><path clip-path="url(#clip870)" d="M169.535 959.597 L187.391 959.597 L187.391 951.512 Q187.391 947.024 185.067 944.574 Q182.744 942.123 178.447 942.123 Q174.182 942.123 171.859 944.574 Q169.535 947.024 169.535 951.512 L169.535 959.597 M164.252 966.026 L164.252 951.512 Q164.252 943.523 167.88 939.449 Q171.477 935.343 178.447 935.343 Q185.481 935.343 189.078 939.449 Q192.674 943.523 192.674 951.512 L192.674 959.597 L211.772 959.597 L211.772 966.026 L164.252 966.026 Z" fill="#000000" fill-rule="nonzero" fill-opacity="1" /><path clip-path="url(#clip870)" d="M164.252 927.45 L164.252 920.989 L193.12 920.989 Q200.759 920.989 204.133 918.22 Q207.475 915.451 207.475 909.244 Q207.475 903.069 204.133 900.3 Q200.759 897.531 193.12 897.531 L164.252 897.531 L164.252 891.07 L193.916 891.07 Q203.21 891.07 207.952 895.685 Q212.695 900.268 212.695 909.244 Q212.695 918.251 207.952 922.867 Q203.21 927.45 193.916 927.45 L164.252 927.45 Z" fill="#000000" fill-rule="nonzero" fill-opacity="1" /><path clip-path="url(#clip870)" d="M166.002 852.748 L176.124 852.748 L176.124 840.685 L180.675 840.685 L180.675 852.748 L200.027 852.748 Q204.387 852.748 205.629 851.571 Q206.87 850.361 206.87 846.701 L206.87 840.685 L211.772 840.685 L211.772 846.701 Q211.772 853.48 209.257 856.058 Q206.711 858.637 200.027 858.637 L180.675 858.637 L180.675 862.933 L176.124 862.933 L176.124 858.637 L166.002 858.637 L166.002 852.748 Z" fill="#000000" fill-rule="nonzero" fill-opacity="1" /><path clip-path="url(#clip870)" d="M176.124 832.983 L176.124 827.126 L211.772 827.126 L211.772 832.983 L176.124 832.983 M162.246 832.983 L162.246 827.126 L169.662 827.126 L169.662 832.983 L162.246 832.983 Z" fill="#000000" fill-rule="nonzero" fill-opacity="1" /><path clip-path="url(#clip870)" d="M182.967 787.118 Q179.02 784.922 177.142 781.866 Q175.264 778.811 175.264 774.673 Q175.264 769.103 179.179 766.079 Q183.062 763.055 190.255 763.055 L211.772 763.055 L211.772 768.944 L190.446 768.944 Q185.322 768.944 182.839 770.758 Q180.357 772.572 180.357 776.296 Q180.357 780.848 183.38 783.489 Q186.404 786.131 191.624 786.131 L211.772 786.131 L211.772 792.019 L190.446 792.019 Q185.29 792.019 182.839 793.834 Q180.357 795.648 180.357 799.436 Q180.357 803.923 183.412 806.565 Q186.436 809.207 191.624 809.207 L211.772 809.207 L211.772 815.095 L176.124 815.095 L176.124 809.207 L181.662 809.207 Q178.383 807.202 176.824 804.401 Q175.264 801.6 175.264 797.749 Q175.264 793.866 177.238 791.16 Q179.211 788.423 182.967 787.118 Z" fill="#000000" fill-rule="nonzero" fill-opacity="1" /><path clip-path="url(#clip870)" d="M192.483 720.883 L195.348 720.883 L195.348 747.81 Q201.395 747.428 204.578 744.181 Q207.729 740.903 207.729 735.078 Q207.729 731.704 206.902 728.553 Q206.074 725.371 204.419 722.251 L209.957 722.251 Q211.294 725.402 211.994 728.713 Q212.695 732.023 212.695 735.428 Q212.695 743.958 207.729 748.955 Q202.764 753.921 194.298 753.921 Q185.545 753.921 180.42 749.21 Q175.264 744.468 175.264 736.447 Q175.264 729.254 179.911 725.084 Q184.526 720.883 192.483 720.883 M190.765 726.739 Q185.959 726.803 183.094 729.445 Q180.229 732.055 180.229 736.383 Q180.229 741.285 182.999 744.245 Q185.768 747.173 190.797 747.619 L190.765 726.739 Z" fill="#000000" fill-rule="nonzero" fill-opacity="1" /><path clip-path="url(#clip870)" d="M162.31 676.482 Q169.631 680.747 176.792 682.816 Q183.953 684.885 191.306 684.885 Q198.658 684.885 205.883 682.816 Q213.077 680.715 220.365 676.482 L220.365 681.574 Q212.886 686.349 205.66 688.736 Q198.435 691.091 191.306 691.091 Q184.208 691.091 177.015 688.736 Q169.822 686.381 162.31 681.574 L162.31 676.482 Z" fill="#000000" fill-rule="nonzero" fill-opacity="1" /><path clip-path="url(#clip870)" d="M182.967 637.365 Q179.02 635.168 177.142 632.113 Q175.264 629.057 175.264 624.92 Q175.264 619.35 179.179 616.326 Q183.062 613.302 190.255 613.302 L211.772 613.302 L211.772 619.191 L190.446 619.191 Q185.322 619.191 182.839 621.005 Q180.357 622.819 180.357 626.543 Q180.357 631.094 183.38 633.736 Q186.404 636.378 191.624 636.378 L211.772 636.378 L211.772 642.266 L190.446 642.266 Q185.29 642.266 182.839 644.08 Q180.357 645.895 180.357 649.682 Q180.357 654.17 183.412 656.812 Q186.436 659.454 191.624 659.454 L211.772 659.454 L211.772 665.342 L176.124 665.342 L176.124 659.454 L181.662 659.454 Q178.383 657.448 176.824 654.648 Q175.264 651.847 175.264 647.995 Q175.264 644.112 177.238 641.407 Q179.211 638.67 182.967 637.365 Z" fill="#000000" fill-rule="nonzero" fill-opacity="1" /><path clip-path="url(#clip870)" d="M177.174 578.896 L182.712 578.896 Q181.439 581.378 180.802 584.052 Q180.166 586.725 180.166 589.59 Q180.166 593.95 181.503 596.147 Q182.839 598.311 185.513 598.311 Q187.55 598.311 188.728 596.751 Q189.874 595.192 190.924 590.481 L191.369 588.476 Q192.706 582.238 195.157 579.628 Q197.576 576.986 201.937 576.986 Q206.902 576.986 209.798 580.933 Q212.695 584.848 212.695 591.723 Q212.695 594.587 212.122 597.706 Q211.581 600.794 210.467 604.231 L204.419 604.231 Q206.106 600.985 206.965 597.834 Q207.793 594.683 207.793 591.595 Q207.793 587.457 206.393 585.229 Q204.96 583.001 202.382 583.001 Q199.995 583.001 198.722 584.625 Q197.449 586.216 196.271 591.659 L195.794 593.696 Q194.648 599.139 192.292 601.558 Q189.905 603.976 185.768 603.976 Q180.739 603.976 178.001 600.412 Q175.264 596.847 175.264 590.29 Q175.264 587.044 175.742 584.179 Q176.219 581.315 177.174 578.896 Z" fill="#000000" fill-rule="nonzero" fill-opacity="1" /><path clip-path="url(#clip870)" d="M162.31 568.583 L162.31 563.491 Q169.822 558.716 177.015 556.361 Q184.208 553.974 191.306 553.974 Q198.435 553.974 205.66 556.361 Q212.886 558.716 220.365 563.491 L220.365 568.583 Q213.077 564.35 205.883 562.281 Q198.658 560.18 191.306 560.18 Q183.953 560.18 176.792 562.281 Q169.631 564.35 162.31 568.583 Z" fill="#000000" fill-rule="nonzero" fill-opacity="1" /><path clip-path="url(#clip870)" d="M1006.87 33.264 L1015.06 33.264 L1015.06 86.8575 L1044.51 86.8575 L1044.51 93.744 L1006.87 93.744 L1006.87 33.264 Z" fill="#000000" fill-rule="nonzero" fill-opacity="1" /><path clip-path="url(#clip870)" d="M1068.89 53.5995 Q1062.9 53.5995 1059.41 58.2986 Q1055.93 62.9571 1055.93 71.0994 Q1055.93 79.2418 1059.37 83.9408 Q1062.86 88.5994 1068.89 88.5994 Q1074.85 88.5994 1078.33 83.9003 Q1081.81 79.2013 1081.81 71.0994 Q1081.81 63.0381 1078.33 58.3391 Q1074.85 53.5995 1068.89 53.5995 M1068.89 47.2801 Q1078.61 47.2801 1084.16 53.5995 Q1089.71 59.9189 1089.71 71.0994 Q1089.71 82.2394 1084.16 88.5994 Q1078.61 94.9188 1068.89 94.9188 Q1059.13 94.9188 1053.58 88.5994 Q1048.07 82.2394 1048.07 71.0994 Q1048.07 59.9189 1053.58 53.5995 Q1059.13 47.2801 1068.89 47.2801 Z" fill="#000000" fill-rule="nonzero" fill-opacity="1" /><path clip-path="url(#clip870)" d="M1131.92 70.5323 Q1131.92 62.4305 1128.56 57.9745 Q1125.24 53.5185 1119.2 53.5185 Q1113.21 53.5185 1109.85 57.9745 Q1106.52 62.4305 1106.52 70.5323 Q1106.52 78.5936 1109.85 83.0496 Q1113.21 87.5056 1119.2 87.5056 Q1125.24 87.5056 1128.56 83.0496 Q1131.92 78.5936 1131.92 70.5323 M1139.38 88.1132 Q1139.38 99.6988 1134.23 105.33 Q1129.09 111.001 1118.47 111.001 Q1114.55 111.001 1111.06 110.393 Q1107.58 109.826 1104.3 108.611 L1104.3 101.36 Q1107.58 103.142 1110.78 103.993 Q1113.98 104.843 1117.3 104.843 Q1124.63 104.843 1128.28 100.995 Q1131.92 97.1873 1131.92 89.45 L1131.92 85.7637 Q1129.61 89.7741 1126.01 91.7591 Q1122.4 93.744 1117.38 93.744 Q1109.04 93.744 1103.93 87.3841 Q1098.83 81.0242 1098.83 70.5323 Q1098.83 60 1103.93 53.64 Q1109.04 47.2801 1117.38 47.2801 Q1122.4 47.2801 1126.01 49.2651 Q1129.61 51.25 1131.92 55.2604 L1131.92 48.3739 L1139.38 48.3739 L1139.38 88.1132 Z" fill="#000000" fill-rule="nonzero" fill-opacity="1" /><path clip-path="url(#clip870)" d="M1184.59 55.2604 L1184.59 30.7119 L1192.04 30.7119 L1192.04 93.744 L1184.59 93.744 L1184.59 86.9385 Q1182.24 90.9894 1178.63 92.9743 Q1175.07 94.9188 1170.04 94.9188 Q1161.82 94.9188 1156.63 88.3563 Q1151.49 81.7938 1151.49 71.0994 Q1151.49 60.4051 1156.63 53.8426 Q1161.82 47.2801 1170.04 47.2801 Q1175.07 47.2801 1178.63 49.2651 Q1182.24 51.2095 1184.59 55.2604 M1159.19 71.0994 Q1159.19 79.3228 1162.55 84.0218 Q1165.95 88.6804 1171.87 88.6804 Q1177.78 88.6804 1181.18 84.0218 Q1184.59 79.3228 1184.59 71.0994 Q1184.59 62.8761 1181.18 58.2176 Q1177.78 53.5185 1171.87 53.5185 Q1165.95 53.5185 1162.55 58.2176 Q1159.19 62.8761 1159.19 71.0994 Z" fill="#000000" fill-rule="nonzero" fill-opacity="1" /><path clip-path="url(#clip870)" d="M1246.2 69.1955 L1246.2 72.8413 L1211.93 72.8413 Q1212.42 80.5381 1216.55 84.589 Q1220.72 88.5994 1228.13 88.5994 Q1232.43 88.5994 1236.44 87.5461 Q1240.49 86.4929 1244.46 84.3864 L1244.46 91.435 Q1240.45 93.1364 1236.23 94.0276 Q1232.02 94.9188 1227.69 94.9188 Q1216.83 94.9188 1210.47 88.5994 Q1204.15 82.2799 1204.15 71.5045 Q1204.15 60.3645 1210.15 53.8426 Q1216.18 47.2801 1226.39 47.2801 Q1235.55 47.2801 1240.85 53.1944 Q1246.2 59.0683 1246.2 69.1955 M1238.75 67.008 Q1238.67 60.8912 1235.3 57.2454 Q1231.98 53.5995 1226.47 53.5995 Q1220.23 53.5995 1216.47 57.1238 Q1212.74 60.6481 1212.17 67.0485 L1238.75 67.008 Z" fill="#000000" fill-rule="nonzero" fill-opacity="1" /><path clip-path="url(#clip870)" d="M1296.15 66.3599 L1296.15 93.744 L1288.69 93.744 L1288.69 66.6029 Q1288.69 60.162 1286.18 56.9618 Q1283.67 53.7616 1278.65 53.7616 Q1272.61 53.7616 1269.13 57.6099 Q1265.64 61.4583 1265.64 68.1018 L1265.64 93.744 L1258.15 93.744 L1258.15 48.3739 L1265.64 48.3739 L1265.64 55.4224 Q1268.32 51.331 1271.92 49.3056 Q1275.57 47.2801 1280.31 47.2801 Q1288.13 47.2801 1292.14 52.1412 Q1296.15 56.9618 1296.15 66.3599 Z" fill="#000000" fill-rule="nonzero" fill-opacity="1" /><path clip-path="url(#clip870)" d="M1339.94 49.7107 L1339.94 56.7592 Q1336.78 55.1389 1333.38 54.3287 Q1329.97 53.5185 1326.33 53.5185 Q1320.78 53.5185 1317.98 55.2199 Q1315.23 56.9213 1315.23 60.324 Q1315.23 62.9166 1317.21 64.4155 Q1319.2 65.8738 1325.19 67.2106 L1327.74 67.7777 Q1335.68 69.4791 1339.01 72.5983 Q1342.37 75.677 1342.37 81.2267 Q1342.37 87.5461 1337.35 91.2324 Q1332.36 94.9188 1323.61 94.9188 Q1319.97 94.9188 1316 94.1896 Q1312.07 93.5009 1307.69 92.0831 L1307.69 84.3864 Q1311.82 86.5334 1315.83 87.6271 Q1319.85 88.6804 1323.77 88.6804 Q1329.04 88.6804 1331.88 86.898 Q1334.71 85.0751 1334.71 81.7938 Q1334.71 78.7557 1332.65 77.1353 Q1330.62 75.5149 1323.69 74.0161 L1321.1 73.4085 Q1314.17 71.9501 1311.1 68.9525 Q1308.02 65.9143 1308.02 60.6481 Q1308.02 54.2477 1312.55 50.7639 Q1317.09 47.2801 1325.44 47.2801 Q1329.57 47.2801 1333.21 47.8878 Q1336.86 48.4954 1339.94 49.7107 Z" fill="#000000" fill-rule="nonzero" fill-opacity="1" /><path clip-path="url(#clip870)" d="M1354.24 48.3739 L1361.69 48.3739 L1361.69 93.744 L1354.24 93.744 L1354.24 48.3739 M1354.24 30.7119 L1361.69 30.7119 L1361.69 40.1505 L1354.24 40.1505 L1354.24 30.7119 Z" fill="#000000" fill-rule="nonzero" fill-opacity="1" /><path clip-path="url(#clip870)" d="M1384.66 35.492 L1384.66 48.3739 L1400.01 48.3739 L1400.01 54.1667 L1384.66 54.1667 L1384.66 78.7962 Q1384.66 84.3459 1386.16 85.9258 Q1387.7 87.5056 1392.36 87.5056 L1400.01 87.5056 L1400.01 93.744 L1392.36 93.744 Q1383.73 93.744 1380.45 90.5438 Q1377.17 87.3031 1377.17 78.7962 L1377.17 54.1667 L1371.7 54.1667 L1371.7 48.3739 L1377.17 48.3739 L1377.17 35.492 L1384.66 35.492 Z" fill="#000000" fill-rule="nonzero" fill-opacity="1" /><path clip-path="url(#clip870)" d="M1428.69 97.9569 Q1425.53 106.059 1422.54 108.53 Q1419.54 111.001 1414.51 111.001 L1408.56 111.001 L1408.56 104.762 L1412.94 104.762 Q1416.01 104.762 1417.72 103.304 Q1419.42 101.846 1421.48 96.4176 L1422.82 93.0148 L1404.47 48.3739 L1412.37 48.3739 L1426.55 83.8598 L1440.72 48.3739 L1448.62 48.3739 L1428.69 97.9569 Z" fill="#000000" fill-rule="nonzero" fill-opacity="1" /><path clip-path="url(#clip870)" d="M821.26 121.513 Q815.832 130.83 813.199 139.945 Q810.566 149.059 810.566 158.417 Q810.566 167.774 813.199 176.97 Q815.872 186.125 821.26 195.401 L814.779 195.401 Q808.702 185.882 805.664 176.686 Q802.666 167.491 802.666 158.417 Q802.666 149.383 805.664 140.228 Q808.662 131.073 814.779 121.513 L821.26 121.513 Z" fill="#000000" fill-rule="nonzero" fill-opacity="1" /><path clip-path="url(#clip870)" d="M827.66 123.984 L878.823 123.984 L878.823 130.871 L857.354 130.871 L857.354 184.464 L849.13 184.464 L849.13 130.871 L827.66 130.871 L827.66 123.984 Z" fill="#000000" fill-rule="nonzero" fill-opacity="1" /><path clip-path="url(#clip870)" d="M887.371 146.791 L939.303 146.791 L939.303 153.596 L887.371 153.596 L887.371 146.791 M887.371 163.318 L939.303 163.318 L939.303 170.205 L887.371 170.205 L887.371 163.318 Z" fill="#000000" fill-rule="nonzero" fill-opacity="1" /><path clip-path="url(#clip870)" d="M958.383 177.577 L971.751 177.577 L971.751 131.438 L957.208 134.354 L957.208 126.901 L971.67 123.984 L979.853 123.984 L979.853 177.577 L993.221 177.577 L993.221 184.464 L958.383 184.464 L958.383 177.577 Z" fill="#000000" fill-rule="nonzero" fill-opacity="1" /><path clip-path="url(#clip870)" d="M1027.25 129.372 Q1020.93 129.372 1017.73 135.61 Q1014.57 141.808 1014.57 154.285 Q1014.57 166.721 1017.73 172.959 Q1020.93 179.157 1027.25 179.157 Q1033.61 179.157 1036.77 172.959 Q1039.97 166.721 1039.97 154.285 Q1039.97 141.808 1036.77 135.61 Q1033.61 129.372 1027.25 129.372 M1027.25 122.89 Q1037.42 122.89 1042.76 130.952 Q1048.15 138.972 1048.15 154.285 Q1048.15 169.557 1042.76 177.618 Q1037.42 185.639 1027.25 185.639 Q1017.08 185.639 1011.69 177.618 Q1006.35 169.557 1006.35 154.285 Q1006.35 138.972 1011.69 130.952 Q1017.08 122.89 1027.25 122.89 Z" fill="#000000" fill-rule="nonzero" fill-opacity="1" /><path clip-path="url(#clip870)" d="M1080.03 129.372 Q1073.71 129.372 1070.51 135.61 Q1067.35 141.808 1067.35 154.285 Q1067.35 166.721 1070.51 172.959 Q1073.71 179.157 1080.03 179.157 Q1086.39 179.157 1089.55 172.959 Q1092.75 166.721 1092.75 154.285 Q1092.75 141.808 1089.55 135.61 Q1086.39 129.372 1080.03 129.372 M1080.03 122.89 Q1090.2 122.89 1095.55 130.952 Q1100.93 138.972 1100.93 154.285 Q1100.93 169.557 1095.55 177.618 Q1090.2 185.639 1080.03 185.639 Q1069.86 185.639 1064.48 177.618 Q1059.13 169.557 1059.13 154.285 Q1059.13 138.972 1064.48 130.952 Q1069.86 122.89 1080.03 122.89 Z" fill="#000000" fill-rule="nonzero" fill-opacity="1" /><path clip-path="url(#clip870)" d="M1132.82 129.372 Q1126.5 129.372 1123.3 135.61 Q1120.14 141.808 1120.14 154.285 Q1120.14 166.721 1123.3 172.959 Q1126.5 179.157 1132.82 179.157 Q1139.18 179.157 1142.33 172.959 Q1145.53 166.721 1145.53 154.285 Q1145.53 141.808 1142.33 135.61 Q1139.18 129.372 1132.82 129.372 M1132.82 122.89 Q1142.98 122.89 1148.33 130.952 Q1153.72 138.972 1153.72 154.285 Q1153.72 169.557 1148.33 177.618 Q1142.98 185.639 1132.82 185.639 Q1122.65 185.639 1117.26 177.618 Q1111.91 169.557 1111.91 154.285 Q1111.91 138.972 1117.26 130.952 Q1122.65 122.89 1132.82 122.89 Z" fill="#000000" fill-rule="nonzero" fill-opacity="1" /><path clip-path="url(#clip870)" d="M1168.95 174.175 L1177.5 174.175 L1177.5 181.142 L1170.85 194.105 L1165.63 194.105 L1168.95 181.142 L1168.95 174.175 Z" fill="#000000" fill-rule="nonzero" fill-opacity="1" /><path clip-path="url(#clip870)" d="M1228.29 130.709 L1228.29 177.739 L1238.18 177.739 Q1250.7 177.739 1256.49 172.068 Q1262.32 166.397 1262.32 154.163 Q1262.32 142.011 1256.49 136.38 Q1250.7 130.709 1238.18 130.709 L1228.29 130.709 M1220.11 123.984 L1236.92 123.984 Q1254.5 123.984 1262.73 131.316 Q1270.95 138.608 1270.95 154.163 Q1270.95 169.8 1262.69 177.132 Q1254.42 184.464 1236.92 184.464 L1220.11 184.464 L1220.11 123.984 Z" fill="#000000" fill-rule="nonzero" fill-opacity="1" /><path clip-path="url(#clip870)" d="M1284.64 146.791 L1336.58 146.791 L1336.58 153.596 L1284.64 153.596 L1284.64 146.791 M1284.64 163.318 L1336.58 163.318 L1336.58 170.205 L1284.64 170.205 L1284.64 163.318 Z" fill="#000000" fill-rule="nonzero" fill-opacity="1" /><path clip-path="url(#clip870)" d="M1355.66 177.577 L1369.02 177.577 L1369.02 131.438 L1354.48 134.354 L1354.48 126.901 L1368.94 123.984 L1377.13 123.984 L1377.13 177.577 L1390.49 177.577 L1390.49 184.464 L1355.66 184.464 L1355.66 177.577 Z" fill="#000000" fill-rule="nonzero" fill-opacity="1" /><path clip-path="url(#clip870)" d="M1407.87 174.175 L1416.42 174.175 L1416.42 181.142 L1409.78 194.105 L1404.55 194.105 L1407.87 181.142 L1407.87 174.175 Z" fill="#000000" fill-rule="nonzero" fill-opacity="1" /><path clip-path="url(#clip870)" d="M1459.03 123.984 L1467.22 123.984 L1467.22 149.545 L1494.36 123.984 L1504.89 123.984 L1474.87 152.178 L1507.04 184.464 L1496.26 184.464 L1467.22 155.338 L1467.22 184.464 L1459.03 184.464 L1459.03 123.984 Z" fill="#000000" fill-rule="nonzero" fill-opacity="1" /><path clip-path="url(#clip870)" d="M1514.09 146.791 L1566.02 146.791 L1566.02 153.596 L1514.09 153.596 L1514.09 146.791 M1514.09 163.318 L1566.02 163.318 L1566.02 170.205 L1514.09 170.205 L1514.09 163.318 Z" fill="#000000" fill-rule="nonzero" fill-opacity="1" /><path clip-path="url(#clip870)" d="M1585.1 177.577 L1598.47 177.577 L1598.47 131.438 L1583.92 134.354 L1583.92 126.901 L1598.39 123.984 L1606.57 123.984 L1606.57 177.577 L1619.94 177.577 L1619.94 184.464 L1585.1 184.464 L1585.1 177.577 Z" fill="#000000" fill-rule="nonzero" fill-opacity="1" /><path clip-path="url(#clip870)" d="M1634.24 121.513 L1640.72 121.513 Q1646.79 131.073 1649.79 140.228 Q1652.83 149.383 1652.83 158.417 Q1652.83 167.491 1649.79 176.686 Q1646.79 185.882 1640.72 195.401 L1634.24 195.401 Q1639.62 186.125 1642.26 176.97 Q1644.93 167.774 1644.93 158.417 Q1644.93 149.059 1642.26 139.945 Q1639.62 130.83 1634.24 121.513 Z" fill="#000000" fill-rule="nonzero" fill-opacity="1" /><polyline clip-path="url(#clip872)" style="stroke:#ffa500; stroke-linecap:round; stroke-linejoin:round; stroke-width:6; stroke-opacity:1; fill:none" points="405.443,1196.53 734.365,1031.45 1063.29,865.474 1392.21,694.566 1721.13,523.375 2050.05,283.465 "/>
<path clip-path="url(#clip872)" d="M389.443 1180.53 L389.443 1212.53 L421.443 1212.53 L421.443 1180.53 L389.443 1180.53 Z" fill="#ffa500" fill-rule="evenodd" fill-opacity="1" stroke="#000000" stroke-opacity="1" stroke-width="3.2"/>
<path clip-path="url(#clip872)" d="M718.365 1015.45 L718.365 1047.45 L750.365 1047.45 L750.365 1015.45 L718.365 1015.45 Z" fill="#ffa500" fill-rule="evenodd" fill-opacity="1" stroke="#000000" stroke-opacity="1" stroke-width="3.2"/>
<path clip-path="url(#clip872)" d="M1047.29 849.474 L1047.29 881.474 L1079.29 881.474 L1079.29 849.474 L1047.29 849.474 Z" fill="#ffa500" fill-rule="evenodd" fill-opacity="1" stroke="#000000" stroke-opacity="1" stroke-width="3.2"/>
<path clip-path="url(#clip872)" d="M1376.21 678.566 L1376.21 710.566 L1408.21 710.566 L1408.21 678.566 L1376.21 678.566 Z" fill="#ffa500" fill-rule="evenodd" fill-opacity="1" stroke="#000000" stroke-opacity="1" stroke-width="3.2"/>
<path clip-path="url(#clip872)" d="M1705.13 507.375 L1705.13 539.375 L1737.13 539.375 L1737.13 507.375 L1705.13 507.375 Z" fill="#ffa500" fill-rule="evenodd" fill-opacity="1" stroke="#000000" stroke-opacity="1" stroke-width="3.2"/>
<path clip-path="url(#clip872)" d="M2034.05 267.465 L2034.05 299.465 L2066.05 299.465 L2066.05 267.465 L2034.05 267.465 Z" fill="#ffa500" fill-rule="evenodd" fill-opacity="1" stroke="#000000" stroke-opacity="1" stroke-width="3.2"/>
<polyline clip-path="url(#clip872)" style="stroke:#0000ff; stroke-linecap:round; stroke-linejoin:round; stroke-width:6; stroke-opacity:1; fill:none" points="405.443,1258.6 734.365,1235.55 1063.29,1214.58 1392.21,1186.58 1721.13,1163.95 2050.05,1130.57 "/>
<circle clip-path="url(#clip872)" cx="405.443" cy="1258.6" r="14.4" fill="#0000ff" fill-rule="evenodd" fill-opacity="1" stroke="#000000" stroke-opacity="1" stroke-width="3.2"/>
<circle clip-path="url(#clip872)" cx="734.365" cy="1235.55" r="14.4" fill="#0000ff" fill-rule="evenodd" fill-opacity="1" stroke="#000000" stroke-opacity="1" stroke-width="3.2"/>
<circle clip-path="url(#clip872)" cx="1063.29" cy="1214.58" r="14.4" fill="#0000ff" fill-rule="evenodd" fill-opacity="1" stroke="#000000" stroke-opacity="1" stroke-width="3.2"/>
<circle clip-path="url(#clip872)" cx="1392.21" cy="1186.58" r="14.4" fill="#0000ff" fill-rule="evenodd" fill-opacity="1" stroke="#000000" stroke-opacity="1" stroke-width="3.2"/>
<circle clip-path="url(#clip872)" cx="1721.13" cy="1163.95" r="14.4" fill="#0000ff" fill-rule="evenodd" fill-opacity="1" stroke="#000000" stroke-opacity="1" stroke-width="3.2"/>
<circle clip-path="url(#clip872)" cx="2050.05" cy="1130.57" r="14.4" fill="#0000ff" fill-rule="evenodd" fill-opacity="1" stroke="#000000" stroke-opacity="1" stroke-width="3.2"/>
<polyline clip-path="url(#clip872)" style="stroke:#008000; stroke-linecap:round; stroke-linejoin:round; stroke-width:6; stroke-opacity:1; fill:none" points="405.443,1262.11 734.365,1248.94 1063.29,1206.14 1392.21,1172.12 1721.13,1100.36 2050.05,1045.35 "/>
<path clip-path="url(#clip872)" d="M421.443 1246.11 L389.443 1246.11 L405.443 1278.11 L421.443 1246.11 Z" fill="#008000" fill-rule="evenodd" fill-opacity="1" stroke="#000000" stroke-opacity="1" stroke-width="3.2"/>
<path clip-path="url(#clip872)" d="M750.365 1232.94 L718.365 1232.94 L734.365 1264.94 L750.365 1232.94 Z" fill="#008000" fill-rule="evenodd" fill-opacity="1" stroke="#000000" stroke-opacity="1" stroke-width="3.2"/>
<path clip-path="url(#clip872)" d="M1079.29 1190.14 L1047.29 1190.14 L1063.29 1222.14 L1079.29 1190.14 Z" fill="#008000" fill-rule="evenodd" fill-opacity="1" stroke="#000000" stroke-opacity="1" stroke-width="3.2"/>
<path clip-path="url(#clip872)" d="M1408.21 1156.12 L1376.21 1156.12 L1392.21 1188.12 L1408.21 1156.12 Z" fill="#008000" fill-rule="evenodd" fill-opacity="1" stroke="#000000" stroke-opacity="1" stroke-width="3.2"/>
<path clip-path="url(#clip872)" d="M1737.13 1084.36 L1705.13 1084.36 L1721.13 1116.36 L1737.13 1084.36 Z" fill="#008000" fill-rule="evenodd" fill-opacity="1" stroke="#000000" stroke-opacity="1" stroke-width="3.2"/>
<path clip-path="url(#clip872)" d="M2066.05 1029.35 L2034.05 1029.35 L2050.05 1061.35 L2066.05 1029.35 Z" fill="#008000" fill-rule="evenodd" fill-opacity="1" stroke="#000000" stroke-opacity="1" stroke-width="3.2"/>
<path clip-path="url(#clip870)" d="M383.515 524.202 L1074.3 524.202 L1074.3 316.842 L383.515 316.842  Z" fill="#ffffff" fill-rule="evenodd" fill-opacity="1"/>
<polyline clip-path="url(#clip870)" style="stroke:#000000; stroke-linecap:round; stroke-linejoin:round; stroke-width:4; stroke-opacity:1; fill:none" points="383.515,524.202 1074.3,524.202 1074.3,316.842 383.515,316.842 383.515,524.202 "/>
<polyline clip-path="url(#clip870)" style="stroke:#ffa500; stroke-linecap:round; stroke-linejoin:round; stroke-width:6; stroke-opacity:1; fill:none" points="403.616,368.682 524.22,368.682 "/>
<path clip-path="url(#clip870)" d="M445.306 350.07 L445.306 387.294 L482.53 387.294 L482.53 350.07 L445.306 350.07 Z" fill="#ffa500" fill-rule="evenodd" fill-opacity="1" stroke="#000000" stroke-opacity="1" stroke-width="4.55111"/>
<path clip-path="url(#clip870)" d="M544.321 351.402 L548.997 351.402 L548.997 365.569 L565.988 365.569 L565.988 351.402 L570.664 351.402 L570.664 385.962 L565.988 385.962 L565.988 369.504 L548.997 369.504 L548.997 385.962 L544.321 385.962 L544.321 351.402 Z" fill="#000000" fill-rule="nonzero" fill-opacity="1" /><path clip-path="url(#clip870)" d="M579.969 351.402 L586.937 351.402 L595.756 374.92 L604.622 351.402 L611.589 351.402 L611.589 385.962 L607.029 385.962 L607.029 355.615 L598.117 379.319 L593.418 379.319 L584.506 355.615 L584.506 385.962 L579.969 385.962 L579.969 351.402 Z" fill="#000000" fill-rule="nonzero" fill-opacity="1" /><path clip-path="url(#clip870)" d="M620.872 351.402 L627.839 351.402 L636.659 374.92 L645.524 351.402 L652.492 351.402 L652.492 385.962 L647.932 385.962 L647.932 355.615 L639.02 379.319 L634.321 379.319 L625.409 355.615 L625.409 385.962 L620.872 385.962 L620.872 351.402 Z" fill="#000000" fill-rule="nonzero" fill-opacity="1" /><path clip-path="url(#clip870)" d="M666.45 369.457 L666.45 382.119 L673.95 382.119 Q677.723 382.119 679.529 380.569 Q681.358 378.994 681.358 375.777 Q681.358 372.536 679.529 371.008 Q677.723 369.457 673.95 369.457 L666.45 369.457 M666.45 355.245 L666.45 365.661 L673.371 365.661 Q676.797 365.661 678.464 364.388 Q680.154 363.092 680.154 360.453 Q680.154 357.837 678.464 356.541 Q676.797 355.245 673.371 355.245 L666.45 355.245 M661.774 351.402 L673.719 351.402 Q679.066 351.402 681.959 353.624 Q684.853 355.846 684.853 359.944 Q684.853 363.115 683.371 364.99 Q681.89 366.865 679.02 367.328 Q682.469 368.069 684.367 370.43 Q686.288 372.768 686.288 376.286 Q686.288 380.916 683.14 383.439 Q679.992 385.962 674.182 385.962 L661.774 385.962 L661.774 351.402 Z" fill="#000000" fill-rule="nonzero" fill-opacity="1" /><path clip-path="url(#clip870)" d="M705.894 372.93 Q700.732 372.93 698.742 374.11 Q696.751 375.291 696.751 378.138 Q696.751 380.406 698.232 381.749 Q699.737 383.068 702.307 383.068 Q705.848 383.068 707.978 380.569 Q710.131 378.045 710.131 373.879 L710.131 372.93 L705.894 372.93 M714.39 371.17 L714.39 385.962 L710.131 385.962 L710.131 382.027 Q708.672 384.388 706.496 385.522 Q704.32 386.633 701.172 386.633 Q697.191 386.633 694.83 384.411 Q692.492 382.166 692.492 378.416 Q692.492 374.041 695.408 371.819 Q698.348 369.596 704.158 369.596 L710.131 369.596 L710.131 369.18 Q710.131 366.24 708.186 364.643 Q706.265 363.022 702.769 363.022 Q700.547 363.022 698.441 363.555 Q696.334 364.087 694.39 365.152 L694.39 361.217 Q696.728 360.314 698.927 359.874 Q701.126 359.411 703.209 359.411 Q708.834 359.411 711.612 362.328 Q714.39 365.245 714.39 371.17 Z" fill="#000000" fill-rule="nonzero" fill-opacity="1" /><path clip-path="url(#clip870)" d="M739.691 360.8 L739.691 364.828 Q737.885 363.902 735.941 363.439 Q733.996 362.976 731.913 362.976 Q728.742 362.976 727.144 363.948 Q725.57 364.92 725.57 366.865 Q725.57 368.346 726.705 369.203 Q727.839 370.036 731.265 370.8 L732.723 371.124 Q737.26 372.096 739.158 373.879 Q741.079 375.638 741.079 378.809 Q741.079 382.42 738.209 384.527 Q735.362 386.633 730.362 386.633 Q728.279 386.633 726.01 386.217 Q723.765 385.823 721.265 385.013 L721.265 380.615 Q723.626 381.842 725.918 382.467 Q728.209 383.068 730.455 383.068 Q733.464 383.068 735.084 382.05 Q736.704 381.008 736.704 379.133 Q736.704 377.397 735.524 376.471 Q734.367 375.545 730.408 374.689 L728.927 374.342 Q724.968 373.508 723.209 371.795 Q721.45 370.059 721.45 367.05 Q721.45 363.393 724.043 361.402 Q726.635 359.411 731.404 359.411 Q733.765 359.411 735.848 359.758 Q737.931 360.106 739.691 360.8 Z" fill="#000000" fill-rule="nonzero" fill-opacity="1" /><path clip-path="url(#clip870)" d="M770.038 371.934 L770.038 374.018 L750.454 374.018 Q750.732 378.416 753.093 380.731 Q755.478 383.022 759.714 383.022 Q762.167 383.022 764.459 382.42 Q766.774 381.818 769.042 380.615 L769.042 384.643 Q766.751 385.615 764.343 386.124 Q761.936 386.633 759.459 386.633 Q753.255 386.633 749.621 383.022 Q746.01 379.411 746.01 373.254 Q746.01 366.888 749.436 363.161 Q752.885 359.411 758.718 359.411 Q763.95 359.411 766.982 362.791 Q770.038 366.147 770.038 371.934 M765.778 370.684 Q765.732 367.189 763.811 365.106 Q761.913 363.022 758.765 363.022 Q755.2 363.022 753.047 365.036 Q750.917 367.05 750.593 370.707 L765.778 370.684 Z" fill="#000000" fill-rule="nonzero" fill-opacity="1" /><path clip-path="url(#clip870)" d="M777.63 380.082 L782.514 380.082 L782.514 385.962 L777.63 385.962 L777.63 380.082 Z" fill="#000000" fill-rule="nonzero" fill-opacity="1" /><path clip-path="url(#clip870)" d="M792.098 360.036 L796.357 360.036 L796.357 386.425 Q796.357 391.379 794.459 393.601 Q792.584 395.823 788.394 395.823 L786.774 395.823 L786.774 392.212 L787.908 392.212 Q790.338 392.212 791.218 391.078 Q792.098 389.967 792.098 386.425 L792.098 360.036 M792.098 349.944 L796.357 349.944 L796.357 355.337 L792.098 355.337 L792.098 349.944 Z" fill="#000000" fill-rule="nonzero" fill-opacity="1" /><path clip-path="url(#clip870)" d="M805.269 349.944 L809.528 349.944 L809.528 385.962 L805.269 385.962 L805.269 349.944 Z" fill="#000000" fill-rule="nonzero" fill-opacity="1" /><polyline clip-path="url(#clip870)" style="stroke:#0000ff; stroke-linecap:round; stroke-linejoin:round; stroke-width:6; stroke-opacity:1; fill:none" points="403.616,420.522 524.22,420.522 "/>
<circle clip-path="url(#clip870)" cx="463.918" cy="420.522" r="16.7507" fill="#0000ff" fill-rule="evenodd" fill-opacity="1" stroke="#000000" stroke-opacity="1" stroke-width="4.55111"/>
<path clip-path="url(#clip870)" d="M544.321 403.242 L548.997 403.242 L548.997 417.409 L565.988 417.409 L565.988 403.242 L570.664 403.242 L570.664 437.802 L565.988 437.802 L565.988 421.344 L548.997 421.344 L548.997 437.802 L544.321 437.802 L544.321 403.242 Z" fill="#000000" fill-rule="nonzero" fill-opacity="1" /><path clip-path="url(#clip870)" d="M579.969 403.242 L586.937 403.242 L595.756 426.76 L604.622 403.242 L611.589 403.242 L611.589 437.802 L607.029 437.802 L607.029 407.455 L598.117 431.159 L593.418 431.159 L584.506 407.455 L584.506 437.802 L579.969 437.802 L579.969 403.242 Z" fill="#000000" fill-rule="nonzero" fill-opacity="1" /><path clip-path="url(#clip870)" d="M620.872 403.242 L627.839 403.242 L636.659 426.76 L645.524 403.242 L652.492 403.242 L652.492 437.802 L647.932 437.802 L647.932 407.455 L639.02 431.159 L634.321 431.159 L625.409 407.455 L625.409 437.802 L620.872 437.802 L620.872 403.242 Z" fill="#000000" fill-rule="nonzero" fill-opacity="1" /><path clip-path="url(#clip870)" d="M678.117 412.64 L678.117 416.668 Q676.311 415.742 674.367 415.279 Q672.422 414.816 670.339 414.816 Q667.168 414.816 665.571 415.788 Q663.997 416.76 663.997 418.705 Q663.997 420.186 665.131 421.043 Q666.265 421.876 669.691 422.64 L671.149 422.964 Q675.686 423.936 677.584 425.719 Q679.506 427.478 679.506 430.649 Q679.506 434.26 676.635 436.367 Q673.788 438.473 668.788 438.473 Q666.705 438.473 664.436 438.057 Q662.191 437.663 659.691 436.853 L659.691 432.455 Q662.052 433.682 664.344 434.307 Q666.635 434.908 668.881 434.908 Q671.89 434.908 673.51 433.89 Q675.131 432.848 675.131 430.973 Q675.131 429.237 673.95 428.311 Q672.793 427.385 668.834 426.529 L667.353 426.182 Q663.395 425.348 661.635 423.635 Q659.876 421.899 659.876 418.89 Q659.876 415.233 662.469 413.242 Q665.061 411.251 669.83 411.251 Q672.191 411.251 674.274 411.598 Q676.358 411.946 678.117 412.64 Z" fill="#000000" fill-rule="nonzero" fill-opacity="1" /><path clip-path="url(#clip870)" d="M686.89 431.922 L691.774 431.922 L691.774 437.802 L686.89 437.802 L686.89 431.922 Z" fill="#000000" fill-rule="nonzero" fill-opacity="1" /><path clip-path="url(#clip870)" d="M701.357 411.876 L705.617 411.876 L705.617 438.265 Q705.617 443.219 703.719 445.441 Q701.844 447.663 697.654 447.663 L696.033 447.663 L696.033 444.052 L697.168 444.052 Q699.598 444.052 700.478 442.918 Q701.357 441.807 701.357 438.265 L701.357 411.876 M701.357 401.784 L705.617 401.784 L705.617 407.177 L701.357 407.177 L701.357 401.784 Z" fill="#000000" fill-rule="nonzero" fill-opacity="1" /><path clip-path="url(#clip870)" d="M714.529 401.784 L718.788 401.784 L718.788 437.802 L714.529 437.802 L714.529 401.784 Z" fill="#000000" fill-rule="nonzero" fill-opacity="1" /><polyline clip-path="url(#clip870)" style="stroke:#008000; stroke-linecap:round; stroke-linejoin:round; stroke-width:6; stroke-opacity:1; fill:none" points="403.616,472.362 524.22,472.362 "/>
<path clip-path="url(#clip870)" d="M482.53 453.75 L445.306 453.75 L463.918 490.974 L482.53 453.75 Z" fill="#008000" fill-rule="evenodd" fill-opacity="1" stroke="#000000" stroke-opacity="1" stroke-width="4.55111"/>
<path clip-path="url(#clip870)" d="M566.034 473.994 L566.034 489.642 L561.775 489.642 L561.775 474.133 Q561.775 470.452 560.34 468.624 Q558.905 466.795 556.034 466.795 Q552.585 466.795 550.594 468.994 Q548.604 471.193 548.604 474.989 L548.604 489.642 L544.321 489.642 L544.321 453.624 L548.604 453.624 L548.604 467.744 Q550.131 465.406 552.192 464.249 Q554.275 463.091 556.983 463.091 Q561.451 463.091 563.742 465.869 Q566.034 468.624 566.034 473.994 Z" fill="#000000" fill-rule="nonzero" fill-opacity="1" /><path clip-path="url(#clip870)" d="M594.715 468.693 Q596.312 465.823 598.534 464.457 Q600.756 463.091 603.765 463.091 Q607.816 463.091 610.015 465.938 Q612.214 468.762 612.214 473.994 L612.214 489.642 L607.932 489.642 L607.932 474.133 Q607.932 470.406 606.613 468.6 Q605.293 466.795 602.585 466.795 Q599.275 466.795 597.353 468.994 Q595.432 471.193 595.432 474.989 L595.432 489.642 L591.15 489.642 L591.15 474.133 Q591.15 470.383 589.83 468.6 Q588.511 466.795 585.756 466.795 Q582.492 466.795 580.571 469.017 Q578.65 471.216 578.65 474.989 L578.65 489.642 L574.367 489.642 L574.367 463.716 L578.65 463.716 L578.65 467.744 Q580.108 465.36 582.145 464.225 Q584.182 463.091 586.983 463.091 Q589.807 463.091 591.775 464.526 Q593.765 465.962 594.715 468.693 Z" fill="#000000" fill-rule="nonzero" fill-opacity="1" /><path clip-path="url(#clip870)" d="M640.895 468.693 Q642.492 465.823 644.714 464.457 Q646.936 463.091 649.946 463.091 Q653.997 463.091 656.196 465.938 Q658.395 468.762 658.395 473.994 L658.395 489.642 L654.112 489.642 L654.112 474.133 Q654.112 470.406 652.793 468.6 Q651.473 466.795 648.765 466.795 Q645.455 466.795 643.534 468.994 Q641.612 471.193 641.612 474.989 L641.612 489.642 L637.33 489.642 L637.33 474.133 Q637.33 470.383 636.011 468.6 Q634.691 466.795 631.937 466.795 Q628.673 466.795 626.751 469.017 Q624.83 471.216 624.83 474.989 L624.83 489.642 L620.548 489.642 L620.548 463.716 L624.83 463.716 L624.83 467.744 Q626.288 465.36 628.325 464.225 Q630.362 463.091 633.163 463.091 Q635.987 463.091 637.955 464.526 Q639.946 465.962 640.895 468.693 Z" fill="#000000" fill-rule="nonzero" fill-opacity="1" /><path clip-path="url(#clip870)" d="M666.89 453.624 L671.149 453.624 L671.149 489.642 L666.89 489.642 L666.89 453.624 Z" fill="#000000" fill-rule="nonzero" fill-opacity="1" /><path clip-path="url(#clip870)" d="M702.237 475.614 L702.237 477.698 L682.654 477.698 Q682.932 482.096 685.293 484.411 Q687.677 486.702 691.913 486.702 Q694.367 486.702 696.658 486.1 Q698.973 485.498 701.242 484.295 L701.242 488.323 Q698.95 489.295 696.543 489.804 Q694.135 490.313 691.658 490.313 Q685.455 490.313 681.821 486.702 Q678.209 483.091 678.209 476.934 Q678.209 470.568 681.635 466.841 Q685.084 463.091 690.918 463.091 Q696.149 463.091 699.182 466.471 Q702.237 469.827 702.237 475.614 M697.978 474.364 Q697.932 470.869 696.01 468.786 Q694.112 466.702 690.964 466.702 Q687.399 466.702 685.246 468.716 Q683.117 470.73 682.793 474.387 L697.978 474.364 Z" fill="#000000" fill-rule="nonzero" fill-opacity="1" /><path clip-path="url(#clip870)" d="M721.01 476.61 Q715.848 476.61 713.857 477.79 Q711.867 478.971 711.867 481.818 Q711.867 484.086 713.348 485.429 Q714.853 486.748 717.422 486.748 Q720.964 486.748 723.093 484.249 Q725.246 481.725 725.246 477.559 L725.246 476.61 L721.01 476.61 M729.505 474.85 L729.505 489.642 L725.246 489.642 L725.246 485.707 Q723.788 488.068 721.612 489.202 Q719.436 490.313 716.288 490.313 Q712.306 490.313 709.945 488.091 Q707.607 485.846 707.607 482.096 Q707.607 477.721 710.524 475.499 Q713.464 473.276 719.274 473.276 L725.246 473.276 L725.246 472.86 Q725.246 469.92 723.302 468.323 Q721.38 466.702 717.885 466.702 Q715.663 466.702 713.556 467.235 Q711.45 467.767 709.506 468.832 L709.506 464.897 Q711.844 463.994 714.043 463.554 Q716.242 463.091 718.325 463.091 Q723.95 463.091 726.728 466.008 Q729.505 468.925 729.505 474.85 Z" fill="#000000" fill-rule="nonzero" fill-opacity="1" /><path clip-path="url(#clip870)" d="M753.302 467.698 Q752.584 467.281 751.728 467.096 Q750.894 466.887 749.876 466.887 Q746.265 466.887 744.32 469.249 Q742.399 471.587 742.399 475.985 L742.399 489.642 L738.117 489.642 L738.117 463.716 L742.399 463.716 L742.399 467.744 Q743.741 465.383 745.894 464.249 Q748.047 463.091 751.126 463.091 Q751.566 463.091 752.098 463.161 Q752.63 463.207 753.278 463.323 L753.302 467.698 Z" fill="#000000" fill-rule="nonzero" fill-opacity="1" /><path clip-path="url(#clip870)" d="M778.487 473.994 L778.487 489.642 L774.227 489.642 L774.227 474.133 Q774.227 470.452 772.792 468.624 Q771.357 466.795 768.487 466.795 Q765.038 466.795 763.047 468.994 Q761.056 471.193 761.056 474.989 L761.056 489.642 L756.774 489.642 L756.774 463.716 L761.056 463.716 L761.056 467.744 Q762.584 465.406 764.644 464.249 Q766.727 463.091 769.436 463.091 Q773.903 463.091 776.195 465.869 Q778.487 468.624 778.487 473.994 Z" fill="#000000" fill-rule="nonzero" fill-opacity="1" /><path clip-path="url(#clip870)" d="M801.658 453.624 L811.473 453.624 L811.473 456.934 L805.917 456.934 L805.917 492.582 L811.473 492.582 L811.473 495.892 L801.658 495.892 L801.658 453.624 Z" fill="#000000" fill-rule="nonzero" fill-opacity="1" /><path clip-path="url(#clip870)" d="M818.394 474.758 L830.871 474.758 L830.871 478.554 L818.394 478.554 L818.394 474.758 Z" fill="#000000" fill-rule="nonzero" fill-opacity="1" /><path clip-path="url(#clip870)" d="M848.255 458.161 Q844.644 458.161 842.815 461.725 Q841.009 465.267 841.009 472.397 Q841.009 479.503 842.815 483.068 Q844.644 486.61 848.255 486.61 Q851.889 486.61 853.695 483.068 Q855.523 479.503 855.523 472.397 Q855.523 465.267 853.695 461.725 Q851.889 458.161 848.255 458.161 M848.255 454.457 Q854.065 454.457 857.121 459.063 Q860.199 463.647 860.199 472.397 Q860.199 481.124 857.121 485.73 Q854.065 490.313 848.255 490.313 Q842.445 490.313 839.366 485.73 Q836.31 481.124 836.31 472.397 Q836.31 463.647 839.366 459.063 Q842.445 454.457 848.255 454.457 Z" fill="#000000" fill-rule="nonzero" fill-opacity="1" /><path clip-path="url(#clip870)" d="M868.417 483.762 L873.301 483.762 L873.301 489.642 L868.417 489.642 L868.417 483.762 Z" fill="#000000" fill-rule="nonzero" fill-opacity="1" /><path clip-path="url(#clip870)" d="M887.514 485.707 L903.833 485.707 L903.833 489.642 L881.889 489.642 L881.889 485.707 Q884.551 482.952 889.134 478.323 Q893.741 473.67 894.921 472.327 Q897.167 469.804 898.046 468.068 Q898.949 466.309 898.949 464.619 Q898.949 461.864 897.005 460.128 Q895.083 458.392 891.981 458.392 Q889.782 458.392 887.329 459.156 Q884.898 459.92 882.12 461.471 L882.12 456.749 Q884.944 455.614 887.398 455.036 Q889.852 454.457 891.889 454.457 Q897.259 454.457 900.454 457.142 Q903.648 459.827 903.648 464.318 Q903.648 466.448 902.838 468.369 Q902.051 470.267 899.944 472.86 Q899.366 473.531 896.264 476.749 Q893.162 479.943 887.514 485.707 Z" fill="#000000" fill-rule="nonzero" fill-opacity="1" /><path clip-path="url(#clip870)" d="M924.227 470.499 Q921.079 470.499 919.227 472.651 Q917.398 474.804 917.398 478.554 Q917.398 482.281 919.227 484.457 Q921.079 486.61 924.227 486.61 Q927.375 486.61 929.203 484.457 Q931.055 482.281 931.055 478.554 Q931.055 474.804 929.203 472.651 Q927.375 470.499 924.227 470.499 M933.509 455.846 L933.509 460.105 Q931.75 459.272 929.944 458.832 Q928.162 458.392 926.403 458.392 Q921.773 458.392 919.319 461.517 Q916.889 464.642 916.541 470.962 Q917.907 468.948 919.967 467.883 Q922.028 466.795 924.504 466.795 Q929.713 466.795 932.722 469.966 Q935.754 473.114 935.754 478.554 Q935.754 483.878 932.606 487.096 Q929.458 490.313 924.227 490.313 Q918.231 490.313 915.06 485.73 Q911.889 481.124 911.889 472.397 Q911.889 464.202 915.778 459.341 Q919.666 454.457 926.217 454.457 Q927.977 454.457 929.759 454.804 Q931.565 455.151 933.509 455.846 Z" fill="#000000" fill-rule="nonzero" fill-opacity="1" /><path clip-path="url(#clip870)" d="M947.838 485.707 L964.157 485.707 L964.157 489.642 L942.213 489.642 L942.213 485.707 Q944.875 482.952 949.458 478.323 Q954.064 473.67 955.245 472.327 Q957.49 469.804 958.37 468.068 Q959.273 466.309 959.273 464.619 Q959.273 461.864 957.328 460.128 Q955.407 458.392 952.305 458.392 Q950.106 458.392 947.652 459.156 Q945.222 459.92 942.444 461.471 L942.444 456.749 Q945.268 455.614 947.722 455.036 Q950.176 454.457 952.213 454.457 Q957.583 454.457 960.777 457.142 Q963.972 459.827 963.972 464.318 Q963.972 466.448 963.162 468.369 Q962.375 470.267 960.268 472.86 Q959.689 473.531 956.588 476.749 Q953.486 479.943 947.838 485.707 Z" fill="#000000" fill-rule="nonzero" fill-opacity="1" /><path clip-path="url(#clip870)" d="M993.555 468.693 Q995.152 465.823 997.374 464.457 Q999.597 463.091 1002.61 463.091 Q1006.66 463.091 1008.86 465.938 Q1011.05 468.762 1011.05 473.994 L1011.05 489.642 L1006.77 489.642 L1006.77 474.133 Q1006.77 470.406 1005.45 468.6 Q1004.13 466.795 1001.43 466.795 Q998.115 466.795 996.194 468.994 Q994.273 471.193 994.273 474.989 L994.273 489.642 L989.99 489.642 L989.99 474.133 Q989.99 470.383 988.671 468.6 Q987.351 466.795 984.597 466.795 Q981.333 466.795 979.412 469.017 Q977.49 471.216 977.49 474.989 L977.49 489.642 L973.208 489.642 L973.208 463.716 L977.49 463.716 L977.49 467.744 Q978.949 465.36 980.986 464.225 Q983.023 463.091 985.824 463.091 Q988.648 463.091 990.615 464.526 Q992.606 465.962 993.555 468.693 Z" fill="#000000" fill-rule="nonzero" fill-opacity="1" /><path clip-path="url(#clip870)" d="M1036.08 464.48 L1036.08 468.508 Q1034.27 467.582 1032.33 467.119 Q1030.38 466.656 1028.3 466.656 Q1025.13 466.656 1023.53 467.628 Q1021.96 468.6 1021.96 470.545 Q1021.96 472.026 1023.09 472.883 Q1024.23 473.716 1027.65 474.48 L1029.11 474.804 Q1033.65 475.776 1035.55 477.559 Q1037.47 479.318 1037.47 482.489 Q1037.47 486.1 1034.6 488.207 Q1031.75 490.313 1026.75 490.313 Q1024.67 490.313 1022.4 489.897 Q1020.15 489.503 1017.65 488.693 L1017.65 484.295 Q1020.01 485.522 1022.3 486.147 Q1024.6 486.748 1026.84 486.748 Q1029.85 486.748 1031.47 485.73 Q1033.09 484.688 1033.09 482.813 Q1033.09 481.077 1031.91 480.151 Q1030.75 479.225 1026.8 478.369 L1025.31 478.022 Q1021.36 477.188 1019.6 475.475 Q1017.84 473.739 1017.84 470.73 Q1017.84 467.073 1020.43 465.082 Q1023.02 463.091 1027.79 463.091 Q1030.15 463.091 1032.24 463.438 Q1034.32 463.786 1036.08 464.48 Z" fill="#000000" fill-rule="nonzero" fill-opacity="1" /><path clip-path="url(#clip870)" d="M1054.2 453.624 L1054.2 495.892 L1044.39 495.892 L1044.39 492.582 L1049.92 492.582 L1049.92 456.934 L1044.39 456.934 L1044.39 453.624 L1054.2 453.624 Z" fill="#000000" fill-rule="nonzero" fill-opacity="1" /></svg>
