<?xml version="1.0" encoding="utf-8"?>
<svg xmlns="http://www.w3.org/2000/svg" xmlns:xlink="http://www.w3.org/1999/xlink" width="600" height="400" viewBox="0 0 2400 1600">
<defs>
  <clipPath id="clip660">
    <rect x="0" y="0" width="2400" height="1600"/>
  </clipPath>
</defs>
<path clip-path="url(#clip660)" d="M0 1600 L2400 1600 L2400 0 L0 0  Z" fill="#ffffff" fill-rule="evenodd" fill-opacity="1"/>
<defs>
  <clipPath id="clip661">
    <rect x="480" y="0" width="1681" height="1600"/>
  </clipPath>
</defs>
<path clip-path="url(#clip660)" d="M424.436 1202.71 L2132.28 1202.71 L2132.28 404.425 L424.436 404.425  Z" fill="#ffffff" fill-rule="evenodd" fill-opacity="1"/>
<defs>
  <clipPath id="clip662">
    <rect x="424" y="404" width="1709" height="799"/>
  </clipPath>
</defs>
<polyline clip-path="url(#clip662)" style="stroke:#000000; stroke-linecap:round; stroke-linejoin:round; stroke-width:2; stroke-opacity:0.1; fill:none" points="766.006,1202.71 766.006,404.425 "/>
<polyline clip-path="url(#clip662)" style="stroke:#000000; stroke-linecap:round; stroke-linejoin:round; stroke-width:2; stroke-opacity:0.1; fill:none" points="1192.97,1202.71 1192.97,404.425 "/>
<polyline clip-path="url(#clip662)" style="stroke:#000000; stroke-linecap:round; stroke-linejoin:round; stroke-width:2; stroke-opacity:0.1; fill:none" points="1619.93,1202.71 1619.93,404.425 "/>
<polyline clip-path="url(#clip662)" style="stroke:#000000; stroke-linecap:round; stroke-linejoin:round; stroke-width:2; stroke-opacity:0.1; fill:none" points="2046.89,1202.71 2046.89,404.425 "/>
<polyline clip-path="url(#clip660)" style="stroke:#000000; stroke-linecap:round; stroke-linejoin:round; stroke-width:4; stroke-opacity:1; fill:none" points="424.436,1202.71 2132.28,1202.71 "/>
<polyline clip-path="url(#clip660)" style="stroke:#000000; stroke-linecap:round; stroke-linejoin:round; stroke-width:4; stroke-opacity:1; fill:none" points="766.006,1202.71 766.006,1183.81 "/>
<polyline clip-path="url(#clip660)" style="stroke:#000000; stroke-linecap:round; stroke-linejoin:round; stroke-width:4; stroke-opacity:1; fill:none" points="1192.97,1202.71 1192.97,1183.81 "/>
<polyline clip-path="url(#clip660)" style="stroke:#000000; stroke-linecap:round; stroke-linejoin:round; stroke-width:4; stroke-opacity:1; fill:none" points="1619.93,1202.71 1619.93,1183.81 "/>
<polyline clip-path="url(#clip660)" style="stroke:#000000; stroke-linecap:round; stroke-linejoin:round; stroke-width:4; stroke-opacity:1; fill:none" points="2046.89,1202.71 2046.89,1183.81 "/>
<path clip-path="url(#clip660)" d="M756.283 1230.55 L774.64 1230.55 L774.64 1234.48 L760.566 1234.48 L760.566 1242.95 Q761.584 1242.61 762.603 1242.45 Q763.621 1242.26 764.64 1242.26 Q770.427 1242.26 773.806 1245.43 Q777.186 1248.6 777.186 1254.02 Q777.186 1259.6 773.714 1262.7 Q770.242 1265.78 763.922 1265.78 Q761.746 1265.78 759.478 1265.41 Q757.232 1265.04 754.825 1264.3 L754.825 1259.6 Q756.908 1260.73 759.131 1261.29 Q761.353 1261.84 763.83 1261.84 Q767.834 1261.84 770.172 1259.74 Q772.51 1257.63 772.51 1254.02 Q772.51 1250.41 770.172 1248.3 Q767.834 1246.2 763.83 1246.2 Q761.955 1246.2 760.08 1246.61 Q758.228 1247.03 756.283 1247.91 L756.283 1230.55 Z" fill="#000000" fill-rule="nonzero" fill-opacity="1" /><path clip-path="url(#clip660)" d="M1167.66 1261.17 L1175.29 1261.17 L1175.29 1234.81 L1166.98 1236.47 L1166.98 1232.21 L1175.25 1230.55 L1179.92 1230.55 L1179.92 1261.17 L1187.56 1261.17 L1187.56 1265.11 L1167.66 1265.11 L1167.66 1261.17 Z" fill="#000000" fill-rule="nonzero" fill-opacity="1" /><path clip-path="url(#clip660)" d="M1207.01 1233.63 Q1203.4 1233.63 1201.57 1237.19 Q1199.76 1240.73 1199.76 1247.86 Q1199.76 1254.97 1201.57 1258.53 Q1203.4 1262.08 1207.01 1262.08 Q1210.64 1262.08 1212.45 1258.53 Q1214.28 1254.97 1214.28 1247.86 Q1214.28 1240.73 1212.45 1237.19 Q1210.64 1233.63 1207.01 1233.63 M1207.01 1229.92 Q1212.82 1229.92 1215.87 1234.53 Q1218.95 1239.11 1218.95 1247.86 Q1218.95 1256.59 1215.87 1261.2 Q1212.82 1265.78 1207.01 1265.78 Q1201.2 1265.78 1198.12 1261.2 Q1195.06 1256.59 1195.06 1247.86 Q1195.06 1239.11 1198.12 1234.53 Q1201.2 1229.92 1207.01 1229.92 Z" fill="#000000" fill-rule="nonzero" fill-opacity="1" /><path clip-path="url(#clip660)" d="M1595.11 1261.17 L1602.75 1261.17 L1602.75 1234.81 L1594.44 1236.47 L1594.44 1232.21 L1602.71 1230.55 L1607.38 1230.55 L1607.38 1261.17 L1615.02 1261.17 L1615.02 1265.11 L1595.11 1265.11 L1595.11 1261.17 Z" fill="#000000" fill-rule="nonzero" fill-opacity="1" /><path clip-path="url(#clip660)" d="M1624.51 1230.55 L1642.87 1230.55 L1642.87 1234.48 L1628.79 1234.48 L1628.79 1242.95 Q1629.81 1242.61 1630.83 1242.45 Q1631.85 1242.26 1632.87 1242.26 Q1638.66 1242.26 1642.04 1245.43 Q1645.42 1248.6 1645.42 1254.02 Q1645.42 1259.6 1641.94 1262.7 Q1638.47 1265.78 1632.15 1265.78 Q1629.98 1265.78 1627.71 1265.41 Q1625.46 1265.04 1623.05 1264.3 L1623.05 1259.6 Q1625.14 1260.73 1627.36 1261.29 Q1629.58 1261.84 1632.06 1261.84 Q1636.06 1261.84 1638.4 1259.74 Q1640.74 1257.63 1640.74 1254.02 Q1640.74 1250.41 1638.4 1248.3 Q1636.06 1246.2 1632.06 1246.2 Q1630.18 1246.2 1628.31 1246.61 Q1626.46 1247.03 1624.51 1247.91 L1624.51 1230.55 Z" fill="#000000" fill-rule="nonzero" fill-opacity="1" /><path clip-path="url(#clip660)" d="M2025.66 1261.17 L2041.98 1261.17 L2041.98 1265.11 L2020.04 1265.11 L2020.04 1261.17 Q2022.7 1258.42 2027.28 1253.79 Q2031.89 1249.14 2033.07 1247.79 Q2035.32 1245.27 2036.2 1243.53 Q2037.1 1241.77 2037.1 1240.08 Q2037.1 1237.33 2035.16 1235.59 Q2033.23 1233.86 2030.13 1233.86 Q2027.93 1233.86 2025.48 1234.62 Q2023.05 1235.39 2020.27 1236.94 L2020.27 1232.21 Q2023.09 1231.08 2025.55 1230.5 Q2028 1229.92 2030.04 1229.92 Q2035.41 1229.92 2038.6 1232.61 Q2041.8 1235.29 2041.8 1239.78 Q2041.8 1241.91 2040.99 1243.83 Q2040.2 1245.73 2038.09 1248.33 Q2037.52 1249 2034.41 1252.21 Q2031.31 1255.41 2025.66 1261.17 Z" fill="#000000" fill-rule="nonzero" fill-opacity="1" /><path clip-path="url(#clip660)" d="M2061.8 1233.63 Q2058.19 1233.63 2056.36 1237.19 Q2054.55 1240.73 2054.55 1247.86 Q2054.55 1254.97 2056.36 1258.53 Q2058.19 1262.08 2061.8 1262.08 Q2065.43 1262.08 2067.24 1258.53 Q2069.07 1254.97 2069.07 1247.86 Q2069.07 1240.73 2067.24 1237.19 Q2065.43 1233.63 2061.8 1233.63 M2061.8 1229.92 Q2067.61 1229.92 2070.66 1234.53 Q2073.74 1239.11 2073.74 1247.86 Q2073.74 1256.59 2070.66 1261.2 Q2067.61 1265.78 2061.8 1265.78 Q2055.99 1265.78 2052.91 1261.2 Q2049.85 1256.59 2049.85 1247.86 Q2049.85 1239.11 2052.91 1234.53 Q2055.99 1229.92 2061.8 1229.92 Z" fill="#000000" fill-rule="nonzero" fill-opacity="1" /><path clip-path="url(#clip660)" d="M1000.75 1326.06 L1000.75 1347.57 L994.895 1347.57 L994.895 1326.25 Q994.895 1321.19 992.921 1318.67 Q990.948 1316.16 987.001 1316.16 Q982.259 1316.16 979.522 1319.18 Q976.784 1322.2 976.784 1327.42 L976.784 1347.57 L970.896 1347.57 L970.896 1311.92 L976.784 1311.92 L976.784 1317.46 Q978.885 1314.25 981.718 1312.66 Q984.582 1311.06 988.306 1311.06 Q994.449 1311.06 997.6 1314.88 Q1000.75 1318.67 1000.75 1326.06 Z" fill="#000000" fill-rule="nonzero" fill-opacity="1" /><path clip-path="url(#clip660)" d="M1011.83 1333.5 L1011.83 1311.92 L1017.68 1311.92 L1017.68 1333.28 Q1017.68 1338.34 1019.66 1340.89 Q1021.63 1343.4 1025.58 1343.4 Q1030.32 1343.4 1033.06 1340.38 Q1035.83 1337.35 1035.83 1332.13 L1035.83 1311.92 L1041.68 1311.92 L1041.68 1347.57 L1035.83 1347.57 L1035.83 1342.1 Q1033.69 1345.34 1030.86 1346.93 Q1028.06 1348.49 1024.34 1348.49 Q1018.19 1348.49 1015.01 1344.68 Q1011.83 1340.86 1011.83 1333.5 M1026.56 1311.06 L1026.56 1311.06 Z" fill="#000000" fill-rule="nonzero" fill-opacity="1" /><path clip-path="url(#clip660)" d="M1081.5 1318.77 Q1083.7 1314.82 1086.75 1312.94 Q1089.81 1311.06 1093.95 1311.06 Q1099.52 1311.06 1102.54 1314.98 Q1105.56 1318.86 1105.56 1326.06 L1105.56 1347.57 L1099.67 1347.57 L1099.67 1326.25 Q1099.67 1321.12 1097.86 1318.64 Q1096.05 1316.16 1092.32 1316.16 Q1087.77 1316.16 1085.13 1319.18 Q1082.49 1322.2 1082.49 1327.42 L1082.49 1347.57 L1076.6 1347.57 L1076.6 1326.25 Q1076.6 1321.09 1074.78 1318.64 Q1072.97 1316.16 1069.18 1316.16 Q1064.69 1316.16 1062.05 1319.21 Q1059.41 1322.24 1059.41 1327.42 L1059.41 1347.57 L1053.52 1347.57 L1053.52 1311.92 L1059.41 1311.92 L1059.41 1317.46 Q1061.42 1314.18 1064.22 1312.62 Q1067.02 1311.06 1070.87 1311.06 Q1074.75 1311.06 1077.46 1313.04 Q1080.2 1315.01 1081.5 1318.77 Z" fill="#000000" fill-rule="nonzero" fill-opacity="1" /><path clip-path="url(#clip660)" d="M1142.83 1329.78 Q1142.83 1323.32 1140.16 1319.66 Q1137.52 1315.97 1132.87 1315.97 Q1128.22 1315.97 1125.55 1319.66 Q1122.91 1323.32 1122.91 1329.78 Q1122.91 1336.24 1125.55 1339.93 Q1128.22 1343.59 1132.87 1343.59 Q1137.52 1343.59 1140.16 1339.93 Q1142.83 1336.24 1142.83 1329.78 M1122.91 1317.33 Q1124.76 1314.15 1127.56 1312.62 Q1130.39 1311.06 1134.3 1311.06 Q1140.8 1311.06 1144.84 1316.22 Q1148.91 1321.38 1148.91 1329.78 Q1148.91 1338.18 1144.84 1343.34 Q1140.8 1348.49 1134.3 1348.49 Q1130.39 1348.49 1127.56 1346.97 Q1124.76 1345.41 1122.91 1342.22 L1122.91 1347.57 L1117.02 1347.57 L1117.02 1298.05 L1122.91 1298.05 L1122.91 1317.33 Z" fill="#000000" fill-rule="nonzero" fill-opacity="1" /><path clip-path="url(#clip660)" d="M1189.11 1328.28 L1189.11 1331.15 L1162.19 1331.15 Q1162.57 1337.2 1165.81 1340.38 Q1169.09 1343.53 1174.92 1343.53 Q1178.29 1343.53 1181.44 1342.7 Q1184.62 1341.87 1187.74 1340.22 L1187.74 1345.76 Q1184.59 1347.09 1181.28 1347.79 Q1177.97 1348.49 1174.57 1348.49 Q1166.04 1348.49 1161.04 1343.53 Q1156.07 1338.56 1156.07 1330.1 Q1156.07 1321.34 1160.79 1316.22 Q1165.53 1311.06 1173.55 1311.06 Q1180.74 1311.06 1184.91 1315.71 Q1189.11 1320.33 1189.11 1328.28 M1183.26 1326.56 Q1183.19 1321.76 1180.55 1318.89 Q1177.94 1316.03 1173.61 1316.03 Q1168.71 1316.03 1165.75 1318.8 Q1162.82 1321.57 1162.38 1326.6 L1183.26 1326.56 Z" fill="#000000" fill-rule="nonzero" fill-opacity="1" /><path clip-path="url(#clip660)" d="M1219.38 1317.4 Q1218.39 1316.83 1217.22 1316.57 Q1216.07 1316.28 1214.67 1316.28 Q1209.71 1316.28 1207.03 1319.53 Q1204.39 1322.75 1204.39 1328.79 L1204.39 1347.57 L1198.5 1347.57 L1198.5 1311.92 L1204.39 1311.92 L1204.39 1317.46 Q1206.24 1314.22 1209.2 1312.66 Q1212.16 1311.06 1216.39 1311.06 Q1216.99 1311.06 1217.73 1311.16 Q1218.46 1311.22 1219.35 1311.38 L1219.38 1317.4 Z" fill="#000000" fill-rule="nonzero" fill-opacity="1" /><path clip-path="url(#clip660)" d="M1260.06 1316.03 Q1255.35 1316.03 1252.61 1319.72 Q1249.87 1323.38 1249.87 1329.78 Q1249.87 1336.18 1252.58 1339.87 Q1255.32 1343.53 1260.06 1343.53 Q1264.74 1343.53 1267.47 1339.84 Q1270.21 1336.14 1270.21 1329.78 Q1270.21 1323.45 1267.47 1319.75 Q1264.74 1316.03 1260.06 1316.03 M1260.06 1311.06 Q1267.7 1311.06 1272.06 1316.03 Q1276.42 1320.99 1276.42 1329.78 Q1276.42 1338.53 1272.06 1343.53 Q1267.7 1348.49 1260.06 1348.49 Q1252.39 1348.49 1248.03 1343.53 Q1243.7 1338.53 1243.7 1329.78 Q1243.7 1320.99 1248.03 1316.03 Q1252.39 1311.06 1260.06 1311.06 Z" fill="#000000" fill-rule="nonzero" fill-opacity="1" /><path clip-path="url(#clip660)" d="M1304.17 1298.05 L1304.17 1302.92 L1298.57 1302.92 Q1295.42 1302.92 1294.18 1304.19 Q1292.97 1305.46 1292.97 1308.77 L1292.97 1311.92 L1302.61 1311.92 L1302.61 1316.47 L1292.97 1316.47 L1292.97 1347.57 L1287.08 1347.57 L1287.08 1316.47 L1281.48 1316.47 L1281.48 1311.92 L1287.08 1311.92 L1287.08 1309.44 Q1287.08 1303.49 1289.85 1300.78 Q1292.62 1298.05 1298.63 1298.05 L1304.17 1298.05 Z" fill="#000000" fill-rule="nonzero" fill-opacity="1" /><path clip-path="url(#clip660)" d="M1352.52 1312.97 L1352.52 1318.51 Q1350.04 1317.24 1347.36 1316.6 Q1344.69 1315.97 1341.83 1315.97 Q1337.47 1315.97 1335.27 1317.3 Q1333.1 1318.64 1333.1 1321.31 Q1333.1 1323.35 1334.66 1324.53 Q1336.22 1325.67 1340.93 1326.72 L1342.94 1327.17 Q1349.18 1328.51 1351.79 1330.96 Q1354.43 1333.38 1354.43 1337.74 Q1354.43 1342.7 1350.48 1345.6 Q1346.57 1348.49 1339.69 1348.49 Q1336.83 1348.49 1333.71 1347.92 Q1330.62 1347.38 1327.18 1346.27 L1327.18 1340.22 Q1330.43 1341.91 1333.58 1342.77 Q1336.73 1343.59 1339.82 1343.59 Q1343.96 1343.59 1346.19 1342.19 Q1348.41 1340.76 1348.41 1338.18 Q1348.41 1335.79 1346.79 1334.52 Q1345.2 1333.25 1339.76 1332.07 L1337.72 1331.59 Q1332.28 1330.45 1329.86 1328.09 Q1327.44 1325.71 1327.44 1321.57 Q1327.44 1316.54 1331 1313.8 Q1334.57 1311.06 1341.13 1311.06 Q1344.37 1311.06 1347.24 1311.54 Q1350.1 1312.02 1352.52 1312.97 Z" fill="#000000" fill-rule="nonzero" fill-opacity="1" /><path clip-path="url(#clip660)" d="M1369.55 1301.8 L1369.55 1311.92 L1381.61 1311.92 L1381.61 1316.47 L1369.55 1316.47 L1369.55 1335.83 Q1369.55 1340.19 1370.73 1341.43 Q1371.94 1342.67 1375.6 1342.67 L1381.61 1342.67 L1381.61 1347.57 L1375.6 1347.57 Q1368.82 1347.57 1366.24 1345.06 Q1363.66 1342.51 1363.66 1335.83 L1363.66 1316.47 L1359.36 1316.47 L1359.36 1311.92 L1363.66 1311.92 L1363.66 1301.8 L1369.55 1301.8 Z" fill="#000000" fill-rule="nonzero" fill-opacity="1" /><path clip-path="url(#clip660)" d="M1405.51 1329.65 Q1398.42 1329.65 1395.68 1331.28 Q1392.94 1332.9 1392.94 1336.81 Q1392.94 1339.93 1394.98 1341.78 Q1397.05 1343.59 1400.58 1343.59 Q1405.45 1343.59 1408.38 1340.16 Q1411.34 1336.69 1411.34 1330.96 L1411.34 1329.65 L1405.51 1329.65 M1417.2 1327.23 L1417.2 1347.57 L1411.34 1347.57 L1411.34 1342.16 Q1409.33 1345.41 1406.34 1346.97 Q1403.35 1348.49 1399.02 1348.49 Q1393.55 1348.49 1390.3 1345.44 Q1387.09 1342.35 1387.09 1337.2 Q1387.09 1331.18 1391.1 1328.12 Q1395.14 1325.07 1403.13 1325.07 L1411.34 1325.07 L1411.34 1324.5 Q1411.34 1320.45 1408.67 1318.26 Q1406.02 1316.03 1401.22 1316.03 Q1398.16 1316.03 1395.27 1316.76 Q1392.37 1317.49 1389.7 1318.96 L1389.7 1313.55 Q1392.91 1312.31 1395.93 1311.7 Q1398.96 1311.06 1401.82 1311.06 Q1409.56 1311.06 1413.38 1315.07 Q1417.2 1319.08 1417.2 1327.23 Z" fill="#000000" fill-rule="nonzero" fill-opacity="1" /><path clip-path="url(#clip660)" d="M1435.05 1301.8 L1435.05 1311.92 L1447.11 1311.92 L1447.11 1316.47 L1435.05 1316.47 L1435.05 1335.83 Q1435.05 1340.19 1436.23 1341.43 Q1437.44 1342.67 1441.1 1342.67 L1447.11 1342.67 L1447.11 1347.57 L1441.1 1347.57 Q1434.32 1347.57 1431.74 1345.06 Q1429.16 1342.51 1429.16 1335.83 L1429.16 1316.47 L1424.87 1316.47 L1424.87 1311.92 L1429.16 1311.92 L1429.16 1301.8 L1435.05 1301.8 Z" fill="#000000" fill-rule="nonzero" fill-opacity="1" /><path clip-path="url(#clip660)" d="M1485.31 1328.28 L1485.31 1331.15 L1458.38 1331.15 Q1458.76 1337.2 1462.01 1340.38 Q1465.29 1343.53 1471.11 1343.53 Q1474.49 1343.53 1477.64 1342.7 Q1480.82 1341.87 1483.94 1340.22 L1483.94 1345.76 Q1480.79 1347.09 1477.48 1347.79 Q1474.17 1348.49 1470.76 1348.49 Q1462.23 1348.49 1457.24 1343.53 Q1452.27 1338.56 1452.27 1330.1 Q1452.27 1321.34 1456.98 1316.22 Q1461.72 1311.06 1469.74 1311.06 Q1476.94 1311.06 1481.11 1315.71 Q1485.31 1320.33 1485.31 1328.28 M1479.45 1326.56 Q1479.39 1321.76 1476.75 1318.89 Q1474.14 1316.03 1469.81 1316.03 Q1464.91 1316.03 1461.95 1318.8 Q1459.02 1321.57 1458.57 1326.6 L1479.45 1326.56 Z" fill="#000000" fill-rule="nonzero" fill-opacity="1" /><path clip-path="url(#clip660)" d="M1517.65 1312.97 L1517.65 1318.51 Q1515.16 1317.24 1512.49 1316.6 Q1509.82 1315.97 1506.95 1315.97 Q1502.59 1315.97 1500.4 1317.3 Q1498.23 1318.64 1498.23 1321.31 Q1498.23 1323.35 1499.79 1324.53 Q1501.35 1325.67 1506.06 1326.72 L1508.07 1327.17 Q1514.3 1328.51 1516.91 1330.96 Q1519.56 1333.38 1519.56 1337.74 Q1519.56 1342.7 1515.61 1345.6 Q1511.69 1348.49 1504.82 1348.49 Q1501.96 1348.49 1498.84 1347.92 Q1495.75 1347.38 1492.31 1346.27 L1492.31 1340.22 Q1495.56 1341.91 1498.71 1342.77 Q1501.86 1343.59 1504.95 1343.59 Q1509.08 1343.59 1511.31 1342.19 Q1513.54 1340.76 1513.54 1338.18 Q1513.54 1335.79 1511.92 1334.52 Q1510.33 1333.25 1504.88 1332.07 L1502.85 1331.59 Q1497.4 1330.45 1494.98 1328.09 Q1492.57 1325.71 1492.57 1321.57 Q1492.57 1316.54 1496.13 1313.8 Q1499.7 1311.06 1506.25 1311.06 Q1509.5 1311.06 1512.36 1311.54 Q1515.23 1312.02 1517.65 1312.97 Z" fill="#000000" fill-rule="nonzero" fill-opacity="1" /><path clip-path="url(#clip660)" d="M1549.86 1300.05 L1558.51 1300.05 L1579.58 1339.81 L1579.58 1300.05 L1585.82 1300.05 L1585.82 1347.57 L1577.17 1347.57 L1556.1 1307.82 L1556.1 1347.57 L1549.86 1347.57 L1549.86 1300.05 Z" fill="#000000" fill-rule="nonzero" fill-opacity="1" /><polyline clip-path="url(#clip662)" style="stroke:#000000; stroke-linecap:round; stroke-linejoin:round; stroke-width:2; stroke-opacity:0.1; fill:none" points="424.436,1202.71 2132.28,1202.71 "/>
<polyline clip-path="url(#clip662)" style="stroke:#000000; stroke-linecap:round; stroke-linejoin:round; stroke-width:2; stroke-opacity:0.1; fill:none" points="424.436,982.026 2132.28,982.026 "/>
<polyline clip-path="url(#clip662)" style="stroke:#000000; stroke-linecap:round; stroke-linejoin:round; stroke-width:2; stroke-opacity:0.1; fill:none" points="424.436,761.345 2132.28,761.345 "/>
<polyline clip-path="url(#clip662)" style="stroke:#000000; stroke-linecap:round; stroke-linejoin:round; stroke-width:2; stroke-opacity:0.1; fill:none" points="424.436,540.664 2132.28,540.664 "/>
<polyline clip-path="url(#clip660)" style="stroke:#000000; stroke-linecap:round; stroke-linejoin:round; stroke-width:4; stroke-opacity:1; fill:none" points="424.436,1202.71 424.436,404.425 "/>
<polyline clip-path="url(#clip660)" style="stroke:#000000; stroke-linecap:round; stroke-linejoin:round; stroke-width:4; stroke-opacity:1; fill:none" points="424.436,1202.71 443.334,1202.71 "/>
<polyline clip-path="url(#clip660)" style="stroke:#000000; stroke-linecap:round; stroke-linejoin:round; stroke-width:4; stroke-opacity:1; fill:none" points="424.436,982.026 443.334,982.026 "/>
<polyline clip-path="url(#clip660)" style="stroke:#000000; stroke-linecap:round; stroke-linejoin:round; stroke-width:4; stroke-opacity:1; fill:none" points="424.436,761.345 443.334,761.345 "/>
<polyline clip-path="url(#clip660)" style="stroke:#000000; stroke-linecap:round; stroke-linejoin:round; stroke-width:4; stroke-opacity:1; fill:none" points="424.436,540.664 443.334,540.664 "/>
<path clip-path="url(#clip660)" d="M376.492 1188.51 Q372.881 1188.51 371.052 1192.07 Q369.246 1195.61 369.246 1202.74 Q369.246 1209.85 371.052 1213.41 Q372.881 1216.96 376.492 1216.96 Q380.126 1216.96 381.931 1213.41 Q383.76 1209.85 383.76 1202.74 Q383.76 1195.61 381.931 1192.07 Q380.126 1188.51 376.492 1188.51 M376.492 1184.8 Q382.302 1184.8 385.357 1189.41 Q388.436 1193.99 388.436 1202.74 Q388.436 1211.47 385.357 1216.08 Q382.302 1220.66 376.492 1220.66 Q370.681 1220.66 367.603 1216.08 Q364.547 1211.47 364.547 1202.74 Q364.547 1193.99 367.603 1189.41 Q370.681 1184.8 376.492 1184.8 Z" fill="#000000" fill-rule="nonzero" fill-opacity="1" /><path clip-path="url(#clip660)" d="M337.14 995.371 L344.779 995.371 L344.779 969.006 L336.469 970.672 L336.469 966.413 L344.733 964.746 L349.408 964.746 L349.408 995.371 L357.047 995.371 L357.047 999.306 L337.14 999.306 L337.14 995.371 Z" fill="#000000" fill-rule="nonzero" fill-opacity="1" /><path clip-path="url(#clip660)" d="M376.492 967.825 Q372.881 967.825 371.052 971.39 Q369.246 974.931 369.246 982.061 Q369.246 989.167 371.052 992.732 Q372.881 996.274 376.492 996.274 Q380.126 996.274 381.931 992.732 Q383.76 989.167 383.76 982.061 Q383.76 974.931 381.931 971.39 Q380.126 967.825 376.492 967.825 M376.492 964.121 Q382.302 964.121 385.357 968.728 Q388.436 973.311 388.436 982.061 Q388.436 990.788 385.357 995.394 Q382.302 999.978 376.492 999.978 Q370.681 999.978 367.603 995.394 Q364.547 990.788 364.547 982.061 Q364.547 973.311 367.603 968.728 Q370.681 964.121 376.492 964.121 Z" fill="#000000" fill-rule="nonzero" fill-opacity="1" /><path clip-path="url(#clip660)" d="M340.358 774.69 L356.677 774.69 L356.677 778.625 L334.733 778.625 L334.733 774.69 Q337.395 771.935 341.978 767.306 Q346.584 762.653 347.765 761.31 Q350.01 758.787 350.89 757.051 Q351.793 755.292 351.793 753.602 Q351.793 750.848 349.848 749.111 Q347.927 747.375 344.825 747.375 Q342.626 747.375 340.172 748.139 Q337.742 748.903 334.964 750.454 L334.964 745.732 Q337.788 744.598 340.242 744.019 Q342.696 743.44 344.733 743.44 Q350.103 743.44 353.297 746.125 Q356.492 748.811 356.492 753.301 Q356.492 755.431 355.682 757.352 Q354.895 759.25 352.788 761.843 Q352.209 762.514 349.108 765.732 Q346.006 768.926 340.358 774.69 Z" fill="#000000" fill-rule="nonzero" fill-opacity="1" /><path clip-path="url(#clip660)" d="M376.492 747.144 Q372.881 747.144 371.052 750.709 Q369.246 754.25 369.246 761.38 Q369.246 768.486 371.052 772.051 Q372.881 775.593 376.492 775.593 Q380.126 775.593 381.931 772.051 Q383.76 768.486 383.76 761.38 Q383.76 754.25 381.931 750.709 Q380.126 747.144 376.492 747.144 M376.492 743.44 Q382.302 743.44 385.357 748.047 Q388.436 752.63 388.436 761.38 Q388.436 770.107 385.357 774.713 Q382.302 779.296 376.492 779.296 Q370.681 779.296 367.603 774.713 Q364.547 770.107 364.547 761.38 Q364.547 752.63 367.603 748.047 Q370.681 743.44 376.492 743.44 Z" fill="#000000" fill-rule="nonzero" fill-opacity="1" /><path clip-path="url(#clip660)" d="M350.496 539.31 Q353.853 540.028 355.728 542.296 Q357.626 544.565 357.626 547.898 Q357.626 553.014 354.107 555.814 Q350.589 558.615 344.108 558.615 Q341.932 558.615 339.617 558.176 Q337.325 557.759 334.871 556.902 L334.871 552.389 Q336.816 553.523 339.131 554.102 Q341.446 554.68 343.969 554.68 Q348.367 554.68 350.658 552.944 Q352.973 551.208 352.973 547.898 Q352.973 544.842 350.82 543.129 Q348.691 541.393 344.871 541.393 L340.844 541.393 L340.844 537.551 L345.057 537.551 Q348.506 537.551 350.334 536.185 Q352.163 534.796 352.163 532.203 Q352.163 529.541 350.265 528.129 Q348.39 526.694 344.871 526.694 Q342.95 526.694 340.751 527.111 Q338.552 527.528 335.913 528.407 L335.913 524.241 Q338.575 523.5 340.89 523.129 Q343.228 522.759 345.288 522.759 Q350.612 522.759 353.714 525.19 Q356.816 527.597 356.816 531.717 Q356.816 534.588 355.172 536.578 Q353.529 538.546 350.496 539.31 Z" fill="#000000" fill-rule="nonzero" fill-opacity="1" /><path clip-path="url(#clip660)" d="M376.492 526.463 Q372.881 526.463 371.052 530.028 Q369.246 533.569 369.246 540.699 Q369.246 547.805 371.052 551.37 Q372.881 554.912 376.492 554.912 Q380.126 554.912 381.931 551.37 Q383.76 547.805 383.76 540.699 Q383.76 533.569 381.931 530.028 Q380.126 526.463 376.492 526.463 M376.492 522.759 Q382.302 522.759 385.357 527.366 Q388.436 531.949 388.436 540.699 Q388.436 549.426 385.357 554.032 Q382.302 558.615 376.492 558.615 Q370.681 558.615 367.603 554.032 Q364.547 549.426 364.547 540.699 Q364.547 531.949 367.603 527.366 Q370.681 522.759 376.492 522.759 Z" fill="#000000" fill-rule="nonzero" fill-opacity="1" /><path clip-path="url(#clip660)" d="M240.617 995.397 L247.396 995.397 Q244.373 998.643 242.877 1002.34 Q241.381 1006 241.381 1010.13 Q241.381 1018.28 246.378 1022.61 Q251.343 1026.94 260.764 1026.94 Q270.154 1026.94 275.151 1022.61 Q280.116 1018.28 280.116 1010.13 Q280.116 1006 278.62 1002.34 Q277.124 998.643 274.1 995.397 L280.816 995.397 Q283.108 998.77 284.254 1002.56 Q285.4 1006.31 285.4 1010.52 Q285.4 1021.3 278.811 1027.51 Q272.191 1033.72 260.764 1033.72 Q249.306 1033.72 242.718 1027.51 Q236.097 1021.3 236.097 1010.52 Q236.097 1006.25 237.243 1002.49 Q238.357 998.707 240.617 995.397 Z" fill="#000000" fill-rule="nonzero" fill-opacity="1" /><path clip-path="url(#clip660)" d="M242.24 979.037 L260.096 979.037 L260.096 970.952 Q260.096 966.464 257.772 964.014 Q255.449 961.563 251.152 961.563 Q246.887 961.563 244.564 964.014 Q242.24 966.464 242.24 970.952 L242.24 979.037 M236.957 985.466 L236.957 970.952 Q236.957 962.963 240.585 958.889 Q244.182 954.783 251.152 954.783 Q258.186 954.783 261.783 958.889 Q265.379 962.963 265.379 970.952 L265.379 979.037 L284.477 979.037 L284.477 985.466 L236.957 985.466 Z" fill="#000000" fill-rule="nonzero" fill-opacity="1" /><path clip-path="url(#clip660)" d="M236.957 946.89 L236.957 940.429 L265.825 940.429 Q273.464 940.429 276.838 937.66 Q280.18 934.891 280.18 928.684 Q280.18 922.509 276.838 919.74 Q273.464 916.971 265.825 916.971 L236.957 916.971 L236.957 910.51 L266.621 910.51 Q275.915 910.51 280.657 915.125 Q285.4 919.708 285.4 928.684 Q285.4 937.691 280.657 942.307 Q275.915 946.89 266.621 946.89 L236.957 946.89 Z" fill="#000000" fill-rule="nonzero" fill-opacity="1" /><path clip-path="url(#clip660)" d="M238.707 872.188 L248.829 872.188 L248.829 860.125 L253.38 860.125 L253.38 872.188 L272.732 872.188 Q277.092 872.188 278.334 871.011 Q279.575 869.801 279.575 866.141 L279.575 860.125 L284.477 860.125 L284.477 866.141 Q284.477 872.92 281.962 875.498 Q279.416 878.077 272.732 878.077 L253.38 878.077 L253.38 882.373 L248.829 882.373 L248.829 878.077 L238.707 878.077 L238.707 872.188 Z" fill="#000000" fill-rule="nonzero" fill-opacity="1" /><path clip-path="url(#clip660)" d="M248.829 852.423 L248.829 846.566 L284.477 846.566 L284.477 852.423 L248.829 852.423 M234.951 852.423 L234.951 846.566 L242.367 846.566 L242.367 852.423 L234.951 852.423 Z" fill="#000000" fill-rule="nonzero" fill-opacity="1" /><path clip-path="url(#clip660)" d="M255.672 806.558 Q251.725 804.362 249.847 801.306 Q247.969 798.251 247.969 794.113 Q247.969 788.543 251.884 785.519 Q255.767 782.495 262.961 782.495 L284.477 782.495 L284.477 788.384 L263.151 788.384 Q258.027 788.384 255.544 790.198 Q253.062 792.012 253.062 795.736 Q253.062 800.288 256.086 802.929 Q259.109 805.571 264.329 805.571 L284.477 805.571 L284.477 811.459 L263.151 811.459 Q257.995 811.459 255.544 813.274 Q253.062 815.088 253.062 818.876 Q253.062 823.363 256.117 826.005 Q259.141 828.647 264.329 828.647 L284.477 828.647 L284.477 834.535 L248.829 834.535 L248.829 828.647 L254.367 828.647 Q251.088 826.642 249.529 823.841 Q247.969 821.04 247.969 817.189 Q247.969 813.306 249.943 810.6 Q251.916 807.863 255.672 806.558 Z" fill="#000000" fill-rule="nonzero" fill-opacity="1" /><path clip-path="url(#clip660)" d="M265.189 740.323 L268.053 740.323 L268.053 767.25 Q274.1 766.868 277.283 763.621 Q280.434 760.343 280.434 754.518 Q280.434 751.144 279.607 747.993 Q278.779 744.811 277.124 741.691 L282.662 741.691 Q283.999 744.842 284.699 748.153 Q285.4 751.463 285.4 754.868 Q285.4 763.398 280.434 768.395 Q275.469 773.361 267.003 773.361 Q258.25 773.361 253.125 768.65 Q247.969 763.908 247.969 755.887 Q247.969 748.694 252.616 744.524 Q257.231 740.323 265.189 740.323 M263.47 746.179 Q258.664 746.243 255.799 748.885 Q252.935 751.495 252.935 755.823 Q252.935 760.725 255.704 763.685 Q258.473 766.613 263.502 767.059 L263.47 746.179 Z" fill="#000000" fill-rule="nonzero" fill-opacity="1" /><path clip-path="url(#clip660)" d="M235.015 695.922 Q242.336 700.187 249.497 702.256 Q256.658 704.325 264.011 704.325 Q271.363 704.325 278.588 702.256 Q285.782 700.155 293.07 695.922 L293.07 701.014 Q285.591 705.789 278.366 708.176 Q271.14 710.531 264.011 710.531 Q256.913 710.531 249.72 708.176 Q242.527 705.821 235.015 701.014 L235.015 695.922 Z" fill="#000000" fill-rule="nonzero" fill-opacity="1" /><path clip-path="url(#clip660)" d="M255.672 656.805 Q251.725 654.608 249.847 651.553 Q247.969 648.497 247.969 644.36 Q247.969 638.79 251.884 635.766 Q255.767 632.742 262.961 632.742 L284.477 632.742 L284.477 638.631 L263.151 638.631 Q258.027 638.631 255.544 640.445 Q253.062 642.259 253.062 645.983 Q253.062 650.534 256.086 653.176 Q259.109 655.818 264.329 655.818 L284.477 655.818 L284.477 661.706 L263.151 661.706 Q257.995 661.706 255.544 663.52 Q253.062 665.335 253.062 669.122 Q253.062 673.61 256.117 676.252 Q259.141 678.894 264.329 678.894 L284.477 678.894 L284.477 684.782 L248.829 684.782 L248.829 678.894 L254.367 678.894 Q251.088 676.888 249.529 674.088 Q247.969 671.287 247.969 667.435 Q247.969 663.552 249.943 660.847 Q251.916 658.11 255.672 656.805 Z" fill="#000000" fill-rule="nonzero" fill-opacity="1" /><path clip-path="url(#clip660)" d="M249.879 598.336 L255.417 598.336 Q254.144 600.818 253.507 603.492 Q252.871 606.165 252.871 609.03 Q252.871 613.39 254.208 615.587 Q255.544 617.751 258.218 617.751 Q260.255 617.751 261.433 616.191 Q262.579 614.632 263.629 609.921 L264.075 607.916 Q265.411 601.678 267.862 599.068 Q270.281 596.426 274.642 596.426 Q279.607 596.426 282.503 600.373 Q285.4 604.288 285.4 611.163 Q285.4 614.027 284.827 617.146 Q284.286 620.234 283.172 623.671 L277.124 623.671 Q278.811 620.425 279.67 617.274 Q280.498 614.123 280.498 611.035 Q280.498 606.897 279.098 604.669 Q277.665 602.441 275.087 602.441 Q272.7 602.441 271.427 604.065 Q270.154 605.656 268.976 611.099 L268.499 613.136 Q267.353 618.579 264.998 620.998 Q262.61 623.416 258.473 623.416 Q253.444 623.416 250.707 619.852 Q247.969 616.287 247.969 609.73 Q247.969 606.484 248.447 603.619 Q248.924 600.755 249.879 598.336 Z" fill="#000000" fill-rule="nonzero" fill-opacity="1" /><path clip-path="url(#clip660)" d="M235.015 588.023 L235.015 582.931 Q242.527 578.156 249.72 575.801 Q256.913 573.414 264.011 573.414 Q271.14 573.414 278.366 575.801 Q285.591 578.156 293.07 582.931 L293.07 588.023 Q285.782 583.79 278.588 581.721 Q271.363 579.62 264.011 579.62 Q256.658 579.62 249.497 581.721 Q242.336 583.79 235.015 588.023 Z" fill="#000000" fill-rule="nonzero" fill-opacity="1" /><path clip-path="url(#clip660)" d="M903.185 33.264 L937.942 33.264 L937.942 40.1505 L911.368 40.1505 L911.368 57.9745 L935.349 57.9745 L935.349 64.8611 L911.368 64.8611 L911.368 93.744 L903.185 93.744 L903.185 33.264 Z" fill="#000000" fill-rule="nonzero" fill-opacity="1" /><path clip-path="url(#clip660)" d="M965.205 53.5995 Q959.209 53.5995 955.725 58.2986 Q952.242 62.9571 952.242 71.0994 Q952.242 79.2418 955.685 83.9408 Q959.169 88.5994 965.205 88.5994 Q971.159 88.5994 974.643 83.9003 Q978.127 79.2013 978.127 71.0994 Q978.127 63.0381 974.643 58.3391 Q971.159 53.5995 965.205 53.5995 M965.205 47.2801 Q974.927 47.2801 980.476 53.5995 Q986.026 59.9189 986.026 71.0994 Q986.026 82.2394 980.476 88.5994 Q974.927 94.9188 965.205 94.9188 Q955.442 94.9188 949.892 88.5994 Q944.383 82.2394 944.383 71.0994 Q944.383 59.9189 949.892 53.5995 Q955.442 47.2801 965.205 47.2801 Z" fill="#000000" fill-rule="nonzero" fill-opacity="1" /><path clip-path="url(#clip660)" d="M1024.67 55.3414 Q1023.42 54.6123 1021.92 54.2882 Q1020.46 53.9236 1018.68 53.9236 Q1012.36 53.9236 1008.95 58.0555 Q1005.59 62.1469 1005.59 69.8437 L1005.59 93.744 L998.098 93.744 L998.098 48.3739 L1005.59 48.3739 L1005.59 55.4224 Q1007.94 51.2905 1011.71 49.3056 Q1015.48 47.2801 1020.86 47.2801 Q1021.63 47.2801 1022.57 47.4017 Q1023.5 47.4827 1024.63 47.6852 L1024.67 55.3414 Z" fill="#000000" fill-rule="nonzero" fill-opacity="1" /><path clip-path="url(#clip660)" d="M1028.16 48.3739 L1035.61 48.3739 L1044.93 83.7788 L1054.2 48.3739 L1062.99 48.3739 L1072.31 83.7788 L1081.59 48.3739 L1089.04 48.3739 L1077.17 93.744 L1068.38 93.744 L1058.62 56.5567 L1048.82 93.744 L1040.02 93.744 L1028.16 48.3739 Z" fill="#000000" fill-rule="nonzero" fill-opacity="1" /><path clip-path="url(#clip660)" d="M1120.96 70.9374 Q1111.93 70.9374 1108.44 73.0034 Q1104.96 75.0693 1104.96 80.0519 Q1104.96 84.0218 1107.55 86.3714 Q1110.19 88.6804 1114.68 88.6804 Q1120.88 88.6804 1124.61 84.3054 Q1128.38 79.8899 1128.38 72.5983 L1128.38 70.9374 L1120.96 70.9374 M1135.83 67.8587 L1135.83 93.744 L1128.38 93.744 L1128.38 86.8575 Q1125.82 90.9894 1122.02 92.9743 Q1118.21 94.9188 1112.7 94.9188 Q1105.73 94.9188 1101.6 91.0299 Q1097.51 87.1005 1097.51 80.5381 Q1097.51 72.8818 1102.61 68.993 Q1107.76 65.1041 1117.92 65.1041 L1128.38 65.1041 L1128.38 64.3749 Q1128.38 59.2303 1124.97 56.4352 Q1121.61 53.5995 1115.49 53.5995 Q1111.6 53.5995 1107.92 54.5312 Q1104.23 55.463 1100.83 57.3264 L1100.83 50.4398 Q1104.92 48.86 1108.77 48.0903 Q1112.62 47.2801 1116.26 47.2801 Q1126.11 47.2801 1130.97 52.3843 Q1135.83 57.4884 1135.83 67.8587 Z" fill="#000000" fill-rule="nonzero" fill-opacity="1" /><path clip-path="url(#clip660)" d="M1177.47 55.3414 Q1176.22 54.6123 1174.72 54.2882 Q1173.26 53.9236 1171.48 53.9236 Q1165.16 53.9236 1161.75 58.0555 Q1158.39 62.1469 1158.39 69.8437 L1158.39 93.744 L1150.9 93.744 L1150.9 48.3739 L1158.39 48.3739 L1158.39 55.4224 Q1160.74 51.2905 1164.51 49.3056 Q1168.28 47.2801 1173.66 47.2801 Q1174.43 47.2801 1175.37 47.4017 Q1176.3 47.4827 1177.43 47.6852 L1177.47 55.3414 Z" fill="#000000" fill-rule="nonzero" fill-opacity="1" /><path clip-path="url(#clip660)" d="M1213.69 55.2604 L1213.69 30.7119 L1221.14 30.7119 L1221.14 93.744 L1213.69 93.744 L1213.69 86.9385 Q1211.34 90.9894 1207.73 92.9743 Q1204.17 94.9188 1199.14 94.9188 Q1190.92 94.9188 1185.74 88.3563 Q1180.59 81.7938 1180.59 71.0994 Q1180.59 60.4051 1185.74 53.8426 Q1190.92 47.2801 1199.14 47.2801 Q1204.17 47.2801 1207.73 49.2651 Q1211.34 51.2095 1213.69 55.2604 M1188.29 71.0994 Q1188.29 79.3228 1191.65 84.0218 Q1195.05 88.6804 1200.97 88.6804 Q1206.88 88.6804 1210.28 84.0218 Q1213.69 79.3228 1213.69 71.0994 Q1213.69 62.8761 1210.28 58.2176 Q1206.88 53.5185 1200.97 53.5185 Q1195.05 53.5185 1191.65 58.2176 Q1188.29 62.8761 1188.29 71.0994 Z" fill="#000000" fill-rule="nonzero" fill-opacity="1" /><path clip-path="url(#clip660)" d="M1232.73 67.6967 L1254.56 67.6967 L1254.56 74.3402 L1232.73 74.3402 L1232.73 67.6967 Z" fill="#000000" fill-rule="nonzero" fill-opacity="1" /><path clip-path="url(#clip660)" d="M1271.98 64.8611 L1271.98 87.0195 L1285.1 87.0195 Q1291.71 87.0195 1294.87 84.3054 Q1298.07 81.5508 1298.07 75.92 Q1298.07 70.2488 1294.87 67.5752 Q1291.71 64.8611 1285.1 64.8611 L1271.98 64.8611 M1271.98 39.9885 L1271.98 58.2176 L1284.09 58.2176 Q1290.09 58.2176 1293 55.9896 Q1295.96 53.7211 1295.96 49.103 Q1295.96 44.5255 1293 42.257 Q1290.09 39.9885 1284.09 39.9885 L1271.98 39.9885 M1263.8 33.264 L1284.7 33.264 Q1294.06 33.264 1299.12 37.1529 Q1304.18 41.0417 1304.18 48.2118 Q1304.18 53.7616 1301.59 57.0428 Q1299 60.324 1293.98 61.1342 Q1300.01 62.4305 1303.33 66.5624 Q1306.7 70.6538 1306.7 76.8112 Q1306.7 84.913 1301.19 89.3285 Q1295.68 93.744 1285.51 93.744 L1263.8 93.744 L1263.8 33.264 Z" fill="#000000" fill-rule="nonzero" fill-opacity="1" /><path clip-path="url(#clip660)" d="M1341.01 70.9374 Q1331.97 70.9374 1328.49 73.0034 Q1325.01 75.0693 1325.01 80.0519 Q1325.01 84.0218 1327.6 86.3714 Q1330.23 88.6804 1334.73 88.6804 Q1340.93 88.6804 1344.65 84.3054 Q1348.42 79.8899 1348.42 72.5983 L1348.42 70.9374 L1341.01 70.9374 M1355.87 67.8587 L1355.87 93.744 L1348.42 93.744 L1348.42 86.8575 Q1345.87 90.9894 1342.06 92.9743 Q1338.25 94.9188 1332.74 94.9188 Q1325.78 94.9188 1321.64 91.0299 Q1317.55 87.1005 1317.55 80.5381 Q1317.55 72.8818 1322.66 68.993 Q1327.8 65.1041 1337.97 65.1041 L1348.42 65.1041 L1348.42 64.3749 Q1348.42 59.2303 1345.02 56.4352 Q1341.66 53.5995 1335.54 53.5995 Q1331.65 53.5995 1327.96 54.5312 Q1324.28 55.463 1320.87 57.3264 L1320.87 50.4398 Q1324.97 48.86 1328.81 48.0903 Q1332.66 47.2801 1336.31 47.2801 Q1346.15 47.2801 1351.01 52.3843 Q1355.87 57.4884 1355.87 67.8587 Z" fill="#000000" fill-rule="nonzero" fill-opacity="1" /><path clip-path="url(#clip660)" d="M1403.88 50.1158 L1403.88 57.0833 Q1400.72 55.3414 1397.52 54.4907 Q1394.36 53.5995 1391.12 53.5995 Q1383.87 53.5995 1379.86 58.2176 Q1375.84 62.7951 1375.84 71.0994 Q1375.84 79.4038 1379.86 84.0218 Q1383.87 88.5994 1391.12 88.5994 Q1394.36 88.5994 1397.52 87.7487 Q1400.72 86.8575 1403.88 85.1156 L1403.88 92.0021 Q1400.76 93.4604 1397.4 94.1896 Q1394.07 94.9188 1390.31 94.9188 Q1380.06 94.9188 1374.02 88.4778 Q1367.99 82.0369 1367.99 71.0994 Q1367.99 60 1374.06 53.64 Q1380.18 47.2801 1390.79 47.2801 Q1394.24 47.2801 1397.52 48.0093 Q1400.8 48.6979 1403.88 50.1158 Z" fill="#000000" fill-rule="nonzero" fill-opacity="1" /><path clip-path="url(#clip660)" d="M1416.56 30.7119 L1424.05 30.7119 L1424.05 67.9397 L1446.29 48.3739 L1455.81 48.3739 L1431.75 69.6006 L1456.82 93.744 L1447.1 93.744 L1424.05 71.5856 L1424.05 93.744 L1416.56 93.744 L1416.56 30.7119 Z" fill="#000000" fill-rule="nonzero" fill-opacity="1" /><path clip-path="url(#clip660)" d="M1460.55 48.3739 L1468 48.3739 L1477.32 83.7788 L1486.6 48.3739 L1495.39 48.3739 L1504.7 83.7788 L1513.98 48.3739 L1521.43 48.3739 L1509.57 93.744 L1500.77 93.744 L1491.01 56.5567 L1481.21 93.744 L1472.42 93.744 L1460.55 48.3739 Z" fill="#000000" fill-rule="nonzero" fill-opacity="1" /><path clip-path="url(#clip660)" d="M1553.36 70.9374 Q1544.32 70.9374 1540.84 73.0034 Q1537.35 75.0693 1537.35 80.0519 Q1537.35 84.0218 1539.95 86.3714 Q1542.58 88.6804 1547.08 88.6804 Q1553.27 88.6804 1557 84.3054 Q1560.77 79.8899 1560.77 72.5983 L1560.77 70.9374 L1553.36 70.9374 M1568.22 67.8587 L1568.22 93.744 L1560.77 93.744 L1560.77 86.8575 Q1558.22 90.9894 1554.41 92.9743 Q1550.6 94.9188 1545.09 94.9188 Q1538.12 94.9188 1533.99 91.0299 Q1529.9 87.1005 1529.9 80.5381 Q1529.9 72.8818 1535 68.993 Q1540.15 65.1041 1550.32 65.1041 L1560.77 65.1041 L1560.77 64.3749 Q1560.77 59.2303 1557.37 56.4352 Q1554 53.5995 1547.89 53.5995 Q1544 53.5995 1540.31 54.5312 Q1536.63 55.463 1533.22 57.3264 L1533.22 50.4398 Q1537.31 48.86 1541.16 48.0903 Q1545.01 47.2801 1548.66 47.2801 Q1558.5 47.2801 1563.36 52.3843 Q1568.22 57.4884 1568.22 67.8587 Z" fill="#000000" fill-rule="nonzero" fill-opacity="1" /><path clip-path="url(#clip660)" d="M1609.87 55.3414 Q1608.61 54.6123 1607.11 54.2882 Q1605.65 53.9236 1603.87 53.9236 Q1597.55 53.9236 1594.15 58.0555 Q1590.79 62.1469 1590.79 69.8437 L1590.79 93.744 L1583.29 93.744 L1583.29 48.3739 L1590.79 48.3739 L1590.79 55.4224 Q1593.14 51.2905 1596.9 49.3056 Q1600.67 47.2801 1606.06 47.2801 Q1606.83 47.2801 1607.76 47.4017 Q1608.69 47.4827 1609.82 47.6852 L1609.87 55.3414 Z" fill="#000000" fill-rule="nonzero" fill-opacity="1" /><path clip-path="url(#clip660)" d="M1646.08 55.2604 L1646.08 30.7119 L1653.53 30.7119 L1653.53 93.744 L1646.08 93.744 L1646.08 86.9385 Q1643.73 90.9894 1640.13 92.9743 Q1636.56 94.9188 1631.54 94.9188 Q1623.31 94.9188 1618.13 88.3563 Q1612.98 81.7938 1612.98 71.0994 Q1612.98 60.4051 1618.13 53.8426 Q1623.31 47.2801 1631.54 47.2801 Q1636.56 47.2801 1640.13 49.2651 Q1643.73 51.2095 1646.08 55.2604 M1620.68 71.0994 Q1620.68 79.3228 1624.04 84.0218 Q1627.45 88.6804 1633.36 88.6804 Q1639.28 88.6804 1642.68 84.0218 Q1646.08 79.3228 1646.08 71.0994 Q1646.08 62.8761 1642.68 58.2176 Q1639.28 53.5185 1633.36 53.5185 Q1627.45 53.5185 1624.04 58.2176 Q1620.68 62.8761 1620.68 71.0994 Z" fill="#000000" fill-rule="nonzero" fill-opacity="1" /><path clip-path="url(#clip660)" d="M871.852 121.513 Q866.423 130.83 863.79 139.945 Q861.157 149.059 861.157 158.417 Q861.157 167.774 863.79 176.97 Q866.464 186.125 871.852 195.401 L865.37 195.401 Q859.294 185.882 856.256 176.686 Q853.258 167.491 853.258 158.417 Q853.258 149.383 856.256 140.228 Q859.253 131.073 865.37 121.513 L871.852 121.513 Z" fill="#000000" fill-rule="nonzero" fill-opacity="1" /><path clip-path="url(#clip660)" d="M894.82 130.709 L894.82 177.739 L904.704 177.739 Q917.222 177.739 923.014 172.068 Q928.848 166.397 928.848 154.163 Q928.848 142.011 923.014 136.38 Q917.222 130.709 904.704 130.709 L894.82 130.709 M886.637 123.984 L903.449 123.984 Q921.029 123.984 929.253 131.316 Q937.476 138.608 937.476 154.163 Q937.476 169.8 929.212 177.132 Q920.948 184.464 903.449 184.464 L886.637 184.464 L886.637 123.984 Z" fill="#000000" fill-rule="nonzero" fill-opacity="1" /><path clip-path="url(#clip660)" d="M951.168 146.791 L1003.1 146.791 L1003.1 153.596 L951.168 153.596 L951.168 146.791 M951.168 163.318 L1003.1 163.318 L1003.1 170.205 L951.168 170.205 L951.168 163.318 Z" fill="#000000" fill-rule="nonzero" fill-opacity="1" /><path clip-path="url(#clip660)" d="M1022.18 177.577 L1035.55 177.577 L1035.55 131.438 L1021.01 134.354 L1021.01 126.901 L1035.47 123.984 L1043.65 123.984 L1043.65 177.577 L1057.02 177.577 L1057.02 184.464 L1022.18 184.464 L1022.18 177.577 Z" fill="#000000" fill-rule="nonzero" fill-opacity="1" /><path clip-path="url(#clip660)" d="M1091.05 129.372 Q1084.73 129.372 1081.53 135.61 Q1078.37 141.808 1078.37 154.285 Q1078.37 166.721 1081.53 172.959 Q1084.73 179.157 1091.05 179.157 Q1097.41 179.157 1100.57 172.959 Q1103.77 166.721 1103.77 154.285 Q1103.77 141.808 1100.57 135.61 Q1097.41 129.372 1091.05 129.372 M1091.05 122.89 Q1101.21 122.89 1106.56 130.952 Q1111.95 138.972 1111.95 154.285 Q1111.95 169.557 1106.56 177.618 Q1101.21 185.639 1091.05 185.639 Q1080.88 185.639 1075.49 177.618 Q1070.14 169.557 1070.14 154.285 Q1070.14 138.972 1075.49 130.952 Q1080.88 122.89 1091.05 122.89 Z" fill="#000000" fill-rule="nonzero" fill-opacity="1" /><path clip-path="url(#clip660)" d="M1127.18 174.175 L1135.73 174.175 L1135.73 181.142 L1129.08 194.105 L1123.86 194.105 L1127.18 181.142 L1127.18 174.175 Z" fill="#000000" fill-rule="nonzero" fill-opacity="1" /><path clip-path="url(#clip660)" d="M1143.59 123.984 L1194.75 123.984 L1194.75 130.871 L1173.28 130.871 L1173.28 184.464 L1165.06 184.464 L1165.06 130.871 L1143.59 130.871 L1143.59 123.984 Z" fill="#000000" fill-rule="nonzero" fill-opacity="1" /><path clip-path="url(#clip660)" d="M1203.3 146.791 L1255.23 146.791 L1255.23 153.596 L1203.3 153.596 L1203.3 146.791 M1203.3 163.318 L1255.23 163.318 L1255.23 170.205 L1203.3 170.205 L1203.3 163.318 Z" fill="#000000" fill-rule="nonzero" fill-opacity="1" /><path clip-path="url(#clip660)" d="M1279.94 177.577 L1308.5 177.577 L1308.5 184.464 L1270.1 184.464 L1270.1 177.577 Q1274.75 172.757 1282.78 164.655 Q1290.84 156.513 1292.9 154.163 Q1296.83 149.748 1298.37 146.71 Q1299.95 143.631 1299.95 140.674 Q1299.95 135.853 1296.55 132.815 Q1293.19 129.777 1287.76 129.777 Q1283.91 129.777 1279.62 131.114 Q1275.36 132.45 1270.5 135.164 L1270.5 126.901 Q1275.44 124.916 1279.74 123.903 Q1284.03 122.89 1287.6 122.89 Q1296.99 122.89 1302.58 127.589 Q1308.17 132.288 1308.17 140.147 Q1308.17 143.874 1306.76 147.236 Q1305.38 150.558 1301.69 155.095 Q1300.68 156.27 1295.25 161.9 Q1289.82 167.491 1279.94 177.577 Z" fill="#000000" fill-rule="nonzero" fill-opacity="1" /><path clip-path="url(#clip660)" d="M1343.17 129.372 Q1336.85 129.372 1333.65 135.61 Q1330.49 141.808 1330.49 154.285 Q1330.49 166.721 1333.65 172.959 Q1336.85 179.157 1343.17 179.157 Q1349.53 179.157 1352.69 172.959 Q1355.89 166.721 1355.89 154.285 Q1355.89 141.808 1352.69 135.61 Q1349.53 129.372 1343.17 129.372 M1343.17 122.89 Q1353.34 122.89 1358.69 130.952 Q1364.08 138.972 1364.08 154.285 Q1364.08 169.557 1358.69 177.618 Q1353.34 185.639 1343.17 185.639 Q1333.01 185.639 1327.62 177.618 Q1322.27 169.557 1322.27 154.285 Q1322.27 138.972 1327.62 130.952 Q1333.01 122.89 1343.17 122.89 Z" fill="#000000" fill-rule="nonzero" fill-opacity="1" /><path clip-path="url(#clip660)" d="M1395.96 129.372 Q1389.64 129.372 1386.44 135.61 Q1383.28 141.808 1383.28 154.285 Q1383.28 166.721 1386.44 172.959 Q1389.64 179.157 1395.96 179.157 Q1402.32 179.157 1405.48 172.959 Q1408.68 166.721 1408.68 154.285 Q1408.68 141.808 1405.48 135.61 Q1402.32 129.372 1395.96 129.372 M1395.96 122.89 Q1406.13 122.89 1411.47 130.952 Q1416.86 138.972 1416.86 154.285 Q1416.86 169.557 1411.47 177.618 Q1406.13 185.639 1395.96 185.639 Q1385.79 185.639 1380.4 177.618 Q1375.05 169.557 1375.05 154.285 Q1375.05 138.972 1380.4 130.952 Q1385.79 122.89 1395.96 122.89 Z" fill="#000000" fill-rule="nonzero" fill-opacity="1" /><path clip-path="url(#clip660)" d="M1432.09 174.175 L1440.64 174.175 L1440.64 181.142 L1434 194.105 L1428.77 194.105 L1432.09 181.142 L1432.09 174.175 Z" fill="#000000" fill-rule="nonzero" fill-opacity="1" /><path clip-path="url(#clip660)" d="M1456.88 123.984 L1465.07 123.984 L1465.07 149.545 L1492.21 123.984 L1502.74 123.984 L1472.72 152.178 L1504.89 184.464 L1494.11 184.464 L1465.07 155.338 L1465.07 184.464 L1456.88 184.464 L1456.88 123.984 Z" fill="#000000" fill-rule="nonzero" fill-opacity="1" /><path clip-path="url(#clip660)" d="M1511.93 146.791 L1563.87 146.791 L1563.87 153.596 L1511.93 153.596 L1511.93 146.791 M1511.93 163.318 L1563.87 163.318 L1563.87 170.205 L1511.93 170.205 L1511.93 163.318 Z" fill="#000000" fill-rule="nonzero" fill-opacity="1" /><path clip-path="url(#clip660)" d="M1581.61 123.984 L1613.73 123.984 L1613.73 130.871 L1589.1 130.871 L1589.1 145.697 Q1590.89 145.089 1592.67 144.806 Q1594.45 144.482 1596.23 144.482 Q1606.36 144.482 1612.28 150.031 Q1618.19 155.581 1618.19 165.06 Q1618.19 174.823 1612.11 180.251 Q1606.04 185.639 1594.98 185.639 Q1591.17 185.639 1587.2 184.991 Q1583.27 184.342 1579.06 183.046 L1579.06 174.823 Q1582.7 176.808 1586.59 177.78 Q1590.48 178.752 1594.82 178.752 Q1601.82 178.752 1605.92 175.066 Q1610.01 171.38 1610.01 165.06 Q1610.01 158.741 1605.92 155.054 Q1601.82 151.368 1594.82 151.368 Q1591.54 151.368 1588.25 152.097 Q1585.01 152.826 1581.61 154.366 L1581.61 123.984 Z" fill="#000000" fill-rule="nonzero" fill-opacity="1" /><path clip-path="url(#clip660)" d="M1651.81 129.372 Q1645.49 129.372 1642.29 135.61 Q1639.13 141.808 1639.13 154.285 Q1639.13 166.721 1642.29 172.959 Q1645.49 179.157 1651.81 179.157 Q1658.17 179.157 1661.33 172.959 Q1664.53 166.721 1664.53 154.285 Q1664.53 141.808 1661.33 135.61 Q1658.17 129.372 1651.81 129.372 M1651.81 122.89 Q1661.98 122.89 1667.33 130.952 Q1672.72 138.972 1672.72 154.285 Q1672.72 169.557 1667.33 177.618 Q1661.98 185.639 1651.81 185.639 Q1641.64 185.639 1636.26 177.618 Q1630.91 169.557 1630.91 154.285 Q1630.91 138.972 1636.26 130.952 Q1641.64 122.89 1651.81 122.89 Z" fill="#000000" fill-rule="nonzero" fill-opacity="1" /><path clip-path="url(#clip660)" d="M1684.87 121.513 L1691.35 121.513 Q1697.43 131.073 1700.42 140.228 Q1703.46 149.383 1703.46 158.417 Q1703.46 167.491 1700.42 176.686 Q1697.43 185.882 1691.35 195.401 L1684.87 195.401 Q1690.26 186.125 1692.89 176.97 Q1695.56 167.774 1695.56 158.417 Q1695.56 149.059 1692.89 139.945 Q1690.26 130.83 1684.87 121.513 Z" fill="#000000" fill-rule="nonzero" fill-opacity="1" /><polyline clip-path="url(#clip662)" style="stroke:#0000ff; stroke-linecap:round; stroke-linejoin:round; stroke-width:6; stroke-opacity:1; fill:none" points="509.828,1178.51 766.006,1160.48 1022.18,1145.99 1278.36,1125.34 1534.54,1105.43 1790.71,1079.73 2046.89,1048.14 "/>
<circle clip-path="url(#clip662)" cx="509.828" cy="1178.51" r="14.4" fill="#0000ff" fill-rule="evenodd" fill-opacity="1" stroke="#000000" stroke-opacity="1" stroke-width="3.2"/>
<circle clip-path="url(#clip662)" cx="766.006" cy="1160.48" r="14.4" fill="#0000ff" fill-rule="evenodd" fill-opacity="1" stroke="#000000" stroke-opacity="1" stroke-width="3.2"/>
<circle clip-path="url(#clip662)" cx="1022.18" cy="1145.99" r="14.4" fill="#0000ff" fill-rule="evenodd" fill-opacity="1" stroke="#000000" stroke-opacity="1" stroke-width="3.2"/>
<circle clip-path="url(#clip662)" cx="1278.36" cy="1125.34" r="14.4" fill="#0000ff" fill-rule="evenodd" fill-opacity="1" stroke="#000000" stroke-opacity="1" stroke-width="3.2"/>
<circle clip-path="url(#clip662)" cx="1534.54" cy="1105.43" r="14.4" fill="#0000ff" fill-rule="evenodd" fill-opacity="1" stroke="#000000" stroke-opacity="1" stroke-width="3.2"/>
<circle clip-path="url(#clip662)" cx="1790.71" cy="1079.73" r="14.4" fill="#0000ff" fill-rule="evenodd" fill-opacity="1" stroke="#000000" stroke-opacity="1" stroke-width="3.2"/>
<circle clip-path="url(#clip662)" cx="2046.89" cy="1048.14" r="14.4" fill="#0000ff" fill-rule="evenodd" fill-opacity="1" stroke="#000000" stroke-opacity="1" stroke-width="3.2"/>
<polyline clip-path="url(#clip662)" style="stroke:#008000; stroke-linecap:round; stroke-linejoin:round; stroke-width:6; stroke-opacity:1; fill:none" stroke-dasharray="24, 12, 3, 12" points="509.828,1093.01 766.006,1025.62 1022.18,947.612 1278.36,850.566 1534.54,749.55 1790.71,560.117 2046.89,444.069 "/>
<path clip-path="url(#clip662)" d="M525.828 1077.01 L493.828 1077.01 L509.828 1109.01 L525.828 1077.01 Z" fill="#008000" fill-rule="evenodd" fill-opacity="1" stroke="#000000" stroke-opacity="1" stroke-width="3.2"/>
<path clip-path="url(#clip662)" d="M782.006 1009.62 L750.006 1009.62 L766.006 1041.62 L782.006 1009.62 Z" fill="#008000" fill-rule="evenodd" fill-opacity="1" stroke="#000000" stroke-opacity="1" stroke-width="3.2"/>
<path clip-path="url(#clip662)" d="M1038.18 931.612 L1006.18 931.612 L1022.18 963.612 L1038.18 931.612 Z" fill="#008000" fill-rule="evenodd" fill-opacity="1" stroke="#000000" stroke-opacity="1" stroke-width="3.2"/>
<path clip-path="url(#clip662)" d="M1294.36 834.566 L1262.36 834.566 L1278.36 866.566 L1294.36 834.566 Z" fill="#008000" fill-rule="evenodd" fill-opacity="1" stroke="#000000" stroke-opacity="1" stroke-width="3.2"/>
<path clip-path="url(#clip662)" d="M1550.54 733.55 L1518.54 733.55 L1534.54 765.55 L1550.54 733.55 Z" fill="#008000" fill-rule="evenodd" fill-opacity="1" stroke="#000000" stroke-opacity="1" stroke-width="3.2"/>
<path clip-path="url(#clip662)" d="M1806.71 544.117 L1774.71 544.117 L1790.71 576.117 L1806.71 544.117 Z" fill="#008000" fill-rule="evenodd" fill-opacity="1" stroke="#000000" stroke-opacity="1" stroke-width="3.2"/>
<path clip-path="url(#clip662)" d="M2062.89 428.069 L2030.89 428.069 L2046.89 460.069 L2062.89 428.069 Z" fill="#008000" fill-rule="evenodd" fill-opacity="1" stroke="#000000" stroke-opacity="1" stroke-width="3.2"/>
<polyline clip-path="url(#clip662)" style="stroke:#ff0000; stroke-linecap:round; stroke-linejoin:round; stroke-width:6; stroke-opacity:1; fill:none" stroke-dasharray="24, 12, 3, 12, 3, 12" points="509.828,775.327 766.006,768.111 1022.18,730.077 1278.36,627.38 1534.54,608.091 1790.71,521.729 2046.89,404.425 "/>
<path clip-path="url(#clip662)" d="M509.828 759.327 L493.828 791.327 L525.828 791.327 L509.828 759.327 Z" fill="#ff0000" fill-rule="evenodd" fill-opacity="1" stroke="#000000" stroke-opacity="1" stroke-width="3.2"/>
<path clip-path="url(#clip662)" d="M766.006 752.111 L750.006 784.111 L782.006 784.111 L766.006 752.111 Z" fill="#ff0000" fill-rule="evenodd" fill-opacity="1" stroke="#000000" stroke-opacity="1" stroke-width="3.2"/>
<path clip-path="url(#clip662)" d="M1022.18 714.077 L1006.18 746.077 L1038.18 746.077 L1022.18 714.077 Z" fill="#ff0000" fill-rule="evenodd" fill-opacity="1" stroke="#000000" stroke-opacity="1" stroke-width="3.2"/>
<path clip-path="url(#clip662)" d="M1278.36 611.38 L1262.36 643.38 L1294.36 643.38 L1278.36 611.38 Z" fill="#ff0000" fill-rule="evenodd" fill-opacity="1" stroke="#000000" stroke-opacity="1" stroke-width="3.2"/>
<path clip-path="url(#clip662)" d="M1534.54 592.091 L1518.54 624.091 L1550.54 624.091 L1534.54 592.091 Z" fill="#ff0000" fill-rule="evenodd" fill-opacity="1" stroke="#000000" stroke-opacity="1" stroke-width="3.2"/>
<path clip-path="url(#clip662)" d="M1790.71 505.729 L1774.71 537.729 L1806.71 537.729 L1790.71 505.729 Z" fill="#ff0000" fill-rule="evenodd" fill-opacity="1" stroke="#000000" stroke-opacity="1" stroke-width="3.2"/>
<path clip-path="url(#clip662)" d="M2046.89 388.425 L2030.89 420.425 L2062.89 420.425 L2046.89 388.425 Z" fill="#ff0000" fill-rule="evenodd" fill-opacity="1" stroke="#000000" stroke-opacity="1" stroke-width="3.2"/>
<path clip-path="url(#clip660)" d="M481.364 638.394 L965.249 638.394 L965.249 431.034 L481.364 431.034  Z" fill="#ffffff" fill-rule="evenodd" fill-opacity="1"/>
<polyline clip-path="url(#clip660)" style="stroke:#000000; stroke-linecap:round; stroke-linejoin:round; stroke-width:4; stroke-opacity:1; fill:none" points="481.364,638.394 965.249,638.394 965.249,431.034 481.364,431.034 481.364,638.394 "/>
<polyline clip-path="url(#clip660)" style="stroke:#0000ff; stroke-linecap:round; stroke-linejoin:round; stroke-width:6; stroke-opacity:1; fill:none" points="500.34,482.874 614.197,482.874 "/>
<circle clip-path="url(#clip660)" cx="557.269" cy="482.874" r="15.8134" fill="#0000ff" fill-rule="evenodd" fill-opacity="1" stroke="#000000" stroke-opacity="1" stroke-width="4.55111"/>
<path clip-path="url(#clip660)" d="M633.173 465.594 L637.849 465.594 L637.849 479.761 L654.839 479.761 L654.839 465.594 L659.515 465.594 L659.515 500.154 L654.839 500.154 L654.839 483.696 L637.849 483.696 L637.849 500.154 L633.173 500.154 L633.173 465.594 Z" fill="#000000" fill-rule="nonzero" fill-opacity="1" /><path clip-path="url(#clip660)" d="M668.821 465.594 L675.788 465.594 L684.608 489.112 L693.474 465.594 L700.441 465.594 L700.441 500.154 L695.881 500.154 L695.881 469.807 L686.969 493.511 L682.27 493.511 L673.358 469.807 L673.358 500.154 L668.821 500.154 L668.821 465.594 Z" fill="#000000" fill-rule="nonzero" fill-opacity="1" /><path clip-path="url(#clip660)" d="M709.723 465.594 L716.691 465.594 L725.51 489.112 L734.376 465.594 L741.344 465.594 L741.344 500.154 L736.783 500.154 L736.783 469.807 L727.871 493.511 L723.172 493.511 L714.26 469.807 L714.26 500.154 L709.723 500.154 L709.723 465.594 Z" fill="#000000" fill-rule="nonzero" fill-opacity="1" /><path clip-path="url(#clip660)" d="M766.969 474.992 L766.969 479.02 Q765.163 478.094 763.219 477.631 Q761.274 477.168 759.191 477.168 Q756.019 477.168 754.422 478.14 Q752.848 479.112 752.848 481.057 Q752.848 482.538 753.982 483.395 Q755.117 484.228 758.543 484.992 L760.001 485.316 Q764.538 486.288 766.436 488.071 Q768.357 489.83 768.357 493.001 Q768.357 496.612 765.487 498.719 Q762.64 500.825 757.64 500.825 Q755.557 500.825 753.288 500.409 Q751.043 500.015 748.543 499.205 L748.543 494.807 Q750.904 496.034 753.195 496.659 Q755.487 497.26 757.732 497.26 Q760.742 497.26 762.362 496.242 Q763.982 495.2 763.982 493.325 Q763.982 491.589 762.802 490.663 Q761.644 489.737 757.686 488.881 L756.205 488.534 Q752.246 487.7 750.487 485.987 Q748.728 484.251 748.728 481.242 Q748.728 477.585 751.32 475.594 Q753.913 473.603 758.682 473.603 Q761.043 473.603 763.126 473.95 Q765.209 474.298 766.969 474.992 Z" fill="#000000" fill-rule="nonzero" fill-opacity="1" /><path clip-path="url(#clip660)" d="M775.742 494.274 L780.626 494.274 L780.626 500.154 L775.742 500.154 L775.742 494.274 Z" fill="#000000" fill-rule="nonzero" fill-opacity="1" /><path clip-path="url(#clip660)" d="M790.209 474.228 L794.468 474.228 L794.468 500.617 Q794.468 505.571 792.57 507.793 Q790.695 510.015 786.505 510.015 L784.885 510.015 L784.885 506.404 L786.019 506.404 Q788.45 506.404 789.329 505.27 Q790.209 504.159 790.209 500.617 L790.209 474.228 M790.209 464.136 L794.468 464.136 L794.468 469.529 L790.209 469.529 L790.209 464.136 Z" fill="#000000" fill-rule="nonzero" fill-opacity="1" /><path clip-path="url(#clip660)" d="M803.38 464.136 L807.64 464.136 L807.64 500.154 L803.38 500.154 L803.38 464.136 Z" fill="#000000" fill-rule="nonzero" fill-opacity="1" /><polyline clip-path="url(#clip660)" style="stroke:#008000; stroke-linecap:round; stroke-linejoin:round; stroke-width:6; stroke-opacity:1; fill:none" stroke-dasharray="24, 12, 3, 12" points="500.34,534.714 614.197,534.714 "/>
<path clip-path="url(#clip660)" d="M574.839 517.144 L539.698 517.144 L557.269 552.284 L574.839 517.144 Z" fill="#008000" fill-rule="evenodd" fill-opacity="1" stroke="#000000" stroke-opacity="1" stroke-width="4.55111"/>
<path clip-path="url(#clip660)" d="M654.886 536.346 L654.886 551.994 L650.627 551.994 L650.627 536.485 Q650.627 532.804 649.191 530.976 Q647.756 529.147 644.886 529.147 Q641.437 529.147 639.446 531.346 Q637.455 533.545 637.455 537.341 L637.455 551.994 L633.173 551.994 L633.173 515.976 L637.455 515.976 L637.455 530.096 Q638.983 527.758 641.043 526.601 Q643.127 525.443 645.835 525.443 Q650.302 525.443 652.594 528.221 Q654.886 530.976 654.886 536.346 Z" fill="#000000" fill-rule="nonzero" fill-opacity="1" /><path clip-path="url(#clip660)" d="M683.566 531.045 Q685.163 528.175 687.386 526.809 Q689.608 525.443 692.617 525.443 Q696.668 525.443 698.867 528.29 Q701.066 531.114 701.066 536.346 L701.066 551.994 L696.784 551.994 L696.784 536.485 Q696.784 532.758 695.464 530.952 Q694.145 529.147 691.437 529.147 Q688.126 529.147 686.205 531.346 Q684.284 533.545 684.284 537.341 L684.284 551.994 L680.001 551.994 L680.001 536.485 Q680.001 532.735 678.682 530.952 Q677.363 529.147 674.608 529.147 Q671.344 529.147 669.423 531.369 Q667.501 533.568 667.501 537.341 L667.501 551.994 L663.219 551.994 L663.219 526.068 L667.501 526.068 L667.501 530.096 Q668.96 527.712 670.997 526.577 Q673.034 525.443 675.835 525.443 Q678.659 525.443 680.626 526.878 Q682.617 528.314 683.566 531.045 Z" fill="#000000" fill-rule="nonzero" fill-opacity="1" /><path clip-path="url(#clip660)" d="M729.746 531.045 Q731.344 528.175 733.566 526.809 Q735.788 525.443 738.797 525.443 Q742.848 525.443 745.047 528.29 Q747.246 531.114 747.246 536.346 L747.246 551.994 L742.964 551.994 L742.964 536.485 Q742.964 532.758 741.645 530.952 Q740.325 529.147 737.617 529.147 Q734.307 529.147 732.385 531.346 Q730.464 533.545 730.464 537.341 L730.464 551.994 L726.182 551.994 L726.182 536.485 Q726.182 532.735 724.862 530.952 Q723.543 529.147 720.788 529.147 Q717.524 529.147 715.603 531.369 Q713.682 533.568 713.682 537.341 L713.682 551.994 L709.399 551.994 L709.399 526.068 L713.682 526.068 L713.682 530.096 Q715.14 527.712 717.177 526.577 Q719.214 525.443 722.015 525.443 Q724.839 525.443 726.807 526.878 Q728.797 528.314 729.746 531.045 Z" fill="#000000" fill-rule="nonzero" fill-opacity="1" /><path clip-path="url(#clip660)" d="M755.742 515.976 L760.001 515.976 L760.001 551.994 L755.742 551.994 L755.742 515.976 Z" fill="#000000" fill-rule="nonzero" fill-opacity="1" /><path clip-path="url(#clip660)" d="M791.089 537.966 L791.089 540.05 L771.506 540.05 Q771.783 544.448 774.144 546.763 Q776.529 549.054 780.765 549.054 Q783.218 549.054 785.51 548.452 Q787.825 547.85 790.093 546.647 L790.093 550.675 Q787.802 551.647 785.394 552.156 Q782.987 552.665 780.51 552.665 Q774.306 552.665 770.672 549.054 Q767.061 545.443 767.061 539.286 Q767.061 532.92 770.487 529.193 Q773.936 525.443 779.769 525.443 Q785.001 525.443 788.033 528.823 Q791.089 532.179 791.089 537.966 M786.83 536.716 Q786.783 533.221 784.862 531.138 Q782.964 529.054 779.816 529.054 Q776.251 529.054 774.098 531.068 Q771.968 533.082 771.644 536.739 L786.83 536.716 Z" fill="#000000" fill-rule="nonzero" fill-opacity="1" /><path clip-path="url(#clip660)" d="M809.862 538.962 Q804.7 538.962 802.709 540.142 Q800.718 541.323 800.718 544.17 Q800.718 546.438 802.2 547.781 Q803.704 549.1 806.274 549.1 Q809.815 549.1 811.945 546.601 Q814.098 544.077 814.098 539.911 L814.098 538.962 L809.862 538.962 M818.357 537.202 L818.357 551.994 L814.098 551.994 L814.098 548.059 Q812.64 550.42 810.464 551.554 Q808.288 552.665 805.14 552.665 Q801.158 552.665 798.797 550.443 Q796.459 548.198 796.459 544.448 Q796.459 540.073 799.376 537.851 Q802.316 535.628 808.126 535.628 L814.098 535.628 L814.098 535.212 Q814.098 532.272 812.153 530.675 Q810.232 529.054 806.737 529.054 Q804.515 529.054 802.408 529.587 Q800.302 530.119 798.357 531.184 L798.357 527.249 Q800.695 526.346 802.894 525.906 Q805.093 525.443 807.177 525.443 Q812.802 525.443 815.579 528.36 Q818.357 531.277 818.357 537.202 Z" fill="#000000" fill-rule="nonzero" fill-opacity="1" /><path clip-path="url(#clip660)" d="M842.153 530.05 Q841.436 529.633 840.579 529.448 Q839.746 529.239 838.727 529.239 Q835.116 529.239 833.172 531.601 Q831.251 533.939 831.251 538.337 L831.251 551.994 L826.968 551.994 L826.968 526.068 L831.251 526.068 L831.251 530.096 Q832.593 527.735 834.746 526.601 Q836.899 525.443 839.977 525.443 Q840.417 525.443 840.95 525.513 Q841.482 525.559 842.13 525.675 L842.153 530.05 Z" fill="#000000" fill-rule="nonzero" fill-opacity="1" /><path clip-path="url(#clip660)" d="M867.338 536.346 L867.338 551.994 L863.079 551.994 L863.079 536.485 Q863.079 532.804 861.644 530.976 Q860.209 529.147 857.338 529.147 Q853.889 529.147 851.899 531.346 Q849.908 533.545 849.908 537.341 L849.908 551.994 L845.625 551.994 L845.625 526.068 L849.908 526.068 L849.908 530.096 Q851.436 527.758 853.496 526.601 Q855.579 525.443 858.287 525.443 Q862.755 525.443 865.047 528.221 Q867.338 530.976 867.338 536.346 Z" fill="#000000" fill-rule="nonzero" fill-opacity="1" /><polyline clip-path="url(#clip660)" style="stroke:#ff0000; stroke-linecap:round; stroke-linejoin:round; stroke-width:6; stroke-opacity:1; fill:none" stroke-dasharray="24, 12, 3, 12, 3, 12" points="500.34,586.554 614.197,586.554 "/>
<path clip-path="url(#clip660)" d="M557.269 568.984 L539.698 604.124 L574.839 604.124 L557.269 568.984 Z" fill="#ff0000" fill-rule="evenodd" fill-opacity="1" stroke="#000000" stroke-opacity="1" stroke-width="4.55111"/>
<path clip-path="url(#clip660)" d="M637.455 599.945 L637.455 613.695 L633.173 613.695 L633.173 577.908 L637.455 577.908 L637.455 581.843 Q638.798 579.529 640.835 578.417 Q642.895 577.283 645.742 577.283 Q650.464 577.283 653.404 581.033 Q656.367 584.783 656.367 590.894 Q656.367 597.005 653.404 600.755 Q650.464 604.505 645.742 604.505 Q642.895 604.505 640.835 603.394 Q638.798 602.26 637.455 599.945 M651.946 590.894 Q651.946 586.195 650.002 583.533 Q648.08 580.848 644.701 580.848 Q641.321 580.848 639.377 583.533 Q637.455 586.195 637.455 590.894 Q637.455 595.593 639.377 598.278 Q641.321 600.94 644.701 600.94 Q648.08 600.94 650.002 598.278 Q651.946 595.593 651.946 590.894 Z" fill="#000000" fill-rule="nonzero" fill-opacity="1" /><path clip-path="url(#clip660)" d="M673.474 580.894 Q670.048 580.894 668.057 583.579 Q666.066 586.241 666.066 590.894 Q666.066 595.547 668.034 598.232 Q670.025 600.894 673.474 600.894 Q676.876 600.894 678.867 598.209 Q680.858 595.524 680.858 590.894 Q680.858 586.288 678.867 583.603 Q676.876 580.894 673.474 580.894 M673.474 577.283 Q679.029 577.283 682.2 580.894 Q685.372 584.505 685.372 590.894 Q685.372 597.26 682.2 600.894 Q679.029 604.505 673.474 604.505 Q667.895 604.505 664.724 600.894 Q661.576 597.26 661.576 590.894 Q661.576 584.505 664.724 580.894 Q667.895 577.283 673.474 577.283 Z" fill="#000000" fill-rule="nonzero" fill-opacity="1" /><path clip-path="url(#clip660)" d="M712.617 582.885 Q714.214 580.015 716.436 578.649 Q718.659 577.283 721.668 577.283 Q725.719 577.283 727.918 580.13 Q730.117 582.954 730.117 588.186 L730.117 603.834 L725.834 603.834 L725.834 588.325 Q725.834 584.598 724.515 582.792 Q723.196 580.987 720.487 580.987 Q717.177 580.987 715.256 583.186 Q713.335 585.385 713.335 589.181 L713.335 603.834 L709.052 603.834 L709.052 588.325 Q709.052 584.575 707.733 582.792 Q706.413 580.987 703.659 580.987 Q700.395 580.987 698.474 583.209 Q696.552 585.408 696.552 589.181 L696.552 603.834 L692.27 603.834 L692.27 577.908 L696.552 577.908 L696.552 581.936 Q698.011 579.552 700.048 578.417 Q702.085 577.283 704.886 577.283 Q707.71 577.283 709.677 578.718 Q711.668 580.154 712.617 582.885 Z" fill="#000000" fill-rule="nonzero" fill-opacity="1" /><path clip-path="url(#clip660)" d="M760.788 589.806 L760.788 591.89 L741.205 591.89 Q741.483 596.288 743.844 598.603 Q746.228 600.894 750.464 600.894 Q752.918 600.894 755.209 600.292 Q757.524 599.69 759.793 598.487 L759.793 602.515 Q757.501 603.487 755.094 603.996 Q752.686 604.505 750.209 604.505 Q744.006 604.505 740.371 600.894 Q736.76 597.283 736.76 591.126 Q736.76 584.76 740.186 581.033 Q743.635 577.283 749.469 577.283 Q754.7 577.283 757.732 580.663 Q760.788 584.019 760.788 589.806 M756.529 588.556 Q756.482 585.061 754.561 582.978 Q752.663 580.894 749.515 580.894 Q745.95 580.894 743.797 582.908 Q741.668 584.922 741.344 588.579 L756.529 588.556 Z" fill="#000000" fill-rule="nonzero" fill-opacity="1" /><path clip-path="url(#clip660)" d="M784.839 590.57 Q784.839 585.941 782.917 583.394 Q781.019 580.848 777.57 580.848 Q774.144 580.848 772.223 583.394 Q770.325 585.941 770.325 590.57 Q770.325 595.177 772.223 597.723 Q774.144 600.269 777.57 600.269 Q781.019 600.269 782.917 597.723 Q784.839 595.177 784.839 590.57 M789.098 600.616 Q789.098 607.237 786.158 610.454 Q783.218 613.695 777.154 613.695 Q774.908 613.695 772.918 613.348 Q770.927 613.024 769.052 612.329 L769.052 608.186 Q770.927 609.204 772.756 609.69 Q774.584 610.177 776.482 610.177 Q780.672 610.177 782.755 607.977 Q784.839 605.802 784.839 601.38 L784.839 599.274 Q783.519 601.565 781.459 602.7 Q779.399 603.834 776.529 603.834 Q771.76 603.834 768.843 600.2 Q765.927 596.566 765.927 590.57 Q765.927 584.552 768.843 580.917 Q771.76 577.283 776.529 577.283 Q779.399 577.283 781.459 578.417 Q783.519 579.552 784.839 581.843 L784.839 577.908 L789.098 577.908 L789.098 600.616 Z" fill="#000000" fill-rule="nonzero" fill-opacity="1" /><path clip-path="url(#clip660)" d="M812.894 581.89 Q812.177 581.473 811.32 581.288 Q810.487 581.079 809.468 581.079 Q805.857 581.079 803.913 583.441 Q801.991 585.779 801.991 590.177 L801.991 603.834 L797.709 603.834 L797.709 577.908 L801.991 577.908 L801.991 581.936 Q803.334 579.575 805.487 578.441 Q807.64 577.283 810.718 577.283 Q811.158 577.283 811.69 577.353 Q812.223 577.399 812.871 577.515 L812.894 581.89 Z" fill="#000000" fill-rule="nonzero" fill-opacity="1" /><path clip-path="url(#clip660)" d="M829.144 590.802 Q823.982 590.802 821.991 591.982 Q820.001 593.163 820.001 596.01 Q820.001 598.278 821.482 599.621 Q822.987 600.94 825.556 600.94 Q829.098 600.94 831.227 598.441 Q833.38 595.917 833.38 591.751 L833.38 590.802 L829.144 590.802 M837.639 589.042 L837.639 603.834 L833.38 603.834 L833.38 599.899 Q831.922 602.26 829.746 603.394 Q827.57 604.505 824.422 604.505 Q820.44 604.505 818.079 602.283 Q815.741 600.038 815.741 596.288 Q815.741 591.913 818.658 589.691 Q821.598 587.468 827.408 587.468 L833.38 587.468 L833.38 587.052 Q833.38 584.112 831.436 582.515 Q829.514 580.894 826.019 580.894 Q823.797 580.894 821.69 581.427 Q819.584 581.959 817.64 583.024 L817.64 579.089 Q819.977 578.186 822.177 577.746 Q824.376 577.283 826.459 577.283 Q832.084 577.283 834.862 580.2 Q837.639 583.117 837.639 589.042 Z" fill="#000000" fill-rule="nonzero" fill-opacity="1" /><path clip-path="url(#clip660)" d="M867.963 588.186 L867.963 603.834 L863.704 603.834 L863.704 588.325 Q863.704 584.644 862.269 582.816 Q860.834 580.987 857.963 580.987 Q854.514 580.987 852.524 583.186 Q850.533 585.385 850.533 589.181 L850.533 603.834 L846.25 603.834 L846.25 577.908 L850.533 577.908 L850.533 581.936 Q852.061 579.598 854.121 578.441 Q856.204 577.283 858.912 577.283 Q863.38 577.283 865.672 580.061 Q867.963 582.816 867.963 588.186 Z" fill="#000000" fill-rule="nonzero" fill-opacity="1" /><path clip-path="url(#clip660)" d="M888.241 590.802 Q883.079 590.802 881.088 591.982 Q879.098 593.163 879.098 596.01 Q879.098 598.278 880.579 599.621 Q882.084 600.94 884.653 600.94 Q888.195 600.94 890.324 598.441 Q892.477 595.917 892.477 591.751 L892.477 590.802 L888.241 590.802 M896.736 589.042 L896.736 603.834 L892.477 603.834 L892.477 599.899 Q891.019 602.26 888.843 603.394 Q886.667 604.505 883.519 604.505 Q879.537 604.505 877.176 602.283 Q874.838 600.038 874.838 596.288 Q874.838 591.913 877.755 589.691 Q880.695 587.468 886.505 587.468 L892.477 587.468 L892.477 587.052 Q892.477 584.112 890.533 582.515 Q888.611 580.894 885.116 580.894 Q882.894 580.894 880.787 581.427 Q878.681 581.959 876.736 583.024 L876.736 579.089 Q879.074 578.186 881.273 577.746 Q883.473 577.283 885.556 577.283 Q891.181 577.283 893.959 580.2 Q896.736 583.117 896.736 589.042 Z" fill="#000000" fill-rule="nonzero" fill-opacity="1" /><path clip-path="url(#clip660)" d="M909.722 570.547 L909.722 577.908 L918.495 577.908 L918.495 581.218 L909.722 581.218 L909.722 595.292 Q909.722 598.464 910.579 599.366 Q911.458 600.269 914.12 600.269 L918.495 600.269 L918.495 603.834 L914.12 603.834 Q909.19 603.834 907.315 602.005 Q905.44 600.153 905.44 595.292 L905.44 581.218 L902.315 581.218 L902.315 577.908 L905.44 577.908 L905.44 570.547 L909.722 570.547 Z" fill="#000000" fill-rule="nonzero" fill-opacity="1" /><path clip-path="url(#clip660)" d="M946.273 589.806 L946.273 591.89 L926.69 591.89 Q926.968 596.288 929.329 598.603 Q931.713 600.894 935.949 600.894 Q938.403 600.894 940.694 600.292 Q943.009 599.69 945.278 598.487 L945.278 602.515 Q942.986 603.487 940.579 603.996 Q938.171 604.505 935.694 604.505 Q929.491 604.505 925.857 600.894 Q922.245 597.283 922.245 591.126 Q922.245 584.76 925.671 581.033 Q929.12 577.283 934.954 577.283 Q940.185 577.283 943.218 580.663 Q946.273 584.019 946.273 589.806 M942.014 588.556 Q941.968 585.061 940.046 582.978 Q938.148 580.894 935 580.894 Q931.435 580.894 929.282 582.908 Q927.153 584.922 926.829 588.579 L942.014 588.556 Z" fill="#000000" fill-rule="nonzero" fill-opacity="1" /></svg>
