<?xml version="1.0" encoding="utf-8"?>
<svg xmlns="http://www.w3.org/2000/svg" xmlns:xlink="http://www.w3.org/1999/xlink" width="600" height="400" viewBox="0 0 2400 1600">
<defs>
  <clipPath id="clip500">
    <rect x="0" y="0" width="2400" height="1600"/>
  </clipPath>
</defs>
<path clip-path="url(#clip500)" d="M0 1600 L2400 1600 L2400 0 L0 0  Z" fill="#ffffff" fill-rule="evenodd" fill-opacity="1"/>
<defs>
  <clipPath id="clip501">
    <rect x="480" y="0" width="1681" height="1600"/>
  </clipPath>
</defs>
<path clip-path="url(#clip500)" d="M424.436 1202.71 L2132.28 1202.71 L2132.28 404.425 L424.436 404.425  Z" fill="#ffffff" fill-rule="evenodd" fill-opacity="1"/>
<defs>
  <clipPath id="clip502">
    <rect x="424" y="404" width="1709" height="799"/>
  </clipPath>
</defs>
<polyline clip-path="url(#clip502)" style="stroke:#000000; stroke-linecap:round; stroke-linejoin:round; stroke-width:2; stroke-opacity:0.1; fill:none" points="766.006,1202.71 766.006,404.425 "/>
<polyline clip-path="url(#clip502)" style="stroke:#000000; stroke-linecap:round; stroke-linejoin:round; stroke-width:2; stroke-opacity:0.1; fill:none" points="1192.97,1202.71 1192.97,404.425 "/>
<polyline clip-path="url(#clip502)" style="stroke:#000000; stroke-linecap:round; stroke-linejoin:round; stroke-width:2; stroke-opacity:0.1; fill:none" points="1619.93,1202.71 1619.93,404.425 "/>
<polyline clip-path="url(#clip502)" style="stroke:#000000; stroke-linecap:round; stroke-linejoin:round; stroke-width:2; stroke-opacity:0.1; fill:none" points="2046.89,1202.71 2046.89,404.425 "/>
<polyline clip-path="url(#clip500)" style="stroke:#000000; stroke-linecap:round; stroke-linejoin:round; stroke-width:4; stroke-opacity:1; fill:none" points="424.436,1202.71 2132.28,1202.71 "/>
<polyline clip-path="url(#clip500)" style="stroke:#000000; stroke-linecap:round; stroke-linejoin:round; stroke-width:4; stroke-opacity:1; fill:none" points="766.006,1202.71 766.006,1183.81 "/>
<polyline clip-path="url(#clip500)" style="stroke:#000000; stroke-linecap:round; stroke-linejoin:round; stroke-width:4; stroke-opacity:1; fill:none" points="1192.97,1202.71 1192.97,1183.81 "/>
<polyline clip-path="url(#clip500)" style="stroke:#000000; stroke-linecap:round; stroke-linejoin:round; stroke-width:4; stroke-opacity:1; fill:none" points="1619.93,1202.71 1619.93,1183.81 "/>
<polyline clip-path="url(#clip500)" style="stroke:#000000; stroke-linecap:round; stroke-linejoin:round; stroke-width:4; stroke-opacity:1; fill:none" points="2046.89,1202.71 2046.89,1183.81 "/>
<path clip-path="url(#clip500)" d="M756.283 1230.55 L774.64 1230.55 L774.64 1234.48 L760.566 1234.48 L760.566 1242.95 Q761.584 1242.61 762.603 1242.45 Q763.621 1242.26 764.64 1242.26 Q770.427 1242.26 773.806 1245.43 Q777.186 1248.6 777.186 1254.02 Q777.186 1259.6 773.714 1262.7 Q770.242 1265.78 763.922 1265.78 Q761.746 1265.78 759.478 1265.41 Q757.232 1265.04 754.825 1264.3 L754.825 1259.6 Q756.908 1260.73 759.131 1261.29 Q761.353 1261.84 763.83 1261.84 Q767.834 1261.84 770.172 1259.74 Q772.51 1257.63 772.51 1254.02 Q772.51 1250.41 770.172 1248.3 Q767.834 1246.2 763.83 1246.2 Q761.955 1246.2 760.08 1246.61 Q758.228 1247.03 756.283 1247.91 L756.283 1230.55 Z" fill="#000000" fill-rule="nonzero" fill-opacity="1" /><path clip-path="url(#clip500)" d="M1167.66 1261.17 L1175.29 1261.17 L1175.29 1234.81 L1166.98 1236.47 L1166.98 1232.21 L1175.25 1230.55 L1179.92 1230.55 L1179.92 1261.17 L1187.56 1261.17 L1187.56 1265.11 L1167.66 1265.11 L1167.66 1261.17 Z" fill="#000000" fill-rule="nonzero" fill-opacity="1" /><path clip-path="url(#clip500)" d="M1207.01 1233.63 Q1203.4 1233.63 1201.57 1237.19 Q1199.76 1240.73 1199.76 1247.86 Q1199.76 1254.97 1201.57 1258.53 Q1203.4 1262.08 1207.01 1262.08 Q1210.64 1262.08 1212.45 1258.53 Q1214.28 1254.97 1214.28 1247.86 Q1214.28 1240.73 1212.45 1237.19 Q1210.64 1233.63 1207.01 1233.63 M1207.01 1229.92 Q1212.82 1229.92 1215.87 1234.53 Q1218.95 1239.11 1218.95 1247.86 Q1218.95 1256.59 1215.87 1261.2 Q1212.82 1265.78 1207.01 1265.78 Q1201.2 1265.78 1198.12 1261.2 Q1195.06 1256.59 1195.06 1247.86 Q1195.06 1239.11 1198.12 1234.53 Q1201.2 1229.92 1207.01 1229.92 Z" fill="#000000" fill-rule="nonzero" fill-opacity="1" /><path clip-path="url(#clip500)" d="M1595.11 1261.17 L1602.75 1261.17 L1602.75 1234.81 L1594.44 1236.47 L1594.44 1232.21 L1602.71 1230.55 L1607.38 1230.55 L1607.38 1261.17 L1615.02 1261.17 L1615.02 1265.11 L1595.11 1265.11 L1595.11 1261.17 Z" fill="#000000" fill-rule="nonzero" fill-opacity="1" /><path clip-path="url(#clip500)" d="M1624.51 1230.55 L1642.87 1230.55 L1642.87 1234.48 L1628.79 1234.48 L1628.79 1242.95 Q1629.81 1242.61 1630.83 1242.45 Q1631.85 1242.26 1632.87 1242.26 Q1638.66 1242.26 1642.04 1245.43 Q1645.42 1248.6 1645.42 1254.02 Q1645.42 1259.6 1641.94 1262.7 Q1638.47 1265.78 1632.15 1265.78 Q1629.98 1265.78 1627.71 1265.41 Q1625.46 1265.04 1623.05 1264.3 L1623.05 1259.6 Q1625.14 1260.73 1627.36 1261.29 Q1629.58 1261.84 1632.06 1261.84 Q1636.06 1261.84 1638.4 1259.74 Q1640.74 1257.63 1640.74 1254.02 Q1640.74 1250.41 1638.4 1248.3 Q1636.06 1246.2 1632.06 1246.2 Q1630.18 1246.2 1628.31 1246.61 Q1626.46 1247.03 1624.51 1247.91 L1624.51 1230.55 Z" fill="#000000" fill-rule="nonzero" fill-opacity="1" /><path clip-path="url(#clip500)" d="M2025.66 1261.17 L2041.98 1261.17 L2041.98 1265.11 L2020.04 1265.11 L2020.04 1261.17 Q2022.7 1258.42 2027.28 1253.79 Q2031.89 1249.14 2033.07 1247.79 Q2035.32 1245.27 2036.2 1243.53 Q2037.1 1241.77 2037.1 1240.08 Q2037.1 1237.33 2035.16 1235.59 Q2033.23 1233.86 2030.13 1233.86 Q2027.93 1233.86 2025.48 1234.62 Q2023.05 1235.39 2020.27 1236.94 L2020.27 1232.21 Q2023.09 1231.08 2025.55 1230.5 Q2028 1229.92 2030.04 1229.92 Q2035.41 1229.92 2038.6 1232.61 Q2041.8 1235.29 2041.8 1239.78 Q2041.8 1241.91 2040.99 1243.83 Q2040.2 1245.73 2038.09 1248.33 Q2037.52 1249 2034.41 1252.21 Q2031.31 1255.41 2025.66 1261.17 Z" fill="#000000" fill-rule="nonzero" fill-opacity="1" /><path clip-path="url(#clip500)" d="M2061.8 1233.63 Q2058.19 1233.63 2056.36 1237.19 Q2054.55 1240.73 2054.55 1247.86 Q2054.55 1254.97 2056.36 1258.53 Q2058.19 1262.08 2061.8 1262.08 Q2065.43 1262.08 2067.24 1258.53 Q2069.07 1254.97 2069.07 1247.86 Q2069.07 1240.73 2067.24 1237.19 Q2065.43 1233.63 2061.8 1233.63 M2061.8 1229.92 Q2067.61 1229.92 2070.66 1234.53 Q2073.74 1239.11 2073.74 1247.86 Q2073.74 1256.59 2070.66 1261.2 Q2067.61 1265.78 2061.8 1265.78 Q2055.99 1265.78 2052.91 1261.2 Q2049.85 1256.59 2049.85 1247.86 Q2049.85 1239.11 2052.91 1234.53 Q2055.99 1229.92 2061.8 1229.92 Z" fill="#000000" fill-rule="nonzero" fill-opacity="1" /><path clip-path="url(#clip500)" d="M1000.75 1326.06 L1000.75 1347.57 L994.895 1347.57 L994.895 1326.25 Q994.895 1321.19 992.921 1318.67 Q990.948 1316.16 987.001 1316.16 Q982.259 1316.16 979.522 1319.18 Q976.784 1322.2 976.784 1327.42 L976.784 1347.57 L970.896 1347.57 L970.896 1311.92 L976.784 1311.92 L976.784 1317.46 Q978.885 1314.25 981.718 1312.66 Q984.582 1311.06 988.306 1311.06 Q994.449 1311.06 997.6 1314.88 Q1000.75 1318.67 1000.75 1326.06 Z" fill="#000000" fill-rule="nonzero" fill-opacity="1" /><path clip-path="url(#clip500)" d="M1011.83 1333.5 L1011.83 1311.92 L1017.68 1311.92 L1017.68 1333.28 Q1017.68 1338.34 1019.66 1340.89 Q1021.63 1343.4 1025.58 1343.4 Q1030.32 1343.4 1033.06 1340.38 Q1035.83 1337.35 1035.83 1332.13 L1035.83 1311.92 L1041.68 1311.92 L1041.68 1347.57 L1035.83 1347.57 L1035.83 1342.1 Q1033.69 1345.34 1030.86 1346.93 Q1028.06 1348.49 1024.34 1348.49 Q1018.19 1348.49 1015.01 1344.68 Q1011.83 1340.86 1011.83 1333.5 M1026.56 1311.06 L1026.56 1311.06 Z" fill="#000000" fill-rule="nonzero" fill-opacity="1" /><path clip-path="url(#clip500)" d="M1081.5 1318.77 Q1083.7 1314.82 1086.75 1312.94 Q1089.81 1311.06 1093.95 1311.06 Q1099.52 1311.06 1102.54 1314.98 Q1105.56 1318.86 1105.56 1326.06 L1105.56 1347.57 L1099.67 1347.57 L1099.67 1326.25 Q1099.67 1321.12 1097.86 1318.64 Q1096.05 1316.16 1092.32 1316.16 Q1087.77 1316.16 1085.13 1319.18 Q1082.49 1322.2 1082.49 1327.42 L1082.49 1347.57 L1076.6 1347.57 L1076.6 1326.25 Q1076.6 1321.09 1074.78 1318.64 Q1072.97 1316.16 1069.18 1316.16 Q1064.69 1316.16 1062.05 1319.21 Q1059.41 1322.24 1059.41 1327.42 L1059.41 1347.57 L1053.52 1347.57 L1053.52 1311.92 L1059.41 1311.92 L1059.41 1317.46 Q1061.42 1314.18 1064.22 1312.62 Q1067.02 1311.06 1070.87 1311.06 Q1074.75 1311.06 1077.46 1313.04 Q1080.2 1315.01 1081.5 1318.77 Z" fill="#000000" fill-rule="nonzero" fill-opacity="1" /><path clip-path="url(#clip500)" d="M1142.83 1329.78 Q1142.83 1323.32 1140.16 1319.66 Q1137.52 1315.97 1132.87 1315.97 Q1128.22 1315.97 1125.55 1319.66 Q1122.91 1323.32 1122.91 1329.78 Q1122.91 1336.24 1125.55 1339.93 Q1128.22 1343.59 1132.87 1343.59 Q1137.52 1343.59 1140.16 1339.93 Q1142.83 1336.24 1142.83 1329.78 M1122.91 1317.33 Q1124.76 1314.15 1127.56 1312.62 Q1130.39 1311.06 1134.3 1311.06 Q1140.8 1311.06 1144.84 1316.22 Q1148.91 1321.38 1148.91 1329.78 Q1148.91 1338.18 1144.84 1343.34 Q1140.8 1348.49 1134.3 1348.49 Q1130.39 1348.49 1127.56 1346.97 Q1124.76 1345.41 1122.91 1342.22 L1122.91 1347.57 L1117.02 1347.57 L1117.02 1298.05 L1122.91 1298.05 L1122.91 1317.33 Z" fill="#000000" fill-rule="nonzero" fill-opacity="1" /><path clip-path="url(#clip500)" d="M1189.11 1328.28 L1189.11 1331.15 L1162.19 1331.15 Q1162.57 1337.2 1165.81 1340.38 Q1169.09 1343.53 1174.92 1343.53 Q1178.29 1343.53 1181.44 1342.7 Q1184.62 1341.87 1187.74 1340.22 L1187.74 1345.76 Q1184.59 1347.09 1181.28 1347.79 Q1177.97 1348.49 1174.57 1348.49 Q1166.04 1348.49 1161.04 1343.53 Q1156.07 1338.56 1156.07 1330.1 Q1156.07 1321.34 1160.79 1316.22 Q1165.53 1311.06 1173.55 1311.06 Q1180.74 1311.06 1184.91 1315.71 Q1189.11 1320.33 1189.11 1328.28 M1183.26 1326.56 Q1183.19 1321.76 1180.55 1318.89 Q1177.94 1316.03 1173.61 1316.03 Q1168.71 1316.03 1165.75 1318.8 Q1162.82 1321.57 1162.38 1326.6 L1183.26 1326.56 Z" fill="#000000" fill-rule="nonzero" fill-opacity="1" /><path clip-path="url(#clip500)" d="M1219.38 1317.4 Q1218.39 1316.83 1217.22 1316.57 Q1216.07 1316.28 1214.67 1316.28 Q1209.71 1316.28 1207.03 1319.53 Q1204.39 1322.75 1204.39 1328.79 L1204.39 1347.57 L1198.5 1347.57 L1198.5 1311.92 L1204.39 1311.92 L1204.39 1317.46 Q1206.24 1314.22 1209.2 1312.66 Q1212.16 1311.06 1216.39 1311.06 Q1216.99 1311.06 1217.73 1311.16 Q1218.46 1311.22 1219.35 1311.38 L1219.38 1317.4 Z" fill="#000000" fill-rule="nonzero" fill-opacity="1" /><path clip-path="url(#clip500)" d="M1260.06 1316.03 Q1255.35 1316.03 1252.61 1319.72 Q1249.87 1323.38 1249.87 1329.78 Q1249.87 1336.18 1252.58 1339.87 Q1255.32 1343.53 1260.06 1343.53 Q1264.74 1343.53 1267.47 1339.84 Q1270.21 1336.14 1270.21 1329.78 Q1270.21 1323.45 1267.47 1319.75 Q1264.74 1316.03 1260.06 1316.03 M1260.06 1311.06 Q1267.7 1311.06 1272.06 1316.03 Q1276.42 1320.99 1276.42 1329.78 Q1276.42 1338.53 1272.06 1343.53 Q1267.7 1348.49 1260.06 1348.49 Q1252.39 1348.49 1248.03 1343.53 Q1243.7 1338.53 1243.7 1329.78 Q1243.7 1320.99 1248.03 1316.03 Q1252.39 1311.06 1260.06 1311.06 Z" fill="#000000" fill-rule="nonzero" fill-opacity="1" /><path clip-path="url(#clip500)" d="M1304.17 1298.05 L1304.17 1302.92 L1298.57 1302.92 Q1295.42 1302.92 1294.18 1304.19 Q1292.97 1305.46 1292.97 1308.77 L1292.97 1311.92 L1302.61 1311.92 L1302.61 1316.47 L1292.97 1316.47 L1292.97 1347.57 L1287.08 1347.57 L1287.08 1316.47 L1281.48 1316.47 L1281.48 1311.92 L1287.08 1311.92 L1287.08 1309.44 Q1287.08 1303.49 1289.85 1300.78 Q1292.62 1298.05 1298.63 1298.05 L1304.17 1298.05 Z" fill="#000000" fill-rule="nonzero" fill-opacity="1" /><path clip-path="url(#clip500)" d="M1352.52 1312.97 L1352.52 1318.51 Q1350.04 1317.24 1347.36 1316.6 Q1344.69 1315.97 1341.83 1315.97 Q1337.47 1315.97 1335.27 1317.3 Q1333.1 1318.64 1333.1 1321.31 Q1333.1 1323.35 1334.66 1324.53 Q1336.22 1325.67 1340.93 1326.72 L1342.94 1327.17 Q1349.18 1328.51 1351.79 1330.96 Q1354.43 1333.38 1354.43 1337.74 Q1354.43 1342.7 1350.48 1345.6 Q1346.57 1348.49 1339.69 1348.49 Q1336.83 1348.49 1333.71 1347.92 Q1330.62 1347.38 1327.18 1346.27 L1327.18 1340.22 Q1330.43 1341.91 1333.58 1342.77 Q1336.73 1343.59 1339.82 1343.59 Q1343.96 1343.59 1346.19 1342.19 Q1348.41 1340.76 1348.41 1338.18 Q1348.41 1335.79 1346.79 1334.52 Q1345.2 1333.25 1339.76 1332.07 L1337.72 1331.59 Q1332.28 1330.45 1329.86 1328.09 Q1327.44 1325.71 1327.44 1321.57 Q1327.44 1316.54 1331 1313.8 Q1334.57 1311.06 1341.13 1311.06 Q1344.37 1311.06 1347.24 1311.54 Q1350.1 1312.02 1352.52 1312.97 Z" fill="#000000" fill-rule="nonzero" fill-opacity="1" /><path clip-path="url(#clip500)" d="M1369.55 1301.8 L1369.55 1311.92 L1381.61 1311.92 L1381.61 1316.47 L1369.55 1316.47 L1369.55 1335.83 Q1369.55 1340.19 1370.73 1341.43 Q1371.94 1342.67 1375.6 1342.67 L1381.61 1342.67 L1381.61 1347.57 L1375.6 1347.57 Q1368.82 1347.57 1366.24 1345.06 Q1363.66 1342.51 1363.66 1335.83 L1363.66 1316.47 L1359.36 1316.47 L1359.36 1311.92 L1363.66 1311.92 L1363.66 1301.8 L1369.55 1301.8 Z" fill="#000000" fill-rule="nonzero" fill-opacity="1" /><path clip-path="url(#clip500)" d="M1405.51 1329.65 Q1398.42 1329.65 1395.68 1331.28 Q1392.94 1332.9 1392.94 1336.81 Q1392.94 1339.93 1394.98 1341.78 Q1397.05 1343.59 1400.58 1343.59 Q1405.45 1343.59 1408.38 1340.16 Q1411.34 1336.69 1411.34 1330.96 L1411.34 1329.65 L1405.51 1329.65 M1417.2 1327.23 L1417.2 1347.57 L1411.34 1347.57 L1411.34 1342.16 Q1409.33 1345.41 1406.34 1346.97 Q1403.35 1348.49 1399.02 1348.49 Q1393.55 1348.49 1390.3 1345.44 Q1387.09 1342.35 1387.09 1337.2 Q1387.09 1331.18 1391.1 1328.12 Q1395.14 1325.07 1403.13 1325.07 L1411.34 1325.07 L1411.34 1324.5 Q1411.34 1320.45 1408.67 1318.26 Q1406.02 1316.03 1401.22 1316.03 Q1398.16 1316.03 1395.27 1316.76 Q1392.37 1317.49 1389.7 1318.96 L1389.7 1313.55 Q1392.91 1312.31 1395.93 1311.7 Q1398.96 1311.06 1401.82 1311.06 Q1409.56 1311.06 1413.38 1315.07 Q1417.2 1319.08 1417.2 1327.23 Z" fill="#000000" fill-rule="nonzero" fill-opacity="1" /><path clip-path="url(#clip500)" d="M1435.05 1301.8 L1435.05 1311.92 L1447.11 1311.92 L1447.11 1316.47 L1435.05 1316.47 L1435.05 1335.83 Q1435.05 1340.19 1436.23 1341.43 Q1437.44 1342.67 1441.1 1342.67 L1447.11 1342.67 L1447.11 1347.57 L1441.1 1347.57 Q1434.32 1347.57 1431.74 1345.06 Q1429.16 1342.51 1429.16 1335.83 L1429.16 1316.47 L1424.87 1316.47 L1424.87 1311.92 L1429.16 1311.92 L1429.16 1301.8 L1435.05 1301.8 Z" fill="#000000" fill-rule="nonzero" fill-opacity="1" /><path clip-path="url(#clip500)" d="M1485.31 1328.28 L1485.31 1331.15 L1458.38 1331.15 Q1458.76 1337.2 1462.01 1340.38 Q1465.29 1343.53 1471.11 1343.53 Q1474.49 1343.53 1477.64 1342.7 Q1480.82 1341.87 1483.94 1340.22 L1483.94 1345.76 Q1480.79 1347.09 1477.48 1347.79 Q1474.17 1348.49 1470.76 1348.49 Q1462.23 1348.49 1457.24 1343.53 Q1452.27 1338.56 1452.27 1330.1 Q1452.27 1321.34 1456.98 1316.22 Q1461.72 1311.06 1469.74 1311.06 Q1476.94 1311.06 1481.11 1315.71 Q1485.31 1320.33 1485.31 1328.28 M1479.45 1326.56 Q1479.39 1321.76 1476.75 1318.89 Q1474.14 1316.03 1469.81 1316.03 Q1464.91 1316.03 1461.95 1318.8 Q1459.02 1321.57 1458.57 1326.6 L1479.45 1326.56 Z" fill="#000000" fill-rule="nonzero" fill-opacity="1" /><path clip-path="url(#clip500)" d="M1517.65 1312.97 L1517.65 1318.51 Q1515.16 1317.24 1512.49 1316.6 Q1509.82 1315.97 1506.95 1315.97 Q1502.59 1315.97 1500.4 1317.3 Q1498.23 1318.64 1498.23 1321.31 Q1498.23 1323.35 1499.79 1324.53 Q1501.35 1325.67 1506.06 1326.72 L1508.07 1327.17 Q1514.3 1328.51 1516.91 1330.96 Q1519.56 1333.38 1519.56 1337.74 Q1519.56 1342.7 1515.61 1345.6 Q1511.69 1348.49 1504.82 1348.49 Q1501.96 1348.49 1498.84 1347.92 Q1495.75 1347.38 1492.31 1346.27 L1492.31 1340.22 Q1495.56 1341.91 1498.71 1342.77 Q1501.86 1343.59 1504.95 1343.59 Q1509.08 1343.59 1511.31 1342.19 Q1513.54 1340.76 1513.54 1338.18 Q1513.54 1335.79 1511.92 1334.52 Q1510.33 1333.25 1504.88 1332.07 L1502.85 1331.59 Q1497.4 1330.45 1494.98 1328.09 Q1492.57 1325.71 1492.57 1321.57 Q1492.57 1316.54 1496.13 1313.8 Q1499.7 1311.06 1506.25 1311.06 Q1509.5 1311.06 1512.36 1311.54 Q1515.23 1312.02 1517.65 1312.97 Z" fill="#000000" fill-rule="nonzero" fill-opacity="1" /><path clip-path="url(#clip500)" d="M1549.86 1300.05 L1558.51 1300.05 L1579.58 1339.81 L1579.58 1300.05 L1585.82 1300.05 L1585.82 1347.57 L1577.17 1347.57 L1556.1 1307.82 L1556.1 1347.57 L1549.86 1347.57 L1549.86 1300.05 Z" fill="#000000" fill-rule="nonzero" fill-opacity="1" /><polyline clip-path="url(#clip502)" style="stroke:#000000; stroke-linecap:round; stroke-linejoin:round; stroke-width:2; stroke-opacity:0.1; fill:none" points="424.436,1202.71 2132.28,1202.71 "/>
<polyline clip-path="url(#clip502)" style="stroke:#000000; stroke-linecap:round; stroke-linejoin:round; stroke-width:2; stroke-opacity:0.1; fill:none" points="424.436,1004.97 2132.28,1004.97 "/>
<polyline clip-path="url(#clip502)" style="stroke:#000000; stroke-linecap:round; stroke-linejoin:round; stroke-width:2; stroke-opacity:0.1; fill:none" points="424.436,807.233 2132.28,807.233 "/>
<polyline clip-path="url(#clip502)" style="stroke:#000000; stroke-linecap:round; stroke-linejoin:round; stroke-width:2; stroke-opacity:0.1; fill:none" points="424.436,609.496 2132.28,609.496 "/>
<polyline clip-path="url(#clip502)" style="stroke:#000000; stroke-linecap:round; stroke-linejoin:round; stroke-width:2; stroke-opacity:0.1; fill:none" points="424.436,411.759 2132.28,411.759 "/>
<polyline clip-path="url(#clip500)" style="stroke:#000000; stroke-linecap:round; stroke-linejoin:round; stroke-width:4; stroke-opacity:1; fill:none" points="424.436,1202.71 424.436,404.425 "/>
<polyline clip-path="url(#clip500)" style="stroke:#000000; stroke-linecap:round; stroke-linejoin:round; stroke-width:4; stroke-opacity:1; fill:none" points="424.436,1202.71 443.334,1202.71 "/>
<polyline clip-path="url(#clip500)" style="stroke:#000000; stroke-linecap:round; stroke-linejoin:round; stroke-width:4; stroke-opacity:1; fill:none" points="424.436,1004.97 443.334,1004.97 "/>
<polyline clip-path="url(#clip500)" style="stroke:#000000; stroke-linecap:round; stroke-linejoin:round; stroke-width:4; stroke-opacity:1; fill:none" points="424.436,807.233 443.334,807.233 "/>
<polyline clip-path="url(#clip500)" style="stroke:#000000; stroke-linecap:round; stroke-linejoin:round; stroke-width:4; stroke-opacity:1; fill:none" points="424.436,609.496 443.334,609.496 "/>
<polyline clip-path="url(#clip500)" style="stroke:#000000; stroke-linecap:round; stroke-linejoin:round; stroke-width:4; stroke-opacity:1; fill:none" points="424.436,411.759 443.334,411.759 "/>
<path clip-path="url(#clip500)" d="M376.492 1188.51 Q372.881 1188.51 371.052 1192.07 Q369.246 1195.61 369.246 1202.74 Q369.246 1209.85 371.052 1213.41 Q372.881 1216.96 376.492 1216.96 Q380.126 1216.96 381.931 1213.41 Q383.76 1209.85 383.76 1202.74 Q383.76 1195.61 381.931 1192.07 Q380.126 1188.51 376.492 1188.51 M376.492 1184.8 Q382.302 1184.8 385.357 1189.41 Q388.436 1193.99 388.436 1202.74 Q388.436 1211.47 385.357 1216.08 Q382.302 1220.66 376.492 1220.66 Q370.681 1220.66 367.603 1216.08 Q364.547 1211.47 364.547 1202.74 Q364.547 1193.99 367.603 1189.41 Q370.681 1184.8 376.492 1184.8 Z" fill="#000000" fill-rule="nonzero" fill-opacity="1" /><path clip-path="url(#clip500)" d="M367.533 987.69 L385.89 987.69 L385.89 991.625 L371.816 991.625 L371.816 1000.1 Q372.834 999.75 373.853 999.588 Q374.871 999.403 375.89 999.403 Q381.677 999.403 385.056 1002.57 Q388.436 1005.75 388.436 1011.16 Q388.436 1016.74 384.964 1019.84 Q381.492 1022.92 375.172 1022.92 Q372.996 1022.92 370.728 1022.55 Q368.482 1022.18 366.075 1021.44 L366.075 1016.74 Q368.158 1017.88 370.381 1018.43 Q372.603 1018.99 375.08 1018.99 Q379.084 1018.99 381.422 1016.88 Q383.76 1014.77 383.76 1011.16 Q383.76 1007.55 381.422 1005.44 Q379.084 1003.34 375.08 1003.34 Q373.205 1003.34 371.33 1003.75 Q369.478 1004.17 367.533 1005.05 L367.533 987.69 Z" fill="#000000" fill-rule="nonzero" fill-opacity="1" /><path clip-path="url(#clip500)" d="M337.14 820.578 L344.779 820.578 L344.779 794.212 L336.469 795.879 L336.469 791.62 L344.733 789.953 L349.408 789.953 L349.408 820.578 L357.047 820.578 L357.047 824.513 L337.14 824.513 L337.14 820.578 Z" fill="#000000" fill-rule="nonzero" fill-opacity="1" /><path clip-path="url(#clip500)" d="M376.492 793.032 Q372.881 793.032 371.052 796.596 Q369.246 800.138 369.246 807.268 Q369.246 814.374 371.052 817.939 Q372.881 821.481 376.492 821.481 Q380.126 821.481 381.931 817.939 Q383.76 814.374 383.76 807.268 Q383.76 800.138 381.931 796.596 Q380.126 793.032 376.492 793.032 M376.492 789.328 Q382.302 789.328 385.357 793.934 Q388.436 798.518 388.436 807.268 Q388.436 815.995 385.357 820.601 Q382.302 825.184 376.492 825.184 Q370.681 825.184 367.603 820.601 Q364.547 815.995 364.547 807.268 Q364.547 798.518 367.603 793.934 Q370.681 789.328 376.492 789.328 Z" fill="#000000" fill-rule="nonzero" fill-opacity="1" /><path clip-path="url(#clip500)" d="M338.135 622.841 L345.774 622.841 L345.774 596.475 L337.464 598.142 L337.464 593.882 L345.728 592.216 L350.404 592.216 L350.404 622.841 L358.043 622.841 L358.043 626.776 L338.135 626.776 L338.135 622.841 Z" fill="#000000" fill-rule="nonzero" fill-opacity="1" /><path clip-path="url(#clip500)" d="M367.533 592.216 L385.89 592.216 L385.89 596.151 L371.816 596.151 L371.816 604.623 Q372.834 604.276 373.853 604.114 Q374.871 603.929 375.89 603.929 Q381.677 603.929 385.056 607.1 Q388.436 610.271 388.436 615.688 Q388.436 621.267 384.964 624.368 Q381.492 627.447 375.172 627.447 Q372.996 627.447 370.728 627.077 Q368.482 626.706 366.075 625.966 L366.075 621.267 Q368.158 622.401 370.381 622.956 Q372.603 623.512 375.08 623.512 Q379.084 623.512 381.422 621.405 Q383.76 619.299 383.76 615.688 Q383.76 612.077 381.422 609.97 Q379.084 607.864 375.08 607.864 Q373.205 607.864 371.33 608.28 Q369.478 608.697 367.533 609.577 L367.533 592.216 Z" fill="#000000" fill-rule="nonzero" fill-opacity="1" /><path clip-path="url(#clip500)" d="M340.358 425.103 L356.677 425.103 L356.677 429.039 L334.733 429.039 L334.733 425.103 Q337.395 422.349 341.978 417.719 Q346.584 413.066 347.765 411.724 Q350.01 409.201 350.89 407.465 Q351.793 405.705 351.793 404.016 Q351.793 401.261 349.848 399.525 Q347.927 397.789 344.825 397.789 Q342.626 397.789 340.172 398.553 Q337.742 399.316 334.964 400.867 L334.964 396.145 Q337.788 395.011 340.242 394.432 Q342.696 393.854 344.733 393.854 Q350.103 393.854 353.297 396.539 Q356.492 399.224 356.492 403.715 Q356.492 405.844 355.682 407.766 Q354.895 409.664 352.788 412.256 Q352.209 412.928 349.108 416.145 Q346.006 419.34 340.358 425.103 Z" fill="#000000" fill-rule="nonzero" fill-opacity="1" /><path clip-path="url(#clip500)" d="M376.492 397.557 Q372.881 397.557 371.052 401.122 Q369.246 404.664 369.246 411.793 Q369.246 418.9 371.052 422.465 Q372.881 426.006 376.492 426.006 Q380.126 426.006 381.931 422.465 Q383.76 418.9 383.76 411.793 Q383.76 404.664 381.931 401.122 Q380.126 397.557 376.492 397.557 M376.492 393.854 Q382.302 393.854 385.357 398.46 Q388.436 403.043 388.436 411.793 Q388.436 420.52 385.357 425.127 Q382.302 429.71 376.492 429.71 Q370.681 429.71 367.603 425.127 Q364.547 420.52 364.547 411.793 Q364.547 403.043 367.603 398.46 Q370.681 393.854 376.492 393.854 Z" fill="#000000" fill-rule="nonzero" fill-opacity="1" /><path clip-path="url(#clip500)" d="M240.617 995.397 L247.396 995.397 Q244.373 998.643 242.877 1002.34 Q241.381 1006 241.381 1010.13 Q241.381 1018.28 246.378 1022.61 Q251.343 1026.94 260.764 1026.94 Q270.154 1026.94 275.151 1022.61 Q280.116 1018.28 280.116 1010.13 Q280.116 1006 278.62 1002.34 Q277.124 998.643 274.1 995.397 L280.816 995.397 Q283.108 998.77 284.254 1002.56 Q285.4 1006.31 285.4 1010.52 Q285.4 1021.3 278.811 1027.51 Q272.191 1033.72 260.764 1033.72 Q249.306 1033.72 242.718 1027.51 Q236.097 1021.3 236.097 1010.52 Q236.097 1006.25 237.243 1002.49 Q238.357 998.707 240.617 995.397 Z" fill="#000000" fill-rule="nonzero" fill-opacity="1" /><path clip-path="url(#clip500)" d="M242.24 979.037 L260.096 979.037 L260.096 970.952 Q260.096 966.464 257.772 964.014 Q255.449 961.563 251.152 961.563 Q246.887 961.563 244.564 964.014 Q242.24 966.464 242.24 970.952 L242.24 979.037 M236.957 985.466 L236.957 970.952 Q236.957 962.963 240.585 958.889 Q244.182 954.783 251.152 954.783 Q258.186 954.783 261.783 958.889 Q265.379 962.963 265.379 970.952 L265.379 979.037 L284.477 979.037 L284.477 985.466 L236.957 985.466 Z" fill="#000000" fill-rule="nonzero" fill-opacity="1" /><path clip-path="url(#clip500)" d="M236.957 946.89 L236.957 940.429 L265.825 940.429 Q273.464 940.429 276.838 937.66 Q280.18 934.891 280.18 928.684 Q280.18 922.509 276.838 919.74 Q273.464 916.971 265.825 916.971 L236.957 916.971 L236.957 910.51 L266.621 910.51 Q275.915 910.51 280.657 915.125 Q285.4 919.708 285.4 928.684 Q285.4 937.691 280.657 942.307 Q275.915 946.89 266.621 946.89 L236.957 946.89 Z" fill="#000000" fill-rule="nonzero" fill-opacity="1" /><path clip-path="url(#clip500)" d="M238.707 872.188 L248.829 872.188 L248.829 860.125 L253.38 860.125 L253.38 872.188 L272.732 872.188 Q277.092 872.188 278.334 871.011 Q279.575 869.801 279.575 866.141 L279.575 860.125 L284.477 860.125 L284.477 866.141 Q284.477 872.92 281.962 875.498 Q279.416 878.077 272.732 878.077 L253.38 878.077 L253.38 882.373 L248.829 882.373 L248.829 878.077 L238.707 878.077 L238.707 872.188 Z" fill="#000000" fill-rule="nonzero" fill-opacity="1" /><path clip-path="url(#clip500)" d="M248.829 852.423 L248.829 846.566 L284.477 846.566 L284.477 852.423 L248.829 852.423 M234.951 852.423 L234.951 846.566 L242.367 846.566 L242.367 852.423 L234.951 852.423 Z" fill="#000000" fill-rule="nonzero" fill-opacity="1" /><path clip-path="url(#clip500)" d="M255.672 806.558 Q251.725 804.362 249.847 801.306 Q247.969 798.251 247.969 794.113 Q247.969 788.543 251.884 785.519 Q255.767 782.495 262.961 782.495 L284.477 782.495 L284.477 788.384 L263.151 788.384 Q258.027 788.384 255.544 790.198 Q253.062 792.012 253.062 795.736 Q253.062 800.288 256.086 802.929 Q259.109 805.571 264.329 805.571 L284.477 805.571 L284.477 811.459 L263.151 811.459 Q257.995 811.459 255.544 813.274 Q253.062 815.088 253.062 818.876 Q253.062 823.363 256.117 826.005 Q259.141 828.647 264.329 828.647 L284.477 828.647 L284.477 834.535 L248.829 834.535 L248.829 828.647 L254.367 828.647 Q251.088 826.642 249.529 823.841 Q247.969 821.04 247.969 817.189 Q247.969 813.306 249.943 810.6 Q251.916 807.863 255.672 806.558 Z" fill="#000000" fill-rule="nonzero" fill-opacity="1" /><path clip-path="url(#clip500)" d="M265.189 740.323 L268.053 740.323 L268.053 767.25 Q274.1 766.868 277.283 763.621 Q280.434 760.343 280.434 754.518 Q280.434 751.144 279.607 747.993 Q278.779 744.811 277.124 741.691 L282.662 741.691 Q283.999 744.842 284.699 748.153 Q285.4 751.463 285.4 754.868 Q285.4 763.398 280.434 768.395 Q275.469 773.361 267.003 773.361 Q258.25 773.361 253.125 768.65 Q247.969 763.908 247.969 755.887 Q247.969 748.694 252.616 744.524 Q257.231 740.323 265.189 740.323 M263.47 746.179 Q258.664 746.243 255.799 748.885 Q252.935 751.495 252.935 755.823 Q252.935 760.725 255.704 763.685 Q258.473 766.613 263.502 767.059 L263.47 746.179 Z" fill="#000000" fill-rule="nonzero" fill-opacity="1" /><path clip-path="url(#clip500)" d="M235.015 695.922 Q242.336 700.187 249.497 702.256 Q256.658 704.325 264.011 704.325 Q271.363 704.325 278.588 702.256 Q285.782 700.155 293.07 695.922 L293.07 701.014 Q285.591 705.789 278.366 708.176 Q271.14 710.531 264.011 710.531 Q256.913 710.531 249.72 708.176 Q242.527 705.821 235.015 701.014 L235.015 695.922 Z" fill="#000000" fill-rule="nonzero" fill-opacity="1" /><path clip-path="url(#clip500)" d="M255.672 656.805 Q251.725 654.608 249.847 651.553 Q247.969 648.497 247.969 644.36 Q247.969 638.79 251.884 635.766 Q255.767 632.742 262.961 632.742 L284.477 632.742 L284.477 638.631 L263.151 638.631 Q258.027 638.631 255.544 640.445 Q253.062 642.259 253.062 645.983 Q253.062 650.534 256.086 653.176 Q259.109 655.818 264.329 655.818 L284.477 655.818 L284.477 661.706 L263.151 661.706 Q257.995 661.706 255.544 663.52 Q253.062 665.335 253.062 669.122 Q253.062 673.61 256.117 676.252 Q259.141 678.894 264.329 678.894 L284.477 678.894 L284.477 684.782 L248.829 684.782 L248.829 678.894 L254.367 678.894 Q251.088 676.888 249.529 674.088 Q247.969 671.287 247.969 667.435 Q247.969 663.552 249.943 660.847 Q251.916 658.11 255.672 656.805 Z" fill="#000000" fill-rule="nonzero" fill-opacity="1" /><path clip-path="url(#clip500)" d="M249.879 598.336 L255.417 598.336 Q254.144 600.818 253.507 603.492 Q252.871 606.165 252.871 609.03 Q252.871 613.39 254.208 615.587 Q255.544 617.751 258.218 617.751 Q260.255 617.751 261.433 616.191 Q262.579 614.632 263.629 609.921 L264.075 607.916 Q265.411 601.678 267.862 599.068 Q270.281 596.426 274.642 596.426 Q279.607 596.426 282.503 600.373 Q285.4 604.288 285.4 611.163 Q285.4 614.027 284.827 617.146 Q284.286 620.234 283.172 623.671 L277.124 623.671 Q278.811 620.425 279.67 617.274 Q280.498 614.123 280.498 611.035 Q280.498 606.897 279.098 604.669 Q277.665 602.441 275.087 602.441 Q272.7 602.441 271.427 604.065 Q270.154 605.656 268.976 611.099 L268.499 613.136 Q267.353 618.579 264.998 620.998 Q262.61 623.416 258.473 623.416 Q253.444 623.416 250.707 619.852 Q247.969 616.287 247.969 609.73 Q247.969 606.484 248.447 603.619 Q248.924 600.755 249.879 598.336 Z" fill="#000000" fill-rule="nonzero" fill-opacity="1" /><path clip-path="url(#clip500)" d="M235.015 588.023 L235.015 582.931 Q242.527 578.156 249.72 575.801 Q256.913 573.414 264.011 573.414 Q271.14 573.414 278.366 575.801 Q285.591 578.156 293.07 582.931 L293.07 588.023 Q285.782 583.79 278.588 581.721 Q271.363 579.62 264.011 579.62 Q256.658 579.62 249.497 581.721 Q242.336 583.79 235.015 588.023 Z" fill="#000000" fill-rule="nonzero" fill-opacity="1" /><path clip-path="url(#clip500)" d="M1169.98 93.744 L1146.89 33.264 L1155.44 33.264 L1174.6 84.1839 L1193.8 33.264 L1202.3 33.264 L1179.25 93.744 L1169.98 93.744 Z" fill="#000000" fill-rule="nonzero" fill-opacity="1" /><path clip-path="url(#clip500)" d="M1208.99 48.3739 L1216.44 48.3739 L1216.44 93.744 L1208.99 93.744 L1208.99 48.3739 M1208.99 30.7119 L1216.44 30.7119 L1216.44 40.1505 L1208.99 40.1505 L1208.99 30.7119 Z" fill="#000000" fill-rule="nonzero" fill-opacity="1" /><path clip-path="url(#clip500)" d="M1239.41 35.492 L1239.41 48.3739 L1254.76 48.3739 L1254.76 54.1667 L1239.41 54.1667 L1239.41 78.7962 Q1239.41 84.3459 1240.91 85.9258 Q1242.45 87.5056 1247.11 87.5056 L1254.76 87.5056 L1254.76 93.744 L1247.11 93.744 Q1238.48 93.744 1235.2 90.5438 Q1231.92 87.3031 1231.92 78.7962 L1231.92 54.1667 L1226.45 54.1667 L1226.45 48.3739 L1231.92 48.3739 L1231.92 35.492 L1239.41 35.492 Z" fill="#000000" fill-rule="nonzero" fill-opacity="1" /><path clip-path="url(#clip500)" d="M1303.37 69.1955 L1303.37 72.8413 L1269.1 72.8413 Q1269.59 80.5381 1273.72 84.589 Q1277.89 88.5994 1285.31 88.5994 Q1289.6 88.5994 1293.61 87.5461 Q1297.66 86.4929 1301.63 84.3864 L1301.63 91.435 Q1297.62 93.1364 1293.41 94.0276 Q1289.2 94.9188 1284.86 94.9188 Q1274.01 94.9188 1267.65 88.5994 Q1261.33 82.2799 1261.33 71.5045 Q1261.33 60.3645 1267.32 53.8426 Q1273.36 47.2801 1283.57 47.2801 Q1292.72 47.2801 1298.03 53.1944 Q1303.37 59.0683 1303.37 69.1955 M1295.92 67.008 Q1295.84 60.8912 1292.48 57.2454 Q1289.16 53.5995 1283.65 53.5995 Q1277.41 53.5995 1273.64 57.1238 Q1269.91 60.6481 1269.35 67.0485 L1295.92 67.008 Z" fill="#000000" fill-rule="nonzero" fill-opacity="1" /><path clip-path="url(#clip500)" d="M1341.9 55.3414 Q1340.64 54.6123 1339.14 54.2882 Q1337.69 53.9236 1335.9 53.9236 Q1329.58 53.9236 1326.18 58.0555 Q1322.82 62.1469 1322.82 69.8437 L1322.82 93.744 L1315.32 93.744 L1315.32 48.3739 L1322.82 48.3739 L1322.82 55.4224 Q1325.17 51.2905 1328.94 49.3056 Q1332.7 47.2801 1338.09 47.2801 Q1338.86 47.2801 1339.79 47.4017 Q1340.72 47.4827 1341.86 47.6852 L1341.9 55.3414 Z" fill="#000000" fill-rule="nonzero" fill-opacity="1" /><path clip-path="url(#clip500)" d="M1382.29 71.0994 Q1382.29 62.8761 1378.88 58.2176 Q1375.52 53.5185 1369.61 53.5185 Q1363.69 53.5185 1360.29 58.2176 Q1356.93 62.8761 1356.93 71.0994 Q1356.93 79.3228 1360.29 84.0218 Q1363.69 88.6804 1369.61 88.6804 Q1375.52 88.6804 1378.88 84.0218 Q1382.29 79.3228 1382.29 71.0994 M1356.93 55.2604 Q1359.28 51.2095 1362.84 49.2651 Q1366.45 47.2801 1371.43 47.2801 Q1379.69 47.2801 1384.84 53.8426 Q1390.02 60.4051 1390.02 71.0994 Q1390.02 81.7938 1384.84 88.3563 Q1379.69 94.9188 1371.43 94.9188 Q1366.45 94.9188 1362.84 92.9743 Q1359.28 90.9894 1356.93 86.9385 L1356.93 93.744 L1349.43 93.744 L1349.43 30.7119 L1356.93 30.7119 L1356.93 55.2604 Z" fill="#000000" fill-rule="nonzero" fill-opacity="1" /><path clip-path="url(#clip500)" d="M1402.38 48.3739 L1409.83 48.3739 L1409.83 93.744 L1402.38 93.744 L1402.38 48.3739 M1402.38 30.7119 L1409.83 30.7119 L1409.83 40.1505 L1402.38 40.1505 L1402.38 30.7119 Z" fill="#000000" fill-rule="nonzero" fill-opacity="1" /><path clip-path="url(#clip500)" d="M871.852 121.513 Q866.423 130.83 863.79 139.945 Q861.157 149.059 861.157 158.417 Q861.157 167.774 863.79 176.97 Q866.464 186.125 871.852 195.401 L865.37 195.401 Q859.294 185.882 856.256 176.686 Q853.258 167.491 853.258 158.417 Q853.258 149.383 856.256 140.228 Q859.253 131.073 865.37 121.513 L871.852 121.513 Z" fill="#000000" fill-rule="nonzero" fill-opacity="1" /><path clip-path="url(#clip500)" d="M894.82 130.709 L894.82 177.739 L904.704 177.739 Q917.222 177.739 923.014 172.068 Q928.848 166.397 928.848 154.163 Q928.848 142.011 923.014 136.38 Q917.222 130.709 904.704 130.709 L894.82 130.709 M886.637 123.984 L903.449 123.984 Q921.029 123.984 929.253 131.316 Q937.476 138.608 937.476 154.163 Q937.476 169.8 929.212 177.132 Q920.948 184.464 903.449 184.464 L886.637 184.464 L886.637 123.984 Z" fill="#000000" fill-rule="nonzero" fill-opacity="1" /><path clip-path="url(#clip500)" d="M951.168 146.791 L1003.1 146.791 L1003.1 153.596 L951.168 153.596 L951.168 146.791 M951.168 163.318 L1003.1 163.318 L1003.1 170.205 L951.168 170.205 L951.168 163.318 Z" fill="#000000" fill-rule="nonzero" fill-opacity="1" /><path clip-path="url(#clip500)" d="M1022.18 177.577 L1035.55 177.577 L1035.55 131.438 L1021.01 134.354 L1021.01 126.901 L1035.47 123.984 L1043.65 123.984 L1043.65 177.577 L1057.02 177.577 L1057.02 184.464 L1022.18 184.464 L1022.18 177.577 Z" fill="#000000" fill-rule="nonzero" fill-opacity="1" /><path clip-path="url(#clip500)" d="M1091.05 129.372 Q1084.73 129.372 1081.53 135.61 Q1078.37 141.808 1078.37 154.285 Q1078.37 166.721 1081.53 172.959 Q1084.73 179.157 1091.05 179.157 Q1097.41 179.157 1100.57 172.959 Q1103.77 166.721 1103.77 154.285 Q1103.77 141.808 1100.57 135.61 Q1097.41 129.372 1091.05 129.372 M1091.05 122.89 Q1101.21 122.89 1106.56 130.952 Q1111.95 138.972 1111.95 154.285 Q1111.95 169.557 1106.56 177.618 Q1101.21 185.639 1091.05 185.639 Q1080.88 185.639 1075.49 177.618 Q1070.14 169.557 1070.14 154.285 Q1070.14 138.972 1075.49 130.952 Q1080.88 122.89 1091.05 122.89 Z" fill="#000000" fill-rule="nonzero" fill-opacity="1" /><path clip-path="url(#clip500)" d="M1127.18 174.175 L1135.73 174.175 L1135.73 181.142 L1129.08 194.105 L1123.86 194.105 L1127.18 181.142 L1127.18 174.175 Z" fill="#000000" fill-rule="nonzero" fill-opacity="1" /><path clip-path="url(#clip500)" d="M1143.59 123.984 L1194.75 123.984 L1194.75 130.871 L1173.28 130.871 L1173.28 184.464 L1165.06 184.464 L1165.06 130.871 L1143.59 130.871 L1143.59 123.984 Z" fill="#000000" fill-rule="nonzero" fill-opacity="1" /><path clip-path="url(#clip500)" d="M1203.3 146.791 L1255.23 146.791 L1255.23 153.596 L1203.3 153.596 L1203.3 146.791 M1203.3 163.318 L1255.23 163.318 L1255.23 170.205 L1203.3 170.205 L1203.3 163.318 Z" fill="#000000" fill-rule="nonzero" fill-opacity="1" /><path clip-path="url(#clip500)" d="M1279.94 177.577 L1308.5 177.577 L1308.5 184.464 L1270.1 184.464 L1270.1 177.577 Q1274.75 172.757 1282.78 164.655 Q1290.84 156.513 1292.9 154.163 Q1296.83 149.748 1298.37 146.71 Q1299.95 143.631 1299.95 140.674 Q1299.95 135.853 1296.55 132.815 Q1293.19 129.777 1287.76 129.777 Q1283.91 129.777 1279.62 131.114 Q1275.36 132.45 1270.5 135.164 L1270.5 126.901 Q1275.44 124.916 1279.74 123.903 Q1284.03 122.89 1287.6 122.89 Q1296.99 122.89 1302.58 127.589 Q1308.17 132.288 1308.17 140.147 Q1308.17 143.874 1306.76 147.236 Q1305.38 150.558 1301.69 155.095 Q1300.68 156.27 1295.25 161.9 Q1289.82 167.491 1279.94 177.577 Z" fill="#000000" fill-rule="nonzero" fill-opacity="1" /><path clip-path="url(#clip500)" d="M1343.17 129.372 Q1336.85 129.372 1333.65 135.61 Q1330.49 141.808 1330.49 154.285 Q1330.49 166.721 1333.65 172.959 Q1336.85 179.157 1343.17 179.157 Q1349.53 179.157 1352.69 172.959 Q1355.89 166.721 1355.89 154.285 Q1355.89 141.808 1352.69 135.61 Q1349.53 129.372 1343.17 129.372 M1343.17 122.89 Q1353.34 122.89 1358.69 130.952 Q1364.08 138.972 1364.08 154.285 Q1364.08 169.557 1358.69 177.618 Q1353.34 185.639 1343.17 185.639 Q1333.01 185.639 1327.62 177.618 Q1322.27 169.557 1322.27 154.285 Q1322.27 138.972 1327.62 130.952 Q1333.01 122.89 1343.17 122.89 Z" fill="#000000" fill-rule="nonzero" fill-opacity="1" /><path clip-path="url(#clip500)" d="M1395.96 129.372 Q1389.64 129.372 1386.44 135.61 Q1383.28 141.808 1383.28 154.285 Q1383.28 166.721 1386.44 172.959 Q1389.64 179.157 1395.96 179.157 Q1402.32 179.157 1405.48 172.959 Q1408.68 166.721 1408.68 154.285 Q1408.68 141.808 1405.48 135.61 Q1402.32 129.372 1395.96 129.372 M1395.96 122.89 Q1406.13 122.89 1411.47 130.952 Q1416.86 138.972 1416.86 154.285 Q1416.86 169.557 1411.47 177.618 Q1406.13 185.639 1395.96 185.639 Q1385.79 185.639 1380.4 177.618 Q1375.05 169.557 1375.05 154.285 Q1375.05 138.972 1380.4 130.952 Q1385.79 122.89 1395.96 122.89 Z" fill="#000000" fill-rule="nonzero" fill-opacity="1" /><path clip-path="url(#clip500)" d="M1432.09 174.175 L1440.64 174.175 L1440.64 181.142 L1434 194.105 L1428.77 194.105 L1432.09 181.142 L1432.09 174.175 Z" fill="#000000" fill-rule="nonzero" fill-opacity="1" /><path clip-path="url(#clip500)" d="M1456.88 123.984 L1465.07 123.984 L1465.07 149.545 L1492.21 123.984 L1502.74 123.984 L1472.72 152.178 L1504.89 184.464 L1494.11 184.464 L1465.07 155.338 L1465.07 184.464 L1456.88 184.464 L1456.88 123.984 Z" fill="#000000" fill-rule="nonzero" fill-opacity="1" /><path clip-path="url(#clip500)" d="M1511.93 146.791 L1563.87 146.791 L1563.87 153.596 L1511.93 153.596 L1511.93 146.791 M1511.93 163.318 L1563.87 163.318 L1563.87 170.205 L1511.93 170.205 L1511.93 163.318 Z" fill="#000000" fill-rule="nonzero" fill-opacity="1" /><path clip-path="url(#clip500)" d="M1581.61 123.984 L1613.73 123.984 L1613.73 130.871 L1589.1 130.871 L1589.1 145.697 Q1590.89 145.089 1592.67 144.806 Q1594.45 144.482 1596.23 144.482 Q1606.36 144.482 1612.28 150.031 Q1618.19 155.581 1618.19 165.06 Q1618.19 174.823 1612.11 180.251 Q1606.04 185.639 1594.98 185.639 Q1591.17 185.639 1587.2 184.991 Q1583.27 184.342 1579.06 183.046 L1579.06 174.823 Q1582.7 176.808 1586.59 177.78 Q1590.48 178.752 1594.82 178.752 Q1601.82 178.752 1605.92 175.066 Q1610.01 171.38 1610.01 165.06 Q1610.01 158.741 1605.92 155.054 Q1601.82 151.368 1594.82 151.368 Q1591.54 151.368 1588.25 152.097 Q1585.01 152.826 1581.61 154.366 L1581.61 123.984 Z" fill="#000000" fill-rule="nonzero" fill-opacity="1" /><path clip-path="url(#clip500)" d="M1651.81 129.372 Q1645.49 129.372 1642.29 135.61 Q1639.13 141.808 1639.13 154.285 Q1639.13 166.721 1642.29 172.959 Q1645.49 179.157 1651.81 179.157 Q1658.17 179.157 1661.33 172.959 Q1664.53 166.721 1664.53 154.285 Q1664.53 141.808 1661.33 135.61 Q1658.17 129.372 1651.81 129.372 M1651.81 122.89 Q1661.98 122.89 1667.33 130.952 Q1672.72 138.972 1672.72 154.285 Q1672.72 169.557 1667.33 177.618 Q1661.98 185.639 1651.81 185.639 Q1641.64 185.639 1636.26 177.618 Q1630.91 169.557 1630.91 154.285 Q1630.91 138.972 1636.26 130.952 Q1641.64 122.89 1651.81 122.89 Z" fill="#000000" fill-rule="nonzero" fill-opacity="1" /><path clip-path="url(#clip500)" d="M1684.87 121.513 L1691.35 121.513 Q1697.43 131.073 1700.42 140.228 Q1703.46 149.383 1703.46 158.417 Q1703.46 167.491 1700.42 176.686 Q1697.43 185.882 1691.35 195.401 L1684.87 195.401 Q1690.26 186.125 1692.89 176.97 Q1695.56 167.774 1695.56 158.417 Q1695.56 149.059 1692.89 139.945 Q1690.26 130.83 1684.87 121.513 Z" fill="#000000" fill-rule="nonzero" fill-opacity="1" /><polyline clip-path="url(#clip502)" style="stroke:#0000ff; stroke-linecap:round; stroke-linejoin:round; stroke-width:6; stroke-opacity:1; fill:none" points="509.828,1192.25 766.006,1159.52 1022.18,1123.14 1278.36,1099.02 1534.54,1101.64 1790.71,1070.34 2046.89,1040.69 "/>
<circle clip-path="url(#clip502)" cx="509.828" cy="1192.25" r="14.4" fill="#0000ff" fill-rule="evenodd" fill-opacity="1" stroke="#000000" stroke-opacity="1" stroke-width="3.2"/>
<circle clip-path="url(#clip502)" cx="766.006" cy="1159.52" r="14.4" fill="#0000ff" fill-rule="evenodd" fill-opacity="1" stroke="#000000" stroke-opacity="1" stroke-width="3.2"/>
<circle clip-path="url(#clip502)" cx="1022.18" cy="1123.14" r="14.4" fill="#0000ff" fill-rule="evenodd" fill-opacity="1" stroke="#000000" stroke-opacity="1" stroke-width="3.2"/>
<circle clip-path="url(#clip502)" cx="1278.36" cy="1099.02" r="14.4" fill="#0000ff" fill-rule="evenodd" fill-opacity="1" stroke="#000000" stroke-opacity="1" stroke-width="3.2"/>
<circle clip-path="url(#clip502)" cx="1534.54" cy="1101.64" r="14.4" fill="#0000ff" fill-rule="evenodd" fill-opacity="1" stroke="#000000" stroke-opacity="1" stroke-width="3.2"/>
<circle clip-path="url(#clip502)" cx="1790.71" cy="1070.34" r="14.4" fill="#0000ff" fill-rule="evenodd" fill-opacity="1" stroke="#000000" stroke-opacity="1" stroke-width="3.2"/>
<circle clip-path="url(#clip502)" cx="2046.89" cy="1040.69" r="14.4" fill="#0000ff" fill-rule="evenodd" fill-opacity="1" stroke="#000000" stroke-opacity="1" stroke-width="3.2"/>
<polyline clip-path="url(#clip502)" style="stroke:#008000; stroke-linecap:round; stroke-linejoin:round; stroke-width:6; stroke-opacity:1; fill:none" stroke-dasharray="24, 12, 3, 12" points="509.828,1083.78 766.006,1007.37 1022.18,926.262 1278.36,805.457 1534.54,730.281 1790.71,515.364 2046.89,404.425 "/>
<path clip-path="url(#clip502)" d="M525.828 1067.78 L493.828 1067.78 L509.828 1099.78 L525.828 1067.78 Z" fill="#008000" fill-rule="evenodd" fill-opacity="1" stroke="#000000" stroke-opacity="1" stroke-width="3.2"/>
<path clip-path="url(#clip502)" d="M782.006 991.373 L750.006 991.373 L766.006 1023.37 L782.006 991.373 Z" fill="#008000" fill-rule="evenodd" fill-opacity="1" stroke="#000000" stroke-opacity="1" stroke-width="3.2"/>
<path clip-path="url(#clip502)" d="M1038.18 910.262 L1006.18 910.262 L1022.18 942.262 L1038.18 910.262 Z" fill="#008000" fill-rule="evenodd" fill-opacity="1" stroke="#000000" stroke-opacity="1" stroke-width="3.2"/>
<path clip-path="url(#clip502)" d="M1294.36 789.457 L1262.36 789.457 L1278.36 821.457 L1294.36 789.457 Z" fill="#008000" fill-rule="evenodd" fill-opacity="1" stroke="#000000" stroke-opacity="1" stroke-width="3.2"/>
<path clip-path="url(#clip502)" d="M1550.54 714.281 L1518.54 714.281 L1534.54 746.281 L1550.54 714.281 Z" fill="#008000" fill-rule="evenodd" fill-opacity="1" stroke="#000000" stroke-opacity="1" stroke-width="3.2"/>
<path clip-path="url(#clip502)" d="M1806.71 499.364 L1774.71 499.364 L1790.71 531.364 L1806.71 499.364 Z" fill="#008000" fill-rule="evenodd" fill-opacity="1" stroke="#000000" stroke-opacity="1" stroke-width="3.2"/>
<path clip-path="url(#clip502)" d="M2062.89 388.425 L2030.89 388.425 L2046.89 420.425 L2062.89 388.425 Z" fill="#008000" fill-rule="evenodd" fill-opacity="1" stroke="#000000" stroke-opacity="1" stroke-width="3.2"/>
<path clip-path="url(#clip500)" d="M481.364 586.554 L886.314 586.554 L886.314 431.034 L481.364 431.034  Z" fill="#ffffff" fill-rule="evenodd" fill-opacity="1"/>
<polyline clip-path="url(#clip500)" style="stroke:#000000; stroke-linecap:round; stroke-linejoin:round; stroke-width:4; stroke-opacity:1; fill:none" points="481.364,586.554 886.314,586.554 886.314,431.034 481.364,431.034 481.364,586.554 "/>
<polyline clip-path="url(#clip500)" style="stroke:#0000ff; stroke-linecap:round; stroke-linejoin:round; stroke-width:6; stroke-opacity:1; fill:none" points="500.34,482.874 614.197,482.874 "/>
<circle clip-path="url(#clip500)" cx="557.269" cy="482.874" r="15.8134" fill="#0000ff" fill-rule="evenodd" fill-opacity="1" stroke="#000000" stroke-opacity="1" stroke-width="4.55111"/>
<path clip-path="url(#clip500)" d="M633.173 465.594 L637.849 465.594 L637.849 479.761 L654.839 479.761 L654.839 465.594 L659.515 465.594 L659.515 500.154 L654.839 500.154 L654.839 483.696 L637.849 483.696 L637.849 500.154 L633.173 500.154 L633.173 465.594 Z" fill="#000000" fill-rule="nonzero" fill-opacity="1" /><path clip-path="url(#clip500)" d="M668.821 465.594 L675.788 465.594 L684.608 489.112 L693.474 465.594 L700.441 465.594 L700.441 500.154 L695.881 500.154 L695.881 469.807 L686.969 493.511 L682.27 493.511 L673.358 469.807 L673.358 500.154 L668.821 500.154 L668.821 465.594 Z" fill="#000000" fill-rule="nonzero" fill-opacity="1" /><path clip-path="url(#clip500)" d="M709.723 465.594 L716.691 465.594 L725.51 489.112 L734.376 465.594 L741.344 465.594 L741.344 500.154 L736.783 500.154 L736.783 469.807 L727.871 493.511 L723.172 493.511 L714.26 469.807 L714.26 500.154 L709.723 500.154 L709.723 465.594 Z" fill="#000000" fill-rule="nonzero" fill-opacity="1" /><path clip-path="url(#clip500)" d="M766.969 474.992 L766.969 479.02 Q765.163 478.094 763.219 477.631 Q761.274 477.168 759.191 477.168 Q756.019 477.168 754.422 478.14 Q752.848 479.112 752.848 481.057 Q752.848 482.538 753.982 483.395 Q755.117 484.228 758.543 484.992 L760.001 485.316 Q764.538 486.288 766.436 488.071 Q768.357 489.83 768.357 493.001 Q768.357 496.612 765.487 498.719 Q762.64 500.825 757.64 500.825 Q755.557 500.825 753.288 500.409 Q751.043 500.015 748.543 499.205 L748.543 494.807 Q750.904 496.034 753.195 496.659 Q755.487 497.26 757.732 497.26 Q760.742 497.26 762.362 496.242 Q763.982 495.2 763.982 493.325 Q763.982 491.589 762.802 490.663 Q761.644 489.737 757.686 488.881 L756.205 488.534 Q752.246 487.7 750.487 485.987 Q748.728 484.251 748.728 481.242 Q748.728 477.585 751.32 475.594 Q753.913 473.603 758.682 473.603 Q761.043 473.603 763.126 473.95 Q765.209 474.298 766.969 474.992 Z" fill="#000000" fill-rule="nonzero" fill-opacity="1" /><path clip-path="url(#clip500)" d="M775.742 494.274 L780.626 494.274 L780.626 500.154 L775.742 500.154 L775.742 494.274 Z" fill="#000000" fill-rule="nonzero" fill-opacity="1" /><path clip-path="url(#clip500)" d="M790.209 474.228 L794.468 474.228 L794.468 500.617 Q794.468 505.571 792.57 507.793 Q790.695 510.015 786.505 510.015 L784.885 510.015 L784.885 506.404 L786.019 506.404 Q788.45 506.404 789.329 505.27 Q790.209 504.159 790.209 500.617 L790.209 474.228 M790.209 464.136 L794.468 464.136 L794.468 469.529 L790.209 469.529 L790.209 464.136 Z" fill="#000000" fill-rule="nonzero" fill-opacity="1" /><path clip-path="url(#clip500)" d="M803.38 464.136 L807.64 464.136 L807.64 500.154 L803.38 500.154 L803.38 464.136 Z" fill="#000000" fill-rule="nonzero" fill-opacity="1" /><polyline clip-path="url(#clip500)" style="stroke:#008000; stroke-linecap:round; stroke-linejoin:round; stroke-width:6; stroke-opacity:1; fill:none" stroke-dasharray="24, 12, 3, 12" points="500.34,534.714 614.197,534.714 "/>
<path clip-path="url(#clip500)" d="M574.839 517.144 L539.698 517.144 L557.269 552.284 L574.839 517.144 Z" fill="#008000" fill-rule="evenodd" fill-opacity="1" stroke="#000000" stroke-opacity="1" stroke-width="4.55111"/>
<path clip-path="url(#clip500)" d="M654.886 536.346 L654.886 551.994 L650.627 551.994 L650.627 536.485 Q650.627 532.804 649.191 530.976 Q647.756 529.147 644.886 529.147 Q641.437 529.147 639.446 531.346 Q637.455 533.545 637.455 537.341 L637.455 551.994 L633.173 551.994 L633.173 515.976 L637.455 515.976 L637.455 530.096 Q638.983 527.758 641.043 526.601 Q643.127 525.443 645.835 525.443 Q650.302 525.443 652.594 528.221 Q654.886 530.976 654.886 536.346 Z" fill="#000000" fill-rule="nonzero" fill-opacity="1" /><path clip-path="url(#clip500)" d="M683.566 531.045 Q685.163 528.175 687.386 526.809 Q689.608 525.443 692.617 525.443 Q696.668 525.443 698.867 528.29 Q701.066 531.114 701.066 536.346 L701.066 551.994 L696.784 551.994 L696.784 536.485 Q696.784 532.758 695.464 530.952 Q694.145 529.147 691.437 529.147 Q688.126 529.147 686.205 531.346 Q684.284 533.545 684.284 537.341 L684.284 551.994 L680.001 551.994 L680.001 536.485 Q680.001 532.735 678.682 530.952 Q677.363 529.147 674.608 529.147 Q671.344 529.147 669.423 531.369 Q667.501 533.568 667.501 537.341 L667.501 551.994 L663.219 551.994 L663.219 526.068 L667.501 526.068 L667.501 530.096 Q668.96 527.712 670.997 526.577 Q673.034 525.443 675.835 525.443 Q678.659 525.443 680.626 526.878 Q682.617 528.314 683.566 531.045 Z" fill="#000000" fill-rule="nonzero" fill-opacity="1" /><path clip-path="url(#clip500)" d="M729.746 531.045 Q731.344 528.175 733.566 526.809 Q735.788 525.443 738.797 525.443 Q742.848 525.443 745.047 528.29 Q747.246 531.114 747.246 536.346 L747.246 551.994 L742.964 551.994 L742.964 536.485 Q742.964 532.758 741.645 530.952 Q740.325 529.147 737.617 529.147 Q734.307 529.147 732.385 531.346 Q730.464 533.545 730.464 537.341 L730.464 551.994 L726.182 551.994 L726.182 536.485 Q726.182 532.735 724.862 530.952 Q723.543 529.147 720.788 529.147 Q717.524 529.147 715.603 531.369 Q713.682 533.568 713.682 537.341 L713.682 551.994 L709.399 551.994 L709.399 526.068 L713.682 526.068 L713.682 530.096 Q715.14 527.712 717.177 526.577 Q719.214 525.443 722.015 525.443 Q724.839 525.443 726.807 526.878 Q728.797 528.314 729.746 531.045 Z" fill="#000000" fill-rule="nonzero" fill-opacity="1" /><path clip-path="url(#clip500)" d="M755.742 515.976 L760.001 515.976 L760.001 551.994 L755.742 551.994 L755.742 515.976 Z" fill="#000000" fill-rule="nonzero" fill-opacity="1" /><path clip-path="url(#clip500)" d="M791.089 537.966 L791.089 540.05 L771.506 540.05 Q771.783 544.448 774.144 546.763 Q776.529 549.054 780.765 549.054 Q783.218 549.054 785.51 548.452 Q787.825 547.85 790.093 546.647 L790.093 550.675 Q787.802 551.647 785.394 552.156 Q782.987 552.665 780.51 552.665 Q774.306 552.665 770.672 549.054 Q767.061 545.443 767.061 539.286 Q767.061 532.92 770.487 529.193 Q773.936 525.443 779.769 525.443 Q785.001 525.443 788.033 528.823 Q791.089 532.179 791.089 537.966 M786.83 536.716 Q786.783 533.221 784.862 531.138 Q782.964 529.054 779.816 529.054 Q776.251 529.054 774.098 531.068 Q771.968 533.082 771.644 536.739 L786.83 536.716 Z" fill="#000000" fill-rule="nonzero" fill-opacity="1" /><path clip-path="url(#clip500)" d="M809.862 538.962 Q804.7 538.962 802.709 540.142 Q800.718 541.323 800.718 544.17 Q800.718 546.438 802.2 547.781 Q803.704 549.1 806.274 549.1 Q809.815 549.1 811.945 546.601 Q814.098 544.077 814.098 539.911 L814.098 538.962 L809.862 538.962 M818.357 537.202 L818.357 551.994 L814.098 551.994 L814.098 548.059 Q812.64 550.42 810.464 551.554 Q808.288 552.665 805.14 552.665 Q801.158 552.665 798.797 550.443 Q796.459 548.198 796.459 544.448 Q796.459 540.073 799.376 537.851 Q802.316 535.628 808.126 535.628 L814.098 535.628 L814.098 535.212 Q814.098 532.272 812.153 530.675 Q810.232 529.054 806.737 529.054 Q804.515 529.054 802.408 529.587 Q800.302 530.119 798.357 531.184 L798.357 527.249 Q800.695 526.346 802.894 525.906 Q805.093 525.443 807.177 525.443 Q812.802 525.443 815.579 528.36 Q818.357 531.277 818.357 537.202 Z" fill="#000000" fill-rule="nonzero" fill-opacity="1" /><path clip-path="url(#clip500)" d="M842.153 530.05 Q841.436 529.633 840.579 529.448 Q839.746 529.239 838.727 529.239 Q835.116 529.239 833.172 531.601 Q831.251 533.939 831.251 538.337 L831.251 551.994 L826.968 551.994 L826.968 526.068 L831.251 526.068 L831.251 530.096 Q832.593 527.735 834.746 526.601 Q836.899 525.443 839.977 525.443 Q840.417 525.443 840.95 525.513 Q841.482 525.559 842.13 525.675 L842.153 530.05 Z" fill="#000000" fill-rule="nonzero" fill-opacity="1" /><path clip-path="url(#clip500)" d="M867.338 536.346 L867.338 551.994 L863.079 551.994 L863.079 536.485 Q863.079 532.804 861.644 530.976 Q860.209 529.147 857.338 529.147 Q853.889 529.147 851.899 531.346 Q849.908 533.545 849.908 537.341 L849.908 551.994 L845.625 551.994 L845.625 526.068 L849.908 526.068 L849.908 530.096 Q851.436 527.758 853.496 526.601 Q855.579 525.443 858.287 525.443 Q862.755 525.443 865.047 528.221 Q867.338 530.976 867.338 536.346 Z" fill="#000000" fill-rule="nonzero" fill-opacity="1" /></svg>
