<?xml version="1.0" encoding="utf-8"?>
<svg xmlns="http://www.w3.org/2000/svg" xmlns:xlink="http://www.w3.org/1999/xlink" width="600" height="400" viewBox="0 0 2400 1600">
<defs>
  <clipPath id="clip740">
    <rect x="0" y="0" width="2400" height="1600"/>
  </clipPath>
</defs>
<path clip-path="url(#clip740)" d="M0 1600 L2400 1600 L2400 0 L0 0  Z" fill="#ffffff" fill-rule="evenodd" fill-opacity="1"/>
<defs>
  <clipPath id="clip741">
    <rect x="480" y="0" width="1681" height="1600"/>
  </clipPath>
</defs>
<path clip-path="url(#clip740)" d="M455.755 1202.71 L2132.28 1202.71 L2132.28 404.425 L455.755 404.425  Z" fill="#ffffff" fill-rule="evenodd" fill-opacity="1"/>
<defs>
  <clipPath id="clip742">
    <rect x="455" y="404" width="1678" height="799"/>
  </clipPath>
</defs>
<polyline clip-path="url(#clip742)" style="stroke:#000000; stroke-linecap:round; stroke-linejoin:round; stroke-width:2; stroke-opacity:0.1; fill:none" points="791.061,1202.71 791.061,404.425 "/>
<polyline clip-path="url(#clip742)" style="stroke:#000000; stroke-linecap:round; stroke-linejoin:round; stroke-width:2; stroke-opacity:0.1; fill:none" points="1210.19,1202.71 1210.19,404.425 "/>
<polyline clip-path="url(#clip742)" style="stroke:#000000; stroke-linecap:round; stroke-linejoin:round; stroke-width:2; stroke-opacity:0.1; fill:none" points="1629.33,1202.71 1629.33,404.425 "/>
<polyline clip-path="url(#clip742)" style="stroke:#000000; stroke-linecap:round; stroke-linejoin:round; stroke-width:2; stroke-opacity:0.1; fill:none" points="2048.46,1202.71 2048.46,404.425 "/>
<polyline clip-path="url(#clip740)" style="stroke:#000000; stroke-linecap:round; stroke-linejoin:round; stroke-width:4; stroke-opacity:1; fill:none" points="455.755,1202.71 2132.28,1202.71 "/>
<polyline clip-path="url(#clip740)" style="stroke:#000000; stroke-linecap:round; stroke-linejoin:round; stroke-width:4; stroke-opacity:1; fill:none" points="791.061,1202.71 791.061,1183.81 "/>
<polyline clip-path="url(#clip740)" style="stroke:#000000; stroke-linecap:round; stroke-linejoin:round; stroke-width:4; stroke-opacity:1; fill:none" points="1210.19,1202.71 1210.19,1183.81 "/>
<polyline clip-path="url(#clip740)" style="stroke:#000000; stroke-linecap:round; stroke-linejoin:round; stroke-width:4; stroke-opacity:1; fill:none" points="1629.33,1202.71 1629.33,1183.81 "/>
<polyline clip-path="url(#clip740)" style="stroke:#000000; stroke-linecap:round; stroke-linejoin:round; stroke-width:4; stroke-opacity:1; fill:none" points="2048.46,1202.71 2048.46,1183.81 "/>
<path clip-path="url(#clip740)" d="M781.339 1230.55 L799.695 1230.55 L799.695 1234.48 L785.621 1234.48 L785.621 1242.95 Q786.64 1242.61 787.658 1242.45 Q788.677 1242.26 789.695 1242.26 Q795.482 1242.26 798.862 1245.43 Q802.241 1248.6 802.241 1254.02 Q802.241 1259.6 798.769 1262.7 Q795.297 1265.78 788.978 1265.78 Q786.802 1265.78 784.533 1265.41 Q782.288 1265.04 779.88 1264.3 L779.88 1259.6 Q781.964 1260.73 784.186 1261.29 Q786.408 1261.84 788.885 1261.84 Q792.89 1261.84 795.228 1259.74 Q797.566 1257.63 797.566 1254.02 Q797.566 1250.41 795.228 1248.3 Q792.89 1246.2 788.885 1246.2 Q787.01 1246.2 785.135 1246.61 Q783.283 1247.03 781.339 1247.91 L781.339 1230.55 Z" fill="#000000" fill-rule="nonzero" fill-opacity="1" /><path clip-path="url(#clip740)" d="M1184.88 1261.17 L1192.52 1261.17 L1192.52 1234.81 L1184.21 1236.47 L1184.21 1232.21 L1192.47 1230.55 L1197.15 1230.55 L1197.15 1261.17 L1204.79 1261.17 L1204.79 1265.11 L1184.88 1265.11 L1184.88 1261.17 Z" fill="#000000" fill-rule="nonzero" fill-opacity="1" /><path clip-path="url(#clip740)" d="M1224.23 1233.63 Q1220.62 1233.63 1218.79 1237.19 Q1216.99 1240.73 1216.99 1247.86 Q1216.99 1254.97 1218.79 1258.53 Q1220.62 1262.08 1224.23 1262.08 Q1227.87 1262.08 1229.67 1258.53 Q1231.5 1254.97 1231.5 1247.86 Q1231.5 1240.73 1229.67 1237.19 Q1227.87 1233.63 1224.23 1233.63 M1224.23 1229.92 Q1230.04 1229.92 1233.1 1234.53 Q1236.18 1239.11 1236.18 1247.86 Q1236.18 1256.59 1233.1 1261.2 Q1230.04 1265.78 1224.23 1265.78 Q1218.42 1265.78 1215.34 1261.2 Q1212.29 1256.59 1212.29 1247.86 Q1212.29 1239.11 1215.34 1234.53 Q1218.42 1229.92 1224.23 1229.92 Z" fill="#000000" fill-rule="nonzero" fill-opacity="1" /><path clip-path="url(#clip740)" d="M1604.51 1261.17 L1612.15 1261.17 L1612.15 1234.81 L1603.84 1236.47 L1603.84 1232.21 L1612.1 1230.55 L1616.78 1230.55 L1616.78 1261.17 L1624.42 1261.17 L1624.42 1265.11 L1604.51 1265.11 L1604.51 1261.17 Z" fill="#000000" fill-rule="nonzero" fill-opacity="1" /><path clip-path="url(#clip740)" d="M1633.91 1230.55 L1652.26 1230.55 L1652.26 1234.48 L1638.19 1234.48 L1638.19 1242.95 Q1639.21 1242.61 1640.23 1242.45 Q1641.25 1242.26 1642.26 1242.26 Q1648.05 1242.26 1651.43 1245.43 Q1654.81 1248.6 1654.81 1254.02 Q1654.81 1259.6 1651.34 1262.7 Q1647.87 1265.78 1641.55 1265.78 Q1639.37 1265.78 1637.1 1265.41 Q1634.86 1265.04 1632.45 1264.3 L1632.45 1259.6 Q1634.53 1260.73 1636.76 1261.29 Q1638.98 1261.84 1641.45 1261.84 Q1645.46 1261.84 1647.8 1259.74 Q1650.14 1257.63 1650.14 1254.02 Q1650.14 1250.41 1647.8 1248.3 Q1645.46 1246.2 1641.45 1246.2 Q1639.58 1246.2 1637.7 1246.61 Q1635.85 1247.03 1633.91 1247.91 L1633.91 1230.55 Z" fill="#000000" fill-rule="nonzero" fill-opacity="1" /><path clip-path="url(#clip740)" d="M2027.23 1261.17 L2043.55 1261.17 L2043.55 1265.11 L2021.61 1265.11 L2021.61 1261.17 Q2024.27 1258.42 2028.85 1253.79 Q2033.46 1249.14 2034.64 1247.79 Q2036.88 1245.27 2037.76 1243.53 Q2038.67 1241.77 2038.67 1240.08 Q2038.67 1237.33 2036.72 1235.59 Q2034.8 1233.86 2031.7 1233.86 Q2029.5 1233.86 2027.05 1234.62 Q2024.61 1235.39 2021.84 1236.94 L2021.84 1232.21 Q2024.66 1231.08 2027.11 1230.5 Q2029.57 1229.92 2031.61 1229.92 Q2036.98 1229.92 2040.17 1232.61 Q2043.36 1235.29 2043.36 1239.78 Q2043.36 1241.91 2042.55 1243.83 Q2041.77 1245.73 2039.66 1248.33 Q2039.08 1249 2035.98 1252.21 Q2032.88 1255.41 2027.23 1261.17 Z" fill="#000000" fill-rule="nonzero" fill-opacity="1" /><path clip-path="url(#clip740)" d="M2063.36 1233.63 Q2059.75 1233.63 2057.92 1237.19 Q2056.12 1240.73 2056.12 1247.86 Q2056.12 1254.97 2057.92 1258.53 Q2059.75 1262.08 2063.36 1262.08 Q2067 1262.08 2068.8 1258.53 Q2070.63 1254.97 2070.63 1247.86 Q2070.63 1240.73 2068.8 1237.19 Q2067 1233.63 2063.36 1233.63 M2063.36 1229.92 Q2069.17 1229.92 2072.23 1234.53 Q2075.31 1239.11 2075.31 1247.86 Q2075.31 1256.59 2072.23 1261.2 Q2069.17 1265.78 2063.36 1265.78 Q2057.55 1265.78 2054.48 1261.2 Q2051.42 1256.59 2051.42 1247.86 Q2051.42 1239.11 2054.48 1234.53 Q2057.55 1229.92 2063.36 1229.92 Z" fill="#000000" fill-rule="nonzero" fill-opacity="1" /><path clip-path="url(#clip740)" d="M1016.41 1326.06 L1016.41 1347.57 L1010.55 1347.57 L1010.55 1326.25 Q1010.55 1321.19 1008.58 1318.67 Q1006.61 1316.16 1002.66 1316.16 Q997.919 1316.16 995.181 1319.18 Q992.444 1322.2 992.444 1327.42 L992.444 1347.57 L986.556 1347.57 L986.556 1311.92 L992.444 1311.92 L992.444 1317.46 Q994.545 1314.25 997.377 1312.66 Q1000.24 1311.06 1003.97 1311.06 Q1010.11 1311.06 1013.26 1314.88 Q1016.41 1318.67 1016.41 1326.06 Z" fill="#000000" fill-rule="nonzero" fill-opacity="1" /><path clip-path="url(#clip740)" d="M1027.49 1333.5 L1027.49 1311.92 L1033.34 1311.92 L1033.34 1333.28 Q1033.34 1338.34 1035.32 1340.89 Q1037.29 1343.4 1041.24 1343.4 Q1045.98 1343.4 1048.72 1340.38 Q1051.49 1337.35 1051.49 1332.13 L1051.49 1311.92 L1057.34 1311.92 L1057.34 1347.57 L1051.49 1347.57 L1051.49 1342.1 Q1049.35 1345.34 1046.52 1346.93 Q1043.72 1348.49 1040 1348.49 Q1033.85 1348.49 1030.67 1344.68 Q1027.49 1340.86 1027.49 1333.5 M1042.22 1311.06 L1042.22 1311.06 Z" fill="#000000" fill-rule="nonzero" fill-opacity="1" /><path clip-path="url(#clip740)" d="M1097.16 1318.77 Q1099.36 1314.82 1102.41 1312.94 Q1105.47 1311.06 1109.6 1311.06 Q1115.17 1311.06 1118.2 1314.98 Q1121.22 1318.86 1121.22 1326.06 L1121.22 1347.57 L1115.33 1347.57 L1115.33 1326.25 Q1115.33 1321.12 1113.52 1318.64 Q1111.71 1316.16 1107.98 1316.16 Q1103.43 1316.16 1100.79 1319.18 Q1098.15 1322.2 1098.15 1327.42 L1098.15 1347.57 L1092.26 1347.57 L1092.26 1326.25 Q1092.26 1321.09 1090.44 1318.64 Q1088.63 1316.16 1084.84 1316.16 Q1080.35 1316.16 1077.71 1319.21 Q1075.07 1322.24 1075.07 1327.42 L1075.07 1347.57 L1069.18 1347.57 L1069.18 1311.92 L1075.07 1311.92 L1075.07 1317.46 Q1077.08 1314.18 1079.88 1312.62 Q1082.68 1311.06 1086.53 1311.06 Q1090.41 1311.06 1093.12 1313.04 Q1095.85 1315.01 1097.16 1318.77 Z" fill="#000000" fill-rule="nonzero" fill-opacity="1" /><path clip-path="url(#clip740)" d="M1158.49 1329.78 Q1158.49 1323.32 1155.82 1319.66 Q1153.18 1315.97 1148.53 1315.97 Q1143.88 1315.97 1141.21 1319.66 Q1138.57 1323.32 1138.57 1329.78 Q1138.57 1336.24 1141.21 1339.93 Q1143.88 1343.59 1148.53 1343.59 Q1153.18 1343.59 1155.82 1339.93 Q1158.49 1336.24 1158.49 1329.78 M1138.57 1317.33 Q1140.41 1314.15 1143.22 1312.62 Q1146.05 1311.06 1149.96 1311.06 Q1156.46 1311.06 1160.5 1316.22 Q1164.57 1321.38 1164.57 1329.78 Q1164.57 1338.18 1160.5 1343.34 Q1156.46 1348.49 1149.96 1348.49 Q1146.05 1348.49 1143.22 1346.97 Q1140.41 1345.41 1138.57 1342.22 L1138.57 1347.57 L1132.68 1347.57 L1132.68 1298.05 L1138.57 1298.05 L1138.57 1317.33 Z" fill="#000000" fill-rule="nonzero" fill-opacity="1" /><path clip-path="url(#clip740)" d="M1204.77 1328.28 L1204.77 1331.15 L1177.85 1331.15 Q1178.23 1337.2 1181.47 1340.38 Q1184.75 1343.53 1190.58 1343.53 Q1193.95 1343.53 1197.1 1342.7 Q1200.28 1341.87 1203.4 1340.22 L1203.4 1345.76 Q1200.25 1347.09 1196.94 1347.79 Q1193.63 1348.49 1190.23 1348.49 Q1181.7 1348.49 1176.7 1343.53 Q1171.73 1338.56 1171.73 1330.1 Q1171.73 1321.34 1176.44 1316.22 Q1181.19 1311.06 1189.21 1311.06 Q1196.4 1311.06 1200.57 1315.71 Q1204.77 1320.33 1204.77 1328.28 M1198.92 1326.56 Q1198.85 1321.76 1196.21 1318.89 Q1193.6 1316.03 1189.27 1316.03 Q1184.37 1316.03 1181.41 1318.8 Q1178.48 1321.57 1178.04 1326.6 L1198.92 1326.56 Z" fill="#000000" fill-rule="nonzero" fill-opacity="1" /><path clip-path="url(#clip740)" d="M1235.04 1317.4 Q1234.05 1316.83 1232.88 1316.57 Q1231.73 1316.28 1230.33 1316.28 Q1225.37 1316.28 1222.69 1319.53 Q1220.05 1322.75 1220.05 1328.79 L1220.05 1347.57 L1214.16 1347.57 L1214.16 1311.92 L1220.05 1311.92 L1220.05 1317.46 Q1221.9 1314.22 1224.86 1312.66 Q1227.82 1311.06 1232.05 1311.06 Q1232.65 1311.06 1233.39 1311.16 Q1234.12 1311.22 1235.01 1311.38 L1235.04 1317.4 Z" fill="#000000" fill-rule="nonzero" fill-opacity="1" /><path clip-path="url(#clip740)" d="M1275.72 1316.03 Q1271.01 1316.03 1268.27 1319.72 Q1265.53 1323.38 1265.53 1329.78 Q1265.53 1336.18 1268.24 1339.87 Q1270.98 1343.53 1275.72 1343.53 Q1280.4 1343.53 1283.13 1339.84 Q1285.87 1336.14 1285.87 1329.78 Q1285.87 1323.45 1283.13 1319.75 Q1280.4 1316.03 1275.72 1316.03 M1275.72 1311.06 Q1283.36 1311.06 1287.72 1316.03 Q1292.08 1320.99 1292.08 1329.78 Q1292.08 1338.53 1287.72 1343.53 Q1283.36 1348.49 1275.72 1348.49 Q1268.05 1348.49 1263.69 1343.53 Q1259.36 1338.53 1259.36 1329.78 Q1259.36 1320.99 1263.69 1316.03 Q1268.05 1311.06 1275.72 1311.06 Z" fill="#000000" fill-rule="nonzero" fill-opacity="1" /><path clip-path="url(#clip740)" d="M1319.83 1298.05 L1319.83 1302.92 L1314.23 1302.92 Q1311.08 1302.92 1309.84 1304.19 Q1308.63 1305.46 1308.63 1308.77 L1308.63 1311.92 L1318.27 1311.92 L1318.27 1316.47 L1308.63 1316.47 L1308.63 1347.57 L1302.74 1347.57 L1302.74 1316.47 L1297.14 1316.47 L1297.14 1311.92 L1302.74 1311.92 L1302.74 1309.44 Q1302.74 1303.49 1305.51 1300.78 Q1308.28 1298.05 1314.29 1298.05 L1319.83 1298.05 Z" fill="#000000" fill-rule="nonzero" fill-opacity="1" /><path clip-path="url(#clip740)" d="M1368.18 1312.97 L1368.18 1318.51 Q1365.7 1317.24 1363.02 1316.6 Q1360.35 1315.97 1357.49 1315.97 Q1353.12 1315.97 1350.93 1317.3 Q1348.76 1318.64 1348.76 1321.31 Q1348.76 1323.35 1350.32 1324.53 Q1351.88 1325.67 1356.59 1326.72 L1358.6 1327.17 Q1364.84 1328.51 1367.45 1330.96 Q1370.09 1333.38 1370.09 1337.74 Q1370.09 1342.7 1366.14 1345.6 Q1362.23 1348.49 1355.35 1348.49 Q1352.49 1348.49 1349.37 1347.92 Q1346.28 1347.38 1342.84 1346.27 L1342.84 1340.22 Q1346.09 1341.91 1349.24 1342.77 Q1352.39 1343.59 1355.48 1343.59 Q1359.62 1343.59 1361.85 1342.19 Q1364.07 1340.76 1364.07 1338.18 Q1364.07 1335.79 1362.45 1334.52 Q1360.86 1333.25 1355.42 1332.07 L1353.38 1331.59 Q1347.94 1330.45 1345.52 1328.09 Q1343.1 1325.71 1343.1 1321.57 Q1343.1 1316.54 1346.66 1313.8 Q1350.23 1311.06 1356.79 1311.06 Q1360.03 1311.06 1362.9 1311.54 Q1365.76 1312.02 1368.18 1312.97 Z" fill="#000000" fill-rule="nonzero" fill-opacity="1" /><path clip-path="url(#clip740)" d="M1385.21 1301.8 L1385.21 1311.92 L1397.27 1311.92 L1397.27 1316.47 L1385.21 1316.47 L1385.21 1335.83 Q1385.21 1340.19 1386.39 1341.43 Q1387.6 1342.67 1391.26 1342.67 L1397.27 1342.67 L1397.27 1347.57 L1391.26 1347.57 Q1384.48 1347.57 1381.9 1345.06 Q1379.32 1342.51 1379.32 1335.83 L1379.32 1316.47 L1375.02 1316.47 L1375.02 1311.92 L1379.32 1311.92 L1379.32 1301.8 L1385.21 1301.8 Z" fill="#000000" fill-rule="nonzero" fill-opacity="1" /><path clip-path="url(#clip740)" d="M1421.17 1329.65 Q1414.08 1329.65 1411.34 1331.28 Q1408.6 1332.9 1408.6 1336.81 Q1408.6 1339.93 1410.64 1341.78 Q1412.71 1343.59 1416.24 1343.59 Q1421.11 1343.59 1424.04 1340.16 Q1427 1336.69 1427 1330.96 L1427 1329.65 L1421.17 1329.65 M1432.86 1327.23 L1432.86 1347.57 L1427 1347.57 L1427 1342.16 Q1424.99 1345.41 1422 1346.97 Q1419.01 1348.49 1414.68 1348.49 Q1409.21 1348.49 1405.96 1345.44 Q1402.75 1342.35 1402.75 1337.2 Q1402.75 1331.18 1406.76 1328.12 Q1410.8 1325.07 1418.79 1325.07 L1427 1325.07 L1427 1324.5 Q1427 1320.45 1424.33 1318.26 Q1421.68 1316.03 1416.88 1316.03 Q1413.82 1316.03 1410.93 1316.76 Q1408.03 1317.49 1405.36 1318.96 L1405.36 1313.55 Q1408.57 1312.31 1411.59 1311.7 Q1414.62 1311.06 1417.48 1311.06 Q1425.22 1311.06 1429.04 1315.07 Q1432.86 1319.08 1432.86 1327.23 Z" fill="#000000" fill-rule="nonzero" fill-opacity="1" /><path clip-path="url(#clip740)" d="M1450.71 1301.8 L1450.71 1311.92 L1462.77 1311.92 L1462.77 1316.47 L1450.71 1316.47 L1450.71 1335.83 Q1450.71 1340.19 1451.89 1341.43 Q1453.1 1342.67 1456.76 1342.67 L1462.77 1342.67 L1462.77 1347.57 L1456.76 1347.57 Q1449.98 1347.57 1447.4 1345.06 Q1444.82 1342.51 1444.82 1335.83 L1444.82 1316.47 L1440.53 1316.47 L1440.53 1311.92 L1444.82 1311.92 L1444.82 1301.8 L1450.71 1301.8 Z" fill="#000000" fill-rule="nonzero" fill-opacity="1" /><path clip-path="url(#clip740)" d="M1500.97 1328.28 L1500.97 1331.15 L1474.04 1331.15 Q1474.42 1337.2 1477.67 1340.38 Q1480.95 1343.53 1486.77 1343.53 Q1490.15 1343.53 1493.3 1342.7 Q1496.48 1341.87 1499.6 1340.22 L1499.6 1345.76 Q1496.45 1347.09 1493.14 1347.79 Q1489.83 1348.49 1486.42 1348.49 Q1477.89 1348.49 1472.9 1343.53 Q1467.93 1338.56 1467.93 1330.1 Q1467.93 1321.34 1472.64 1316.22 Q1477.38 1311.06 1485.4 1311.06 Q1492.6 1311.06 1496.77 1315.71 Q1500.97 1320.33 1500.97 1328.28 M1495.11 1326.56 Q1495.05 1321.76 1492.41 1318.89 Q1489.8 1316.03 1485.47 1316.03 Q1480.57 1316.03 1477.61 1318.8 Q1474.68 1321.57 1474.23 1326.6 L1495.11 1326.56 Z" fill="#000000" fill-rule="nonzero" fill-opacity="1" /><path clip-path="url(#clip740)" d="M1533.31 1312.97 L1533.31 1318.51 Q1530.82 1317.24 1528.15 1316.6 Q1525.48 1315.97 1522.61 1315.97 Q1518.25 1315.97 1516.06 1317.3 Q1513.89 1318.64 1513.89 1321.31 Q1513.89 1323.35 1515.45 1324.53 Q1517.01 1325.67 1521.72 1326.72 L1523.73 1327.17 Q1529.96 1328.51 1532.57 1330.96 Q1535.22 1333.38 1535.22 1337.74 Q1535.22 1342.7 1531.27 1345.6 Q1527.35 1348.49 1520.48 1348.49 Q1517.61 1348.49 1514.5 1347.92 Q1511.41 1347.38 1507.97 1346.27 L1507.97 1340.22 Q1511.22 1341.91 1514.37 1342.77 Q1517.52 1343.59 1520.61 1343.59 Q1524.74 1343.59 1526.97 1342.19 Q1529.2 1340.76 1529.2 1338.18 Q1529.2 1335.79 1527.58 1334.52 Q1525.99 1333.25 1520.54 1332.07 L1518.51 1331.59 Q1513.06 1330.45 1510.64 1328.09 Q1508.23 1325.71 1508.23 1321.57 Q1508.23 1316.54 1511.79 1313.8 Q1515.35 1311.06 1521.91 1311.06 Q1525.16 1311.06 1528.02 1311.54 Q1530.89 1312.02 1533.31 1312.97 Z" fill="#000000" fill-rule="nonzero" fill-opacity="1" /><path clip-path="url(#clip740)" d="M1565.52 1300.05 L1574.17 1300.05 L1595.24 1339.81 L1595.24 1300.05 L1601.48 1300.05 L1601.48 1347.57 L1592.83 1347.57 L1571.76 1307.82 L1571.76 1347.57 L1565.52 1347.57 L1565.52 1300.05 Z" fill="#000000" fill-rule="nonzero" fill-opacity="1" /><polyline clip-path="url(#clip742)" style="stroke:#000000; stroke-linecap:round; stroke-linejoin:round; stroke-width:2; stroke-opacity:0.1; fill:none" points="455.755,1202.71 2132.28,1202.71 "/>
<polyline clip-path="url(#clip742)" style="stroke:#000000; stroke-linecap:round; stroke-linejoin:round; stroke-width:2; stroke-opacity:0.1; fill:none" points="455.755,1058.53 2132.28,1058.53 "/>
<polyline clip-path="url(#clip742)" style="stroke:#000000; stroke-linecap:round; stroke-linejoin:round; stroke-width:2; stroke-opacity:0.1; fill:none" points="455.755,914.355 2132.28,914.355 "/>
<polyline clip-path="url(#clip742)" style="stroke:#000000; stroke-linecap:round; stroke-linejoin:round; stroke-width:2; stroke-opacity:0.1; fill:none" points="455.755,770.178 2132.28,770.178 "/>
<polyline clip-path="url(#clip742)" style="stroke:#000000; stroke-linecap:round; stroke-linejoin:round; stroke-width:2; stroke-opacity:0.1; fill:none" points="455.755,626.002 2132.28,626.002 "/>
<polyline clip-path="url(#clip742)" style="stroke:#000000; stroke-linecap:round; stroke-linejoin:round; stroke-width:2; stroke-opacity:0.1; fill:none" points="455.755,481.825 2132.28,481.825 "/>
<polyline clip-path="url(#clip740)" style="stroke:#000000; stroke-linecap:round; stroke-linejoin:round; stroke-width:4; stroke-opacity:1; fill:none" points="455.755,1202.71 455.755,404.425 "/>
<polyline clip-path="url(#clip740)" style="stroke:#000000; stroke-linecap:round; stroke-linejoin:round; stroke-width:4; stroke-opacity:1; fill:none" points="455.755,1202.71 474.653,1202.71 "/>
<polyline clip-path="url(#clip740)" style="stroke:#000000; stroke-linecap:round; stroke-linejoin:round; stroke-width:4; stroke-opacity:1; fill:none" points="455.755,1058.53 474.653,1058.53 "/>
<polyline clip-path="url(#clip740)" style="stroke:#000000; stroke-linecap:round; stroke-linejoin:round; stroke-width:4; stroke-opacity:1; fill:none" points="455.755,914.355 474.653,914.355 "/>
<polyline clip-path="url(#clip740)" style="stroke:#000000; stroke-linecap:round; stroke-linejoin:round; stroke-width:4; stroke-opacity:1; fill:none" points="455.755,770.178 474.653,770.178 "/>
<polyline clip-path="url(#clip740)" style="stroke:#000000; stroke-linecap:round; stroke-linejoin:round; stroke-width:4; stroke-opacity:1; fill:none" points="455.755,626.002 474.653,626.002 "/>
<polyline clip-path="url(#clip740)" style="stroke:#000000; stroke-linecap:round; stroke-linejoin:round; stroke-width:4; stroke-opacity:1; fill:none" points="455.755,481.825 474.653,481.825 "/>
<path clip-path="url(#clip740)" d="M407.811 1188.51 Q404.2 1188.51 402.371 1192.07 Q400.566 1195.61 400.566 1202.74 Q400.566 1209.85 402.371 1213.41 Q404.2 1216.96 407.811 1216.96 Q411.445 1216.96 413.251 1213.41 Q415.079 1209.85 415.079 1202.74 Q415.079 1195.61 413.251 1192.07 Q411.445 1188.51 407.811 1188.51 M407.811 1184.8 Q413.621 1184.8 416.677 1189.41 Q419.755 1193.99 419.755 1202.74 Q419.755 1211.47 416.677 1216.08 Q413.621 1220.66 407.811 1220.66 Q402.001 1220.66 398.922 1216.08 Q395.867 1211.47 395.867 1202.74 Q395.867 1193.99 398.922 1189.41 Q402.001 1184.8 407.811 1184.8 Z" fill="#000000" fill-rule="nonzero" fill-opacity="1" /><path clip-path="url(#clip740)" d="M338.297 1071.88 L345.936 1071.88 L345.936 1045.51 L337.626 1047.18 L337.626 1042.92 L345.89 1041.25 L350.566 1041.25 L350.566 1071.88 L358.205 1071.88 L358.205 1075.81 L338.297 1075.81 L338.297 1071.88 Z" fill="#000000" fill-rule="nonzero" fill-opacity="1" /><path clip-path="url(#clip740)" d="M377.649 1044.33 Q374.038 1044.33 372.209 1047.89 Q370.404 1051.44 370.404 1058.57 Q370.404 1065.67 372.209 1069.24 Q374.038 1072.78 377.649 1072.78 Q381.283 1072.78 383.089 1069.24 Q384.918 1065.67 384.918 1058.57 Q384.918 1051.44 383.089 1047.89 Q381.283 1044.33 377.649 1044.33 M377.649 1040.63 Q383.459 1040.63 386.515 1045.23 Q389.593 1049.82 389.593 1058.57 Q389.593 1067.29 386.515 1071.9 Q383.459 1076.48 377.649 1076.48 Q371.839 1076.48 368.76 1071.9 Q365.705 1067.29 365.705 1058.57 Q365.705 1049.82 368.76 1045.23 Q371.839 1040.63 377.649 1040.63 Z" fill="#000000" fill-rule="nonzero" fill-opacity="1" /><path clip-path="url(#clip740)" d="M407.811 1044.33 Q404.2 1044.33 402.371 1047.89 Q400.566 1051.44 400.566 1058.57 Q400.566 1065.67 402.371 1069.24 Q404.2 1072.78 407.811 1072.78 Q411.445 1072.78 413.251 1069.24 Q415.079 1065.67 415.079 1058.57 Q415.079 1051.44 413.251 1047.89 Q411.445 1044.33 407.811 1044.33 M407.811 1040.63 Q413.621 1040.63 416.677 1045.23 Q419.755 1049.82 419.755 1058.57 Q419.755 1067.29 416.677 1071.9 Q413.621 1076.48 407.811 1076.48 Q402.001 1076.48 398.922 1071.9 Q395.867 1067.29 395.867 1058.57 Q395.867 1049.82 398.922 1045.23 Q402.001 1040.63 407.811 1040.63 Z" fill="#000000" fill-rule="nonzero" fill-opacity="1" /><path clip-path="url(#clip740)" d="M341.515 927.699 L357.834 927.699 L357.834 931.635 L335.89 931.635 L335.89 927.699 Q338.552 924.945 343.135 920.315 Q347.742 915.662 348.922 914.32 Q351.168 911.797 352.047 910.061 Q352.95 908.301 352.95 906.611 Q352.95 903.857 351.006 902.121 Q349.084 900.385 345.983 900.385 Q343.783 900.385 341.33 901.149 Q338.899 901.912 336.121 903.463 L336.121 898.741 Q338.946 897.607 341.399 897.028 Q343.853 896.45 345.89 896.45 Q351.26 896.45 354.455 899.135 Q357.649 901.82 357.649 906.311 Q357.649 908.44 356.839 910.361 Q356.052 912.26 353.945 914.852 Q353.367 915.523 350.265 918.741 Q347.163 921.935 341.515 927.699 Z" fill="#000000" fill-rule="nonzero" fill-opacity="1" /><path clip-path="url(#clip740)" d="M377.649 900.153 Q374.038 900.153 372.209 903.718 Q370.404 907.26 370.404 914.389 Q370.404 921.496 372.209 925.06 Q374.038 928.602 377.649 928.602 Q381.283 928.602 383.089 925.06 Q384.918 921.496 384.918 914.389 Q384.918 907.26 383.089 903.718 Q381.283 900.153 377.649 900.153 M377.649 896.45 Q383.459 896.45 386.515 901.056 Q389.593 905.639 389.593 914.389 Q389.593 923.116 386.515 927.722 Q383.459 932.306 377.649 932.306 Q371.839 932.306 368.76 927.722 Q365.705 923.116 365.705 914.389 Q365.705 905.639 368.76 901.056 Q371.839 896.45 377.649 896.45 Z" fill="#000000" fill-rule="nonzero" fill-opacity="1" /><path clip-path="url(#clip740)" d="M407.811 900.153 Q404.2 900.153 402.371 903.718 Q400.566 907.26 400.566 914.389 Q400.566 921.496 402.371 925.06 Q404.2 928.602 407.811 928.602 Q411.445 928.602 413.251 925.06 Q415.079 921.496 415.079 914.389 Q415.079 907.26 413.251 903.718 Q411.445 900.153 407.811 900.153 M407.811 896.45 Q413.621 896.45 416.677 901.056 Q419.755 905.639 419.755 914.389 Q419.755 923.116 416.677 927.722 Q413.621 932.306 407.811 932.306 Q402.001 932.306 398.922 927.722 Q395.867 923.116 395.867 914.389 Q395.867 905.639 398.922 901.056 Q402.001 896.45 407.811 896.45 Z" fill="#000000" fill-rule="nonzero" fill-opacity="1" /><path clip-path="url(#clip740)" d="M351.654 768.824 Q355.01 769.541 356.885 771.81 Q358.783 774.078 358.783 777.412 Q358.783 782.528 355.265 785.328 Q351.746 788.129 345.265 788.129 Q343.089 788.129 340.774 787.69 Q338.483 787.273 336.029 786.416 L336.029 781.903 Q337.973 783.037 340.288 783.615 Q342.603 784.194 345.126 784.194 Q349.524 784.194 351.816 782.458 Q354.131 780.722 354.131 777.412 Q354.131 774.356 351.978 772.643 Q349.848 770.907 346.029 770.907 L342.001 770.907 L342.001 767.065 L346.214 767.065 Q349.663 767.065 351.492 765.699 Q353.32 764.31 353.32 761.717 Q353.32 759.055 351.422 757.643 Q349.547 756.208 346.029 756.208 Q344.108 756.208 341.908 756.625 Q339.709 757.042 337.071 757.921 L337.071 753.755 Q339.733 753.014 342.047 752.643 Q344.385 752.273 346.445 752.273 Q351.77 752.273 354.871 754.704 Q357.973 757.111 357.973 761.231 Q357.973 764.102 356.33 766.092 Q354.686 768.06 351.654 768.824 Z" fill="#000000" fill-rule="nonzero" fill-opacity="1" /><path clip-path="url(#clip740)" d="M377.649 755.977 Q374.038 755.977 372.209 759.542 Q370.404 763.083 370.404 770.213 Q370.404 777.319 372.209 780.884 Q374.038 784.426 377.649 784.426 Q381.283 784.426 383.089 780.884 Q384.918 777.319 384.918 770.213 Q384.918 763.083 383.089 759.542 Q381.283 755.977 377.649 755.977 M377.649 752.273 Q383.459 752.273 386.515 756.88 Q389.593 761.463 389.593 770.213 Q389.593 778.94 386.515 783.546 Q383.459 788.129 377.649 788.129 Q371.839 788.129 368.76 783.546 Q365.705 778.94 365.705 770.213 Q365.705 761.463 368.76 756.88 Q371.839 752.273 377.649 752.273 Z" fill="#000000" fill-rule="nonzero" fill-opacity="1" /><path clip-path="url(#clip740)" d="M407.811 755.977 Q404.2 755.977 402.371 759.542 Q400.566 763.083 400.566 770.213 Q400.566 777.319 402.371 780.884 Q404.2 784.426 407.811 784.426 Q411.445 784.426 413.251 780.884 Q415.079 777.319 415.079 770.213 Q415.079 763.083 413.251 759.542 Q411.445 755.977 407.811 755.977 M407.811 752.273 Q413.621 752.273 416.677 756.88 Q419.755 761.463 419.755 770.213 Q419.755 778.94 416.677 783.546 Q413.621 788.129 407.811 788.129 Q402.001 788.129 398.922 783.546 Q395.867 778.94 395.867 770.213 Q395.867 761.463 398.922 756.88 Q402.001 752.273 407.811 752.273 Z" fill="#000000" fill-rule="nonzero" fill-opacity="1" /><path clip-path="url(#clip740)" d="M350.334 612.796 L338.529 631.245 L350.334 631.245 L350.334 612.796 M349.108 608.722 L354.987 608.722 L354.987 631.245 L359.918 631.245 L359.918 635.133 L354.987 635.133 L354.987 643.282 L350.334 643.282 L350.334 635.133 L334.733 635.133 L334.733 630.62 L349.108 608.722 Z" fill="#000000" fill-rule="nonzero" fill-opacity="1" /><path clip-path="url(#clip740)" d="M377.649 611.8 Q374.038 611.8 372.209 615.365 Q370.404 618.907 370.404 626.036 Q370.404 633.143 372.209 636.708 Q374.038 640.249 377.649 640.249 Q381.283 640.249 383.089 636.708 Q384.918 633.143 384.918 626.036 Q384.918 618.907 383.089 615.365 Q381.283 611.8 377.649 611.8 M377.649 608.097 Q383.459 608.097 386.515 612.703 Q389.593 617.286 389.593 626.036 Q389.593 634.763 386.515 639.37 Q383.459 643.953 377.649 643.953 Q371.839 643.953 368.76 639.37 Q365.705 634.763 365.705 626.036 Q365.705 617.286 368.76 612.703 Q371.839 608.097 377.649 608.097 Z" fill="#000000" fill-rule="nonzero" fill-opacity="1" /><path clip-path="url(#clip740)" d="M407.811 611.8 Q404.2 611.8 402.371 615.365 Q400.566 618.907 400.566 626.036 Q400.566 633.143 402.371 636.708 Q404.2 640.249 407.811 640.249 Q411.445 640.249 413.251 636.708 Q415.079 633.143 415.079 626.036 Q415.079 618.907 413.251 615.365 Q411.445 611.8 407.811 611.8 M407.811 608.097 Q413.621 608.097 416.677 612.703 Q419.755 617.286 419.755 626.036 Q419.755 634.763 416.677 639.37 Q413.621 643.953 407.811 643.953 Q402.001 643.953 398.922 639.37 Q395.867 634.763 395.867 626.036 Q395.867 617.286 398.922 612.703 Q402.001 608.097 407.811 608.097 Z" fill="#000000" fill-rule="nonzero" fill-opacity="1" /><path clip-path="url(#clip740)" d="M337.534 464.545 L355.89 464.545 L355.89 468.48 L341.816 468.48 L341.816 476.952 Q342.834 476.605 343.853 476.443 Q344.871 476.258 345.89 476.258 Q351.677 476.258 355.057 479.429 Q358.436 482.601 358.436 488.017 Q358.436 493.596 354.964 496.698 Q351.492 499.776 345.172 499.776 Q342.996 499.776 340.728 499.406 Q338.483 499.036 336.075 498.295 L336.075 493.596 Q338.159 494.73 340.381 495.286 Q342.603 495.841 345.08 495.841 Q349.084 495.841 351.422 493.735 Q353.76 491.628 353.76 488.017 Q353.76 484.406 351.422 482.3 Q349.084 480.193 345.08 480.193 Q343.205 480.193 341.33 480.61 Q339.478 481.027 337.534 481.906 L337.534 464.545 Z" fill="#000000" fill-rule="nonzero" fill-opacity="1" /><path clip-path="url(#clip740)" d="M377.649 467.624 Q374.038 467.624 372.209 471.189 Q370.404 474.73 370.404 481.86 Q370.404 488.966 372.209 492.531 Q374.038 496.073 377.649 496.073 Q381.283 496.073 383.089 492.531 Q384.918 488.966 384.918 481.86 Q384.918 474.73 383.089 471.189 Q381.283 467.624 377.649 467.624 M377.649 463.92 Q383.459 463.92 386.515 468.527 Q389.593 473.11 389.593 481.86 Q389.593 490.587 386.515 495.193 Q383.459 499.776 377.649 499.776 Q371.839 499.776 368.76 495.193 Q365.705 490.587 365.705 481.86 Q365.705 473.11 368.76 468.527 Q371.839 463.92 377.649 463.92 Z" fill="#000000" fill-rule="nonzero" fill-opacity="1" /><path clip-path="url(#clip740)" d="M407.811 467.624 Q404.2 467.624 402.371 471.189 Q400.566 474.73 400.566 481.86 Q400.566 488.966 402.371 492.531 Q404.2 496.073 407.811 496.073 Q411.445 496.073 413.251 492.531 Q415.079 488.966 415.079 481.86 Q415.079 474.73 413.251 471.189 Q411.445 467.624 407.811 467.624 M407.811 463.92 Q413.621 463.92 416.677 468.527 Q419.755 473.11 419.755 481.86 Q419.755 490.587 416.677 495.193 Q413.621 499.776 407.811 499.776 Q402.001 499.776 398.922 495.193 Q395.867 490.587 395.867 481.86 Q395.867 473.11 398.922 468.527 Q402.001 463.92 407.811 463.92 Z" fill="#000000" fill-rule="nonzero" fill-opacity="1" /><path clip-path="url(#clip740)" d="M240.617 995.397 L247.396 995.397 Q244.373 998.643 242.877 1002.34 Q241.381 1006 241.381 1010.13 Q241.381 1018.28 246.378 1022.61 Q251.343 1026.94 260.764 1026.94 Q270.154 1026.94 275.151 1022.61 Q280.116 1018.28 280.116 1010.13 Q280.116 1006 278.62 1002.34 Q277.124 998.643 274.1 995.397 L280.816 995.397 Q283.108 998.77 284.254 1002.56 Q285.4 1006.31 285.4 1010.52 Q285.4 1021.3 278.811 1027.51 Q272.191 1033.72 260.764 1033.72 Q249.306 1033.72 242.718 1027.51 Q236.097 1021.3 236.097 1010.52 Q236.097 1006.25 237.243 1002.49 Q238.357 998.707 240.617 995.397 Z" fill="#000000" fill-rule="nonzero" fill-opacity="1" /><path clip-path="url(#clip740)" d="M242.24 979.037 L260.096 979.037 L260.096 970.952 Q260.096 966.464 257.772 964.014 Q255.449 961.563 251.152 961.563 Q246.887 961.563 244.564 964.014 Q242.24 966.464 242.24 970.952 L242.24 979.037 M236.957 985.466 L236.957 970.952 Q236.957 962.963 240.585 958.889 Q244.182 954.783 251.152 954.783 Q258.186 954.783 261.783 958.889 Q265.379 962.963 265.379 970.952 L265.379 979.037 L284.477 979.037 L284.477 985.466 L236.957 985.466 Z" fill="#000000" fill-rule="nonzero" fill-opacity="1" /><path clip-path="url(#clip740)" d="M236.957 946.89 L236.957 940.429 L265.825 940.429 Q273.464 940.429 276.838 937.66 Q280.18 934.891 280.18 928.684 Q280.18 922.509 276.838 919.74 Q273.464 916.971 265.825 916.971 L236.957 916.971 L236.957 910.51 L266.621 910.51 Q275.915 910.51 280.657 915.125 Q285.4 919.708 285.4 928.684 Q285.4 937.691 280.657 942.307 Q275.915 946.89 266.621 946.89 L236.957 946.89 Z" fill="#000000" fill-rule="nonzero" fill-opacity="1" /><path clip-path="url(#clip740)" d="M238.707 872.188 L248.829 872.188 L248.829 860.125 L253.38 860.125 L253.38 872.188 L272.732 872.188 Q277.092 872.188 278.334 871.011 Q279.575 869.801 279.575 866.141 L279.575 860.125 L284.477 860.125 L284.477 866.141 Q284.477 872.92 281.962 875.498 Q279.416 878.077 272.732 878.077 L253.38 878.077 L253.38 882.373 L248.829 882.373 L248.829 878.077 L238.707 878.077 L238.707 872.188 Z" fill="#000000" fill-rule="nonzero" fill-opacity="1" /><path clip-path="url(#clip740)" d="M248.829 852.423 L248.829 846.566 L284.477 846.566 L284.477 852.423 L248.829 852.423 M234.951 852.423 L234.951 846.566 L242.367 846.566 L242.367 852.423 L234.951 852.423 Z" fill="#000000" fill-rule="nonzero" fill-opacity="1" /><path clip-path="url(#clip740)" d="M255.672 806.558 Q251.725 804.362 249.847 801.306 Q247.969 798.251 247.969 794.113 Q247.969 788.543 251.884 785.519 Q255.767 782.495 262.961 782.495 L284.477 782.495 L284.477 788.384 L263.151 788.384 Q258.027 788.384 255.544 790.198 Q253.062 792.012 253.062 795.736 Q253.062 800.288 256.086 802.929 Q259.109 805.571 264.329 805.571 L284.477 805.571 L284.477 811.459 L263.151 811.459 Q257.995 811.459 255.544 813.274 Q253.062 815.088 253.062 818.876 Q253.062 823.363 256.117 826.005 Q259.141 828.647 264.329 828.647 L284.477 828.647 L284.477 834.535 L248.829 834.535 L248.829 828.647 L254.367 828.647 Q251.088 826.642 249.529 823.841 Q247.969 821.04 247.969 817.189 Q247.969 813.306 249.943 810.6 Q251.916 807.863 255.672 806.558 Z" fill="#000000" fill-rule="nonzero" fill-opacity="1" /><path clip-path="url(#clip740)" d="M265.189 740.323 L268.053 740.323 L268.053 767.25 Q274.1 766.868 277.283 763.621 Q280.434 760.343 280.434 754.518 Q280.434 751.144 279.607 747.993 Q278.779 744.811 277.124 741.691 L282.662 741.691 Q283.999 744.842 284.699 748.153 Q285.4 751.463 285.4 754.868 Q285.4 763.398 280.434 768.395 Q275.469 773.361 267.003 773.361 Q258.25 773.361 253.125 768.65 Q247.969 763.908 247.969 755.887 Q247.969 748.694 252.616 744.524 Q257.231 740.323 265.189 740.323 M263.47 746.179 Q258.664 746.243 255.799 748.885 Q252.935 751.495 252.935 755.823 Q252.935 760.725 255.704 763.685 Q258.473 766.613 263.502 767.059 L263.47 746.179 Z" fill="#000000" fill-rule="nonzero" fill-opacity="1" /><path clip-path="url(#clip740)" d="M235.015 695.922 Q242.336 700.187 249.497 702.256 Q256.658 704.325 264.011 704.325 Q271.363 704.325 278.588 702.256 Q285.782 700.155 293.07 695.922 L293.07 701.014 Q285.591 705.789 278.366 708.176 Q271.14 710.531 264.011 710.531 Q256.913 710.531 249.72 708.176 Q242.527 705.821 235.015 701.014 L235.015 695.922 Z" fill="#000000" fill-rule="nonzero" fill-opacity="1" /><path clip-path="url(#clip740)" d="M255.672 656.805 Q251.725 654.608 249.847 651.553 Q247.969 648.497 247.969 644.36 Q247.969 638.79 251.884 635.766 Q255.767 632.742 262.961 632.742 L284.477 632.742 L284.477 638.631 L263.151 638.631 Q258.027 638.631 255.544 640.445 Q253.062 642.259 253.062 645.983 Q253.062 650.534 256.086 653.176 Q259.109 655.818 264.329 655.818 L284.477 655.818 L284.477 661.706 L263.151 661.706 Q257.995 661.706 255.544 663.52 Q253.062 665.335 253.062 669.122 Q253.062 673.61 256.117 676.252 Q259.141 678.894 264.329 678.894 L284.477 678.894 L284.477 684.782 L248.829 684.782 L248.829 678.894 L254.367 678.894 Q251.088 676.888 249.529 674.088 Q247.969 671.287 247.969 667.435 Q247.969 663.552 249.943 660.847 Q251.916 658.11 255.672 656.805 Z" fill="#000000" fill-rule="nonzero" fill-opacity="1" /><path clip-path="url(#clip740)" d="M249.879 598.336 L255.417 598.336 Q254.144 600.818 253.507 603.492 Q252.871 606.165 252.871 609.03 Q252.871 613.39 254.208 615.587 Q255.544 617.751 258.218 617.751 Q260.255 617.751 261.433 616.191 Q262.579 614.632 263.629 609.921 L264.075 607.916 Q265.411 601.678 267.862 599.068 Q270.281 596.426 274.642 596.426 Q279.607 596.426 282.503 600.373 Q285.4 604.288 285.4 611.163 Q285.4 614.027 284.827 617.146 Q284.286 620.234 283.172 623.671 L277.124 623.671 Q278.811 620.425 279.67 617.274 Q280.498 614.123 280.498 611.035 Q280.498 606.897 279.098 604.669 Q277.665 602.441 275.087 602.441 Q272.7 602.441 271.427 604.065 Q270.154 605.656 268.976 611.099 L268.499 613.136 Q267.353 618.579 264.998 620.998 Q262.61 623.416 258.473 623.416 Q253.444 623.416 250.707 619.852 Q247.969 616.287 247.969 609.73 Q247.969 606.484 248.447 603.619 Q248.924 600.755 249.879 598.336 Z" fill="#000000" fill-rule="nonzero" fill-opacity="1" /><path clip-path="url(#clip740)" d="M235.015 588.023 L235.015 582.931 Q242.527 578.156 249.72 575.801 Q256.913 573.414 264.011 573.414 Q271.14 573.414 278.366 575.801 Q285.591 578.156 293.07 582.931 L293.07 588.023 Q285.782 583.79 278.588 581.721 Q271.363 579.62 264.011 579.62 Q256.658 579.62 249.497 581.721 Q242.336 583.79 235.015 588.023 Z" fill="#000000" fill-rule="nonzero" fill-opacity="1" /><path clip-path="url(#clip740)" d="M1051.21 64.8611 L1051.21 87.0195 L1064.33 87.0195 Q1070.94 87.0195 1074.1 84.3054 Q1077.3 81.5508 1077.3 75.92 Q1077.3 70.2488 1074.1 67.5752 Q1070.94 64.8611 1064.33 64.8611 L1051.21 64.8611 M1051.21 39.9885 L1051.21 58.2176 L1063.32 58.2176 Q1069.32 58.2176 1072.23 55.9896 Q1075.19 53.7211 1075.19 49.103 Q1075.19 44.5255 1072.23 42.257 Q1069.32 39.9885 1063.32 39.9885 L1051.21 39.9885 M1043.03 33.264 L1063.93 33.264 Q1073.29 33.264 1078.35 37.1529 Q1083.41 41.0417 1083.41 48.2118 Q1083.41 53.7616 1080.82 57.0428 Q1078.23 60.324 1073.2 61.1342 Q1079.24 62.4305 1082.56 66.5624 Q1085.92 70.6538 1085.92 76.8112 Q1085.92 84.913 1080.42 89.3285 Q1074.91 93.744 1064.74 93.744 L1043.03 93.744 L1043.03 33.264 Z" fill="#000000" fill-rule="nonzero" fill-opacity="1" /><path clip-path="url(#clip740)" d="M1120.24 70.9374 Q1111.2 70.9374 1107.72 73.0034 Q1104.23 75.0693 1104.23 80.0519 Q1104.23 84.0218 1106.83 86.3714 Q1109.46 88.6804 1113.96 88.6804 Q1120.15 88.6804 1123.88 84.3054 Q1127.65 79.8899 1127.65 72.5983 L1127.65 70.9374 L1120.24 70.9374 M1135.1 67.8587 L1135.1 93.744 L1127.65 93.744 L1127.65 86.8575 Q1125.1 90.9894 1121.29 92.9743 Q1117.48 94.9188 1111.97 94.9188 Q1105 94.9188 1100.87 91.0299 Q1096.78 87.1005 1096.78 80.5381 Q1096.78 72.8818 1101.88 68.993 Q1107.03 65.1041 1117.2 65.1041 L1127.65 65.1041 L1127.65 64.3749 Q1127.65 59.2303 1124.25 56.4352 Q1120.88 53.5995 1114.77 53.5995 Q1110.88 53.5995 1107.19 54.5312 Q1103.51 55.463 1100.1 57.3264 L1100.1 50.4398 Q1104.19 48.86 1108.04 48.0903 Q1111.89 47.2801 1115.54 47.2801 Q1125.38 47.2801 1130.24 52.3843 Q1135.1 57.4884 1135.1 67.8587 Z" fill="#000000" fill-rule="nonzero" fill-opacity="1" /><path clip-path="url(#clip740)" d="M1149.69 75.839 L1149.69 48.3739 L1157.14 48.3739 L1157.14 75.5554 Q1157.14 81.9964 1159.65 85.2371 Q1162.16 88.4373 1167.19 88.4373 Q1173.22 88.4373 1176.71 84.589 Q1180.23 80.7406 1180.23 74.0971 L1180.23 48.3739 L1187.68 48.3739 L1187.68 93.744 L1180.23 93.744 L1180.23 86.7764 Q1177.52 90.9084 1173.91 92.9338 Q1170.35 94.9188 1165.61 94.9188 Q1157.79 94.9188 1153.74 90.0577 Q1149.69 85.1966 1149.69 75.839 M1168.44 47.2801 L1168.44 47.2801 Z" fill="#000000" fill-rule="nonzero" fill-opacity="1" /><path clip-path="url(#clip740)" d="M1238.36 57.0833 Q1241.16 52.0602 1245.04 49.6702 Q1248.93 47.2801 1254.2 47.2801 Q1261.29 47.2801 1265.14 52.2627 Q1268.98 57.2048 1268.98 66.3599 L1268.98 93.744 L1261.49 93.744 L1261.49 66.6029 Q1261.49 60.081 1259.18 56.9213 Q1256.87 53.7616 1252.13 53.7616 Q1246.34 53.7616 1242.98 57.6099 Q1239.62 61.4583 1239.62 68.1018 L1239.62 93.744 L1232.12 93.744 L1232.12 66.6029 Q1232.12 60.0405 1229.81 56.9213 Q1227.5 53.7616 1222.68 53.7616 Q1216.97 53.7616 1213.61 57.6504 Q1210.25 61.4988 1210.25 68.1018 L1210.25 93.744 L1202.75 93.744 L1202.75 48.3739 L1210.25 48.3739 L1210.25 55.4224 Q1212.8 51.25 1216.36 49.2651 Q1219.93 47.2801 1224.83 47.2801 Q1229.77 47.2801 1233.22 49.7917 Q1236.7 52.3032 1238.36 57.0833 Z" fill="#000000" fill-rule="nonzero" fill-opacity="1" /><path clip-path="url(#clip740)" d="M1280.08 67.6967 L1301.92 67.6967 L1301.92 74.3402 L1280.08 74.3402 L1280.08 67.6967 Z" fill="#000000" fill-rule="nonzero" fill-opacity="1" /><path clip-path="url(#clip740)" d="M1305.36 33.264 L1313.63 33.264 L1326.35 84.3864 L1339.02 33.264 L1348.22 33.264 L1360.94 84.3864 L1373.62 33.264 L1381.92 33.264 L1366.73 93.744 L1356.44 93.744 L1343.68 41.2443 L1330.8 93.744 L1320.51 93.744 L1305.36 33.264 Z" fill="#000000" fill-rule="nonzero" fill-opacity="1" /><path clip-path="url(#clip740)" d="M1426.4 69.1955 L1426.4 72.8413 L1392.13 72.8413 Q1392.62 80.5381 1396.75 84.589 Q1400.92 88.5994 1408.34 88.5994 Q1412.63 88.5994 1416.64 87.5461 Q1420.69 86.4929 1424.66 84.3864 L1424.66 91.435 Q1420.65 93.1364 1416.44 94.0276 Q1412.22 94.9188 1407.89 94.9188 Q1397.03 94.9188 1390.67 88.5994 Q1384.35 82.2799 1384.35 71.5045 Q1384.35 60.3645 1390.35 53.8426 Q1396.39 47.2801 1406.59 47.2801 Q1415.75 47.2801 1421.06 53.1944 Q1426.4 59.0683 1426.4 69.1955 M1418.95 67.008 Q1418.87 60.8912 1415.51 57.2454 Q1412.18 53.5995 1406.68 53.5995 Q1400.44 53.5995 1396.67 57.1238 Q1392.94 60.6481 1392.38 67.0485 L1418.95 67.008 Z" fill="#000000" fill-rule="nonzero" fill-opacity="1" /><path clip-path="url(#clip740)" d="M1438.64 30.7119 L1446.09 30.7119 L1446.09 93.744 L1438.64 93.744 L1438.64 30.7119 Z" fill="#000000" fill-rule="nonzero" fill-opacity="1" /><path clip-path="url(#clip740)" d="M1494.34 50.1158 L1494.34 57.0833 Q1491.18 55.3414 1487.98 54.4907 Q1484.82 53.5995 1481.58 53.5995 Q1474.33 53.5995 1470.31 58.2176 Q1466.3 62.7951 1466.3 71.0994 Q1466.3 79.4038 1470.31 84.0218 Q1474.33 88.5994 1481.58 88.5994 Q1484.82 88.5994 1487.98 87.7487 Q1491.18 86.8575 1494.34 85.1156 L1494.34 92.0021 Q1491.22 93.4604 1487.86 94.1896 Q1484.53 94.9188 1480.77 94.9188 Q1470.52 94.9188 1464.48 88.4778 Q1458.45 82.0369 1458.45 71.0994 Q1458.45 60 1464.52 53.64 Q1470.64 47.2801 1481.25 47.2801 Q1484.7 47.2801 1487.98 48.0093 Q1491.26 48.6979 1494.34 50.1158 Z" fill="#000000" fill-rule="nonzero" fill-opacity="1" /><path clip-path="url(#clip740)" d="M1545.01 66.3599 L1545.01 93.744 L1537.56 93.744 L1537.56 66.6029 Q1537.56 60.162 1535.05 56.9618 Q1532.54 53.7616 1527.51 53.7616 Q1521.48 53.7616 1517.99 57.6099 Q1514.51 61.4583 1514.51 68.1018 L1514.51 93.744 L1507.02 93.744 L1507.02 30.7119 L1514.51 30.7119 L1514.51 55.4224 Q1517.18 51.331 1520.79 49.3056 Q1524.43 47.2801 1529.17 47.2801 Q1536.99 47.2801 1541 52.1412 Q1545.01 56.9618 1545.01 66.3599 Z" fill="#000000" fill-rule="nonzero" fill-opacity="1" /><path clip-path="url(#clip740)" d="M774.552 121.513 Q769.123 130.83 766.49 139.945 Q763.857 149.059 763.857 158.417 Q763.857 167.774 766.49 176.97 Q769.164 186.125 774.552 195.401 L768.07 195.401 Q761.994 185.882 758.956 176.686 Q755.958 167.491 755.958 158.417 Q755.958 149.383 758.956 140.228 Q761.953 131.073 768.07 121.513 L774.552 121.513 Z" fill="#000000" fill-rule="nonzero" fill-opacity="1" /><path clip-path="url(#clip740)" d="M797.52 130.709 L797.52 177.739 L807.405 177.739 Q819.922 177.739 825.715 172.068 Q831.548 166.397 831.548 154.163 Q831.548 142.011 825.715 136.38 Q819.922 130.709 807.405 130.709 L797.52 130.709 M789.337 123.984 L806.149 123.984 Q823.73 123.984 831.953 131.316 Q840.176 138.608 840.176 154.163 Q840.176 169.8 831.912 177.132 Q823.649 184.464 806.149 184.464 L789.337 184.464 L789.337 123.984 Z" fill="#000000" fill-rule="nonzero" fill-opacity="1" /><path clip-path="url(#clip740)" d="M853.868 146.791 L905.801 146.791 L905.801 153.596 L853.868 153.596 L853.868 146.791 M853.868 163.318 L905.801 163.318 L905.801 170.205 L853.868 170.205 L853.868 163.318 Z" fill="#000000" fill-rule="nonzero" fill-opacity="1" /><path clip-path="url(#clip740)" d="M924.881 177.577 L938.249 177.577 L938.249 131.438 L923.706 134.354 L923.706 126.901 L938.168 123.984 L946.351 123.984 L946.351 177.577 L959.719 177.577 L959.719 184.464 L924.881 184.464 L924.881 177.577 Z" fill="#000000" fill-rule="nonzero" fill-opacity="1" /><path clip-path="url(#clip740)" d="M993.746 129.372 Q987.427 129.372 984.226 135.61 Q981.067 141.808 981.067 154.285 Q981.067 166.721 984.226 172.959 Q987.427 179.157 993.746 179.157 Q1000.11 179.157 1003.27 172.959 Q1006.47 166.721 1006.47 154.285 Q1006.47 141.808 1003.27 135.61 Q1000.11 129.372 993.746 129.372 M993.746 122.89 Q1003.91 122.89 1009.26 130.952 Q1014.65 138.972 1014.65 154.285 Q1014.65 169.557 1009.26 177.618 Q1003.91 185.639 993.746 185.639 Q983.578 185.639 978.191 177.618 Q972.843 169.557 972.843 154.285 Q972.843 138.972 978.191 130.952 Q983.578 122.89 993.746 122.89 Z" fill="#000000" fill-rule="nonzero" fill-opacity="1" /><path clip-path="url(#clip740)" d="M1029.88 174.175 L1038.43 174.175 L1038.43 181.142 L1031.78 194.105 L1026.56 194.105 L1029.88 181.142 L1029.88 174.175 Z" fill="#000000" fill-rule="nonzero" fill-opacity="1" /><path clip-path="url(#clip740)" d="M1046.29 123.984 L1097.45 123.984 L1097.45 130.871 L1075.98 130.871 L1075.98 184.464 L1067.76 184.464 L1067.76 130.871 L1046.29 130.871 L1046.29 123.984 Z" fill="#000000" fill-rule="nonzero" fill-opacity="1" /><path clip-path="url(#clip740)" d="M1106 146.791 L1157.93 146.791 L1157.93 153.596 L1106 153.596 L1106 146.791 M1106 163.318 L1157.93 163.318 L1157.93 170.205 L1106 170.205 L1106 163.318 Z" fill="#000000" fill-rule="nonzero" fill-opacity="1" /><path clip-path="url(#clip740)" d="M1182.64 177.577 L1211.2 177.577 L1211.2 184.464 L1172.8 184.464 L1172.8 177.577 Q1177.45 172.757 1185.48 164.655 Q1193.54 156.513 1195.6 154.163 Q1199.53 149.748 1201.07 146.71 Q1202.65 143.631 1202.65 140.674 Q1202.65 135.853 1199.25 132.815 Q1195.89 129.777 1190.46 129.777 Q1186.61 129.777 1182.32 131.114 Q1178.06 132.45 1173.2 135.164 L1173.2 126.901 Q1178.14 124.916 1182.44 123.903 Q1186.73 122.89 1190.3 122.89 Q1199.69 122.89 1205.28 127.589 Q1210.87 132.288 1210.87 140.147 Q1210.87 143.874 1209.46 147.236 Q1208.08 150.558 1204.39 155.095 Q1203.38 156.27 1197.95 161.9 Q1192.52 167.491 1182.64 177.577 Z" fill="#000000" fill-rule="nonzero" fill-opacity="1" /><path clip-path="url(#clip740)" d="M1245.87 129.372 Q1239.55 129.372 1236.35 135.61 Q1233.2 141.808 1233.2 154.285 Q1233.2 166.721 1236.35 172.959 Q1239.55 179.157 1245.87 179.157 Q1252.23 179.157 1255.39 172.959 Q1258.59 166.721 1258.59 154.285 Q1258.59 141.808 1255.39 135.61 Q1252.23 129.372 1245.87 129.372 M1245.87 122.89 Q1256.04 122.89 1261.39 130.952 Q1266.78 138.972 1266.78 154.285 Q1266.78 169.557 1261.39 177.618 Q1256.04 185.639 1245.87 185.639 Q1235.71 185.639 1230.32 177.618 Q1224.97 169.557 1224.97 154.285 Q1224.97 138.972 1230.32 130.952 Q1235.71 122.89 1245.87 122.89 Z" fill="#000000" fill-rule="nonzero" fill-opacity="1" /><path clip-path="url(#clip740)" d="M1298.66 129.372 Q1292.34 129.372 1289.14 135.61 Q1285.98 141.808 1285.98 154.285 Q1285.98 166.721 1289.14 172.959 Q1292.34 179.157 1298.66 179.157 Q1305.02 179.157 1308.18 172.959 Q1311.38 166.721 1311.38 154.285 Q1311.38 141.808 1308.18 135.61 Q1305.02 129.372 1298.66 129.372 M1298.66 122.89 Q1308.83 122.89 1314.17 130.952 Q1319.56 138.972 1319.56 154.285 Q1319.56 169.557 1314.17 177.618 Q1308.83 185.639 1298.66 185.639 Q1288.49 185.639 1283.1 177.618 Q1277.75 169.557 1277.75 154.285 Q1277.75 138.972 1283.1 130.952 Q1288.49 122.89 1298.66 122.89 Z" fill="#000000" fill-rule="nonzero" fill-opacity="1" /><path clip-path="url(#clip740)" d="M1334.79 174.175 L1343.34 174.175 L1343.34 181.142 L1336.7 194.105 L1331.47 194.105 L1334.79 181.142 L1334.79 174.175 Z" fill="#000000" fill-rule="nonzero" fill-opacity="1" /><path clip-path="url(#clip740)" d="M1359.58 123.984 L1367.77 123.984 L1367.77 149.545 L1394.91 123.984 L1405.44 123.984 L1375.42 152.178 L1407.59 184.464 L1396.81 184.464 L1367.77 155.338 L1367.77 184.464 L1359.58 184.464 L1359.58 123.984 Z" fill="#000000" fill-rule="nonzero" fill-opacity="1" /><path clip-path="url(#clip740)" d="M1414.64 146.791 L1466.57 146.791 L1466.57 153.596 L1414.64 153.596 L1414.64 146.791 M1414.64 163.318 L1466.57 163.318 L1466.57 170.205 L1414.64 170.205 L1414.64 163.318 Z" fill="#000000" fill-rule="nonzero" fill-opacity="1" /><path clip-path="url(#clip740)" d="M1484.31 123.984 L1516.43 123.984 L1516.43 130.871 L1491.8 130.871 L1491.8 145.697 Q1493.59 145.089 1495.37 144.806 Q1497.15 144.482 1498.93 144.482 Q1509.06 144.482 1514.98 150.031 Q1520.89 155.581 1520.89 165.06 Q1520.89 174.823 1514.81 180.251 Q1508.74 185.639 1497.68 185.639 Q1493.87 185.639 1489.9 184.991 Q1485.97 184.342 1481.76 183.046 L1481.76 174.823 Q1485.4 176.808 1489.29 177.78 Q1493.18 178.752 1497.52 178.752 Q1504.52 178.752 1508.62 175.066 Q1512.71 171.38 1512.71 165.06 Q1512.71 158.741 1508.62 155.054 Q1504.52 151.368 1497.52 151.368 Q1494.24 151.368 1490.95 152.097 Q1487.71 152.826 1484.31 154.366 L1484.31 123.984 Z" fill="#000000" fill-rule="nonzero" fill-opacity="1" /><path clip-path="url(#clip740)" d="M1554.51 129.372 Q1548.19 129.372 1544.99 135.61 Q1541.83 141.808 1541.83 154.285 Q1541.83 166.721 1544.99 172.959 Q1548.19 179.157 1554.51 179.157 Q1560.87 179.157 1564.03 172.959 Q1567.23 166.721 1567.23 154.285 Q1567.23 141.808 1564.03 135.61 Q1560.87 129.372 1554.51 129.372 M1554.51 122.89 Q1564.68 122.89 1570.03 130.952 Q1575.42 138.972 1575.42 154.285 Q1575.42 169.557 1570.03 177.618 Q1564.68 185.639 1554.51 185.639 Q1544.35 185.639 1538.96 177.618 Q1533.61 169.557 1533.61 154.285 Q1533.61 138.972 1538.96 130.952 Q1544.35 122.89 1554.51 122.89 Z" fill="#000000" fill-rule="nonzero" fill-opacity="1" /><path clip-path="url(#clip740)" d="M1590.65 174.175 L1599.19 174.175 L1599.19 181.142 L1592.55 194.105 L1587.33 194.105 L1590.65 181.142 L1590.65 174.175 Z" fill="#000000" fill-rule="nonzero" fill-opacity="1" /><path clip-path="url(#clip740)" d="M1615.44 123.984 L1623.62 123.984 L1623.62 184.464 L1615.44 184.464 L1615.44 123.984 Z" fill="#000000" fill-rule="nonzero" fill-opacity="1" /><path clip-path="url(#clip740)" d="M1640.55 146.791 L1692.49 146.791 L1692.49 153.596 L1640.55 153.596 L1640.55 146.791 M1640.55 163.318 L1692.49 163.318 L1692.49 170.205 L1640.55 170.205 L1640.55 163.318 Z" fill="#000000" fill-rule="nonzero" fill-opacity="1" /><path clip-path="url(#clip740)" d="M1711.57 177.577 L1724.93 177.577 L1724.93 131.438 L1710.39 134.354 L1710.39 126.901 L1724.85 123.984 L1733.04 123.984 L1733.04 177.577 L1746.4 177.577 L1746.4 184.464 L1711.57 184.464 L1711.57 177.577 Z" fill="#000000" fill-rule="nonzero" fill-opacity="1" /><path clip-path="url(#clip740)" d="M1780.43 129.372 Q1774.11 129.372 1770.91 135.61 Q1767.75 141.808 1767.75 154.285 Q1767.75 166.721 1770.91 172.959 Q1774.11 179.157 1780.43 179.157 Q1786.79 179.157 1789.95 172.959 Q1793.15 166.721 1793.15 154.285 Q1793.15 141.808 1789.95 135.61 Q1786.79 129.372 1780.43 129.372 M1780.43 122.89 Q1790.6 122.89 1795.95 130.952 Q1801.33 138.972 1801.33 154.285 Q1801.33 169.557 1795.95 177.618 Q1790.6 185.639 1780.43 185.639 Q1770.26 185.639 1764.88 177.618 Q1759.53 169.557 1759.53 154.285 Q1759.53 138.972 1764.88 130.952 Q1770.26 122.89 1780.43 122.89 Z" fill="#000000" fill-rule="nonzero" fill-opacity="1" /><path clip-path="url(#clip740)" d="M1813.49 121.513 L1819.97 121.513 Q1826.04 131.073 1829.04 140.228 Q1832.08 149.383 1832.08 158.417 Q1832.08 167.491 1829.04 176.686 Q1826.04 185.882 1819.97 195.401 L1813.49 195.401 Q1818.87 186.125 1821.51 176.97 Q1824.18 167.774 1824.18 158.417 Q1824.18 149.059 1821.51 139.945 Q1818.87 130.83 1813.49 121.513 Z" fill="#000000" fill-rule="nonzero" fill-opacity="1" /><polyline clip-path="url(#clip742)" style="stroke:#0000ff; stroke-linecap:round; stroke-linejoin:round; stroke-width:6; stroke-opacity:1; fill:none" points="539.582,1175.73 791.061,1159.93 1042.54,1124.63 1294.02,1081.75 1545.5,1055.22 1796.98,1052.99 2048.46,1002.32 "/>
<circle clip-path="url(#clip742)" cx="539.582" cy="1175.73" r="14.4" fill="#0000ff" fill-rule="evenodd" fill-opacity="1" stroke="#000000" stroke-opacity="1" stroke-width="3.2"/>
<circle clip-path="url(#clip742)" cx="791.061" cy="1159.93" r="14.4" fill="#0000ff" fill-rule="evenodd" fill-opacity="1" stroke="#000000" stroke-opacity="1" stroke-width="3.2"/>
<circle clip-path="url(#clip742)" cx="1042.54" cy="1124.63" r="14.4" fill="#0000ff" fill-rule="evenodd" fill-opacity="1" stroke="#000000" stroke-opacity="1" stroke-width="3.2"/>
<circle clip-path="url(#clip742)" cx="1294.02" cy="1081.75" r="14.4" fill="#0000ff" fill-rule="evenodd" fill-opacity="1" stroke="#000000" stroke-opacity="1" stroke-width="3.2"/>
<circle clip-path="url(#clip742)" cx="1545.5" cy="1055.22" r="14.4" fill="#0000ff" fill-rule="evenodd" fill-opacity="1" stroke="#000000" stroke-opacity="1" stroke-width="3.2"/>
<circle clip-path="url(#clip742)" cx="1796.98" cy="1052.99" r="14.4" fill="#0000ff" fill-rule="evenodd" fill-opacity="1" stroke="#000000" stroke-opacity="1" stroke-width="3.2"/>
<circle clip-path="url(#clip742)" cx="2048.46" cy="1002.32" r="14.4" fill="#0000ff" fill-rule="evenodd" fill-opacity="1" stroke="#000000" stroke-opacity="1" stroke-width="3.2"/>
<polyline clip-path="url(#clip742)" style="stroke:#008000; stroke-linecap:round; stroke-linejoin:round; stroke-width:6; stroke-opacity:1; fill:none" stroke-dasharray="24, 12, 3, 12" points="539.582,1109.28 791.061,1053.06 1042.54,996.99 1294.02,921.07 1545.5,810.818 1796.98,674.138 2048.46,578.363 "/>
<path clip-path="url(#clip742)" d="M555.582 1093.28 L523.582 1093.28 L539.582 1125.28 L555.582 1093.28 Z" fill="#008000" fill-rule="evenodd" fill-opacity="1" stroke="#000000" stroke-opacity="1" stroke-width="3.2"/>
<path clip-path="url(#clip742)" d="M807.061 1037.06 L775.061 1037.06 L791.061 1069.06 L807.061 1037.06 Z" fill="#008000" fill-rule="evenodd" fill-opacity="1" stroke="#000000" stroke-opacity="1" stroke-width="3.2"/>
<path clip-path="url(#clip742)" d="M1058.54 980.99 L1026.54 980.99 L1042.54 1012.99 L1058.54 980.99 Z" fill="#008000" fill-rule="evenodd" fill-opacity="1" stroke="#000000" stroke-opacity="1" stroke-width="3.2"/>
<path clip-path="url(#clip742)" d="M1310.02 905.07 L1278.02 905.07 L1294.02 937.07 L1310.02 905.07 Z" fill="#008000" fill-rule="evenodd" fill-opacity="1" stroke="#000000" stroke-opacity="1" stroke-width="3.2"/>
<path clip-path="url(#clip742)" d="M1561.5 794.818 L1529.5 794.818 L1545.5 826.818 L1561.5 794.818 Z" fill="#008000" fill-rule="evenodd" fill-opacity="1" stroke="#000000" stroke-opacity="1" stroke-width="3.2"/>
<path clip-path="url(#clip742)" d="M1812.98 658.138 L1780.98 658.138 L1796.98 690.138 L1812.98 658.138 Z" fill="#008000" fill-rule="evenodd" fill-opacity="1" stroke="#000000" stroke-opacity="1" stroke-width="3.2"/>
<path clip-path="url(#clip742)" d="M2064.46 562.363 L2032.46 562.363 L2048.46 594.363 L2064.46 562.363 Z" fill="#008000" fill-rule="evenodd" fill-opacity="1" stroke="#000000" stroke-opacity="1" stroke-width="3.2"/>
<polyline clip-path="url(#clip742)" style="stroke:#ff0000; stroke-linecap:round; stroke-linejoin:round; stroke-width:6; stroke-opacity:1; fill:none" stroke-dasharray="24, 12, 3, 12, 3, 12" points="539.582,869.218 791.061,828.941 1042.54,763.75 1294.02,707.188 1545.5,645.978 1796.98,560.084 2048.46,404.425 "/>
<path clip-path="url(#clip742)" d="M539.582 853.218 L523.582 885.218 L555.582 885.218 L539.582 853.218 Z" fill="#ff0000" fill-rule="evenodd" fill-opacity="1" stroke="#000000" stroke-opacity="1" stroke-width="3.2"/>
<path clip-path="url(#clip742)" d="M791.061 812.941 L775.061 844.941 L807.061 844.941 L791.061 812.941 Z" fill="#ff0000" fill-rule="evenodd" fill-opacity="1" stroke="#000000" stroke-opacity="1" stroke-width="3.2"/>
<path clip-path="url(#clip742)" d="M1042.54 747.75 L1026.54 779.75 L1058.54 779.75 L1042.54 747.75 Z" fill="#ff0000" fill-rule="evenodd" fill-opacity="1" stroke="#000000" stroke-opacity="1" stroke-width="3.2"/>
<path clip-path="url(#clip742)" d="M1294.02 691.188 L1278.02 723.188 L1310.02 723.188 L1294.02 691.188 Z" fill="#ff0000" fill-rule="evenodd" fill-opacity="1" stroke="#000000" stroke-opacity="1" stroke-width="3.2"/>
<path clip-path="url(#clip742)" d="M1545.5 629.978 L1529.5 661.978 L1561.5 661.978 L1545.5 629.978 Z" fill="#ff0000" fill-rule="evenodd" fill-opacity="1" stroke="#000000" stroke-opacity="1" stroke-width="3.2"/>
<path clip-path="url(#clip742)" d="M1796.98 544.084 L1780.98 576.084 L1812.98 576.084 L1796.98 544.084 Z" fill="#ff0000" fill-rule="evenodd" fill-opacity="1" stroke="#000000" stroke-opacity="1" stroke-width="3.2"/>
<path clip-path="url(#clip742)" d="M2048.46 388.425 L2032.46 420.425 L2064.46 420.425 L2048.46 388.425 Z" fill="#ff0000" fill-rule="evenodd" fill-opacity="1" stroke="#000000" stroke-opacity="1" stroke-width="3.2"/>
<path clip-path="url(#clip740)" d="M511.64 638.394 L992.393 638.394 L992.393 431.034 L511.64 431.034  Z" fill="#ffffff" fill-rule="evenodd" fill-opacity="1"/>
<polyline clip-path="url(#clip740)" style="stroke:#000000; stroke-linecap:round; stroke-linejoin:round; stroke-width:4; stroke-opacity:1; fill:none" points="511.64,638.394 992.393,638.394 992.393,431.034 511.64,431.034 511.64,638.394 "/>
<polyline clip-path="url(#clip740)" style="stroke:#0000ff; stroke-linecap:round; stroke-linejoin:round; stroke-width:6; stroke-opacity:1; fill:none" points="530.268,482.874 642.036,482.874 "/>
<circle clip-path="url(#clip740)" cx="586.152" cy="482.874" r="15.5234" fill="#0000ff" fill-rule="evenodd" fill-opacity="1" stroke="#000000" stroke-opacity="1" stroke-width="4.55111"/>
<path clip-path="url(#clip740)" d="M660.664 465.594 L665.34 465.594 L665.34 479.761 L682.331 479.761 L682.331 465.594 L687.007 465.594 L687.007 500.154 L682.331 500.154 L682.331 483.696 L665.34 483.696 L665.34 500.154 L660.664 500.154 L660.664 465.594 Z" fill="#000000" fill-rule="nonzero" fill-opacity="1" /><path clip-path="url(#clip740)" d="M696.312 465.594 L703.28 465.594 L712.099 489.112 L720.965 465.594 L727.932 465.594 L727.932 500.154 L723.372 500.154 L723.372 469.807 L714.46 493.511 L709.761 493.511 L700.849 469.807 L700.849 500.154 L696.312 500.154 L696.312 465.594 Z" fill="#000000" fill-rule="nonzero" fill-opacity="1" /><path clip-path="url(#clip740)" d="M737.215 465.594 L744.182 465.594 L753.002 489.112 L761.867 465.594 L768.835 465.594 L768.835 500.154 L764.275 500.154 L764.275 469.807 L755.363 493.511 L750.664 493.511 L741.752 469.807 L741.752 500.154 L737.215 500.154 L737.215 465.594 Z" fill="#000000" fill-rule="nonzero" fill-opacity="1" /><path clip-path="url(#clip740)" d="M794.46 474.992 L794.46 479.02 Q792.654 478.094 790.71 477.631 Q788.765 477.168 786.682 477.168 Q783.511 477.168 781.914 478.14 Q780.34 479.112 780.34 481.057 Q780.34 482.538 781.474 483.395 Q782.608 484.228 786.034 484.992 L787.492 485.316 Q792.029 486.288 793.927 488.071 Q795.849 489.83 795.849 493.001 Q795.849 496.612 792.978 498.719 Q790.131 500.825 785.131 500.825 Q783.048 500.825 780.779 500.409 Q778.534 500.015 776.034 499.205 L776.034 494.807 Q778.395 496.034 780.687 496.659 Q782.978 497.26 785.224 497.26 Q788.233 497.26 789.853 496.242 Q791.474 495.2 791.474 493.325 Q791.474 491.589 790.293 490.663 Q789.136 489.737 785.178 488.881 L783.696 488.534 Q779.738 487.7 777.978 485.987 Q776.219 484.251 776.219 481.242 Q776.219 477.585 778.812 475.594 Q781.404 473.603 786.173 473.603 Q788.534 473.603 790.617 473.95 Q792.701 474.298 794.46 474.992 Z" fill="#000000" fill-rule="nonzero" fill-opacity="1" /><path clip-path="url(#clip740)" d="M803.233 494.274 L808.117 494.274 L808.117 500.154 L803.233 500.154 L803.233 494.274 Z" fill="#000000" fill-rule="nonzero" fill-opacity="1" /><path clip-path="url(#clip740)" d="M817.7 474.228 L821.96 474.228 L821.96 500.617 Q821.96 505.571 820.062 507.793 Q818.187 510.015 813.997 510.015 L812.376 510.015 L812.376 506.404 L813.511 506.404 Q815.941 506.404 816.821 505.27 Q817.7 504.159 817.7 500.617 L817.7 474.228 M817.7 464.136 L821.96 464.136 L821.96 469.529 L817.7 469.529 L817.7 464.136 Z" fill="#000000" fill-rule="nonzero" fill-opacity="1" /><path clip-path="url(#clip740)" d="M830.872 464.136 L835.131 464.136 L835.131 500.154 L830.872 500.154 L830.872 464.136 Z" fill="#000000" fill-rule="nonzero" fill-opacity="1" /><polyline clip-path="url(#clip740)" style="stroke:#008000; stroke-linecap:round; stroke-linejoin:round; stroke-width:6; stroke-opacity:1; fill:none" stroke-dasharray="24, 12, 3, 12" points="530.268,534.714 642.036,534.714 "/>
<path clip-path="url(#clip740)" d="M603.4 517.466 L568.904 517.466 L586.152 551.962 L603.4 517.466 Z" fill="#008000" fill-rule="evenodd" fill-opacity="1" stroke="#000000" stroke-opacity="1" stroke-width="4.55111"/>
<path clip-path="url(#clip740)" d="M682.377 536.346 L682.377 551.994 L678.118 551.994 L678.118 536.485 Q678.118 532.804 676.683 530.976 Q675.248 529.147 672.377 529.147 Q668.928 529.147 666.937 531.346 Q664.947 533.545 664.947 537.341 L664.947 551.994 L660.664 551.994 L660.664 515.976 L664.947 515.976 L664.947 530.096 Q666.474 527.758 668.535 526.601 Q670.618 525.443 673.326 525.443 Q677.794 525.443 680.085 528.221 Q682.377 530.976 682.377 536.346 Z" fill="#000000" fill-rule="nonzero" fill-opacity="1" /><path clip-path="url(#clip740)" d="M711.058 531.045 Q712.655 528.175 714.877 526.809 Q717.099 525.443 720.108 525.443 Q724.159 525.443 726.358 528.29 Q728.557 531.114 728.557 536.346 L728.557 551.994 L724.275 551.994 L724.275 536.485 Q724.275 532.758 722.956 530.952 Q721.636 529.147 718.928 529.147 Q715.618 529.147 713.696 531.346 Q711.775 533.545 711.775 537.341 L711.775 551.994 L707.493 551.994 L707.493 536.485 Q707.493 532.735 706.173 530.952 Q704.854 529.147 702.099 529.147 Q698.835 529.147 696.914 531.369 Q694.993 533.568 694.993 537.341 L694.993 551.994 L690.71 551.994 L690.71 526.068 L694.993 526.068 L694.993 530.096 Q696.451 527.712 698.488 526.577 Q700.525 525.443 703.326 525.443 Q706.15 525.443 708.118 526.878 Q710.108 528.314 711.058 531.045 Z" fill="#000000" fill-rule="nonzero" fill-opacity="1" /><path clip-path="url(#clip740)" d="M757.238 531.045 Q758.835 528.175 761.057 526.809 Q763.279 525.443 766.289 525.443 Q770.34 525.443 772.539 528.29 Q774.738 531.114 774.738 536.346 L774.738 551.994 L770.455 551.994 L770.455 536.485 Q770.455 532.758 769.136 530.952 Q767.816 529.147 765.108 529.147 Q761.798 529.147 759.877 531.346 Q757.955 533.545 757.955 537.341 L757.955 551.994 L753.673 551.994 L753.673 536.485 Q753.673 532.735 752.354 530.952 Q751.034 529.147 748.28 529.147 Q745.016 529.147 743.094 531.369 Q741.173 533.568 741.173 537.341 L741.173 551.994 L736.891 551.994 L736.891 526.068 L741.173 526.068 L741.173 530.096 Q742.631 527.712 744.668 526.577 Q746.705 525.443 749.506 525.443 Q752.33 525.443 754.298 526.878 Q756.289 528.314 757.238 531.045 Z" fill="#000000" fill-rule="nonzero" fill-opacity="1" /><path clip-path="url(#clip740)" d="M783.233 515.976 L787.492 515.976 L787.492 551.994 L783.233 551.994 L783.233 515.976 Z" fill="#000000" fill-rule="nonzero" fill-opacity="1" /><path clip-path="url(#clip740)" d="M818.58 537.966 L818.58 540.05 L798.997 540.05 Q799.275 544.448 801.636 546.763 Q804.02 549.054 808.256 549.054 Q810.71 549.054 813.001 548.452 Q815.316 547.85 817.585 546.647 L817.585 550.675 Q815.293 551.647 812.886 552.156 Q810.478 552.665 808.001 552.665 Q801.798 552.665 798.164 549.054 Q794.552 545.443 794.552 539.286 Q794.552 532.92 797.978 529.193 Q801.427 525.443 807.261 525.443 Q812.492 525.443 815.525 528.823 Q818.58 532.179 818.58 537.966 M814.321 536.716 Q814.275 533.221 812.353 531.138 Q810.455 529.054 807.307 529.054 Q803.742 529.054 801.589 531.068 Q799.46 533.082 799.136 536.739 L814.321 536.716 Z" fill="#000000" fill-rule="nonzero" fill-opacity="1" /><path clip-path="url(#clip740)" d="M837.353 538.962 Q832.191 538.962 830.2 540.142 Q828.21 541.323 828.21 544.17 Q828.21 546.438 829.691 547.781 Q831.196 549.1 833.765 549.1 Q837.307 549.1 839.436 546.601 Q841.589 544.077 841.589 539.911 L841.589 538.962 L837.353 538.962 M845.848 537.202 L845.848 551.994 L841.589 551.994 L841.589 548.059 Q840.131 550.42 837.955 551.554 Q835.779 552.665 832.631 552.665 Q828.65 552.665 826.288 550.443 Q823.95 548.198 823.95 544.448 Q823.95 540.073 826.867 537.851 Q829.807 535.628 835.617 535.628 L841.589 535.628 L841.589 535.212 Q841.589 532.272 839.645 530.675 Q837.724 529.054 834.228 529.054 Q832.006 529.054 829.899 529.587 Q827.793 530.119 825.849 531.184 L825.849 527.249 Q828.187 526.346 830.386 525.906 Q832.585 525.443 834.668 525.443 Q840.293 525.443 843.071 528.36 Q845.848 531.277 845.848 537.202 Z" fill="#000000" fill-rule="nonzero" fill-opacity="1" /><path clip-path="url(#clip740)" d="M869.645 530.05 Q868.927 529.633 868.071 529.448 Q867.237 529.239 866.219 529.239 Q862.608 529.239 860.663 531.601 Q858.742 533.939 858.742 538.337 L858.742 551.994 L854.46 551.994 L854.46 526.068 L858.742 526.068 L858.742 530.096 Q860.085 527.735 862.237 526.601 Q864.39 525.443 867.469 525.443 Q867.909 525.443 868.441 525.513 Q868.973 525.559 869.622 525.675 L869.645 530.05 Z" fill="#000000" fill-rule="nonzero" fill-opacity="1" /><path clip-path="url(#clip740)" d="M894.83 536.346 L894.83 551.994 L890.57 551.994 L890.57 536.485 Q890.57 532.804 889.135 530.976 Q887.7 529.147 884.83 529.147 Q881.381 529.147 879.39 531.346 Q877.399 533.545 877.399 537.341 L877.399 551.994 L873.117 551.994 L873.117 526.068 L877.399 526.068 L877.399 530.096 Q878.927 527.758 880.987 526.601 Q883.071 525.443 885.779 525.443 Q890.246 525.443 892.538 528.221 Q894.83 530.976 894.83 536.346 Z" fill="#000000" fill-rule="nonzero" fill-opacity="1" /><polyline clip-path="url(#clip740)" style="stroke:#ff0000; stroke-linecap:round; stroke-linejoin:round; stroke-width:6; stroke-opacity:1; fill:none" stroke-dasharray="24, 12, 3, 12, 3, 12" points="530.268,586.554 642.036,586.554 "/>
<path clip-path="url(#clip740)" d="M586.152 569.306 L568.904 603.802 L603.4 603.802 L586.152 569.306 Z" fill="#ff0000" fill-rule="evenodd" fill-opacity="1" stroke="#000000" stroke-opacity="1" stroke-width="4.55111"/>
<path clip-path="url(#clip740)" d="M664.947 599.945 L664.947 613.695 L660.664 613.695 L660.664 577.908 L664.947 577.908 L664.947 581.843 Q666.289 579.529 668.326 578.417 Q670.386 577.283 673.234 577.283 Q677.956 577.283 680.896 581.033 Q683.859 584.783 683.859 590.894 Q683.859 597.005 680.896 600.755 Q677.956 604.505 673.234 604.505 Q670.386 604.505 668.326 603.394 Q666.289 602.26 664.947 599.945 M679.437 590.894 Q679.437 586.195 677.493 583.533 Q675.572 580.848 672.192 580.848 Q668.812 580.848 666.868 583.533 Q664.947 586.195 664.947 590.894 Q664.947 595.593 666.868 598.278 Q668.812 600.94 672.192 600.94 Q675.572 600.94 677.493 598.278 Q679.437 595.593 679.437 590.894 Z" fill="#000000" fill-rule="nonzero" fill-opacity="1" /><path clip-path="url(#clip740)" d="M700.965 580.894 Q697.539 580.894 695.548 583.579 Q693.558 586.241 693.558 590.894 Q693.558 595.547 695.525 598.232 Q697.516 600.894 700.965 600.894 Q704.368 600.894 706.358 598.209 Q708.349 595.524 708.349 590.894 Q708.349 586.288 706.358 583.603 Q704.368 580.894 700.965 580.894 M700.965 577.283 Q706.521 577.283 709.692 580.894 Q712.863 584.505 712.863 590.894 Q712.863 597.26 709.692 600.894 Q706.521 604.505 700.965 604.505 Q695.386 604.505 692.215 600.894 Q689.067 597.26 689.067 590.894 Q689.067 584.505 692.215 580.894 Q695.386 577.283 700.965 577.283 Z" fill="#000000" fill-rule="nonzero" fill-opacity="1" /><path clip-path="url(#clip740)" d="M740.108 582.885 Q741.706 580.015 743.928 578.649 Q746.15 577.283 749.159 577.283 Q753.21 577.283 755.409 580.13 Q757.608 582.954 757.608 588.186 L757.608 603.834 L753.326 603.834 L753.326 588.325 Q753.326 584.598 752.006 582.792 Q750.687 580.987 747.979 580.987 Q744.668 580.987 742.747 583.186 Q740.826 585.385 740.826 589.181 L740.826 603.834 L736.544 603.834 L736.544 588.325 Q736.544 584.575 735.224 582.792 Q733.905 580.987 731.15 580.987 Q727.886 580.987 725.965 583.209 Q724.044 585.408 724.044 589.181 L724.044 603.834 L719.761 603.834 L719.761 577.908 L724.044 577.908 L724.044 581.936 Q725.502 579.552 727.539 578.417 Q729.576 577.283 732.377 577.283 Q735.201 577.283 737.169 578.718 Q739.159 580.154 740.108 582.885 Z" fill="#000000" fill-rule="nonzero" fill-opacity="1" /><path clip-path="url(#clip740)" d="M788.279 589.806 L788.279 591.89 L768.696 591.89 Q768.974 596.288 771.335 598.603 Q773.719 600.894 777.955 600.894 Q780.409 600.894 782.701 600.292 Q785.015 599.69 787.284 598.487 L787.284 602.515 Q784.992 603.487 782.585 603.996 Q780.178 604.505 777.701 604.505 Q771.497 604.505 767.863 600.894 Q764.252 597.283 764.252 591.126 Q764.252 584.76 767.678 581.033 Q771.127 577.283 776.96 577.283 Q782.191 577.283 785.224 580.663 Q788.279 584.019 788.279 589.806 M784.02 588.556 Q783.974 585.061 782.053 582.978 Q780.154 580.894 777.006 580.894 Q773.441 580.894 771.289 582.908 Q769.159 584.922 768.835 588.579 L784.02 588.556 Z" fill="#000000" fill-rule="nonzero" fill-opacity="1" /><path clip-path="url(#clip740)" d="M812.33 590.57 Q812.33 585.941 810.409 583.394 Q808.511 580.848 805.062 580.848 Q801.636 580.848 799.714 583.394 Q797.816 585.941 797.816 590.57 Q797.816 595.177 799.714 597.723 Q801.636 600.269 805.062 600.269 Q808.511 600.269 810.409 597.723 Q812.33 595.177 812.33 590.57 M816.589 600.616 Q816.589 607.237 813.65 610.454 Q810.71 613.695 804.645 613.695 Q802.4 613.695 800.409 613.348 Q798.418 613.024 796.543 612.329 L796.543 608.186 Q798.418 609.204 800.247 609.69 Q802.076 610.177 803.974 610.177 Q808.163 610.177 810.247 607.977 Q812.33 605.802 812.33 601.38 L812.33 599.274 Q811.011 601.565 808.951 602.7 Q806.89 603.834 804.02 603.834 Q799.252 603.834 796.335 600.2 Q793.418 596.566 793.418 590.57 Q793.418 584.552 796.335 580.917 Q799.252 577.283 804.02 577.283 Q806.89 577.283 808.951 578.417 Q811.011 579.552 812.33 581.843 L812.33 577.908 L816.589 577.908 L816.589 600.616 Z" fill="#000000" fill-rule="nonzero" fill-opacity="1" /><path clip-path="url(#clip740)" d="M840.386 581.89 Q839.668 581.473 838.811 581.288 Q837.978 581.079 836.96 581.079 Q833.349 581.079 831.404 583.441 Q829.483 585.779 829.483 590.177 L829.483 603.834 L825.2 603.834 L825.2 577.908 L829.483 577.908 L829.483 581.936 Q830.825 579.575 832.978 578.441 Q835.131 577.283 838.21 577.283 Q838.649 577.283 839.182 577.353 Q839.714 577.399 840.362 577.515 L840.386 581.89 Z" fill="#000000" fill-rule="nonzero" fill-opacity="1" /><path clip-path="url(#clip740)" d="M856.635 590.802 Q851.473 590.802 849.483 591.982 Q847.492 593.163 847.492 596.01 Q847.492 598.278 848.973 599.621 Q850.478 600.94 853.048 600.94 Q856.589 600.94 858.719 598.441 Q860.872 595.917 860.872 591.751 L860.872 590.802 L856.635 590.802 M865.131 589.042 L865.131 603.834 L860.872 603.834 L860.872 599.899 Q859.413 602.26 857.237 603.394 Q855.061 604.505 851.913 604.505 Q847.932 604.505 845.571 602.283 Q843.233 600.038 843.233 596.288 Q843.233 591.913 846.149 589.691 Q849.089 587.468 854.899 587.468 L860.872 587.468 L860.872 587.052 Q860.872 584.112 858.927 582.515 Q857.006 580.894 853.51 580.894 Q851.288 580.894 849.182 581.427 Q847.075 581.959 845.131 583.024 L845.131 579.089 Q847.469 578.186 849.668 577.746 Q851.867 577.283 853.95 577.283 Q859.575 577.283 862.353 580.2 Q865.131 583.117 865.131 589.042 Z" fill="#000000" fill-rule="nonzero" fill-opacity="1" /><path clip-path="url(#clip740)" d="M895.455 588.186 L895.455 603.834 L891.195 603.834 L891.195 588.325 Q891.195 584.644 889.76 582.816 Q888.325 580.987 885.455 580.987 Q882.006 580.987 880.015 583.186 Q878.024 585.385 878.024 589.181 L878.024 603.834 L873.742 603.834 L873.742 577.908 L878.024 577.908 L878.024 581.936 Q879.552 579.598 881.612 578.441 Q883.696 577.283 886.404 577.283 Q890.871 577.283 893.163 580.061 Q895.455 582.816 895.455 588.186 Z" fill="#000000" fill-rule="nonzero" fill-opacity="1" /><path clip-path="url(#clip740)" d="M915.732 590.802 Q910.57 590.802 908.58 591.982 Q906.589 593.163 906.589 596.01 Q906.589 598.278 908.07 599.621 Q909.575 600.94 912.144 600.94 Q915.686 600.94 917.816 598.441 Q919.968 595.917 919.968 591.751 L919.968 590.802 L915.732 590.802 M924.228 589.042 L924.228 603.834 L919.968 603.834 L919.968 599.899 Q918.51 602.26 916.334 603.394 Q914.158 604.505 911.01 604.505 Q907.029 604.505 904.668 602.283 Q902.33 600.038 902.33 596.288 Q902.33 591.913 905.246 589.691 Q908.186 587.468 913.996 587.468 L919.968 587.468 L919.968 587.052 Q919.968 584.112 918.024 582.515 Q916.103 580.894 912.607 580.894 Q910.385 580.894 908.279 581.427 Q906.172 581.959 904.228 583.024 L904.228 579.089 Q906.566 578.186 908.765 577.746 Q910.964 577.283 913.047 577.283 Q918.672 577.283 921.45 580.2 Q924.228 583.117 924.228 589.042 Z" fill="#000000" fill-rule="nonzero" fill-opacity="1" /><path clip-path="url(#clip740)" d="M937.214 570.547 L937.214 577.908 L945.987 577.908 L945.987 581.218 L937.214 581.218 L937.214 595.292 Q937.214 598.464 938.07 599.366 Q938.95 600.269 941.612 600.269 L945.987 600.269 L945.987 603.834 L941.612 603.834 Q936.681 603.834 934.806 602.005 Q932.931 600.153 932.931 595.292 L932.931 581.218 L929.806 581.218 L929.806 577.908 L932.931 577.908 L932.931 570.547 L937.214 570.547 Z" fill="#000000" fill-rule="nonzero" fill-opacity="1" /><path clip-path="url(#clip740)" d="M973.764 589.806 L973.764 591.89 L954.181 591.89 Q954.459 596.288 956.82 598.603 Q959.204 600.894 963.44 600.894 Q965.894 600.894 968.186 600.292 Q970.501 599.69 972.769 598.487 L972.769 602.515 Q970.477 603.487 968.07 603.996 Q965.663 604.505 963.186 604.505 Q956.982 604.505 953.348 600.894 Q949.737 597.283 949.737 591.126 Q949.737 584.76 953.163 581.033 Q956.612 577.283 962.445 577.283 Q967.677 577.283 970.709 580.663 Q973.764 584.019 973.764 589.806 M969.505 588.556 Q969.459 585.061 967.538 582.978 Q965.64 580.894 962.491 580.894 Q958.927 580.894 956.774 582.908 Q954.644 584.922 954.32 588.579 L969.505 588.556 Z" fill="#000000" fill-rule="nonzero" fill-opacity="1" /></svg>
