<?xml version="1.0" encoding="utf-8"?>
<svg xmlns="http://www.w3.org/2000/svg" xmlns:xlink="http://www.w3.org/1999/xlink" width="600" height="400" viewBox="0 0 2400 1600">
<defs>
  <clipPath id="clip340">
    <rect x="0" y="0" width="2400" height="1600"/>
  </clipPath>
</defs>
<path clip-path="url(#clip340)" d="M0 1600 L2400 1600 L2400 0 L0 0  Z" fill="#ffffff" fill-rule="evenodd" fill-opacity="1"/>
<defs>
  <clipPath id="clip341">
    <rect x="480" y="0" width="1681" height="1600"/>
  </clipPath>
</defs>
<path clip-path="url(#clip340)" d="M394.621 1202.71 L2132.28 1202.71 L2132.28 404.425 L394.621 404.425  Z" fill="#ffffff" fill-rule="evenodd" fill-opacity="1"/>
<defs>
  <clipPath id="clip342">
    <rect x="394" y="404" width="1739" height="799"/>
  </clipPath>
</defs>
<polyline clip-path="url(#clip342)" style="stroke:#000000; stroke-linecap:round; stroke-linejoin:round; stroke-width:2; stroke-opacity:0.1; fill:none" points="742.154,1202.71 742.154,404.425 "/>
<polyline clip-path="url(#clip342)" style="stroke:#000000; stroke-linecap:round; stroke-linejoin:round; stroke-width:2; stroke-opacity:0.1; fill:none" points="1176.57,1202.71 1176.57,404.425 "/>
<polyline clip-path="url(#clip342)" style="stroke:#000000; stroke-linecap:round; stroke-linejoin:round; stroke-width:2; stroke-opacity:0.1; fill:none" points="1610.98,1202.71 1610.98,404.425 "/>
<polyline clip-path="url(#clip342)" style="stroke:#000000; stroke-linecap:round; stroke-linejoin:round; stroke-width:2; stroke-opacity:0.1; fill:none" points="2045.4,1202.71 2045.4,404.425 "/>
<polyline clip-path="url(#clip340)" style="stroke:#000000; stroke-linecap:round; stroke-linejoin:round; stroke-width:4; stroke-opacity:1; fill:none" points="394.621,1202.71 2132.28,1202.71 "/>
<polyline clip-path="url(#clip340)" style="stroke:#000000; stroke-linecap:round; stroke-linejoin:round; stroke-width:4; stroke-opacity:1; fill:none" points="742.154,1202.71 742.154,1183.81 "/>
<polyline clip-path="url(#clip340)" style="stroke:#000000; stroke-linecap:round; stroke-linejoin:round; stroke-width:4; stroke-opacity:1; fill:none" points="1176.57,1202.71 1176.57,1183.81 "/>
<polyline clip-path="url(#clip340)" style="stroke:#000000; stroke-linecap:round; stroke-linejoin:round; stroke-width:4; stroke-opacity:1; fill:none" points="1610.98,1202.71 1610.98,1183.81 "/>
<polyline clip-path="url(#clip340)" style="stroke:#000000; stroke-linecap:round; stroke-linejoin:round; stroke-width:4; stroke-opacity:1; fill:none" points="2045.4,1202.71 2045.4,1183.81 "/>
<path clip-path="url(#clip340)" d="M732.432 1230.55 L750.788 1230.55 L750.788 1234.48 L736.714 1234.48 L736.714 1242.95 Q737.733 1242.61 738.751 1242.45 Q739.77 1242.26 740.788 1242.26 Q746.575 1242.26 749.955 1245.43 Q753.334 1248.6 753.334 1254.02 Q753.334 1259.6 749.862 1262.7 Q746.39 1265.78 740.07 1265.78 Q737.895 1265.78 735.626 1265.41 Q733.381 1265.04 730.973 1264.3 L730.973 1259.6 Q733.057 1260.73 735.279 1261.29 Q737.501 1261.84 739.978 1261.84 Q743.982 1261.84 746.32 1259.74 Q748.658 1257.63 748.658 1254.02 Q748.658 1250.41 746.32 1248.3 Q743.982 1246.2 739.978 1246.2 Q738.103 1246.2 736.228 1246.61 Q734.376 1247.03 732.432 1247.91 L732.432 1230.55 Z" fill="#000000" fill-rule="nonzero" fill-opacity="1" /><path clip-path="url(#clip340)" d="M1151.26 1261.17 L1158.9 1261.17 L1158.9 1234.81 L1150.59 1236.47 L1150.59 1232.21 L1158.85 1230.55 L1163.53 1230.55 L1163.53 1261.17 L1171.16 1261.17 L1171.16 1265.11 L1151.26 1265.11 L1151.26 1261.17 Z" fill="#000000" fill-rule="nonzero" fill-opacity="1" /><path clip-path="url(#clip340)" d="M1190.61 1233.63 Q1187 1233.63 1185.17 1237.19 Q1183.36 1240.73 1183.36 1247.86 Q1183.36 1254.97 1185.17 1258.53 Q1187 1262.08 1190.61 1262.08 Q1194.24 1262.08 1196.05 1258.53 Q1197.88 1254.97 1197.88 1247.86 Q1197.88 1240.73 1196.05 1237.19 Q1194.24 1233.63 1190.61 1233.63 M1190.61 1229.92 Q1196.42 1229.92 1199.47 1234.53 Q1202.55 1239.11 1202.55 1247.86 Q1202.55 1256.59 1199.47 1261.2 Q1196.42 1265.78 1190.61 1265.78 Q1184.8 1265.78 1181.72 1261.2 Q1178.66 1256.59 1178.66 1247.86 Q1178.66 1239.11 1181.72 1234.53 Q1184.8 1229.92 1190.61 1229.92 Z" fill="#000000" fill-rule="nonzero" fill-opacity="1" /><path clip-path="url(#clip340)" d="M1586.17 1261.17 L1593.81 1261.17 L1593.81 1234.81 L1585.5 1236.47 L1585.5 1232.21 L1593.76 1230.55 L1598.44 1230.55 L1598.44 1261.17 L1606.08 1261.17 L1606.08 1265.11 L1586.17 1265.11 L1586.17 1261.17 Z" fill="#000000" fill-rule="nonzero" fill-opacity="1" /><path clip-path="url(#clip340)" d="M1615.57 1230.55 L1633.92 1230.55 L1633.92 1234.48 L1619.85 1234.48 L1619.85 1242.95 Q1620.87 1242.61 1621.89 1242.45 Q1622.91 1242.26 1623.92 1242.26 Q1629.71 1242.26 1633.09 1245.43 Q1636.47 1248.6 1636.47 1254.02 Q1636.47 1259.6 1633 1262.7 Q1629.53 1265.78 1623.21 1265.78 Q1621.03 1265.78 1618.76 1265.41 Q1616.52 1265.04 1614.11 1264.3 L1614.11 1259.6 Q1616.19 1260.73 1618.42 1261.29 Q1620.64 1261.84 1623.11 1261.84 Q1627.12 1261.84 1629.46 1259.74 Q1631.79 1257.63 1631.79 1254.02 Q1631.79 1250.41 1629.46 1248.3 Q1627.12 1246.2 1623.11 1246.2 Q1621.24 1246.2 1619.36 1246.61 Q1617.51 1247.03 1615.57 1247.91 L1615.57 1230.55 Z" fill="#000000" fill-rule="nonzero" fill-opacity="1" /><path clip-path="url(#clip340)" d="M2024.17 1261.17 L2040.49 1261.17 L2040.49 1265.11 L2018.55 1265.11 L2018.55 1261.17 Q2021.21 1258.42 2025.79 1253.79 Q2030.4 1249.14 2031.58 1247.79 Q2033.83 1245.27 2034.71 1243.53 Q2035.61 1241.77 2035.61 1240.08 Q2035.61 1237.33 2033.66 1235.59 Q2031.74 1233.86 2028.64 1233.86 Q2026.44 1233.86 2023.99 1234.62 Q2021.56 1235.39 2018.78 1236.94 L2018.78 1232.21 Q2021.6 1231.08 2024.06 1230.5 Q2026.51 1229.92 2028.55 1229.92 Q2033.92 1229.92 2037.11 1232.61 Q2040.31 1235.29 2040.31 1239.78 Q2040.31 1241.91 2039.5 1243.83 Q2038.71 1245.73 2036.6 1248.33 Q2036.03 1249 2032.92 1252.21 Q2029.82 1255.41 2024.17 1261.17 Z" fill="#000000" fill-rule="nonzero" fill-opacity="1" /><path clip-path="url(#clip340)" d="M2060.31 1233.63 Q2056.7 1233.63 2054.87 1237.19 Q2053.06 1240.73 2053.06 1247.86 Q2053.06 1254.97 2054.87 1258.53 Q2056.7 1262.08 2060.31 1262.08 Q2063.94 1262.08 2065.75 1258.53 Q2067.58 1254.97 2067.58 1247.86 Q2067.58 1240.73 2065.75 1237.19 Q2063.94 1233.63 2060.31 1233.63 M2060.31 1229.92 Q2066.12 1229.92 2069.17 1234.53 Q2072.25 1239.11 2072.25 1247.86 Q2072.25 1256.59 2069.17 1261.2 Q2066.12 1265.78 2060.31 1265.78 Q2054.5 1265.78 2051.42 1261.2 Q2048.36 1256.59 2048.36 1247.86 Q2048.36 1239.11 2051.42 1234.53 Q2054.5 1229.92 2060.31 1229.92 Z" fill="#000000" fill-rule="nonzero" fill-opacity="1" /><path clip-path="url(#clip340)" d="M985.844 1326.06 L985.844 1347.57 L979.987 1347.57 L979.987 1326.25 Q979.987 1321.19 978.014 1318.67 Q976.041 1316.16 972.094 1316.16 Q967.352 1316.16 964.614 1319.18 Q961.877 1322.2 961.877 1327.42 L961.877 1347.57 L955.989 1347.57 L955.989 1311.92 L961.877 1311.92 L961.877 1317.46 Q963.978 1314.25 966.81 1312.66 Q969.675 1311.06 973.399 1311.06 Q979.542 1311.06 982.693 1314.88 Q985.844 1318.67 985.844 1326.06 Z" fill="#000000" fill-rule="nonzero" fill-opacity="1" /><path clip-path="url(#clip340)" d="M996.92 1333.5 L996.92 1311.92 L1002.78 1311.92 L1002.78 1333.28 Q1002.78 1338.34 1004.75 1340.89 Q1006.72 1343.4 1010.67 1343.4 Q1015.41 1343.4 1018.15 1340.38 Q1020.92 1337.35 1020.92 1332.13 L1020.92 1311.92 L1026.78 1311.92 L1026.78 1347.57 L1020.92 1347.57 L1020.92 1342.1 Q1018.79 1345.34 1015.95 1346.93 Q1013.15 1348.49 1009.43 1348.49 Q1003.29 1348.49 1000.1 1344.68 Q996.92 1340.86 996.92 1333.5 M1011.66 1311.06 L1011.66 1311.06 Z" fill="#000000" fill-rule="nonzero" fill-opacity="1" /><path clip-path="url(#clip340)" d="M1066.59 1318.77 Q1068.79 1314.82 1071.84 1312.94 Q1074.9 1311.06 1079.04 1311.06 Q1084.61 1311.06 1087.63 1314.98 Q1090.66 1318.86 1090.66 1326.06 L1090.66 1347.57 L1084.77 1347.57 L1084.77 1326.25 Q1084.77 1321.12 1082.95 1318.64 Q1081.14 1316.16 1077.41 1316.16 Q1072.86 1316.16 1070.22 1319.18 Q1067.58 1322.2 1067.58 1327.42 L1067.58 1347.57 L1061.69 1347.57 L1061.69 1326.25 Q1061.69 1321.09 1059.88 1318.64 Q1058.06 1316.16 1054.28 1316.16 Q1049.79 1316.16 1047.15 1319.21 Q1044.5 1322.24 1044.5 1327.42 L1044.5 1347.57 L1038.62 1347.57 L1038.62 1311.92 L1044.5 1311.92 L1044.5 1317.46 Q1046.51 1314.18 1049.31 1312.62 Q1052.11 1311.06 1055.96 1311.06 Q1059.85 1311.06 1062.55 1313.04 Q1065.29 1315.01 1066.59 1318.77 Z" fill="#000000" fill-rule="nonzero" fill-opacity="1" /><path clip-path="url(#clip340)" d="M1127.93 1329.78 Q1127.93 1323.32 1125.25 1319.66 Q1122.61 1315.97 1117.96 1315.97 Q1113.32 1315.97 1110.64 1319.66 Q1108 1323.32 1108 1329.78 Q1108 1336.24 1110.64 1339.93 Q1113.32 1343.59 1117.96 1343.59 Q1122.61 1343.59 1125.25 1339.93 Q1127.93 1336.24 1127.93 1329.78 M1108 1317.33 Q1109.85 1314.15 1112.65 1312.62 Q1115.48 1311.06 1119.4 1311.06 Q1125.89 1311.06 1129.93 1316.22 Q1134.01 1321.38 1134.01 1329.78 Q1134.01 1338.18 1129.93 1343.34 Q1125.89 1348.49 1119.4 1348.49 Q1115.48 1348.49 1112.65 1346.97 Q1109.85 1345.41 1108 1342.22 L1108 1347.57 L1102.11 1347.57 L1102.11 1298.05 L1108 1298.05 L1108 1317.33 Z" fill="#000000" fill-rule="nonzero" fill-opacity="1" /><path clip-path="url(#clip340)" d="M1174.21 1328.28 L1174.21 1331.15 L1147.28 1331.15 Q1147.66 1337.2 1150.91 1340.38 Q1154.19 1343.53 1160.01 1343.53 Q1163.38 1343.53 1166.53 1342.7 Q1169.72 1341.87 1172.84 1340.22 L1172.84 1345.76 Q1169.69 1347.09 1166.38 1347.79 Q1163.07 1348.49 1159.66 1348.49 Q1151.13 1348.49 1146.13 1343.53 Q1141.17 1338.56 1141.17 1330.1 Q1141.17 1321.34 1145.88 1316.22 Q1150.62 1311.06 1158.64 1311.06 Q1165.83 1311.06 1170 1315.71 Q1174.21 1320.33 1174.21 1328.28 M1168.35 1326.56 Q1168.29 1321.76 1165.64 1318.89 Q1163.03 1316.03 1158.7 1316.03 Q1153.8 1316.03 1150.84 1318.8 Q1147.91 1321.57 1147.47 1326.6 L1168.35 1326.56 Z" fill="#000000" fill-rule="nonzero" fill-opacity="1" /><path clip-path="url(#clip340)" d="M1204.47 1317.4 Q1203.49 1316.83 1202.31 1316.57 Q1201.16 1316.28 1199.76 1316.28 Q1194.8 1316.28 1192.12 1319.53 Q1189.48 1322.75 1189.48 1328.79 L1189.48 1347.57 L1183.59 1347.57 L1183.59 1311.92 L1189.48 1311.92 L1189.48 1317.46 Q1191.33 1314.22 1194.29 1312.66 Q1197.25 1311.06 1201.48 1311.06 Q1202.09 1311.06 1202.82 1311.16 Q1203.55 1311.22 1204.44 1311.38 L1204.47 1317.4 Z" fill="#000000" fill-rule="nonzero" fill-opacity="1" /><path clip-path="url(#clip340)" d="M1245.15 1316.03 Q1240.44 1316.03 1237.7 1319.72 Q1234.97 1323.38 1234.97 1329.78 Q1234.97 1336.18 1237.67 1339.87 Q1240.41 1343.53 1245.15 1343.53 Q1249.83 1343.53 1252.57 1339.84 Q1255.3 1336.14 1255.3 1329.78 Q1255.3 1323.45 1252.57 1319.75 Q1249.83 1316.03 1245.15 1316.03 M1245.15 1311.06 Q1252.79 1311.06 1257.15 1316.03 Q1261.51 1320.99 1261.51 1329.78 Q1261.51 1338.53 1257.15 1343.53 Q1252.79 1348.49 1245.15 1348.49 Q1237.48 1348.49 1233.12 1343.53 Q1228.79 1338.53 1228.79 1329.78 Q1228.79 1320.99 1233.12 1316.03 Q1237.48 1311.06 1245.15 1311.06 Z" fill="#000000" fill-rule="nonzero" fill-opacity="1" /><path clip-path="url(#clip340)" d="M1289.27 1298.05 L1289.27 1302.92 L1283.66 1302.92 Q1280.51 1302.92 1279.27 1304.19 Q1278.06 1305.46 1278.06 1308.77 L1278.06 1311.92 L1287.71 1311.92 L1287.71 1316.47 L1278.06 1316.47 L1278.06 1347.57 L1272.17 1347.57 L1272.17 1316.47 L1266.57 1316.47 L1266.57 1311.92 L1272.17 1311.92 L1272.17 1309.44 Q1272.17 1303.49 1274.94 1300.78 Q1277.71 1298.05 1283.73 1298.05 L1289.27 1298.05 Z" fill="#000000" fill-rule="nonzero" fill-opacity="1" /><path clip-path="url(#clip340)" d="M1337.61 1312.97 L1337.61 1318.51 Q1335.13 1317.24 1332.46 1316.6 Q1329.78 1315.97 1326.92 1315.97 Q1322.56 1315.97 1320.36 1317.3 Q1318.2 1318.64 1318.2 1321.31 Q1318.2 1323.35 1319.76 1324.53 Q1321.32 1325.67 1326.03 1326.72 L1328.03 1327.17 Q1334.27 1328.51 1336.88 1330.96 Q1339.52 1333.38 1339.52 1337.74 Q1339.52 1342.7 1335.58 1345.6 Q1331.66 1348.49 1324.79 1348.49 Q1321.92 1348.49 1318.8 1347.92 Q1315.71 1347.38 1312.28 1346.27 L1312.28 1340.22 Q1315.52 1341.91 1318.67 1342.77 Q1321.83 1343.59 1324.91 1343.59 Q1329.05 1343.59 1331.28 1342.19 Q1333.51 1340.76 1333.51 1338.18 Q1333.51 1335.79 1331.88 1334.52 Q1330.29 1333.25 1324.85 1332.07 L1322.81 1331.59 Q1317.37 1330.45 1314.95 1328.09 Q1312.53 1325.71 1312.53 1321.57 Q1312.53 1316.54 1316.1 1313.8 Q1319.66 1311.06 1326.22 1311.06 Q1329.46 1311.06 1332.33 1311.54 Q1335.19 1312.02 1337.61 1312.97 Z" fill="#000000" fill-rule="nonzero" fill-opacity="1" /><path clip-path="url(#clip340)" d="M1354.64 1301.8 L1354.64 1311.92 L1366.7 1311.92 L1366.7 1316.47 L1354.64 1316.47 L1354.64 1335.83 Q1354.64 1340.19 1355.82 1341.43 Q1357.03 1342.67 1360.69 1342.67 L1366.7 1342.67 L1366.7 1347.57 L1360.69 1347.57 Q1353.91 1347.57 1351.33 1345.06 Q1348.75 1342.51 1348.75 1335.83 L1348.75 1316.47 L1344.46 1316.47 L1344.46 1311.92 L1348.75 1311.92 L1348.75 1301.8 L1354.64 1301.8 Z" fill="#000000" fill-rule="nonzero" fill-opacity="1" /><path clip-path="url(#clip340)" d="M1390.61 1329.65 Q1383.51 1329.65 1380.77 1331.28 Q1378.04 1332.9 1378.04 1336.81 Q1378.04 1339.93 1380.07 1341.78 Q1382.14 1343.59 1385.67 1343.59 Q1390.54 1343.59 1393.47 1340.16 Q1396.43 1336.69 1396.43 1330.96 L1396.43 1329.65 L1390.61 1329.65 M1402.29 1327.23 L1402.29 1347.57 L1396.43 1347.57 L1396.43 1342.16 Q1394.43 1345.41 1391.43 1346.97 Q1388.44 1348.49 1384.11 1348.49 Q1378.64 1348.49 1375.39 1345.44 Q1372.18 1342.35 1372.18 1337.2 Q1372.18 1331.18 1376.19 1328.12 Q1380.23 1325.07 1388.22 1325.07 L1396.43 1325.07 L1396.43 1324.5 Q1396.43 1320.45 1393.76 1318.26 Q1391.12 1316.03 1386.31 1316.03 Q1383.26 1316.03 1380.36 1316.76 Q1377.46 1317.49 1374.79 1318.96 L1374.79 1313.55 Q1378 1312.31 1381.03 1311.7 Q1384.05 1311.06 1386.92 1311.06 Q1394.65 1311.06 1398.47 1315.07 Q1402.29 1319.08 1402.29 1327.23 Z" fill="#000000" fill-rule="nonzero" fill-opacity="1" /><path clip-path="url(#clip340)" d="M1420.14 1301.8 L1420.14 1311.92 L1432.21 1311.92 L1432.21 1316.47 L1420.14 1316.47 L1420.14 1335.83 Q1420.14 1340.19 1421.32 1341.43 Q1422.53 1342.67 1426.19 1342.67 L1432.21 1342.67 L1432.21 1347.57 L1426.19 1347.57 Q1419.41 1347.57 1416.83 1345.06 Q1414.26 1342.51 1414.26 1335.83 L1414.26 1316.47 L1409.96 1316.47 L1409.96 1311.92 L1414.26 1311.92 L1414.26 1301.8 L1420.14 1301.8 Z" fill="#000000" fill-rule="nonzero" fill-opacity="1" /><path clip-path="url(#clip340)" d="M1470.4 1328.28 L1470.4 1331.15 L1443.47 1331.15 Q1443.86 1337.2 1447.1 1340.38 Q1450.38 1343.53 1456.21 1343.53 Q1459.58 1343.53 1462.73 1342.7 Q1465.91 1341.87 1469.03 1340.22 L1469.03 1345.76 Q1465.88 1347.09 1462.57 1347.79 Q1459.26 1348.49 1455.86 1348.49 Q1447.33 1348.49 1442.33 1343.53 Q1437.36 1338.56 1437.36 1330.1 Q1437.36 1321.34 1442.07 1316.22 Q1446.82 1311.06 1454.84 1311.06 Q1462.03 1311.06 1466.2 1315.71 Q1470.4 1320.33 1470.4 1328.28 M1464.55 1326.56 Q1464.48 1321.76 1461.84 1318.89 Q1459.23 1316.03 1454.9 1316.03 Q1450 1316.03 1447.04 1318.8 Q1444.11 1321.57 1443.67 1326.6 L1464.55 1326.56 Z" fill="#000000" fill-rule="nonzero" fill-opacity="1" /><path clip-path="url(#clip340)" d="M1502.74 1312.97 L1502.74 1318.51 Q1500.26 1317.24 1497.58 1316.6 Q1494.91 1315.97 1492.04 1315.97 Q1487.68 1315.97 1485.49 1317.3 Q1483.32 1318.64 1483.32 1321.31 Q1483.32 1323.35 1484.88 1324.53 Q1486.44 1325.67 1491.15 1326.72 L1493.16 1327.17 Q1499.4 1328.51 1502.01 1330.96 Q1504.65 1333.38 1504.65 1337.74 Q1504.65 1342.7 1500.7 1345.6 Q1496.79 1348.49 1489.91 1348.49 Q1487.05 1348.49 1483.93 1347.92 Q1480.84 1347.38 1477.4 1346.27 L1477.4 1340.22 Q1480.65 1341.91 1483.8 1342.77 Q1486.95 1343.59 1490.04 1343.59 Q1494.18 1343.59 1496.41 1342.19 Q1498.63 1340.76 1498.63 1338.18 Q1498.63 1335.79 1497.01 1334.52 Q1495.42 1333.25 1489.98 1332.07 L1487.94 1331.59 Q1482.5 1330.45 1480.08 1328.09 Q1477.66 1325.71 1477.66 1321.57 Q1477.66 1316.54 1481.22 1313.8 Q1484.79 1311.06 1491.34 1311.06 Q1494.59 1311.06 1497.46 1311.54 Q1500.32 1312.02 1502.74 1312.97 Z" fill="#000000" fill-rule="nonzero" fill-opacity="1" /><path clip-path="url(#clip340)" d="M1534.95 1300.05 L1543.61 1300.05 L1564.68 1339.81 L1564.68 1300.05 L1570.92 1300.05 L1570.92 1347.57 L1562.26 1347.57 L1541.19 1307.82 L1541.19 1347.57 L1534.95 1347.57 L1534.95 1300.05 Z" fill="#000000" fill-rule="nonzero" fill-opacity="1" /><polyline clip-path="url(#clip342)" style="stroke:#000000; stroke-linecap:round; stroke-linejoin:round; stroke-width:2; stroke-opacity:0.1; fill:none" points="394.621,1202.71 2132.28,1202.71 "/>
<polyline clip-path="url(#clip342)" style="stroke:#000000; stroke-linecap:round; stroke-linejoin:round; stroke-width:2; stroke-opacity:0.1; fill:none" points="394.621,1000.87 2132.28,1000.87 "/>
<polyline clip-path="url(#clip342)" style="stroke:#000000; stroke-linecap:round; stroke-linejoin:round; stroke-width:2; stroke-opacity:0.1; fill:none" points="394.621,799.032 2132.28,799.032 "/>
<polyline clip-path="url(#clip342)" style="stroke:#000000; stroke-linecap:round; stroke-linejoin:round; stroke-width:2; stroke-opacity:0.1; fill:none" points="394.621,597.195 2132.28,597.195 "/>
<polyline clip-path="url(#clip340)" style="stroke:#000000; stroke-linecap:round; stroke-linejoin:round; stroke-width:4; stroke-opacity:1; fill:none" points="394.621,1202.71 394.621,404.425 "/>
<polyline clip-path="url(#clip340)" style="stroke:#000000; stroke-linecap:round; stroke-linejoin:round; stroke-width:4; stroke-opacity:1; fill:none" points="394.621,1202.71 413.519,1202.71 "/>
<polyline clip-path="url(#clip340)" style="stroke:#000000; stroke-linecap:round; stroke-linejoin:round; stroke-width:4; stroke-opacity:1; fill:none" points="394.621,1000.87 413.519,1000.87 "/>
<polyline clip-path="url(#clip340)" style="stroke:#000000; stroke-linecap:round; stroke-linejoin:round; stroke-width:4; stroke-opacity:1; fill:none" points="394.621,799.032 413.519,799.032 "/>
<polyline clip-path="url(#clip340)" style="stroke:#000000; stroke-linecap:round; stroke-linejoin:round; stroke-width:4; stroke-opacity:1; fill:none" points="394.621,597.195 413.519,597.195 "/>
<path clip-path="url(#clip340)" d="M346.677 1188.51 Q343.066 1188.51 341.237 1192.07 Q339.432 1195.61 339.432 1202.74 Q339.432 1209.85 341.237 1213.41 Q343.066 1216.96 346.677 1216.96 Q350.311 1216.96 352.117 1213.41 Q353.945 1209.85 353.945 1202.74 Q353.945 1195.61 352.117 1192.07 Q350.311 1188.51 346.677 1188.51 M346.677 1184.8 Q352.487 1184.8 355.543 1189.41 Q358.621 1193.99 358.621 1202.74 Q358.621 1211.47 355.543 1216.08 Q352.487 1220.66 346.677 1220.66 Q340.867 1220.66 337.788 1216.08 Q334.733 1211.47 334.733 1202.74 Q334.733 1193.99 337.788 1189.41 Q340.867 1184.8 346.677 1184.8 Z" fill="#000000" fill-rule="nonzero" fill-opacity="1" /><path clip-path="url(#clip340)" d="M338.714 1014.21 L346.353 1014.21 L346.353 987.849 L338.043 989.516 L338.043 985.257 L346.307 983.59 L350.983 983.59 L350.983 1014.21 L358.621 1014.21 L358.621 1018.15 L338.714 1018.15 L338.714 1014.21 Z" fill="#000000" fill-rule="nonzero" fill-opacity="1" /><path clip-path="url(#clip340)" d="M342.302 812.377 L358.621 812.377 L358.621 816.312 L336.677 816.312 L336.677 812.377 Q339.339 809.623 343.922 804.993 Q348.529 800.34 349.709 798.998 Q351.955 796.475 352.834 794.738 Q353.737 792.979 353.737 791.289 Q353.737 788.535 351.793 786.799 Q349.871 785.063 346.77 785.063 Q344.571 785.063 342.117 785.826 Q339.686 786.59 336.909 788.141 L336.909 783.419 Q339.733 782.285 342.186 781.706 Q344.64 781.127 346.677 781.127 Q352.047 781.127 355.242 783.813 Q358.436 786.498 358.436 790.988 Q358.436 793.118 357.626 795.039 Q356.839 796.938 354.732 799.53 Q354.154 800.201 351.052 803.419 Q347.95 806.613 342.302 812.377 Z" fill="#000000" fill-rule="nonzero" fill-opacity="1" /><path clip-path="url(#clip340)" d="M351.492 595.841 Q354.848 596.558 356.723 598.827 Q358.621 601.095 358.621 604.429 Q358.621 609.544 355.103 612.345 Q351.584 615.146 345.103 615.146 Q342.927 615.146 340.612 614.706 Q338.321 614.29 335.867 613.433 L335.867 608.919 Q337.811 610.054 340.126 610.632 Q342.441 611.211 344.964 611.211 Q349.362 611.211 351.654 609.475 Q353.969 607.739 353.969 604.429 Q353.969 601.373 351.816 599.66 Q349.686 597.924 345.867 597.924 L341.839 597.924 L341.839 594.082 L346.052 594.082 Q349.501 594.082 351.33 592.716 Q353.158 591.327 353.158 588.734 Q353.158 586.072 351.26 584.66 Q349.385 583.225 345.867 583.225 Q343.946 583.225 341.746 583.642 Q339.547 584.058 336.909 584.938 L336.909 580.771 Q339.571 580.031 341.885 579.66 Q344.223 579.29 346.283 579.29 Q351.608 579.29 354.709 581.72 Q357.811 584.128 357.811 588.248 Q357.811 591.119 356.168 593.109 Q354.524 595.077 351.492 595.841 Z" fill="#000000" fill-rule="nonzero" fill-opacity="1" /><path clip-path="url(#clip340)" d="M240.617 995.397 L247.396 995.397 Q244.373 998.643 242.877 1002.34 Q241.381 1006 241.381 1010.13 Q241.381 1018.28 246.378 1022.61 Q251.343 1026.94 260.764 1026.94 Q270.154 1026.94 275.151 1022.61 Q280.116 1018.28 280.116 1010.13 Q280.116 1006 278.62 1002.34 Q277.124 998.643 274.1 995.397 L280.816 995.397 Q283.108 998.77 284.254 1002.56 Q285.4 1006.31 285.4 1010.52 Q285.4 1021.3 278.811 1027.51 Q272.191 1033.72 260.764 1033.72 Q249.306 1033.72 242.718 1027.51 Q236.097 1021.3 236.097 1010.52 Q236.097 1006.25 237.243 1002.49 Q238.357 998.707 240.617 995.397 Z" fill="#000000" fill-rule="nonzero" fill-opacity="1" /><path clip-path="url(#clip340)" d="M242.24 979.037 L260.096 979.037 L260.096 970.952 Q260.096 966.464 257.772 964.014 Q255.449 961.563 251.152 961.563 Q246.887 961.563 244.564 964.014 Q242.24 966.464 242.24 970.952 L242.24 979.037 M236.957 985.466 L236.957 970.952 Q236.957 962.963 240.585 958.889 Q244.182 954.783 251.152 954.783 Q258.186 954.783 261.783 958.889 Q265.379 962.963 265.379 970.952 L265.379 979.037 L284.477 979.037 L284.477 985.466 L236.957 985.466 Z" fill="#000000" fill-rule="nonzero" fill-opacity="1" /><path clip-path="url(#clip340)" d="M236.957 946.89 L236.957 940.429 L265.825 940.429 Q273.464 940.429 276.838 937.66 Q280.18 934.891 280.18 928.684 Q280.18 922.509 276.838 919.74 Q273.464 916.971 265.825 916.971 L236.957 916.971 L236.957 910.51 L266.621 910.51 Q275.915 910.51 280.657 915.125 Q285.4 919.708 285.4 928.684 Q285.4 937.691 280.657 942.307 Q275.915 946.89 266.621 946.89 L236.957 946.89 Z" fill="#000000" fill-rule="nonzero" fill-opacity="1" /><path clip-path="url(#clip340)" d="M238.707 872.188 L248.829 872.188 L248.829 860.125 L253.38 860.125 L253.38 872.188 L272.732 872.188 Q277.092 872.188 278.334 871.011 Q279.575 869.801 279.575 866.141 L279.575 860.125 L284.477 860.125 L284.477 866.141 Q284.477 872.92 281.962 875.498 Q279.416 878.077 272.732 878.077 L253.38 878.077 L253.38 882.373 L248.829 882.373 L248.829 878.077 L238.707 878.077 L238.707 872.188 Z" fill="#000000" fill-rule="nonzero" fill-opacity="1" /><path clip-path="url(#clip340)" d="M248.829 852.423 L248.829 846.566 L284.477 846.566 L284.477 852.423 L248.829 852.423 M234.951 852.423 L234.951 846.566 L242.367 846.566 L242.367 852.423 L234.951 852.423 Z" fill="#000000" fill-rule="nonzero" fill-opacity="1" /><path clip-path="url(#clip340)" d="M255.672 806.558 Q251.725 804.362 249.847 801.306 Q247.969 798.251 247.969 794.113 Q247.969 788.543 251.884 785.519 Q255.767 782.495 262.961 782.495 L284.477 782.495 L284.477 788.384 L263.151 788.384 Q258.027 788.384 255.544 790.198 Q253.062 792.012 253.062 795.736 Q253.062 800.288 256.086 802.929 Q259.109 805.571 264.329 805.571 L284.477 805.571 L284.477 811.459 L263.151 811.459 Q257.995 811.459 255.544 813.274 Q253.062 815.088 253.062 818.876 Q253.062 823.363 256.117 826.005 Q259.141 828.647 264.329 828.647 L284.477 828.647 L284.477 834.535 L248.829 834.535 L248.829 828.647 L254.367 828.647 Q251.088 826.642 249.529 823.841 Q247.969 821.04 247.969 817.189 Q247.969 813.306 249.943 810.6 Q251.916 807.863 255.672 806.558 Z" fill="#000000" fill-rule="nonzero" fill-opacity="1" /><path clip-path="url(#clip340)" d="M265.189 740.323 L268.053 740.323 L268.053 767.25 Q274.1 766.868 277.283 763.621 Q280.434 760.343 280.434 754.518 Q280.434 751.144 279.607 747.993 Q278.779 744.811 277.124 741.691 L282.662 741.691 Q283.999 744.842 284.699 748.153 Q285.4 751.463 285.4 754.868 Q285.4 763.398 280.434 768.395 Q275.469 773.361 267.003 773.361 Q258.25 773.361 253.125 768.65 Q247.969 763.908 247.969 755.887 Q247.969 748.694 252.616 744.524 Q257.231 740.323 265.189 740.323 M263.47 746.179 Q258.664 746.243 255.799 748.885 Q252.935 751.495 252.935 755.823 Q252.935 760.725 255.704 763.685 Q258.473 766.613 263.502 767.059 L263.47 746.179 Z" fill="#000000" fill-rule="nonzero" fill-opacity="1" /><path clip-path="url(#clip340)" d="M235.015 695.922 Q242.336 700.187 249.497 702.256 Q256.658 704.325 264.011 704.325 Q271.363 704.325 278.588 702.256 Q285.782 700.155 293.07 695.922 L293.07 701.014 Q285.591 705.789 278.366 708.176 Q271.14 710.531 264.011 710.531 Q256.913 710.531 249.72 708.176 Q242.527 705.821 235.015 701.014 L235.015 695.922 Z" fill="#000000" fill-rule="nonzero" fill-opacity="1" /><path clip-path="url(#clip340)" d="M255.672 656.805 Q251.725 654.608 249.847 651.553 Q247.969 648.497 247.969 644.36 Q247.969 638.79 251.884 635.766 Q255.767 632.742 262.961 632.742 L284.477 632.742 L284.477 638.631 L263.151 638.631 Q258.027 638.631 255.544 640.445 Q253.062 642.259 253.062 645.983 Q253.062 650.534 256.086 653.176 Q259.109 655.818 264.329 655.818 L284.477 655.818 L284.477 661.706 L263.151 661.706 Q257.995 661.706 255.544 663.52 Q253.062 665.335 253.062 669.122 Q253.062 673.61 256.117 676.252 Q259.141 678.894 264.329 678.894 L284.477 678.894 L284.477 684.782 L248.829 684.782 L248.829 678.894 L254.367 678.894 Q251.088 676.888 249.529 674.088 Q247.969 671.287 247.969 667.435 Q247.969 663.552 249.943 660.847 Q251.916 658.11 255.672 656.805 Z" fill="#000000" fill-rule="nonzero" fill-opacity="1" /><path clip-path="url(#clip340)" d="M249.879 598.336 L255.417 598.336 Q254.144 600.818 253.507 603.492 Q252.871 606.165 252.871 609.03 Q252.871 613.39 254.208 615.587 Q255.544 617.751 258.218 617.751 Q260.255 617.751 261.433 616.191 Q262.579 614.632 263.629 609.921 L264.075 607.916 Q265.411 601.678 267.862 599.068 Q270.281 596.426 274.642 596.426 Q279.607 596.426 282.503 600.373 Q285.4 604.288 285.4 611.163 Q285.4 614.027 284.827 617.146 Q284.286 620.234 283.172 623.671 L277.124 623.671 Q278.811 620.425 279.67 617.274 Q280.498 614.123 280.498 611.035 Q280.498 606.897 279.098 604.669 Q277.665 602.441 275.087 602.441 Q272.7 602.441 271.427 604.065 Q270.154 605.656 268.976 611.099 L268.499 613.136 Q267.353 618.579 264.998 620.998 Q262.61 623.416 258.473 623.416 Q253.444 623.416 250.707 619.852 Q247.969 616.287 247.969 609.73 Q247.969 606.484 248.447 603.619 Q248.924 600.755 249.879 598.336 Z" fill="#000000" fill-rule="nonzero" fill-opacity="1" /><path clip-path="url(#clip340)" d="M235.015 588.023 L235.015 582.931 Q242.527 578.156 249.72 575.801 Q256.913 573.414 264.011 573.414 Q271.14 573.414 278.366 575.801 Q285.591 578.156 293.07 582.931 L293.07 588.023 Q285.782 583.79 278.588 581.721 Q271.363 579.62 264.011 579.62 Q256.658 579.62 249.497 581.721 Q242.336 583.79 235.015 588.023 Z" fill="#000000" fill-rule="nonzero" fill-opacity="1" /><path clip-path="url(#clip340)" d="M888.278 33.264 L923.035 33.264 L923.035 40.1505 L896.461 40.1505 L896.461 57.9745 L920.442 57.9745 L920.442 64.8611 L896.461 64.8611 L896.461 93.744 L888.278 93.744 L888.278 33.264 Z" fill="#000000" fill-rule="nonzero" fill-opacity="1" /><path clip-path="url(#clip340)" d="M950.297 53.5995 Q944.302 53.5995 940.818 58.2986 Q937.334 62.9571 937.334 71.0994 Q937.334 79.2418 940.778 83.9408 Q944.261 88.5994 950.297 88.5994 Q956.252 88.5994 959.736 83.9003 Q963.22 79.2013 963.22 71.0994 Q963.22 63.0381 959.736 58.3391 Q956.252 53.5995 950.297 53.5995 M950.297 47.2801 Q960.019 47.2801 965.569 53.5995 Q971.119 59.9189 971.119 71.0994 Q971.119 82.2394 965.569 88.5994 Q960.019 94.9188 950.297 94.9188 Q940.535 94.9188 934.985 88.5994 Q929.476 82.2394 929.476 71.0994 Q929.476 59.9189 934.985 53.5995 Q940.535 47.2801 950.297 47.2801 Z" fill="#000000" fill-rule="nonzero" fill-opacity="1" /><path clip-path="url(#clip340)" d="M1009.76 55.3414 Q1008.51 54.6123 1007.01 54.2882 Q1005.55 53.9236 1003.77 53.9236 Q997.45 53.9236 994.047 58.0555 Q990.685 62.1469 990.685 69.8437 L990.685 93.744 L983.191 93.744 L983.191 48.3739 L990.685 48.3739 L990.685 55.4224 Q993.034 51.2905 996.802 49.3056 Q1000.57 47.2801 1005.96 47.2801 Q1006.73 47.2801 1007.66 47.4017 Q1008.59 47.4827 1009.72 47.6852 L1009.76 55.3414 Z" fill="#000000" fill-rule="nonzero" fill-opacity="1" /><path clip-path="url(#clip340)" d="M1013.25 48.3739 L1020.7 48.3739 L1030.02 83.7788 L1039.3 48.3739 L1048.09 48.3739 L1057.4 83.7788 L1066.68 48.3739 L1074.13 48.3739 L1062.26 93.744 L1053.47 93.744 L1043.71 56.5567 L1033.91 93.744 L1025.12 93.744 L1013.25 48.3739 Z" fill="#000000" fill-rule="nonzero" fill-opacity="1" /><path clip-path="url(#clip340)" d="M1106.05 70.9374 Q1097.02 70.9374 1093.54 73.0034 Q1090.05 75.0693 1090.05 80.0519 Q1090.05 84.0218 1092.65 86.3714 Q1095.28 88.6804 1099.78 88.6804 Q1105.97 88.6804 1109.7 84.3054 Q1113.47 79.8899 1113.47 72.5983 L1113.47 70.9374 L1106.05 70.9374 M1120.92 67.8587 L1120.92 93.744 L1113.47 93.744 L1113.47 86.8575 Q1110.92 90.9894 1107.11 92.9743 Q1103.3 94.9188 1097.79 94.9188 Q1090.82 94.9188 1086.69 91.0299 Q1082.6 87.1005 1082.6 80.5381 Q1082.6 72.8818 1087.7 68.993 Q1092.85 65.1041 1103.02 65.1041 L1113.47 65.1041 L1113.47 64.3749 Q1113.47 59.2303 1110.06 56.4352 Q1106.7 53.5995 1100.59 53.5995 Q1096.7 53.5995 1093.01 54.5312 Q1089.32 55.463 1085.92 57.3264 L1085.92 50.4398 Q1090.01 48.86 1093.86 48.0903 Q1097.71 47.2801 1101.36 47.2801 Q1111.2 47.2801 1116.06 52.3843 Q1120.92 57.4884 1120.92 67.8587 Z" fill="#000000" fill-rule="nonzero" fill-opacity="1" /><path clip-path="url(#clip340)" d="M1162.56 55.3414 Q1161.31 54.6123 1159.81 54.2882 Q1158.35 53.9236 1156.57 53.9236 Q1150.25 53.9236 1146.85 58.0555 Q1143.48 62.1469 1143.48 69.8437 L1143.48 93.744 L1135.99 93.744 L1135.99 48.3739 L1143.48 48.3739 L1143.48 55.4224 Q1145.83 51.2905 1149.6 49.3056 Q1153.37 47.2801 1158.76 47.2801 Q1159.53 47.2801 1160.46 47.4017 Q1161.39 47.4827 1162.52 47.6852 L1162.56 55.3414 Z" fill="#000000" fill-rule="nonzero" fill-opacity="1" /><path clip-path="url(#clip340)" d="M1198.78 55.2604 L1198.78 30.7119 L1206.23 30.7119 L1206.23 93.744 L1198.78 93.744 L1198.78 86.9385 Q1196.43 90.9894 1192.82 92.9743 Q1189.26 94.9188 1184.24 94.9188 Q1176.01 94.9188 1170.83 88.3563 Q1165.68 81.7938 1165.68 71.0994 Q1165.68 60.4051 1170.83 53.8426 Q1176.01 47.2801 1184.24 47.2801 Q1189.26 47.2801 1192.82 49.2651 Q1196.43 51.2095 1198.78 55.2604 M1173.38 71.0994 Q1173.38 79.3228 1176.74 84.0218 Q1180.15 88.6804 1186.06 88.6804 Q1191.97 88.6804 1195.38 84.0218 Q1198.78 79.3228 1198.78 71.0994 Q1198.78 62.8761 1195.38 58.2176 Q1191.97 53.5185 1186.06 53.5185 Q1180.15 53.5185 1176.74 58.2176 Q1173.38 62.8761 1173.38 71.0994 Z" fill="#000000" fill-rule="nonzero" fill-opacity="1" /><path clip-path="url(#clip340)" d="M1217.82 67.6967 L1239.65 67.6967 L1239.65 74.3402 L1217.82 74.3402 L1217.82 67.6967 Z" fill="#000000" fill-rule="nonzero" fill-opacity="1" /><path clip-path="url(#clip340)" d="M1257.07 64.8611 L1257.07 87.0195 L1270.2 87.0195 Q1276.8 87.0195 1279.96 84.3054 Q1283.16 81.5508 1283.16 75.92 Q1283.16 70.2488 1279.96 67.5752 Q1276.8 64.8611 1270.2 64.8611 L1257.07 64.8611 M1257.07 39.9885 L1257.07 58.2176 L1269.18 58.2176 Q1275.18 58.2176 1278.1 55.9896 Q1281.05 53.7211 1281.05 49.103 Q1281.05 44.5255 1278.1 42.257 Q1275.18 39.9885 1269.18 39.9885 L1257.07 39.9885 M1248.89 33.264 L1269.79 33.264 Q1279.15 33.264 1284.21 37.1529 Q1289.28 41.0417 1289.28 48.2118 Q1289.28 53.7616 1286.68 57.0428 Q1284.09 60.324 1279.07 61.1342 Q1285.1 62.4305 1288.43 66.5624 Q1291.79 70.6538 1291.79 76.8112 Q1291.79 84.913 1286.28 89.3285 Q1280.77 93.744 1270.6 93.744 L1248.89 93.744 L1248.89 33.264 Z" fill="#000000" fill-rule="nonzero" fill-opacity="1" /><path clip-path="url(#clip340)" d="M1326.1 70.9374 Q1317.07 70.9374 1313.58 73.0034 Q1310.1 75.0693 1310.1 80.0519 Q1310.1 84.0218 1312.69 86.3714 Q1315.32 88.6804 1319.82 88.6804 Q1326.02 88.6804 1329.75 84.3054 Q1333.51 79.8899 1333.51 72.5983 L1333.51 70.9374 L1326.1 70.9374 M1340.97 67.8587 L1340.97 93.744 L1333.51 93.744 L1333.51 86.8575 Q1330.96 90.9894 1327.15 92.9743 Q1323.35 94.9188 1317.84 94.9188 Q1310.87 94.9188 1306.74 91.0299 Q1302.64 87.1005 1302.64 80.5381 Q1302.64 72.8818 1307.75 68.993 Q1312.89 65.1041 1323.06 65.1041 L1333.51 65.1041 L1333.51 64.3749 Q1333.51 59.2303 1330.11 56.4352 Q1326.75 53.5995 1320.63 53.5995 Q1316.74 53.5995 1313.06 54.5312 Q1309.37 55.463 1305.97 57.3264 L1305.97 50.4398 Q1310.06 48.86 1313.91 48.0903 Q1317.75 47.2801 1321.4 47.2801 Q1331.24 47.2801 1336.11 52.3843 Q1340.97 57.4884 1340.97 67.8587 Z" fill="#000000" fill-rule="nonzero" fill-opacity="1" /><path clip-path="url(#clip340)" d="M1388.97 50.1158 L1388.97 57.0833 Q1385.81 55.3414 1382.61 54.4907 Q1379.45 53.5995 1376.21 53.5995 Q1368.96 53.5995 1364.95 58.2176 Q1360.94 62.7951 1360.94 71.0994 Q1360.94 79.4038 1364.95 84.0218 Q1368.96 88.5994 1376.21 88.5994 Q1379.45 88.5994 1382.61 87.7487 Q1385.81 86.8575 1388.97 85.1156 L1388.97 92.0021 Q1385.85 93.4604 1382.49 94.1896 Q1379.17 94.9188 1375.4 94.9188 Q1365.15 94.9188 1359.11 88.4778 Q1353.08 82.0369 1353.08 71.0994 Q1353.08 60 1359.16 53.64 Q1365.27 47.2801 1375.89 47.2801 Q1379.33 47.2801 1382.61 48.0093 Q1385.89 48.6979 1388.97 50.1158 Z" fill="#000000" fill-rule="nonzero" fill-opacity="1" /><path clip-path="url(#clip340)" d="M1401.65 30.7119 L1409.14 30.7119 L1409.14 67.9397 L1431.38 48.3739 L1440.9 48.3739 L1416.84 69.6006 L1441.91 93.744 L1432.19 93.744 L1409.14 71.5856 L1409.14 93.744 L1401.65 93.744 L1401.65 30.7119 Z" fill="#000000" fill-rule="nonzero" fill-opacity="1" /><path clip-path="url(#clip340)" d="M1445.64 48.3739 L1453.1 48.3739 L1462.41 83.7788 L1471.69 48.3739 L1480.48 48.3739 L1489.8 83.7788 L1499.07 48.3739 L1506.53 48.3739 L1494.66 93.744 L1485.87 93.744 L1476.1 56.5567 L1466.3 93.744 L1457.51 93.744 L1445.64 48.3739 Z" fill="#000000" fill-rule="nonzero" fill-opacity="1" /><path clip-path="url(#clip340)" d="M1538.45 70.9374 Q1529.41 70.9374 1525.93 73.0034 Q1522.45 75.0693 1522.45 80.0519 Q1522.45 84.0218 1525.04 86.3714 Q1527.67 88.6804 1532.17 88.6804 Q1538.37 88.6804 1542.09 84.3054 Q1545.86 79.8899 1545.86 72.5983 L1545.86 70.9374 L1538.45 70.9374 M1553.31 67.8587 L1553.31 93.744 L1545.86 93.744 L1545.86 86.8575 Q1543.31 90.9894 1539.5 92.9743 Q1535.69 94.9188 1530.18 94.9188 Q1523.22 94.9188 1519.08 91.0299 Q1514.99 87.1005 1514.99 80.5381 Q1514.99 72.8818 1520.1 68.993 Q1525.24 65.1041 1535.41 65.1041 L1545.86 65.1041 L1545.86 64.3749 Q1545.86 59.2303 1542.46 56.4352 Q1539.1 53.5995 1532.98 53.5995 Q1529.09 53.5995 1525.4 54.5312 Q1521.72 55.463 1518.32 57.3264 L1518.32 50.4398 Q1522.41 48.86 1526.25 48.0903 Q1530.1 47.2801 1533.75 47.2801 Q1543.59 47.2801 1548.45 52.3843 Q1553.31 57.4884 1553.31 67.8587 Z" fill="#000000" fill-rule="nonzero" fill-opacity="1" /><path clip-path="url(#clip340)" d="M1594.96 55.3414 Q1593.7 54.6123 1592.2 54.2882 Q1590.75 53.9236 1588.96 53.9236 Q1582.64 53.9236 1579.24 58.0555 Q1575.88 62.1469 1575.88 69.8437 L1575.88 93.744 L1568.38 93.744 L1568.38 48.3739 L1575.88 48.3739 L1575.88 55.4224 Q1578.23 51.2905 1582 49.3056 Q1585.76 47.2801 1591.15 47.2801 Q1591.92 47.2801 1592.85 47.4017 Q1593.78 47.4827 1594.92 47.6852 L1594.96 55.3414 Z" fill="#000000" fill-rule="nonzero" fill-opacity="1" /><path clip-path="url(#clip340)" d="M1631.17 55.2604 L1631.17 30.7119 L1638.63 30.7119 L1638.63 93.744 L1631.17 93.744 L1631.17 86.9385 Q1628.82 90.9894 1625.22 92.9743 Q1621.65 94.9188 1616.63 94.9188 Q1608.41 94.9188 1603.22 88.3563 Q1598.08 81.7938 1598.08 71.0994 Q1598.08 60.4051 1603.22 53.8426 Q1608.41 47.2801 1616.63 47.2801 Q1621.65 47.2801 1625.22 49.2651 Q1628.82 51.2095 1631.17 55.2604 M1605.77 71.0994 Q1605.77 79.3228 1609.14 84.0218 Q1612.54 88.6804 1618.45 88.6804 Q1624.37 88.6804 1627.77 84.0218 Q1631.17 79.3228 1631.17 71.0994 Q1631.17 62.8761 1627.77 58.2176 Q1624.37 53.5185 1618.45 53.5185 Q1612.54 53.5185 1609.14 58.2176 Q1605.77 62.8761 1605.77 71.0994 Z" fill="#000000" fill-rule="nonzero" fill-opacity="1" /><path clip-path="url(#clip340)" d="M883.336 121.513 Q877.908 130.83 875.275 139.945 Q872.641 149.059 872.641 158.417 Q872.641 167.774 875.275 176.97 Q877.948 186.125 883.336 195.401 L876.854 195.401 Q870.778 185.882 867.74 176.686 Q864.742 167.491 864.742 158.417 Q864.742 149.383 867.74 140.228 Q870.738 131.073 876.854 121.513 L883.336 121.513 Z" fill="#000000" fill-rule="nonzero" fill-opacity="1" /><path clip-path="url(#clip340)" d="M906.304 130.709 L906.304 177.739 L916.189 177.739 Q928.706 177.739 934.499 172.068 Q940.332 166.397 940.332 154.163 Q940.332 142.011 934.499 136.38 Q928.706 130.709 916.189 130.709 L906.304 130.709 M898.122 123.984 L914.933 123.984 Q932.514 123.984 940.737 131.316 Q948.96 138.608 948.96 154.163 Q948.96 169.8 940.697 177.132 Q932.433 184.464 914.933 184.464 L898.122 184.464 L898.122 123.984 Z" fill="#000000" fill-rule="nonzero" fill-opacity="1" /><path clip-path="url(#clip340)" d="M962.653 146.791 L1014.59 146.791 L1014.59 153.596 L962.653 153.596 L962.653 146.791 M962.653 163.318 L1014.59 163.318 L1014.59 170.205 L962.653 170.205 L962.653 163.318 Z" fill="#000000" fill-rule="nonzero" fill-opacity="1" /><path clip-path="url(#clip340)" d="M1033.66 177.577 L1047.03 177.577 L1047.03 131.438 L1032.49 134.354 L1032.49 126.901 L1046.95 123.984 L1055.13 123.984 L1055.13 177.577 L1068.5 177.577 L1068.5 184.464 L1033.66 184.464 L1033.66 177.577 Z" fill="#000000" fill-rule="nonzero" fill-opacity="1" /><path clip-path="url(#clip340)" d="M1085.88 174.175 L1094.43 174.175 L1094.43 181.142 L1087.78 194.105 L1082.56 194.105 L1085.88 181.142 L1085.88 174.175 Z" fill="#000000" fill-rule="nonzero" fill-opacity="1" /><path clip-path="url(#clip340)" d="M1102.29 123.984 L1153.45 123.984 L1153.45 130.871 L1131.98 130.871 L1131.98 184.464 L1123.76 184.464 L1123.76 130.871 L1102.29 130.871 L1102.29 123.984 Z" fill="#000000" fill-rule="nonzero" fill-opacity="1" /><path clip-path="url(#clip340)" d="M1162 146.791 L1213.93 146.791 L1213.93 153.596 L1162 153.596 L1162 146.791 M1162 163.318 L1213.93 163.318 L1213.93 170.205 L1162 170.205 L1162 163.318 Z" fill="#000000" fill-rule="nonzero" fill-opacity="1" /><path clip-path="url(#clip340)" d="M1233.01 177.577 L1246.38 177.577 L1246.38 131.438 L1231.84 134.354 L1231.84 126.901 L1246.3 123.984 L1254.48 123.984 L1254.48 177.577 L1267.85 177.577 L1267.85 184.464 L1233.01 184.464 L1233.01 177.577 Z" fill="#000000" fill-rule="nonzero" fill-opacity="1" /><path clip-path="url(#clip340)" d="M1301.88 129.372 Q1295.56 129.372 1292.36 135.61 Q1289.2 141.808 1289.2 154.285 Q1289.2 166.721 1292.36 172.959 Q1295.56 179.157 1301.88 179.157 Q1308.24 179.157 1311.39 172.959 Q1314.6 166.721 1314.6 154.285 Q1314.6 141.808 1311.39 135.61 Q1308.24 129.372 1301.88 129.372 M1301.88 122.89 Q1312.04 122.89 1317.39 130.952 Q1322.78 138.972 1322.78 154.285 Q1322.78 169.557 1317.39 177.618 Q1312.04 185.639 1301.88 185.639 Q1291.71 185.639 1286.32 177.618 Q1280.97 169.557 1280.97 154.285 Q1280.97 138.972 1286.32 130.952 Q1291.71 122.89 1301.88 122.89 Z" fill="#000000" fill-rule="nonzero" fill-opacity="1" /><path clip-path="url(#clip340)" d="M1354.66 129.372 Q1348.34 129.372 1345.14 135.61 Q1341.98 141.808 1341.98 154.285 Q1341.98 166.721 1345.14 172.959 Q1348.34 179.157 1354.66 179.157 Q1361.02 179.157 1364.18 172.959 Q1367.38 166.721 1367.38 154.285 Q1367.38 141.808 1364.18 135.61 Q1361.02 129.372 1354.66 129.372 M1354.66 122.89 Q1364.83 122.89 1370.17 130.952 Q1375.56 138.972 1375.56 154.285 Q1375.56 169.557 1370.17 177.618 Q1364.83 185.639 1354.66 185.639 Q1344.49 185.639 1339.1 177.618 Q1333.76 169.557 1333.76 154.285 Q1333.76 138.972 1339.1 130.952 Q1344.49 122.89 1354.66 122.89 Z" fill="#000000" fill-rule="nonzero" fill-opacity="1" /><path clip-path="url(#clip340)" d="M1407.44 129.372 Q1401.12 129.372 1397.92 135.61 Q1394.76 141.808 1394.76 154.285 Q1394.76 166.721 1397.92 172.959 Q1401.12 179.157 1407.44 179.157 Q1413.8 179.157 1416.96 172.959 Q1420.16 166.721 1420.16 154.285 Q1420.16 141.808 1416.96 135.61 Q1413.8 129.372 1407.44 129.372 M1407.44 122.89 Q1417.61 122.89 1422.96 130.952 Q1428.34 138.972 1428.34 154.285 Q1428.34 169.557 1422.96 177.618 Q1417.61 185.639 1407.44 185.639 Q1397.27 185.639 1391.89 177.618 Q1386.54 169.557 1386.54 154.285 Q1386.54 138.972 1391.89 130.952 Q1397.27 122.89 1407.44 122.89 Z" fill="#000000" fill-rule="nonzero" fill-opacity="1" /><path clip-path="url(#clip340)" d="M1443.58 174.175 L1452.12 174.175 L1452.12 181.142 L1445.48 194.105 L1440.25 194.105 L1443.58 181.142 L1443.58 174.175 Z" fill="#000000" fill-rule="nonzero" fill-opacity="1" /><path clip-path="url(#clip340)" d="M1468.37 123.984 L1476.55 123.984 L1476.55 149.545 L1503.69 123.984 L1514.22 123.984 L1484.21 152.178 L1516.37 184.464 L1505.6 184.464 L1476.55 155.338 L1476.55 184.464 L1468.37 184.464 L1468.37 123.984 Z" fill="#000000" fill-rule="nonzero" fill-opacity="1" /><path clip-path="url(#clip340)" d="M1523.42 146.791 L1575.35 146.791 L1575.35 153.596 L1523.42 153.596 L1523.42 146.791 M1523.42 163.318 L1575.35 163.318 L1575.35 170.205 L1523.42 170.205 L1523.42 163.318 Z" fill="#000000" fill-rule="nonzero" fill-opacity="1" /><path clip-path="url(#clip340)" d="M1594.43 177.577 L1607.8 177.577 L1607.8 131.438 L1593.26 134.354 L1593.26 126.901 L1607.72 123.984 L1615.9 123.984 L1615.9 177.577 L1629.27 177.577 L1629.27 184.464 L1594.43 184.464 L1594.43 177.577 Z" fill="#000000" fill-rule="nonzero" fill-opacity="1" /><path clip-path="url(#clip340)" d="M1643.57 121.513 L1650.05 121.513 Q1656.13 131.073 1659.12 140.228 Q1662.16 149.383 1662.16 158.417 Q1662.16 167.491 1659.12 176.686 Q1656.13 185.882 1650.05 195.401 L1643.57 195.401 Q1648.96 186.125 1651.59 176.97 Q1654.26 167.774 1654.26 158.417 Q1654.26 149.059 1651.59 139.945 Q1648.96 130.83 1643.57 121.513 Z" fill="#000000" fill-rule="nonzero" fill-opacity="1" /><polyline clip-path="url(#clip342)" style="stroke:#ffa500; stroke-linecap:round; stroke-linejoin:round; stroke-width:6; stroke-opacity:1; fill:none" stroke-dasharray="24, 15" points="481.504,1130.44 742.154,1020.12 1002.8,922.191 1263.45,801.09 1524.1,674.617 1784.75,540.565 2045.4,404.425 "/>
<path clip-path="url(#clip342)" d="M465.504 1114.44 L465.504 1146.44 L497.504 1146.44 L497.504 1114.44 L465.504 1114.44 Z" fill="#ffa500" fill-rule="evenodd" fill-opacity="1" stroke="#000000" stroke-opacity="1" stroke-width="3.2"/>
<path clip-path="url(#clip342)" d="M726.154 1004.12 L726.154 1036.12 L758.154 1036.12 L758.154 1004.12 L726.154 1004.12 Z" fill="#ffa500" fill-rule="evenodd" fill-opacity="1" stroke="#000000" stroke-opacity="1" stroke-width="3.2"/>
<path clip-path="url(#clip342)" d="M986.803 906.191 L986.803 938.191 L1018.8 938.191 L1018.8 906.191 L986.803 906.191 Z" fill="#ffa500" fill-rule="evenodd" fill-opacity="1" stroke="#000000" stroke-opacity="1" stroke-width="3.2"/>
<path clip-path="url(#clip342)" d="M1247.45 785.09 L1247.45 817.09 L1279.45 817.09 L1279.45 785.09 L1247.45 785.09 Z" fill="#ffa500" fill-rule="evenodd" fill-opacity="1" stroke="#000000" stroke-opacity="1" stroke-width="3.2"/>
<path clip-path="url(#clip342)" d="M1508.1 658.617 L1508.1 690.617 L1540.1 690.617 L1540.1 658.617 L1508.1 658.617 Z" fill="#ffa500" fill-rule="evenodd" fill-opacity="1" stroke="#000000" stroke-opacity="1" stroke-width="3.2"/>
<path clip-path="url(#clip342)" d="M1768.75 524.565 L1768.75 556.565 L1800.75 556.565 L1800.75 524.565 L1768.75 524.565 Z" fill="#ffa500" fill-rule="evenodd" fill-opacity="1" stroke="#000000" stroke-opacity="1" stroke-width="3.2"/>
<path clip-path="url(#clip342)" d="M2029.4 388.425 L2029.4 420.425 L2061.4 420.425 L2061.4 388.425 L2029.4 388.425 Z" fill="#ffa500" fill-rule="evenodd" fill-opacity="1" stroke="#000000" stroke-opacity="1" stroke-width="3.2"/>
<polyline clip-path="url(#clip342)" style="stroke:#0000ff; stroke-linecap:round; stroke-linejoin:round; stroke-width:6; stroke-opacity:1; fill:none" points="481.504,1161.4 742.154,1132.56 1002.8,1102.4 1263.45,1061.42 1524.1,1028.21 1784.75,999.187 2045.4,957.426 "/>
<circle clip-path="url(#clip342)" cx="481.504" cy="1161.4" r="14.4" fill="#0000ff" fill-rule="evenodd" fill-opacity="1" stroke="#000000" stroke-opacity="1" stroke-width="3.2"/>
<circle clip-path="url(#clip342)" cx="742.154" cy="1132.56" r="14.4" fill="#0000ff" fill-rule="evenodd" fill-opacity="1" stroke="#000000" stroke-opacity="1" stroke-width="3.2"/>
<circle clip-path="url(#clip342)" cx="1002.8" cy="1102.4" r="14.4" fill="#0000ff" fill-rule="evenodd" fill-opacity="1" stroke="#000000" stroke-opacity="1" stroke-width="3.2"/>
<circle clip-path="url(#clip342)" cx="1263.45" cy="1061.42" r="14.4" fill="#0000ff" fill-rule="evenodd" fill-opacity="1" stroke="#000000" stroke-opacity="1" stroke-width="3.2"/>
<circle clip-path="url(#clip342)" cx="1524.1" cy="1028.21" r="14.4" fill="#0000ff" fill-rule="evenodd" fill-opacity="1" stroke="#000000" stroke-opacity="1" stroke-width="3.2"/>
<circle clip-path="url(#clip342)" cx="1784.75" cy="999.187" r="14.4" fill="#0000ff" fill-rule="evenodd" fill-opacity="1" stroke="#000000" stroke-opacity="1" stroke-width="3.2"/>
<circle clip-path="url(#clip342)" cx="2045.4" cy="957.426" r="14.4" fill="#0000ff" fill-rule="evenodd" fill-opacity="1" stroke="#000000" stroke-opacity="1" stroke-width="3.2"/>
<polyline clip-path="url(#clip342)" style="stroke:#008000; stroke-linecap:round; stroke-linejoin:round; stroke-width:6; stroke-opacity:1; fill:none" stroke-dasharray="24, 12, 3, 12" points="481.504,1166.79 742.154,1124.07 1002.8,1087.35 1263.45,1027.76 1524.1,960.612 1784.75,875.191 2045.4,788.09 "/>
<path clip-path="url(#clip342)" d="M497.504 1150.79 L465.504 1150.79 L481.504 1182.79 L497.504 1150.79 Z" fill="#008000" fill-rule="evenodd" fill-opacity="1" stroke="#000000" stroke-opacity="1" stroke-width="3.2"/>
<path clip-path="url(#clip342)" d="M758.154 1108.07 L726.154 1108.07 L742.154 1140.07 L758.154 1108.07 Z" fill="#008000" fill-rule="evenodd" fill-opacity="1" stroke="#000000" stroke-opacity="1" stroke-width="3.2"/>
<path clip-path="url(#clip342)" d="M1018.8 1071.35 L986.803 1071.35 L1002.8 1103.35 L1018.8 1071.35 Z" fill="#008000" fill-rule="evenodd" fill-opacity="1" stroke="#000000" stroke-opacity="1" stroke-width="3.2"/>
<path clip-path="url(#clip342)" d="M1279.45 1011.76 L1247.45 1011.76 L1263.45 1043.76 L1279.45 1011.76 Z" fill="#008000" fill-rule="evenodd" fill-opacity="1" stroke="#000000" stroke-opacity="1" stroke-width="3.2"/>
<path clip-path="url(#clip342)" d="M1540.1 944.612 L1508.1 944.612 L1524.1 976.612 L1540.1 944.612 Z" fill="#008000" fill-rule="evenodd" fill-opacity="1" stroke="#000000" stroke-opacity="1" stroke-width="3.2"/>
<path clip-path="url(#clip342)" d="M1800.75 859.191 L1768.75 859.191 L1784.75 891.191 L1800.75 859.191 Z" fill="#008000" fill-rule="evenodd" fill-opacity="1" stroke="#000000" stroke-opacity="1" stroke-width="3.2"/>
<path clip-path="url(#clip342)" d="M2061.4 772.09 L2029.4 772.09 L2045.4 804.09 L2061.4 772.09 Z" fill="#008000" fill-rule="evenodd" fill-opacity="1" stroke="#000000" stroke-opacity="1" stroke-width="3.2"/>
<path clip-path="url(#clip340)" d="M452.543 638.394 L891.517 638.394 L891.517 431.034 L452.543 431.034  Z" fill="#ffffff" fill-rule="evenodd" fill-opacity="1"/>
<polyline clip-path="url(#clip340)" style="stroke:#000000; stroke-linecap:round; stroke-linejoin:round; stroke-width:4; stroke-opacity:1; fill:none" points="452.543,638.394 891.517,638.394 891.517,431.034 452.543,431.034 452.543,638.394 "/>
<polyline clip-path="url(#clip340)" style="stroke:#ffa500; stroke-linecap:round; stroke-linejoin:round; stroke-width:6; stroke-opacity:1; fill:none" stroke-dasharray="24, 15" points="471.851,482.874 587.695,482.874 "/>
<path clip-path="url(#clip340)" d="M511.896 464.997 L511.896 500.751 L547.65 500.751 L547.65 464.997 L511.896 464.997 Z" fill="#ffa500" fill-rule="evenodd" fill-opacity="1" stroke="#000000" stroke-opacity="1" stroke-width="4.55111"/>
<path clip-path="url(#clip340)" d="M607.002 465.594 L611.678 465.594 L611.678 479.761 L628.669 479.761 L628.669 465.594 L633.345 465.594 L633.345 500.154 L628.669 500.154 L628.669 483.696 L611.678 483.696 L611.678 500.154 L607.002 500.154 L607.002 465.594 Z" fill="#000000" fill-rule="nonzero" fill-opacity="1" /><path clip-path="url(#clip340)" d="M642.65 465.594 L649.618 465.594 L658.437 489.112 L667.303 465.594 L674.27 465.594 L674.27 500.154 L669.71 500.154 L669.71 469.807 L660.798 493.511 L656.099 493.511 L647.187 469.807 L647.187 500.154 L642.65 500.154 L642.65 465.594 Z" fill="#000000" fill-rule="nonzero" fill-opacity="1" /><path clip-path="url(#clip340)" d="M683.553 465.594 L690.52 465.594 L699.34 489.112 L708.205 465.594 L715.173 465.594 L715.173 500.154 L710.613 500.154 L710.613 469.807 L701.701 493.511 L697.002 493.511 L688.09 469.807 L688.09 500.154 L683.553 500.154 L683.553 465.594 Z" fill="#000000" fill-rule="nonzero" fill-opacity="1" /><path clip-path="url(#clip340)" d="M729.131 483.649 L729.131 496.311 L736.631 496.311 Q740.404 496.311 742.21 494.761 Q744.039 493.186 744.039 489.969 Q744.039 486.728 742.21 485.2 Q740.404 483.649 736.631 483.649 L729.131 483.649 M729.131 469.437 L729.131 479.853 L736.053 479.853 Q739.478 479.853 741.145 478.58 Q742.835 477.284 742.835 474.645 Q742.835 472.029 741.145 470.733 Q739.478 469.437 736.053 469.437 L729.131 469.437 M724.455 465.594 L736.4 465.594 Q741.747 465.594 744.64 467.816 Q747.534 470.038 747.534 474.136 Q747.534 477.307 746.052 479.182 Q744.571 481.057 741.701 481.52 Q745.15 482.261 747.048 484.622 Q748.969 486.96 748.969 490.478 Q748.969 495.108 745.821 497.631 Q742.673 500.154 736.863 500.154 L724.455 500.154 L724.455 465.594 Z" fill="#000000" fill-rule="nonzero" fill-opacity="1" /><path clip-path="url(#clip340)" d="M768.575 487.122 Q763.413 487.122 761.423 488.302 Q759.432 489.483 759.432 492.33 Q759.432 494.598 760.913 495.941 Q762.418 497.26 764.988 497.26 Q768.529 497.26 770.659 494.761 Q772.812 492.237 772.812 488.071 L772.812 487.122 L768.575 487.122 M777.071 485.362 L777.071 500.154 L772.812 500.154 L772.812 496.219 Q771.353 498.58 769.177 499.714 Q767.001 500.825 763.853 500.825 Q759.872 500.825 757.511 498.603 Q755.173 496.358 755.173 492.608 Q755.173 488.233 758.089 486.011 Q761.029 483.788 766.839 483.788 L772.812 483.788 L772.812 483.372 Q772.812 480.432 770.867 478.835 Q768.946 477.214 765.451 477.214 Q763.228 477.214 761.122 477.747 Q759.015 478.279 757.071 479.344 L757.071 475.409 Q759.409 474.506 761.608 474.066 Q763.807 473.603 765.89 473.603 Q771.515 473.603 774.293 476.52 Q777.071 479.437 777.071 485.362 Z" fill="#000000" fill-rule="nonzero" fill-opacity="1" /><path clip-path="url(#clip340)" d="M802.372 474.992 L802.372 479.02 Q800.566 478.094 798.622 477.631 Q796.677 477.168 794.594 477.168 Q791.423 477.168 789.825 478.14 Q788.251 479.112 788.251 481.057 Q788.251 482.538 789.386 483.395 Q790.52 484.228 793.946 484.992 L795.404 485.316 Q799.941 486.288 801.839 488.071 Q803.76 489.83 803.76 493.001 Q803.76 496.612 800.89 498.719 Q798.043 500.825 793.043 500.825 Q790.96 500.825 788.691 500.409 Q786.446 500.015 783.946 499.205 L783.946 494.807 Q786.307 496.034 788.599 496.659 Q790.89 497.26 793.136 497.26 Q796.145 497.26 797.765 496.242 Q799.386 495.2 799.386 493.325 Q799.386 491.589 798.205 490.663 Q797.048 489.737 793.089 488.881 L791.608 488.534 Q787.649 487.7 785.89 485.987 Q784.131 484.251 784.131 481.242 Q784.131 477.585 786.724 475.594 Q789.316 473.603 794.085 473.603 Q796.446 473.603 798.529 473.95 Q800.612 474.298 802.372 474.992 Z" fill="#000000" fill-rule="nonzero" fill-opacity="1" /><path clip-path="url(#clip340)" d="M832.719 486.126 L832.719 488.21 L813.135 488.21 Q813.413 492.608 815.774 494.923 Q818.159 497.214 822.395 497.214 Q824.848 497.214 827.14 496.612 Q829.455 496.01 831.723 494.807 L831.723 498.835 Q829.432 499.807 827.024 500.316 Q824.617 500.825 822.14 500.825 Q815.936 500.825 812.302 497.214 Q808.691 493.603 808.691 487.446 Q808.691 481.08 812.117 477.353 Q815.566 473.603 821.399 473.603 Q826.631 473.603 829.663 476.983 Q832.719 480.339 832.719 486.126 M828.459 484.876 Q828.413 481.381 826.492 479.298 Q824.594 477.214 821.446 477.214 Q817.881 477.214 815.728 479.228 Q813.598 481.242 813.274 484.899 L828.459 484.876 Z" fill="#000000" fill-rule="nonzero" fill-opacity="1" /><path clip-path="url(#clip340)" d="M840.311 494.274 L845.195 494.274 L845.195 500.154 L840.311 500.154 L840.311 494.274 Z" fill="#000000" fill-rule="nonzero" fill-opacity="1" /><path clip-path="url(#clip340)" d="M854.779 474.228 L859.038 474.228 L859.038 500.617 Q859.038 505.571 857.14 507.793 Q855.265 510.015 851.075 510.015 L849.455 510.015 L849.455 506.404 L850.589 506.404 Q853.019 506.404 853.899 505.27 Q854.779 504.159 854.779 500.617 L854.779 474.228 M854.779 464.136 L859.038 464.136 L859.038 469.529 L854.779 469.529 L854.779 464.136 Z" fill="#000000" fill-rule="nonzero" fill-opacity="1" /><path clip-path="url(#clip340)" d="M867.95 464.136 L872.209 464.136 L872.209 500.154 L867.95 500.154 L867.95 464.136 Z" fill="#000000" fill-rule="nonzero" fill-opacity="1" /><polyline clip-path="url(#clip340)" style="stroke:#0000ff; stroke-linecap:round; stroke-linejoin:round; stroke-width:6; stroke-opacity:1; fill:none" points="471.851,534.714 587.695,534.714 "/>
<circle clip-path="url(#clip340)" cx="529.773" cy="534.714" r="16.0895" fill="#0000ff" fill-rule="evenodd" fill-opacity="1" stroke="#000000" stroke-opacity="1" stroke-width="4.55111"/>
<path clip-path="url(#clip340)" d="M607.002 517.434 L611.678 517.434 L611.678 531.601 L628.669 531.601 L628.669 517.434 L633.345 517.434 L633.345 551.994 L628.669 551.994 L628.669 535.536 L611.678 535.536 L611.678 551.994 L607.002 551.994 L607.002 517.434 Z" fill="#000000" fill-rule="nonzero" fill-opacity="1" /><path clip-path="url(#clip340)" d="M642.65 517.434 L649.618 517.434 L658.437 540.952 L667.303 517.434 L674.27 517.434 L674.27 551.994 L669.71 551.994 L669.71 521.647 L660.798 545.351 L656.099 545.351 L647.187 521.647 L647.187 551.994 L642.65 551.994 L642.65 517.434 Z" fill="#000000" fill-rule="nonzero" fill-opacity="1" /><path clip-path="url(#clip340)" d="M683.553 517.434 L690.52 517.434 L699.34 540.952 L708.205 517.434 L715.173 517.434 L715.173 551.994 L710.613 551.994 L710.613 521.647 L701.701 545.351 L697.002 545.351 L688.09 521.647 L688.09 551.994 L683.553 551.994 L683.553 517.434 Z" fill="#000000" fill-rule="nonzero" fill-opacity="1" /><path clip-path="url(#clip340)" d="M740.798 526.832 L740.798 530.86 Q738.992 529.934 737.048 529.471 Q735.103 529.008 733.02 529.008 Q729.849 529.008 728.252 529.98 Q726.678 530.952 726.678 532.897 Q726.678 534.378 727.812 535.235 Q728.946 536.068 732.372 536.832 L733.83 537.156 Q738.367 538.128 740.265 539.911 Q742.187 541.67 742.187 544.841 Q742.187 548.452 739.316 550.559 Q736.469 552.665 731.469 552.665 Q729.386 552.665 727.117 552.249 Q724.872 551.855 722.372 551.045 L722.372 546.647 Q724.733 547.874 727.025 548.499 Q729.316 549.1 731.562 549.1 Q734.571 549.1 736.191 548.082 Q737.812 547.04 737.812 545.165 Q737.812 543.429 736.631 542.503 Q735.474 541.577 731.516 540.721 L730.034 540.374 Q726.076 539.54 724.316 537.827 Q722.557 536.091 722.557 533.082 Q722.557 529.425 725.15 527.434 Q727.742 525.443 732.511 525.443 Q734.872 525.443 736.955 525.79 Q739.039 526.138 740.798 526.832 Z" fill="#000000" fill-rule="nonzero" fill-opacity="1" /><path clip-path="url(#clip340)" d="M749.571 546.114 L754.455 546.114 L754.455 551.994 L749.571 551.994 L749.571 546.114 Z" fill="#000000" fill-rule="nonzero" fill-opacity="1" /><path clip-path="url(#clip340)" d="M764.038 526.068 L768.298 526.068 L768.298 552.457 Q768.298 557.411 766.4 559.633 Q764.525 561.855 760.335 561.855 L758.714 561.855 L758.714 558.244 L759.849 558.244 Q762.279 558.244 763.159 557.11 Q764.038 555.999 764.038 552.457 L764.038 526.068 M764.038 515.976 L768.298 515.976 L768.298 521.369 L764.038 521.369 L764.038 515.976 Z" fill="#000000" fill-rule="nonzero" fill-opacity="1" /><path clip-path="url(#clip340)" d="M777.21 515.976 L781.469 515.976 L781.469 551.994 L777.21 551.994 L777.21 515.976 Z" fill="#000000" fill-rule="nonzero" fill-opacity="1" /><polyline clip-path="url(#clip340)" style="stroke:#008000; stroke-linecap:round; stroke-linejoin:round; stroke-width:6; stroke-opacity:1; fill:none" stroke-dasharray="24, 12, 3, 12" points="471.851,586.554 587.695,586.554 "/>
<path clip-path="url(#clip340)" d="M547.65 568.677 L511.896 568.677 L529.773 604.431 L547.65 568.677 Z" fill="#008000" fill-rule="evenodd" fill-opacity="1" stroke="#000000" stroke-opacity="1" stroke-width="4.55111"/>
<path clip-path="url(#clip340)" d="M628.715 588.186 L628.715 603.834 L624.456 603.834 L624.456 588.325 Q624.456 584.644 623.021 582.816 Q621.586 580.987 618.715 580.987 Q615.266 580.987 613.275 583.186 Q611.285 585.385 611.285 589.181 L611.285 603.834 L607.002 603.834 L607.002 567.816 L611.285 567.816 L611.285 581.936 Q612.812 579.598 614.873 578.441 Q616.956 577.283 619.664 577.283 Q624.132 577.283 626.423 580.061 Q628.715 582.816 628.715 588.186 Z" fill="#000000" fill-rule="nonzero" fill-opacity="1" /><path clip-path="url(#clip340)" d="M657.396 582.885 Q658.993 580.015 661.215 578.649 Q663.437 577.283 666.446 577.283 Q670.497 577.283 672.696 580.13 Q674.895 582.954 674.895 588.186 L674.895 603.834 L670.613 603.834 L670.613 588.325 Q670.613 584.598 669.294 582.792 Q667.974 580.987 665.266 580.987 Q661.956 580.987 660.034 583.186 Q658.113 585.385 658.113 589.181 L658.113 603.834 L653.831 603.834 L653.831 588.325 Q653.831 584.575 652.511 582.792 Q651.192 580.987 648.437 580.987 Q645.173 580.987 643.252 583.209 Q641.331 585.408 641.331 589.181 L641.331 603.834 L637.048 603.834 L637.048 577.908 L641.331 577.908 L641.331 581.936 Q642.789 579.552 644.826 578.417 Q646.863 577.283 649.664 577.283 Q652.488 577.283 654.456 578.718 Q656.446 580.154 657.396 582.885 Z" fill="#000000" fill-rule="nonzero" fill-opacity="1" /><path clip-path="url(#clip340)" d="M703.576 582.885 Q705.173 580.015 707.395 578.649 Q709.617 577.283 712.627 577.283 Q716.678 577.283 718.877 580.13 Q721.076 582.954 721.076 588.186 L721.076 603.834 L716.793 603.834 L716.793 588.325 Q716.793 584.598 715.474 582.792 Q714.154 580.987 711.446 580.987 Q708.136 580.987 706.215 583.186 Q704.293 585.385 704.293 589.181 L704.293 603.834 L700.011 603.834 L700.011 588.325 Q700.011 584.575 698.692 582.792 Q697.372 580.987 694.618 580.987 Q691.354 580.987 689.432 583.209 Q687.511 585.408 687.511 589.181 L687.511 603.834 L683.229 603.834 L683.229 577.908 L687.511 577.908 L687.511 581.936 Q688.969 579.552 691.006 578.417 Q693.043 577.283 695.844 577.283 Q698.668 577.283 700.636 578.718 Q702.627 580.154 703.576 582.885 Z" fill="#000000" fill-rule="nonzero" fill-opacity="1" /><path clip-path="url(#clip340)" d="M729.571 567.816 L733.83 567.816 L733.83 603.834 L729.571 603.834 L729.571 567.816 Z" fill="#000000" fill-rule="nonzero" fill-opacity="1" /><path clip-path="url(#clip340)" d="M764.918 589.806 L764.918 591.89 L745.335 591.89 Q745.613 596.288 747.974 598.603 Q750.358 600.894 754.594 600.894 Q757.048 600.894 759.339 600.292 Q761.654 599.69 763.923 598.487 L763.923 602.515 Q761.631 603.487 759.224 603.996 Q756.816 604.505 754.339 604.505 Q748.136 604.505 744.502 600.894 Q740.89 597.283 740.89 591.126 Q740.89 584.76 744.316 581.033 Q747.765 577.283 753.599 577.283 Q758.83 577.283 761.863 580.663 Q764.918 584.019 764.918 589.806 M760.659 588.556 Q760.613 585.061 758.691 582.978 Q756.793 580.894 753.645 580.894 Q750.08 580.894 747.927 582.908 Q745.798 584.922 745.474 588.579 L760.659 588.556 Z" fill="#000000" fill-rule="nonzero" fill-opacity="1" /><path clip-path="url(#clip340)" d="M783.691 590.802 Q778.529 590.802 776.538 591.982 Q774.548 593.163 774.548 596.01 Q774.548 598.278 776.029 599.621 Q777.534 600.94 780.103 600.94 Q783.645 600.94 785.774 598.441 Q787.927 595.917 787.927 591.751 L787.927 590.802 L783.691 590.802 M792.186 589.042 L792.186 603.834 L787.927 603.834 L787.927 599.899 Q786.469 602.26 784.293 603.394 Q782.117 604.505 778.969 604.505 Q774.987 604.505 772.626 602.283 Q770.288 600.038 770.288 596.288 Q770.288 591.913 773.205 589.691 Q776.145 587.468 781.955 587.468 L787.927 587.468 L787.927 587.052 Q787.927 584.112 785.983 582.515 Q784.062 580.894 780.566 580.894 Q778.344 580.894 776.237 581.427 Q774.131 581.959 772.187 583.024 L772.187 579.089 Q774.525 578.186 776.724 577.746 Q778.923 577.283 781.006 577.283 Q786.631 577.283 789.409 580.2 Q792.186 583.117 792.186 589.042 Z" fill="#000000" fill-rule="nonzero" fill-opacity="1" /><path clip-path="url(#clip340)" d="M815.983 581.89 Q815.265 581.473 814.409 581.288 Q813.575 581.079 812.557 581.079 Q808.946 581.079 807.001 583.441 Q805.08 585.779 805.08 590.177 L805.08 603.834 L800.798 603.834 L800.798 577.908 L805.08 577.908 L805.08 581.936 Q806.423 579.575 808.575 578.441 Q810.728 577.283 813.807 577.283 Q814.247 577.283 814.779 577.353 Q815.311 577.399 815.959 577.515 L815.983 581.89 Z" fill="#000000" fill-rule="nonzero" fill-opacity="1" /><path clip-path="url(#clip340)" d="M841.168 588.186 L841.168 603.834 L836.908 603.834 L836.908 588.325 Q836.908 584.644 835.473 582.816 Q834.038 580.987 831.168 580.987 Q827.719 580.987 825.728 583.186 Q823.737 585.385 823.737 589.181 L823.737 603.834 L819.455 603.834 L819.455 577.908 L823.737 577.908 L823.737 581.936 Q825.265 579.598 827.325 578.441 Q829.408 577.283 832.117 577.283 Q836.584 577.283 838.876 580.061 Q841.168 582.816 841.168 588.186 Z" fill="#000000" fill-rule="nonzero" fill-opacity="1" /></svg>
