<?xml version="1.0" encoding="utf-8"?>
<svg xmlns="http://www.w3.org/2000/svg" xmlns:xlink="http://www.w3.org/1999/xlink" width="600" height="400" viewBox="0 0 2400 1600">
<defs>
  <clipPath id="clip420">
    <rect x="0" y="0" width="2400" height="1600"/>
  </clipPath>
</defs>
<path clip-path="url(#clip420)" d="M0 1600 L2400 1600 L2400 0 L0 0  Z" fill="#ffffff" fill-rule="evenodd" fill-opacity="1"/>
<defs>
  <clipPath id="clip421">
    <rect x="480" y="0" width="1681" height="1600"/>
  </clipPath>
</defs>
<path clip-path="url(#clip420)" d="M425.593 1202.71 L2132.28 1202.71 L2132.28 404.425 L425.593 404.425  Z" fill="#ffffff" fill-rule="evenodd" fill-opacity="1"/>
<defs>
  <clipPath id="clip422">
    <rect x="425" y="404" width="1708" height="799"/>
  </clipPath>
</defs>
<polyline clip-path="url(#clip422)" style="stroke:#000000; stroke-linecap:round; stroke-linejoin:round; stroke-width:2; stroke-opacity:0.1; fill:none" points="766.931,1202.71 766.931,404.425 "/>
<polyline clip-path="url(#clip422)" style="stroke:#000000; stroke-linecap:round; stroke-linejoin:round; stroke-width:2; stroke-opacity:0.1; fill:none" points="1193.6,1202.71 1193.6,404.425 "/>
<polyline clip-path="url(#clip422)" style="stroke:#000000; stroke-linecap:round; stroke-linejoin:round; stroke-width:2; stroke-opacity:0.1; fill:none" points="1620.28,1202.71 1620.28,404.425 "/>
<polyline clip-path="url(#clip422)" style="stroke:#000000; stroke-linecap:round; stroke-linejoin:round; stroke-width:2; stroke-opacity:0.1; fill:none" points="2046.95,1202.71 2046.95,404.425 "/>
<polyline clip-path="url(#clip420)" style="stroke:#000000; stroke-linecap:round; stroke-linejoin:round; stroke-width:4; stroke-opacity:1; fill:none" points="425.593,1202.71 2132.28,1202.71 "/>
<polyline clip-path="url(#clip420)" style="stroke:#000000; stroke-linecap:round; stroke-linejoin:round; stroke-width:4; stroke-opacity:1; fill:none" points="766.931,1202.71 766.931,1183.81 "/>
<polyline clip-path="url(#clip420)" style="stroke:#000000; stroke-linecap:round; stroke-linejoin:round; stroke-width:4; stroke-opacity:1; fill:none" points="1193.6,1202.71 1193.6,1183.81 "/>
<polyline clip-path="url(#clip420)" style="stroke:#000000; stroke-linecap:round; stroke-linejoin:round; stroke-width:4; stroke-opacity:1; fill:none" points="1620.28,1202.71 1620.28,1183.81 "/>
<polyline clip-path="url(#clip420)" style="stroke:#000000; stroke-linecap:round; stroke-linejoin:round; stroke-width:4; stroke-opacity:1; fill:none" points="2046.95,1202.71 2046.95,1183.81 "/>
<path clip-path="url(#clip420)" d="M757.209 1230.55 L775.566 1230.55 L775.566 1234.48 L761.492 1234.48 L761.492 1242.95 Q762.51 1242.61 763.529 1242.45 Q764.547 1242.26 765.566 1242.26 Q771.353 1242.26 774.732 1245.43 Q778.112 1248.6 778.112 1254.02 Q778.112 1259.6 774.64 1262.7 Q771.168 1265.78 764.848 1265.78 Q762.672 1265.78 760.404 1265.41 Q758.158 1265.04 755.751 1264.3 L755.751 1259.6 Q757.834 1260.73 760.056 1261.29 Q762.279 1261.84 764.756 1261.84 Q768.76 1261.84 771.098 1259.74 Q773.436 1257.63 773.436 1254.02 Q773.436 1250.41 771.098 1248.3 Q768.76 1246.2 764.756 1246.2 Q762.881 1246.2 761.006 1246.61 Q759.154 1247.03 757.209 1247.91 L757.209 1230.55 Z" fill="#000000" fill-rule="nonzero" fill-opacity="1" /><path clip-path="url(#clip420)" d="M1168.29 1261.17 L1175.93 1261.17 L1175.93 1234.81 L1167.62 1236.47 L1167.62 1232.21 L1175.88 1230.55 L1180.56 1230.55 L1180.56 1261.17 L1188.2 1261.17 L1188.2 1265.11 L1168.29 1265.11 L1168.29 1261.17 Z" fill="#000000" fill-rule="nonzero" fill-opacity="1" /><path clip-path="url(#clip420)" d="M1207.64 1233.63 Q1204.03 1233.63 1202.2 1237.19 Q1200.4 1240.73 1200.4 1247.86 Q1200.4 1254.97 1202.2 1258.53 Q1204.03 1262.08 1207.64 1262.08 Q1211.28 1262.08 1213.08 1258.53 Q1214.91 1254.97 1214.91 1247.86 Q1214.91 1240.73 1213.08 1237.19 Q1211.28 1233.63 1207.64 1233.63 M1207.64 1229.92 Q1213.45 1229.92 1216.51 1234.53 Q1219.59 1239.11 1219.59 1247.86 Q1219.59 1256.59 1216.51 1261.2 Q1213.45 1265.78 1207.64 1265.78 Q1201.83 1265.78 1198.75 1261.2 Q1195.7 1256.59 1195.7 1247.86 Q1195.7 1239.11 1198.75 1234.53 Q1201.83 1229.92 1207.64 1229.92 Z" fill="#000000" fill-rule="nonzero" fill-opacity="1" /><path clip-path="url(#clip420)" d="M1595.46 1261.17 L1603.1 1261.17 L1603.1 1234.81 L1594.79 1236.47 L1594.79 1232.21 L1603.05 1230.55 L1607.73 1230.55 L1607.73 1261.17 L1615.37 1261.17 L1615.37 1265.11 L1595.46 1265.11 L1595.46 1261.17 Z" fill="#000000" fill-rule="nonzero" fill-opacity="1" /><path clip-path="url(#clip420)" d="M1624.86 1230.55 L1643.22 1230.55 L1643.22 1234.48 L1629.14 1234.48 L1629.14 1242.95 Q1630.16 1242.61 1631.18 1242.45 Q1632.2 1242.26 1633.22 1242.26 Q1639 1242.26 1642.38 1245.43 Q1645.76 1248.6 1645.76 1254.02 Q1645.76 1259.6 1642.29 1262.7 Q1638.82 1265.78 1632.5 1265.78 Q1630.32 1265.78 1628.05 1265.41 Q1625.81 1265.04 1623.4 1264.3 L1623.4 1259.6 Q1625.48 1260.73 1627.71 1261.29 Q1629.93 1261.84 1632.41 1261.84 Q1636.41 1261.84 1638.75 1259.74 Q1641.09 1257.63 1641.09 1254.02 Q1641.09 1250.41 1638.75 1248.3 Q1636.41 1246.2 1632.41 1246.2 Q1630.53 1246.2 1628.66 1246.61 Q1626.8 1247.03 1624.86 1247.91 L1624.86 1230.55 Z" fill="#000000" fill-rule="nonzero" fill-opacity="1" /><path clip-path="url(#clip420)" d="M2025.72 1261.17 L2042.04 1261.17 L2042.04 1265.11 L2020.1 1265.11 L2020.1 1261.17 Q2022.76 1258.42 2027.34 1253.79 Q2031.95 1249.14 2033.13 1247.79 Q2035.37 1245.27 2036.25 1243.53 Q2037.16 1241.77 2037.16 1240.08 Q2037.16 1237.33 2035.21 1235.59 Q2033.29 1233.86 2030.19 1233.86 Q2027.99 1233.86 2025.54 1234.62 Q2023.11 1235.39 2020.33 1236.94 L2020.33 1232.21 Q2023.15 1231.08 2025.61 1230.5 Q2028.06 1229.92 2030.1 1229.92 Q2035.47 1229.92 2038.66 1232.61 Q2041.86 1235.29 2041.86 1239.78 Q2041.86 1241.91 2041.05 1243.83 Q2040.26 1245.73 2038.15 1248.33 Q2037.57 1249 2034.47 1252.21 Q2031.37 1255.41 2025.72 1261.17 Z" fill="#000000" fill-rule="nonzero" fill-opacity="1" /><path clip-path="url(#clip420)" d="M2061.86 1233.63 Q2058.25 1233.63 2056.42 1237.19 Q2054.61 1240.73 2054.61 1247.86 Q2054.61 1254.97 2056.42 1258.53 Q2058.25 1262.08 2061.86 1262.08 Q2065.49 1262.08 2067.3 1258.53 Q2069.12 1254.97 2069.12 1247.86 Q2069.12 1240.73 2067.3 1237.19 Q2065.49 1233.63 2061.86 1233.63 M2061.86 1229.92 Q2067.67 1229.92 2070.72 1234.53 Q2073.8 1239.11 2073.8 1247.86 Q2073.8 1256.59 2070.72 1261.2 Q2067.67 1265.78 2061.86 1265.78 Q2056.05 1265.78 2052.97 1261.2 Q2049.91 1256.59 2049.91 1247.86 Q2049.91 1239.11 2052.97 1234.53 Q2056.05 1229.92 2061.86 1229.92 Z" fill="#000000" fill-rule="nonzero" fill-opacity="1" /><path clip-path="url(#clip420)" d="M1001.33 1326.06 L1001.33 1347.57 L995.474 1347.57 L995.474 1326.25 Q995.474 1321.19 993.5 1318.67 Q991.527 1316.16 987.58 1316.16 Q982.838 1316.16 980.1 1319.18 Q977.363 1322.2 977.363 1327.42 L977.363 1347.57 L971.475 1347.57 L971.475 1311.92 L977.363 1311.92 L977.363 1317.46 Q979.464 1314.25 982.297 1312.66 Q985.161 1311.06 988.885 1311.06 Q995.028 1311.06 998.179 1314.88 Q1001.33 1318.67 1001.33 1326.06 Z" fill="#000000" fill-rule="nonzero" fill-opacity="1" /><path clip-path="url(#clip420)" d="M1012.41 1333.5 L1012.41 1311.92 L1018.26 1311.92 L1018.26 1333.28 Q1018.26 1338.34 1020.24 1340.89 Q1022.21 1343.4 1026.16 1343.4 Q1030.9 1343.4 1033.64 1340.38 Q1036.41 1337.35 1036.41 1332.13 L1036.41 1311.92 L1042.26 1311.92 L1042.26 1347.57 L1036.41 1347.57 L1036.41 1342.1 Q1034.27 1345.34 1031.44 1346.93 Q1028.64 1348.49 1024.91 1348.49 Q1018.77 1348.49 1015.59 1344.68 Q1012.41 1340.86 1012.41 1333.5 M1027.14 1311.06 L1027.14 1311.06 Z" fill="#000000" fill-rule="nonzero" fill-opacity="1" /><path clip-path="url(#clip420)" d="M1082.08 1318.77 Q1084.28 1314.82 1087.33 1312.94 Q1090.39 1311.06 1094.52 1311.06 Q1100.09 1311.06 1103.12 1314.98 Q1106.14 1318.86 1106.14 1326.06 L1106.14 1347.57 L1100.25 1347.57 L1100.25 1326.25 Q1100.25 1321.12 1098.44 1318.64 Q1096.62 1316.16 1092.9 1316.16 Q1088.35 1316.16 1085.71 1319.18 Q1083.07 1322.2 1083.07 1327.42 L1083.07 1347.57 L1077.18 1347.57 L1077.18 1326.25 Q1077.18 1321.09 1075.36 1318.64 Q1073.55 1316.16 1069.76 1316.16 Q1065.27 1316.16 1062.63 1319.21 Q1059.99 1322.24 1059.99 1327.42 L1059.99 1347.57 L1054.1 1347.57 L1054.1 1311.92 L1059.99 1311.92 L1059.99 1317.46 Q1062 1314.18 1064.8 1312.62 Q1067.6 1311.06 1071.45 1311.06 Q1075.33 1311.06 1078.04 1313.04 Q1080.77 1315.01 1082.08 1318.77 Z" fill="#000000" fill-rule="nonzero" fill-opacity="1" /><path clip-path="url(#clip420)" d="M1143.41 1329.78 Q1143.41 1323.32 1140.74 1319.66 Q1138.1 1315.97 1133.45 1315.97 Q1128.8 1315.97 1126.13 1319.66 Q1123.49 1323.32 1123.49 1329.78 Q1123.49 1336.24 1126.13 1339.93 Q1128.8 1343.59 1133.45 1343.59 Q1138.1 1343.59 1140.74 1339.93 Q1143.41 1336.24 1143.41 1329.78 M1123.49 1317.33 Q1125.33 1314.15 1128.13 1312.62 Q1130.97 1311.06 1134.88 1311.06 Q1141.38 1311.06 1145.42 1316.22 Q1149.49 1321.38 1149.49 1329.78 Q1149.49 1338.18 1145.42 1343.34 Q1141.38 1348.49 1134.88 1348.49 Q1130.97 1348.49 1128.13 1346.97 Q1125.33 1345.41 1123.49 1342.22 L1123.49 1347.57 L1117.6 1347.57 L1117.6 1298.05 L1123.49 1298.05 L1123.49 1317.33 Z" fill="#000000" fill-rule="nonzero" fill-opacity="1" /><path clip-path="url(#clip420)" d="M1189.69 1328.28 L1189.69 1331.15 L1162.76 1331.15 Q1163.15 1337.2 1166.39 1340.38 Q1169.67 1343.53 1175.5 1343.53 Q1178.87 1343.53 1182.02 1342.7 Q1185.2 1341.87 1188.32 1340.22 L1188.32 1345.76 Q1185.17 1347.09 1181.86 1347.79 Q1178.55 1348.49 1175.15 1348.49 Q1166.62 1348.49 1161.62 1343.53 Q1156.65 1338.56 1156.65 1330.1 Q1156.65 1321.34 1161.36 1316.22 Q1166.11 1311.06 1174.13 1311.06 Q1181.32 1311.06 1185.49 1315.71 Q1189.69 1320.33 1189.69 1328.28 M1183.83 1326.56 Q1183.77 1321.76 1181.13 1318.89 Q1178.52 1316.03 1174.19 1316.03 Q1169.29 1316.03 1166.33 1318.8 Q1163.4 1321.57 1162.96 1326.6 L1183.83 1326.56 Z" fill="#000000" fill-rule="nonzero" fill-opacity="1" /><path clip-path="url(#clip420)" d="M1219.96 1317.4 Q1218.97 1316.83 1217.8 1316.57 Q1216.65 1316.28 1215.25 1316.28 Q1210.28 1316.28 1207.61 1319.53 Q1204.97 1322.75 1204.97 1328.79 L1204.97 1347.57 L1199.08 1347.57 L1199.08 1311.92 L1204.97 1311.92 L1204.97 1317.46 Q1206.81 1314.22 1209.78 1312.66 Q1212.74 1311.06 1216.97 1311.06 Q1217.57 1311.06 1218.31 1311.16 Q1219.04 1311.22 1219.93 1311.38 L1219.96 1317.4 Z" fill="#000000" fill-rule="nonzero" fill-opacity="1" /><path clip-path="url(#clip420)" d="M1260.64 1316.03 Q1255.93 1316.03 1253.19 1319.72 Q1250.45 1323.38 1250.45 1329.78 Q1250.45 1336.18 1253.16 1339.87 Q1255.89 1343.53 1260.64 1343.53 Q1265.32 1343.53 1268.05 1339.84 Q1270.79 1336.14 1270.79 1329.78 Q1270.79 1323.45 1268.05 1319.75 Q1265.32 1316.03 1260.64 1316.03 M1260.64 1311.06 Q1268.28 1311.06 1272.64 1316.03 Q1277 1320.99 1277 1329.78 Q1277 1338.53 1272.64 1343.53 Q1268.28 1348.49 1260.64 1348.49 Q1252.97 1348.49 1248.61 1343.53 Q1244.28 1338.53 1244.28 1329.78 Q1244.28 1320.99 1248.61 1316.03 Q1252.97 1311.06 1260.64 1311.06 Z" fill="#000000" fill-rule="nonzero" fill-opacity="1" /><path clip-path="url(#clip420)" d="M1304.75 1298.05 L1304.75 1302.92 L1299.15 1302.92 Q1296 1302.92 1294.76 1304.19 Q1293.55 1305.46 1293.55 1308.77 L1293.55 1311.92 L1303.19 1311.92 L1303.19 1316.47 L1293.55 1316.47 L1293.55 1347.57 L1287.66 1347.57 L1287.66 1316.47 L1282.06 1316.47 L1282.06 1311.92 L1287.66 1311.92 L1287.66 1309.44 Q1287.66 1303.49 1290.43 1300.78 Q1293.2 1298.05 1299.21 1298.05 L1304.75 1298.05 Z" fill="#000000" fill-rule="nonzero" fill-opacity="1" /><path clip-path="url(#clip420)" d="M1353.1 1312.97 L1353.1 1318.51 Q1350.62 1317.24 1347.94 1316.6 Q1345.27 1315.97 1342.4 1315.97 Q1338.04 1315.97 1335.85 1317.3 Q1333.68 1318.64 1333.68 1321.31 Q1333.68 1323.35 1335.24 1324.53 Q1336.8 1325.67 1341.51 1326.72 L1343.52 1327.17 Q1349.76 1328.51 1352.37 1330.96 Q1355.01 1333.38 1355.01 1337.74 Q1355.01 1342.7 1351.06 1345.6 Q1347.15 1348.49 1340.27 1348.49 Q1337.41 1348.49 1334.29 1347.92 Q1331.2 1347.38 1327.76 1346.27 L1327.76 1340.22 Q1331.01 1341.91 1334.16 1342.77 Q1337.31 1343.59 1340.4 1343.59 Q1344.54 1343.59 1346.77 1342.19 Q1348.99 1340.76 1348.99 1338.18 Q1348.99 1335.79 1347.37 1334.52 Q1345.78 1333.25 1340.34 1332.07 L1338.3 1331.59 Q1332.86 1330.45 1330.44 1328.09 Q1328.02 1325.71 1328.02 1321.57 Q1328.02 1316.54 1331.58 1313.8 Q1335.15 1311.06 1341.7 1311.06 Q1344.95 1311.06 1347.82 1311.54 Q1350.68 1312.02 1353.1 1312.97 Z" fill="#000000" fill-rule="nonzero" fill-opacity="1" /><path clip-path="url(#clip420)" d="M1370.13 1301.8 L1370.13 1311.92 L1382.19 1311.92 L1382.19 1316.47 L1370.13 1316.47 L1370.13 1335.83 Q1370.13 1340.19 1371.3 1341.43 Q1372.51 1342.67 1376.17 1342.67 L1382.19 1342.67 L1382.19 1347.57 L1376.17 1347.57 Q1369.4 1347.57 1366.82 1345.06 Q1364.24 1342.51 1364.24 1335.83 L1364.24 1316.47 L1359.94 1316.47 L1359.94 1311.92 L1364.24 1311.92 L1364.24 1301.8 L1370.13 1301.8 Z" fill="#000000" fill-rule="nonzero" fill-opacity="1" /><path clip-path="url(#clip420)" d="M1406.09 1329.65 Q1399 1329.65 1396.26 1331.28 Q1393.52 1332.9 1393.52 1336.81 Q1393.52 1339.93 1395.56 1341.78 Q1397.63 1343.59 1401.16 1343.59 Q1406.03 1343.59 1408.96 1340.16 Q1411.92 1336.69 1411.92 1330.96 L1411.92 1329.65 L1406.09 1329.65 M1417.77 1327.23 L1417.77 1347.57 L1411.92 1347.57 L1411.92 1342.16 Q1409.91 1345.41 1406.92 1346.97 Q1403.93 1348.49 1399.6 1348.49 Q1394.13 1348.49 1390.88 1345.44 Q1387.66 1342.35 1387.66 1337.2 Q1387.66 1331.18 1391.68 1328.12 Q1395.72 1325.07 1403.71 1325.07 L1411.92 1325.07 L1411.92 1324.5 Q1411.92 1320.45 1409.24 1318.26 Q1406.6 1316.03 1401.8 1316.03 Q1398.74 1316.03 1395.84 1316.76 Q1392.95 1317.49 1390.27 1318.96 L1390.27 1313.55 Q1393.49 1312.31 1396.51 1311.7 Q1399.54 1311.06 1402.4 1311.06 Q1410.14 1311.06 1413.96 1315.07 Q1417.77 1319.08 1417.77 1327.23 Z" fill="#000000" fill-rule="nonzero" fill-opacity="1" /><path clip-path="url(#clip420)" d="M1435.63 1301.8 L1435.63 1311.92 L1447.69 1311.92 L1447.69 1316.47 L1435.63 1316.47 L1435.63 1335.83 Q1435.63 1340.19 1436.81 1341.43 Q1438.02 1342.67 1441.68 1342.67 L1447.69 1342.67 L1447.69 1347.57 L1441.68 1347.57 Q1434.9 1347.57 1432.32 1345.06 Q1429.74 1342.51 1429.74 1335.83 L1429.74 1316.47 L1425.45 1316.47 L1425.45 1311.92 L1429.74 1311.92 L1429.74 1301.8 L1435.63 1301.8 Z" fill="#000000" fill-rule="nonzero" fill-opacity="1" /><path clip-path="url(#clip420)" d="M1485.89 1328.28 L1485.89 1331.15 L1458.96 1331.15 Q1459.34 1337.2 1462.59 1340.38 Q1465.87 1343.53 1471.69 1343.53 Q1475.07 1343.53 1478.22 1342.7 Q1481.4 1341.87 1484.52 1340.22 L1484.52 1345.76 Q1481.37 1347.09 1478.06 1347.79 Q1474.75 1348.49 1471.34 1348.49 Q1462.81 1348.49 1457.81 1343.53 Q1452.85 1338.56 1452.85 1330.1 Q1452.85 1321.34 1457.56 1316.22 Q1462.3 1311.06 1470.32 1311.06 Q1477.52 1311.06 1481.69 1315.71 Q1485.89 1320.33 1485.89 1328.28 M1480.03 1326.56 Q1479.97 1321.76 1477.33 1318.89 Q1474.72 1316.03 1470.39 1316.03 Q1465.49 1316.03 1462.53 1318.8 Q1459.6 1321.57 1459.15 1326.6 L1480.03 1326.56 Z" fill="#000000" fill-rule="nonzero" fill-opacity="1" /><path clip-path="url(#clip420)" d="M1518.23 1312.97 L1518.23 1318.51 Q1515.74 1317.24 1513.07 1316.6 Q1510.4 1315.97 1507.53 1315.97 Q1503.17 1315.97 1500.97 1317.3 Q1498.81 1318.64 1498.81 1321.31 Q1498.81 1323.35 1500.37 1324.53 Q1501.93 1325.67 1506.64 1326.72 L1508.64 1327.17 Q1514.88 1328.51 1517.49 1330.96 Q1520.14 1333.38 1520.14 1337.74 Q1520.14 1342.7 1516.19 1345.6 Q1512.27 1348.49 1505.4 1348.49 Q1502.53 1348.49 1499.41 1347.92 Q1496.33 1347.38 1492.89 1346.27 L1492.89 1340.22 Q1496.14 1341.91 1499.29 1342.77 Q1502.44 1343.59 1505.53 1343.59 Q1509.66 1343.59 1511.89 1342.19 Q1514.12 1340.76 1514.12 1338.18 Q1514.12 1335.79 1512.5 1334.52 Q1510.9 1333.25 1505.46 1332.07 L1503.43 1331.59 Q1497.98 1330.45 1495.56 1328.09 Q1493.14 1325.71 1493.14 1321.57 Q1493.14 1316.54 1496.71 1313.8 Q1500.27 1311.06 1506.83 1311.06 Q1510.08 1311.06 1512.94 1311.54 Q1515.81 1312.02 1518.23 1312.97 Z" fill="#000000" fill-rule="nonzero" fill-opacity="1" /><path clip-path="url(#clip420)" d="M1550.44 1300.05 L1559.09 1300.05 L1580.16 1339.81 L1580.16 1300.05 L1586.4 1300.05 L1586.4 1347.57 L1577.74 1347.57 L1556.67 1307.82 L1556.67 1347.57 L1550.44 1347.57 L1550.44 1300.05 Z" fill="#000000" fill-rule="nonzero" fill-opacity="1" /><polyline clip-path="url(#clip422)" style="stroke:#000000; stroke-linecap:round; stroke-linejoin:round; stroke-width:2; stroke-opacity:0.1; fill:none" points="425.593,1202.71 2132.28,1202.71 "/>
<polyline clip-path="url(#clip422)" style="stroke:#000000; stroke-linecap:round; stroke-linejoin:round; stroke-width:2; stroke-opacity:0.1; fill:none" points="425.593,1008.59 2132.28,1008.59 "/>
<polyline clip-path="url(#clip422)" style="stroke:#000000; stroke-linecap:round; stroke-linejoin:round; stroke-width:2; stroke-opacity:0.1; fill:none" points="425.593,814.482 2132.28,814.482 "/>
<polyline clip-path="url(#clip422)" style="stroke:#000000; stroke-linecap:round; stroke-linejoin:round; stroke-width:2; stroke-opacity:0.1; fill:none" points="425.593,620.37 2132.28,620.37 "/>
<polyline clip-path="url(#clip422)" style="stroke:#000000; stroke-linecap:round; stroke-linejoin:round; stroke-width:2; stroke-opacity:0.1; fill:none" points="425.593,426.258 2132.28,426.258 "/>
<polyline clip-path="url(#clip420)" style="stroke:#000000; stroke-linecap:round; stroke-linejoin:round; stroke-width:4; stroke-opacity:1; fill:none" points="425.593,1202.71 425.593,404.425 "/>
<polyline clip-path="url(#clip420)" style="stroke:#000000; stroke-linecap:round; stroke-linejoin:round; stroke-width:4; stroke-opacity:1; fill:none" points="425.593,1202.71 444.491,1202.71 "/>
<polyline clip-path="url(#clip420)" style="stroke:#000000; stroke-linecap:round; stroke-linejoin:round; stroke-width:4; stroke-opacity:1; fill:none" points="425.593,1008.59 444.491,1008.59 "/>
<polyline clip-path="url(#clip420)" style="stroke:#000000; stroke-linecap:round; stroke-linejoin:round; stroke-width:4; stroke-opacity:1; fill:none" points="425.593,814.482 444.491,814.482 "/>
<polyline clip-path="url(#clip420)" style="stroke:#000000; stroke-linecap:round; stroke-linejoin:round; stroke-width:4; stroke-opacity:1; fill:none" points="425.593,620.37 444.491,620.37 "/>
<polyline clip-path="url(#clip420)" style="stroke:#000000; stroke-linecap:round; stroke-linejoin:round; stroke-width:4; stroke-opacity:1; fill:none" points="425.593,426.258 444.491,426.258 "/>
<path clip-path="url(#clip420)" d="M377.649 1188.51 Q374.038 1188.51 372.209 1192.07 Q370.404 1195.61 370.404 1202.74 Q370.404 1209.85 372.209 1213.41 Q374.038 1216.96 377.649 1216.96 Q381.283 1216.96 383.089 1213.41 Q384.918 1209.85 384.918 1202.74 Q384.918 1195.61 383.089 1192.07 Q381.283 1188.51 377.649 1188.51 M377.649 1184.8 Q383.459 1184.8 386.515 1189.41 Q389.593 1193.99 389.593 1202.74 Q389.593 1211.47 386.515 1216.08 Q383.459 1220.66 377.649 1220.66 Q371.839 1220.66 368.76 1216.08 Q365.705 1211.47 365.705 1202.74 Q365.705 1193.99 368.76 1189.41 Q371.839 1184.8 377.649 1184.8 Z" fill="#000000" fill-rule="nonzero" fill-opacity="1" /><path clip-path="url(#clip420)" d="M341.515 1021.94 L357.834 1021.94 L357.834 1025.87 L335.89 1025.87 L335.89 1021.94 Q338.552 1019.19 343.135 1014.56 Q347.742 1009.9 348.922 1008.56 Q351.168 1006.04 352.047 1004.3 Q352.95 1002.54 352.95 1000.85 Q352.95 998.097 351.006 996.361 Q349.084 994.625 345.983 994.625 Q343.783 994.625 341.33 995.389 Q338.899 996.153 336.121 997.704 L336.121 992.982 Q338.946 991.847 341.399 991.269 Q343.853 990.69 345.89 990.69 Q351.26 990.69 354.455 993.375 Q357.649 996.06 357.649 1000.55 Q357.649 1002.68 356.839 1004.6 Q356.052 1006.5 353.945 1009.09 Q353.367 1009.76 350.265 1012.98 Q347.163 1016.18 341.515 1021.94 Z" fill="#000000" fill-rule="nonzero" fill-opacity="1" /><path clip-path="url(#clip420)" d="M377.649 994.394 Q374.038 994.394 372.209 997.958 Q370.404 1001.5 370.404 1008.63 Q370.404 1015.74 372.209 1019.3 Q374.038 1022.84 377.649 1022.84 Q381.283 1022.84 383.089 1019.3 Q384.918 1015.74 384.918 1008.63 Q384.918 1001.5 383.089 997.958 Q381.283 994.394 377.649 994.394 M377.649 990.69 Q383.459 990.69 386.515 995.296 Q389.593 999.88 389.593 1008.63 Q389.593 1017.36 386.515 1021.96 Q383.459 1026.55 377.649 1026.55 Q371.839 1026.55 368.76 1021.96 Q365.705 1017.36 365.705 1008.63 Q365.705 999.88 368.76 995.296 Q371.839 990.69 377.649 990.69 Z" fill="#000000" fill-rule="nonzero" fill-opacity="1" /><path clip-path="url(#clip420)" d="M350.334 801.277 L338.529 819.726 L350.334 819.726 L350.334 801.277 M349.108 797.202 L354.987 797.202 L354.987 819.726 L359.918 819.726 L359.918 823.614 L354.987 823.614 L354.987 831.762 L350.334 831.762 L350.334 823.614 L334.733 823.614 L334.733 819.101 L349.108 797.202 Z" fill="#000000" fill-rule="nonzero" fill-opacity="1" /><path clip-path="url(#clip420)" d="M377.649 800.281 Q374.038 800.281 372.209 803.846 Q370.404 807.388 370.404 814.517 Q370.404 821.624 372.209 825.188 Q374.038 828.73 377.649 828.73 Q381.283 828.73 383.089 825.188 Q384.918 821.624 384.918 814.517 Q384.918 807.388 383.089 803.846 Q381.283 800.281 377.649 800.281 M377.649 796.578 Q383.459 796.578 386.515 801.184 Q389.593 805.767 389.593 814.517 Q389.593 823.244 386.515 827.85 Q383.459 832.434 377.649 832.434 Q371.839 832.434 368.76 827.85 Q365.705 823.244 365.705 814.517 Q365.705 805.767 368.76 801.184 Q371.839 796.578 377.649 796.578 Z" fill="#000000" fill-rule="nonzero" fill-opacity="1" /><path clip-path="url(#clip420)" d="M348.066 618.507 Q344.918 618.507 343.066 620.659 Q341.237 622.812 341.237 626.562 Q341.237 630.289 343.066 632.465 Q344.918 634.618 348.066 634.618 Q351.214 634.618 353.043 632.465 Q354.895 630.289 354.895 626.562 Q354.895 622.812 353.043 620.659 Q351.214 618.507 348.066 618.507 M357.348 603.854 L357.348 608.113 Q355.589 607.28 353.783 606.84 Q352.001 606.4 350.242 606.4 Q345.612 606.4 343.158 609.525 Q340.728 612.65 340.381 618.97 Q341.746 616.956 343.807 615.891 Q345.867 614.803 348.344 614.803 Q353.552 614.803 356.561 617.974 Q359.594 621.122 359.594 626.562 Q359.594 631.886 356.445 635.104 Q353.297 638.321 348.066 638.321 Q342.071 638.321 338.899 633.738 Q335.728 629.132 335.728 620.405 Q335.728 612.21 339.617 607.349 Q343.506 602.465 350.057 602.465 Q351.816 602.465 353.598 602.812 Q355.404 603.159 357.348 603.854 Z" fill="#000000" fill-rule="nonzero" fill-opacity="1" /><path clip-path="url(#clip420)" d="M377.649 606.169 Q374.038 606.169 372.209 609.734 Q370.404 613.275 370.404 620.405 Q370.404 627.511 372.209 631.076 Q374.038 634.618 377.649 634.618 Q381.283 634.618 383.089 631.076 Q384.918 627.511 384.918 620.405 Q384.918 613.275 383.089 609.734 Q381.283 606.169 377.649 606.169 M377.649 602.465 Q383.459 602.465 386.515 607.072 Q389.593 611.655 389.593 620.405 Q389.593 629.132 386.515 633.738 Q383.459 638.321 377.649 638.321 Q371.839 638.321 368.76 633.738 Q365.705 629.132 365.705 620.405 Q365.705 611.655 368.76 607.072 Q371.839 602.465 377.649 602.465 Z" fill="#000000" fill-rule="nonzero" fill-opacity="1" /><path clip-path="url(#clip420)" d="M347.487 427.126 Q344.154 427.126 342.233 428.908 Q340.334 430.69 340.334 433.815 Q340.334 436.94 342.233 438.723 Q344.154 440.505 347.487 440.505 Q350.82 440.505 352.742 438.723 Q354.663 436.917 354.663 433.815 Q354.663 430.69 352.742 428.908 Q350.844 427.126 347.487 427.126 M342.811 425.135 Q339.802 424.394 338.112 422.334 Q336.446 420.274 336.446 417.311 Q336.446 413.167 339.385 410.76 Q342.348 408.353 347.487 408.353 Q352.649 408.353 355.589 410.76 Q358.529 413.167 358.529 417.311 Q358.529 420.274 356.839 422.334 Q355.172 424.394 352.186 425.135 Q355.566 425.922 357.441 428.214 Q359.339 430.505 359.339 433.815 Q359.339 438.839 356.26 441.524 Q353.205 444.209 347.487 444.209 Q341.77 444.209 338.691 441.524 Q335.635 438.839 335.635 433.815 Q335.635 430.505 337.534 428.214 Q339.432 425.922 342.811 425.135 M341.098 417.751 Q341.098 420.436 342.765 421.94 Q344.455 423.445 347.487 423.445 Q350.496 423.445 352.186 421.94 Q353.899 420.436 353.899 417.751 Q353.899 415.066 352.186 413.561 Q350.496 412.056 347.487 412.056 Q344.455 412.056 342.765 413.561 Q341.098 415.066 341.098 417.751 Z" fill="#000000" fill-rule="nonzero" fill-opacity="1" /><path clip-path="url(#clip420)" d="M377.649 412.056 Q374.038 412.056 372.209 415.621 Q370.404 419.163 370.404 426.292 Q370.404 433.399 372.209 436.964 Q374.038 440.505 377.649 440.505 Q381.283 440.505 383.089 436.964 Q384.918 433.399 384.918 426.292 Q384.918 419.163 383.089 415.621 Q381.283 412.056 377.649 412.056 M377.649 408.353 Q383.459 408.353 386.515 412.959 Q389.593 417.542 389.593 426.292 Q389.593 435.019 386.515 439.626 Q383.459 444.209 377.649 444.209 Q371.839 444.209 368.76 439.626 Q365.705 435.019 365.705 426.292 Q365.705 417.542 368.76 412.959 Q371.839 408.353 377.649 408.353 Z" fill="#000000" fill-rule="nonzero" fill-opacity="1" /><path clip-path="url(#clip420)" d="M240.617 995.397 L247.396 995.397 Q244.373 998.643 242.877 1002.34 Q241.381 1006 241.381 1010.13 Q241.381 1018.28 246.378 1022.61 Q251.343 1026.94 260.764 1026.94 Q270.154 1026.94 275.151 1022.61 Q280.116 1018.28 280.116 1010.13 Q280.116 1006 278.62 1002.34 Q277.124 998.643 274.1 995.397 L280.816 995.397 Q283.108 998.77 284.254 1002.56 Q285.4 1006.31 285.4 1010.52 Q285.4 1021.3 278.811 1027.51 Q272.191 1033.72 260.764 1033.72 Q249.306 1033.72 242.718 1027.51 Q236.097 1021.3 236.097 1010.52 Q236.097 1006.25 237.243 1002.49 Q238.357 998.707 240.617 995.397 Z" fill="#000000" fill-rule="nonzero" fill-opacity="1" /><path clip-path="url(#clip420)" d="M242.24 979.037 L260.096 979.037 L260.096 970.952 Q260.096 966.464 257.772 964.014 Q255.449 961.563 251.152 961.563 Q246.887 961.563 244.564 964.014 Q242.24 966.464 242.24 970.952 L242.24 979.037 M236.957 985.466 L236.957 970.952 Q236.957 962.963 240.585 958.889 Q244.182 954.783 251.152 954.783 Q258.186 954.783 261.783 958.889 Q265.379 962.963 265.379 970.952 L265.379 979.037 L284.477 979.037 L284.477 985.466 L236.957 985.466 Z" fill="#000000" fill-rule="nonzero" fill-opacity="1" /><path clip-path="url(#clip420)" d="M236.957 946.89 L236.957 940.429 L265.825 940.429 Q273.464 940.429 276.838 937.66 Q280.18 934.891 280.18 928.684 Q280.18 922.509 276.838 919.74 Q273.464 916.971 265.825 916.971 L236.957 916.971 L236.957 910.51 L266.621 910.51 Q275.915 910.51 280.657 915.125 Q285.4 919.708 285.4 928.684 Q285.4 937.691 280.657 942.307 Q275.915 946.89 266.621 946.89 L236.957 946.89 Z" fill="#000000" fill-rule="nonzero" fill-opacity="1" /><path clip-path="url(#clip420)" d="M238.707 872.188 L248.829 872.188 L248.829 860.125 L253.38 860.125 L253.38 872.188 L272.732 872.188 Q277.092 872.188 278.334 871.011 Q279.575 869.801 279.575 866.141 L279.575 860.125 L284.477 860.125 L284.477 866.141 Q284.477 872.92 281.962 875.498 Q279.416 878.077 272.732 878.077 L253.38 878.077 L253.38 882.373 L248.829 882.373 L248.829 878.077 L238.707 878.077 L238.707 872.188 Z" fill="#000000" fill-rule="nonzero" fill-opacity="1" /><path clip-path="url(#clip420)" d="M248.829 852.423 L248.829 846.566 L284.477 846.566 L284.477 852.423 L248.829 852.423 M234.951 852.423 L234.951 846.566 L242.367 846.566 L242.367 852.423 L234.951 852.423 Z" fill="#000000" fill-rule="nonzero" fill-opacity="1" /><path clip-path="url(#clip420)" d="M255.672 806.558 Q251.725 804.362 249.847 801.306 Q247.969 798.251 247.969 794.113 Q247.969 788.543 251.884 785.519 Q255.767 782.495 262.961 782.495 L284.477 782.495 L284.477 788.384 L263.151 788.384 Q258.027 788.384 255.544 790.198 Q253.062 792.012 253.062 795.736 Q253.062 800.288 256.086 802.929 Q259.109 805.571 264.329 805.571 L284.477 805.571 L284.477 811.459 L263.151 811.459 Q257.995 811.459 255.544 813.274 Q253.062 815.088 253.062 818.876 Q253.062 823.363 256.117 826.005 Q259.141 828.647 264.329 828.647 L284.477 828.647 L284.477 834.535 L248.829 834.535 L248.829 828.647 L254.367 828.647 Q251.088 826.642 249.529 823.841 Q247.969 821.04 247.969 817.189 Q247.969 813.306 249.943 810.6 Q251.916 807.863 255.672 806.558 Z" fill="#000000" fill-rule="nonzero" fill-opacity="1" /><path clip-path="url(#clip420)" d="M265.189 740.323 L268.053 740.323 L268.053 767.25 Q274.1 766.868 277.283 763.621 Q280.434 760.343 280.434 754.518 Q280.434 751.144 279.607 747.993 Q278.779 744.811 277.124 741.691 L282.662 741.691 Q283.999 744.842 284.699 748.153 Q285.4 751.463 285.4 754.868 Q285.4 763.398 280.434 768.395 Q275.469 773.361 267.003 773.361 Q258.25 773.361 253.125 768.65 Q247.969 763.908 247.969 755.887 Q247.969 748.694 252.616 744.524 Q257.231 740.323 265.189 740.323 M263.47 746.179 Q258.664 746.243 255.799 748.885 Q252.935 751.495 252.935 755.823 Q252.935 760.725 255.704 763.685 Q258.473 766.613 263.502 767.059 L263.47 746.179 Z" fill="#000000" fill-rule="nonzero" fill-opacity="1" /><path clip-path="url(#clip420)" d="M235.015 695.922 Q242.336 700.187 249.497 702.256 Q256.658 704.325 264.011 704.325 Q271.363 704.325 278.588 702.256 Q285.782 700.155 293.07 695.922 L293.07 701.014 Q285.591 705.789 278.366 708.176 Q271.14 710.531 264.011 710.531 Q256.913 710.531 249.72 708.176 Q242.527 705.821 235.015 701.014 L235.015 695.922 Z" fill="#000000" fill-rule="nonzero" fill-opacity="1" /><path clip-path="url(#clip420)" d="M255.672 656.805 Q251.725 654.608 249.847 651.553 Q247.969 648.497 247.969 644.36 Q247.969 638.79 251.884 635.766 Q255.767 632.742 262.961 632.742 L284.477 632.742 L284.477 638.631 L263.151 638.631 Q258.027 638.631 255.544 640.445 Q253.062 642.259 253.062 645.983 Q253.062 650.534 256.086 653.176 Q259.109 655.818 264.329 655.818 L284.477 655.818 L284.477 661.706 L263.151 661.706 Q257.995 661.706 255.544 663.52 Q253.062 665.335 253.062 669.122 Q253.062 673.61 256.117 676.252 Q259.141 678.894 264.329 678.894 L284.477 678.894 L284.477 684.782 L248.829 684.782 L248.829 678.894 L254.367 678.894 Q251.088 676.888 249.529 674.088 Q247.969 671.287 247.969 667.435 Q247.969 663.552 249.943 660.847 Q251.916 658.11 255.672 656.805 Z" fill="#000000" fill-rule="nonzero" fill-opacity="1" /><path clip-path="url(#clip420)" d="M249.879 598.336 L255.417 598.336 Q254.144 600.818 253.507 603.492 Q252.871 606.165 252.871 609.03 Q252.871 613.39 254.208 615.587 Q255.544 617.751 258.218 617.751 Q260.255 617.751 261.433 616.191 Q262.579 614.632 263.629 609.921 L264.075 607.916 Q265.411 601.678 267.862 599.068 Q270.281 596.426 274.642 596.426 Q279.607 596.426 282.503 600.373 Q285.4 604.288 285.4 611.163 Q285.4 614.027 284.827 617.146 Q284.286 620.234 283.172 623.671 L277.124 623.671 Q278.811 620.425 279.67 617.274 Q280.498 614.123 280.498 611.035 Q280.498 606.897 279.098 604.669 Q277.665 602.441 275.087 602.441 Q272.7 602.441 271.427 604.065 Q270.154 605.656 268.976 611.099 L268.499 613.136 Q267.353 618.579 264.998 620.998 Q262.61 623.416 258.473 623.416 Q253.444 623.416 250.707 619.852 Q247.969 616.287 247.969 609.73 Q247.969 606.484 248.447 603.619 Q248.924 600.755 249.879 598.336 Z" fill="#000000" fill-rule="nonzero" fill-opacity="1" /><path clip-path="url(#clip420)" d="M235.015 588.023 L235.015 582.931 Q242.527 578.156 249.72 575.801 Q256.913 573.414 264.011 573.414 Q271.14 573.414 278.366 575.801 Q285.591 578.156 293.07 582.931 L293.07 588.023 Q285.782 583.79 278.588 581.721 Q271.363 579.62 264.011 579.62 Q256.658 579.62 249.497 581.721 Q242.336 583.79 235.015 588.023 Z" fill="#000000" fill-rule="nonzero" fill-opacity="1" /><path clip-path="url(#clip420)" d="M1036.13 64.8611 L1036.13 87.0195 L1049.25 87.0195 Q1055.86 87.0195 1059.01 84.3054 Q1062.22 81.5508 1062.22 75.92 Q1062.22 70.2488 1059.01 67.5752 Q1055.86 64.8611 1049.25 64.8611 L1036.13 64.8611 M1036.13 39.9885 L1036.13 58.2176 L1048.24 58.2176 Q1054.23 58.2176 1057.15 55.9896 Q1060.11 53.7211 1060.11 49.103 Q1060.11 44.5255 1057.15 42.257 Q1054.23 39.9885 1048.24 39.9885 L1036.13 39.9885 M1027.94 33.264 L1048.85 33.264 Q1058.2 33.264 1063.27 37.1529 Q1068.33 41.0417 1068.33 48.2118 Q1068.33 53.7616 1065.74 57.0428 Q1063.15 60.324 1058.12 61.1342 Q1064.16 62.4305 1067.48 66.5624 Q1070.84 70.6538 1070.84 76.8112 Q1070.84 84.913 1065.33 89.3285 Q1059.83 93.744 1049.66 93.744 L1027.94 93.744 L1027.94 33.264 Z" fill="#000000" fill-rule="nonzero" fill-opacity="1" /><path clip-path="url(#clip420)" d="M1105.15 70.9374 Q1096.12 70.9374 1092.64 73.0034 Q1089.15 75.0693 1089.15 80.0519 Q1089.15 84.0218 1091.75 86.3714 Q1094.38 88.6804 1098.88 88.6804 Q1105.07 88.6804 1108.8 84.3054 Q1112.57 79.8899 1112.57 72.5983 L1112.57 70.9374 L1105.15 70.9374 M1120.02 67.8587 L1120.02 93.744 L1112.57 93.744 L1112.57 86.8575 Q1110.02 90.9894 1106.21 92.9743 Q1102.4 94.9188 1096.89 94.9188 Q1089.92 94.9188 1085.79 91.0299 Q1081.7 87.1005 1081.7 80.5381 Q1081.7 72.8818 1086.8 68.993 Q1091.95 65.1041 1102.12 65.1041 L1112.57 65.1041 L1112.57 64.3749 Q1112.57 59.2303 1109.17 56.4352 Q1105.8 53.5995 1099.69 53.5995 Q1095.8 53.5995 1092.11 54.5312 Q1088.42 55.463 1085.02 57.3264 L1085.02 50.4398 Q1089.11 48.86 1092.96 48.0903 Q1096.81 47.2801 1100.46 47.2801 Q1110.3 47.2801 1115.16 52.3843 Q1120.02 57.4884 1120.02 67.8587 Z" fill="#000000" fill-rule="nonzero" fill-opacity="1" /><path clip-path="url(#clip420)" d="M1134.6 75.839 L1134.6 48.3739 L1142.06 48.3739 L1142.06 75.5554 Q1142.06 81.9964 1144.57 85.2371 Q1147.08 88.4373 1152.1 88.4373 Q1158.14 88.4373 1161.62 84.589 Q1165.15 80.7406 1165.15 74.0971 L1165.15 48.3739 L1172.6 48.3739 L1172.6 93.744 L1165.15 93.744 L1165.15 86.7764 Q1162.43 90.9084 1158.83 92.9338 Q1155.26 94.9188 1150.52 94.9188 Q1142.71 94.9188 1138.66 90.0577 Q1134.6 85.1966 1134.6 75.839 M1153.36 47.2801 L1153.36 47.2801 Z" fill="#000000" fill-rule="nonzero" fill-opacity="1" /><path clip-path="url(#clip420)" d="M1223.28 57.0833 Q1226.07 52.0602 1229.96 49.6702 Q1233.85 47.2801 1239.12 47.2801 Q1246.21 47.2801 1250.06 52.2627 Q1253.9 57.2048 1253.9 66.3599 L1253.9 93.744 L1246.41 93.744 L1246.41 66.6029 Q1246.41 60.081 1244.1 56.9213 Q1241.79 53.7616 1237.05 53.7616 Q1231.26 53.7616 1227.9 57.6099 Q1224.53 61.4583 1224.53 68.1018 L1224.53 93.744 L1217.04 93.744 L1217.04 66.6029 Q1217.04 60.0405 1214.73 56.9213 Q1212.42 53.7616 1207.6 53.7616 Q1201.89 53.7616 1198.53 57.6504 Q1195.17 61.4988 1195.17 68.1018 L1195.17 93.744 L1187.67 93.744 L1187.67 48.3739 L1195.17 48.3739 L1195.17 55.4224 Q1197.72 51.25 1201.28 49.2651 Q1204.85 47.2801 1209.75 47.2801 Q1214.69 47.2801 1218.13 49.7917 Q1221.62 52.3032 1223.28 57.0833 Z" fill="#000000" fill-rule="nonzero" fill-opacity="1" /><path clip-path="url(#clip420)" d="M1265 67.6967 L1286.84 67.6967 L1286.84 74.3402 L1265 74.3402 L1265 67.6967 Z" fill="#000000" fill-rule="nonzero" fill-opacity="1" /><path clip-path="url(#clip420)" d="M1290.28 33.264 L1298.54 33.264 L1311.26 84.3864 L1323.94 33.264 L1333.14 33.264 L1345.86 84.3864 L1358.54 33.264 L1366.84 33.264 L1351.65 93.744 L1341.36 93.744 L1328.6 41.2443 L1315.72 93.744 L1305.43 93.744 L1290.28 33.264 Z" fill="#000000" fill-rule="nonzero" fill-opacity="1" /><path clip-path="url(#clip420)" d="M1411.32 69.1955 L1411.32 72.8413 L1377.05 72.8413 Q1377.54 80.5381 1381.67 84.589 Q1385.84 88.5994 1393.25 88.5994 Q1397.55 88.5994 1401.56 87.5461 Q1405.61 86.4929 1409.58 84.3864 L1409.58 91.435 Q1405.57 93.1364 1401.36 94.0276 Q1397.14 94.9188 1392.81 94.9188 Q1381.95 94.9188 1375.59 88.5994 Q1369.27 82.2799 1369.27 71.5045 Q1369.27 60.3645 1375.27 53.8426 Q1381.3 47.2801 1391.51 47.2801 Q1400.67 47.2801 1405.97 53.1944 Q1411.32 59.0683 1411.32 69.1955 M1403.87 67.008 Q1403.79 60.8912 1400.43 57.2454 Q1397.1 53.5995 1391.59 53.5995 Q1385.36 53.5995 1381.59 57.1238 Q1377.86 60.6481 1377.29 67.0485 L1403.87 67.008 Z" fill="#000000" fill-rule="nonzero" fill-opacity="1" /><path clip-path="url(#clip420)" d="M1423.56 30.7119 L1431.01 30.7119 L1431.01 93.744 L1423.56 93.744 L1423.56 30.7119 Z" fill="#000000" fill-rule="nonzero" fill-opacity="1" /><path clip-path="url(#clip420)" d="M1479.26 50.1158 L1479.26 57.0833 Q1476.1 55.3414 1472.9 54.4907 Q1469.74 53.5995 1466.5 53.5995 Q1459.24 53.5995 1455.23 58.2176 Q1451.22 62.7951 1451.22 71.0994 Q1451.22 79.4038 1455.23 84.0218 Q1459.24 88.5994 1466.5 88.5994 Q1469.74 88.5994 1472.9 87.7487 Q1476.1 86.8575 1479.26 85.1156 L1479.26 92.0021 Q1476.14 93.4604 1472.77 94.1896 Q1469.45 94.9188 1465.69 94.9188 Q1455.44 94.9188 1449.4 88.4778 Q1443.36 82.0369 1443.36 71.0994 Q1443.36 60 1449.44 53.64 Q1455.56 47.2801 1466.17 47.2801 Q1469.61 47.2801 1472.9 48.0093 Q1476.18 48.6979 1479.26 50.1158 Z" fill="#000000" fill-rule="nonzero" fill-opacity="1" /><path clip-path="url(#clip420)" d="M1529.93 66.3599 L1529.93 93.744 L1522.48 93.744 L1522.48 66.6029 Q1522.48 60.162 1519.97 56.9618 Q1517.46 53.7616 1512.43 53.7616 Q1506.4 53.7616 1502.91 57.6099 Q1499.43 61.4583 1499.43 68.1018 L1499.43 93.744 L1491.93 93.744 L1491.93 30.7119 L1499.43 30.7119 L1499.43 55.4224 Q1502.1 51.331 1505.71 49.3056 Q1509.35 47.2801 1514.09 47.2801 Q1521.91 47.2801 1525.92 52.1412 Q1529.93 56.9618 1529.93 66.3599 Z" fill="#000000" fill-rule="nonzero" fill-opacity="1" /><path clip-path="url(#clip420)" d="M785.862 121.513 Q780.434 130.83 777.801 139.945 Q775.168 149.059 775.168 158.417 Q775.168 167.774 777.801 176.97 Q780.475 186.125 785.862 195.401 L779.381 195.401 Q773.305 185.882 770.266 176.686 Q767.269 167.491 767.269 158.417 Q767.269 149.383 770.266 140.228 Q773.264 131.073 779.381 121.513 L785.862 121.513 Z" fill="#000000" fill-rule="nonzero" fill-opacity="1" /><path clip-path="url(#clip420)" d="M808.831 130.709 L808.831 177.739 L818.715 177.739 Q831.233 177.739 837.025 172.068 Q842.859 166.397 842.859 154.163 Q842.859 142.011 837.025 136.38 Q831.233 130.709 818.715 130.709 L808.831 130.709 M800.648 123.984 L817.459 123.984 Q835.04 123.984 843.264 131.316 Q851.487 138.608 851.487 154.163 Q851.487 169.8 843.223 177.132 Q834.959 184.464 817.459 184.464 L800.648 184.464 L800.648 123.984 Z" fill="#000000" fill-rule="nonzero" fill-opacity="1" /><path clip-path="url(#clip420)" d="M865.179 146.791 L917.112 146.791 L917.112 153.596 L865.179 153.596 L865.179 146.791 M865.179 163.318 L917.112 163.318 L917.112 170.205 L865.179 170.205 L865.179 163.318 Z" fill="#000000" fill-rule="nonzero" fill-opacity="1" /><path clip-path="url(#clip420)" d="M936.191 177.577 L949.559 177.577 L949.559 131.438 L935.017 134.354 L935.017 126.901 L949.478 123.984 L957.661 123.984 L957.661 177.577 L971.029 177.577 L971.029 184.464 L936.191 184.464 L936.191 177.577 Z" fill="#000000" fill-rule="nonzero" fill-opacity="1" /><path clip-path="url(#clip420)" d="M988.408 174.175 L996.955 174.175 L996.955 181.142 L990.312 194.105 L985.086 194.105 L988.408 181.142 L988.408 174.175 Z" fill="#000000" fill-rule="nonzero" fill-opacity="1" /><path clip-path="url(#clip420)" d="M1004.81 123.984 L1055.98 123.984 L1055.98 130.871 L1034.51 130.871 L1034.51 184.464 L1026.28 184.464 L1026.28 130.871 L1004.81 130.871 L1004.81 123.984 Z" fill="#000000" fill-rule="nonzero" fill-opacity="1" /><path clip-path="url(#clip420)" d="M1064.52 146.791 L1116.46 146.791 L1116.46 153.596 L1064.52 153.596 L1064.52 146.791 M1064.52 163.318 L1116.46 163.318 L1116.46 170.205 L1064.52 170.205 L1064.52 163.318 Z" fill="#000000" fill-rule="nonzero" fill-opacity="1" /><path clip-path="url(#clip420)" d="M1135.54 177.577 L1148.9 177.577 L1148.9 131.438 L1134.36 134.354 L1134.36 126.901 L1148.82 123.984 L1157.01 123.984 L1157.01 177.577 L1170.37 177.577 L1170.37 184.464 L1135.54 184.464 L1135.54 177.577 Z" fill="#000000" fill-rule="nonzero" fill-opacity="1" /><path clip-path="url(#clip420)" d="M1204.4 129.372 Q1198.08 129.372 1194.88 135.61 Q1191.72 141.808 1191.72 154.285 Q1191.72 166.721 1194.88 172.959 Q1198.08 179.157 1204.4 179.157 Q1210.76 179.157 1213.92 172.959 Q1217.12 166.721 1217.12 154.285 Q1217.12 141.808 1213.92 135.61 Q1210.76 129.372 1204.4 129.372 M1204.4 122.89 Q1214.57 122.89 1219.92 130.952 Q1225.3 138.972 1225.3 154.285 Q1225.3 169.557 1219.92 177.618 Q1214.57 185.639 1204.4 185.639 Q1194.23 185.639 1188.85 177.618 Q1183.5 169.557 1183.5 154.285 Q1183.5 138.972 1188.85 130.952 Q1194.23 122.89 1204.4 122.89 Z" fill="#000000" fill-rule="nonzero" fill-opacity="1" /><path clip-path="url(#clip420)" d="M1257.19 129.372 Q1250.87 129.372 1247.67 135.61 Q1244.51 141.808 1244.51 154.285 Q1244.51 166.721 1247.67 172.959 Q1250.87 179.157 1257.19 179.157 Q1263.55 179.157 1266.7 172.959 Q1269.9 166.721 1269.9 154.285 Q1269.9 141.808 1266.7 135.61 Q1263.55 129.372 1257.19 129.372 M1257.19 122.89 Q1267.35 122.89 1272.7 130.952 Q1278.09 138.972 1278.09 154.285 Q1278.09 169.557 1272.7 177.618 Q1267.35 185.639 1257.19 185.639 Q1247.02 185.639 1241.63 177.618 Q1236.28 169.557 1236.28 154.285 Q1236.28 138.972 1241.63 130.952 Q1247.02 122.89 1257.19 122.89 Z" fill="#000000" fill-rule="nonzero" fill-opacity="1" /><path clip-path="url(#clip420)" d="M1309.97 129.372 Q1303.65 129.372 1300.45 135.61 Q1297.29 141.808 1297.29 154.285 Q1297.29 166.721 1300.45 172.959 Q1303.65 179.157 1309.97 179.157 Q1316.33 179.157 1319.49 172.959 Q1322.69 166.721 1322.69 154.285 Q1322.69 141.808 1319.49 135.61 Q1316.33 129.372 1309.97 129.372 M1309.97 122.89 Q1320.14 122.89 1325.48 130.952 Q1330.87 138.972 1330.87 154.285 Q1330.87 169.557 1325.48 177.618 Q1320.14 185.639 1309.97 185.639 Q1299.8 185.639 1294.41 177.618 Q1289.07 169.557 1289.07 154.285 Q1289.07 138.972 1294.41 130.952 Q1299.8 122.89 1309.97 122.89 Z" fill="#000000" fill-rule="nonzero" fill-opacity="1" /><path clip-path="url(#clip420)" d="M1346.1 174.175 L1354.65 174.175 L1354.65 181.142 L1348.01 194.105 L1342.78 194.105 L1346.1 181.142 L1346.1 174.175 Z" fill="#000000" fill-rule="nonzero" fill-opacity="1" /><path clip-path="url(#clip420)" d="M1370.89 123.984 L1379.08 123.984 L1379.08 149.545 L1406.22 123.984 L1416.75 123.984 L1386.73 152.178 L1418.9 184.464 L1408.12 184.464 L1379.08 155.338 L1379.08 184.464 L1370.89 184.464 L1370.89 123.984 Z" fill="#000000" fill-rule="nonzero" fill-opacity="1" /><path clip-path="url(#clip420)" d="M1425.95 146.791 L1477.88 146.791 L1477.88 153.596 L1425.95 153.596 L1425.95 146.791 M1425.95 163.318 L1477.88 163.318 L1477.88 170.205 L1425.95 170.205 L1425.95 163.318 Z" fill="#000000" fill-rule="nonzero" fill-opacity="1" /><path clip-path="url(#clip420)" d="M1496.96 177.577 L1510.33 177.577 L1510.33 131.438 L1495.78 134.354 L1495.78 126.901 L1510.25 123.984 L1518.43 123.984 L1518.43 177.577 L1531.8 177.577 L1531.8 184.464 L1496.96 184.464 L1496.96 177.577 Z" fill="#000000" fill-rule="nonzero" fill-opacity="1" /><path clip-path="url(#clip420)" d="M1549.17 174.175 L1557.72 174.175 L1557.72 181.142 L1551.08 194.105 L1545.85 194.105 L1549.17 181.142 L1549.17 174.175 Z" fill="#000000" fill-rule="nonzero" fill-opacity="1" /><path clip-path="url(#clip420)" d="M1573.97 123.984 L1582.15 123.984 L1582.15 184.464 L1573.97 184.464 L1573.97 123.984 Z" fill="#000000" fill-rule="nonzero" fill-opacity="1" /><path clip-path="url(#clip420)" d="M1599.08 146.791 L1651.01 146.791 L1651.01 153.596 L1599.08 153.596 L1599.08 146.791 M1599.08 163.318 L1651.01 163.318 L1651.01 170.205 L1599.08 170.205 L1599.08 163.318 Z" fill="#000000" fill-rule="nonzero" fill-opacity="1" /><path clip-path="url(#clip420)" d="M1670.09 177.577 L1683.46 177.577 L1683.46 131.438 L1668.92 134.354 L1668.92 126.901 L1683.38 123.984 L1691.56 123.984 L1691.56 177.577 L1704.93 177.577 L1704.93 184.464 L1670.09 184.464 L1670.09 177.577 Z" fill="#000000" fill-rule="nonzero" fill-opacity="1" /><path clip-path="url(#clip420)" d="M1738.96 129.372 Q1732.64 129.372 1729.44 135.61 Q1726.28 141.808 1726.28 154.285 Q1726.28 166.721 1729.44 172.959 Q1732.64 179.157 1738.96 179.157 Q1745.32 179.157 1748.48 172.959 Q1751.68 166.721 1751.68 154.285 Q1751.68 141.808 1748.48 135.61 Q1745.32 129.372 1738.96 129.372 M1738.96 122.89 Q1749.13 122.89 1754.47 130.952 Q1759.86 138.972 1759.86 154.285 Q1759.86 169.557 1754.47 177.618 Q1749.13 185.639 1738.96 185.639 Q1728.79 185.639 1723.4 177.618 Q1718.06 169.557 1718.06 154.285 Q1718.06 138.972 1723.4 130.952 Q1728.79 122.89 1738.96 122.89 Z" fill="#000000" fill-rule="nonzero" fill-opacity="1" /><path clip-path="url(#clip420)" d="M1772.01 121.513 L1778.5 121.513 Q1784.57 131.073 1787.57 140.228 Q1790.61 149.383 1790.61 158.417 Q1790.61 167.491 1787.57 176.686 Q1784.57 185.882 1778.5 195.401 L1772.01 195.401 Q1777.4 186.125 1780.04 176.97 Q1782.71 167.774 1782.71 158.417 Q1782.71 149.059 1780.04 139.945 Q1777.4 130.83 1772.01 121.513 Z" fill="#000000" fill-rule="nonzero" fill-opacity="1" /><polyline clip-path="url(#clip422)" style="stroke:#ffa500; stroke-linecap:round; stroke-linejoin:round; stroke-width:6; stroke-opacity:1; fill:none" stroke-dasharray="24, 15" points="510.928,1158.75 766.931,1081.54 1022.93,993.979 1278.94,866.396 1534.94,732.035 1790.95,585.092 2046.95,404.425 "/>
<path clip-path="url(#clip422)" d="M494.928 1142.75 L494.928 1174.75 L526.928 1174.75 L526.928 1142.75 L494.928 1142.75 Z" fill="#ffa500" fill-rule="evenodd" fill-opacity="1" stroke="#000000" stroke-opacity="1" stroke-width="3.2"/>
<path clip-path="url(#clip422)" d="M750.931 1065.54 L750.931 1097.54 L782.931 1097.54 L782.931 1065.54 L750.931 1065.54 Z" fill="#ffa500" fill-rule="evenodd" fill-opacity="1" stroke="#000000" stroke-opacity="1" stroke-width="3.2"/>
<path clip-path="url(#clip422)" d="M1006.93 977.979 L1006.93 1009.98 L1038.93 1009.98 L1038.93 977.979 L1006.93 977.979 Z" fill="#ffa500" fill-rule="evenodd" fill-opacity="1" stroke="#000000" stroke-opacity="1" stroke-width="3.2"/>
<path clip-path="url(#clip422)" d="M1262.94 850.396 L1262.94 882.396 L1294.94 882.396 L1294.94 850.396 L1262.94 850.396 Z" fill="#ffa500" fill-rule="evenodd" fill-opacity="1" stroke="#000000" stroke-opacity="1" stroke-width="3.2"/>
<path clip-path="url(#clip422)" d="M1518.94 716.035 L1518.94 748.035 L1550.94 748.035 L1550.94 716.035 L1518.94 716.035 Z" fill="#ffa500" fill-rule="evenodd" fill-opacity="1" stroke="#000000" stroke-opacity="1" stroke-width="3.2"/>
<path clip-path="url(#clip422)" d="M1774.95 569.092 L1774.95 601.092 L1806.95 601.092 L1806.95 569.092 L1774.95 569.092 Z" fill="#ffa500" fill-rule="evenodd" fill-opacity="1" stroke="#000000" stroke-opacity="1" stroke-width="3.2"/>
<path clip-path="url(#clip422)" d="M2030.95 388.425 L2030.95 420.425 L2062.95 420.425 L2062.95 388.425 L2030.95 388.425 Z" fill="#ffa500" fill-rule="evenodd" fill-opacity="1" stroke="#000000" stroke-opacity="1" stroke-width="3.2"/>
<polyline clip-path="url(#clip422)" style="stroke:#0000ff; stroke-linecap:round; stroke-linejoin:round; stroke-width:6; stroke-opacity:1; fill:none" points="510.928,1177.31 766.931,1159.41 1022.93,1143.87 1278.94,1113.89 1534.94,1084.55 1790.95,1076.8 2046.95,1054.23 "/>
<circle clip-path="url(#clip422)" cx="510.928" cy="1177.31" r="14.4" fill="#0000ff" fill-rule="evenodd" fill-opacity="1" stroke="#000000" stroke-opacity="1" stroke-width="3.2"/>
<circle clip-path="url(#clip422)" cx="766.931" cy="1159.41" r="14.4" fill="#0000ff" fill-rule="evenodd" fill-opacity="1" stroke="#000000" stroke-opacity="1" stroke-width="3.2"/>
<circle clip-path="url(#clip422)" cx="1022.93" cy="1143.87" r="14.4" fill="#0000ff" fill-rule="evenodd" fill-opacity="1" stroke="#000000" stroke-opacity="1" stroke-width="3.2"/>
<circle clip-path="url(#clip422)" cx="1278.94" cy="1113.89" r="14.4" fill="#0000ff" fill-rule="evenodd" fill-opacity="1" stroke="#000000" stroke-opacity="1" stroke-width="3.2"/>
<circle clip-path="url(#clip422)" cx="1534.94" cy="1084.55" r="14.4" fill="#0000ff" fill-rule="evenodd" fill-opacity="1" stroke="#000000" stroke-opacity="1" stroke-width="3.2"/>
<circle clip-path="url(#clip422)" cx="1790.95" cy="1076.8" r="14.4" fill="#0000ff" fill-rule="evenodd" fill-opacity="1" stroke="#000000" stroke-opacity="1" stroke-width="3.2"/>
<circle clip-path="url(#clip422)" cx="2046.95" cy="1054.23" r="14.4" fill="#0000ff" fill-rule="evenodd" fill-opacity="1" stroke="#000000" stroke-opacity="1" stroke-width="3.2"/>
<polyline clip-path="url(#clip422)" style="stroke:#008000; stroke-linecap:round; stroke-linejoin:round; stroke-width:6; stroke-opacity:1; fill:none" stroke-dasharray="24, 12, 3, 12" points="510.928,1176.26 766.931,1160.47 1022.93,1137.8 1278.94,875.311 1534.94,883.395 1790.95,920.665 2046.95,631.596 "/>
<path clip-path="url(#clip422)" d="M526.928 1160.26 L494.928 1160.26 L510.928 1192.26 L526.928 1160.26 Z" fill="#008000" fill-rule="evenodd" fill-opacity="1" stroke="#000000" stroke-opacity="1" stroke-width="3.2"/>
<path clip-path="url(#clip422)" d="M782.931 1144.47 L750.931 1144.47 L766.931 1176.47 L782.931 1144.47 Z" fill="#008000" fill-rule="evenodd" fill-opacity="1" stroke="#000000" stroke-opacity="1" stroke-width="3.2"/>
<path clip-path="url(#clip422)" d="M1038.93 1121.8 L1006.93 1121.8 L1022.93 1153.8 L1038.93 1121.8 Z" fill="#008000" fill-rule="evenodd" fill-opacity="1" stroke="#000000" stroke-opacity="1" stroke-width="3.2"/>
<path clip-path="url(#clip422)" d="M1294.94 859.311 L1262.94 859.311 L1278.94 891.311 L1294.94 859.311 Z" fill="#008000" fill-rule="evenodd" fill-opacity="1" stroke="#000000" stroke-opacity="1" stroke-width="3.2"/>
<path clip-path="url(#clip422)" d="M1550.94 867.395 L1518.94 867.395 L1534.94 899.395 L1550.94 867.395 Z" fill="#008000" fill-rule="evenodd" fill-opacity="1" stroke="#000000" stroke-opacity="1" stroke-width="3.2"/>
<path clip-path="url(#clip422)" d="M1806.95 904.665 L1774.95 904.665 L1790.95 936.665 L1806.95 904.665 Z" fill="#008000" fill-rule="evenodd" fill-opacity="1" stroke="#000000" stroke-opacity="1" stroke-width="3.2"/>
<path clip-path="url(#clip422)" d="M2062.95 615.596 L2030.95 615.596 L2046.95 647.596 L2062.95 615.596 Z" fill="#008000" fill-rule="evenodd" fill-opacity="1" stroke="#000000" stroke-opacity="1" stroke-width="3.2"/>
<path clip-path="url(#clip420)" d="M482.483 638.394 L918.359 638.394 L918.359 431.034 L482.483 431.034  Z" fill="#ffffff" fill-rule="evenodd" fill-opacity="1"/>
<polyline clip-path="url(#clip420)" style="stroke:#000000; stroke-linecap:round; stroke-linejoin:round; stroke-width:4; stroke-opacity:1; fill:none" points="482.483,638.394 918.359,638.394 918.359,431.034 482.483,431.034 482.483,638.394 "/>
<polyline clip-path="url(#clip420)" style="stroke:#ffa500; stroke-linecap:round; stroke-linejoin:round; stroke-width:6; stroke-opacity:1; fill:none" stroke-dasharray="24, 15" points="501.446,482.874 615.226,482.874 "/>
<path clip-path="url(#clip420)" d="M540.777 465.315 L540.777 500.433 L575.895 500.433 L575.895 465.315 L540.777 465.315 Z" fill="#ffa500" fill-rule="evenodd" fill-opacity="1" stroke="#000000" stroke-opacity="1" stroke-width="4.55111"/>
<path clip-path="url(#clip420)" d="M634.189 465.594 L638.865 465.594 L638.865 479.761 L655.855 479.761 L655.855 465.594 L660.531 465.594 L660.531 500.154 L655.855 500.154 L655.855 483.696 L638.865 483.696 L638.865 500.154 L634.189 500.154 L634.189 465.594 Z" fill="#000000" fill-rule="nonzero" fill-opacity="1" /><path clip-path="url(#clip420)" d="M669.837 465.594 L676.804 465.594 L685.624 489.112 L694.489 465.594 L701.457 465.594 L701.457 500.154 L696.897 500.154 L696.897 469.807 L687.985 493.511 L683.286 493.511 L674.374 469.807 L674.374 500.154 L669.837 500.154 L669.837 465.594 Z" fill="#000000" fill-rule="nonzero" fill-opacity="1" /><path clip-path="url(#clip420)" d="M710.739 465.594 L717.707 465.594 L726.526 489.112 L735.392 465.594 L742.36 465.594 L742.36 500.154 L737.799 500.154 L737.799 469.807 L728.887 493.511 L724.188 493.511 L715.276 469.807 L715.276 500.154 L710.739 500.154 L710.739 465.594 Z" fill="#000000" fill-rule="nonzero" fill-opacity="1" /><path clip-path="url(#clip420)" d="M756.318 483.649 L756.318 496.311 L763.818 496.311 Q767.591 496.311 769.396 494.761 Q771.225 493.186 771.225 489.969 Q771.225 486.728 769.396 485.2 Q767.591 483.649 763.818 483.649 L756.318 483.649 M756.318 469.437 L756.318 479.853 L763.239 479.853 Q766.665 479.853 768.332 478.58 Q770.021 477.284 770.021 474.645 Q770.021 472.029 768.332 470.733 Q766.665 469.437 763.239 469.437 L756.318 469.437 M751.642 465.594 L763.586 465.594 Q768.934 465.594 771.827 467.816 Q774.721 470.038 774.721 474.136 Q774.721 477.307 773.239 479.182 Q771.758 481.057 768.887 481.52 Q772.336 482.261 774.234 484.622 Q776.156 486.96 776.156 490.478 Q776.156 495.108 773.008 497.631 Q769.859 500.154 764.049 500.154 L751.642 500.154 L751.642 465.594 Z" fill="#000000" fill-rule="nonzero" fill-opacity="1" /><path clip-path="url(#clip420)" d="M795.762 487.122 Q790.6 487.122 788.609 488.302 Q786.619 489.483 786.619 492.33 Q786.619 494.598 788.1 495.941 Q789.605 497.26 792.174 497.26 Q795.716 497.26 797.845 494.761 Q799.998 492.237 799.998 488.071 L799.998 487.122 L795.762 487.122 M804.257 485.362 L804.257 500.154 L799.998 500.154 L799.998 496.219 Q798.54 498.58 796.364 499.714 Q794.188 500.825 791.04 500.825 Q787.058 500.825 784.697 498.603 Q782.359 496.358 782.359 492.608 Q782.359 488.233 785.276 486.011 Q788.216 483.788 794.026 483.788 L799.998 483.788 L799.998 483.372 Q799.998 480.432 798.054 478.835 Q796.132 477.214 792.637 477.214 Q790.415 477.214 788.308 477.747 Q786.202 478.279 784.258 479.344 L784.258 475.409 Q786.595 474.506 788.795 474.066 Q790.994 473.603 793.077 473.603 Q798.702 473.603 801.48 476.52 Q804.257 479.437 804.257 485.362 Z" fill="#000000" fill-rule="nonzero" fill-opacity="1" /><path clip-path="url(#clip420)" d="M829.558 474.992 L829.558 479.02 Q827.753 478.094 825.808 477.631 Q823.864 477.168 821.78 477.168 Q818.609 477.168 817.012 478.14 Q815.438 479.112 815.438 481.057 Q815.438 482.538 816.572 483.395 Q817.706 484.228 821.132 484.992 L822.591 485.316 Q827.128 486.288 829.026 488.071 Q830.947 489.83 830.947 493.001 Q830.947 496.612 828.077 498.719 Q825.23 500.825 820.23 500.825 Q818.146 500.825 815.878 500.409 Q813.632 500.015 811.132 499.205 L811.132 494.807 Q813.493 496.034 815.785 496.659 Q818.077 497.26 820.322 497.26 Q823.331 497.26 824.952 496.242 Q826.572 495.2 826.572 493.325 Q826.572 491.589 825.392 490.663 Q824.234 489.737 820.276 488.881 L818.794 488.534 Q814.836 487.7 813.077 485.987 Q811.318 484.251 811.318 481.242 Q811.318 477.585 813.91 475.594 Q816.503 473.603 821.271 473.603 Q823.632 473.603 825.716 473.95 Q827.799 474.298 829.558 474.992 Z" fill="#000000" fill-rule="nonzero" fill-opacity="1" /><path clip-path="url(#clip420)" d="M859.905 486.126 L859.905 488.21 L840.322 488.21 Q840.6 492.608 842.961 494.923 Q845.345 497.214 849.581 497.214 Q852.035 497.214 854.327 496.612 Q856.641 496.01 858.91 494.807 L858.91 498.835 Q856.618 499.807 854.211 500.316 Q851.803 500.825 849.327 500.825 Q843.123 500.825 839.489 497.214 Q835.878 493.603 835.878 487.446 Q835.878 481.08 839.304 477.353 Q842.753 473.603 848.586 473.603 Q853.817 473.603 856.85 476.983 Q859.905 480.339 859.905 486.126 M855.646 484.876 Q855.6 481.381 853.678 479.298 Q851.78 477.214 848.632 477.214 Q845.067 477.214 842.915 479.228 Q840.785 481.242 840.461 484.899 L855.646 484.876 Z" fill="#000000" fill-rule="nonzero" fill-opacity="1" /><path clip-path="url(#clip420)" d="M867.498 494.274 L872.382 494.274 L872.382 500.154 L867.498 500.154 L867.498 494.274 Z" fill="#000000" fill-rule="nonzero" fill-opacity="1" /><path clip-path="url(#clip420)" d="M881.965 474.228 L886.225 474.228 L886.225 500.617 Q886.225 505.571 884.326 507.793 Q882.451 510.015 878.262 510.015 L876.641 510.015 L876.641 506.404 L877.776 506.404 Q880.206 506.404 881.086 505.27 Q881.965 504.159 881.965 500.617 L881.965 474.228 M881.965 464.136 L886.225 464.136 L886.225 469.529 L881.965 469.529 L881.965 464.136 Z" fill="#000000" fill-rule="nonzero" fill-opacity="1" /><path clip-path="url(#clip420)" d="M895.137 464.136 L899.396 464.136 L899.396 500.154 L895.137 500.154 L895.137 464.136 Z" fill="#000000" fill-rule="nonzero" fill-opacity="1" /><polyline clip-path="url(#clip420)" style="stroke:#0000ff; stroke-linecap:round; stroke-linejoin:round; stroke-width:6; stroke-opacity:1; fill:none" points="501.446,534.714 615.226,534.714 "/>
<circle clip-path="url(#clip420)" cx="558.336" cy="534.714" r="15.8027" fill="#0000ff" fill-rule="evenodd" fill-opacity="1" stroke="#000000" stroke-opacity="1" stroke-width="4.55111"/>
<path clip-path="url(#clip420)" d="M634.189 517.434 L638.865 517.434 L638.865 531.601 L655.855 531.601 L655.855 517.434 L660.531 517.434 L660.531 551.994 L655.855 551.994 L655.855 535.536 L638.865 535.536 L638.865 551.994 L634.189 551.994 L634.189 517.434 Z" fill="#000000" fill-rule="nonzero" fill-opacity="1" /><path clip-path="url(#clip420)" d="M669.837 517.434 L676.804 517.434 L685.624 540.952 L694.489 517.434 L701.457 517.434 L701.457 551.994 L696.897 551.994 L696.897 521.647 L687.985 545.351 L683.286 545.351 L674.374 521.647 L674.374 551.994 L669.837 551.994 L669.837 517.434 Z" fill="#000000" fill-rule="nonzero" fill-opacity="1" /><path clip-path="url(#clip420)" d="M710.739 517.434 L717.707 517.434 L726.526 540.952 L735.392 517.434 L742.36 517.434 L742.36 551.994 L737.799 551.994 L737.799 521.647 L728.887 545.351 L724.188 545.351 L715.276 521.647 L715.276 551.994 L710.739 551.994 L710.739 517.434 Z" fill="#000000" fill-rule="nonzero" fill-opacity="1" /><path clip-path="url(#clip420)" d="M767.984 526.832 L767.984 530.86 Q766.179 529.934 764.234 529.471 Q762.29 529.008 760.207 529.008 Q757.035 529.008 755.438 529.98 Q753.864 530.952 753.864 532.897 Q753.864 534.378 754.998 535.235 Q756.133 536.068 759.559 536.832 L761.017 537.156 Q765.554 538.128 767.452 539.911 Q769.373 541.67 769.373 544.841 Q769.373 548.452 766.503 550.559 Q763.656 552.665 758.656 552.665 Q756.572 552.665 754.304 552.249 Q752.059 551.855 749.559 551.045 L749.559 546.647 Q751.92 547.874 754.211 548.499 Q756.503 549.1 758.748 549.1 Q761.758 549.1 763.378 548.082 Q764.998 547.04 764.998 545.165 Q764.998 543.429 763.818 542.503 Q762.66 541.577 758.702 540.721 L757.221 540.374 Q753.262 539.54 751.503 537.827 Q749.744 536.091 749.744 533.082 Q749.744 529.425 752.336 527.434 Q754.929 525.443 759.697 525.443 Q762.059 525.443 764.142 525.79 Q766.225 526.138 767.984 526.832 Z" fill="#000000" fill-rule="nonzero" fill-opacity="1" /><path clip-path="url(#clip420)" d="M776.758 546.114 L781.642 546.114 L781.642 551.994 L776.758 551.994 L776.758 546.114 Z" fill="#000000" fill-rule="nonzero" fill-opacity="1" /><path clip-path="url(#clip420)" d="M791.225 526.068 L795.484 526.068 L795.484 552.457 Q795.484 557.411 793.586 559.633 Q791.711 561.855 787.521 561.855 L785.901 561.855 L785.901 558.244 L787.035 558.244 Q789.466 558.244 790.345 557.11 Q791.225 555.999 791.225 552.457 L791.225 526.068 M791.225 515.976 L795.484 515.976 L795.484 521.369 L791.225 521.369 L791.225 515.976 Z" fill="#000000" fill-rule="nonzero" fill-opacity="1" /><path clip-path="url(#clip420)" d="M804.396 515.976 L808.656 515.976 L808.656 551.994 L804.396 551.994 L804.396 515.976 Z" fill="#000000" fill-rule="nonzero" fill-opacity="1" /><polyline clip-path="url(#clip420)" style="stroke:#008000; stroke-linecap:round; stroke-linejoin:round; stroke-width:6; stroke-opacity:1; fill:none" stroke-dasharray="24, 12, 3, 12" points="501.446,586.554 615.226,586.554 "/>
<path clip-path="url(#clip420)" d="M575.895 568.995 L540.777 568.995 L558.336 604.113 L575.895 568.995 Z" fill="#008000" fill-rule="evenodd" fill-opacity="1" stroke="#000000" stroke-opacity="1" stroke-width="4.55111"/>
<path clip-path="url(#clip420)" d="M655.902 588.186 L655.902 603.834 L651.642 603.834 L651.642 588.325 Q651.642 584.644 650.207 582.816 Q648.772 580.987 645.902 580.987 Q642.453 580.987 640.462 583.186 Q638.471 585.385 638.471 589.181 L638.471 603.834 L634.189 603.834 L634.189 567.816 L638.471 567.816 L638.471 581.936 Q639.999 579.598 642.059 578.441 Q644.143 577.283 646.851 577.283 Q651.318 577.283 653.61 580.061 Q655.902 582.816 655.902 588.186 Z" fill="#000000" fill-rule="nonzero" fill-opacity="1" /><path clip-path="url(#clip420)" d="M684.582 582.885 Q686.179 580.015 688.402 578.649 Q690.624 577.283 693.633 577.283 Q697.684 577.283 699.883 580.13 Q702.082 582.954 702.082 588.186 L702.082 603.834 L697.8 603.834 L697.8 588.325 Q697.8 584.598 696.48 582.792 Q695.161 580.987 692.452 580.987 Q689.142 580.987 687.221 583.186 Q685.3 585.385 685.3 589.181 L685.3 603.834 L681.017 603.834 L681.017 588.325 Q681.017 584.575 679.698 582.792 Q678.378 580.987 675.624 580.987 Q672.36 580.987 670.439 583.209 Q668.517 585.408 668.517 589.181 L668.517 603.834 L664.235 603.834 L664.235 577.908 L668.517 577.908 L668.517 581.936 Q669.976 579.552 672.013 578.417 Q674.05 577.283 676.851 577.283 Q679.675 577.283 681.642 578.718 Q683.633 580.154 684.582 582.885 Z" fill="#000000" fill-rule="nonzero" fill-opacity="1" /><path clip-path="url(#clip420)" d="M730.762 582.885 Q732.36 580.015 734.582 578.649 Q736.804 577.283 739.813 577.283 Q743.864 577.283 746.063 580.13 Q748.262 582.954 748.262 588.186 L748.262 603.834 L743.98 603.834 L743.98 588.325 Q743.98 584.598 742.661 582.792 Q741.341 580.987 738.633 580.987 Q735.323 580.987 733.401 583.186 Q731.48 585.385 731.48 589.181 L731.48 603.834 L727.198 603.834 L727.198 588.325 Q727.198 584.575 725.878 582.792 Q724.559 580.987 721.804 580.987 Q718.54 580.987 716.619 583.209 Q714.698 585.408 714.698 589.181 L714.698 603.834 L710.415 603.834 L710.415 577.908 L714.698 577.908 L714.698 581.936 Q716.156 579.552 718.193 578.417 Q720.23 577.283 723.031 577.283 Q725.855 577.283 727.823 578.718 Q729.813 580.154 730.762 582.885 Z" fill="#000000" fill-rule="nonzero" fill-opacity="1" /><path clip-path="url(#clip420)" d="M756.758 567.816 L761.017 567.816 L761.017 603.834 L756.758 603.834 L756.758 567.816 Z" fill="#000000" fill-rule="nonzero" fill-opacity="1" /><path clip-path="url(#clip420)" d="M792.105 589.806 L792.105 591.89 L772.521 591.89 Q772.799 596.288 775.16 598.603 Q777.545 600.894 781.781 600.894 Q784.234 600.894 786.526 600.292 Q788.841 599.69 791.109 598.487 L791.109 602.515 Q788.818 603.487 786.41 603.996 Q784.003 604.505 781.526 604.505 Q775.322 604.505 771.688 600.894 Q768.077 597.283 768.077 591.126 Q768.077 584.76 771.503 581.033 Q774.952 577.283 780.785 577.283 Q786.017 577.283 789.049 580.663 Q792.105 584.019 792.105 589.806 M787.845 588.556 Q787.799 585.061 785.878 582.978 Q783.98 580.894 780.832 580.894 Q777.267 580.894 775.114 582.908 Q772.984 584.922 772.66 588.579 L787.845 588.556 Z" fill="#000000" fill-rule="nonzero" fill-opacity="1" /><path clip-path="url(#clip420)" d="M810.878 590.802 Q805.716 590.802 803.725 591.982 Q801.734 593.163 801.734 596.01 Q801.734 598.278 803.216 599.621 Q804.72 600.94 807.29 600.94 Q810.831 600.94 812.961 598.441 Q815.114 595.917 815.114 591.751 L815.114 590.802 L810.878 590.802 M819.373 589.042 L819.373 603.834 L815.114 603.834 L815.114 599.899 Q813.655 602.26 811.48 603.394 Q809.304 604.505 806.156 604.505 Q802.174 604.505 799.813 602.283 Q797.475 600.038 797.475 596.288 Q797.475 591.913 800.392 589.691 Q803.331 587.468 809.142 587.468 L815.114 587.468 L815.114 587.052 Q815.114 584.112 813.169 582.515 Q811.248 580.894 807.753 580.894 Q805.531 580.894 803.424 581.427 Q801.318 581.959 799.373 583.024 L799.373 579.089 Q801.711 578.186 803.91 577.746 Q806.109 577.283 808.193 577.283 Q813.818 577.283 816.595 580.2 Q819.373 583.117 819.373 589.042 Z" fill="#000000" fill-rule="nonzero" fill-opacity="1" /><path clip-path="url(#clip420)" d="M843.169 581.89 Q842.452 581.473 841.595 581.288 Q840.762 581.079 839.743 581.079 Q836.132 581.079 834.188 583.441 Q832.267 585.779 832.267 590.177 L832.267 603.834 L827.984 603.834 L827.984 577.908 L832.267 577.908 L832.267 581.936 Q833.609 579.575 835.762 578.441 Q837.915 577.283 840.993 577.283 Q841.433 577.283 841.966 577.353 Q842.498 577.399 843.146 577.515 L843.169 581.89 Z" fill="#000000" fill-rule="nonzero" fill-opacity="1" /><path clip-path="url(#clip420)" d="M868.354 588.186 L868.354 603.834 L864.095 603.834 L864.095 588.325 Q864.095 584.644 862.66 582.816 Q861.225 580.987 858.354 580.987 Q854.905 580.987 852.915 583.186 Q850.924 585.385 850.924 589.181 L850.924 603.834 L846.641 603.834 L846.641 577.908 L850.924 577.908 L850.924 581.936 Q852.452 579.598 854.512 578.441 Q856.595 577.283 859.303 577.283 Q863.771 577.283 866.063 580.061 Q868.354 582.816 868.354 588.186 Z" fill="#000000" fill-rule="nonzero" fill-opacity="1" /></svg>
